<svg width="221" height="128" viewBox="0 0 221 128" fill="none" xmlns="http://www.w3.org/2000/svg">
<path d="M118.981 44.6005L114.157 47.3046L109.337 44.6005L104.513 47.3046L99.6895 44.6005L94.8627 47.3046L90.029 44.6005L85.1953 47.3046V2.69531H118.981V44.6005Z" fill="white"/>
<path d="M85.1955 48C85.0111 47.9999 84.8342 47.9266 84.7038 47.7962C84.5734 47.6658 84.5001 47.4889 84.5 47.3045V2.6955C84.4999 2.60415 84.5179 2.51366 84.5528 2.42925C84.5877 2.34485 84.639 2.26818 84.7036 2.20359C84.7682 2.139 84.8448 2.08774 84.9293 2.05281C85.0137 2.01787 85.1041 1.99995 85.1955 2H118.981C119.073 1.99995 119.163 2.01787 119.248 2.05281C119.332 2.08774 119.409 2.139 119.473 2.20359C119.538 2.26818 119.589 2.34485 119.624 2.42925C119.659 2.51366 119.677 2.60415 119.677 2.6955V44.6C119.677 44.7237 119.644 44.845 119.581 44.9516C119.519 45.0582 119.429 45.1462 119.321 45.2065L114.496 47.911C114.392 47.9692 114.275 47.9997 114.156 47.9997C114.037 47.9997 113.919 47.9692 113.815 47.911L109.338 45.3973L104.854 47.911C104.75 47.9691 104.634 47.9997 104.515 47.9997C104.396 47.9997 104.279 47.9691 104.175 47.911L99.6896 45.3973L95.2028 47.911C95.0991 47.9692 94.9822 47.9999 94.8633 48C94.7444 48.0001 94.6274 47.9697 94.5236 47.9117L90.03 45.3966L85.5351 47.9117C85.4313 47.9697 85.3144 48.0001 85.1955 48ZM90.03 43.9044C90.1489 43.9044 90.2658 43.9348 90.3696 43.9927L94.8631 46.5071L99.35 43.9934C99.4537 43.9353 99.5707 43.9048 99.6896 43.9048C99.8085 43.9048 99.9254 43.9353 100.029 43.9934L104.515 46.5071L108.999 43.9934C109.103 43.9353 109.22 43.9048 109.339 43.9048C109.458 43.9048 109.575 43.9353 109.679 43.9934L114.156 46.5071L118.286 44.1924V3.391H85.891V46.1186L89.6903 43.9927C89.7941 43.9348 89.9111 43.9044 90.03 43.9044Z" fill="black"/>
<path d="M101.689 29.6068H91.0705C90.886 29.6068 90.7091 29.5336 90.5787 29.4031C90.4482 29.2727 90.375 29.0958 90.375 28.9113C90.375 28.7269 90.4482 28.5499 90.5787 28.4195C90.7091 28.2891 90.886 28.2158 91.0705 28.2158H101.689C101.874 28.2158 102.05 28.2891 102.181 28.4195C102.311 28.5499 102.385 28.7269 102.385 28.9113C102.385 29.0958 102.311 29.2727 102.181 29.4031C102.05 29.5336 101.874 29.6068 101.689 29.6068Z" fill="black"/>
<path d="M113.106 29.6068H107.928C107.743 29.6068 107.567 29.5336 107.436 29.4031C107.306 29.2727 107.232 29.0958 107.232 28.9113C107.232 28.7269 107.306 28.5499 107.436 28.4195C107.567 28.2891 107.743 28.2158 107.928 28.2158H113.106C113.291 28.2158 113.467 28.2891 113.598 28.4195C113.728 28.5499 113.802 28.7269 113.802 28.9113C113.802 29.0958 113.728 29.2727 113.598 29.4031C113.467 29.5336 113.291 29.6068 113.106 29.6068Z" fill="black"/>
<path d="M101.689 34.2113H91.0705C90.886 34.2113 90.7091 34.1381 90.5787 34.0076C90.4482 33.8772 90.375 33.7003 90.375 33.5158C90.375 33.3314 90.4482 33.1544 90.5787 33.024C90.7091 32.8936 90.886 32.8203 91.0705 32.8203H101.689C101.874 32.8203 102.05 32.8936 102.181 33.024C102.311 33.1544 102.385 33.3314 102.385 33.5158C102.385 33.7003 102.311 33.8772 102.181 34.0076C102.05 34.1381 101.874 34.2113 101.689 34.2113Z" fill="black"/>
<path d="M113.106 34.2113H107.928C107.743 34.2113 107.567 34.1381 107.436 34.0076C107.306 33.8772 107.232 33.7003 107.232 33.5158C107.232 33.3314 107.306 33.1544 107.436 33.024C107.567 32.8936 107.743 32.8203 107.928 32.8203H113.106C113.291 32.8203 113.467 32.8936 113.598 33.024C113.728 33.1544 113.802 33.3314 113.802 33.5158C113.802 33.7003 113.728 33.8772 113.598 34.0076C113.467 34.1381 113.291 34.2113 113.106 34.2113Z" fill="black"/>
<path d="M101.689 38.8153H91.0705C90.886 38.8153 90.7091 38.7421 90.5787 38.6116C90.4482 38.4812 90.375 38.3043 90.375 38.1198C90.375 37.9354 90.4482 37.7584 90.5787 37.628C90.7091 37.4976 90.886 37.4243 91.0705 37.4243H101.689C101.874 37.4243 102.05 37.4976 102.181 37.628C102.311 37.7584 102.385 37.9354 102.385 38.1198C102.385 38.3043 102.311 38.4812 102.181 38.6116C102.05 38.7421 101.874 38.8153 101.689 38.8153Z" fill="black"/>
<path d="M113.106 38.8153H107.928C107.743 38.8153 107.567 38.7421 107.436 38.6116C107.306 38.4812 107.232 38.3043 107.232 38.1198C107.232 37.9354 107.306 37.7584 107.436 37.628C107.567 37.4976 107.743 37.4243 107.928 37.4243H113.106C113.291 37.4243 113.467 37.4976 113.598 37.628C113.728 37.7584 113.802 37.9354 113.802 38.1198C113.802 38.3043 113.728 38.4812 113.598 38.6116C113.467 38.7421 113.291 38.8153 113.106 38.8153Z" fill="black"/>
<path d="M124.475 26.7214C130.391 26.7214 135.186 21.926 135.186 16.0106C135.186 10.0952 130.391 5.2998 124.475 5.2998C118.56 5.2998 113.765 10.0952 113.765 16.0106C113.765 21.926 118.56 26.7214 124.475 26.7214Z" fill="#A5D4F8"/>
<path d="M124.476 27.4169C122.22 27.4168 120.015 26.7478 118.139 25.4945C116.264 24.2411 114.802 22.4597 113.938 20.3755C113.075 18.2913 112.849 15.9979 113.29 13.7854C113.73 11.5728 114.816 9.54044 116.411 7.94528C118.006 6.35011 120.039 5.2638 122.251 4.82369C124.464 4.38357 126.757 4.60939 128.841 5.47266C130.925 6.33593 132.707 7.79789 133.96 9.67358C135.214 11.5493 135.883 13.7545 135.883 16.0104C135.879 19.0345 134.676 21.9338 132.538 24.0721C130.4 26.2105 127.5 27.4134 124.476 27.4169ZM124.476 5.99564C122.495 5.99569 120.559 6.58317 118.912 7.6837C117.265 8.78423 115.981 10.3484 115.224 12.1785C114.466 14.0085 114.267 16.0222 114.654 17.965C115.04 19.9077 115.994 21.6922 117.395 23.0928C118.796 24.4934 120.58 25.4473 122.523 25.8336C124.466 26.22 126.479 26.0215 128.309 25.2635C130.139 24.5054 131.704 23.2217 132.804 21.5746C133.904 19.9276 134.492 17.9912 134.492 16.0104C134.488 13.3552 133.432 10.8097 131.555 8.93224C129.677 7.05478 127.131 5.99872 124.476 5.99564Z" fill="black"/>
<path d="M123.277 20.6127C123.179 20.6125 123.082 20.5917 122.992 20.5517C122.903 20.5117 122.823 20.4533 122.758 20.3804L119.385 16.6074L120.423 15.681L123.225 18.8162L128.489 11.6914L129.608 12.5173L123.836 20.3301C123.775 20.4133 123.696 20.4818 123.605 20.5306C123.513 20.5793 123.412 20.6071 123.309 20.612L123.277 20.6127Z" fill="black"/>
<path d="M94.6701 20.9959C94.5788 20.996 94.4883 20.9781 94.4039 20.9431C94.3195 20.9082 94.2428 20.8569 94.1782 20.7924C94.1136 20.7278 94.0624 20.6511 94.0274 20.5667C93.9925 20.4823 93.9746 20.3918 93.9746 20.3004V9.508C93.9746 9.32354 94.0479 9.14661 94.1783 9.01617C94.3087 8.88574 94.4857 8.8125 94.6701 8.8125C94.8546 8.8125 95.0314 8.88574 95.1618 9.01617C95.2923 9.14661 95.3656 9.32354 95.3656 9.508V20.3004C95.3657 20.3918 95.3476 20.4823 95.3127 20.5667C95.2778 20.6511 95.2266 20.7278 95.162 20.7924C95.0974 20.8569 95.0207 20.9082 94.9363 20.9431C94.8519 20.9781 94.7615 20.996 94.6701 20.9959Z" fill="black"/>
<path d="M97.2076 15.5995H94.6701C94.4856 15.5995 94.3087 15.5262 94.1783 15.3958C94.0479 15.2654 93.9746 15.0885 93.9746 14.904C93.9746 14.7195 94.0479 14.5426 94.1783 14.4122C94.3087 14.2817 94.4856 14.2085 94.6701 14.2085H97.2076C97.392 14.2085 97.5689 14.2817 97.6993 14.4122C97.8298 14.5426 97.9031 14.7195 97.9031 14.904C97.9031 15.0885 97.8298 15.2654 97.6993 15.3958C97.5689 15.5262 97.392 15.5995 97.2076 15.5995Z" fill="black"/>
<path d="M97.2076 15.5995H94.6701C94.4856 15.5995 94.3087 15.5262 94.1783 15.3958C94.0479 15.2654 93.9746 15.0885 93.9746 14.904C93.9746 14.7195 94.0479 14.5426 94.1783 14.4122C94.3087 14.2817 94.4856 14.2085 94.6701 14.2085H97.2076C97.392 14.2085 97.5689 14.2817 97.6993 14.4122C97.8298 14.5426 97.9031 14.7195 97.9031 14.904C97.9031 15.0885 97.8298 15.2654 97.6993 15.3958C97.5689 15.5262 97.392 15.5995 97.2076 15.5995Z" fill="black"/>
<path d="M97.208 15.5997C97.0836 15.5996 96.9615 15.5663 96.8545 15.503C96.7474 15.4398 96.6593 15.349 96.5992 15.2401C96.5392 15.1312 96.5094 15.0082 96.513 14.8839C96.5166 14.7596 96.5535 14.6386 96.6198 14.5334L100.02 9.13715C100.118 8.98176 100.275 8.87183 100.454 8.83142C100.634 8.79102 100.822 8.82343 100.978 8.92159C101.133 9.01974 101.244 9.17565 101.285 9.35508C101.326 9.53451 101.294 9.72285 101.196 9.87883L97.7962 15.2751C97.7337 15.3746 97.6469 15.4567 97.544 15.5135C97.4411 15.5702 97.3255 15.5999 97.208 15.5997Z" fill="black"/>
<path d="M100.608 20.9961C100.491 20.9963 100.375 20.9666 100.272 20.9098C100.169 20.853 100.082 20.771 100.02 20.6714L96.6199 15.2752C96.5215 15.1192 96.4891 14.9305 96.5299 14.7507C96.5706 14.5708 96.6811 14.4145 96.8371 14.3162C96.9931 14.2178 97.1819 14.1854 97.3617 14.2262C97.5416 14.2669 97.6979 14.3775 97.7962 14.5335L101.196 19.9297C101.263 20.0349 101.299 20.156 101.303 20.2803C101.307 20.4046 101.277 20.5276 101.217 20.6364C101.157 20.7453 101.069 20.8361 100.962 20.8994C100.855 20.9626 100.732 20.996 100.608 20.9961Z" fill="black"/>
<path d="M103.568 9.27881H106.724C107.462 9.27881 108.17 9.57191 108.691 10.0936C109.213 10.6154 109.506 11.323 109.506 12.0608V17.5184C109.506 18.2562 109.213 18.9638 108.691 19.4856C108.17 20.0073 107.462 20.3004 106.724 20.3004H103.568V9.27881Z" fill="white"/>
<path d="M106.724 20.9958H103.569C103.477 20.9959 103.387 20.978 103.302 20.943C103.218 20.9081 103.141 20.8568 103.077 20.7922C103.012 20.7276 102.961 20.651 102.926 20.5666C102.891 20.4822 102.873 20.3917 102.873 20.3003V9.27899C102.873 9.18765 102.891 9.09715 102.926 9.01275C102.961 8.92834 103.012 8.85168 103.077 8.78709C103.141 8.72249 103.218 8.67124 103.302 8.6363C103.387 8.60137 103.477 8.58345 103.569 8.5835H106.724C107.646 8.58446 108.53 8.95111 109.182 9.60306C109.834 10.255 110.201 11.139 110.202 12.061V17.5183C110.201 18.4403 109.834 19.3242 109.182 19.9762C108.53 20.6281 107.646 20.9949 106.724 20.9958ZM104.264 19.6048H106.724C107.277 19.6042 107.808 19.3842 108.199 18.993C108.59 18.6019 108.81 18.0715 108.811 17.5183V12.061C108.81 11.5078 108.59 10.9774 108.199 10.5863C107.808 10.1951 107.277 9.9751 106.724 9.97449H104.264V19.6048Z" fill="black"/>
<path d="M84.5322 98H63.2922V94.04L74.0922 83.84C75.9322 82.16 77.3722 80.48 77.3722 78.52C77.3722 76.2 75.6922 74.72 73.5722 74.72C71.5722 74.72 70.1722 76.12 69.5322 77.52L63.5722 75.48C64.7322 71.36 68.8122 68.24 73.5322 68.24C79.2522 68.24 83.8522 72.16 83.8522 78.56C83.8522 82.24 81.2122 85.32 78.4922 87.92L73.7322 91.96H84.5322V98ZM96.0088 98H88.7688L99.4488 74.84H85.9688V68.8H107.209V72.72L96.0088 98ZM112.833 98.56C110.873 98.56 109.313 96.96 109.313 95.04C109.313 93.08 110.873 91.52 112.833 91.52C114.753 91.52 116.313 93.08 116.313 95.04C116.313 96.96 114.753 98.56 112.833 98.56ZM128.777 98H122.297V74.84H118.297V68.8H128.777V98ZM141.815 98H134.895V68.8H141.815V79.72L149.775 68.8H157.495L148.495 81.08L158.175 98H150.175L144.215 87.52L141.815 90.4V98Z" fill="#569FD6"/>
<path d="M38.5441 123H37.1021V112.78H38.5441V117.708L42.8701 112.78H44.5361L40.9521 116.994L44.8861 123H43.1921L40.0421 118.296L38.5441 119.92V123ZM49.4256 123H46.2896V112.78H49.4256C52.6036 112.78 54.8016 115.034 54.8016 117.876C54.8016 120.746 52.6876 123 49.4256 123ZM47.7316 114.194V121.572H49.4256C51.8616 121.572 53.3036 119.906 53.3036 117.862C53.3036 115.888 51.7776 114.194 49.4256 114.194H47.7316ZM61.1253 123H59.5293L63.2673 112.78H64.8353L68.5733 123H67.0053L66.0253 120.34H62.0913L61.1253 123ZM64.0513 114.726L62.5113 118.982H65.6053L64.0513 114.726ZM71.1463 123H69.7883V115.3H71.0483L71.1183 116.574C71.5103 115.678 72.3783 115.188 73.2183 115.188C74.4503 115.188 75.2483 115.902 75.5703 116.826C75.8923 115.916 76.6903 115.188 77.8103 115.188C79.4483 115.188 80.6663 116.238 80.6663 118.912V123H79.2943V118.912C79.2943 117.148 78.5103 116.532 77.6003 116.532C76.7463 116.532 75.9063 117.148 75.9063 118.912V123H74.5343V118.912C74.5343 117.148 73.7503 116.532 72.8403 116.532C71.9303 116.532 71.1463 117.316 71.1463 119.08V123ZM86.0028 123.112C83.8188 123.112 82.0548 121.32 82.0548 119.136C82.0548 116.966 83.8188 115.202 86.0028 115.202C88.1728 115.202 89.9508 116.966 89.9508 119.136C89.9508 121.32 88.1728 123.112 86.0028 123.112ZM86.0028 121.712C87.4168 121.712 88.5648 120.564 88.5648 119.136C88.5648 117.736 87.4168 116.588 86.0028 116.588C84.5748 116.588 83.4408 117.736 83.4408 119.136C83.4408 120.564 84.5748 121.712 86.0028 121.712ZM94.4812 123.112C92.6892 123.112 91.3312 121.866 91.3312 119.206V115.3H92.7032V119.206C92.7032 120.97 93.6552 121.754 94.7892 121.754C95.9092 121.754 96.8752 120.97 96.8752 119.206V115.3H98.2332V123H96.9732L96.9032 121.628C96.4832 122.44 95.6432 123.112 94.4812 123.112ZM101.594 123H100.236V115.3H101.496L101.566 116.658C101.986 115.846 102.812 115.188 103.988 115.188C105.78 115.188 107.138 116.42 107.138 119.08V123H105.766V119.08C105.766 117.33 104.814 116.532 103.68 116.532C102.56 116.532 101.594 117.316 101.594 119.08V123ZM111.734 123.126C110.32 123.126 109.144 122.272 109.144 120.13V116.532H108.108V115.3H109.186L109.354 112.78H110.502V115.3H112.35V116.532H110.502V120.116C110.502 121.222 111.048 121.796 111.916 121.796C112.112 121.796 112.322 121.768 112.504 121.698L112.854 122.916C112.532 123.056 112.14 123.126 111.734 123.126ZM118.93 123H117.334L121.072 112.78H122.64L126.378 123H124.81L123.83 120.34H119.896L118.93 123ZM121.856 114.726L120.316 118.982H123.41L121.856 114.726ZM128.951 126.08H127.593V115.3H128.853L128.923 116.896C129.385 115.944 130.519 115.202 131.779 115.202C133.851 115.202 135.531 116.966 135.531 119.136C135.531 121.32 133.851 123.112 131.779 123.112C130.533 123.112 129.413 122.37 128.951 121.418V126.08ZM131.569 121.754C132.997 121.754 134.159 120.578 134.159 119.136C134.159 117.708 132.997 116.546 131.569 116.546C130.113 116.546 128.951 117.708 128.951 119.136C128.951 120.578 130.113 121.754 131.569 121.754ZM138.344 126.08H136.986V115.3H138.246L138.316 116.896C138.778 115.944 139.912 115.202 141.172 115.202C143.244 115.202 144.924 116.966 144.924 119.136C144.924 121.32 143.244 123.112 141.172 123.112C139.926 123.112 138.806 122.37 138.344 121.418V126.08ZM140.962 121.754C142.39 121.754 143.552 120.578 143.552 119.136C143.552 117.708 142.39 116.546 140.962 116.546C139.506 116.546 138.344 117.708 138.344 119.136C138.344 120.578 139.506 121.754 140.962 121.754ZM147.832 123H146.474V115.3H147.734L147.818 116.56C148.266 115.734 149.134 115.244 150.268 115.258C150.464 115.258 150.66 115.272 150.842 115.3L150.562 116.616C150.478 116.602 150.38 116.588 150.296 116.588C148.994 116.588 147.832 117.316 147.832 119.444V123ZM155.223 123.112C153.039 123.112 151.275 121.32 151.275 119.136C151.275 116.966 153.039 115.202 155.223 115.202C157.393 115.202 159.171 116.966 159.171 119.136C159.171 121.32 157.393 123.112 155.223 123.112ZM155.223 121.712C156.637 121.712 157.785 120.564 157.785 119.136C157.785 117.736 156.637 116.588 155.223 116.588C153.795 116.588 152.661 117.736 152.661 119.136C152.661 120.564 153.795 121.712 155.223 121.712ZM163.879 123H162.521L159.497 115.3H160.967L163.207 120.956L165.433 115.3H166.903L163.879 123ZM171.305 123.112C168.967 123.112 167.217 121.32 167.217 119.136C167.217 116.966 168.967 115.202 171.123 115.202C173.363 115.202 175.029 116.966 175.029 119.136C175.029 119.318 175.001 119.584 174.987 119.78H168.687C168.897 120.942 169.975 121.824 171.305 121.824C172.257 121.824 173.013 121.432 173.503 120.83L174.609 121.516C173.881 122.482 172.607 123.112 171.305 123.112ZM168.673 118.66H173.615C173.545 117.47 172.551 116.476 171.137 116.476C169.779 116.476 168.757 117.47 168.673 118.66ZM179.856 123.098C177.784 123.098 176.104 121.32 176.104 119.15C176.104 116.966 177.784 115.188 179.856 115.188C181.102 115.188 182.222 115.916 182.684 116.882V112.08H184.056V123H182.796L182.726 121.39C182.25 122.356 181.116 123.098 179.856 123.098ZM180.08 121.74C181.522 121.74 182.684 120.578 182.684 119.15C182.684 117.708 181.522 116.532 180.08 116.532C178.652 116.532 177.49 117.708 177.49 119.15C177.49 120.578 178.652 121.74 180.08 121.74Z" fill="black"/>
</svg>
