<svg width="221" height="123" viewBox="0 0 221 123" fill="none" xmlns="http://www.w3.org/2000/svg">
<g clip-path="url(#clip0_622_5625)">
<path d="M119.36 27.7508H102.394C102.295 27.7509 102.197 27.7314 102.105 27.6936C102.014 27.6558 101.931 27.6003 101.861 27.5304C101.791 27.4604 101.736 27.3774 101.698 27.286C101.66 27.1946 101.641 27.0967 101.641 26.9977V23.1722C101.641 21.4798 102.152 19.827 103.108 18.4304C104.064 17.0338 105.42 15.9586 106.997 15.3459C106.255 14.5831 105.754 13.6184 105.557 12.5723C105.36 11.5263 105.475 10.4454 105.889 9.46476C106.303 8.48413 106.997 7.64728 107.884 7.05891C108.771 6.47053 109.812 6.15674 110.877 6.15674C111.941 6.15674 112.982 6.47053 113.869 7.05891C114.756 7.64728 115.45 8.48413 115.864 9.46476C116.278 10.4454 116.394 11.5263 116.196 12.5723C115.999 13.6184 115.498 14.5831 114.756 15.3459C116.334 15.9586 117.689 17.0337 118.645 18.4303C119.601 19.8269 120.113 21.4798 120.113 23.1722V26.9977C120.113 27.0967 120.093 27.1946 120.055 27.286C120.018 27.3774 119.962 27.4604 119.892 27.5304C119.822 27.6003 119.739 27.6558 119.648 27.6936C119.556 27.7314 119.459 27.7509 119.36 27.7508ZM103.147 26.2447H118.607V23.1722C118.607 21.5638 118.044 20.0062 117.016 18.7693C115.988 17.5324 114.559 16.6944 112.978 16.4005C112.825 16.3722 112.685 16.2975 112.576 16.1865C112.468 16.0755 112.396 15.9337 112.372 15.7805C112.347 15.6273 112.37 15.4702 112.438 15.3306C112.506 15.1911 112.615 15.076 112.751 15.001C113.513 14.5848 114.114 13.9269 114.46 13.1311C114.806 12.3353 114.877 11.4469 114.662 10.6062C114.448 9.7654 113.959 9.02004 113.274 8.48777C112.588 7.95549 111.745 7.66659 110.877 7.66659C110.01 7.66659 109.167 7.95549 108.481 8.48777C107.796 9.02004 107.307 9.7654 107.092 10.6062C106.878 11.4469 106.949 12.3353 107.295 13.1311C107.641 13.9269 108.242 14.5848 109.004 15.001C109.139 15.0763 109.248 15.1916 109.316 15.3312C109.383 15.4707 109.406 15.6278 109.381 15.7809C109.357 15.934 109.285 16.0756 109.176 16.1865C109.068 16.2974 108.928 16.3721 108.776 16.4005C107.194 16.6945 105.766 17.5326 104.738 18.7694C103.71 20.0063 103.147 21.5638 103.147 23.1722V26.2447Z" fill="black"/>
<path d="M123.559 50H92.5861C92.4872 50.0001 92.3892 49.9807 92.2978 49.9428C92.2064 49.905 92.1234 49.8495 92.0534 49.7796C91.9835 49.7096 91.928 49.6266 91.8902 49.5352C91.8524 49.4438 91.833 49.3459 91.833 49.2469V0.753063C91.833 0.654154 91.8524 0.556218 91.8902 0.464827C91.928 0.373436 91.9835 0.29038 92.0534 0.22044C92.1234 0.150501 92.2064 0.0950498 92.2978 0.0572245C92.3892 0.0193991 92.4872 -5.5309e-05 92.5861 1.26709e-07H129.167C129.266 -5.72909e-05 129.364 0.0193998 129.455 0.0572245C129.547 0.0950491 129.63 0.1505 129.7 0.22044C129.77 0.29038 129.825 0.373435 129.863 0.464827C129.901 0.556219 129.92 0.654153 129.92 0.753063V42.1303C129.92 42.2995 129.863 42.4637 129.758 42.5966L124.15 49.7132C124.079 49.8026 123.99 49.8749 123.887 49.9245C123.785 49.9742 123.673 50 123.559 50ZM93.3391 48.4939H123.194L128.414 41.8693V1.50613H93.3391V48.4939Z" fill="black"/>
<path d="M123.14 33.9348H98.6154C98.4156 33.9348 98.2241 33.8555 98.0828 33.7143C97.9416 33.5731 97.8623 33.3815 97.8623 33.1818C97.8623 32.982 97.9416 32.7905 98.0828 32.6492C98.2241 32.508 98.4156 32.4287 98.6154 32.4287H123.14C123.34 32.4287 123.531 32.508 123.672 32.6492C123.814 32.7905 123.893 32.982 123.893 33.1818C123.893 33.3815 123.814 33.5731 123.672 33.7143C123.531 33.8555 123.34 33.9348 123.14 33.9348Z" fill="black"/>
<path d="M118.618 39.9632H103.136C102.936 39.9632 102.745 39.8839 102.603 39.7426C102.462 39.6014 102.383 39.4098 102.383 39.2101C102.383 39.0104 102.462 38.8188 102.603 38.6776C102.745 38.5363 102.936 38.457 103.136 38.457H118.618C118.818 38.457 119.009 38.5363 119.15 38.6776C119.291 38.8188 119.371 39.0104 119.371 39.2101C119.371 39.4098 119.291 39.6014 119.15 39.7426C119.009 39.8839 118.818 39.9632 118.618 39.9632Z" fill="black"/>
<path d="M123.14 50.0002C123.041 50.0002 122.943 49.9808 122.852 49.943C122.76 49.9052 122.677 49.8497 122.607 49.7797C122.537 49.7098 122.482 49.6268 122.444 49.5354C122.406 49.444 122.387 49.346 122.387 49.2471V42.1305C122.387 42.0316 122.406 41.9336 122.444 41.8422C122.482 41.7508 122.537 41.6678 122.607 41.5979C122.677 41.5279 122.76 41.4724 122.852 41.4346C122.943 41.3968 123.041 41.3774 123.14 41.3774H129.167C129.367 41.3774 129.559 41.4567 129.7 41.598C129.841 41.7392 129.92 41.9308 129.92 42.1305C129.92 42.3302 129.841 42.5218 129.7 42.663C129.559 42.8043 129.367 42.8836 129.167 42.8836H123.893V49.2471C123.893 49.346 123.873 49.444 123.836 49.5354C123.798 49.6268 123.742 49.7098 123.672 49.7797C123.602 49.8497 123.519 49.9052 123.428 49.943C123.337 49.9808 123.239 50.0002 123.14 50.0002Z" fill="black"/>
<path d="M98.614 15.1693L87.6795 5.34033V10.2548H76.4814V20.0853H87.6795V24.9998L98.614 15.1693Z" fill="#A5D4F8"/>
<path d="M87.679 25.7525C87.5735 25.7527 87.4692 25.7304 87.373 25.687C87.24 25.628 87.1269 25.5316 87.0475 25.4095C86.9682 25.2875 86.9259 25.145 86.9259 24.9994V20.8377H76.4816C76.3827 20.8377 76.2848 20.8183 76.1934 20.7805C76.102 20.7426 76.0189 20.6872 75.949 20.6173C75.879 20.5473 75.8236 20.4643 75.7858 20.3729C75.748 20.2815 75.7285 20.1835 75.7285 20.0846V10.2558C75.7285 10.1569 75.748 10.059 75.7858 9.9676C75.8236 9.8762 75.879 9.79315 75.949 9.72321C76.0189 9.65327 76.102 9.59782 76.1934 9.55999C76.2848 9.52217 76.3827 9.50271 76.4816 9.50277H86.9259V5.34107C86.9261 5.19564 86.9683 5.05336 87.0475 4.93139C87.1268 4.80943 87.2396 4.71298 87.3724 4.65373C87.5052 4.59448 87.6523 4.57495 87.796 4.59747C87.9397 4.61999 88.0738 4.68363 88.1821 4.78068L99.1177 14.6095C99.1964 14.6801 99.2592 14.7665 99.3023 14.8631C99.3454 14.9596 99.3676 15.0641 99.3676 15.1699C99.3676 15.2756 99.3454 15.3801 99.3023 15.4767C99.2592 15.5732 99.1964 15.6596 99.1177 15.7302L88.1821 25.5598C88.0439 25.6838 87.8647 25.7525 87.679 25.7525ZM77.2346 19.3316H87.679C87.7779 19.3315 87.8759 19.351 87.9673 19.3888C88.0587 19.4266 88.1417 19.4821 88.2116 19.552C88.2815 19.6219 88.337 19.705 88.3749 19.7964C88.4127 19.8878 88.4321 19.9857 88.432 20.0846V23.3102L97.4879 15.1699L88.432 7.03031V10.2558C88.4321 10.3547 88.4127 10.4527 88.3749 10.5441C88.337 10.6355 88.2815 10.7185 88.2116 10.7885C88.1417 10.8584 88.0587 10.9138 87.9673 10.9517C87.8759 10.9895 87.7779 11.009 87.679 11.0089H77.2346V19.3316Z" fill="black"/>
</g>
<path d="M110.284 98H102.404L109.004 88.72C104.044 88.44 99.8036 84.32 99.8036 78.8C99.8036 72.76 104.604 68.36 110.524 68.36C116.444 68.36 121.244 72.76 121.244 78.8C121.244 81.08 120.524 83.2 119.284 84.84L110.284 98ZM110.524 82.72C112.844 82.72 114.644 81 114.644 78.8C114.644 76.6 112.844 74.84 110.524 74.84C108.204 74.84 106.324 76.6 106.324 78.8C106.324 81 108.204 82.72 110.524 82.72Z" fill="#569FD6"/>
<path d="M44.6213 118H43.1793V107.78H47.0573C49.1293 107.78 50.5013 109.222 50.5013 110.986C50.5013 112.764 49.1293 114.206 47.0573 114.206H44.6213V118ZM44.6213 109.194V112.792H47.0293C48.2613 112.792 49.0173 111.966 49.0173 110.986C49.0173 110.034 48.2613 109.194 47.0293 109.194H44.6213ZM53.3387 118H51.9807V110.3H53.2407L53.3247 111.56C53.7727 110.734 54.6407 110.244 55.7747 110.258C55.9707 110.258 56.1667 110.272 56.3487 110.3L56.0687 111.616C55.9847 111.602 55.8867 111.588 55.8027 111.588C54.5007 111.588 53.3387 112.316 53.3387 114.444V118ZM60.7303 118.112C58.5463 118.112 56.7823 116.32 56.7823 114.136C56.7823 111.966 58.5463 110.202 60.7303 110.202C62.9003 110.202 64.6783 111.966 64.6783 114.136C64.6783 116.32 62.9003 118.112 60.7303 118.112ZM60.7303 116.712C62.1443 116.712 63.2923 115.564 63.2923 114.136C63.2923 112.736 62.1443 111.588 60.7303 111.588C59.3023 111.588 58.1683 112.736 58.1683 114.136C58.1683 115.564 59.3023 116.712 60.7303 116.712ZM67.489 121.08H66.131V110.3H67.391L67.461 111.896C67.923 110.944 69.057 110.202 70.317 110.202C72.389 110.202 74.069 111.966 74.069 114.136C74.069 116.32 72.389 118.112 70.317 118.112C69.071 118.112 67.951 117.37 67.489 116.418V121.08ZM70.107 116.754C71.535 116.754 72.697 115.578 72.697 114.136C72.697 112.708 71.535 111.546 70.107 111.546C68.651 111.546 67.489 112.708 67.489 114.136C67.489 115.578 68.651 116.754 70.107 116.754ZM79.1053 118.112C76.9213 118.112 75.1573 116.32 75.1573 114.136C75.1573 111.966 76.9213 110.202 79.1053 110.202C81.2753 110.202 83.0533 111.966 83.0533 114.136C83.0533 116.32 81.2753 118.112 79.1053 118.112ZM79.1053 116.712C80.5193 116.712 81.6673 115.564 81.6673 114.136C81.6673 112.736 80.5193 111.588 79.1053 111.588C77.6773 111.588 76.5433 112.736 76.5433 114.136C76.5433 115.564 77.6773 116.712 79.1053 116.712ZM87.3663 118.14C86.2603 118.14 84.8323 117.776 83.9363 116.796L84.8743 115.9C85.3923 116.474 86.4003 116.852 87.3663 116.852C88.3743 116.852 89.0743 116.46 89.0743 115.788C89.0743 114.206 84.2023 115.172 84.2023 112.316C84.2023 111.056 85.3503 110.174 87.1143 110.174C88.1083 110.174 89.3683 110.44 90.2083 111.448L89.3683 112.288C88.8363 111.644 87.8703 111.406 87.1563 111.406C86.2323 111.406 85.5743 111.742 85.5743 112.33C85.5743 113.73 90.4463 112.862 90.4463 115.746C90.4463 117.398 88.9763 118.14 87.3663 118.14ZM95.1242 118.098C93.0522 118.098 91.3722 116.32 91.3722 114.15C91.3722 111.966 93.0522 110.188 95.1242 110.188C96.3842 110.188 97.5182 110.944 97.9942 111.924L98.0642 110.3H99.3242V118H98.0642L97.9942 116.39C97.5182 117.356 96.3842 118.098 95.1242 118.098ZM95.3482 116.74C96.7902 116.74 97.9522 115.578 97.9522 114.15C97.9522 112.708 96.7902 111.532 95.3482 111.532C93.9202 111.532 92.7582 112.708 92.7582 114.15C92.7582 115.578 93.9202 116.74 95.3482 116.74ZM102.68 118H101.322V107.08H102.68V118ZM107.724 118.14C106.618 118.14 105.19 117.776 104.294 116.796L105.232 115.9C105.75 116.474 106.758 116.852 107.724 116.852C108.732 116.852 109.432 116.46 109.432 115.788C109.432 114.206 104.56 115.172 104.56 112.316C104.56 111.056 105.708 110.174 107.472 110.174C108.466 110.174 109.726 110.44 110.566 111.448L109.726 112.288C109.194 111.644 108.228 111.406 107.514 111.406C106.59 111.406 105.932 111.742 105.932 112.33C105.932 113.73 110.804 112.862 110.804 115.746C110.804 117.398 109.334 118.14 107.724 118.14ZM117.834 118H116.392V107.78H120.27C122.342 107.78 123.714 109.222 123.714 110.986C123.714 112.414 122.776 113.618 121.376 113.954L123.882 118H122.202L119.878 114.206H117.834V118ZM117.834 109.194V112.792H120.242C121.474 112.792 122.23 111.966 122.23 110.986C122.23 110.034 121.474 109.194 120.242 109.194H117.834ZM128.573 118.112C126.235 118.112 124.485 116.32 124.485 114.136C124.485 111.966 126.235 110.202 128.391 110.202C130.631 110.202 132.297 111.966 132.297 114.136C132.297 114.318 132.269 114.584 132.255 114.78H125.955C126.165 115.942 127.243 116.824 128.573 116.824C129.525 116.824 130.281 116.432 130.771 115.83L131.877 116.516C131.149 117.482 129.875 118.112 128.573 118.112ZM125.941 113.66H130.883C130.813 112.47 129.819 111.476 128.405 111.476C127.047 111.476 126.025 112.47 125.941 113.66ZM137.32 118.112C135.136 118.112 133.372 116.32 133.372 114.136C133.372 111.966 135.136 110.202 137.32 110.202C138.65 110.202 139.826 110.86 140.554 111.868L139.42 112.624C138.944 111.994 138.174 111.588 137.32 111.588C135.892 111.588 134.758 112.736 134.758 114.136C134.758 115.564 135.892 116.712 137.32 116.712C138.202 116.712 138.986 116.278 139.448 115.606L140.582 116.362C139.882 117.412 138.678 118.112 137.32 118.112ZM145.622 118.112C143.284 118.112 141.534 116.32 141.534 114.136C141.534 111.966 143.284 110.202 145.44 110.202C147.68 110.202 149.346 111.966 149.346 114.136C149.346 114.318 149.318 114.584 149.304 114.78H143.004C143.214 115.942 144.292 116.824 145.622 116.824C146.574 116.824 147.33 116.432 147.82 115.83L148.926 116.516C148.198 117.482 146.924 118.112 145.622 118.112ZM142.99 113.66H147.932C147.862 112.47 146.868 111.476 145.454 111.476C144.096 111.476 143.074 112.47 142.99 113.66ZM151.569 109.516C151.093 109.516 150.701 109.124 150.701 108.648C150.701 108.172 151.093 107.78 151.569 107.78C152.031 107.78 152.423 108.172 152.423 108.648C152.423 109.124 152.031 109.516 151.569 109.516ZM152.241 118H150.883V110.3H152.241V118ZM157.802 118H156.444L153.42 110.3H154.89L157.13 115.956L159.356 110.3H160.826L157.802 118ZM165.228 118.112C162.89 118.112 161.14 116.32 161.14 114.136C161.14 111.966 162.89 110.202 165.046 110.202C167.286 110.202 168.952 111.966 168.952 114.136C168.952 114.318 168.924 114.584 168.91 114.78H162.61C162.82 115.942 163.898 116.824 165.228 116.824C166.18 116.824 166.936 116.432 167.426 115.83L168.532 116.516C167.804 117.482 166.53 118.112 165.228 118.112ZM162.596 113.66H167.538C167.468 112.47 166.474 111.476 165.06 111.476C163.702 111.476 162.68 112.47 162.596 113.66ZM173.778 118.098C171.706 118.098 170.026 116.32 170.026 114.15C170.026 111.966 171.706 110.188 173.778 110.188C175.024 110.188 176.144 110.916 176.606 111.882V107.08H177.978V118H176.718L176.648 116.39C176.172 117.356 175.038 118.098 173.778 118.098ZM174.002 116.74C175.444 116.74 176.606 115.578 176.606 114.15C176.606 112.708 175.444 111.532 174.002 111.532C172.574 111.532 171.412 112.708 171.412 114.15C171.412 115.578 172.574 116.74 174.002 116.74Z" fill="black"/>
<defs>
<clipPath id="clip0_622_5625">
<rect width="69.5433" height="50" fill="white" transform="translate(75.7285)"/>
</clipPath>
</defs>
</svg>
