<svg width="221" height="164" viewBox="0 0 221 164" fill="none" xmlns="http://www.w3.org/2000/svg">
<g clip-path="url(#clip0_622_5639)">
<path d="M116.787 27.7509H99.8214C99.7225 27.7509 99.6245 27.7315 99.5331 27.6937C99.4417 27.6559 99.3587 27.6004 99.2888 27.5304C99.2189 27.4605 99.1634 27.3775 99.1255 27.2861C99.0877 27.1947 99.0683 27.0967 99.0684 26.9978V23.1729C99.0686 21.4804 99.5803 19.8276 100.536 18.4309C101.492 17.0342 102.848 15.9589 104.425 15.3459C103.683 14.5831 103.182 13.6183 102.985 12.5723C102.787 11.5263 102.903 10.4454 103.317 9.46472C103.731 8.48408 104.425 7.64728 105.312 7.05891C106.199 6.47053 107.24 6.15674 108.304 6.15674C109.369 6.15674 110.41 6.47053 111.297 7.05891C112.184 7.64728 112.878 8.48408 113.292 9.46472C113.706 10.4454 113.821 11.5263 113.624 12.5723C113.427 13.6183 112.926 14.5831 112.184 15.3459C113.761 15.9589 115.117 17.0342 116.073 18.4309C117.029 19.8276 117.54 21.4804 117.54 23.1729V26.9978C117.541 27.0967 117.521 27.1947 117.483 27.2861C117.445 27.3775 117.39 27.4605 117.32 27.5304C117.25 27.6004 117.167 27.6559 117.076 27.6937C116.984 27.7315 116.886 27.7509 116.787 27.7509ZM100.574 26.2447H116.034V23.1729C116.034 21.5645 115.471 20.0068 114.443 18.7698C113.415 17.5329 111.987 16.6947 110.405 16.4005C110.253 16.3722 110.113 16.2975 110.004 16.1865C109.896 16.0755 109.824 15.9336 109.8 15.7804C109.775 15.6273 109.798 15.4702 109.866 15.3306C109.934 15.1911 110.043 15.076 110.179 15.001C110.94 14.5848 111.542 13.9268 111.888 13.131C112.234 12.3352 112.305 11.4469 112.09 10.6062C111.875 9.7654 111.387 9.02 110.701 8.48772C110.016 7.95545 109.173 7.66654 108.305 7.66654C107.437 7.66654 106.594 7.95545 105.909 8.48772C105.224 9.02 104.735 9.7654 104.52 10.6062C104.305 11.4469 104.377 12.3352 104.723 13.131C105.069 13.9268 105.67 14.5848 106.431 15.001C106.567 15.0763 106.676 15.1915 106.744 15.3311C106.811 15.4707 106.834 15.6278 106.809 15.7809C106.784 15.934 106.713 16.0756 106.604 16.1865C106.496 16.2974 106.356 16.3721 106.203 16.4005C104.622 16.6949 103.194 17.5332 102.166 18.7701C101.138 20.007 100.575 21.5646 100.574 23.1729V26.2447Z" fill="black"/>
<path d="M120.986 50H90.0138C89.9149 50.0001 89.8169 49.9807 89.7255 49.9428C89.6341 49.905 89.5511 49.8495 89.4812 49.7796C89.4112 49.7096 89.3557 49.6266 89.3179 49.5352C89.2801 49.4438 89.2607 49.3459 89.2607 49.2469V0.753063C89.2607 0.654154 89.2801 0.556172 89.3179 0.464781C89.3557 0.37339 89.4112 0.29038 89.4812 0.22044C89.5511 0.150501 89.6341 0.0950038 89.7255 0.0571785C89.8169 0.0193532 89.9149 -5.53173e-05 90.0138 1.18419e-07H126.595C126.694 -5.53173e-05 126.792 0.0193532 126.883 0.0571785C126.974 0.0950038 127.057 0.150501 127.127 0.22044C127.197 0.29038 127.253 0.37339 127.291 0.464781C127.328 0.556172 127.348 0.654154 127.348 0.753063V42.1311C127.348 42.3002 127.291 42.4644 127.186 42.5973L121.578 49.7132C121.507 49.8026 121.417 49.8749 121.315 49.9245C121.213 49.9742 121.1 50 120.986 50ZM90.7669 48.4939H120.622L125.842 41.8699V1.50613H90.7669V48.4939Z" fill="black"/>
<path d="M120.568 33.9348H96.0431C95.8434 33.9348 95.6518 33.8554 95.5106 33.7142C95.3693 33.573 95.29 33.3815 95.29 33.1818C95.29 32.982 95.3693 32.7905 95.5106 32.6492C95.6518 32.508 95.8434 32.4287 96.0431 32.4287H120.568C120.767 32.4287 120.959 32.508 121.1 32.6492C121.241 32.7905 121.321 32.982 121.321 33.1818C121.321 33.3815 121.241 33.573 121.1 33.7142C120.959 33.8554 120.767 33.9348 120.568 33.9348Z" fill="black"/>
<path d="M116.046 39.9632H100.564C100.364 39.9632 100.172 39.8839 100.031 39.7426C99.8899 39.6014 99.8105 39.4098 99.8105 39.2101C99.8105 39.0104 99.8899 38.8188 100.031 38.6776C100.172 38.5363 100.364 38.457 100.564 38.457H116.046C116.245 38.457 116.437 38.5363 116.578 38.6776C116.719 38.8188 116.799 39.0104 116.799 39.2101C116.799 39.4098 116.719 39.6014 116.578 39.7426C116.437 39.8839 116.245 39.9632 116.046 39.9632Z" fill="black"/>
<path d="M120.568 49.9999C120.469 50 120.371 49.9806 120.279 49.9427C120.188 49.9049 120.105 49.8494 120.035 49.7795C119.965 49.7095 119.909 49.6265 119.872 49.5351C119.834 49.4437 119.814 49.3458 119.814 49.2469V42.131C119.814 42.0321 119.834 41.9341 119.872 41.8427C119.909 41.7513 119.965 41.6683 120.035 41.5984C120.105 41.5284 120.188 41.4729 120.279 41.4351C120.371 41.3973 120.469 41.3779 120.568 41.3779H126.595C126.795 41.3779 126.986 41.4572 127.127 41.5985C127.269 41.7397 127.348 41.9313 127.348 42.131C127.348 42.3307 127.269 42.5223 127.127 42.6635C126.986 42.8048 126.795 42.8841 126.595 42.8841H121.321V49.2469C121.321 49.3458 121.301 49.4437 121.263 49.5351C121.226 49.6265 121.17 49.7095 121.1 49.7795C121.03 49.8494 120.947 49.9049 120.856 49.9427C120.764 49.9806 120.666 50 120.568 49.9999Z" fill="black"/>
<path d="M132.546 26.7678C138.951 26.7678 144.143 21.5755 144.143 15.1705C144.143 8.76553 138.951 3.57324 132.546 3.57324C126.141 3.57324 120.948 8.76553 120.948 15.1705C120.948 21.5755 126.141 26.7678 132.546 26.7678Z" fill="#A5D4F8"/>
<path d="M132.545 27.5214C130.102 27.5214 127.714 26.797 125.683 25.4399C123.652 24.0828 122.069 22.154 121.134 19.8972C120.2 17.6404 119.955 15.1572 120.432 12.7614C120.908 10.3656 122.084 8.16492 123.812 6.43767C125.539 4.71041 127.74 3.53416 130.135 3.05762C132.531 2.58107 135.014 2.8257 137.271 3.76049C139.528 4.69527 141.457 6.27826 142.814 8.30929C144.171 10.3403 144.895 12.7282 144.895 15.1709C144.892 18.4453 143.589 21.5845 141.274 23.8999C138.958 26.2152 135.819 27.5177 132.545 27.5214ZM132.545 4.32648C130.4 4.32648 128.303 4.96247 126.52 6.15407C124.737 7.34567 123.347 9.0393 122.526 11.0209C121.705 13.0024 121.49 15.1829 121.909 17.2865C122.327 19.3901 123.36 21.3224 124.877 22.839C126.393 24.3557 128.326 25.3885 130.429 25.8069C132.533 26.2253 134.713 26.0106 136.695 25.1898C138.676 24.369 140.37 22.979 141.562 21.1957C142.753 19.4123 143.389 17.3157 143.389 15.1709C143.386 12.2958 142.242 9.5394 140.209 7.50641C138.176 5.47341 135.42 4.32985 132.545 4.32648Z" fill="black"/>
<path d="M131.248 20.154C131.142 20.1538 131.037 20.1314 130.94 20.0882C130.843 20.045 130.757 19.982 130.686 19.9033L127.032 15.8173L128.156 14.8127L131.192 18.2089L136.89 10.4937L138.102 11.3879L131.854 19.8481C131.787 19.9381 131.701 20.0121 131.602 20.0649C131.504 20.1177 131.395 20.1479 131.283 20.1533L131.248 20.154Z" fill="black"/>
</g>
<path d="M102.037 98.56C97.0767 98.56 92.9567 96.04 91.2767 92.16L97.0367 89.52C97.7567 90.92 99.7567 92.08 101.877 92.08C104.397 92.08 106.037 90.68 106.037 88.76C106.037 86.52 104.037 85.4 101.277 85.4H99.6367V79.4H101.397C103.157 79.4 104.957 78.64 104.957 76.88C104.957 75.4 103.557 74.48 101.757 74.48C100.397 74.48 99.1967 75.04 98.5967 75.84L92.5967 73.56C93.9967 70.4 97.8367 68.16 101.837 68.16C106.877 68.16 111.477 70.72 111.477 76.4C111.477 78.88 110.117 80.88 108.117 82.2C110.717 83.64 112.517 86.04 112.517 89.28C112.517 94.96 108.037 98.56 102.037 98.56ZM122.272 78.12L119.032 82.68L116.952 81.16L120.272 76.68L114.952 75.04L115.752 72.56L121.032 74.36L120.952 68.8H123.592L123.472 74.36L128.792 72.6L129.552 75.04L124.232 76.68L127.552 81.16L125.472 82.68L122.272 78.12Z" fill="#569FD6"/>
<path d="M42.5226 118H41.0806V107.78H44.9586C47.0306 107.78 48.4026 109.222 48.4026 110.986C48.4026 112.764 47.0306 114.206 44.9586 114.206H42.5226V118ZM42.5226 109.194V112.792H44.9306C46.1626 112.792 46.9186 111.966 46.9186 110.986C46.9186 110.034 46.1626 109.194 44.9306 109.194H42.5226ZM51.24 118H49.882V110.3H51.142L51.226 111.56C51.674 110.734 52.542 110.244 53.676 110.258C53.872 110.258 54.068 110.272 54.25 110.3L53.97 111.616C53.886 111.602 53.788 111.588 53.704 111.588C52.402 111.588 51.24 112.316 51.24 114.444V118ZM58.6317 118.112C56.4477 118.112 54.6837 116.32 54.6837 114.136C54.6837 111.966 56.4477 110.202 58.6317 110.202C60.8017 110.202 62.5797 111.966 62.5797 114.136C62.5797 116.32 60.8017 118.112 58.6317 118.112ZM58.6317 116.712C60.0457 116.712 61.1937 115.564 61.1937 114.136C61.1937 112.736 60.0457 111.588 58.6317 111.588C57.2037 111.588 56.0697 112.736 56.0697 114.136C56.0697 115.564 57.2037 116.712 58.6317 116.712ZM65.3904 121.08H64.0324V110.3H65.2924L65.3624 111.896C65.8244 110.944 66.9584 110.202 68.2184 110.202C70.2904 110.202 71.9704 111.966 71.9704 114.136C71.9704 116.32 70.2904 118.112 68.2184 118.112C66.9724 118.112 65.8524 117.37 65.3904 116.418V121.08ZM68.0084 116.754C69.4364 116.754 70.5984 115.578 70.5984 114.136C70.5984 112.708 69.4364 111.546 68.0084 111.546C66.5524 111.546 65.3904 112.708 65.3904 114.136C65.3904 115.578 66.5524 116.754 68.0084 116.754ZM77.0067 118.112C74.8227 118.112 73.0587 116.32 73.0587 114.136C73.0587 111.966 74.8227 110.202 77.0067 110.202C79.1767 110.202 80.9547 111.966 80.9547 114.136C80.9547 116.32 79.1767 118.112 77.0067 118.112ZM77.0067 116.712C78.4207 116.712 79.5687 115.564 79.5687 114.136C79.5687 112.736 78.4207 111.588 77.0067 111.588C75.5787 111.588 74.4447 112.736 74.4447 114.136C74.4447 115.564 75.5787 116.712 77.0067 116.712ZM85.2677 118.14C84.1617 118.14 82.7337 117.776 81.8377 116.796L82.7757 115.9C83.2937 116.474 84.3017 116.852 85.2677 116.852C86.2757 116.852 86.9757 116.46 86.9757 115.788C86.9757 114.206 82.1037 115.172 82.1037 112.316C82.1037 111.056 83.2517 110.174 85.0157 110.174C86.0097 110.174 87.2697 110.44 88.1097 111.448L87.2697 112.288C86.7377 111.644 85.7717 111.406 85.0577 111.406C84.1337 111.406 83.4757 111.742 83.4757 112.33C83.4757 113.73 88.3477 112.862 88.3477 115.746C88.3477 117.398 86.8777 118.14 85.2677 118.14ZM93.0255 118.098C90.9535 118.098 89.2735 116.32 89.2735 114.15C89.2735 111.966 90.9535 110.188 93.0255 110.188C94.2855 110.188 95.4195 110.944 95.8955 111.924L95.9655 110.3H97.2255V118H95.9655L95.8955 116.39C95.4195 117.356 94.2855 118.098 93.0255 118.098ZM93.2495 116.74C94.6915 116.74 95.8535 115.578 95.8535 114.15C95.8535 112.708 94.6915 111.532 93.2495 111.532C91.8215 111.532 90.6595 112.708 90.6595 114.15C90.6595 115.578 91.8215 116.74 93.2495 116.74ZM100.582 118H99.2238V107.08H100.582V118ZM105.625 118.14C104.519 118.14 103.091 117.776 102.195 116.796L103.133 115.9C103.651 116.474 104.659 116.852 105.625 116.852C106.633 116.852 107.333 116.46 107.333 115.788C107.333 114.206 102.461 115.172 102.461 112.316C102.461 111.056 103.609 110.174 105.373 110.174C106.367 110.174 107.627 110.44 108.467 111.448L107.627 112.288C107.095 111.644 106.129 111.406 105.415 111.406C104.491 111.406 103.833 111.742 103.833 112.33C103.833 113.73 108.705 112.862 108.705 115.746C108.705 117.398 107.235 118.14 105.625 118.14ZM114.952 118H113.356L117.094 107.78H118.662L122.4 118H120.832L119.852 115.34H115.918L114.952 118ZM117.878 109.726L116.338 113.982H119.432L117.878 109.726ZM124.972 121.08H123.614V110.3H124.874L124.944 111.896C125.406 110.944 126.54 110.202 127.8 110.202C129.872 110.202 131.552 111.966 131.552 114.136C131.552 116.32 129.872 118.112 127.8 118.112C126.554 118.112 125.434 117.37 124.972 116.418V121.08ZM127.59 116.754C129.018 116.754 130.18 115.578 130.18 114.136C130.18 112.708 129.018 111.546 127.59 111.546C126.134 111.546 124.972 112.708 124.972 114.136C124.972 115.578 126.134 116.754 127.59 116.754ZM134.365 121.08H133.007V110.3H134.267L134.337 111.896C134.799 110.944 135.933 110.202 137.193 110.202C139.265 110.202 140.945 111.966 140.945 114.136C140.945 116.32 139.265 118.112 137.193 118.112C135.947 118.112 134.827 117.37 134.365 116.418V121.08ZM136.983 116.754C138.411 116.754 139.573 115.578 139.573 114.136C139.573 112.708 138.411 111.546 136.983 111.546C135.527 111.546 134.365 112.708 134.365 114.136C134.365 115.578 135.527 116.754 136.983 116.754ZM143.853 118H142.495V110.3H143.755L143.839 111.56C144.287 110.734 145.155 110.244 146.289 110.258C146.485 110.258 146.681 110.272 146.863 110.3L146.583 111.616C146.499 111.602 146.401 111.588 146.317 111.588C145.015 111.588 143.853 112.316 143.853 114.444V118ZM151.245 118.112C149.061 118.112 147.297 116.32 147.297 114.136C147.297 111.966 149.061 110.202 151.245 110.202C153.415 110.202 155.193 111.966 155.193 114.136C155.193 116.32 153.415 118.112 151.245 118.112ZM151.245 116.712C152.659 116.712 153.807 115.564 153.807 114.136C153.807 112.736 152.659 111.588 151.245 111.588C149.817 111.588 148.683 112.736 148.683 114.136C148.683 115.564 149.817 116.712 151.245 116.712ZM159.901 118H158.543L155.519 110.3H156.989L159.229 115.956L161.455 110.3H162.925L159.901 118ZM167.326 118.112C164.988 118.112 163.238 116.32 163.238 114.136C163.238 111.966 164.988 110.202 167.144 110.202C169.384 110.202 171.05 111.966 171.05 114.136C171.05 114.318 171.022 114.584 171.008 114.78H164.708C164.918 115.942 165.996 116.824 167.326 116.824C168.278 116.824 169.034 116.432 169.524 115.83L170.63 116.516C169.902 117.482 168.628 118.112 167.326 118.112ZM164.694 113.66H169.636C169.566 112.47 168.572 111.476 167.158 111.476C165.8 111.476 164.778 112.47 164.694 113.66ZM175.877 118.098C173.805 118.098 172.125 116.32 172.125 114.15C172.125 111.966 173.805 110.188 175.877 110.188C177.123 110.188 178.243 110.916 178.705 111.882V107.08H180.077V118H178.817L178.747 116.39C178.271 117.356 177.137 118.098 175.877 118.098ZM176.101 116.74C177.543 116.74 178.705 115.578 178.705 114.15C178.705 112.708 177.543 111.532 176.101 111.532C174.673 111.532 173.511 112.708 173.511 114.15C173.511 115.578 174.673 116.74 176.101 116.74Z" fill="black"/>
<path d="M38.4282 138.036L37.4562 139.404L36.8322 138.948L37.8282 137.604L36.2322 137.112L36.4722 136.368L38.0562 136.908L38.0322 135.24H38.8242L38.7882 136.908L40.3842 136.38L40.6122 137.112L39.0162 137.604L40.0122 138.948L39.3882 139.404L38.4282 138.036ZM43.0755 144H41.8395V135.24H43.0755V144ZM46.071 144H44.907V137.4H45.987L46.047 138.564C46.407 137.868 47.115 137.304 48.123 137.304C49.659 137.304 50.823 138.36 50.823 140.64V144H49.647V140.64C49.647 139.14 48.831 138.456 47.859 138.456C46.899 138.456 46.071 139.128 46.071 140.64V144ZM55.3833 144.096C53.5113 144.096 51.9993 142.56 51.9993 140.688C51.9993 138.828 53.5113 137.316 55.3833 137.316C56.5233 137.316 57.5312 137.88 58.1553 138.744L57.1833 139.392C56.7753 138.852 56.1153 138.504 55.3833 138.504C54.1593 138.504 53.1873 139.488 53.1873 140.688C53.1873 141.912 54.1593 142.896 55.3833 142.896C56.1393 142.896 56.8113 142.524 57.2073 141.948L58.1793 142.596C57.5793 143.496 56.5473 144.096 55.3833 144.096ZM60.6022 144H59.4382V134.64H60.6022V144ZM64.877 144.096C63.341 144.096 62.177 143.028 62.177 140.748V137.4H63.353V140.748C63.353 142.26 64.169 142.932 65.141 142.932C66.101 142.932 66.929 142.26 66.929 140.748V137.4H68.093V144H67.013L66.953 142.824C66.593 143.52 65.873 144.096 64.877 144.096ZM72.6293 144.084C70.8533 144.084 69.4133 142.56 69.4133 140.7C69.4133 138.828 70.8533 137.304 72.6293 137.304C73.6973 137.304 74.6573 137.928 75.0533 138.756V134.64H76.2293V144H75.1493L75.0893 142.62C74.6813 143.448 73.7093 144.084 72.6293 144.084ZM72.8213 142.92C74.0573 142.92 75.0533 141.924 75.0533 140.7C75.0533 139.464 74.0573 138.456 72.8213 138.456C71.5973 138.456 70.6013 139.464 70.6013 140.7C70.6013 141.924 71.5973 142.92 72.8213 142.92ZM81.0501 144.096C79.0461 144.096 77.5461 142.56 77.5461 140.688C77.5461 138.828 79.0461 137.316 80.8941 137.316C82.8141 137.316 84.2421 138.828 84.2421 140.688C84.2421 140.844 84.2181 141.072 84.2061 141.24H78.8061C78.9861 142.236 79.9101 142.992 81.0501 142.992C81.8661 142.992 82.5141 142.656 82.9341 142.14L83.8821 142.728C83.2581 143.556 82.1661 144.096 81.0501 144.096ZM78.7941 140.28H83.0301C82.9701 139.26 82.1181 138.408 80.9061 138.408C79.7421 138.408 78.8661 139.26 78.7941 140.28ZM87.9289 144.12C86.9809 144.12 85.7569 143.808 84.9889 142.968L85.7929 142.2C86.2369 142.692 87.1009 143.016 87.9289 143.016C88.7929 143.016 89.3929 142.68 89.3929 142.104C89.3929 140.748 85.2169 141.576 85.2169 139.128C85.2169 138.048 86.2009 137.292 87.7129 137.292C88.5649 137.292 89.6449 137.52 90.3649 138.384L89.6449 139.104C89.1889 138.552 88.3609 138.348 87.7489 138.348C86.9569 138.348 86.3929 138.636 86.3929 139.14C86.3929 140.34 90.5689 139.596 90.5689 142.068C90.5689 143.484 89.3089 144.12 87.9289 144.12ZM96.403 146.64H95.239V137.4H96.319L96.379 138.768C96.775 137.952 97.747 137.316 98.827 137.316C100.603 137.316 102.043 138.828 102.043 140.688C102.043 142.56 100.603 144.096 98.827 144.096C97.759 144.096 96.799 143.46 96.403 142.644V146.64ZM98.647 142.932C99.871 142.932 100.867 141.924 100.867 140.688C100.867 139.464 99.871 138.468 98.647 138.468C97.399 138.468 96.403 139.464 96.403 140.688C96.403 141.924 97.399 142.932 98.647 142.932ZM104.536 144H103.372V137.4H104.452L104.524 138.48C104.908 137.772 105.652 137.352 106.624 137.364C106.792 137.364 106.96 137.376 107.116 137.4L106.876 138.528C106.804 138.516 106.72 138.504 106.648 138.504C105.532 138.504 104.536 139.128 104.536 140.952V144ZM110.872 144.096C109 144.096 107.488 142.56 107.488 140.688C107.488 138.828 109 137.316 110.872 137.316C112.732 137.316 114.256 138.828 114.256 140.688C114.256 142.56 112.732 144.096 110.872 144.096ZM110.872 142.896C112.084 142.896 113.068 141.912 113.068 140.688C113.068 139.488 112.084 138.504 110.872 138.504C109.648 138.504 108.676 139.488 108.676 140.688C108.676 141.912 109.648 142.896 110.872 142.896ZM116.665 146.64H115.501V137.4H116.581L116.641 138.768C117.037 137.952 118.009 137.316 119.089 137.316C120.865 137.316 122.305 138.828 122.305 140.688C122.305 142.56 120.865 144.096 119.089 144.096C118.021 144.096 117.061 143.46 116.665 142.644V146.64ZM118.909 142.932C120.133 142.932 121.129 141.924 121.129 140.688C121.129 139.464 120.133 138.468 118.909 138.468C117.661 138.468 116.665 139.464 116.665 140.688C116.665 141.924 117.661 142.932 118.909 142.932ZM126.622 144.096C124.75 144.096 123.238 142.56 123.238 140.688C123.238 138.828 124.75 137.316 126.622 137.316C128.482 137.316 130.006 138.828 130.006 140.688C130.006 142.56 128.482 144.096 126.622 144.096ZM126.622 142.896C127.834 142.896 128.818 141.912 128.818 140.688C128.818 139.488 127.834 138.504 126.622 138.504C125.398 138.504 124.426 139.488 124.426 140.688C124.426 141.912 125.398 142.896 126.622 142.896ZM133.702 144.12C132.754 144.12 131.53 143.808 130.762 142.968L131.566 142.2C132.01 142.692 132.874 143.016 133.702 143.016C134.566 143.016 135.166 142.68 135.166 142.104C135.166 140.748 130.99 141.576 130.99 139.128C130.99 138.048 131.974 137.292 133.486 137.292C134.338 137.292 135.418 137.52 136.138 138.384L135.418 139.104C134.962 138.552 134.134 138.348 133.522 138.348C132.73 138.348 132.166 138.636 132.166 139.14C132.166 140.34 136.342 139.596 136.342 142.068C136.342 143.484 135.082 144.12 133.702 144.12ZM140.352 144.084C138.576 144.084 137.136 142.56 137.136 140.7C137.136 138.828 138.576 137.304 140.352 137.304C141.432 137.304 142.404 137.952 142.812 138.792L142.872 137.4H143.952V144H142.872L142.812 142.62C142.404 143.448 141.432 144.084 140.352 144.084ZM140.544 142.92C141.78 142.92 142.776 141.924 142.776 140.7C142.776 139.464 141.78 138.456 140.544 138.456C139.32 138.456 138.324 139.464 138.324 140.7C138.324 141.924 139.32 142.92 140.544 142.92ZM146.829 144H145.665V134.64H146.829V144ZM151.152 144.12C150.204 144.12 148.98 143.808 148.212 142.968L149.016 142.2C149.46 142.692 150.324 143.016 151.152 143.016C152.016 143.016 152.616 142.68 152.616 142.104C152.616 140.748 148.44 141.576 148.44 139.128C148.44 138.048 149.424 137.292 150.936 137.292C151.788 137.292 152.868 137.52 153.588 138.384L152.868 139.104C152.412 138.552 151.584 138.348 150.972 138.348C150.18 138.348 149.616 138.636 149.616 139.14C149.616 140.34 153.792 139.596 153.792 142.068C153.792 143.484 152.532 144.12 151.152 144.12ZM159.878 138.456V144.012L158.714 143.988V138.456H157.874V137.4H158.714V137.148C158.714 135.156 159.758 134.46 161.018 134.46C161.318 134.46 161.666 134.52 161.906 134.604L161.594 135.648C161.45 135.624 161.27 135.588 161.114 135.588C160.37 135.588 159.878 135.96 159.878 137.148V137.4H161.582V138.456H159.878ZM163.915 144H162.751V137.4H163.831L163.903 138.48C164.287 137.772 165.031 137.352 166.003 137.364C166.171 137.364 166.339 137.376 166.495 137.4L166.255 138.528C166.183 138.516 166.099 138.504 166.027 138.504C164.911 138.504 163.915 139.128 163.915 140.952V144ZM170.25 144.096C168.378 144.096 166.866 142.56 166.866 140.688C166.866 138.828 168.378 137.316 170.25 137.316C172.11 137.316 173.634 138.828 173.634 140.688C173.634 142.56 172.11 144.096 170.25 144.096ZM170.25 142.896C171.462 142.896 172.446 141.912 172.446 140.688C172.446 139.488 171.462 138.504 170.25 138.504C169.026 138.504 168.054 139.488 168.054 140.688C168.054 141.912 169.026 142.896 170.25 142.896ZM176.126 144H174.962V137.4H176.042L176.102 138.492C176.438 137.724 177.182 137.304 177.902 137.304C178.958 137.304 179.642 137.916 179.918 138.708C180.194 137.928 180.878 137.304 181.838 137.304C183.242 137.304 184.286 138.204 184.286 140.496V144H183.11V140.496C183.11 138.984 182.438 138.456 181.658 138.456C180.926 138.456 180.206 138.984 180.206 140.496V144H179.03V140.496C179.03 138.984 178.358 138.456 177.578 138.456C176.798 138.456 176.126 139.128 176.126 140.64V144ZM66.6608 163.64H65.4968V154.4H66.5768L66.6368 155.768C67.0328 154.952 68.0048 154.316 69.0848 154.316C70.8608 154.316 72.3008 155.828 72.3008 157.688C72.3008 159.56 70.8608 161.096 69.0848 161.096C68.0168 161.096 67.0568 160.46 66.6608 159.644V163.64ZM68.9048 159.932C70.1288 159.932 71.1248 158.924 71.1248 157.688C71.1248 156.464 70.1288 155.468 68.9048 155.468C67.6568 155.468 66.6608 156.464 66.6608 157.688C66.6608 158.924 67.6568 159.932 68.9048 159.932ZM74.7936 161H73.6296V154.4H74.7096L74.7816 155.48C75.1656 154.772 75.9096 154.352 76.8816 154.364C77.0496 154.364 77.2176 154.376 77.3736 154.4L77.1336 155.528C77.0616 155.516 76.9776 155.504 76.9056 155.504C75.7896 155.504 74.7936 156.128 74.7936 157.952V161ZM81.2493 161.096C79.2453 161.096 77.7453 159.56 77.7453 157.688C77.7453 155.828 79.2453 154.316 81.0933 154.316C83.0133 154.316 84.4413 155.828 84.4413 157.688C84.4413 157.844 84.4173 158.072 84.4053 158.24H79.0053C79.1853 159.236 80.1093 159.992 81.2493 159.992C82.0653 159.992 82.7133 159.656 83.1333 159.14L84.0813 159.728C83.4573 160.556 82.3653 161.096 81.2493 161.096ZM78.9933 157.28H83.2293C83.1693 156.26 82.3173 155.408 81.1053 155.408C79.9413 155.408 79.0653 156.26 78.9933 157.28ZM88.4667 161H87.3027L84.7107 154.4H85.9707L87.8907 159.248L89.7987 154.4H91.0587L88.4667 161ZM92.6512 153.728C92.2432 153.728 91.9072 153.392 91.9072 152.984C91.9072 152.576 92.2432 152.24 92.6512 152.24C93.0472 152.24 93.3832 152.576 93.3832 152.984C93.3832 153.392 93.0472 153.728 92.6512 153.728ZM93.2272 161H92.0632V154.4H93.2272V161ZM97.934 161.096C96.062 161.096 94.55 159.56 94.55 157.688C94.55 155.828 96.062 154.316 97.934 154.316C99.794 154.316 101.318 155.828 101.318 157.688C101.318 159.56 99.794 161.096 97.934 161.096ZM97.934 159.896C99.146 159.896 100.13 158.912 100.13 157.688C100.13 156.488 99.146 155.504 97.934 155.504C96.71 155.504 95.738 156.488 95.738 157.688C95.738 158.912 96.71 159.896 97.934 159.896ZM105.201 161.096C103.665 161.096 102.501 160.028 102.501 157.748V154.4H103.677V157.748C103.677 159.26 104.493 159.932 105.465 159.932C106.425 159.932 107.253 159.26 107.253 157.748V154.4H108.417V161H107.337L107.277 159.824C106.917 160.52 106.197 161.096 105.201 161.096ZM112.503 161.12C111.555 161.12 110.331 160.808 109.563 159.968L110.367 159.2C110.811 159.692 111.675 160.016 112.503 160.016C113.367 160.016 113.967 159.68 113.967 159.104C113.967 157.748 109.791 158.576 109.791 156.128C109.791 155.048 110.775 154.292 112.287 154.292C113.139 154.292 114.219 154.52 114.939 155.384L114.219 156.104C113.763 155.552 112.935 155.348 112.323 155.348C111.531 155.348 110.967 155.636 110.967 156.14C110.967 157.34 115.143 156.596 115.143 159.068C115.143 160.484 113.883 161.12 112.503 161.12ZM122.801 161.096C120.929 161.096 119.417 159.56 119.417 157.688C119.417 155.828 120.929 154.316 122.801 154.316C123.941 154.316 124.949 154.88 125.573 155.744L124.601 156.392C124.193 155.852 123.533 155.504 122.801 155.504C121.577 155.504 120.605 156.488 120.605 157.688C120.605 158.912 121.577 159.896 122.801 159.896C123.557 159.896 124.229 159.524 124.625 158.948L125.597 159.596C124.997 160.496 123.965 161.096 122.801 161.096ZM127.36 163.712C126.88 163.712 126.52 163.628 126.148 163.472L126.496 162.428C126.7 162.512 127.036 162.596 127.312 162.596C128.056 162.596 128.536 161.888 128.92 160.868L126.28 154.4H127.54L129.46 159.284L131.368 154.4H132.616L130.096 161C129.376 162.896 128.62 163.712 127.36 163.712ZM136.278 161.096C134.406 161.096 132.894 159.56 132.894 157.688C132.894 155.828 134.406 154.316 136.278 154.316C137.418 154.316 138.426 154.88 139.05 155.744L138.078 156.392C137.67 155.852 137.01 155.504 136.278 155.504C135.054 155.504 134.082 156.488 134.082 157.688C134.082 158.912 135.054 159.896 136.278 159.896C137.034 159.896 137.706 159.524 138.102 158.948L139.074 159.596C138.474 160.496 137.442 161.096 136.278 161.096ZM141.497 161H140.333V151.64H141.497V161ZM146.324 161.096C144.32 161.096 142.82 159.56 142.82 157.688C142.82 155.828 144.32 154.316 146.168 154.316C148.088 154.316 149.516 155.828 149.516 157.688C149.516 157.844 149.492 158.072 149.48 158.24H144.08C144.26 159.236 145.184 159.992 146.324 159.992C147.14 159.992 147.788 159.656 148.208 159.14L149.156 159.728C148.532 160.556 147.44 161.096 146.324 161.096ZM144.068 157.28H148.304C148.244 156.26 147.392 155.408 146.18 155.408C145.016 155.408 144.14 156.26 144.068 157.28ZM153.202 161.12C152.254 161.12 151.03 160.808 150.262 159.968L151.066 159.2C151.51 159.692 152.374 160.016 153.202 160.016C154.066 160.016 154.666 159.68 154.666 159.104C154.666 157.748 150.49 158.576 150.49 156.128C150.49 155.048 151.474 154.292 152.986 154.292C153.838 154.292 154.918 154.52 155.638 155.384L154.918 156.104C154.462 155.552 153.634 155.348 153.022 155.348C152.23 155.348 151.666 155.636 151.666 156.14C151.666 157.34 155.842 156.596 155.842 159.068C155.842 160.484 154.582 161.12 153.202 161.12Z" fill="#8E8E8E"/>
<defs>
<clipPath id="clip0_622_5639">
<rect width="68.7906" height="50" fill="white" transform="translate(76.1045)"/>
</clipPath>
</defs>
</svg>
