<svg width="209" height="15" viewBox="0 0 209 15" fill="none" xmlns="http://www.w3.org/2000/svg">
<path d="M4.186 3.23C3.738 3.23 3.374 2.866 3.374 2.418C3.374 1.97 3.738 1.606 4.186 1.606C4.634 1.606 4.998 1.97 4.998 2.418C4.998 2.866 4.634 3.23 4.186 3.23ZM6.594 3.23C6.146 3.23 5.796 2.866 5.796 2.418C5.796 1.97 6.146 1.606 6.594 1.606C7.042 1.606 7.406 1.97 7.406 2.418C7.406 2.866 7.042 3.23 6.594 3.23ZM7.14 11H4.872C2.17 11 0.686 9.488 0.686 6.884V5.4H2.03V6.884C2.03 8.746 2.94 9.656 4.872 9.656H7.14C8.092 9.656 8.54 9.054 8.54 8.032V4H9.87V8.032C9.87 9.838 8.82 11 7.14 11ZM14.7074 11H14.3574C12.8314 11 11.9214 9.894 11.9214 8.242V0.0799996H13.2514V8.242C13.2514 9.11 13.6014 9.656 14.3574 9.656H14.7074V11ZM18.9002 11H14.4342V9.656H16.5342C15.8622 9.208 15.4002 8.41 15.4002 7.5C15.4002 5.568 16.9682 4 18.9002 4C20.8322 4 22.4002 5.568 22.4002 7.5C22.4002 9.446 20.8322 11 18.9002 11ZM18.9002 9.656C20.0902 9.656 21.0562 8.69 21.0562 7.5C21.0562 6.31 20.0902 5.33 18.9002 5.33C17.7102 5.33 16.7442 6.31 16.7442 7.5C16.7442 8.69 17.7102 9.656 18.9002 9.656ZM27.3618 14.192C26.1998 14.192 25.0378 13.674 24.3798 12.806L25.3178 11.924C25.7658 12.498 26.5498 12.848 27.3338 12.848C28.6078 12.848 29.3638 11.938 29.4618 11H27.4738C25.3458 11 23.7778 9.502 23.7778 7.458C23.7778 5.526 25.3458 3.958 27.2918 3.958C29.3778 3.958 30.8198 5.526 30.8198 7.738V9.656H31.9538V11H30.8058C30.6378 12.722 29.3918 14.192 27.3618 14.192ZM27.4738 9.656H29.4758V7.64C29.4758 6.254 28.5938 5.288 27.2918 5.288C26.0878 5.288 25.1218 6.254 25.1218 7.458C25.1218 8.774 26.0878 9.656 27.4738 9.656ZM32.0805 11H31.6745V9.656H32.0805C32.8365 9.656 33.1865 9.11 33.1865 8.242V0.0799996H34.5165V8.242C34.5165 9.11 34.8665 9.656 35.6225 9.656H36.0285V11H35.6225C34.7825 11 34.2225 10.65 33.8585 10.048C33.4805 10.65 32.9205 11 32.0805 11ZM45.9267 11H35.7487V9.656H39.0247L36.7987 6.338V4H42.0627C43.6727 4 44.8627 4.518 44.8627 5.988C44.8627 7.22 43.6867 8.452 42.5667 9.656H45.9127L45.9267 11ZM38.3667 6.268L40.6067 9.656H41.0267C42.1747 8.41 43.3787 7.262 43.3787 6.394C43.3787 5.498 42.7067 5.33 41.6007 5.33H38.3667V6.268ZM50.1131 11H45.6471V9.656H47.7471C47.0751 9.208 46.6131 8.41 46.6131 7.5C46.6131 5.568 48.1811 4 50.1131 4C52.0451 4 53.6131 5.568 53.6131 7.5V8.564C53.6131 9.208 53.9771 9.656 54.6211 9.656H54.9991V11H54.6211C53.6411 11 53.0111 10.482 52.8151 9.628C52.2131 10.454 51.2191 11 50.1131 11ZM50.1131 9.656C51.3031 9.656 52.2691 8.69 52.2691 7.5C52.2691 6.31 51.3031 5.33 50.1131 5.33C48.9231 5.33 47.9571 6.31 47.9571 7.5C47.9571 8.69 48.9231 9.656 50.1131 9.656ZM55.1032 11H54.7252V9.656H55.1032C55.8732 9.656 56.2092 9.11 56.2092 8.242V0.0799996H57.5532V8.242C57.5532 9.894 56.6292 11 55.1032 11ZM61.226 11H59.896V0.0799996H61.226V11ZM69.3775 3.23C68.9435 3.23 68.5795 2.866 68.5795 2.418C68.5795 1.97 68.9435 1.606 69.3775 1.606C69.8255 1.606 70.2035 1.97 70.2035 2.418C70.2035 2.866 69.8255 3.23 69.3775 3.23ZM71.7435 3.23C71.2955 3.23 70.9455 2.866 70.9455 2.418C70.9455 1.97 71.2955 1.606 71.7435 1.606C72.1915 1.606 72.5555 1.97 72.5555 2.418C72.5555 2.866 72.1915 3.23 71.7435 3.23ZM70.3715 11C68.4395 11 66.8715 9.446 66.8715 7.5C66.8715 5.568 68.4395 4 70.3715 4H73.7035V8.242C73.7035 9.11 74.0395 9.656 74.7955 9.656H75.2015V11H74.7955C73.8295 11 73.1855 10.51 72.8915 9.684C72.3455 10.51 71.4355 11 70.3715 11ZM70.3715 9.656C71.4775 9.656 72.3595 8.83 72.3595 7.5V5.33H70.3715C69.1815 5.33 68.2155 6.31 68.2155 7.5C68.2155 8.69 69.1815 9.656 70.3715 9.656ZM75.8426 11H74.9186V9.656H75.8426C76.5986 9.656 76.9346 9.11 76.9346 8.242V4H78.2786V8.242C78.2786 9.11 78.6146 9.656 79.3846 9.656H80.3086V11H79.3846C78.5446 11 77.9706 10.65 77.6066 10.048C77.2426 10.65 76.6686 11 75.8426 11ZM76.4166 13.702C75.9686 13.702 75.6186 13.352 75.6186 12.904C75.6186 12.456 75.9686 12.092 76.4166 12.092C76.8646 12.092 77.2286 12.456 77.2286 12.904C77.2286 13.352 76.8646 13.702 76.4166 13.702ZM78.7826 13.702C78.3346 13.702 77.9706 13.352 77.9706 12.904C77.9706 12.456 78.3346 12.092 78.7826 12.092C79.2306 12.092 79.5946 12.456 79.5946 12.904C79.5946 13.352 79.2306 13.702 78.7826 13.702ZM82.2159 3.23C81.7539 3.23 81.3759 2.852 81.3759 2.39C81.3759 1.928 81.7539 1.55 82.2159 1.55C82.6779 1.55 83.0559 1.928 83.0559 2.39C83.0559 2.852 82.6779 3.23 82.2159 3.23ZM80.4379 11H80.0319V9.656H80.4379C81.1939 9.656 81.5439 9.11 81.5439 8.242V4H82.8739V8.242C82.8739 9.11 83.2239 9.656 83.9799 9.656H84.3859V11H83.9799C83.1399 11 82.5799 10.65 82.2159 10.048C81.8379 10.65 81.2779 11 80.4379 11ZM87.3681 3.118C86.9201 3.118 86.5561 2.754 86.5561 2.306C86.5561 1.858 86.9201 1.494 87.3681 1.494C87.8021 1.494 88.1801 1.858 88.1801 2.306C88.1801 2.754 87.8021 3.118 87.3681 3.118ZM89.8881 3.118C89.4401 3.118 89.0761 2.754 89.0761 2.306C89.0761 1.858 89.4401 1.494 89.8881 1.494C90.3221 1.494 90.7001 1.858 90.7001 2.306C90.7001 2.754 90.3221 3.118 89.8881 3.118ZM93.5141 11H84.1061V9.656H86.4721C85.7301 9.138 85.2541 8.27 85.2541 7.29C85.2541 5.498 86.7101 4 88.6421 4C90.6301 4 92.1421 5.568 92.1421 7.598V9.656H93.5141V11ZM88.6421 9.656H90.7981V7.5C90.7981 6.296 89.8461 5.33 88.6421 5.33C87.4521 5.33 86.4861 6.296 86.4861 7.5C86.4861 8.69 87.4521 9.656 88.6421 9.656ZM94.7649 3.23C94.3169 3.23 93.9669 2.866 93.9669 2.418C93.9669 1.97 94.3169 1.606 94.7649 1.606C95.2129 1.606 95.5769 1.97 95.5769 2.418C95.5769 2.866 95.2129 3.23 94.7649 3.23ZM97.1309 3.23C96.6829 3.23 96.3189 2.866 96.3189 2.418C96.3189 1.97 96.6829 1.606 97.1309 1.606C97.5789 1.606 97.9429 1.97 97.9429 2.418C97.9429 2.866 97.5789 3.23 97.1309 3.23ZM94.1629 11H93.2389V9.656H94.1629C94.9189 9.656 95.2689 9.11 95.2689 8.242V4H96.5989V8.242C96.5989 9.11 96.9489 9.656 97.7049 9.656H98.6289V11H97.7049C96.8649 11 96.3049 10.65 95.9409 10.048C95.5629 10.65 95.0029 11 94.1629 11ZM98.7302 11H98.3522V9.656H98.7302C99.5002 9.656 99.8362 9.11 99.8362 8.242V0.0799996H101.18V8.242C101.18 9.894 100.256 11 98.7302 11ZM110.795 14.458C109.017 14.458 107.757 13.184 107.603 11H106.231V9.656H107.589V3.958H110.501C112.447 3.958 114.015 5.526 114.015 7.458V9.656H115.373V11H114.001C113.917 13.17 112.573 14.458 110.795 14.458ZM108.933 5.288V9.656H110.319C111.705 9.656 112.671 8.774 112.671 7.458C112.671 6.254 111.705 5.288 110.501 5.288H108.933ZM110.795 13.17C111.831 13.17 112.671 12.344 112.671 10.916V9.796C112.209 10.51 111.285 11 110.123 11H108.933C109.031 12.456 109.703 13.17 110.795 13.17ZM116.011 11H115.087V9.656H116.011C116.767 9.656 117.103 9.11 117.103 8.242V4H118.447V8.242C118.447 9.11 118.783 9.656 119.553 9.656H120.477V11H119.553C118.713 11 118.139 10.65 117.775 10.048C117.411 10.65 116.837 11 116.011 11ZM116.585 13.702C116.137 13.702 115.787 13.352 115.787 12.904C115.787 12.456 116.137 12.092 116.585 12.092C117.033 12.092 117.397 12.456 117.397 12.904C117.397 13.352 117.033 13.702 116.585 13.702ZM118.951 13.702C118.503 13.702 118.139 13.352 118.139 12.904C118.139 12.456 118.503 12.092 118.951 12.092C119.399 12.092 119.763 12.456 119.763 12.904C119.763 13.352 119.399 13.702 118.951 13.702ZM121.726 3.23C121.278 3.23 120.928 2.866 120.928 2.418C120.928 1.97 121.278 1.606 121.726 1.606C122.174 1.606 122.538 1.97 122.538 2.418C122.538 2.866 122.174 3.23 121.726 3.23ZM124.092 3.23C123.644 3.23 123.28 2.866 123.28 2.418C123.28 1.97 123.644 1.606 124.092 1.606C124.54 1.606 124.904 1.97 124.904 2.418C124.904 2.866 124.54 3.23 124.092 3.23ZM121.124 11H120.2V9.656H121.124C121.88 9.656 122.23 9.11 122.23 8.242V4H123.56V8.242C123.56 9.11 123.91 9.656 124.666 9.656H125.59V11H124.666C123.826 11 123.266 10.65 122.902 10.048C122.524 10.65 121.964 11 121.124 11ZM126.139 11H125.313V9.656H126.139C126.895 9.656 127.287 9.11 127.287 8.242V4H128.631V8.242C128.631 9.894 127.665 11 126.139 11ZM126.643 13.702C126.195 13.702 125.831 13.352 125.831 12.904C125.831 12.456 126.195 12.092 126.643 12.092C127.091 12.092 127.455 12.456 127.455 12.904C127.455 13.352 127.091 13.702 126.643 13.702ZM128.995 13.702C128.561 13.702 128.197 13.352 128.197 12.904C128.197 12.456 128.561 12.092 128.995 12.092C129.443 12.092 129.821 12.456 129.821 12.904C129.821 13.352 129.443 13.702 128.995 13.702ZM133.907 14.192C132.745 14.192 131.583 13.674 130.925 12.806L131.863 11.924C132.311 12.498 133.095 12.848 133.879 12.848C135.153 12.848 135.909 11.938 136.007 11H134.019C131.891 11 130.323 9.502 130.323 7.458C130.323 5.526 131.891 3.958 133.837 3.958C135.923 3.958 137.365 5.526 137.365 7.738V9.656H138.499V11H137.351C137.183 12.722 135.937 14.192 133.907 14.192ZM134.019 9.656H136.021V7.64C136.021 6.254 135.139 5.288 133.837 5.288C132.633 5.288 131.667 6.254 131.667 7.458C131.667 8.774 132.633 9.656 134.019 9.656ZM148.131 11H138.219V9.656H145.485L145.471 8.69C145.457 6.632 144.127 5.33 142.097 5.33H139.367V4L143.791 0.0799996H145.597L141.117 4H142.167C144.813 4 146.801 5.89 146.815 8.62V9.656H148.131V11ZM148.236 11H147.858V9.656H148.236C149.006 9.656 149.342 9.11 149.342 8.242V0.0799996H150.686V8.242C150.686 9.894 149.762 11 148.236 11ZM154.359 11H153.029V0.0799996H154.359V11ZM162.51 3.23C162.076 3.23 161.712 2.866 161.712 2.418C161.712 1.97 162.076 1.606 162.51 1.606C162.958 1.606 163.336 1.97 163.336 2.418C163.336 2.866 162.958 3.23 162.51 3.23ZM164.876 3.23C164.428 3.23 164.078 2.866 164.078 2.418C164.078 1.97 164.428 1.606 164.876 1.606C165.324 1.606 165.688 1.97 165.688 2.418C165.688 2.866 165.324 3.23 164.876 3.23ZM163.504 11C161.572 11 160.004 9.446 160.004 7.5C160.004 5.568 161.572 4 163.504 4H166.836V8.242C166.836 9.11 167.172 9.656 167.928 9.656H168.334V11H167.928C166.962 11 166.318 10.51 166.024 9.684C165.478 10.51 164.568 11 163.504 11ZM163.504 9.656C164.61 9.656 165.492 8.83 165.492 7.5V5.33H163.504C162.314 5.33 161.348 6.31 161.348 7.5C161.348 8.69 162.314 9.656 163.504 9.656ZM168.975 11H168.051V9.656H168.975C169.731 9.656 170.067 9.11 170.067 8.242V4H171.411V8.242C171.411 9.11 171.747 9.656 172.517 9.656H173.441V11H172.517C171.677 11 171.103 10.65 170.739 10.048C170.375 10.65 169.801 11 168.975 11ZM169.549 13.702C169.101 13.702 168.751 13.352 168.751 12.904C168.751 12.456 169.101 12.092 169.549 12.092C169.997 12.092 170.361 12.456 170.361 12.904C170.361 13.352 169.997 13.702 169.549 13.702ZM171.915 13.702C171.467 13.702 171.103 13.352 171.103 12.904C171.103 12.456 171.467 12.092 171.915 12.092C172.363 12.092 172.727 12.456 172.727 12.904C172.727 13.352 172.363 13.702 171.915 13.702ZM183.343 11H173.165V9.656H176.441L174.215 6.338V4H179.479C181.089 4 182.279 4.518 182.279 5.988C182.279 7.22 181.103 8.452 179.983 9.656H183.329L183.343 11ZM175.783 6.268L178.023 9.656H178.443C179.591 8.41 180.795 7.262 180.795 6.394C180.795 5.498 180.123 5.33 179.017 5.33H175.783V6.268ZM187.529 11H183.063V9.656H185.163C184.491 9.208 184.029 8.41 184.029 7.5C184.029 5.568 185.597 4 187.529 4C189.461 4 191.029 5.568 191.029 7.5V8.564C191.029 9.208 191.393 9.656 192.037 9.656H192.415V11H192.037C191.057 11 190.427 10.482 190.231 9.628C189.629 10.454 188.635 11 187.529 11ZM187.529 9.656C188.719 9.656 189.685 8.69 189.685 7.5C189.685 6.31 188.719 5.33 187.529 5.33C186.339 5.33 185.373 6.31 185.373 7.5C185.373 8.69 186.339 9.656 187.529 9.656ZM202.081 11H192.141V9.656H199.547V8.69C199.519 6.632 198.189 5.33 196.173 5.33H193.331V4H196.243C198.889 4 200.863 5.89 200.877 8.62L200.891 9.656H202.081V11ZM197.153 13.814C196.691 13.814 196.313 13.436 196.313 12.974C196.313 12.526 196.691 12.148 197.153 12.148C197.601 12.148 197.993 12.526 197.993 12.974C197.993 13.436 197.601 13.814 197.153 13.814ZM202.008 11H201.63V9.656H202.008C202.778 9.656 203.114 9.11 203.114 8.242V0.0799996H204.458V8.242C204.458 9.894 203.534 11 202.008 11ZM208.13 11H206.8V0.0799996H208.13V11Z" fill="black"/>
</svg>
