<svg width="154" height="116" viewBox="0 0 154 116" fill="none" xmlns="http://www.w3.org/2000/svg">
<path d="M85.4812 44.6007L80.6572 47.3048L75.8374 44.6007L71.0135 47.3048L66.1895 44.6007L61.3627 47.3048L56.529 44.6007L51.6953 47.3048V2.6955H85.4812V44.6007Z" fill="white"/>
<path d="M51.6955 48C51.5111 47.9999 51.3342 47.9266 51.2038 47.7962C51.0734 47.6658 51.0001 47.4889 51 47.3045V2.6955C50.9999 2.60415 51.0179 2.51366 51.0528 2.42925C51.0877 2.34485 51.139 2.26818 51.2036 2.20359C51.2682 2.139 51.3448 2.08774 51.4293 2.05281C51.5137 2.01787 51.6041 1.99995 51.6955 2H85.4815C85.5728 1.99995 85.6632 2.01787 85.7477 2.05281C85.8321 2.08774 85.9088 2.139 85.9734 2.20359C86.038 2.26818 86.0892 2.34485 86.1241 2.42925C86.159 2.51366 86.177 2.60415 86.177 2.6955V44.6C86.1771 44.7237 86.1441 44.845 86.0815 44.9516C86.0189 45.0582 85.9291 45.1462 85.8211 45.2065L80.9961 47.911C80.8921 47.9692 80.7749 47.9997 80.6558 47.9997C80.5367 47.9997 80.4194 47.9692 80.3154 47.911L75.8382 45.3973L71.3542 47.911C71.2504 47.9691 71.1335 47.9997 71.0146 47.9997C70.8957 47.9997 70.7787 47.9691 70.675 47.911L66.1896 45.3973L61.7028 47.911C61.5991 47.9692 61.4822 47.9999 61.3633 48C61.2444 48.0001 61.1274 47.9697 61.0236 47.9117L56.53 45.3966L52.0351 47.9117C51.9313 47.9697 51.8144 48.0001 51.6955 48ZM56.53 43.9044C56.6489 43.9044 56.7658 43.9348 56.8696 43.9927L61.3631 46.5071L65.85 43.9934C65.9537 43.9353 66.0707 43.9048 66.1896 43.9048C66.3085 43.9048 66.4254 43.9353 66.5292 43.9934L71.0146 46.5071L75.4987 43.9934C75.6026 43.9353 75.7198 43.9048 75.8389 43.9048C75.9581 43.9048 76.0752 43.9353 76.1792 43.9934L80.6565 46.5071L84.786 44.1924V3.391H52.391V46.1186L56.1903 43.9927C56.2941 43.9348 56.4111 43.9044 56.53 43.9044Z" fill="black"/>
<path d="M68.1891 29.6067H57.5705C57.386 29.6067 57.2091 29.5334 57.0787 29.403C56.9482 29.2726 56.875 29.0956 56.875 28.9112C56.875 28.7267 56.9482 28.5498 57.0787 28.4193C57.2091 28.2889 57.386 28.2157 57.5705 28.2157H68.1891C68.3735 28.2157 68.5504 28.2889 68.6808 28.4193C68.8112 28.5498 68.8846 28.7267 68.8846 28.9112C68.8846 29.0956 68.8112 29.2726 68.6808 29.403C68.5504 29.5334 68.3735 29.6067 68.1891 29.6067Z" fill="black"/>
<path d="M79.6061 29.6067H74.4279C74.2435 29.6067 74.0665 29.5334 73.9361 29.403C73.8057 29.2726 73.7324 29.0956 73.7324 28.9112C73.7324 28.7267 73.8057 28.5498 73.9361 28.4193C74.0665 28.2889 74.2435 28.2157 74.4279 28.2157H79.6061C79.7906 28.2157 79.9674 28.2889 80.0979 28.4193C80.2283 28.5498 80.3016 28.7267 80.3016 28.9112C80.3016 29.0956 80.2283 29.2726 80.0979 29.403C79.9674 29.5334 79.7906 29.6067 79.6061 29.6067Z" fill="black"/>
<path d="M68.1891 34.2109H57.5705C57.386 34.2109 57.2091 34.1377 57.0787 34.0073C56.9482 33.8768 56.875 33.6999 56.875 33.5154C56.875 33.331 56.9482 33.154 57.0787 33.0236C57.2091 32.8932 57.386 32.8199 57.5705 32.8199H68.1891C68.3735 32.8199 68.5504 32.8932 68.6808 33.0236C68.8112 33.154 68.8846 33.331 68.8846 33.5154C68.8846 33.6999 68.8112 33.8768 68.6808 34.0073C68.5504 34.1377 68.3735 34.2109 68.1891 34.2109Z" fill="black"/>
<path d="M79.6061 34.2109H74.4279C74.2435 34.2109 74.0665 34.1377 73.9361 34.0073C73.8057 33.8768 73.7324 33.6999 73.7324 33.5154C73.7324 33.331 73.8057 33.154 73.9361 33.0236C74.0665 32.8932 74.2435 32.8199 74.4279 32.8199H79.6061C79.7906 32.8199 79.9674 32.8932 80.0979 33.0236C80.2283 33.154 80.3016 33.331 80.3016 33.5154C80.3016 33.6999 80.2283 33.8768 80.0979 34.0073C79.9674 34.1377 79.7906 34.2109 79.6061 34.2109Z" fill="black"/>
<path d="M68.1891 38.8152H57.5705C57.386 38.8152 57.2091 38.742 57.0787 38.6115C56.9482 38.4811 56.875 38.3042 56.875 38.1197C56.875 37.9353 56.9482 37.7583 57.0787 37.6279C57.2091 37.4975 57.386 37.4242 57.5705 37.4242H68.1891C68.3735 37.4242 68.5504 37.4975 68.6808 37.6279C68.8112 37.7583 68.8846 37.9353 68.8846 38.1197C68.8846 38.3042 68.8112 38.4811 68.6808 38.6115C68.5504 38.742 68.3735 38.8152 68.1891 38.8152Z" fill="black"/>
<path d="M79.6061 38.8152H74.4279C74.2435 38.8152 74.0665 38.742 73.9361 38.6115C73.8057 38.4811 73.7324 38.3042 73.7324 38.1197C73.7324 37.9353 73.8057 37.7583 73.9361 37.6279C74.0665 37.4975 74.2435 37.4242 74.4279 37.4242H79.6061C79.7906 37.4242 79.9674 37.4975 80.0979 37.6279C80.2283 37.7583 80.3016 37.9353 80.3016 38.1197C80.3016 38.3042 80.2283 38.4811 80.0979 38.6115C79.9674 38.742 79.7906 38.8152 79.6061 38.8152Z" fill="black"/>
<path d="M90.9754 26.7216C96.8908 26.7216 101.686 21.9262 101.686 16.0108C101.686 10.0954 96.8908 5.30003 90.9754 5.30003C85.06 5.30003 80.2646 10.0954 80.2646 16.0108C80.2646 21.9262 85.06 26.7216 90.9754 26.7216Z" fill="#FFC47A"/>
<path d="M90.9762 27.4169C88.7203 27.4169 86.5151 26.7479 84.6394 25.4945C82.7637 24.2412 81.3018 22.4598 80.4385 20.3756C79.5752 18.2914 79.3494 15.998 79.7895 13.7854C80.2296 11.5729 81.3159 9.5405 82.9111 7.94534C84.5063 6.35017 86.5386 5.26387 88.7512 4.82375C90.9637 4.38363 93.2571 4.60945 95.3413 5.47272C97.4255 6.33599 99.2069 7.79795 100.46 9.67364C101.714 11.5493 102.383 13.7546 102.383 16.0105C102.379 19.0346 101.176 21.9338 99.038 24.0722C96.8996 26.2106 94.0003 27.4134 90.9762 27.4169ZM90.9762 5.9957C88.9954 5.99576 87.059 6.58323 85.4121 7.68376C83.7651 8.78429 82.4815 10.3485 81.7235 12.1785C80.9655 14.0086 80.7673 16.0223 81.1538 17.965C81.5403 19.9078 82.4942 21.6923 83.8949 23.0929C85.2956 24.4935 87.0802 25.4473 89.0229 25.8337C90.9657 26.2201 92.9794 26.0216 94.8094 25.2635C96.6395 24.5054 98.2035 23.2217 99.304 21.5747C100.404 19.9277 100.992 17.9913 100.992 16.0105C100.988 13.3553 99.9321 10.8098 98.0546 8.9323C96.177 7.05484 93.6314 5.99878 90.9762 5.9957Z" fill="black"/>
<path d="M89.7766 20.6127C89.6786 20.6125 89.5818 20.5918 89.4924 20.5518C89.403 20.5117 89.323 20.4534 89.2577 20.3804L85.8848 16.6075L86.9226 15.6811L89.7249 18.8162L94.9887 11.6915L96.108 12.5174L90.3362 20.3302C90.2748 20.4134 90.1957 20.4819 90.1045 20.5306C90.0134 20.5794 89.9124 20.6072 89.8092 20.612L89.7766 20.6127Z" fill="black"/>
<path d="M61.1701 20.9958C61.0788 20.9958 60.9883 20.9779 60.9039 20.943C60.8195 20.9081 60.7428 20.8568 60.6782 20.7922C60.6136 20.7276 60.5624 20.6509 60.5274 20.5665C60.4925 20.4821 60.4746 20.3916 60.4746 20.3003V9.50785C60.4746 9.32339 60.5479 9.14646 60.6783 9.01603C60.8087 8.88559 60.9857 8.81235 61.1701 8.81235C61.3546 8.81235 61.5314 8.88559 61.6618 9.01603C61.7923 9.14646 61.8656 9.32339 61.8656 9.50785V20.3003C61.8657 20.3916 61.8476 20.4821 61.8127 20.5665C61.7778 20.6509 61.7266 20.7276 61.662 20.7922C61.5974 20.8568 61.5207 20.9081 61.4363 20.943C61.3519 20.9779 61.2615 20.9958 61.1701 20.9958Z" fill="black"/>
<path d="M63.7076 15.5996H61.1701C60.9856 15.5996 60.8087 15.5263 60.6783 15.3959C60.5479 15.2655 60.4746 15.0885 60.4746 14.9041C60.4746 14.7196 60.5479 14.5427 60.6783 14.4122C60.8087 14.2818 60.9856 14.2086 61.1701 14.2086H63.7076C63.892 14.2086 64.0689 14.2818 64.1993 14.4122C64.3298 14.5427 64.4031 14.7196 64.4031 14.9041C64.4031 15.0885 64.3298 15.2655 64.1993 15.3959C64.0689 15.5263 63.892 15.5996 63.7076 15.5996Z" fill="black"/>
<path d="M63.7076 15.5996H61.1701C60.9856 15.5996 60.8087 15.5263 60.6783 15.3959C60.5479 15.2655 60.4746 15.0885 60.4746 14.9041C60.4746 14.7196 60.5479 14.5427 60.6783 14.4122C60.8087 14.2818 60.9856 14.2086 61.1701 14.2086H63.7076C63.892 14.2086 64.0689 14.2818 64.1993 14.4122C64.3298 14.5427 64.4031 14.7196 64.4031 14.9041C64.4031 15.0885 64.3298 15.2655 64.1993 15.3959C64.0689 15.5263 63.892 15.5996 63.7076 15.5996Z" fill="black"/>
<path d="M63.708 15.5996C63.5836 15.5995 63.4615 15.5661 63.3545 15.5029C63.2474 15.4396 63.1593 15.3488 63.0992 15.2399C63.0392 15.131 63.0094 15.0081 63.013 14.8838C63.0166 14.7595 63.0535 14.6384 63.1198 14.5332L66.5199 9.137C66.6185 8.98161 66.7746 8.87168 66.9542 8.83127C67.1338 8.79087 67.322 8.82328 67.4777 8.92144C67.6334 9.01959 67.7438 9.1755 67.7848 9.35493C67.8257 9.53437 67.7939 9.7227 67.6962 9.87868L64.2962 15.2749C64.2337 15.3745 64.1469 15.4565 64.044 15.5133C63.9411 15.5701 63.8255 15.5998 63.708 15.5996Z" fill="black"/>
<path d="M67.1081 20.9958C66.9906 20.9961 66.8749 20.9664 66.772 20.9096C66.6691 20.8528 66.5824 20.7707 66.5199 20.6712L63.1199 15.275C63.0215 15.119 62.9891 14.9303 63.0299 14.7504C63.0706 14.5706 63.1811 14.4143 63.3371 14.3159C63.4931 14.2176 63.6819 14.1852 63.8617 14.2259C64.0416 14.2667 64.1979 14.3773 64.2962 14.5333L67.6963 19.9295C67.7626 20.0347 67.7994 20.1558 67.803 20.28C67.8066 20.4043 67.7768 20.5273 67.7168 20.6362C67.6567 20.7451 67.5686 20.8359 67.4616 20.8991C67.3545 20.9624 67.2325 20.9958 67.1081 20.9958Z" fill="black"/>
<path d="M70.0684 9.27897H73.2242C73.9621 9.27897 74.6697 9.57207 75.1914 10.0938C75.7131 10.6155 76.0062 11.3231 76.0062 12.061V17.5186C76.0062 18.2564 75.7131 18.964 75.1914 19.4857C74.6697 20.0074 73.9621 20.3005 73.2242 20.3005H70.0684V9.27897Z" fill="white"/>
<path d="M73.2241 20.9958H70.0685C69.9772 20.9958 69.8867 20.9779 69.8023 20.943C69.7179 20.9081 69.6412 20.8568 69.5766 20.7922C69.512 20.7276 69.4608 20.6509 69.4259 20.5665C69.3909 20.4821 69.373 20.3916 69.373 20.3003V9.27896C69.373 9.18761 69.3909 9.09712 69.4259 9.01271C69.4608 8.92831 69.512 8.85164 69.5766 8.78705C69.6412 8.72246 69.7179 8.6712 69.8023 8.63627C69.8867 8.60134 69.9772 8.58341 70.0685 8.58346H73.2241C74.1461 8.58443 75.03 8.95108 75.6819 9.60302C76.3339 10.255 76.7006 11.139 76.7016 12.061V17.5183C76.7006 18.4403 76.3339 19.3242 75.6819 19.9761C75.03 20.6281 74.1461 20.9948 73.2241 20.9958ZM70.764 19.6048H73.2241C73.7773 19.6042 74.3076 19.3842 74.6988 18.993C75.09 18.6018 75.31 18.0715 75.3106 17.5183V12.061C75.31 11.5078 75.09 10.9774 74.6988 10.5862C74.3076 10.1951 73.7773 9.97506 73.2241 9.97446H70.764V19.6048Z" fill="black"/>
<path d="M26.8594 91H20.3794V67.84H16.3794V61.8H26.8594V91ZM41.6175 91.4C36.9375 91.4 32.9775 88.76 31.4575 84.76L37.6975 82.48C38.2575 83.92 39.9375 84.92 41.7375 84.92C44.0575 84.92 45.9775 83.16 45.9775 80.8C45.9775 78.44 44.0975 76.68 41.8175 76.68C40.4575 76.68 39.1375 77.32 38.3775 78.32H31.8975L33.0575 61.8H51.3775V67.84H39.1375L38.8575 72.04C39.8575 71.32 41.4575 70.76 42.8575 70.76C48.4575 70.76 52.5375 74.96 52.5375 80.96C52.5375 87 47.6175 91.4 41.6175 91.4ZM58.2587 91.56C56.2987 91.56 54.7387 89.96 54.7387 88.04C54.7387 86.08 56.2987 84.52 58.2587 84.52C60.1787 84.52 61.7387 86.08 61.7387 88.04C61.7387 89.96 60.1787 91.56 58.2587 91.56ZM74.3231 91H66.4431L73.0431 81.72C68.0831 81.44 63.8431 77.32 63.8431 71.8C63.8431 65.76 68.6431 61.36 74.5631 61.36C80.4831 61.36 85.2831 65.76 85.2831 71.8C85.2831 74.08 84.5631 76.2 83.3231 77.84L74.3231 91ZM74.5631 75.72C76.8831 75.72 78.6831 74 78.6831 71.8C78.6831 69.6 76.8831 67.84 74.5631 67.84C72.2431 67.84 70.3631 69.6 70.3631 71.8C70.3631 74 72.2431 75.72 74.5631 75.72ZM99.4359 91.52C92.7159 91.52 87.8759 85.92 87.8759 76.4C87.8759 66.92 92.7159 61.36 99.4359 61.36C106.156 61.36 110.996 66.92 110.996 76.4C110.996 85.92 106.156 91.52 99.4359 91.52ZM99.4359 85C102.156 85 104.396 82.6 104.396 76.36C104.396 70.28 102.156 67.88 99.4359 67.88C96.6759 67.88 94.4759 70.28 94.4759 76.36C94.4759 82.6 96.6759 85 99.4359 85ZM121.929 91H115.009V61.8H121.929V72.72L129.889 61.8H137.609L128.609 74.08L138.289 91H130.289L124.329 80.52L121.929 83.4V91Z" fill="#F36D20"/>
<path d="M5.04456 111H3.60256V100.78H5.04456V105.708L9.37056 100.78H11.0366L7.45256 104.994L11.3866 111H9.69256L6.54256 106.296L5.04456 107.92V111ZM15.9261 111H12.7901V100.78H15.9261C19.1041 100.78 21.3021 103.034 21.3021 105.876C21.3021 108.746 19.1881 111 15.9261 111ZM14.2321 102.194V109.572H15.9261C18.3621 109.572 19.8041 107.906 19.8041 105.862C19.8041 103.888 18.2781 102.194 15.9261 102.194H14.2321ZM27.6258 111H26.0298L29.7678 100.78H31.3358L35.0738 111H33.5058L32.5258 108.34H28.5918L27.6258 111ZM30.5518 102.726L29.0118 106.982H32.1058L30.5518 102.726ZM37.6467 111H36.2887V103.3H37.5487L37.6187 104.574C38.0107 103.678 38.8787 103.188 39.7187 103.188C40.9507 103.188 41.7487 103.902 42.0707 104.826C42.3927 103.916 43.1907 103.188 44.3107 103.188C45.9487 103.188 47.1667 104.238 47.1667 106.912V111H45.7947V106.912C45.7947 105.148 45.0107 104.532 44.1007 104.532C43.2467 104.532 42.4067 105.148 42.4067 106.912V111H41.0347V106.912C41.0347 105.148 40.2507 104.532 39.3407 104.532C38.4307 104.532 37.6467 105.316 37.6467 107.08V111ZM52.5032 111.112C50.3192 111.112 48.5552 109.32 48.5552 107.136C48.5552 104.966 50.3192 103.202 52.5032 103.202C54.6732 103.202 56.4512 104.966 56.4512 107.136C56.4512 109.32 54.6732 111.112 52.5032 111.112ZM52.5032 109.712C53.9172 109.712 55.0652 108.564 55.0652 107.136C55.0652 105.736 53.9172 104.588 52.5032 104.588C51.0752 104.588 49.9412 105.736 49.9412 107.136C49.9412 108.564 51.0752 109.712 52.5032 109.712ZM60.9817 111.112C59.1897 111.112 57.8317 109.866 57.8317 107.206V103.3H59.2037V107.206C59.2037 108.97 60.1557 109.754 61.2897 109.754C62.4097 109.754 63.3757 108.97 63.3757 107.206V103.3H64.7337V111H63.4737L63.4037 109.628C62.9837 110.44 62.1437 111.112 60.9817 111.112ZM68.094 111H66.736V103.3H67.996L68.066 104.658C68.486 103.846 69.312 103.188 70.488 103.188C72.28 103.188 73.638 104.42 73.638 107.08V111H72.266V107.08C72.266 105.33 71.314 104.532 70.18 104.532C69.06 104.532 68.094 105.316 68.094 107.08V111ZM78.2346 111.126C76.8206 111.126 75.6446 110.272 75.6446 108.13V104.532H74.6086V103.3H75.6866L75.8546 100.78H77.0026V103.3H78.8506V104.532H77.0026V108.116C77.0026 109.222 77.5486 109.796 78.4166 109.796C78.6126 109.796 78.8226 109.768 79.0046 109.698L79.3546 110.916C79.0326 111.056 78.6406 111.126 78.2346 111.126ZM85.4305 111H83.8345L87.5725 100.78H89.1405L92.8785 111H91.3105L90.3305 108.34H86.3965L85.4305 111ZM88.3565 102.726L86.8165 106.982H89.9105L88.3565 102.726ZM95.4514 114.08H94.0934V103.3H95.3534L95.4234 104.896C95.8854 103.944 97.0194 103.202 98.2794 103.202C100.351 103.202 102.031 104.966 102.031 107.136C102.031 109.32 100.351 111.112 98.2794 111.112C97.0334 111.112 95.9134 110.37 95.4514 109.418V114.08ZM98.0694 109.754C99.4974 109.754 100.659 108.578 100.659 107.136C100.659 105.708 99.4974 104.546 98.0694 104.546C96.6134 104.546 95.4514 105.708 95.4514 107.136C95.4514 108.578 96.6134 109.754 98.0694 109.754ZM104.844 114.08H103.486V103.3H104.746L104.816 104.896C105.278 103.944 106.412 103.202 107.672 103.202C109.744 103.202 111.424 104.966 111.424 107.136C111.424 109.32 109.744 111.112 107.672 111.112C106.426 111.112 105.306 110.37 104.844 109.418V114.08ZM107.462 109.754C108.89 109.754 110.052 108.578 110.052 107.136C110.052 105.708 108.89 104.546 107.462 104.546C106.006 104.546 104.844 105.708 104.844 107.136C104.844 108.578 106.006 109.754 107.462 109.754ZM114.332 111H112.974V103.3H114.234L114.318 104.56C114.766 103.734 115.634 103.244 116.768 103.258C116.964 103.258 117.16 103.272 117.342 103.3L117.062 104.616C116.978 104.602 116.88 104.588 116.796 104.588C115.494 104.588 114.332 105.316 114.332 107.444V111ZM121.724 111.112C119.54 111.112 117.776 109.32 117.776 107.136C117.776 104.966 119.54 103.202 121.724 103.202C123.894 103.202 125.672 104.966 125.672 107.136C125.672 109.32 123.894 111.112 121.724 111.112ZM121.724 109.712C123.138 109.712 124.286 108.564 124.286 107.136C124.286 105.736 123.138 104.588 121.724 104.588C120.296 104.588 119.162 105.736 119.162 107.136C119.162 108.564 120.296 109.712 121.724 109.712ZM130.38 111H129.022L125.998 103.3H127.468L129.708 108.956L131.934 103.3H133.404L130.38 111ZM137.805 111.112C135.467 111.112 133.717 109.32 133.717 107.136C133.717 104.966 135.467 103.202 137.623 103.202C139.863 103.202 141.529 104.966 141.529 107.136C141.529 107.318 141.501 107.584 141.487 107.78H135.187C135.397 108.942 136.475 109.824 137.805 109.824C138.757 109.824 139.513 109.432 140.003 108.83L141.109 109.516C140.381 110.482 139.107 111.112 137.805 111.112ZM135.173 106.66H140.115C140.045 105.47 139.051 104.476 137.637 104.476C136.279 104.476 135.257 105.47 135.173 106.66ZM146.356 111.098C144.284 111.098 142.604 109.32 142.604 107.15C142.604 104.966 144.284 103.188 146.356 103.188C147.602 103.188 148.722 103.916 149.184 104.882V100.08H150.556V111H149.296L149.226 109.39C148.75 110.356 147.616 111.098 146.356 111.098ZM146.58 109.74C148.022 109.74 149.184 108.578 149.184 107.15C149.184 105.708 148.022 104.532 146.58 104.532C145.152 104.532 143.99 105.708 143.99 107.15C143.99 108.578 145.152 109.74 146.58 109.74Z" fill="black"/>
</svg>
