<svg width="150" height="116" viewBox="0 0 150 116" fill="none" xmlns="http://www.w3.org/2000/svg">
<path d="M62.3205 23.4192H46.227C46.1332 23.4192 46.0403 23.4008 45.9536 23.3649C45.8669 23.329 45.7881 23.2764 45.7218 23.2101C45.6555 23.1437 45.6028 23.065 45.5669 22.9783C45.5311 22.8916 45.5126 22.7987 45.5127 22.7048V19.0759C45.5129 17.4706 45.9982 15.9028 46.9049 14.578C47.8117 13.2533 49.0975 12.2334 50.594 11.6522C49.8897 10.9286 49.4143 10.0135 49.2274 9.02127C49.0405 8.02902 49.1503 7.00371 49.543 6.0735C49.9357 5.14329 50.5938 4.34944 51.4353 3.79132C52.2767 3.2332 53.2641 2.93555 54.2738 2.93555C55.2835 2.93555 56.2707 3.2332 57.1121 3.79132C57.9535 4.34944 58.6118 5.14329 59.0045 6.0735C59.3972 7.00371 59.5069 8.02902 59.32 9.02127C59.1331 10.0135 58.6578 10.9286 57.9536 11.6522C59.4501 12.2333 60.736 13.2532 61.6428 14.5779C62.5496 15.9027 63.0348 17.4706 63.0349 19.0759V22.7048C63.0349 22.7987 63.0165 22.8916 62.9806 22.9783C62.9447 23.065 62.8921 23.1437 62.8258 23.2101C62.7594 23.2764 62.6807 23.329 62.594 23.3649C62.5073 23.4008 62.4143 23.4192 62.3205 23.4192ZM46.9414 21.9905H61.6062V19.0759C61.6062 17.5503 61.0724 16.0728 60.0971 14.8995C59.1219 13.7263 57.7668 12.9314 56.2668 12.6526C56.1221 12.6257 55.9893 12.5548 55.8864 12.4496C55.7836 12.3444 55.7156 12.21 55.692 12.0648C55.6683 11.9196 55.6901 11.7706 55.7542 11.6382C55.8184 11.5058 55.9219 11.3965 56.0505 11.3251C56.7724 10.9303 57.3422 10.3064 57.6702 9.55179C57.9982 8.79722 58.0658 7.95488 57.862 7.15773C57.6583 6.36058 57.1948 5.654 56.545 5.14936C55.8951 4.64472 55.0959 4.37076 54.2731 4.37076C53.4503 4.37076 52.6509 4.64472 52.001 5.14936C51.3512 5.654 50.8879 6.36058 50.6841 7.15773C50.4804 7.95488 50.5478 8.79722 50.8758 9.55179C51.2038 10.3064 51.7737 10.9303 52.4956 11.3251C52.6245 11.3962 52.7282 11.5054 52.7926 11.6378C52.857 11.7701 52.8791 11.9191 52.8556 12.0644C52.832 12.2098 52.7642 12.3442 52.6613 12.4495C52.5584 12.5548 52.4255 12.6258 52.2807 12.6526C50.7808 12.9315 49.4258 13.7264 48.4506 14.8996C47.4754 16.0729 46.9414 17.5503 46.9414 19.0759V21.9905Z" fill="black"/>
<path d="M83.0457 23.4192H66.9536C66.8598 23.4192 66.7668 23.4007 66.6801 23.3648C66.5934 23.329 66.5147 23.2764 66.4484 23.2101C66.382 23.1437 66.3294 23.0649 66.2935 22.9782C66.2576 22.8915 66.2392 22.7987 66.2393 22.7048V19.0759C66.2391 17.4707 66.7241 15.903 67.6306 14.5782C68.5371 13.2534 69.8228 12.2334 71.3191 11.6522C70.6149 10.9286 70.1395 10.0135 69.9525 9.02127C69.7656 8.02902 69.8755 7.00371 70.2682 6.0735C70.6609 5.14329 71.319 4.34944 72.1604 3.79132C73.0019 3.2332 73.9892 2.93555 74.9989 2.93555C76.0086 2.93555 76.9958 3.2332 77.8373 3.79132C78.6787 4.34944 79.337 5.14329 79.7297 6.0735C80.1224 7.00371 80.2321 8.02902 80.0452 9.02127C79.8582 10.0135 79.383 10.9286 78.6787 11.6522C80.1751 12.2335 81.4609 13.2534 82.3676 14.5781C83.2744 15.9029 83.7598 17.4706 83.76 19.0759V22.7048C83.7601 22.7987 83.7417 22.8916 83.7058 22.9783C83.6699 23.065 83.6173 23.1437 83.5509 23.2101C83.4846 23.2764 83.4058 23.329 83.3191 23.3649C83.2324 23.4008 83.1395 23.4192 83.0457 23.4192ZM67.6679 21.9905H82.3313V19.0759C82.3314 17.5503 81.7975 16.0728 80.8223 14.8995C79.847 13.7263 78.4919 12.9314 76.992 12.6526C76.8472 12.6257 76.7142 12.5547 76.6113 12.4493C76.5084 12.344 76.4405 12.2095 76.417 12.0641C76.3935 11.9187 76.4155 11.7696 76.4799 11.6372C76.5444 11.5047 76.6482 11.3955 76.7771 11.3243C77.4988 10.9292 78.0683 10.3052 78.396 9.55057C78.7238 8.79593 78.791 7.95363 78.587 7.1566C78.383 6.35957 77.9195 5.65319 77.2696 5.14875C76.6197 4.64431 75.8203 4.37051 74.9975 4.37067C74.1748 4.37083 73.3756 4.64492 72.7258 5.14962C72.0761 5.65432 71.613 6.36097 71.4093 7.15808C71.2056 7.95519 71.2731 8.79737 71.6011 9.55187C71.9291 10.3064 72.499 10.9303 73.2208 11.3251C73.3497 11.3962 73.4533 11.5054 73.5178 11.6378C73.5822 11.7701 73.6043 11.9191 73.5807 12.0644C73.5572 12.2097 73.4893 12.3442 73.3865 12.4495C73.2836 12.5548 73.1507 12.6258 73.0059 12.6526C71.5061 12.9314 70.1511 13.7264 69.1761 14.8997C68.2011 16.073 67.6676 17.5504 67.6679 19.0759V21.9905Z" fill="black"/>
<path d="M103.771 23.4191H87.6792C87.5854 23.4192 87.4924 23.4008 87.4057 23.3649C87.319 23.329 87.2403 23.2764 87.1739 23.21C87.1076 23.1437 87.055 23.065 87.0191 22.9783C86.9832 22.8916 86.9648 22.7986 86.9648 22.7048V19.0759C86.9647 17.4707 87.4497 15.903 88.3562 14.5782C89.2627 13.2534 90.5484 12.2334 92.0447 11.6521C91.3409 10.9285 90.866 10.0136 90.6794 9.0216C90.4927 8.02959 90.6026 7.00458 90.9954 6.0747C91.3881 5.14483 92.0464 4.35128 92.8876 3.7934C93.7288 3.23551 94.7158 2.93797 95.7252 2.93797C96.7346 2.93797 97.7216 3.23551 98.5629 3.7934C99.4041 4.35128 100.062 5.14483 100.455 6.0747C100.848 7.00458 100.958 8.02959 100.771 9.0216C100.584 10.0136 100.11 10.9285 99.4057 11.6521C100.902 12.2334 102.188 13.2534 103.094 14.5782C104.001 15.903 104.486 17.4707 104.486 19.0759V22.7048C104.486 22.7986 104.467 22.8916 104.431 22.9783C104.395 23.065 104.343 23.1437 104.277 23.21C104.21 23.2764 104.131 23.329 104.045 23.3649C103.958 23.4008 103.865 23.4192 103.771 23.4191ZM88.3935 21.9905H103.057V19.0759C103.057 17.5504 102.524 16.073 101.549 14.8997C100.574 13.7264 99.2188 12.9314 97.7189 12.6526C97.5742 12.6257 97.4413 12.5548 97.3384 12.4495C97.2355 12.3442 97.1676 12.2097 97.1441 12.0644C97.1206 11.9191 97.1425 11.7701 97.2069 11.6378C97.2713 11.5054 97.3752 11.3962 97.5041 11.3251C98.2261 10.93 98.7959 10.3057 99.1239 9.5509C99.4519 8.79605 99.5193 7.95351 99.3154 7.15615C99.1115 6.35879 98.6479 5.652 97.9978 5.14725C97.3477 4.6425 96.5482 4.36848 95.7252 4.36848C94.9022 4.36848 94.1025 4.6425 93.4525 5.14725C92.8024 5.652 92.339 6.35879 92.1351 7.15615C91.9312 7.95351 91.9984 8.79605 92.3264 9.5509C92.6543 10.3057 93.2244 10.93 93.9464 11.3251C94.0752 11.3962 94.1789 11.5054 94.2434 11.6378C94.3078 11.7701 94.3298 11.9191 94.3063 12.0644C94.2828 12.2097 94.2149 12.3442 94.112 12.4495C94.0091 12.5548 93.8762 12.6257 93.7315 12.6526C92.2317 12.9314 90.8767 13.7264 89.9017 14.8997C88.9267 16.073 88.3932 17.5504 88.3935 19.0759V21.9905Z" fill="black"/>
<path d="M72.6838 47.0389H56.5903C56.4965 47.039 56.4035 47.0206 56.3169 46.9847C56.2302 46.9488 56.1514 46.8962 56.0851 46.8298C56.0187 46.7635 55.9661 46.6847 55.9302 46.5981C55.8943 46.5114 55.8759 46.4184 55.876 46.3246V42.6958C55.8761 41.0904 56.3613 39.5225 57.268 38.1977C58.1748 36.8729 59.4607 35.8531 60.9572 35.272C60.253 34.5484 59.7776 33.6333 59.5907 32.641C59.4037 31.6488 59.5136 30.6235 59.9063 29.6933C60.299 28.7631 60.9571 27.9693 61.7985 27.4112C62.64 26.8531 63.6274 26.5553 64.6371 26.5553C65.6468 26.5553 66.634 26.8531 67.4754 27.4112C68.3168 27.9693 68.9751 28.7631 69.3678 29.6933C69.7605 30.6235 69.8702 31.6488 69.6833 32.641C69.4963 33.6333 69.0211 34.5484 68.3169 35.272C69.8134 35.8531 71.0993 36.8729 72.0061 38.1977C72.9128 39.5225 73.3981 41.0904 73.3981 42.6958V46.3246C73.3982 46.4184 73.3798 46.5114 73.3439 46.5981C73.308 46.6847 73.2554 46.7635 73.189 46.8298C73.1227 46.8962 73.0439 46.9488 72.9573 46.9847C72.8706 47.0206 72.7776 47.039 72.6838 47.0389ZM57.3046 45.6103H71.9695V42.6958C71.9695 41.1702 71.4356 39.6926 70.4604 38.5193C69.4852 37.3461 68.13 36.5512 66.6301 36.2724C66.4854 36.2455 66.3526 36.1745 66.2497 36.0694C66.1468 35.9642 66.0789 35.8298 66.0553 35.6845C66.0316 35.5393 66.0534 35.3904 66.1175 35.258C66.1817 35.1256 66.2852 35.0162 66.4138 34.9448C67.1361 34.55 67.7062 33.9259 68.0345 33.171C68.3628 32.4162 68.4305 31.5735 68.2267 30.7759C68.0229 29.9784 67.5594 29.2714 66.9093 28.7665C66.2592 28.2616 65.4595 27.9876 64.6364 27.9876C63.8132 27.9876 63.0134 28.2616 62.3632 28.7665C61.7131 29.2714 61.2498 29.9784 61.046 30.7759C60.8423 31.5735 60.9098 32.4162 61.238 33.171C61.5663 33.9259 62.1366 34.55 62.8589 34.9448C62.9878 35.016 63.0915 35.1252 63.1559 35.2575C63.2203 35.3899 63.2424 35.5389 63.2188 35.6842C63.1953 35.8295 63.1275 35.964 63.0246 36.0693C62.9217 36.1745 62.7888 36.2455 62.644 36.2724C61.1441 36.5512 59.789 37.3461 58.8137 38.5193C57.8385 39.6926 57.3046 41.1702 57.3046 42.6958V45.6103Z" fill="black"/>
<path d="M93.4094 47.0389H77.3159C77.2221 47.0389 77.1291 47.0205 77.0424 46.9847C76.9558 46.9488 76.877 46.8961 76.8107 46.8298C76.7443 46.7634 76.6917 46.6847 76.6558 46.598C76.6199 46.5113 76.6015 46.4184 76.6016 46.3246V42.6958C76.6016 41.0904 77.0869 39.5225 77.9936 38.1977C78.9004 36.8729 80.1863 35.8531 81.6828 35.272C80.9786 34.5484 80.5032 33.6332 80.3162 32.641C80.1293 31.6487 80.2392 30.6234 80.6319 29.6932C81.0246 28.763 81.6827 27.9692 82.5241 27.4111C83.3656 26.853 84.3529 26.5554 85.3626 26.5554C86.3723 26.5554 87.3595 26.853 88.201 27.4111C89.0424 27.9692 89.7007 28.763 90.0934 29.6932C90.4861 30.6234 90.5958 31.6487 90.4089 32.641C90.2219 33.6332 89.7467 34.5484 89.0424 35.272C90.539 35.8531 91.8249 36.8729 92.7317 38.1977C93.6384 39.5225 94.1236 41.0904 94.1237 42.6958V46.3246C94.1238 46.4184 94.1054 46.5113 94.0695 46.598C94.0336 46.6847 93.981 46.7634 93.9146 46.8298C93.8483 46.8961 93.7695 46.9488 93.6828 46.9847C93.5961 47.0205 93.5032 47.0389 93.4094 47.0389ZM78.0302 45.6102H92.695V42.6958C92.6951 41.1701 92.1612 39.6925 91.186 38.5193C90.2107 37.346 88.8556 36.5511 87.3557 36.2723C87.2109 36.2455 87.078 36.1745 86.9751 36.0692C86.8722 35.964 86.8044 35.8295 86.7808 35.6842C86.7573 35.5388 86.7792 35.3899 86.8436 35.2575C86.9081 35.1251 87.0119 35.0159 87.1408 34.9448C87.8635 34.5499 88.4342 33.9256 88.7627 33.1705C89.0912 32.4153 89.1588 31.5722 88.9551 30.7743C88.7513 29.9764 88.2877 29.269 87.6373 28.7639C86.9869 28.2587 86.1869 27.9845 85.3633 27.9845C84.5398 27.9845 83.7397 28.2587 83.0894 28.7639C82.439 29.269 81.9752 29.9764 81.7714 30.7743C81.5677 31.5722 81.6354 32.4153 81.964 33.1705C82.2925 33.9256 82.8632 34.5499 83.5859 34.9448C83.7145 35.0162 83.818 35.1255 83.8822 35.2579C83.9463 35.3903 83.9679 35.5393 83.9443 35.6845C83.9206 35.8297 83.8528 35.9641 83.75 36.0693C83.6471 36.1745 83.5143 36.2454 83.3696 36.2723C81.8697 36.5511 80.5145 37.346 79.5393 38.5193C78.5641 39.6925 78.0302 41.1701 78.0302 42.6958V45.6102Z" fill="black"/>
<path d="M55.4258 91H48.9458V67.84H44.9458V61.8H55.4258V91ZM70.4239 91.56C65.4639 91.56 61.3439 89.04 59.6639 85.16L65.4239 82.52C66.1439 83.92 68.1439 85.08 70.2639 85.08C72.7839 85.08 74.4239 83.68 74.4239 81.76C74.4239 79.52 72.4239 78.4 69.6639 78.4H68.0239V72.4H69.7839C71.5439 72.4 73.3439 71.64 73.3439 69.88C73.3439 68.4 71.9439 67.48 70.1439 67.48C68.7839 67.48 67.5839 68.04 66.9839 68.84L60.9839 66.56C62.3839 63.4 66.2239 61.16 70.2239 61.16C75.2639 61.16 79.8639 63.72 79.8639 69.4C79.8639 71.88 78.5039 73.88 76.5039 75.2C79.1039 76.64 80.9039 79.04 80.9039 82.28C80.9039 87.96 76.4239 91.56 70.4239 91.56ZM93.9395 91.56C88.9795 91.56 84.8595 89.04 83.1795 85.16L88.9395 82.52C89.6595 83.92 91.6595 85.08 93.7795 85.08C96.2995 85.08 97.9395 83.68 97.9395 81.76C97.9395 79.52 95.9395 78.4 93.1795 78.4H91.5395V72.4H93.2995C95.0595 72.4 96.8595 71.64 96.8595 69.88C96.8595 68.4 95.4595 67.48 93.6595 67.48C92.2995 67.48 91.0995 68.04 90.4995 68.84L84.4995 66.56C85.8995 63.4 89.7395 61.16 93.7395 61.16C98.7795 61.16 103.38 63.72 103.38 69.4C103.38 71.88 102.02 73.88 100.02 75.2C102.62 76.64 104.42 79.04 104.42 82.28C104.42 87.96 99.9395 91.56 93.9395 91.56Z" fill="#F36D20"/>
<path d="M35.3999 111H31.2979V100.78H34.9519C36.8419 100.78 38.1019 101.872 38.1019 103.426C38.1019 104.364 37.6259 105.092 36.8699 105.526C37.9619 105.89 38.7179 106.786 38.7179 108.06C38.7179 109.754 37.3879 111 35.3999 111ZM32.7399 102.11V105.064L35.0079 105.05C36.0019 105.036 36.6879 104.434 36.6879 103.622C36.6879 102.796 36.0999 102.11 34.9239 102.11H32.7399ZM32.7399 106.338V109.6H35.3579C36.5339 109.6 37.2339 108.914 37.2339 107.962C37.2339 106.996 36.4639 106.338 35.4419 106.338H32.7399ZM43.903 111.112C41.565 111.112 39.815 109.32 39.815 107.136C39.815 104.966 41.565 103.202 43.721 103.202C45.961 103.202 47.627 104.966 47.627 107.136C47.627 107.318 47.599 107.584 47.585 107.78H41.285C41.495 108.942 42.573 109.824 43.903 109.824C44.855 109.824 45.611 109.432 46.101 108.83L47.207 109.516C46.479 110.482 45.205 111.112 43.903 111.112ZM41.271 106.66H46.213C46.143 105.47 45.149 104.476 43.735 104.476C42.377 104.476 41.355 105.47 41.271 106.66ZM50.5217 111H49.1637V103.3H50.4237L50.4937 104.658C50.9137 103.846 51.7397 103.188 52.9157 103.188C54.7077 103.188 56.0657 104.42 56.0657 107.08V111H54.6937V107.08C54.6937 105.33 53.7417 104.532 52.6077 104.532C51.4877 104.532 50.5217 105.316 50.5217 107.08V111ZM61.5261 111.112C59.1881 111.112 57.4381 109.32 57.4381 107.136C57.4381 104.966 59.1881 103.202 61.3441 103.202C63.5841 103.202 65.2501 104.966 65.2501 107.136C65.2501 107.318 65.2221 107.584 65.2081 107.78H58.9081C59.1181 108.942 60.1961 109.824 61.5261 109.824C62.4781 109.824 63.2341 109.432 63.7241 108.83L64.8301 109.516C64.1021 110.482 62.8281 111.112 61.5261 111.112ZM58.8941 106.66H63.8361C63.7661 105.47 62.7721 104.476 61.3581 104.476C60.0001 104.476 58.9781 105.47 58.8941 106.66ZM68.4388 104.532V111.014L67.0808 110.986V104.532H66.1008V103.3H67.0808V103.006C67.0808 100.682 68.2988 99.87 69.7688 99.87C70.0908 99.87 70.3988 99.94 70.6648 100.01L70.2448 101.242C70.1188 101.214 69.9228 101.186 69.7968 101.186C69.0268 101.186 68.4388 101.62 68.4388 103.006V103.3H72.3168V111.014L70.9448 111V104.532H68.4388ZM71.6168 102.516C71.1408 102.516 70.7628 102.124 70.7628 101.648C70.7628 101.172 71.1408 100.78 71.6168 100.78C72.0788 100.78 72.4708 101.172 72.4708 101.648C72.4708 102.124 72.0788 102.516 71.6168 102.516ZM77.7923 111.112C75.6083 111.112 73.8443 109.32 73.8443 107.136C73.8443 104.966 75.6083 103.202 77.7923 103.202C79.1223 103.202 80.2983 103.86 81.0263 104.868L79.8923 105.624C79.4163 104.994 78.6463 104.588 77.7923 104.588C76.3643 104.588 75.2303 105.736 75.2303 107.136C75.2303 108.564 76.3643 109.712 77.7923 109.712C78.6743 109.712 79.4583 109.278 79.9203 108.606L81.0543 109.362C80.3543 110.412 79.1503 111.112 77.7923 111.112ZM83.2638 102.516C82.7878 102.516 82.3958 102.124 82.3958 101.648C82.3958 101.172 82.7878 100.78 83.2638 100.78C83.7258 100.78 84.1178 101.172 84.1178 101.648C84.1178 102.124 83.7258 102.516 83.2638 102.516ZM83.9358 111H82.5778V103.3H83.9358V111ZM89.2311 111.098C87.1591 111.098 85.4791 109.32 85.4791 107.15C85.4791 104.966 87.1591 103.188 89.2311 103.188C90.4911 103.188 91.6251 103.944 92.1011 104.924L92.1711 103.3H93.4311V111H92.1711L92.1011 109.39C91.6251 110.356 90.4911 111.098 89.2311 111.098ZM89.4551 109.74C90.8971 109.74 92.0591 108.578 92.0591 107.15C92.0591 105.708 90.8971 104.532 89.4551 104.532C88.0271 104.532 86.8651 105.708 86.8651 107.15C86.8651 108.578 88.0271 109.74 89.4551 109.74ZM96.7874 111H95.4294V103.3H96.6894L96.7734 104.56C97.2214 103.734 98.0894 103.244 99.2234 103.258C99.4194 103.258 99.6154 103.272 99.7974 103.3L99.5174 104.616C99.4334 104.602 99.3354 104.588 99.2514 104.588C97.9494 104.588 96.7874 105.316 96.7874 107.444V111ZM101.83 102.516C101.354 102.516 100.962 102.124 100.962 101.648C100.962 101.172 101.354 100.78 101.83 100.78C102.292 100.78 102.684 101.172 102.684 101.648C102.684 102.124 102.292 102.516 101.83 102.516ZM102.502 111H101.144V103.3H102.502V111ZM108.133 111.112C105.795 111.112 104.045 109.32 104.045 107.136C104.045 104.966 105.795 103.202 107.951 103.202C110.191 103.202 111.857 104.966 111.857 107.136C111.857 107.318 111.829 107.584 111.815 107.78H105.515C105.725 108.942 106.803 109.824 108.133 109.824C109.085 109.824 109.841 109.432 110.331 108.83L111.437 109.516C110.709 110.482 109.435 111.112 108.133 111.112ZM105.501 106.66H110.443C110.373 105.47 109.379 104.476 107.965 104.476C106.607 104.476 105.585 105.47 105.501 106.66ZM116.159 111.14C115.053 111.14 113.625 110.776 112.729 109.796L113.667 108.9C114.185 109.474 115.193 109.852 116.159 109.852C117.167 109.852 117.867 109.46 117.867 108.788C117.867 107.206 112.995 108.172 112.995 105.316C112.995 104.056 114.143 103.174 115.907 103.174C116.901 103.174 118.161 103.44 119.001 104.448L118.161 105.288C117.629 104.644 116.663 104.406 115.949 104.406C115.025 104.406 114.367 104.742 114.367 105.33C114.367 106.73 119.239 105.862 119.239 108.746C119.239 110.398 117.769 111.14 116.159 111.14Z" fill="black"/>
</svg>
