<svg width="154" height="116" viewBox="0 0 154 116" fill="none" xmlns="http://www.w3.org/2000/svg">
<path d="M98.086 11.4388H55.9144C53.9715 11.4388 52.3965 13.0138 52.3965 14.9567V43.8079C52.3965 45.7508 53.9715 47.3259 55.9144 47.3259H98.086C100.029 47.3259 101.604 45.7508 101.604 43.8079V14.9567C101.604 13.0138 100.029 11.4388 98.086 11.4388Z" fill="white"/>
<path d="M98.086 48H55.9138C54.8025 47.9987 53.737 47.5567 52.9513 46.7708C52.1655 45.9849 51.7237 44.9195 51.7227 43.8082V14.9564C51.7237 13.8451 52.1655 12.7797 52.9513 11.9938C53.737 11.2079 54.8025 10.7659 55.9138 10.7646H98.086C99.1973 10.7659 100.263 11.2079 101.048 11.9938C101.834 12.7797 102.276 13.8451 102.277 14.9564V43.8082C102.276 44.9195 101.834 45.9849 101.048 46.7708C100.263 47.5567 99.1973 47.9987 98.086 48ZM55.9138 12.1125C55.1599 12.1134 54.4372 12.4133 53.9041 12.9465C53.3711 13.4797 53.0713 14.2025 53.0706 14.9564V43.8082C53.0713 44.5621 53.3711 45.2849 53.9041 45.818C54.4372 46.3512 55.1599 46.6512 55.9138 46.6521H98.086C98.84 46.6512 99.5627 46.3512 100.096 45.818C100.629 45.2849 100.929 44.5621 100.929 43.8082V14.9564C100.929 14.2025 100.629 13.4797 100.096 12.9465C99.5627 12.4133 98.84 12.1134 98.086 12.1125H55.9138Z" fill="black"/>
<path d="M98.086 7.14633H55.9144C53.9715 7.14633 52.3965 8.72137 52.3965 10.6643V39.5155C52.3965 41.4584 53.9715 43.0334 55.9144 43.0334H98.086C100.029 43.0334 101.604 41.4584 101.604 39.5155V10.6643C101.604 8.72137 100.029 7.14633 98.086 7.14633Z" fill="white"/>
<path d="M98.086 43.7076H55.9138C54.8025 43.7063 53.737 43.2643 52.9513 42.4784C52.1655 41.6925 51.7237 40.6271 51.7227 39.5158V10.6646C51.7237 9.55325 52.1655 8.48772 52.9513 7.70174C53.737 6.91577 54.8025 6.47354 55.9138 6.47214H98.086C99.1974 6.47354 100.263 6.91577 101.049 7.70174C101.834 8.48772 102.276 9.55325 102.277 10.6646V39.5157C102.276 40.627 101.834 41.6925 101.048 42.4784C100.263 43.2643 99.1973 43.7063 98.086 43.7076ZM55.9138 7.82013C55.1598 7.82118 54.437 8.12124 53.904 8.65451C53.3709 9.18778 53.0713 9.91072 53.0706 10.6647V39.5158C53.0713 40.2697 53.3711 40.9925 53.9041 41.5256C54.4372 42.0588 55.1599 42.3588 55.9138 42.3597H98.086C98.84 42.3588 99.5627 42.0588 100.096 41.5256C100.629 40.9925 100.929 40.2697 100.929 39.5158V10.6646C100.929 9.91063 100.629 9.1877 100.096 8.65443C99.5627 8.12116 98.84 7.8211 98.086 7.82005L55.9138 7.82013Z" fill="black"/>
<path d="M101.604 15.822H52.755C52.5763 15.822 52.4047 15.7511 52.2783 15.6247C52.1519 15.4983 52.0811 15.3268 52.0811 15.1481C52.0811 14.9693 52.1519 14.798 52.2783 14.6716C52.4047 14.5452 52.5763 14.4741 52.755 14.4741H101.604C101.782 14.4741 101.954 14.5452 102.08 14.6716C102.207 14.798 102.278 14.9693 102.278 15.1481C102.278 15.3268 102.207 15.4983 102.08 15.6247C101.954 15.7511 101.782 15.822 101.604 15.822Z" fill="black"/>
<path d="M63.1287 4.39297C63.1287 3.44351 62.359 2.67383 61.4096 2.67383C60.4601 2.67383 59.6904 3.44351 59.6904 4.39297V9.90006C59.6904 10.8495 60.4601 11.6192 61.4096 11.6192C62.359 11.6192 63.1287 10.8495 63.1287 9.90006V4.39297Z" fill="white"/>
<path d="M61.4097 12.293C60.7752 12.2922 60.167 12.0398 59.7184 11.5912C59.2698 11.1425 59.0174 10.5344 59.0166 9.89993V4.39319C59.0166 3.75851 59.2688 3.14977 59.7175 2.70098C60.1663 2.25219 60.775 2.00012 61.4097 2.00012C62.0443 2.00012 62.653 2.25219 63.1018 2.70098C63.5506 3.14977 63.8027 3.75851 63.8027 4.39319V9.90001C63.8019 10.5344 63.5494 11.1426 63.1008 11.5912C62.6522 12.0398 62.0441 12.2922 61.4097 12.293ZM61.4097 3.34795C61.1325 3.34817 60.8668 3.45837 60.6709 3.65432C60.4749 3.85028 60.3647 4.11598 60.3645 4.39311V9.89993C60.3645 10.1771 60.4746 10.443 60.6706 10.639C60.8666 10.835 61.1325 10.9451 61.4097 10.9451C61.6869 10.9451 61.9526 10.835 62.1486 10.639C62.3446 10.443 62.4548 10.1771 62.4548 9.89993V4.39319C62.4546 4.11606 62.3444 3.85029 62.1485 3.65432C61.9525 3.45836 61.6868 3.34817 61.4097 3.34795Z" fill="black"/>
<path d="M94.3094 4.39297C94.3094 3.44351 93.5397 2.67383 92.5902 2.67383C91.6408 2.67383 90.8711 3.44351 90.8711 4.39297V9.90006C90.8711 10.8495 91.6408 11.6192 92.5902 11.6192C93.5397 11.6192 94.3094 10.8495 94.3094 9.90006V4.39297Z" fill="white"/>
<path d="M92.5903 12.293C91.9559 12.2922 91.3476 12.0398 90.899 11.5912C90.4504 11.1426 90.1981 10.5344 90.1973 9.89993V4.39319C90.1973 3.75851 90.4494 3.14977 90.8982 2.70098C91.347 2.25219 91.9557 2.00012 92.5903 2.00012C93.225 2.00012 93.8337 2.25219 94.2825 2.70098C94.7312 3.14977 94.9834 3.75851 94.9834 4.39319V9.90001C94.9826 10.5344 94.7301 11.1426 94.2815 11.5912C93.8329 12.0398 93.2248 12.2922 92.5903 12.293ZM92.5903 3.34795C92.3132 3.34817 92.0475 3.45837 91.8515 3.65432C91.6556 3.85028 91.5454 4.11598 91.5452 4.39311V9.89993C91.5452 10.1771 91.6552 10.443 91.8512 10.639C92.0472 10.835 92.3131 10.9451 92.5903 10.9451C92.8675 10.9451 93.1333 10.835 93.3293 10.639C93.5253 10.443 93.6355 10.1771 93.6355 9.89993V4.39319C93.6353 4.11606 93.5251 3.85029 93.3291 3.65432C93.1332 3.45836 92.8675 3.34817 92.5903 3.34795Z" fill="black"/>
<path d="M78.7185 4.39297C78.7185 3.44351 77.9489 2.67383 76.9994 2.67383C76.05 2.67383 75.2803 3.44351 75.2803 4.39297V9.90006C75.2803 10.8495 76.05 11.6192 76.9994 11.6192C77.9489 11.6192 78.7185 10.8495 78.7185 9.90006V4.39297Z" fill="white"/>
<path d="M76.9995 12.293C76.3651 12.2922 75.7568 12.0398 75.3082 11.5912C74.8596 11.1426 74.6073 10.5344 74.6064 9.89993V4.39319C74.6064 3.75851 74.8586 3.14977 75.3074 2.70098C75.7562 2.25219 76.3648 2.00012 76.9995 2.00012C77.6342 2.00012 78.2429 2.25219 78.6916 2.70098C79.1404 3.14977 79.3926 3.75851 79.3926 4.39319V9.90001C79.3918 10.5344 79.1393 11.1426 78.6907 11.5912C78.242 12.0398 77.6339 12.2922 76.9995 12.293ZM76.9995 3.34795C76.7224 3.34817 76.4567 3.45837 76.2607 3.65432C76.0648 3.85028 75.9546 4.11598 75.9544 4.39311V9.89993C75.9544 10.1771 76.0644 10.443 76.2604 10.639C76.4564 10.835 76.7223 10.9451 76.9995 10.9451C77.2767 10.9451 77.5425 10.835 77.7385 10.639C77.9345 10.443 78.0447 10.1771 78.0447 9.89993V4.39319C78.0445 4.11606 77.9343 3.85029 77.7383 3.65432C77.5423 3.45836 77.2766 3.34817 76.9995 3.34795Z" fill="black"/>
<path d="M77.957 20.9194L79.7735 24.794C79.8494 24.9558 79.9649 25.0957 80.1095 25.2008C80.2541 25.3058 80.423 25.3725 80.6003 25.3946L84.8464 25.9249C85.0459 25.9498 85.2343 26.0311 85.3892 26.1591C85.5442 26.2872 85.6595 26.4566 85.7216 26.6478C85.7837 26.839 85.79 27.0439 85.7399 27.2386C85.6897 27.4333 85.5852 27.6096 85.4384 27.747L82.315 30.6719C82.1845 30.794 82.087 30.9473 82.0318 31.1173C81.9766 31.2873 81.9653 31.4684 81.9991 31.6439L82.807 35.8462C82.8449 36.0436 82.8259 36.2478 82.752 36.4347C82.6781 36.6217 82.5525 36.7837 82.3898 36.9019C82.2272 37.02 82.0343 37.0894 81.8337 37.1019C81.6331 37.1143 81.433 37.0694 81.257 36.9723L77.5101 34.9055C77.3536 34.8192 77.1777 34.7739 76.999 34.7739C76.8203 34.7739 76.6445 34.8192 76.488 34.9055L72.7411 36.9723C72.565 37.0694 72.365 37.1143 72.1643 37.1019C71.9637 37.0894 71.7708 37.02 71.6082 36.9019C71.4456 36.7837 71.3199 36.6217 71.2461 36.4347C71.1722 36.2478 71.1531 36.0436 71.1911 35.8462L71.9988 31.6439C72.0326 31.4684 72.0213 31.2873 71.9661 31.1173C71.9108 30.9473 71.8135 30.794 71.6831 30.6719L68.5594 27.747C68.4127 27.6096 68.3081 27.4333 68.258 27.2386C68.2079 27.0439 68.2143 26.839 68.2764 26.6478C68.3386 26.4566 68.4538 26.2871 68.6088 26.1591C68.7638 26.031 68.952 25.9498 69.1515 25.9249L73.3977 25.3946C73.5751 25.3725 73.744 25.3058 73.8886 25.2008C74.0331 25.0957 74.1487 24.9558 74.2246 24.794L76.0411 20.9194C76.1264 20.7374 76.2619 20.5834 76.4315 20.4756C76.6012 20.3678 76.798 20.3105 76.999 20.3105C77.2 20.3105 77.3969 20.3678 77.5665 20.4756C77.7362 20.5834 77.8716 20.7374 77.957 20.9194Z" fill="#FFC47A"/>
<path d="M72.2292 37.7808C71.9742 37.7797 71.7225 37.7225 71.4921 37.6132C71.2616 37.5039 71.0581 37.3451 70.8959 37.1483C70.7337 36.9515 70.6168 36.7214 70.5535 36.4744C70.4902 36.2273 70.4822 35.9694 70.5298 35.7188L71.3367 31.5171C71.3496 31.4537 71.346 31.3879 71.3262 31.3263C71.3064 31.2646 71.271 31.2091 71.2235 31.165L68.0999 28.2388C67.8595 28.0141 67.6881 27.7255 67.6058 27.4069C67.5235 27.0883 67.5337 26.7529 67.6352 26.4398C67.7368 26.1268 67.9254 25.8493 68.179 25.6396C68.4327 25.4299 68.7409 25.2969 69.0674 25.2561L73.3152 24.7262C73.3794 24.7183 73.4404 24.6942 73.4927 24.6561C73.545 24.6179 73.5868 24.5671 73.614 24.5084L75.4305 20.6331C75.5704 20.3352 75.7922 20.0833 76.07 19.9069C76.3479 19.7304 76.6704 19.6367 76.9995 19.6367C77.3287 19.6367 77.651 19.7304 77.9289 19.9069C78.2067 20.0833 78.4286 20.3352 78.5686 20.6331L80.3851 24.5077C80.4123 24.5668 80.4542 24.6179 80.5067 24.6561C80.5592 24.6944 80.6207 24.7185 80.6852 24.7262L84.9304 25.2561C85.2571 25.2967 85.5653 25.4296 85.8192 25.6393C86.0731 25.8489 86.262 26.1265 86.3637 26.4397C86.4653 26.7528 86.4756 27.0884 86.3933 27.4072C86.311 27.7259 86.1397 28.0147 85.8992 28.2395L82.7769 31.1637C82.7293 31.2075 82.6936 31.2627 82.6734 31.3241C82.6531 31.3855 82.6489 31.451 82.661 31.5145L83.4692 35.7195C83.5313 36.0425 83.5 36.3765 83.3791 36.6824C83.2582 36.9884 83.0525 37.2535 82.7864 37.4468C82.5203 37.6402 82.2046 37.7537 81.8763 37.7742C81.548 37.7946 81.2208 37.7211 80.9327 37.5623L77.1851 35.4957C77.1282 35.4646 77.0644 35.4483 76.9995 35.4483C76.9347 35.4483 76.8709 35.4646 76.8139 35.4957L73.0664 37.563C72.8102 37.7051 72.5222 37.7801 72.2292 37.7808ZM76.9995 20.9846C76.9263 20.9833 76.8542 21.0035 76.7924 21.0428C76.7306 21.0822 76.6818 21.1388 76.652 21.2057L74.8355 25.0803C74.7118 25.3455 74.5227 25.5749 74.2859 25.7469C74.0492 25.9189 73.7727 26.0279 73.4823 26.0636L69.2346 26.5934C69.1622 26.6025 69.0938 26.632 69.0376 26.6786C68.9814 26.7251 68.9396 26.7868 68.9172 26.8563C68.8948 26.9257 68.8928 27.0001 68.9112 27.0708C68.9297 27.1414 68.9678 27.2052 69.0213 27.2549L72.1436 30.1804C72.3588 30.3797 72.5191 30.6308 72.6094 30.9098C72.6998 31.1888 72.7171 31.4863 72.6596 31.7738L71.854 35.9735C71.8403 36.0451 71.8472 36.1191 71.874 36.1869C71.9007 36.2547 71.9463 36.3136 72.0053 36.3565C72.0642 36.3994 72.1341 36.4247 72.2068 36.4294C72.2796 36.4341 72.3522 36.4179 72.4161 36.3829L76.1637 34.315C76.4194 34.1732 76.7071 34.0988 76.9995 34.0988C77.292 34.0988 77.5796 34.1732 77.8354 34.315L81.583 36.3822C81.6468 36.4174 81.7192 36.4337 81.7919 36.4291C81.8646 36.4246 81.9345 36.3995 81.9935 36.3567C82.0524 36.3139 82.098 36.2552 82.1248 36.1874C82.1516 36.1197 82.1587 36.0457 82.145 35.9742L81.3381 31.7712C81.2814 31.4836 81.2993 31.1863 81.3901 30.9076C81.4809 30.6289 81.6415 30.3781 81.8567 30.1791L84.9777 27.2555C85.0313 27.2057 85.0696 27.1417 85.088 27.0709C85.1064 27.0001 85.1043 26.9255 85.0817 26.856C85.0592 26.7864 85.0172 26.7247 84.9608 26.6782C84.9044 26.6316 84.8358 26.6022 84.7632 26.5934L80.5181 26.0635C80.2273 26.028 79.9504 25.919 79.7135 25.7469C79.4765 25.5747 79.2872 25.3451 79.1636 25.0796L77.347 21.2057C77.3172 21.1388 77.2683 21.0822 77.2065 21.0428C77.1447 21.0035 77.0728 20.9833 76.9995 20.9846Z" fill="black"/>
<path d="M76.9841 91.4C71.0641 91.4 66.3041 87 66.3041 80.96C66.3041 78.68 66.9841 76.56 68.2241 74.92L77.2641 61.76H85.1441L78.5041 71.04C83.4641 71.32 87.7441 75.44 87.7441 80.96C87.7441 87 82.9041 91.4 76.9841 91.4ZM76.9841 84.92C79.3441 84.92 81.1841 83.16 81.1841 80.96C81.1841 78.76 79.3441 77.04 76.9841 77.04C74.7041 77.04 72.8641 78.76 72.8641 80.96C72.8641 83.16 74.7041 84.92 76.9841 84.92Z" fill="#F36D20"/>
<path d="M61.4423 111H54.9883V100.78H61.3023V102.11H56.4163V105.092H61.0223V106.422H56.4163V109.6H61.4423V111ZM66.6758 111H65.3178L62.2938 103.3H63.7638L66.0038 108.956L68.2298 103.3H69.6998L66.6758 111ZM74.1013 111.112C71.7633 111.112 70.0133 109.32 70.0133 107.136C70.0133 104.966 71.7633 103.202 73.9193 103.202C76.1593 103.202 77.8253 104.966 77.8253 107.136C77.8253 107.318 77.7973 107.584 77.7833 107.78H71.4833C71.6933 108.942 72.7713 109.824 74.1013 109.824C75.0533 109.824 75.8093 109.432 76.2993 108.83L77.4053 109.516C76.6773 110.482 75.4033 111.112 74.1013 111.112ZM71.4693 106.66H76.4113C76.3413 105.47 75.3473 104.476 73.9333 104.476C72.5753 104.476 71.5533 105.47 71.4693 106.66ZM80.72 111H79.362V103.3H80.622L80.692 104.658C81.112 103.846 81.938 103.188 83.114 103.188C84.906 103.188 86.264 104.42 86.264 107.08V111H84.892V107.08C84.892 105.33 83.94 104.532 82.806 104.532C81.686 104.532 80.72 105.316 80.72 107.08V111ZM90.8606 111.126C89.4466 111.126 88.2706 110.272 88.2706 108.13V104.532H87.2346V103.3H88.3126L88.4806 100.78H89.6286V103.3H91.4766V104.532H89.6286V108.116C89.6286 109.222 90.1746 109.796 91.0426 109.796C91.2386 109.796 91.4486 109.768 91.6306 109.698L91.9806 110.916C91.6586 111.056 91.2666 111.126 90.8606 111.126ZM96.4683 111.14C95.3623 111.14 93.9343 110.776 93.0383 109.796L93.9763 108.9C94.4943 109.474 95.5023 109.852 96.4683 109.852C97.4763 109.852 98.1763 109.46 98.1763 108.788C98.1763 107.206 93.3043 108.172 93.3043 105.316C93.3043 104.056 94.4523 103.174 96.2163 103.174C97.2103 103.174 98.4703 103.44 99.3103 104.448L98.4703 105.288C97.9383 104.644 96.9723 104.406 96.2583 104.406C95.3343 104.406 94.6763 104.742 94.6763 105.33C94.6763 106.73 99.5483 105.862 99.5483 108.746C99.5483 110.398 98.0783 111.14 96.4683 111.14Z" fill="black"/>
</svg>
