<svg width="80" height="15" viewBox="0 0 80 15" fill="none" xmlns="http://www.w3.org/2000/svg">
<path d="M2.934 11H2.584C1.058 11 0.148 9.894 0.148 8.242V0.0799996H1.478V8.242C1.478 9.11 1.828 9.656 2.584 9.656H2.934V11ZM13.3708 11H2.66078V9.656H4.25678C3.86478 9.334 3.62678 8.83 3.62678 8.256C3.62678 7.08 4.49478 6.03 5.65678 5.848C6.13278 4.63 7.30878 3.734 8.72278 3.734C10.6408 3.734 12.0128 5.246 12.0128 7.29V9.656H13.3708V11ZM7.86878 9.656H10.6688V7.29C10.6688 5.974 9.87078 5.078 8.72278 5.078C7.92478 5.078 7.25278 5.554 6.95878 6.226C7.82678 6.436 8.52678 7.29 8.52678 8.256C8.52678 8.83 8.27478 9.334 7.86878 9.656ZM6.07678 9.656C6.83278 9.656 7.47678 9.04 7.47678 8.256C7.47678 7.514 6.83278 6.856 6.07678 6.856C5.29278 6.856 4.67678 7.514 4.67678 8.256C4.67678 9.04 5.29278 9.656 6.07678 9.656ZM14.0164 11H13.0924V9.656H14.0164C14.7724 9.656 15.1084 9.11 15.1084 8.242V4H16.4524V8.242C16.4524 9.11 16.7884 9.656 17.5584 9.656H18.4824V11H17.5584C16.7184 11 16.1444 10.65 15.7804 10.048C15.4164 10.65 14.8424 11 14.0164 11ZM14.5904 13.702C14.1424 13.702 13.7924 13.352 13.7924 12.904C13.7924 12.456 14.1424 12.092 14.5904 12.092C15.0384 12.092 15.4024 12.456 15.4024 12.904C15.4024 13.352 15.0384 13.702 14.5904 13.702ZM16.9564 13.702C16.5084 13.702 16.1444 13.352 16.1444 12.904C16.1444 12.456 16.5084 12.092 16.9564 12.092C17.4044 12.092 17.7684 12.456 17.7684 12.904C17.7684 13.352 17.4044 13.702 16.9564 13.702ZM22.6717 11H18.2057V9.656H20.3057C19.6337 9.208 19.1717 8.41 19.1717 7.5C19.1717 5.568 20.7397 4 22.6717 4C24.6037 4 26.1717 5.568 26.1717 7.5V8.564C26.1717 9.208 26.5357 9.656 27.1797 9.656H27.5577V11H27.1797C26.1997 11 25.5697 10.482 25.3737 9.628C24.7717 10.454 23.7777 11 22.6717 11ZM22.6717 9.656C23.8617 9.656 24.8277 8.69 24.8277 7.5C24.8277 6.31 23.8617 5.33 22.6717 5.33C21.4817 5.33 20.5157 6.31 20.5157 7.5C20.5157 8.69 21.4817 9.656 22.6717 9.656ZM37.2238 11H27.2838V9.656H34.6898V8.69C34.6618 6.632 33.3318 5.33 31.3158 5.33H28.4738V4H31.3858C34.0318 4 36.0058 5.89 36.0198 8.62L36.0338 9.656H37.2098L37.2238 11ZM39.0498 3.23C38.5878 3.23 38.2238 2.852 38.2238 2.39C38.2238 1.928 38.5878 1.55 39.0498 1.55C39.5118 1.55 39.8898 1.928 39.8898 2.39C39.8898 2.852 39.5118 3.23 39.0498 3.23ZM37.3278 11H36.9498V9.656H37.3278C38.0978 9.656 38.4338 9.11 38.4338 8.242V4H39.7778V8.242C39.7778 9.894 38.8538 11 37.3278 11ZM47.7383 3.23C47.2903 3.23 46.9263 2.866 46.9263 2.418C46.9263 1.97 47.2903 1.606 47.7383 1.606C48.1723 1.606 48.5503 1.97 48.5503 2.418C48.5503 2.866 48.1723 3.23 47.7383 3.23ZM50.1463 3.23C49.6983 3.23 49.3483 2.866 49.3483 2.418C49.3483 1.97 49.6983 1.606 50.1463 1.606C50.5943 1.606 50.9583 1.97 50.9583 2.418C50.9583 2.866 50.5943 3.23 50.1463 3.23ZM48.5083 11C46.5763 11 45.0083 9.432 45.0083 7.5C45.0083 5.568 46.5763 4 48.5083 4H52.0083V7.5C52.0083 9.432 50.4403 11 48.5083 11ZM48.5083 9.656C49.7123 9.656 50.6643 8.69 50.6643 7.5V5.33H48.5083C47.3183 5.33 46.3523 6.296 46.3523 7.5C46.3523 8.69 47.3183 9.656 48.5083 9.656ZM52.7315 14.192C52.4235 14.192 52.0035 14.122 51.7375 14.024L52.1155 12.778C52.2835 12.834 52.4935 12.876 52.6895 12.876C53.7675 12.876 54.1315 12.232 54.1315 10.972V4L55.4755 3.986V10.986C55.4755 13.1 54.4815 14.192 52.7315 14.192ZM62.9615 11H56.9275V9.656H61.6175V7.752C61.6175 6.296 60.7355 5.33 59.4615 5.33C58.9435 5.33 58.5095 5.484 58.1315 5.722L57.5715 4.546C58.1035 4.196 58.7615 4 59.4615 4C61.4775 4 62.9615 5.568 62.9615 7.752V11ZM67.4789 11H67.1289C65.6029 11 64.6929 9.894 64.6929 8.242V0.0799996H66.0229V8.242C66.0229 9.11 66.3729 9.656 67.1289 9.656H67.4789V11ZM67.5837 11H67.2057V9.656H67.5837C68.3537 9.656 68.6897 9.11 68.6897 8.242V4H70.0337V8.242C70.0337 9.11 70.3697 9.656 71.1257 9.656H71.5037V11H71.1257C70.2997 11 69.7257 10.65 69.3617 10.048C68.9977 10.65 68.4237 11 67.5837 11ZM69.3337 13.758C68.8717 13.758 68.5077 13.394 68.5077 12.932C68.5077 12.47 68.8717 12.092 69.3337 12.092C69.7957 12.092 70.1737 12.47 70.1737 12.932C70.1737 13.394 69.7957 13.758 69.3337 13.758ZM75.6912 11H71.2252V9.656H73.3252C72.6532 9.208 72.1912 8.41 72.1912 7.5C72.1912 5.568 73.7592 4 75.6912 4C77.6232 4 79.1912 5.568 79.1912 7.5C79.1912 9.446 77.6232 11 75.6912 11ZM75.6912 9.656C76.8812 9.656 77.8472 8.69 77.8472 7.5C77.8472 6.31 76.8812 5.33 75.6912 5.33C74.5012 5.33 73.5352 6.31 73.5352 7.5C73.5352 8.69 74.5012 9.656 75.6912 9.656Z" fill="black"/>
</svg>
