<svg width="162" height="136" viewBox="0 0 162 136" fill="none" xmlns="http://www.w3.org/2000/svg">
<path d="M89.4812 44.6007L84.6572 47.3048L79.8374 44.6007L75.0135 47.3048L70.1895 44.6007L65.3627 47.3048L60.529 44.6007L55.6953 47.3048V2.69556H89.4812V44.6007Z" fill="white"/>
<path d="M55.6955 48C55.5111 47.9999 55.3342 47.9266 55.2038 47.7962C55.0734 47.6658 55.0001 47.4889 55 47.3045V2.6955C54.9999 2.60415 55.0179 2.51366 55.0528 2.42925C55.0877 2.34485 55.139 2.26818 55.2036 2.20359C55.2682 2.139 55.3448 2.08774 55.4293 2.05281C55.5137 2.01787 55.6041 1.99995 55.6955 2H89.4815C89.5728 1.99995 89.6632 2.01787 89.7477 2.05281C89.8321 2.08774 89.9088 2.139 89.9734 2.20359C90.038 2.26818 90.0892 2.34485 90.1241 2.42925C90.159 2.51366 90.177 2.60415 90.177 2.6955V44.6C90.1771 44.7237 90.1441 44.845 90.0815 44.9516C90.0189 45.0582 89.9291 45.1462 89.8211 45.2065L84.9961 47.911C84.8921 47.9692 84.7749 47.9997 84.6558 47.9997C84.5367 47.9997 84.4194 47.9692 84.3154 47.911L79.8382 45.3973L75.3542 47.911C75.2504 47.9691 75.1335 47.9997 75.0146 47.9997C74.8957 47.9997 74.7787 47.9691 74.675 47.911L70.1896 45.3973L65.7028 47.911C65.5991 47.9692 65.4822 47.9999 65.3633 48C65.2444 48.0001 65.1274 47.9697 65.0236 47.9117L60.53 45.3966L56.0351 47.9117C55.9313 47.9697 55.8144 48.0001 55.6955 48ZM60.53 43.9044C60.6489 43.9044 60.7658 43.9348 60.8696 43.9927L65.3631 46.5071L69.85 43.9934C69.9537 43.9353 70.0707 43.9048 70.1896 43.9048C70.3085 43.9048 70.4254 43.9353 70.5292 43.9934L75.0146 46.5071L79.4987 43.9934C79.6026 43.9353 79.7198 43.9048 79.8389 43.9048C79.9581 43.9048 80.0752 43.9353 80.1792 43.9934L84.6565 46.5071L88.786 44.1924V3.391H56.391V46.1186L60.1903 43.9927C60.2941 43.9348 60.4111 43.9044 60.53 43.9044Z" fill="black"/>
<path d="M72.1891 29.6067H61.5705C61.386 29.6067 61.2091 29.5335 61.0787 29.403C60.9482 29.2726 60.875 29.0957 60.875 28.9112C60.875 28.7267 60.9482 28.5498 61.0787 28.4194C61.2091 28.2889 61.386 28.2157 61.5705 28.2157H72.1891C72.3735 28.2157 72.5504 28.2889 72.6808 28.4194C72.8112 28.5498 72.8846 28.7267 72.8846 28.9112C72.8846 29.0957 72.8112 29.2726 72.6808 29.403C72.5504 29.5335 72.3735 29.6067 72.1891 29.6067Z" fill="black"/>
<path d="M83.6061 29.6067H78.4279C78.2435 29.6067 78.0665 29.5335 77.9361 29.403C77.8057 29.2726 77.7324 29.0957 77.7324 28.9112C77.7324 28.7267 77.8057 28.5498 77.9361 28.4194C78.0665 28.2889 78.2435 28.2157 78.4279 28.2157H83.6061C83.7906 28.2157 83.9674 28.2889 84.0979 28.4194C84.2283 28.5498 84.3016 28.7267 84.3016 28.9112C84.3016 29.0957 84.2283 29.2726 84.0979 29.403C83.9674 29.5335 83.7906 29.6067 83.6061 29.6067Z" fill="black"/>
<path d="M72.1891 34.2109H61.5705C61.386 34.2109 61.2091 34.1377 61.0787 34.0073C60.9482 33.8768 60.875 33.6999 60.875 33.5154C60.875 33.331 60.9482 33.1541 61.0787 33.0236C61.2091 32.8932 61.386 32.8199 61.5705 32.8199H72.1891C72.3735 32.8199 72.5504 32.8932 72.6808 33.0236C72.8112 33.1541 72.8846 33.331 72.8846 33.5154C72.8846 33.6999 72.8112 33.8768 72.6808 34.0073C72.5504 34.1377 72.3735 34.2109 72.1891 34.2109Z" fill="black"/>
<path d="M83.6061 34.2109H78.4279C78.2435 34.2109 78.0665 34.1377 77.9361 34.0073C77.8057 33.8768 77.7324 33.6999 77.7324 33.5154C77.7324 33.331 77.8057 33.1541 77.9361 33.0236C78.0665 32.8932 78.2435 32.8199 78.4279 32.8199H83.6061C83.7906 32.8199 83.9674 32.8932 84.0979 33.0236C84.2283 33.1541 84.3016 33.331 84.3016 33.5154C84.3016 33.6999 84.2283 33.8768 84.0979 34.0073C83.9674 34.1377 83.7906 34.2109 83.6061 34.2109Z" fill="black"/>
<path d="M72.1891 38.8153H61.5705C61.386 38.8153 61.2091 38.7421 61.0787 38.6116C60.9482 38.4812 60.875 38.3043 60.875 38.1198C60.875 37.9354 60.9482 37.7584 61.0787 37.628C61.2091 37.4976 61.386 37.4243 61.5705 37.4243H72.1891C72.3735 37.4243 72.5504 37.4976 72.6808 37.628C72.8112 37.7584 72.8846 37.9354 72.8846 38.1198C72.8846 38.3043 72.8112 38.4812 72.6808 38.6116C72.5504 38.7421 72.3735 38.8153 72.1891 38.8153Z" fill="black"/>
<path d="M83.6061 38.8153H78.4279C78.2435 38.8153 78.0665 38.7421 77.9361 38.6116C77.8057 38.4812 77.7324 38.3043 77.7324 38.1198C77.7324 37.9354 77.8057 37.7584 77.9361 37.628C78.0665 37.4976 78.2435 37.4243 78.4279 37.4243H83.6061C83.7906 37.4243 83.9674 37.4976 84.0979 37.628C84.2283 37.7584 84.3016 37.9354 84.3016 38.1198C84.3016 38.3043 84.2283 38.4812 84.0979 38.6116C83.9674 38.7421 83.7906 38.8153 83.6061 38.8153Z" fill="black"/>
<path d="M94.9754 26.7215C100.891 26.7215 105.686 21.9261 105.686 16.0107C105.686 10.0953 100.891 5.29993 94.9754 5.29993C89.06 5.29993 84.2646 10.0953 84.2646 16.0107C84.2646 21.9261 89.06 26.7215 94.9754 26.7215Z" fill="#FFA18C"/>
<path d="M94.9762 27.4169C92.7203 27.4168 90.5151 26.7478 88.6394 25.4945C86.7637 24.2411 85.3018 22.4597 84.4385 20.3755C83.5752 18.2913 83.3494 15.9979 83.7895 13.7854C84.2296 11.5728 85.3159 9.54044 86.9111 7.94528C88.5063 6.35011 90.5386 5.2638 92.7512 4.82369C94.9637 4.38357 97.2571 4.60939 99.3413 5.47266C101.425 6.33593 103.207 7.79789 104.46 9.67358C105.714 11.5493 106.383 13.7545 106.383 16.0104C106.379 19.0345 105.176 21.9338 103.038 24.0721C100.9 26.2105 98.0003 27.4134 94.9762 27.4169ZM94.9762 5.99564C92.9954 5.99569 91.059 6.58317 89.4121 7.6837C87.7651 8.78423 86.4815 10.3484 85.7235 12.1785C84.9655 14.0085 84.7673 16.0222 85.1538 17.965C85.5403 19.9077 86.4942 21.6922 87.8949 23.0928C89.2956 24.4934 91.0802 25.4473 93.0229 25.8336C94.9657 26.22 96.9794 26.0215 98.8094 25.2635C100.639 24.5054 102.204 23.2217 103.304 21.5746C104.404 19.9276 104.992 17.9912 104.992 16.0104C104.988 13.3552 103.932 10.8097 102.055 8.93224C100.177 7.05478 97.6314 5.99872 94.9762 5.99564Z" fill="black"/>
<path d="M93.7766 20.6128C93.6786 20.6126 93.5818 20.5918 93.4924 20.5518C93.403 20.5118 93.323 20.4534 93.2577 20.3805L89.8848 16.6076L90.9226 15.6811L93.7249 18.8163L98.9887 11.6915L100.108 12.5174L94.3362 20.3302C94.2748 20.4134 94.1957 20.4819 94.1045 20.5307C94.0134 20.5794 93.9124 20.6072 93.8092 20.6121L93.7766 20.6128Z" fill="black"/>
<path d="M65.1701 20.9958C65.0788 20.9959 64.9883 20.9779 64.9039 20.943C64.8195 20.9081 64.7428 20.8568 64.6782 20.7922C64.6136 20.7276 64.5624 20.651 64.5274 20.5666C64.4925 20.4822 64.4746 20.3917 64.4746 20.3003V9.50788C64.4746 9.32342 64.5479 9.14648 64.6783 9.01605C64.8087 8.88562 64.9857 8.81238 65.1701 8.81238C65.3546 8.81238 65.5314 8.88562 65.6618 9.01605C65.7923 9.14648 65.8656 9.32342 65.8656 9.50788V20.3003C65.8657 20.3917 65.8476 20.4822 65.8127 20.5666C65.7778 20.651 65.7266 20.7276 65.662 20.7922C65.5974 20.8568 65.5207 20.9081 65.4363 20.943C65.3519 20.9779 65.2615 20.9959 65.1701 20.9958Z" fill="black"/>
<path d="M67.7076 15.5996H65.1701C64.9856 15.5996 64.8087 15.5264 64.6783 15.3959C64.5479 15.2655 64.4746 15.0886 64.4746 14.9041C64.4746 14.7197 64.5479 14.5427 64.6783 14.4123C64.8087 14.2819 64.9856 14.2086 65.1701 14.2086H67.7076C67.892 14.2086 68.0689 14.2819 68.1993 14.4123C68.3298 14.5427 68.4031 14.7197 68.4031 14.9041C68.4031 15.0886 68.3298 15.2655 68.1993 15.3959C68.0689 15.5264 67.892 15.5996 67.7076 15.5996Z" fill="black"/>
<path d="M67.7076 15.5996H65.1701C64.9856 15.5996 64.8087 15.5264 64.6783 15.3959C64.5479 15.2655 64.4746 15.0886 64.4746 14.9041C64.4746 14.7197 64.5479 14.5427 64.6783 14.4123C64.8087 14.2819 64.9856 14.2086 65.1701 14.2086H67.7076C67.892 14.2086 68.0689 14.2819 68.1993 14.4123C68.3298 14.5427 68.4031 14.7197 68.4031 14.9041C68.4031 15.0886 68.3298 15.2655 68.1993 15.3959C68.0689 15.5264 67.892 15.5996 67.7076 15.5996Z" fill="black"/>
<path d="M67.708 15.5996C67.5836 15.5995 67.4615 15.5661 67.3545 15.5029C67.2474 15.4396 67.1593 15.3488 67.0992 15.24C67.0392 15.1311 67.0094 15.0081 67.013 14.8838C67.0166 14.7595 67.0535 14.6385 67.1198 14.5332L70.5199 9.13702C70.6185 8.98164 70.7746 8.8717 70.9542 8.8313C71.1338 8.7909 71.322 8.82331 71.4777 8.92146C71.6334 9.01962 71.7438 9.17553 71.7848 9.35496C71.8257 9.53439 71.7939 9.72272 71.6962 9.87871L68.2962 15.2749C68.2337 15.3745 68.1469 15.4565 68.044 15.5133C67.9411 15.5701 67.8255 15.5998 67.708 15.5996Z" fill="black"/>
<path d="M71.1081 20.9958C70.9906 20.9961 70.8749 20.9664 70.772 20.9096C70.6691 20.8528 70.5824 20.7707 70.5199 20.6712L67.1199 15.275C67.0215 15.119 66.9891 14.9303 67.0299 14.7504C67.0706 14.5706 67.1811 14.4143 67.3371 14.3159C67.4931 14.2176 67.6819 14.1852 67.8617 14.2259C68.0416 14.2667 68.1979 14.3773 68.2962 14.5333L71.6963 19.9295C71.7626 20.0347 71.7994 20.1557 71.803 20.28C71.8066 20.4043 71.7768 20.5273 71.7168 20.6362C71.6567 20.7451 71.5686 20.8359 71.4616 20.8991C71.3545 20.9624 71.2325 20.9958 71.1081 20.9958Z" fill="black"/>
<path d="M74.0684 9.27905H77.2242C77.9621 9.27905 78.6697 9.57215 79.1914 10.0939C79.7131 10.6156 80.0062 11.3232 80.0062 12.061V17.5186C80.0062 18.2565 79.7131 18.9641 79.1914 19.4858C78.6697 20.0075 77.9621 20.3006 77.2242 20.3006H74.0684V9.27905Z" fill="white"/>
<path d="M77.2241 20.9958H74.0685C73.9772 20.9959 73.8867 20.978 73.8023 20.943C73.7179 20.9081 73.6412 20.8568 73.5766 20.7922C73.512 20.7276 73.4608 20.651 73.4259 20.5666C73.3909 20.4822 73.373 20.3917 73.373 20.3003V9.27899C73.373 9.18765 73.3909 9.09715 73.4259 9.01275C73.4608 8.92834 73.512 8.85168 73.5766 8.78709C73.6412 8.72249 73.7179 8.67124 73.8023 8.6363C73.8867 8.60137 73.9772 8.58345 74.0685 8.5835H77.2241C78.1461 8.58446 79.03 8.95111 79.6819 9.60306C80.3339 10.255 80.7006 11.139 80.7016 12.061V17.5183C80.7006 18.4403 80.3339 19.3242 79.6819 19.9762C79.03 20.6281 78.1461 20.9949 77.2241 20.9958ZM74.764 19.6048H77.2241C77.7773 19.6042 78.3076 19.3842 78.6988 18.993C79.09 18.6019 79.31 18.0715 79.3106 17.5183V12.061C79.31 11.5078 79.09 10.9774 78.6988 10.5863C78.3076 10.1951 77.7773 9.9751 77.2241 9.97449H74.764V19.6048Z" fill="black"/>
<path d="M48.437 91H41.957V67.84H37.957V61.8H48.437V91ZM62.0752 91H54.8352L65.5152 67.84H52.0352V61.8H73.2752V65.72L62.0752 91ZM85.8573 91.52C79.1373 91.52 74.2973 85.92 74.2973 76.4C74.2973 66.92 79.1373 61.36 85.8573 61.36C92.5773 61.36 97.4173 66.92 97.4173 76.4C97.4173 85.92 92.5773 91.52 85.8573 91.52ZM85.8573 85C88.5773 85 90.8173 82.6 90.8173 76.36C90.8173 70.28 88.5773 67.88 85.8573 67.88C83.0973 67.88 80.8973 70.28 80.8973 76.36C80.8973 82.6 83.0973 85 85.8573 85ZM108.35 91H101.43V61.8H108.35V72.72L116.31 61.8H124.03L115.03 74.08L124.71 91H116.71L110.75 80.52L108.35 83.4V91Z" fill="#EA5C3C"/>
<path d="M44.9191 111H43.4771V100.78H44.9191V105.708L49.2451 100.78H50.9111L47.3271 104.994L51.2611 111H49.5671L46.4171 106.296L44.9191 107.92V111ZM55.8006 111H52.6646V100.78H55.8006C58.9786 100.78 61.1766 103.034 61.1766 105.876C61.1766 108.746 59.0626 111 55.8006 111ZM54.1066 102.194V109.572H55.8006C58.2366 109.572 59.6786 107.906 59.6786 105.862C59.6786 103.888 58.1526 102.194 55.8006 102.194H54.1066ZM67.5003 111H65.9043L69.6423 100.78H71.2103L74.9483 111H73.3803L72.4003 108.34H68.4663L67.5003 111ZM70.4263 102.726L68.8863 106.982H71.9803L70.4263 102.726ZM77.5213 111H76.1633V103.3H77.4233L77.4933 104.574C77.8853 103.678 78.7533 103.188 79.5933 103.188C80.8253 103.188 81.6233 103.902 81.9453 104.826C82.2673 103.916 83.0653 103.188 84.1853 103.188C85.8233 103.188 87.0413 104.238 87.0413 106.912V111H85.6693V106.912C85.6693 105.148 84.8853 104.532 83.9753 104.532C83.1213 104.532 82.2813 105.148 82.2813 106.912V111H80.9093V106.912C80.9093 105.148 80.1253 104.532 79.2153 104.532C78.3053 104.532 77.5213 105.316 77.5213 107.08V111ZM92.3778 111.112C90.1938 111.112 88.4298 109.32 88.4298 107.136C88.4298 104.966 90.1938 103.202 92.3778 103.202C94.5478 103.202 96.3258 104.966 96.3258 107.136C96.3258 109.32 94.5478 111.112 92.3778 111.112ZM92.3778 109.712C93.7918 109.712 94.9398 108.564 94.9398 107.136C94.9398 105.736 93.7918 104.588 92.3778 104.588C90.9498 104.588 89.8158 105.736 89.8158 107.136C89.8158 108.564 90.9498 109.712 92.3778 109.712ZM100.856 111.112C99.0642 111.112 97.7062 109.866 97.7062 107.206V103.3H99.0782V107.206C99.0782 108.97 100.03 109.754 101.164 109.754C102.284 109.754 103.25 108.97 103.25 107.206V103.3H104.608V111H103.348L103.278 109.628C102.858 110.44 102.018 111.112 100.856 111.112ZM107.969 111H106.611V103.3H107.871L107.941 104.658C108.361 103.846 109.187 103.188 110.363 103.188C112.155 103.188 113.513 104.42 113.513 107.08V111H112.141V107.08C112.141 105.33 111.189 104.532 110.055 104.532C108.935 104.532 107.969 105.316 107.969 107.08V111ZM118.109 111.126C116.695 111.126 115.519 110.272 115.519 108.13V104.532H114.483V103.3H115.561L115.729 100.78H116.877V103.3H118.725V104.532H116.877V108.116C116.877 109.222 117.423 109.796 118.291 109.796C118.487 109.796 118.697 109.768 118.879 109.698L119.229 110.916C118.907 111.056 118.515 111.126 118.109 111.126ZM48.8451 131H47.2491L50.9871 120.78H52.5551L56.2931 131H54.7251L53.7451 128.34H49.8111L48.8451 131ZM51.7711 122.726L50.2311 126.982H53.3251L51.7711 122.726ZM58.866 134.08H57.508V123.3H58.768L58.838 124.896C59.3 123.944 60.434 123.202 61.694 123.202C63.766 123.202 65.446 124.966 65.446 127.136C65.446 129.32 63.766 131.112 61.694 131.112C60.448 131.112 59.328 130.37 58.866 129.418V134.08ZM61.484 129.754C62.912 129.754 64.074 128.578 64.074 127.136C64.074 125.708 62.912 124.546 61.484 124.546C60.028 124.546 58.866 125.708 58.866 127.136C58.866 128.578 60.028 129.754 61.484 129.754ZM68.2586 134.08H66.9006V123.3H68.1606L68.2306 124.896C68.6926 123.944 69.8266 123.202 71.0866 123.202C73.1586 123.202 74.8386 124.966 74.8386 127.136C74.8386 129.32 73.1586 131.112 71.0866 131.112C69.8406 131.112 68.7206 130.37 68.2586 129.418V134.08ZM70.8766 129.754C72.3046 129.754 73.4666 128.578 73.4666 127.136C73.4666 125.708 72.3046 124.546 70.8766 124.546C69.4206 124.546 68.2586 125.708 68.2586 127.136C68.2586 128.578 69.4206 129.754 70.8766 129.754ZM77.7469 131H76.3889V123.3H77.6489L77.7329 124.56C78.1809 123.734 79.0489 123.244 80.1829 123.258C80.3789 123.258 80.5749 123.272 80.7569 123.3L80.4769 124.616C80.3929 124.602 80.2949 124.588 80.2109 124.588C78.9089 124.588 77.7469 125.316 77.7469 127.444V131ZM85.1385 131.112C82.9545 131.112 81.1905 129.32 81.1905 127.136C81.1905 124.966 82.9545 123.202 85.1385 123.202C87.3085 123.202 89.0865 124.966 89.0865 127.136C89.0865 129.32 87.3085 131.112 85.1385 131.112ZM85.1385 129.712C86.5525 129.712 87.7005 128.564 87.7005 127.136C87.7005 125.736 86.5525 124.588 85.1385 124.588C83.7105 124.588 82.5765 125.736 82.5765 127.136C82.5765 128.564 83.7105 129.712 85.1385 129.712ZM93.7945 131H92.4365L89.4125 123.3H90.8825L93.1225 128.956L95.3485 123.3H96.8185L93.7945 131ZM101.22 131.112C98.8819 131.112 97.1319 129.32 97.1319 127.136C97.1319 124.966 98.8819 123.202 101.038 123.202C103.278 123.202 104.944 124.966 104.944 127.136C104.944 127.318 104.916 127.584 104.902 127.78H98.6019C98.8119 128.942 99.8899 129.824 101.22 129.824C102.172 129.824 102.928 129.432 103.418 128.83L104.524 129.516C103.796 130.482 102.522 131.112 101.22 131.112ZM98.5879 126.66H103.53C103.46 125.47 102.466 124.476 101.052 124.476C99.6939 124.476 98.6719 125.47 98.5879 126.66ZM109.771 131.098C107.699 131.098 106.019 129.32 106.019 127.15C106.019 124.966 107.699 123.188 109.771 123.188C111.017 123.188 112.137 123.916 112.599 124.882V120.08H113.971V131H112.711L112.641 129.39C112.165 130.356 111.031 131.098 109.771 131.098ZM109.995 129.74C111.437 129.74 112.599 128.578 112.599 127.15C112.599 125.708 111.437 124.532 109.995 124.532C108.567 124.532 107.405 125.708 107.405 127.15C107.405 128.578 108.567 129.74 109.995 129.74Z" fill="black"/>
</svg>
