<svg width="160" height="136" viewBox="0 0 160 136" fill="none" xmlns="http://www.w3.org/2000/svg">
<path d="M88.1492 27.5307H72.5405C72.4495 27.5308 72.3593 27.5129 72.2753 27.4781C72.1912 27.4433 72.1148 27.3923 72.0505 27.3279C71.9861 27.2636 71.9351 27.1872 71.9003 27.1031C71.8655 27.019 71.8476 26.9289 71.8477 26.8379V23.3184C71.8478 21.7614 72.3184 20.2408 73.1979 18.9559C74.0773 17.6711 75.3245 16.6819 76.7759 16.1182C76.0928 15.4165 75.6318 14.5289 75.4505 13.5665C75.2692 12.6042 75.3756 11.6098 75.7565 10.7076C76.1374 9.80538 76.7758 9.03548 77.5919 8.49418C78.408 7.95287 79.3655 7.66418 80.3448 7.66418C81.3241 7.66418 82.2817 7.95287 83.0977 8.49418C83.9138 9.03548 84.5522 9.80538 84.9331 10.7076C85.3139 11.6098 85.4203 12.6042 85.239 13.5665C85.0577 14.5289 84.5968 15.4165 83.9138 16.1182C85.3652 16.6819 86.6124 17.671 87.4918 18.9558C88.3712 20.2407 88.8419 21.7614 88.842 23.3184V26.8379C88.842 26.9289 88.8241 27.019 88.7893 27.1031C88.7545 27.1872 88.7035 27.2636 88.6392 27.3279C88.5748 27.3923 88.4984 27.4433 88.4143 27.4781C88.3302 27.5129 88.2402 27.5308 88.1492 27.5307ZM73.2333 26.1451H87.4564V23.3184C87.4564 21.8387 86.9385 20.4056 85.9927 19.2677C85.0468 18.1298 83.7326 17.3588 82.2778 17.0884C82.1374 17.0624 82.0085 16.9937 81.9087 16.8916C81.8089 16.7894 81.743 16.659 81.7202 16.518C81.6974 16.3771 81.7188 16.2326 81.7813 16.1042C81.8438 15.9758 81.9444 15.8699 82.0694 15.8009C82.7699 15.418 83.323 14.8127 83.6414 14.0806C83.9598 13.3484 84.0253 12.5312 83.8277 11.7577C83.6301 10.9842 83.1805 10.2984 82.55 9.80873C81.9194 9.31904 81.1439 9.05325 80.3455 9.05325C79.5471 9.05325 78.7715 9.31904 78.1409 9.80873C77.5104 10.2984 77.0608 10.9842 76.8632 11.7577C76.6656 12.5312 76.7312 13.3484 77.0495 14.0806C77.3679 14.8127 77.9211 15.418 78.6216 15.8009C78.7463 15.8702 78.8466 15.9762 78.9089 16.1046C78.9711 16.2331 78.9922 16.3776 78.9693 16.5184C78.9463 16.6593 78.8804 16.7896 78.7807 16.8916C78.6809 16.9936 78.5521 17.0624 78.4118 17.0884C76.9571 17.3589 75.6428 18.13 74.697 19.2679C73.7511 20.4058 73.2334 21.8387 73.2333 23.3184V26.1451Z" fill="black"/>
<path d="M92.0129 48H63.518C63.427 48 63.3369 47.9822 63.2528 47.9474C63.1687 47.9126 63.0923 47.8615 63.028 47.7972C62.9637 47.7328 62.9126 47.6565 62.8778 47.5724C62.843 47.4883 62.8251 47.3982 62.8252 47.3072V2.69282C62.8251 2.60182 62.843 2.51172 62.8778 2.42764C62.9126 2.34356 62.9637 2.26715 63.028 2.2028C63.0923 2.13846 63.1687 2.08745 63.2528 2.05265C63.3369 2.01785 63.427 1.99995 63.518 2H97.1725C97.2635 1.99995 97.3535 2.01785 97.4376 2.05265C97.5217 2.08745 97.5981 2.13846 97.6625 2.2028C97.7268 2.26715 97.7778 2.34356 97.8126 2.42764C97.8474 2.51172 97.8653 2.60182 97.8653 2.69282V40.7599C97.8651 40.9155 97.8127 41.0666 97.7164 41.1889L92.5567 47.7361C92.4919 47.8184 92.4093 47.8849 92.3151 47.9306C92.2209 47.9763 92.1176 48 92.0129 48ZM64.2108 46.6144H91.6773L96.4796 40.5197V3.38564H64.2108V46.6144Z" fill="black"/>
<path d="M91.6275 33.2201H69.0649C68.8811 33.2201 68.7049 33.1471 68.575 33.0172C68.445 32.8873 68.3721 32.711 68.3721 32.5273C68.3721 32.3435 68.445 32.1673 68.575 32.0374C68.7049 31.9074 68.8811 31.8345 69.0649 31.8345H91.6275C91.8112 31.8345 91.9875 31.9074 92.1174 32.0374C92.2473 32.1673 92.3203 32.3435 92.3203 32.5273C92.3203 32.711 92.2473 32.8873 92.1174 33.0172C91.9875 33.1471 91.8112 33.2201 91.6275 33.2201Z" fill="black"/>
<path d="M87.4674 38.766H73.2241C73.0403 38.766 72.8641 38.693 72.7341 38.5631C72.6042 38.4332 72.5312 38.2569 72.5312 38.0732C72.5312 37.8894 72.6042 37.7132 72.7341 37.5833C72.8641 37.4533 73.0403 37.3804 73.2241 37.3804H87.4674C87.6512 37.3804 87.8273 37.4533 87.9573 37.5833C88.0872 37.7132 88.1602 37.8894 88.1602 38.0732C88.1602 38.2569 88.0872 38.4332 87.9573 38.5631C87.8273 38.693 87.6512 38.766 87.4674 38.766Z" fill="black"/>
<path d="M91.6274 48C91.5364 48.0001 91.4463 47.9822 91.3623 47.9474C91.2782 47.9126 91.2017 47.8616 91.1374 47.7972C91.073 47.7329 91.0221 47.6565 90.9873 47.5724C90.9525 47.4884 90.9345 47.3982 90.9346 47.3072V40.76C90.9345 40.669 90.9525 40.5788 90.9873 40.4947C91.0221 40.4107 91.073 40.3343 91.1374 40.2699C91.2017 40.2056 91.2782 40.1545 91.3623 40.1197C91.4463 40.0849 91.5364 40.0671 91.6274 40.0671H97.1726C97.3564 40.0671 97.5326 40.1401 97.6626 40.27C97.7925 40.4 97.8655 40.5762 97.8655 40.76C97.8655 40.9437 97.7925 41.12 97.6626 41.2499C97.5326 41.3798 97.3564 41.4528 97.1726 41.4528H92.3202V47.3072C92.3203 47.3982 92.3024 47.4884 92.2676 47.5724C92.2328 47.6565 92.1817 47.7329 92.1174 47.7972C92.0531 47.8616 91.9767 47.9126 91.8926 47.9474C91.8085 47.9822 91.7184 48.0001 91.6274 48Z" fill="black"/>
<path d="M69.065 15.9561L59.0053 6.91345V11.4348H48.7031V20.4788H59.0053V25.0002L69.065 15.9561Z" fill="#FFA18C"/>
<path d="M59.0042 25.6925C58.9071 25.6928 58.8112 25.6722 58.7227 25.6323C58.6003 25.578 58.4963 25.4893 58.4233 25.377C58.3502 25.2647 58.3114 25.1336 58.3114 24.9997V21.1709H48.7026C48.6116 21.171 48.5215 21.1531 48.4374 21.1183C48.3534 21.0835 48.2769 21.0325 48.2126 20.9681C48.1482 20.9038 48.0973 20.8274 48.0625 20.7433C48.0277 20.6592 48.0097 20.5691 48.0098 20.4781V11.4356C48.0097 11.3446 48.0277 11.2545 48.0625 11.1704C48.0973 11.0864 48.1482 11.0099 48.2126 10.9456C48.2769 10.8813 48.3534 10.8302 48.4374 10.7954C48.5215 10.7606 48.6116 10.7427 48.7026 10.7428H58.3114V6.91403C58.3115 6.78023 58.3504 6.64934 58.4233 6.53713C58.4961 6.42493 58.6 6.33619 58.7221 6.28168C58.8443 6.22717 58.9797 6.2092 59.1119 6.22992C59.244 6.25064 59.3674 6.30919 59.4671 6.39848L69.5278 15.441C69.6002 15.5059 69.658 15.5854 69.6976 15.6743C69.7372 15.7631 69.7578 15.8593 69.7578 15.9565C69.7578 16.0538 69.7372 16.15 69.6976 16.2388C69.658 16.3276 69.6002 16.4071 69.5278 16.4721L59.4671 25.5152C59.3399 25.6294 59.175 25.6925 59.0042 25.6925ZM49.3954 19.7853H59.0042C59.0952 19.7852 59.1853 19.8031 59.2694 19.8379C59.3535 19.8727 59.4299 19.9237 59.4942 19.9881C59.5585 20.0524 59.6096 20.1288 59.6444 20.2129C59.6792 20.297 59.6971 20.3871 59.697 20.4781V23.4456L68.0284 15.9565L59.697 8.46813V11.4356C59.6971 11.5266 59.6792 11.6167 59.6444 11.7008C59.6096 11.7849 59.5585 11.8613 59.4942 11.9256C59.4299 11.99 59.3535 12.041 59.2694 12.0758C59.1853 12.1106 59.0952 12.1285 59.0042 12.1284H49.3954V19.7853Z" fill="black"/>
<path d="M67.8258 91.56C62.8658 91.56 58.7458 89.04 57.0658 85.16L62.8258 82.52C63.5458 83.92 65.5458 85.08 67.6658 85.08C70.1858 85.08 71.8258 83.68 71.8258 81.76C71.8258 79.52 69.8258 78.4 67.0658 78.4H65.4258V72.4H67.1858C68.9458 72.4 70.7458 71.64 70.7458 69.88C70.7458 68.4 69.3458 67.48 67.5458 67.48C66.1858 67.48 64.9858 68.04 64.3858 68.84L58.3858 66.56C59.7858 63.4 63.6258 61.16 67.6258 61.16C72.6658 61.16 77.2658 63.72 77.2658 69.4C77.2658 71.88 75.9058 73.88 73.9058 75.2C76.5058 76.64 78.3058 79.04 78.3058 82.28C78.3058 87.96 73.8258 91.56 67.8258 91.56ZM91.7414 91.4C85.8214 91.4 81.0614 87 81.0614 80.96C81.0614 78.68 81.7414 76.56 82.9814 74.92L92.0214 61.76H99.9014L93.2614 71.04C98.2214 71.32 102.501 75.44 102.501 80.96C102.501 87 97.6614 91.4 91.7414 91.4ZM91.7414 84.92C94.1014 84.92 95.9414 83.16 95.9414 80.96C95.9414 78.76 94.1014 77.04 91.7414 77.04C89.4614 77.04 87.6214 78.76 87.6214 80.96C87.6214 83.16 89.4614 84.92 91.7414 84.92Z" fill="#EA5C3C"/>
<path d="M38.3841 111H36.7881L40.5261 100.78H42.0941L45.8321 111H44.2641L43.2841 108.34H39.3501L38.3841 111ZM41.3101 102.726L39.7701 106.982H42.8641L41.3101 102.726ZM48.4051 114.08H47.0471V103.3H48.3071L48.3771 104.896C48.8391 103.944 49.9731 103.202 51.2331 103.202C53.3051 103.202 54.9851 104.966 54.9851 107.136C54.9851 109.32 53.3051 111.112 51.2331 111.112C49.9871 111.112 48.8671 110.37 48.4051 109.418V114.08ZM51.0231 109.754C52.4511 109.754 53.6131 108.578 53.6131 107.136C53.6131 105.708 52.4511 104.546 51.0231 104.546C49.5671 104.546 48.4051 105.708 48.4051 107.136C48.4051 108.578 49.5671 109.754 51.0231 109.754ZM57.7976 114.08H56.4396V103.3H57.6996L57.7696 104.896C58.2316 103.944 59.3656 103.202 60.6256 103.202C62.6976 103.202 64.3776 104.966 64.3776 107.136C64.3776 109.32 62.6976 111.112 60.6256 111.112C59.3796 111.112 58.2596 110.37 57.7976 109.418V114.08ZM60.4156 109.754C61.8436 109.754 63.0056 108.578 63.0056 107.136C63.0056 105.708 61.8436 104.546 60.4156 104.546C58.9596 104.546 57.7976 105.708 57.7976 107.136C57.7976 108.578 58.9596 109.754 60.4156 109.754ZM67.1902 111H65.8322V100.08H67.1902V111ZM69.8815 102.516C69.4055 102.516 69.0135 102.124 69.0135 101.648C69.0135 101.172 69.4055 100.78 69.8815 100.78C70.3435 100.78 70.7355 101.172 70.7355 101.648C70.7355 102.124 70.3435 102.516 69.8815 102.516ZM70.5535 111H69.1955V103.3H70.5535V111ZM76.0448 111.112C73.8608 111.112 72.0968 109.32 72.0968 107.136C72.0968 104.966 73.8608 103.202 76.0448 103.202C77.3748 103.202 78.5508 103.86 79.2788 104.868L78.1448 105.624C77.6688 104.994 76.8988 104.588 76.0448 104.588C74.6168 104.588 73.4828 105.736 73.4828 107.136C73.4828 108.564 74.6168 109.712 76.0448 109.712C76.9268 109.712 77.7108 109.278 78.1728 108.606L79.3068 109.362C78.6068 110.412 77.4028 111.112 76.0448 111.112ZM84.0109 111.098C81.9389 111.098 80.2589 109.32 80.2589 107.15C80.2589 104.966 81.9389 103.188 84.0109 103.188C85.2709 103.188 86.4049 103.944 86.8809 104.924L86.9509 103.3H88.2109V111H86.9509L86.8809 109.39C86.4049 110.356 85.2709 111.098 84.0109 111.098ZM84.2349 109.74C85.6769 109.74 86.8389 108.578 86.8389 107.15C86.8389 105.708 85.6769 104.532 84.2349 104.532C82.8069 104.532 81.6449 105.708 81.6449 107.15C81.6449 108.578 82.8069 109.74 84.2349 109.74ZM93.1492 111.126C91.7352 111.126 90.5592 110.272 90.5592 108.13V104.532H89.5232V103.3H90.6012L90.7692 100.78H91.9172V103.3H93.7652V104.532H91.9172V108.116C91.9172 109.222 92.4632 109.796 93.3312 109.796C93.5272 109.796 93.7372 109.768 93.9192 109.698L94.2692 110.916C93.9472 111.056 93.5552 111.126 93.1492 111.126ZM96.4049 102.516C95.9289 102.516 95.5369 102.124 95.5369 101.648C95.5369 101.172 95.9289 100.78 96.4049 100.78C96.8669 100.78 97.2589 101.172 97.2589 101.648C97.2589 102.124 96.8669 102.516 96.4049 102.516ZM97.0769 111H95.7189V103.3H97.0769V111ZM102.568 111.112C100.384 111.112 98.6202 109.32 98.6202 107.136C98.6202 104.966 100.384 103.202 102.568 103.202C104.738 103.202 106.516 104.966 106.516 107.136C106.516 109.32 104.738 111.112 102.568 111.112ZM102.568 109.712C103.982 109.712 105.13 108.564 105.13 107.136C105.13 105.736 103.982 104.588 102.568 104.588C101.14 104.588 100.006 105.736 100.006 107.136C100.006 108.564 101.14 109.712 102.568 109.712ZM109.423 111H108.065V103.3H109.325L109.395 104.658C109.815 103.846 110.641 103.188 111.817 103.188C113.609 103.188 114.967 104.42 114.967 107.08V111H113.595V107.08C113.595 105.33 112.643 104.532 111.509 104.532C110.389 104.532 109.423 105.316 109.423 107.08V111ZM119.73 111.14C118.624 111.14 117.196 110.776 116.3 109.796L117.238 108.9C117.756 109.474 118.764 109.852 119.73 109.852C120.738 109.852 121.438 109.46 121.438 108.788C121.438 107.206 116.566 108.172 116.566 105.316C116.566 104.056 117.714 103.174 119.478 103.174C120.472 103.174 121.732 103.44 122.572 104.448L121.732 105.288C121.2 104.644 120.234 104.406 119.52 104.406C118.596 104.406 117.938 104.742 117.938 105.33C117.938 106.73 122.81 105.862 122.81 108.746C122.81 110.398 121.34 111.14 119.73 111.14ZM50.7277 131H49.2857V120.78H53.1637C55.2357 120.78 56.6077 122.222 56.6077 123.986C56.6077 125.414 55.6697 126.618 54.2697 126.954L56.7757 131H55.0957L52.7717 127.206H50.7277V131ZM50.7277 122.194V125.792H53.1357C54.3677 125.792 55.1237 124.966 55.1237 123.986C55.1237 123.034 54.3677 122.194 53.1357 122.194H50.7277ZM61.467 131.112C59.129 131.112 57.379 129.32 57.379 127.136C57.379 124.966 59.129 123.202 61.285 123.202C63.525 123.202 65.191 124.966 65.191 127.136C65.191 127.318 65.163 127.584 65.149 127.78H58.849C59.059 128.942 60.137 129.824 61.467 129.824C62.419 129.824 63.175 129.432 63.665 128.83L64.771 129.516C64.043 130.482 62.769 131.112 61.467 131.112ZM58.835 126.66H63.777C63.707 125.47 62.713 124.476 61.299 124.476C59.941 124.476 58.919 125.47 58.835 126.66ZM70.2137 131.112C68.0297 131.112 66.2657 129.32 66.2657 127.136C66.2657 124.966 68.0297 123.202 70.2137 123.202C71.5437 123.202 72.7197 123.86 73.4477 124.868L72.3137 125.624C71.8377 124.994 71.0677 124.588 70.2137 124.588C68.7857 124.588 67.6517 125.736 67.6517 127.136C67.6517 128.564 68.7857 129.712 70.2137 129.712C71.0957 129.712 71.8797 129.278 72.3417 128.606L73.4757 129.362C72.7757 130.412 71.5717 131.112 70.2137 131.112ZM78.5158 131.112C76.1778 131.112 74.4278 129.32 74.4278 127.136C74.4278 124.966 76.1778 123.202 78.3338 123.202C80.5738 123.202 82.2398 124.966 82.2398 127.136C82.2398 127.318 82.2118 127.584 82.1978 127.78H75.8978C76.1078 128.942 77.1858 129.824 78.5158 129.824C79.4678 129.824 80.2238 129.432 80.7138 128.83L81.8198 129.516C81.0918 130.482 79.8178 131.112 78.5158 131.112ZM75.8838 126.66H80.8258C80.7558 125.47 79.7618 124.476 78.3478 124.476C76.9898 124.476 75.9678 125.47 75.8838 126.66ZM84.4626 122.516C83.9866 122.516 83.5946 122.124 83.5946 121.648C83.5946 121.172 83.9866 120.78 84.4626 120.78C84.9246 120.78 85.3166 121.172 85.3166 121.648C85.3166 122.124 84.9246 122.516 84.4626 122.516ZM85.1346 131H83.7766V123.3H85.1346V131ZM90.6958 131H89.3378L86.3138 123.3H87.7838L90.0238 128.956L92.2498 123.3H93.7198L90.6958 131ZM98.1213 131.112C95.7833 131.112 94.0333 129.32 94.0333 127.136C94.0333 124.966 95.7833 123.202 97.9393 123.202C100.179 123.202 101.845 124.966 101.845 127.136C101.845 127.318 101.817 127.584 101.803 127.78H95.5033C95.7133 128.942 96.7913 129.824 98.1213 129.824C99.0733 129.824 99.8293 129.432 100.319 128.83L101.425 129.516C100.697 130.482 99.4233 131.112 98.1213 131.112ZM95.4893 126.66H100.431C100.361 125.47 99.3673 124.476 97.9533 124.476C96.5953 124.476 95.5733 125.47 95.4893 126.66ZM106.672 131.098C104.6 131.098 102.92 129.32 102.92 127.15C102.92 124.966 104.6 123.188 106.672 123.188C107.918 123.188 109.038 123.916 109.5 124.882V120.08H110.872V131H109.612L109.542 129.39C109.066 130.356 107.932 131.098 106.672 131.098ZM106.896 129.74C108.338 129.74 109.5 128.578 109.5 127.15C109.5 125.708 108.338 124.532 106.896 124.532C105.468 124.532 104.306 125.708 104.306 127.15C104.306 128.578 105.468 129.74 106.896 129.74Z" fill="black"/>
</svg>
