<svg width="160" height="136" viewBox="0 0 160 136" fill="none" xmlns="http://www.w3.org/2000/svg">
<path d="M85.7839 27.5308H70.1752C70.0842 27.5308 69.9941 27.513 69.91 27.4782C69.8259 27.4434 69.7496 27.3923 69.6852 27.328C69.6209 27.2636 69.5698 27.1873 69.535 27.1032C69.5002 27.0191 69.4824 26.9289 69.4824 26.838V23.3191C69.4827 21.762 69.9534 20.2413 70.8328 18.9564C71.7122 17.6714 72.9593 16.6822 74.4106 16.1182C73.7276 15.4165 73.2666 14.5289 73.0853 13.5665C72.904 12.6041 73.0105 11.6097 73.3914 10.7075C73.7722 9.80534 74.4106 9.03548 75.2267 8.49418C76.0428 7.95287 77.0003 7.66418 77.9796 7.66418C78.9589 7.66418 79.9164 7.95287 80.7325 8.49418C81.5486 9.03548 82.187 9.80534 82.5679 10.7075C82.9488 11.6097 83.0552 12.6041 82.8739 13.5665C82.6926 14.5289 82.2316 15.4165 81.5485 16.1182C82.9999 16.6822 84.2471 17.6714 85.1265 18.9564C86.0059 20.2413 86.4765 21.762 86.4768 23.3191V26.838C86.4768 26.9289 86.459 27.0191 86.4242 27.1032C86.3894 27.1873 86.3383 27.2636 86.274 27.328C86.2096 27.3923 86.1332 27.4434 86.0492 27.4782C85.9651 27.513 85.8749 27.5308 85.7839 27.5308ZM70.8681 26.1451H85.0911V23.3191C85.0911 21.8393 84.5733 20.4062 83.6274 19.2682C82.6816 18.1302 81.3674 17.3591 79.9126 17.0884C79.7722 17.0624 79.6433 16.9937 79.5435 16.8916C79.4437 16.7894 79.3779 16.6589 79.3551 16.518C79.3323 16.3771 79.3536 16.2326 79.4161 16.1042C79.4785 15.9758 79.5792 15.8699 79.7042 15.8009C80.4047 15.418 80.9578 14.8127 81.2761 14.0805C81.5945 13.3484 81.6601 12.5312 81.4625 11.7577C81.2648 10.9842 80.8154 10.2984 80.1848 9.80869C79.5543 9.31899 78.7786 9.0532 77.9803 9.0532C77.1819 9.0532 76.4062 9.31899 75.7757 9.80869C75.1452 10.2984 74.6957 10.9842 74.4981 11.7577C74.3005 12.5312 74.366 13.3484 74.6844 14.0805C75.0028 14.8127 75.5558 15.418 76.2563 15.8009C76.3811 15.8702 76.4815 15.9762 76.5437 16.1046C76.606 16.233 76.627 16.3776 76.6041 16.5184C76.5812 16.6593 76.5153 16.7895 76.4155 16.8916C76.3157 16.9936 76.1869 17.0624 76.0466 17.0884C74.5919 17.3593 73.2778 18.1305 72.332 19.2685C71.3862 20.4064 70.8683 21.8394 70.8681 23.3191V26.1451Z" fill="black"/>
<path d="M89.6476 48H61.1528C61.0618 48 60.9716 47.9822 60.8876 47.9474C60.8035 47.9126 60.7271 47.8615 60.6628 47.7972C60.5984 47.7328 60.5474 47.6565 60.5126 47.5724C60.4778 47.4883 60.4599 47.3982 60.46 47.3072V2.69282C60.4599 2.60182 60.4778 2.51168 60.5126 2.4276C60.5474 2.34352 60.5984 2.26715 60.6628 2.2028C60.7271 2.13846 60.8035 2.0874 60.8876 2.0526C60.9716 2.0178 61.0618 1.99995 61.1528 2H94.8072C94.8982 1.99995 94.9884 2.0178 95.0724 2.0526C95.1565 2.0874 95.2329 2.13846 95.2972 2.2028C95.3616 2.26715 95.4126 2.34352 95.4474 2.4276C95.4822 2.51168 95.5001 2.60182 95.5 2.69282V40.7606C95.4998 40.9162 95.4474 41.0672 95.3512 41.1895L90.1916 47.7361C90.1268 47.8184 90.0441 47.8849 89.9499 47.9306C89.8557 47.9763 89.7523 48 89.6476 48ZM61.8456 46.6144H89.3121L94.1145 40.5203V3.38564H61.8456V46.6144Z" fill="black"/>
<path d="M89.2622 33.2202H66.6997C66.5159 33.2202 66.3397 33.1472 66.2097 33.0173C66.0798 32.8873 66.0068 32.7112 66.0068 32.5274C66.0068 32.3437 66.0798 32.1674 66.2097 32.0375C66.3397 31.9076 66.5159 31.8346 66.6997 31.8346H89.2622C89.446 31.8346 89.6222 31.9076 89.7522 32.0375C89.8821 32.1674 89.9551 32.3437 89.9551 32.5274C89.9551 32.7112 89.8821 32.8873 89.7522 33.0173C89.6222 33.1472 89.446 33.2202 89.2622 33.2202Z" fill="black"/>
<path d="M85.1022 38.766H70.8588C70.6751 38.766 70.4988 38.693 70.3689 38.5631C70.239 38.4332 70.166 38.2569 70.166 38.0732C70.166 37.8894 70.239 37.7132 70.3689 37.5833C70.4988 37.4533 70.6751 37.3804 70.8588 37.3804H85.1022C85.2859 37.3804 85.4622 37.4533 85.5921 37.5833C85.7221 37.7132 85.795 37.8894 85.795 38.0732C85.795 38.2569 85.7221 38.4332 85.5921 38.5631C85.4622 38.693 85.2859 38.766 85.1022 38.766Z" fill="black"/>
<path d="M89.2622 48C89.1712 48 89.081 47.9822 88.9969 47.9474C88.9129 47.9126 88.8365 47.8615 88.7721 47.7972C88.7078 47.7328 88.6567 47.6565 88.6219 47.5724C88.5871 47.4883 88.5693 47.3982 88.5693 47.3072V40.7606C88.5693 40.6696 88.5871 40.5794 88.6219 40.4953C88.6567 40.4113 88.7078 40.3349 88.7721 40.2706C88.8365 40.2062 88.9129 40.1552 88.9969 40.1204C89.081 40.0856 89.1712 40.0677 89.2622 40.0677H94.8075C94.9912 40.0677 95.1674 40.1407 95.2973 40.2706C95.4273 40.4006 95.5003 40.5768 95.5003 40.7606C95.5003 40.9443 95.4273 41.1206 95.2973 41.2505C95.1674 41.3804 94.9912 41.4534 94.8075 41.4534H89.955V47.3072C89.955 47.3982 89.9372 47.4883 89.9024 47.5724C89.8676 47.6565 89.8165 47.7328 89.7522 47.7972C89.6878 47.8615 89.6115 47.9126 89.5274 47.9474C89.4433 47.9822 89.3532 48 89.2622 48Z" fill="black"/>
<path d="M100.282 26.6266C106.174 26.6266 110.951 21.8497 110.951 15.9571C110.951 10.0645 106.174 5.2876 100.282 5.2876C94.3892 5.2876 89.6123 10.0645 89.6123 15.9571C89.6123 21.8497 94.3892 26.6266 100.282 26.6266Z" fill="#FFA18C"/>
<path d="M100.281 27.3197C98.0341 27.3197 95.8373 26.6533 93.9687 25.4048C92.1002 24.1562 90.6438 22.3817 89.7838 20.3055C88.9238 18.2292 88.6989 15.9446 89.1373 13.7405C89.5757 11.5364 90.6579 9.51176 92.2469 7.92269C93.836 6.33362 95.8607 5.25147 98.0648 4.81305C100.269 4.37462 102.553 4.59968 104.63 5.45969C106.706 6.31969 108.48 7.77603 109.729 9.64459C110.978 11.5131 111.644 13.71 111.644 15.9572C111.64 18.9697 110.442 21.8578 108.312 23.9879C106.182 26.118 103.294 27.3163 100.281 27.3197ZM100.281 5.9804C98.3082 5.9804 96.3793 6.56551 94.7386 7.66179C93.0979 8.75806 91.8191 10.3162 91.064 12.1392C90.3089 13.9623 90.1113 15.9683 90.4963 17.9036C90.8812 19.8389 91.8314 21.6167 93.2267 23.0119C94.622 24.4072 96.3997 25.3574 98.3351 25.7424C100.27 26.1273 102.276 25.9298 104.099 25.1746C105.922 24.4195 107.481 23.1407 108.577 21.5C109.673 19.8594 110.258 17.9305 110.258 15.9572C110.255 13.3122 109.203 10.7763 107.333 8.90593C105.462 7.03558 102.926 5.9835 100.281 5.9804Z" fill="black"/>
<path d="M99.088 20.5417C98.9905 20.5415 98.8942 20.5209 98.8051 20.4812C98.7161 20.4414 98.6365 20.3835 98.5712 20.311L95.21 16.5519L96.2438 15.6277L99.0367 18.7522L104.279 11.6542L105.394 12.4769L99.6455 20.2603C99.5843 20.343 99.5054 20.4111 99.4146 20.4597C99.3238 20.5083 99.2234 20.5361 99.1205 20.5411L99.088 20.5417Z" fill="black"/>
<path d="M71.5581 91H65.0781V67.84H61.0781V61.8H71.5581V91ZM87.4763 92C81.1563 92 76.6763 88.08 76.6763 82.52C76.6763 79.44 78.3163 76.92 80.7963 75.44C79.0763 74.12 77.9563 72.08 77.9563 69.68C77.9563 64.8 82.2763 61.16 87.5563 61.16C92.7963 61.16 97.1163 64.8 97.1163 69.68C97.1163 72.08 95.9963 74.12 94.2363 75.44C96.7963 76.96 98.4363 79.44 98.4363 82.52C98.4363 88.08 93.8763 92 87.4763 92ZM87.5163 72.48C89.3163 72.48 90.7163 71.28 90.7163 69.76C90.7163 68.24 89.3163 67.08 87.5163 67.08C85.7563 67.08 84.3963 68.24 84.3963 69.76C84.3963 71.28 85.7563 72.48 87.5163 72.48ZM87.5163 85.72C89.9563 85.72 91.7963 84.08 91.7963 82.08C91.7963 80.12 89.8763 78.52 87.5163 78.52C85.1963 78.52 83.2763 80.12 83.2763 82.08C83.2763 84.08 85.1163 85.72 87.5163 85.72Z" fill="#EA5C3C"/>
<path d="M38.3841 111H36.7881L40.5261 100.78H42.0941L45.8321 111H44.2641L43.2841 108.34H39.3501L38.3841 111ZM41.3101 102.726L39.7701 106.982H42.8641L41.3101 102.726ZM48.4051 114.08H47.0471V103.3H48.3071L48.3771 104.896C48.8391 103.944 49.9731 103.202 51.2331 103.202C53.3051 103.202 54.9851 104.966 54.9851 107.136C54.9851 109.32 53.3051 111.112 51.2331 111.112C49.9871 111.112 48.8671 110.37 48.4051 109.418V114.08ZM51.0231 109.754C52.4511 109.754 53.6131 108.578 53.6131 107.136C53.6131 105.708 52.4511 104.546 51.0231 104.546C49.5671 104.546 48.4051 105.708 48.4051 107.136C48.4051 108.578 49.5671 109.754 51.0231 109.754ZM57.7976 114.08H56.4396V103.3H57.6996L57.7696 104.896C58.2316 103.944 59.3656 103.202 60.6256 103.202C62.6976 103.202 64.3776 104.966 64.3776 107.136C64.3776 109.32 62.6976 111.112 60.6256 111.112C59.3796 111.112 58.2596 110.37 57.7976 109.418V114.08ZM60.4156 109.754C61.8436 109.754 63.0056 108.578 63.0056 107.136C63.0056 105.708 61.8436 104.546 60.4156 104.546C58.9596 104.546 57.7976 105.708 57.7976 107.136C57.7976 108.578 58.9596 109.754 60.4156 109.754ZM67.1902 111H65.8322V100.08H67.1902V111ZM69.8815 102.516C69.4055 102.516 69.0135 102.124 69.0135 101.648C69.0135 101.172 69.4055 100.78 69.8815 100.78C70.3435 100.78 70.7355 101.172 70.7355 101.648C70.7355 102.124 70.3435 102.516 69.8815 102.516ZM70.5535 111H69.1955V103.3H70.5535V111ZM76.0448 111.112C73.8608 111.112 72.0968 109.32 72.0968 107.136C72.0968 104.966 73.8608 103.202 76.0448 103.202C77.3748 103.202 78.5508 103.86 79.2788 104.868L78.1448 105.624C77.6688 104.994 76.8988 104.588 76.0448 104.588C74.6168 104.588 73.4828 105.736 73.4828 107.136C73.4828 108.564 74.6168 109.712 76.0448 109.712C76.9268 109.712 77.7108 109.278 78.1728 108.606L79.3068 109.362C78.6068 110.412 77.4028 111.112 76.0448 111.112ZM84.0109 111.098C81.9389 111.098 80.2589 109.32 80.2589 107.15C80.2589 104.966 81.9389 103.188 84.0109 103.188C85.2709 103.188 86.4049 103.944 86.8809 104.924L86.9509 103.3H88.2109V111H86.9509L86.8809 109.39C86.4049 110.356 85.2709 111.098 84.0109 111.098ZM84.2349 109.74C85.6769 109.74 86.8389 108.578 86.8389 107.15C86.8389 105.708 85.6769 104.532 84.2349 104.532C82.8069 104.532 81.6449 105.708 81.6449 107.15C81.6449 108.578 82.8069 109.74 84.2349 109.74ZM93.1492 111.126C91.7352 111.126 90.5592 110.272 90.5592 108.13V104.532H89.5232V103.3H90.6012L90.7692 100.78H91.9172V103.3H93.7652V104.532H91.9172V108.116C91.9172 109.222 92.4632 109.796 93.3312 109.796C93.5272 109.796 93.7372 109.768 93.9192 109.698L94.2692 110.916C93.9472 111.056 93.5552 111.126 93.1492 111.126ZM96.4049 102.516C95.9289 102.516 95.5369 102.124 95.5369 101.648C95.5369 101.172 95.9289 100.78 96.4049 100.78C96.8669 100.78 97.2589 101.172 97.2589 101.648C97.2589 102.124 96.8669 102.516 96.4049 102.516ZM97.0769 111H95.7189V103.3H97.0769V111ZM102.568 111.112C100.384 111.112 98.6202 109.32 98.6202 107.136C98.6202 104.966 100.384 103.202 102.568 103.202C104.738 103.202 106.516 104.966 106.516 107.136C106.516 109.32 104.738 111.112 102.568 111.112ZM102.568 109.712C103.982 109.712 105.13 108.564 105.13 107.136C105.13 105.736 103.982 104.588 102.568 104.588C101.14 104.588 100.006 105.736 100.006 107.136C100.006 108.564 101.14 109.712 102.568 109.712ZM109.423 111H108.065V103.3H109.325L109.395 104.658C109.815 103.846 110.641 103.188 111.817 103.188C113.609 103.188 114.967 104.42 114.967 107.08V111H113.595V107.08C113.595 105.33 112.643 104.532 111.509 104.532C110.389 104.532 109.423 105.316 109.423 107.08V111ZM119.73 111.14C118.624 111.14 117.196 110.776 116.3 109.796L117.238 108.9C117.756 109.474 118.764 109.852 119.73 109.852C120.738 109.852 121.438 109.46 121.438 108.788C121.438 107.206 116.566 108.172 116.566 105.316C116.566 104.056 117.714 103.174 119.478 103.174C120.472 103.174 121.732 103.44 122.572 104.448L121.732 105.288C121.2 104.644 120.234 104.406 119.52 104.406C118.596 104.406 117.938 104.742 117.938 105.33C117.938 106.73 122.81 105.862 122.81 108.746C122.81 110.398 121.34 111.14 119.73 111.14ZM47.8451 131H46.2491L49.9871 120.78H51.5551L55.2931 131H53.7251L52.7451 128.34H48.8111L47.8451 131ZM50.7711 122.726L49.2311 126.982H52.3251L50.7711 122.726ZM57.866 134.08H56.508V123.3H57.768L57.838 124.896C58.3 123.944 59.434 123.202 60.694 123.202C62.766 123.202 64.446 124.966 64.446 127.136C64.446 129.32 62.766 131.112 60.694 131.112C59.448 131.112 58.328 130.37 57.866 129.418V134.08ZM60.484 129.754C61.912 129.754 63.074 128.578 63.074 127.136C63.074 125.708 61.912 124.546 60.484 124.546C59.028 124.546 57.866 125.708 57.866 127.136C57.866 128.578 59.028 129.754 60.484 129.754ZM67.2586 134.08H65.9006V123.3H67.1606L67.2306 124.896C67.6926 123.944 68.8266 123.202 70.0866 123.202C72.1586 123.202 73.8386 124.966 73.8386 127.136C73.8386 129.32 72.1586 131.112 70.0866 131.112C68.8406 131.112 67.7206 130.37 67.2586 129.418V134.08ZM69.8766 129.754C71.3046 129.754 72.4666 128.578 72.4666 127.136C72.4666 125.708 71.3046 124.546 69.8766 124.546C68.4206 124.546 67.2586 125.708 67.2586 127.136C67.2586 128.578 68.4206 129.754 69.8766 129.754ZM76.7469 131H75.3889V123.3H76.6489L76.7329 124.56C77.1809 123.734 78.0489 123.244 79.1829 123.258C79.3789 123.258 79.5749 123.272 79.7569 123.3L79.4769 124.616C79.3929 124.602 79.2949 124.588 79.2109 124.588C77.9089 124.588 76.7469 125.316 76.7469 127.444V131ZM84.1385 131.112C81.9545 131.112 80.1905 129.32 80.1905 127.136C80.1905 124.966 81.9545 123.202 84.1385 123.202C86.3085 123.202 88.0865 124.966 88.0865 127.136C88.0865 129.32 86.3085 131.112 84.1385 131.112ZM84.1385 129.712C85.5525 129.712 86.7005 128.564 86.7005 127.136C86.7005 125.736 85.5525 124.588 84.1385 124.588C82.7105 124.588 81.5765 125.736 81.5765 127.136C81.5765 128.564 82.7105 129.712 84.1385 129.712ZM92.7945 131H91.4365L88.4125 123.3H89.8825L92.1225 128.956L94.3485 123.3H95.8185L92.7945 131ZM100.22 131.112C97.8819 131.112 96.1319 129.32 96.1319 127.136C96.1319 124.966 97.8819 123.202 100.038 123.202C102.278 123.202 103.944 124.966 103.944 127.136C103.944 127.318 103.916 127.584 103.902 127.78H97.6019C97.8119 128.942 98.8899 129.824 100.22 129.824C101.172 129.824 101.928 129.432 102.418 128.83L103.524 129.516C102.796 130.482 101.522 131.112 100.22 131.112ZM97.5879 126.66H102.53C102.46 125.47 101.466 124.476 100.052 124.476C98.6939 124.476 97.6719 125.47 97.5879 126.66ZM108.771 131.098C106.699 131.098 105.019 129.32 105.019 127.15C105.019 124.966 106.699 123.188 108.771 123.188C110.017 123.188 111.137 123.916 111.599 124.882V120.08H112.971V131H111.711L111.641 129.39C111.165 130.356 110.031 131.098 108.771 131.098ZM108.995 129.74C110.437 129.74 111.599 128.578 111.599 127.15C111.599 125.708 110.437 124.532 108.995 124.532C107.567 124.532 106.405 125.708 106.405 127.15C106.405 128.578 107.567 129.74 108.995 129.74Z" fill="black"/>
</svg>
