<svg width="197" height="242" viewBox="0 0 197 242" fill="none" xmlns="http://www.w3.org/2000/svg">
<g clip-path="url(#clip0_791_2366)">
<path d="M15.3985 9.44393C16.3269 9.44395 17.2344 9.16897 18.0063 8.65409C18.7782 8.13921 19.3799 7.4076 19.7351 6.55137C20.0904 5.69513 20.1834 4.75269 20.0023 3.8437C19.8212 2.93472 19.3742 2.10005 18.7177 1.4447C18.0613 0.789354 17.2249 0.342841 16.3144 0.162028C15.4039 -0.0187859 14.4601 0.0741619 13.6024 0.428826C12.7447 0.783491 12.0116 1.38387 11.4959 2.15446C10.9801 2.92506 10.7048 3.83124 10.7048 4.75803C10.7048 6.00079 11.1993 7.19258 12.0796 8.07135C12.9598 8.95013 14.1537 9.44391 15.3985 9.44393ZM28.9924 26.6333L23.1357 13.985L23.1253 13.9642L23.048 13.8143C22.9957 13.7252 22.9373 13.6396 22.8735 13.5584C22.3892 12.8423 21.7366 12.2556 20.9728 11.8495C20.2089 11.4434 19.3571 11.2301 18.4917 11.2285H12.3051C11.4992 11.2302 10.7045 11.4157 9.98141 11.7709C9.25837 12.1261 8.62621 12.6417 8.13327 13.2781C7.96513 13.4347 7.82126 13.6154 7.70632 13.8143L1.76182 26.6333C1.60764 26.8999 1.50755 27.1941 1.46732 27.4993C1.42709 27.8044 1.44754 28.1145 1.52738 28.4118C1.60723 28.7091 1.74497 28.9877 1.93273 29.2318C2.12049 29.4759 2.35456 29.6808 2.62164 29.8346C2.88871 29.9883 3.1835 30.0883 3.4892 30.1283C3.7949 30.1683 4.10549 30.1477 4.40324 30.0679C4.701 29.988 4.98014 29.8503 5.22459 29.6628C5.46905 29.4752 5.67409 29.2415 5.828 28.9748L10.02 19.5619V48.4279C10.02 49.0493 10.2672 49.6453 10.7073 50.0847C11.1475 50.5241 11.7445 50.7708 12.367 50.7708C12.9894 50.7708 13.5864 50.5241 14.0265 50.0847C14.4667 49.6453 14.714 49.0493 14.714 48.4279V33.6546H16.0829V48.4279C16.0829 49.0493 16.3302 49.6453 16.7703 50.0847C17.2105 50.5241 17.8074 50.7708 18.4299 50.7708C19.0523 50.7708 19.6494 50.5241 20.0895 50.0847C20.5297 49.6453 20.777 49.0493 20.777 48.4279V19.6449L24.9263 28.9745C25.0802 29.2412 25.2852 29.4752 25.5297 29.6628C25.7742 29.8503 26.0532 29.988 26.351 30.0679C26.6487 30.1477 26.9594 30.1683 27.2651 30.1283C27.5708 30.0883 27.8656 29.9883 28.1327 29.8346C28.3997 29.6808 28.6338 29.4759 28.8216 29.2318C29.0093 28.9877 29.1471 28.7091 29.2269 28.4118C29.3068 28.1145 29.3271 27.8044 29.2869 27.4993C29.2467 27.1941 29.1466 26.8999 28.9924 26.6333Z" fill="#569FD6"/>
<path d="M56.9385 9.44393C57.8669 9.44395 58.7744 9.16897 59.5463 8.65409C60.3182 8.13921 60.9198 7.4076 61.2751 6.55137C61.6304 5.69513 61.7234 4.75269 61.5423 3.8437C61.3612 2.93472 60.9141 2.10005 60.2577 1.4447C59.6013 0.789354 58.7649 0.342841 57.8544 0.162028C56.9438 -0.0187859 56.0001 0.0741619 55.1424 0.428826C54.2847 0.783491 53.5516 1.38387 53.0358 2.15446C52.5201 2.92506 52.2448 3.83124 52.2448 4.75803C52.2448 6.00079 52.7393 7.19258 53.6196 8.07135C54.4998 8.95013 55.6936 9.44391 56.9385 9.44393ZM70.5324 26.6333L64.6757 13.985L64.6652 13.9642L64.5879 13.8143C64.5356 13.7252 64.4773 13.6396 64.4135 13.5584C63.9292 12.8423 63.2767 12.2556 62.5128 11.8495C61.749 11.4434 60.8971 11.2301 60.0317 11.2285H53.8451C53.0392 11.2302 52.2444 11.4157 51.5214 11.7709C50.7983 12.1261 50.1662 12.6417 49.6732 13.2781C49.5051 13.4347 49.3612 13.6154 49.2463 13.8143L43.3018 26.6333C43.1476 26.8999 43.0476 27.1941 43.0074 27.4993C42.9671 27.8044 42.9875 28.1145 43.0674 28.4118C43.1472 28.7091 43.2849 28.9877 43.4727 29.2318C43.6605 29.4759 43.8945 29.6808 44.1616 29.8346C44.4287 29.9883 44.7236 30.0883 45.0293 30.1283C45.335 30.1683 45.6455 30.1477 45.9433 30.0679C46.2411 29.988 46.5201 29.8503 46.7646 29.6628C47.009 29.4752 47.2141 29.2415 47.368 28.9748L51.5599 19.5619V48.4279C51.5599 49.0493 51.8072 49.6453 52.2474 50.0847C52.6875 50.5241 53.2845 50.7708 53.9069 50.7708C54.5294 50.7708 55.1264 50.5241 55.5665 50.0847C56.0067 49.6453 56.254 49.0493 56.254 48.4279V33.6546H57.6229V48.4279C57.6229 49.0493 57.8702 49.6453 58.3104 50.0847C58.7505 50.5241 59.3475 50.7708 59.9699 50.7708C60.5924 50.7708 61.1894 50.5241 61.6295 50.0847C62.0697 49.6453 62.317 49.0493 62.317 48.4279V19.6449L66.4664 28.9745C66.6199 29.2418 66.8248 29.4764 67.0693 29.6646C67.3138 29.8527 67.5931 29.9909 67.8911 30.0712C68.1892 30.1514 68.5001 30.1722 68.8062 30.1323C69.1123 30.0924 69.4075 29.9925 69.6749 29.8386C69.9423 29.6846 70.1766 29.4792 70.3645 29.2347C70.5523 28.9902 70.69 28.7113 70.7697 28.4136C70.8494 28.1158 70.8695 27.8051 70.8288 27.4996C70.7881 27.1941 70.6873 26.8999 70.5324 26.6333Z" fill="#569FD6"/>
<path d="M98.4786 9.44393C99.407 9.44395 100.314 9.16897 101.086 8.65409C101.858 8.13921 102.46 7.4076 102.815 6.55137C103.171 5.69513 103.263 4.75269 103.082 3.8437C102.901 2.93472 102.454 2.10005 101.798 1.4447C101.141 0.789354 100.305 0.342841 99.3944 0.162028C98.4839 -0.0187859 97.5401 0.0741619 96.6824 0.428826C95.8247 0.783491 95.0916 1.38387 94.5759 2.15446C94.0601 2.92506 93.7849 3.83124 93.7849 4.75803C93.7849 5.37338 93.9062 5.98285 94.1421 6.55137C94.378 7.11988 94.7237 7.63623 95.1596 8.07135C95.5954 8.50648 96.1129 8.85174 96.6823 9.08723C97.2518 9.32272 97.8622 9.44393 98.4786 9.44393ZM112.072 26.6333L106.216 13.985L106.205 13.9642L106.128 13.8143C106.076 13.7252 106.017 13.6396 105.954 13.5584C105.469 12.8423 104.817 12.2556 104.053 11.8495C103.289 11.4434 102.437 11.2301 101.572 11.2285H95.3852C94.5793 11.2302 93.7845 11.4157 93.0614 11.7709C92.3384 12.1261 91.7063 12.6417 91.2134 13.2781C91.0452 13.4347 90.9013 13.6154 90.7863 13.8143L84.8419 26.6333C84.6877 26.8999 84.5877 27.1941 84.5474 27.4993C84.5072 27.8044 84.5275 28.1145 84.6074 28.4118C84.6872 28.709 84.825 28.9877 85.0127 29.2318C85.2005 29.4759 85.4347 29.6808 85.7017 29.8346C85.9688 29.9883 86.2636 30.0883 86.5693 30.1283C86.875 30.1683 87.1856 30.1477 87.4833 30.0679C87.7811 29.988 88.0601 29.8503 88.3046 29.6628C88.5491 29.4752 88.7541 29.2415 88.908 28.9748L93.1 19.5619V48.4278C93.1 48.7355 93.1607 49.0404 93.2786 49.3247C93.3966 49.609 93.5695 49.8671 93.7874 50.0847C94.0054 50.3023 94.2641 50.4747 94.5489 50.5924C94.8336 50.7102 95.1388 50.7708 95.447 50.7708C95.7552 50.7708 96.0604 50.7102 96.3452 50.5924C96.6299 50.4747 96.8887 50.3023 97.1066 50.0847C97.3246 49.8671 97.4974 49.609 97.6153 49.3247C97.7333 49.0404 97.794 48.7355 97.794 48.4278V33.6545H99.163V48.4278C99.1622 48.736 99.2223 49.0416 99.3399 49.3265C99.4575 49.6115 99.6303 49.8701 99.8483 50.0883C100.066 50.3065 100.325 50.4798 100.61 50.5979C100.896 50.716 101.201 50.777 101.51 50.777C101.819 50.777 102.124 50.716 102.41 50.5979C102.695 50.4798 102.954 50.3065 103.172 50.0883C103.39 49.8701 103.562 49.6115 103.68 49.3265C103.798 49.0416 103.858 48.736 103.857 48.4278V19.6449L108.006 28.9745C108.16 29.2412 108.365 29.4752 108.61 29.6628C108.854 29.8503 109.133 29.988 109.431 30.0679C109.729 30.1477 110.039 30.1683 110.345 30.1283C110.651 30.0883 110.946 29.9883 111.213 29.8346C111.48 29.6808 111.714 29.4759 111.902 29.2318C112.089 28.9877 112.227 28.709 112.307 28.4118C112.387 28.1145 112.407 27.8044 112.367 27.4993C112.327 27.1941 112.227 26.8999 112.072 26.6333Z" fill="#569FD6"/>
<path d="M140.019 9.44393C140.947 9.44395 141.855 9.16897 142.626 8.65409C143.398 8.13921 144 7.4076 144.355 6.55137C144.711 5.69513 144.803 4.75269 144.622 3.8437C144.441 2.93472 143.994 2.10005 143.338 1.4447C142.681 0.789354 141.845 0.342841 140.934 0.162028C140.024 -0.0187859 139.08 0.0741619 138.222 0.428826C137.365 0.783491 136.632 1.38387 136.116 2.15446C135.6 2.92506 135.325 3.83124 135.325 4.75803C135.325 6.00079 135.819 7.19258 136.7 8.07135C137.58 8.95013 138.774 9.44391 140.019 9.44393ZM153.613 26.6333L147.756 13.985L147.745 13.9642L147.668 13.8143C147.616 13.7252 147.557 13.6396 147.494 13.5584C147.009 12.8423 146.357 12.2556 145.593 11.8495C144.829 11.4434 143.977 11.2301 143.112 11.2285H136.925C136.119 11.2302 135.325 11.4157 134.601 11.7709C133.878 12.1261 133.246 12.6417 132.753 13.2781C132.585 13.4347 132.441 13.6154 132.326 13.8143L126.382 26.6333C126.228 26.8999 126.128 27.1941 126.087 27.4993C126.047 27.8044 126.068 28.1145 126.147 28.4118C126.227 28.7091 126.365 28.9877 126.553 29.2318C126.741 29.4759 126.975 29.6808 127.242 29.8346C127.509 29.9883 127.804 30.0883 128.109 30.1283C128.415 30.1683 128.726 30.1477 129.023 30.0679C129.321 29.988 129.6 29.8503 129.845 29.6628C130.089 29.4752 130.294 29.2415 130.448 28.9748L134.64 19.5619V48.4279C134.64 49.0493 134.887 49.6453 135.327 50.0847C135.768 50.5241 136.365 50.7708 136.987 50.7708C137.609 50.7708 138.206 50.5241 138.647 50.0847C139.087 49.6453 139.334 49.0493 139.334 48.4279V33.6546H140.703V48.4279C140.703 48.7355 140.764 49.0404 140.882 49.3247C141 49.609 141.172 49.8671 141.39 50.0847C141.608 50.3023 141.867 50.4747 142.152 50.5925C142.437 50.7102 142.742 50.7708 143.05 50.7708C143.358 50.7708 143.663 50.7102 143.948 50.5925C144.233 50.4747 144.492 50.3023 144.71 50.0847C144.928 49.8671 145.1 49.609 145.218 49.3247C145.336 49.0404 145.397 48.7355 145.397 48.4279V19.6449L149.546 28.9745C149.7 29.2412 149.905 29.4752 150.15 29.6628C150.394 29.8503 150.673 29.988 150.971 30.0679C151.269 30.1477 151.579 30.1683 151.885 30.1283C152.191 30.0883 152.486 29.9883 152.753 29.8346C153.02 29.6808 153.254 29.4759 153.442 29.2318C153.629 28.9877 153.767 28.7091 153.847 28.4118C153.927 28.1145 153.947 27.8044 153.907 27.4993C153.867 27.1941 153.767 26.8999 153.613 26.6333Z" fill="#569FD6"/>
<path d="M181.559 9.44393C182.487 9.44395 183.395 9.16897 184.166 8.65409C184.938 8.13921 185.54 7.4076 185.895 6.55137C186.251 5.69513 186.344 4.75269 186.162 3.8437C185.981 2.93472 185.534 2.10005 184.878 1.4447C184.221 0.789354 183.385 0.342841 182.475 0.162028C181.564 -0.0187859 180.62 0.0741619 179.763 0.428826C178.905 0.783491 178.172 1.38387 177.656 2.15446C177.14 2.92506 176.865 3.83124 176.865 4.75803C176.865 6.00079 177.359 7.19258 178.24 8.07135C179.12 8.95013 180.314 9.44391 181.559 9.44393ZM195.153 26.6333L189.296 13.985L189.285 13.9642L189.208 13.8143C189.156 13.7252 189.097 13.6396 189.034 13.5584C188.549 12.8423 187.897 12.2556 187.133 11.8495C186.369 11.4434 185.517 11.2301 184.652 11.2285H178.465C177.659 11.2302 176.865 11.4157 176.142 11.7709C175.418 12.1261 174.786 12.6417 174.293 13.2781C174.125 13.4347 173.981 13.6154 173.866 13.8143L167.922 26.6333C167.768 26.8999 167.668 27.1941 167.627 27.4993C167.587 27.8044 167.608 28.1145 167.687 28.4118C167.767 28.709 167.905 28.9877 168.093 29.2318C168.281 29.4759 168.515 29.6808 168.782 29.8346C169.049 29.9883 169.344 30.0883 169.649 30.1283C169.955 30.1683 170.266 30.1477 170.563 30.0679C170.861 29.988 171.14 29.8503 171.385 29.6628C171.629 29.4752 171.834 29.2415 171.988 28.9748L176.18 19.5619V48.4278C176.179 48.736 176.239 49.0416 176.357 49.3265C176.475 49.6115 176.647 49.8701 176.865 50.0883C177.083 50.3065 177.342 50.4798 177.628 50.5979C177.913 50.716 178.218 50.777 178.527 50.777C178.836 50.777 179.141 50.716 179.427 50.5979C179.712 50.4798 179.971 50.3065 180.189 50.0883C180.407 49.8701 180.58 49.6115 180.697 49.3265C180.815 49.0416 180.875 48.736 180.874 48.4278V33.6545H182.243V48.4278C182.243 49.0493 182.49 49.6453 182.931 50.0847C183.371 50.5241 183.968 50.7708 184.59 50.7708C185.213 50.7708 185.81 50.5241 186.25 50.0847C186.69 49.6453 186.937 49.0493 186.937 48.4278V19.6449L191.086 28.9745C191.24 29.2412 191.445 29.4752 191.69 29.6628C191.934 29.8503 192.213 29.988 192.511 30.0679C192.809 30.1477 193.119 30.1683 193.425 30.1283C193.731 30.0883 194.026 29.9883 194.293 29.8346C194.56 29.6808 194.794 29.4759 194.982 29.2318C195.17 28.9877 195.307 28.709 195.387 28.4118C195.467 28.1145 195.487 27.8044 195.447 27.4993C195.407 27.1941 195.307 26.8999 195.153 26.6333Z" fill="#569FD6"/>
<path d="M15.3985 72.5052C16.3269 72.5052 17.2344 72.2306 18.0063 71.7157C18.7782 71.2009 19.3799 70.4689 19.7351 69.6126C20.0904 68.7564 20.1834 67.8143 20.0023 66.9053C19.8212 65.9964 19.3742 65.1613 18.7177 64.506C18.0613 63.8506 17.2249 63.4041 16.3144 63.2233C15.4039 63.0425 14.4601 63.1354 13.6024 63.4901C12.7447 63.8448 12.0116 64.4455 11.4959 65.2161C10.9801 65.9867 10.7048 66.8925 10.7048 67.8193C10.7048 69.0621 11.1993 70.2539 12.0796 71.1326C12.9598 72.0114 14.1537 72.5052 15.3985 72.5052ZM28.9924 89.6946L23.1357 77.0462L23.1253 77.0255L23.048 76.8755C22.9957 76.7865 22.9373 76.7009 22.8735 76.6197C22.3892 75.9036 21.7366 75.3169 20.9728 74.9108C20.2089 74.5046 19.3571 74.2914 18.4917 74.2898H12.3051C11.4992 74.2914 10.7045 74.477 9.98141 74.8321C9.25837 75.1873 8.62621 75.703 8.13327 76.3394C7.96512 76.496 7.82126 76.6767 7.70632 76.8755L1.76182 89.6946C1.60764 89.9612 1.50755 90.2554 1.46732 90.5605C1.42709 90.8657 1.44754 91.1757 1.52738 91.473C1.60723 91.7703 1.74497 92.049 1.93273 92.2931C2.12049 92.5372 2.35456 92.7421 2.62164 92.8958C2.88871 93.0496 3.1835 93.1496 3.4892 93.1896C3.7949 93.2296 4.10549 93.209 4.40324 93.1292C4.701 93.0493 4.98014 92.9116 5.22459 92.724C5.46905 92.5365 5.67409 92.3028 5.828 92.0361L10.02 82.6235V111.489C10.02 112.111 10.2672 112.707 10.7073 113.146C11.1475 113.585 11.7445 113.832 12.367 113.832C12.9894 113.832 13.5864 113.585 14.0265 113.146C14.4667 112.707 14.714 112.111 14.714 111.489V96.7158H16.0829V111.489C16.0829 112.111 16.3302 112.707 16.7703 113.146C17.2105 113.585 17.8074 113.832 18.4299 113.832C19.0523 113.832 19.6494 113.585 20.0895 113.146C20.5297 112.707 20.777 112.111 20.777 111.489V82.7062L24.9263 92.0361C25.0802 92.3028 25.2852 92.5365 25.5297 92.724C25.7742 92.9116 26.0532 93.0493 26.351 93.1292C26.6487 93.209 26.9594 93.2296 27.2651 93.1896C27.5708 93.1496 27.8656 93.0496 28.1327 92.8958C28.3997 92.7421 28.6338 92.5372 28.8216 92.2931C29.0093 92.049 29.1471 91.7703 29.2269 91.473C29.3068 91.1757 29.3271 90.8657 29.2869 90.5605C29.2467 90.2554 29.1466 89.9612 28.9924 89.6946Z" fill="#569FD6"/>
<path d="M56.9385 72.5052C57.8669 72.5052 58.7744 72.2306 59.5463 71.7157C60.3182 71.2009 60.9198 70.4689 61.2751 69.6126C61.6304 68.7564 61.7234 67.8143 61.5423 66.9053C61.3612 65.9964 60.9141 65.1613 60.2577 64.506C59.6013 63.8506 58.7649 63.4041 57.8544 63.2233C56.9438 63.0425 56.0001 63.1354 55.1424 63.4901C54.2847 63.8448 53.5516 64.4455 53.0358 65.2161C52.5201 65.9867 52.2448 66.8925 52.2448 67.8193C52.2448 69.0621 52.7393 70.2539 53.6196 71.1326C54.4998 72.0114 55.6936 72.5052 56.9385 72.5052ZM70.5324 89.6946L64.6757 77.0462L64.6652 77.0255L64.5879 76.8755C64.5356 76.7865 64.4773 76.7009 64.4135 76.6197C63.9292 75.9036 63.2767 75.3169 62.5128 74.9108C61.749 74.5046 60.8971 74.2914 60.0317 74.2898H53.8451C53.0392 74.2914 52.2444 74.477 51.5214 74.8321C50.7983 75.1873 50.1662 75.703 49.6732 76.3394C49.5051 76.496 49.3612 76.6767 49.2463 76.8755L43.3018 89.6946C43.1476 89.9612 43.0476 90.2554 43.0074 90.5605C42.9671 90.8657 42.9875 91.1757 43.0674 91.473C43.1472 91.7703 43.2849 92.049 43.4727 92.2931C43.6605 92.5372 43.8945 92.7421 44.1616 92.8958C44.4287 93.0496 44.7236 93.1496 45.0293 93.1896C45.335 93.2296 45.6455 93.209 45.9433 93.1292C46.2411 93.0493 46.5201 92.9116 46.7646 92.724C47.009 92.5365 47.2141 92.3028 47.368 92.0361L51.5599 82.6235V111.489C51.5599 112.111 51.8072 112.707 52.2474 113.146C52.6875 113.585 53.2845 113.832 53.9069 113.832C54.5294 113.832 55.1264 113.585 55.5665 113.146C56.0067 112.707 56.254 112.111 56.254 111.489V96.7158H57.6229V111.489C57.6229 112.111 57.8702 112.707 58.3104 113.146C58.7505 113.585 59.3475 113.832 59.9699 113.832C60.5924 113.832 61.1894 113.585 61.6295 113.146C62.0697 112.707 62.317 112.111 62.317 111.489V82.7062L66.4663 92.0361C66.6202 92.3028 66.8252 92.5365 67.0697 92.724C67.3141 92.9116 67.5933 93.0493 67.891 93.1292C68.1888 93.209 68.4994 93.2296 68.8051 93.1896C69.1108 93.1496 69.4056 93.0496 69.6726 92.8958C69.9397 92.7421 70.1738 92.5372 70.3615 92.2931C70.5493 92.049 70.6871 91.7703 70.767 91.473C70.8468 91.1757 70.8672 90.8657 70.8269 90.5605C70.7867 90.2554 70.6866 89.9612 70.5324 89.6946Z" fill="#569FD6"/>
<path d="M98.4786 72.5052C99.407 72.5052 100.314 72.2306 101.086 71.7157C101.858 71.2009 102.46 70.4689 102.815 69.6126C103.171 68.7564 103.263 67.8143 103.082 66.9053C102.901 65.9964 102.454 65.1613 101.798 64.506C101.141 63.8506 100.305 63.4041 99.3944 63.2233C98.4839 63.0425 97.5401 63.1354 96.6824 63.4901C95.8247 63.8448 95.0916 64.4455 94.5759 65.2161C94.0601 65.9867 93.7849 66.8925 93.7849 67.8193C93.7849 68.4347 93.9062 69.0441 94.1421 69.6126C94.378 70.1812 94.7237 70.6975 95.1596 71.1326C95.5955 71.5678 96.1129 71.913 96.6823 72.1485C97.2518 72.384 97.8622 72.5052 98.4786 72.5052ZM112.072 89.6946L106.216 77.0462L106.205 77.0255L106.128 76.8755C106.076 76.7865 106.017 76.7009 105.954 76.6197C105.469 75.9036 104.817 75.3169 104.053 74.9108C103.289 74.5046 102.437 74.2914 101.572 74.2898H95.3852C94.5794 74.2914 93.7845 74.477 93.0614 74.8321C92.3384 75.1873 91.7063 75.703 91.2134 76.3394C91.0452 76.496 90.9013 76.6767 90.7863 76.8755L84.8419 89.6946C84.6877 89.9612 84.5877 90.2554 84.5474 90.5605C84.5072 90.8657 84.5275 91.1757 84.6074 91.473C84.6872 91.7703 84.825 92.0489 85.0127 92.2931C85.2005 92.5372 85.4347 92.7421 85.7017 92.8958C85.9688 93.0496 86.2636 93.1496 86.5693 93.1896C86.875 93.2296 87.1856 93.209 87.4833 93.1292C87.7811 93.0493 88.0601 92.9116 88.3046 92.724C88.5491 92.5365 88.7541 92.3028 88.908 92.0361L93.1 82.6235V111.489C93.1 111.797 93.1607 112.102 93.2786 112.386C93.3966 112.67 93.5695 112.928 93.7874 113.146C94.0054 113.364 94.2641 113.536 94.5489 113.654C94.8336 113.772 95.1388 113.832 95.447 113.832C95.7552 113.832 96.0604 113.772 96.3452 113.654C96.6299 113.536 96.8887 113.364 97.1066 113.146C97.3246 112.928 97.4974 112.67 97.6153 112.386C97.7333 112.102 97.794 111.797 97.794 111.489V96.7158H99.163V111.489C99.1622 111.797 99.2223 112.103 99.3399 112.388C99.4575 112.673 99.6303 112.932 99.8483 113.15C100.066 113.368 100.325 113.541 100.61 113.659C100.896 113.777 101.201 113.838 101.51 113.838C101.819 113.838 102.124 113.777 102.41 113.659C102.695 113.541 102.954 113.368 103.172 113.15C103.39 112.932 103.562 112.673 103.68 112.388C103.798 112.103 103.858 111.797 103.857 111.489V82.7062L108.006 92.0361C108.16 92.3028 108.365 92.5365 108.61 92.724C108.854 92.9116 109.133 93.0493 109.431 93.1292C109.729 93.209 110.039 93.2296 110.345 93.1896C110.651 93.1496 110.946 93.0496 111.213 92.8958C111.48 92.7421 111.714 92.5372 111.902 92.2931C112.089 92.0489 112.227 91.7703 112.307 91.473C112.387 91.1757 112.407 90.8657 112.367 90.5605C112.327 90.2554 112.227 89.9612 112.072 89.6946Z" fill="#569FD6"/>
<path d="M140.019 72.5052C140.947 72.5052 141.855 72.2306 142.626 71.7157C143.398 71.2009 144 70.4689 144.355 69.6126C144.711 68.7564 144.803 67.8143 144.622 66.9053C144.441 65.9964 143.994 65.1613 143.338 64.506C142.681 63.8506 141.845 63.4041 140.935 63.2233C140.024 63.0425 139.08 63.1354 138.222 63.4901C137.365 63.8448 136.632 64.4455 136.116 65.2161C135.6 65.9867 135.325 66.8925 135.325 67.8193C135.325 69.0621 135.819 70.2539 136.7 71.1326C137.58 72.0114 138.774 72.5052 140.019 72.5052ZM153.613 89.6946L147.756 77.0462L147.745 77.0255L147.668 76.8755C147.616 76.7865 147.557 76.7009 147.494 76.6197C147.009 75.9036 146.357 75.3169 145.593 74.9108C144.829 74.5046 143.977 74.2914 143.112 74.2898H136.925C136.119 74.2914 135.325 74.477 134.602 74.8321C133.879 75.1873 133.246 75.703 132.753 76.3394C132.585 76.496 132.441 76.6767 132.326 76.8755L126.382 89.6946C126.228 89.9612 126.128 90.2554 126.087 90.5605C126.047 90.8657 126.068 91.1757 126.147 91.473C126.227 91.7703 126.365 92.049 126.553 92.2931C126.741 92.5372 126.975 92.7421 127.242 92.8958C127.509 93.0496 127.804 93.1496 128.109 93.1896C128.415 93.2296 128.726 93.209 129.023 93.1292C129.321 93.0493 129.6 92.9116 129.845 92.724C130.089 92.5365 130.294 92.3028 130.448 92.0361L134.64 82.6235V111.489C134.64 112.111 134.887 112.707 135.327 113.146C135.768 113.585 136.365 113.832 136.987 113.832C137.609 113.832 138.206 113.585 138.647 113.146C139.087 112.707 139.334 112.111 139.334 111.489V96.7158H140.703V111.489C140.703 111.797 140.764 112.102 140.882 112.386C141 112.67 141.172 112.928 141.39 113.146C141.608 113.364 141.867 113.536 142.152 113.654C142.437 113.772 142.742 113.832 143.05 113.832C143.358 113.832 143.663 113.772 143.948 113.654C144.233 113.536 144.492 113.364 144.71 113.146C144.928 112.928 145.1 112.67 145.218 112.386C145.336 112.102 145.397 111.797 145.397 111.489V82.7062L149.546 92.0361C149.7 92.3028 149.905 92.5365 150.15 92.724C150.394 92.9116 150.673 93.0493 150.971 93.1292C151.269 93.209 151.579 93.2296 151.885 93.1896C152.191 93.1496 152.486 93.0496 152.753 92.8958C153.02 92.7421 153.254 92.5372 153.442 92.2931C153.629 92.049 153.767 91.7703 153.847 91.473C153.927 91.1757 153.947 90.8657 153.907 90.5605C153.867 90.2554 153.767 89.9612 153.613 89.6946Z" fill="#569FD6"/>
<path d="M181.559 72.5052C182.487 72.5052 183.395 72.2306 184.166 71.7157C184.938 71.2009 185.54 70.4689 185.895 69.6126C186.251 68.7564 186.344 67.8143 186.162 66.9053C185.981 65.9964 185.534 65.1613 184.878 64.506C184.221 63.8506 183.385 63.4041 182.475 63.2233C181.564 63.0425 180.62 63.1354 179.763 63.4901C178.905 63.8448 178.172 64.4455 177.656 65.2161C177.14 65.9867 176.865 66.8925 176.865 67.8193C176.865 69.0621 177.359 70.2539 178.24 71.1326C179.12 72.0114 180.314 72.5052 181.559 72.5052ZM195.153 89.6946L189.296 77.0462L189.285 77.0255L189.208 76.8755C189.156 76.7865 189.097 76.7009 189.034 76.6197C188.549 75.9036 187.897 75.3169 187.133 74.9108C186.369 74.5046 185.517 74.2914 184.652 74.2898H178.465C177.659 74.2914 176.865 74.477 176.142 74.8321C175.418 75.1873 174.786 75.703 174.293 76.3394C174.125 76.496 173.981 76.6767 173.866 76.8755L167.922 89.6946C167.768 89.9612 167.668 90.2554 167.627 90.5605C167.587 90.8657 167.608 91.1757 167.687 91.473C167.767 91.7703 167.905 92.0489 168.093 92.2931C168.281 92.5372 168.515 92.7421 168.782 92.8958C169.049 93.0496 169.344 93.1496 169.649 93.1896C169.955 93.2296 170.266 93.209 170.563 93.1292C170.861 93.0493 171.14 92.9116 171.385 92.724C171.629 92.5365 171.834 92.3028 171.988 92.0361L176.18 82.6235V111.489C176.179 111.797 176.239 112.103 176.357 112.388C176.475 112.673 176.647 112.932 176.865 113.15C177.083 113.368 177.342 113.541 177.628 113.659C177.913 113.777 178.218 113.838 178.527 113.838C178.836 113.838 179.141 113.777 179.427 113.659C179.712 113.541 179.971 113.368 180.189 113.15C180.407 112.932 180.58 112.673 180.697 112.388C180.815 112.103 180.875 111.797 180.874 111.489V96.7158H182.243V111.489C182.243 112.111 182.49 112.707 182.931 113.146C183.371 113.585 183.968 113.832 184.59 113.832C185.213 113.832 185.81 113.585 186.25 113.146C186.69 112.707 186.937 112.111 186.937 111.489V82.7062L191.086 92.0361C191.24 92.3028 191.445 92.5365 191.69 92.724C191.934 92.9116 192.213 93.0493 192.511 93.1292C192.809 93.209 193.119 93.2296 193.425 93.1896C193.731 93.1496 194.026 93.0496 194.293 92.8958C194.56 92.7421 194.794 92.5372 194.982 92.2931C195.17 92.0489 195.307 91.7703 195.387 91.473C195.467 91.1757 195.487 90.8657 195.447 90.5605C195.407 90.2554 195.307 89.9612 195.153 89.6946Z" fill="#569FD6"/>
<path d="M15.3979 135.845C16.3262 135.845 17.2338 135.571 18.0057 135.056C18.7776 134.541 19.3792 133.809 19.7345 132.953C20.0898 132.096 20.1828 131.154 20.0017 130.245C19.8206 129.336 19.3735 128.501 18.7171 127.846C18.0606 127.191 17.2243 126.745 16.3138 126.564C15.4032 126.383 14.4595 126.476 13.6018 126.83C12.7441 127.185 12.011 127.786 11.4952 128.556C10.9795 129.327 10.7041 130.233 10.7041 131.159C10.7041 131.775 10.8256 132.384 11.0614 132.953C11.2973 133.521 11.643 134.038 12.0789 134.473C12.5147 134.908 13.0322 135.253 13.6017 135.489C14.1712 135.724 14.7815 135.845 15.3979 135.845ZM28.9917 153.035L23.135 140.386L23.1246 140.366L23.0473 140.216C22.995 140.127 22.9367 140.041 22.8729 139.96C22.3886 139.244 21.736 138.657 20.9721 138.251C20.2083 137.845 19.3565 137.632 18.491 137.63H12.3044C11.4986 137.632 10.7038 137.817 9.98077 138.172C9.25773 138.527 8.62557 139.043 8.13263 139.679C7.96449 139.836 7.82062 140.017 7.70568 140.216L1.76118 153.035C1.60718 153.301 1.50733 153.596 1.46722 153.901C1.42712 154.206 1.44758 154.516 1.52747 154.813C1.60737 155.11 1.74508 155.388 1.93282 155.632C2.12055 155.876 2.35455 156.081 2.62154 156.235C2.88853 156.389 3.18323 156.489 3.48883 156.529C3.79443 156.569 4.10501 156.548 4.4027 156.468C4.70038 156.389 4.97932 156.251 5.22377 156.064C5.46822 155.876 5.67336 155.643 5.82736 155.376L10.0193 145.964V174.829C10.0193 175.451 10.2665 176.047 10.7067 176.486C11.1468 176.925 11.7439 177.173 12.3663 177.173C12.9888 177.173 13.5857 176.925 14.0259 176.486C14.4661 176.047 14.7133 175.451 14.7133 174.829V160.056H16.0822V174.829C16.0822 175.451 16.3295 176.047 16.7697 176.486C17.2098 176.925 17.8068 177.173 18.4292 177.173C19.0517 177.173 19.6487 176.925 20.0889 176.486C20.529 176.047 20.7763 175.451 20.7763 174.829V146.046L24.9257 155.376C25.0797 155.643 25.2847 155.876 25.5292 156.064C25.7736 156.251 26.0526 156.389 26.3503 156.468C26.648 156.548 26.9585 156.569 27.2641 156.529C27.5697 156.489 27.8644 156.389 28.1314 156.235C28.3984 156.081 28.6325 155.876 28.8202 155.632C29.0079 155.388 29.1456 155.11 29.2255 154.813C29.3054 154.516 29.3259 154.206 29.2858 153.901C29.2457 153.596 29.1457 153.301 28.9917 153.035Z" fill="#569FD6"/>
<path d="M56.9379 135.845C57.8663 135.845 58.7738 135.571 59.5457 135.056C60.3176 134.541 60.9193 133.809 61.2745 132.953C61.6298 132.096 61.7228 131.154 61.5417 130.245C61.3606 129.336 60.9136 128.501 60.2571 127.846C59.6007 127.191 58.7643 126.745 57.8538 126.564C56.9433 126.383 55.9995 126.476 55.1418 126.83C54.2841 127.185 53.551 127.786 53.0353 128.556C52.5195 129.327 52.2443 130.233 52.2443 131.159C52.2443 131.775 52.3656 132.384 52.6015 132.953C52.8374 133.521 53.1831 134.038 53.619 134.473C54.0548 134.908 54.5723 135.253 55.1417 135.489C55.7112 135.724 56.3215 135.845 56.9379 135.845ZM70.5319 153.035L64.6752 140.386L64.6647 140.366L64.5874 140.216C64.5351 140.127 64.4768 140.041 64.4129 139.96C63.9286 139.244 63.2761 138.657 62.5123 138.251C61.7484 137.845 60.8965 137.632 60.0311 137.63H53.8445C53.0386 137.632 52.2439 137.817 51.5208 138.172C50.7978 138.527 50.1656 139.043 49.6727 139.679C49.5045 139.836 49.3607 140.017 49.2457 140.216L43.3012 153.035C43.1472 153.301 43.0474 153.596 43.0073 153.901C42.9672 154.206 42.9876 154.516 43.0675 154.813C43.1474 155.11 43.2851 155.388 43.4729 155.632C43.6606 155.876 43.8947 156.081 44.1617 156.235C44.4287 156.389 44.7234 156.489 45.029 156.529C45.3346 156.569 45.6451 156.548 45.9427 156.468C46.2404 156.389 46.5195 156.251 46.7639 156.064C47.0083 155.876 47.2134 155.643 47.3674 155.376L51.5594 145.964V174.829C51.5594 175.451 51.8067 176.047 52.2468 176.486C52.687 176.925 53.2839 177.173 53.9064 177.173C54.5288 177.173 55.1258 176.925 55.5659 176.486C56.0061 176.047 56.2534 175.451 56.2534 174.829V160.056H57.6224V174.829C57.6224 175.451 57.8697 176.047 58.3098 176.486C58.75 176.925 59.3469 177.173 59.9694 177.173C60.5918 177.173 61.1888 176.925 61.6289 176.486C62.0691 176.047 62.3164 175.451 62.3164 174.829V146.046L66.4658 155.376C66.6195 155.643 66.8244 155.877 67.0689 156.065C67.3134 156.253 67.5925 156.391 67.8905 156.471C68.1884 156.551 68.4992 156.572 68.8051 156.532C69.1111 156.492 69.4062 156.392 69.6734 156.238C69.9407 156.085 70.1749 155.879 70.3627 155.635C70.5505 155.391 70.6883 155.112 70.768 154.814C70.8478 154.517 70.8679 154.206 70.8274 153.901C70.7869 153.596 70.6865 153.301 70.5319 153.035Z" fill="#569FD6"/>
<path d="M98.4998 135.665C99.4379 135.665 100.355 135.387 101.135 134.866C101.915 134.346 102.523 133.607 102.882 132.741C103.241 131.876 103.335 130.924 103.152 130.006C102.969 129.087 102.517 128.243 101.853 127.581C101.19 126.919 100.345 126.468 99.425 126.285C98.5049 126.103 97.5513 126.197 96.6847 126.555C95.818 126.914 95.0773 127.52 94.5561 128.299C94.035 129.078 93.7568 129.993 93.7568 130.93C93.7568 131.551 93.8794 132.167 94.1178 132.741C94.3561 133.316 94.7055 133.838 95.146 134.278C95.5864 134.717 96.1093 135.066 96.6847 135.304C97.2602 135.542 97.8769 135.665 98.4998 135.665Z" fill="#F47D39"/>
<path d="M113.589 153.048L106.318 140.254L106.307 140.232L106.229 140.08C106.176 139.991 106.117 139.904 106.053 139.822C105.564 139.098 104.904 138.506 104.132 138.095C103.36 137.685 102.5 137.469 101.625 137.468H95.3737C94.5594 137.469 93.7562 137.657 93.0256 138.016C92.2949 138.375 91.6562 138.896 91.158 139.539C90.9883 139.697 90.843 139.88 90.7268 140.08L83.3671 153.048C83.2115 153.317 83.1105 153.614 83.0699 153.923C83.0294 154.231 83.0502 154.544 83.1309 154.844C83.2117 155.145 83.3509 155.426 83.5406 155.673C83.7302 155.919 83.9667 156.126 84.2365 156.282C84.5063 156.437 84.8041 156.537 85.1129 156.578C85.4217 156.618 85.7353 156.598 86.0361 156.517C86.3369 156.437 86.6189 156.298 86.8659 156.108C87.1129 155.919 87.3201 155.683 87.4757 155.414L91.3696 149.183L88.35 164.294C88.3 164.493 88.2975 164.702 88.3428 164.903C88.388 165.104 88.4797 165.291 88.6105 165.451C88.7413 165.61 88.9076 165.737 89.0961 165.82C89.2846 165.904 89.4901 165.942 89.6962 165.932H93.0643V175.084C93.0659 175.711 93.3165 176.312 93.7611 176.755C94.2057 177.198 94.808 177.446 95.4359 177.446C96.0639 177.446 96.6663 177.198 97.1109 176.755C97.5555 176.312 97.8061 175.711 97.8076 175.084V165.932H99.1907V175.084C99.1923 175.711 99.4429 176.312 99.8875 176.755C100.332 177.198 100.934 177.446 101.562 177.446C102.19 177.446 102.793 177.198 103.237 176.755C103.682 176.312 103.932 175.711 103.934 175.084V165.932H107.259C107.465 165.942 107.671 165.904 107.859 165.82C108.048 165.737 108.214 165.61 108.345 165.451C108.476 165.291 108.567 165.104 108.613 164.903C108.658 164.702 108.655 164.493 108.605 164.294L105.586 149.183L109.48 155.414C109.635 155.683 109.843 155.919 110.09 156.108C110.337 156.298 110.619 156.437 110.919 156.517C111.22 156.598 111.534 156.618 111.843 156.578C112.152 156.537 112.449 156.437 112.719 156.282C112.989 156.126 113.225 155.919 113.415 155.673C113.605 155.426 113.744 155.145 113.825 154.844C113.905 154.544 113.926 154.231 113.886 153.923C113.845 153.614 113.744 153.317 113.589 153.048Z" fill="#F47D39"/>
<path d="M140.037 135.665C140.975 135.665 141.892 135.387 142.672 134.866C143.452 134.346 144.06 133.607 144.419 132.741C144.778 131.876 144.872 130.924 144.689 130.006C144.506 129.087 144.054 128.243 143.391 127.581C142.727 126.919 141.882 126.468 140.962 126.285C140.042 126.103 139.089 126.197 138.222 126.555C137.355 126.914 136.614 127.52 136.093 128.299C135.572 129.078 135.294 129.993 135.294 130.93C135.294 131.551 135.417 132.167 135.655 132.741C135.893 133.316 136.243 133.838 136.683 134.278C137.124 134.717 137.646 135.066 138.222 135.304C138.797 135.542 139.414 135.665 140.037 135.665Z" fill="#F47D39"/>
<path d="M155.126 153.048L147.855 140.254L147.844 140.232L147.766 140.08C147.713 139.991 147.654 139.904 147.59 139.822C147.101 139.098 146.441 138.506 145.669 138.095C144.897 137.685 144.037 137.469 143.162 137.468H136.911C136.096 137.469 135.293 137.657 134.563 138.016C133.832 138.375 133.193 138.896 132.695 139.539C132.525 139.697 132.38 139.88 132.264 140.08L124.904 153.048C124.749 153.317 124.648 153.614 124.607 153.923C124.567 154.231 124.587 154.544 124.668 154.844C124.749 155.145 124.888 155.426 125.078 155.673C125.267 155.919 125.504 156.126 125.774 156.282C126.043 156.437 126.341 156.537 126.65 156.578C126.959 156.618 127.272 156.598 127.573 156.517C127.874 156.437 128.156 156.298 128.403 156.108C128.65 155.919 128.857 155.683 129.013 155.414L132.907 149.183L129.887 164.294C129.837 164.493 129.835 164.702 129.88 164.903C129.925 165.104 130.017 165.292 130.148 165.451C130.278 165.61 130.445 165.737 130.633 165.82C130.822 165.904 131.027 165.942 131.233 165.932H134.601V175.084C134.601 175.712 134.851 176.315 135.296 176.759C135.741 177.203 136.344 177.452 136.973 177.452C137.602 177.452 138.205 177.203 138.65 176.759C139.095 176.315 139.345 175.712 139.345 175.084V165.932H140.728V175.084C140.728 175.712 140.978 176.315 141.422 176.759C141.867 177.203 142.47 177.452 143.099 177.452C143.728 177.452 144.332 177.203 144.776 176.759C145.221 176.315 145.471 175.712 145.471 175.084V165.932H148.796C149.002 165.942 149.208 165.904 149.396 165.82C149.585 165.737 149.751 165.61 149.882 165.451C150.013 165.291 150.105 165.104 150.15 164.903C150.195 164.702 150.192 164.493 150.142 164.294L147.123 149.183L151.017 155.414C151.173 155.683 151.38 155.919 151.627 156.108C151.874 156.298 152.156 156.437 152.457 156.517C152.757 156.598 153.071 156.618 153.38 156.578C153.689 156.537 153.986 156.437 154.256 156.282C154.526 156.126 154.762 155.919 154.952 155.673C155.142 155.426 155.281 155.145 155.362 154.844C155.442 154.544 155.463 154.231 155.423 153.923C155.382 153.614 155.281 153.317 155.126 153.048Z" fill="#F47D39"/>
<path d="M181.574 135.665C182.512 135.665 183.429 135.387 184.209 134.866C184.989 134.346 185.597 133.607 185.956 132.741C186.315 131.876 186.409 130.924 186.226 130.006C186.043 129.087 185.591 128.243 184.928 127.581C184.264 126.919 183.419 126.468 182.499 126.285C181.579 126.103 180.626 126.197 179.759 126.555C178.892 126.914 178.152 127.52 177.63 128.299C177.109 129.078 176.831 129.993 176.831 130.93C176.831 131.551 176.954 132.167 177.192 132.741C177.43 133.316 177.78 133.838 178.22 134.278C178.661 134.717 179.184 135.066 179.759 135.304C180.334 135.542 180.951 135.665 181.574 135.665Z" fill="#F47D39"/>
<path d="M196.663 153.048L189.392 140.254L189.381 140.232L189.303 140.08C189.25 139.991 189.191 139.904 189.127 139.822C188.638 139.098 187.978 138.506 187.206 138.095C186.435 137.685 185.574 137.469 184.699 137.468H178.448C177.634 137.469 176.83 137.657 176.1 138.016C175.369 138.375 174.73 138.896 174.232 139.539C174.062 139.697 173.917 139.88 173.801 140.08L166.441 153.048C166.286 153.317 166.185 153.614 166.144 153.923C166.104 154.231 166.124 154.544 166.205 154.844C166.286 155.145 166.425 155.426 166.615 155.673C166.804 155.919 167.041 156.126 167.311 156.282C167.58 156.437 167.878 156.537 168.187 156.578C168.496 156.618 168.81 156.598 169.11 156.517C169.411 156.437 169.693 156.298 169.94 156.108C170.187 155.919 170.394 155.683 170.55 155.414L174.444 149.183L171.424 164.294C171.374 164.493 171.372 164.702 171.417 164.903C171.462 165.104 171.554 165.291 171.685 165.451C171.816 165.61 171.982 165.737 172.17 165.82C172.359 165.904 172.564 165.942 172.77 165.932H176.139V175.084C176.14 175.711 176.391 176.312 176.835 176.755C177.28 177.198 177.882 177.446 178.51 177.446C179.138 177.446 179.74 177.198 180.185 176.755C180.63 176.312 180.88 175.711 180.882 175.084V165.932H182.265V175.084C182.266 175.711 182.517 176.312 182.962 176.755C183.406 177.198 184.009 177.446 184.637 177.446C185.264 177.446 185.867 177.198 186.311 176.755C186.756 176.312 187.007 175.711 187.008 175.084V165.932H190.334C190.54 165.942 190.745 165.904 190.933 165.82C191.122 165.737 191.288 165.61 191.419 165.451C191.55 165.291 191.642 165.104 191.687 164.903C191.732 164.702 191.729 164.493 191.679 164.294L188.66 149.183L192.554 155.414C192.71 155.683 192.917 155.919 193.164 156.108C193.411 156.298 193.693 156.437 193.994 156.517C194.294 156.598 194.608 156.618 194.917 156.578C195.226 156.537 195.523 156.437 195.793 156.282C196.063 156.126 196.3 155.919 196.489 155.673C196.679 155.426 196.818 155.145 196.899 154.844C196.98 154.544 197 154.231 196.96 153.923C196.919 153.614 196.818 153.317 196.663 153.048Z" fill="#F47D39"/>
<path d="M15.4481 199.284C16.3862 199.284 17.3032 199.007 18.0832 198.486C18.8631 197.966 19.471 197.226 19.83 196.361C20.1889 195.496 20.2829 194.544 20.0999 193.626C19.9168 192.707 19.4651 191.864 18.8018 191.201C18.1385 190.539 17.2933 190.088 16.3733 189.906C15.4533 189.723 14.4996 189.817 13.633 190.175C12.7663 190.533 12.0256 191.14 11.5045 191.919C10.9833 192.698 10.7051 193.613 10.7051 194.549C10.7051 195.171 10.8278 195.787 11.0661 196.362C11.3045 196.936 11.6539 197.458 12.0943 197.898C12.5347 198.337 13.0576 198.686 13.6331 198.924C14.2085 199.162 14.8253 199.284 15.4481 199.284Z" fill="#F47D39"/>
<path d="M30.5369 216.668L23.2663 203.873L23.2553 203.852L23.1772 203.701C23.1243 203.611 23.0654 203.524 23.0011 203.442C22.5117 202.719 21.8523 202.125 21.0804 201.715C20.3085 201.305 19.4478 201.09 18.5732 201.088H12.3218C11.5075 201.09 10.7044 201.277 9.97374 201.636C9.2431 201.995 8.60435 202.516 8.10618 203.159C7.93643 203.317 7.79114 203.5 7.67495 203.701L0.315267 216.668C0.159663 216.937 0.0587303 217.234 0.0182111 217.542C-0.0223082 217.851 -0.00163594 218.164 0.0790989 218.464C0.159834 218.765 0.299027 219.046 0.488725 219.292C0.678423 219.539 0.914871 219.746 1.18465 219.901C1.45443 220.057 1.75226 220.158 2.06105 220.198C2.36985 220.238 2.68361 220.218 2.9844 220.137C3.28519 220.057 3.56713 219.918 3.81413 219.728C4.06113 219.539 4.26832 219.303 4.42392 219.033L8.31783 212.803L5.29814 227.914C5.24815 228.114 5.2457 228.322 5.29094 228.523C5.33617 228.724 5.42783 228.912 5.55864 229.071C5.68946 229.23 5.85578 229.356 6.04429 229.44C6.2328 229.523 6.4383 229.562 6.64433 229.552H10.0125V238.704C10.0117 239.016 10.0725 239.324 10.1913 239.612C10.3102 239.9 10.4847 240.162 10.705 240.382C10.9253 240.603 11.187 240.778 11.4752 240.897C11.7633 241.016 12.0722 241.078 12.3842 241.078C12.6961 241.078 13.005 241.016 13.2931 240.897C13.5813 240.778 13.843 240.603 14.0633 240.382C14.2836 240.162 14.4581 239.9 14.577 239.612C14.6958 239.324 14.7566 239.016 14.7558 238.704V229.552H16.1389V238.704C16.1381 239.016 16.1989 239.324 16.3178 239.612C16.4366 239.9 16.6111 240.162 16.8314 240.382C17.0517 240.603 17.3135 240.778 17.6016 240.897C17.8897 241.016 18.1986 241.078 18.5105 241.078C18.8225 241.078 19.1314 241.016 19.4195 240.897C19.7076 240.778 19.9693 240.603 20.1896 240.382C20.4099 240.162 20.5845 239.9 20.7033 239.612C20.8222 239.324 20.8829 239.016 20.8822 238.704V229.552H24.2076C24.4136 229.562 24.619 229.523 24.8075 229.44C24.996 229.356 25.1624 229.23 25.2932 229.071C25.424 228.912 25.5157 228.724 25.5609 228.523C25.6061 228.322 25.6035 228.113 25.5535 227.914L22.5341 212.803L26.428 219.033C26.5836 219.303 26.7908 219.539 27.0378 219.728C27.2848 219.918 27.5668 220.057 27.8676 220.137C28.1684 220.218 28.4821 220.238 28.7909 220.198C29.0997 220.158 29.3975 220.057 29.6672 219.901C29.937 219.746 30.1736 219.539 30.3633 219.292C30.553 219.046 30.6921 218.765 30.7729 218.464C30.8536 218.164 30.8743 217.851 30.8338 217.542C30.7933 217.234 30.6925 216.937 30.5369 216.668Z" fill="#F47D39"/>
<path d="M56.9852 199.284C57.9233 199.284 58.8403 199.007 59.6203 198.486C60.4002 197.966 61.0081 197.226 61.3671 196.361C61.726 195.496 61.82 194.544 61.637 193.626C61.454 192.707 61.0022 191.864 60.3389 191.201C59.6756 190.539 58.8304 190.088 57.9104 189.906C56.9904 189.723 56.0367 189.817 55.1701 190.175C54.3034 190.533 53.5627 191.14 53.0416 191.919C52.5204 192.698 52.2422 193.613 52.2422 194.549C52.2422 195.171 52.3649 195.787 52.6032 196.362C52.8416 196.936 53.191 197.458 53.6314 197.898C54.0718 198.337 54.5947 198.686 55.1702 198.924C55.7456 199.162 56.3624 199.284 56.9852 199.284Z" fill="#F47D39"/>
<path d="M72.074 216.668L64.8034 203.873L64.7924 203.852L64.7143 203.701C64.6614 203.611 64.6026 203.524 64.5383 203.442C64.0489 202.719 63.3895 202.125 62.6176 201.715C61.8457 201.305 60.9848 201.09 60.1103 201.088H53.859C53.0447 201.09 52.2416 201.277 51.5109 201.636C50.7803 201.995 50.1415 202.516 49.6434 203.159C49.4736 203.317 49.3282 203.5 49.212 203.701L41.8524 216.668C41.6967 216.937 41.5958 217.234 41.5553 217.542C41.5148 217.851 41.5355 218.164 41.6163 218.464C41.697 218.765 41.8362 219.046 42.0259 219.292C42.2156 219.539 42.452 219.746 42.7218 219.901C42.9916 220.057 43.2894 220.158 43.5982 220.198C43.907 220.238 44.2207 220.218 44.5215 220.137C44.8223 220.057 45.1042 219.918 45.3512 219.728C45.5982 219.539 45.8055 219.303 45.9611 219.033L49.8549 212.803L46.8353 227.914C46.7853 228.114 46.7829 228.322 46.8281 228.523C46.8734 228.724 46.965 228.912 47.0958 229.071C47.2266 229.23 47.393 229.356 47.5815 229.44C47.77 229.523 47.9755 229.562 48.1815 229.552H51.5497V238.704C51.5497 239.332 51.7995 239.934 52.2443 240.378C52.6891 240.822 53.2923 241.072 53.9213 241.072C54.5503 241.072 55.1536 240.822 55.5983 240.378C56.0431 239.934 56.2929 239.332 56.2929 238.704V229.552H57.6761V238.704C57.6761 239.332 57.9259 239.934 58.3707 240.378C58.8154 240.822 59.4187 241.072 60.0477 241.072C60.6767 241.072 61.2799 240.822 61.7247 240.378C62.1695 239.934 62.4193 239.332 62.4193 238.704V229.552H65.7447C65.9507 229.562 66.1562 229.523 66.3447 229.44C66.5332 229.356 66.6995 229.23 66.8303 229.071C66.9611 228.912 67.0527 228.724 67.0979 228.523C67.1432 228.322 67.1407 228.113 67.0907 227.914L64.0713 212.803L67.9651 219.033C68.1208 219.303 68.328 219.539 68.575 219.728C68.822 219.918 69.104 220.057 69.4048 220.137C69.7056 220.218 70.0193 220.238 70.3281 220.198C70.6369 220.158 70.9346 220.057 71.2044 219.901C71.4742 219.746 71.7106 219.539 71.9003 219.292C72.09 219.046 72.2292 218.765 72.31 218.464C72.3907 218.164 72.4115 217.851 72.371 217.542C72.3304 217.234 72.2296 216.937 72.074 216.668Z" fill="#F47D39"/>
<path d="M98.5224 199.284C99.4604 199.284 100.377 199.007 101.157 198.486C101.937 197.966 102.545 197.226 102.904 196.361C103.263 195.496 103.357 194.544 103.174 193.626C102.991 192.707 102.539 191.864 101.876 191.201C101.213 190.539 100.368 190.088 99.4475 189.906C98.5275 189.723 97.5739 189.817 96.7072 190.175C95.8406 190.533 95.0997 191.14 94.5786 191.919C94.0574 192.698 93.7793 193.613 93.7793 194.549C93.7793 195.171 93.902 195.787 94.1403 196.362C94.3787 196.936 94.728 197.458 95.1684 197.898C95.6089 198.337 96.1317 198.686 96.7072 198.924C97.2827 199.162 97.8995 199.284 98.5224 199.284Z" fill="#F47D39"/>
<path d="M113.611 216.668L106.34 203.873L106.33 203.852L106.251 203.701C106.199 203.611 106.14 203.524 106.075 203.442C105.586 202.719 104.927 202.125 104.155 201.715C103.383 201.305 102.522 201.09 101.647 201.088H95.3962C94.5819 201.09 93.7787 201.277 93.0481 201.636C92.3174 201.995 91.6786 202.516 91.1804 203.159C91.0107 203.317 90.8654 203.5 90.7492 203.701L83.3895 216.668C83.2339 216.937 83.1329 217.234 83.0924 217.542C83.0519 217.851 83.0726 218.164 83.1533 218.464C83.2341 218.765 83.3732 219.046 83.5629 219.292C83.7526 219.539 83.9891 219.746 84.2589 219.901C84.5287 220.057 84.8265 220.158 85.1353 220.198C85.4441 220.238 85.7578 220.218 86.0586 220.137C86.3594 220.057 86.6414 219.918 86.8884 219.728C87.1354 219.539 87.3425 219.303 87.4981 219.033L91.392 212.803L88.3724 227.914C88.3224 228.114 88.3199 228.322 88.3652 228.523C88.4104 228.724 88.5021 228.912 88.633 229.071C88.7638 229.23 88.9301 229.356 89.1186 229.44C89.3071 229.523 89.5125 229.562 89.7185 229.552H93.0868V238.704C93.0868 239.332 93.3366 239.934 93.7814 240.378C94.2261 240.822 94.8294 241.072 95.4584 241.072C96.0874 241.072 96.6906 240.822 97.1354 240.378C97.5801 239.934 97.83 239.332 97.83 238.704V229.552H99.2131V238.704C99.2124 239.016 99.2731 239.324 99.392 239.612C99.5108 239.9 99.6854 240.162 99.9057 240.382C100.126 240.603 100.388 240.778 100.676 240.897C100.964 241.016 101.273 241.078 101.585 241.078C101.897 241.078 102.206 241.016 102.494 240.897C102.782 240.778 103.044 240.603 103.264 240.382C103.484 240.162 103.659 239.9 103.778 239.612C103.896 239.324 103.957 239.016 103.956 238.704V229.552H107.282C107.488 229.562 107.693 229.523 107.882 229.44C108.07 229.356 108.237 229.23 108.367 229.071C108.498 228.912 108.59 228.724 108.635 228.523C108.68 228.322 108.678 228.113 108.628 227.914L105.608 212.803L109.502 219.033C109.658 219.303 109.865 219.539 110.112 219.728C110.359 219.918 110.641 220.057 110.942 220.137C111.243 220.218 111.556 220.238 111.865 220.198C112.174 220.158 112.472 220.057 112.742 219.901C113.011 219.746 113.248 219.539 113.437 219.292C113.627 219.046 113.766 218.765 113.847 218.464C113.928 218.164 113.949 217.851 113.908 217.542C113.867 217.234 113.767 216.937 113.611 216.668Z" fill="#F47D39"/>
<path d="M140.058 199.284C140.996 199.284 141.913 199.007 142.693 198.486C143.473 197.966 144.081 197.226 144.44 196.361C144.799 195.496 144.893 194.544 144.71 193.626C144.527 192.707 144.075 191.864 143.412 191.201C142.749 190.539 141.904 190.088 140.984 189.906C140.064 189.723 139.11 189.817 138.243 190.175C137.377 190.533 136.636 191.14 136.115 191.919C135.594 192.698 135.315 193.613 135.315 194.549C135.315 195.171 135.438 195.787 135.676 196.362C135.915 196.936 136.264 197.458 136.705 197.898C137.145 198.337 137.668 198.686 138.243 198.924C138.819 199.162 139.436 199.284 140.058 199.284Z" fill="#F47D39"/>
<path d="M155.147 216.668L147.877 203.873L147.866 203.852L147.787 203.701C147.735 203.611 147.676 203.524 147.611 203.442C147.122 202.719 146.463 202.125 145.691 201.715C144.919 201.305 144.058 201.09 143.184 201.088H136.932C136.118 201.09 135.315 201.277 134.584 201.636C133.854 201.995 133.215 202.516 132.717 203.159C132.547 203.317 132.401 203.5 132.285 203.701L124.926 216.668C124.77 216.937 124.669 217.234 124.629 217.542C124.588 217.851 124.609 218.164 124.689 218.464C124.77 218.765 124.909 219.046 125.099 219.292C125.289 219.539 125.525 219.746 125.795 219.901C126.065 220.057 126.363 220.158 126.671 220.198C126.98 220.238 127.294 220.218 127.595 220.137C127.896 220.057 128.177 219.918 128.424 219.728C128.671 219.539 128.879 219.303 129.034 219.033L132.928 212.803L129.909 227.914C129.859 228.114 129.856 228.322 129.901 228.523C129.947 228.724 130.038 228.912 130.169 229.071C130.3 229.23 130.466 229.356 130.655 229.44C130.843 229.523 131.049 229.562 131.255 229.552H134.623V238.704C134.623 239.332 134.873 239.934 135.318 240.378C135.762 240.822 136.366 241.072 136.995 241.072C137.624 241.072 138.227 240.822 138.672 240.378C139.116 239.934 139.366 239.332 139.366 238.704V229.552H140.749V238.704C140.749 239.332 140.999 239.934 141.444 240.378C141.889 240.822 142.492 241.072 143.121 241.072C143.75 241.072 144.353 240.822 144.798 240.378C145.243 239.934 145.493 239.332 145.493 238.704V229.552H148.818C149.024 229.562 149.229 229.523 149.418 229.44C149.606 229.356 149.773 229.23 149.904 229.071C150.034 228.912 150.126 228.724 150.171 228.523C150.216 228.322 150.214 228.113 150.164 227.914L147.145 212.803L151.038 219.033C151.194 219.303 151.401 219.539 151.648 219.728C151.895 219.918 152.177 220.057 152.478 220.137C152.779 220.218 153.092 220.238 153.401 220.198C153.71 220.158 154.008 220.057 154.278 219.901C154.547 219.746 154.784 219.539 154.974 219.292C155.163 219.046 155.302 218.765 155.383 218.464C155.464 218.164 155.485 217.851 155.444 217.542C155.404 217.234 155.303 216.937 155.147 216.668Z" fill="#F47D39"/>
<path d="M181.596 199.284C182.534 199.284 183.451 199.007 184.231 198.486C185.011 197.966 185.618 197.226 185.977 196.361C186.336 195.496 186.43 194.544 186.247 193.626C186.064 192.707 185.612 191.864 184.949 191.201C184.286 190.539 183.441 190.088 182.521 189.906C181.601 189.723 180.647 189.817 179.78 190.175C178.914 190.533 178.173 191.14 177.652 191.919C177.131 192.698 176.853 193.613 176.853 194.549C176.853 195.171 176.975 195.787 177.214 196.362C177.452 196.936 177.801 197.458 178.242 197.898C178.682 198.337 179.205 198.686 179.78 198.924C180.356 199.162 180.973 199.284 181.596 199.284Z" fill="#F47D39"/>
<path d="M196.684 216.668L189.414 203.873L189.403 203.852L189.325 203.701C189.272 203.611 189.213 203.524 189.149 203.442C188.659 202.719 188 202.125 187.228 201.715C186.456 201.305 185.595 201.09 184.721 201.088H178.469C177.655 201.09 176.852 201.277 176.121 201.636C175.391 201.995 174.752 202.516 174.254 203.159C174.084 203.317 173.939 203.5 173.822 203.701L166.463 216.668C166.307 216.937 166.206 217.234 166.166 217.542C166.125 217.851 166.146 218.164 166.227 218.464C166.307 218.765 166.446 219.046 166.636 219.292C166.826 219.539 167.062 219.746 167.332 219.901C167.602 220.057 167.9 220.158 168.209 220.198C168.517 220.238 168.831 220.218 169.132 220.137C169.433 220.057 169.715 219.918 169.962 219.728C170.209 219.539 170.416 219.303 170.571 219.033L174.465 212.803L171.446 227.914C171.396 228.114 171.393 228.322 171.438 228.523C171.484 228.724 171.575 228.912 171.706 229.071C171.837 229.23 172.003 229.356 172.192 229.44C172.38 229.523 172.586 229.562 172.792 229.552H176.16V238.704C176.159 239.016 176.22 239.324 176.339 239.612C176.458 239.9 176.632 240.162 176.852 240.382C177.073 240.603 177.335 240.778 177.623 240.897C177.911 241.016 178.22 241.078 178.532 241.078C178.844 241.078 179.152 241.016 179.441 240.897C179.729 240.778 179.99 240.603 180.211 240.382C180.431 240.162 180.606 239.9 180.724 239.612C180.843 239.324 180.904 239.016 180.903 238.704V229.552H182.286V238.704C182.286 239.332 182.536 239.934 182.981 240.378C183.426 240.822 184.029 241.072 184.658 241.072C185.287 241.072 185.89 240.822 186.335 240.378C186.78 239.934 187.03 239.332 187.03 238.704V229.552H190.355C190.561 229.562 190.767 229.523 190.955 229.44C191.144 229.356 191.31 229.23 191.441 229.071C191.571 228.912 191.663 228.724 191.708 228.523C191.754 228.322 191.751 228.113 191.701 227.914L188.682 212.803L192.576 219.033C192.731 219.303 192.938 219.539 193.185 219.728C193.432 219.918 193.714 220.057 194.015 220.137C194.316 220.218 194.63 220.238 194.938 220.198C195.247 220.158 195.545 220.057 195.815 219.901C196.085 219.746 196.321 219.539 196.511 219.292C196.7 219.046 196.84 218.765 196.92 218.464C197.001 218.164 197.022 217.851 196.981 217.542C196.941 217.234 196.84 216.937 196.684 216.668Z" fill="#F47D39"/>
</g>
<defs>
<clipPath id="clip0_791_2366">
<rect width="197" height="241" fill="white" transform="translate(0 0.0720215)"/>
</clipPath>
</defs>
</svg>
