<svg width="456" height="128" viewBox="0 0 456 128" fill="none" xmlns="http://www.w3.org/2000/svg">
<g clip-path="url(#clip0_617_2197)">
<path d="M15.7747 10.6434C16.8246 10.6434 17.8509 10.3313 18.7239 9.74659C19.5968 9.16184 20.2773 8.33076 20.6791 7.35834C21.0809 6.38592 21.186 5.3158 20.9812 4.28348C20.7764 3.25115 20.2709 2.30291 19.5285 1.55864C18.7861 0.814374 17.8402 0.307584 16.8105 0.102236C15.7807 -0.103112 14.7135 0.00224091 13.7435 0.40503C12.7736 0.807819 11.9444 1.48997 11.3611 2.36513C10.7778 3.24029 10.4666 4.26911 10.4666 5.32166C10.4666 6.73305 11.0258 8.08666 12.0212 9.08468C13.0167 10.0827 14.3668 10.6434 15.7747 10.6434ZM31.1484 30.1652L24.5249 15.8006L24.513 15.7771L24.4256 15.6067C24.3664 15.5056 24.3005 15.4085 24.2283 15.3162C23.6806 14.503 22.9426 13.8367 22.0788 13.3755C21.2149 12.9142 20.2516 12.6722 19.2729 12.6704H12.2763C11.3649 12.6722 10.4662 12.8828 9.64849 13.2862C8.83079 13.6896 8.11588 14.2751 7.5584 14.9978C7.36825 15.1757 7.20555 15.3809 7.07556 15.6067L0.35273 30.1652C0.178363 30.4679 0.0652731 30.8021 0.0197738 31.1486C-0.0257256 31.4952 -0.00269771 31.8474 0.087602 32.1851C0.177902 32.5227 0.33377 32.8392 0.546113 33.1165C0.758455 33.3938 1.02317 33.6263 1.32521 33.8009C1.62725 33.9756 1.96063 34.0889 2.30635 34.1343C2.65207 34.1798 3.00332 34.1565 3.34006 34.0658C3.6768 33.9751 3.99237 33.8187 4.26883 33.6057C4.54529 33.3927 4.77717 33.1272 4.95124 32.8243L9.692 22.1345V54.9171C9.692 55.6229 9.97167 56.2997 10.4694 56.7987C10.9672 57.2977 11.6424 57.5781 12.3464 57.5781C13.0503 57.5781 13.7253 57.2977 14.2231 56.7987C14.7209 56.2997 15.0005 55.6229 15.0005 54.9171V38.1393H16.5488V54.9171C16.5488 55.6229 16.8283 56.2997 17.3261 56.7987C17.8238 57.2977 18.499 57.5781 19.203 57.5781C19.907 57.5781 20.5821 57.2977 21.0799 56.7987C21.5777 56.2997 21.8574 55.6229 21.8574 54.9171V22.2286L26.5499 32.8243C26.7239 33.1272 26.9558 33.3927 27.2323 33.6057C27.5088 33.8187 27.8243 33.9751 28.1611 34.0658C28.4978 34.1565 28.8491 34.1798 29.1948 34.1343C29.5405 34.0889 29.8739 33.9756 30.1759 33.8009C30.478 33.6263 30.7427 33.3938 30.955 33.1165C31.1674 32.8392 31.3232 32.5227 31.4135 32.1851C31.5038 31.8474 31.5268 31.4952 31.4813 31.1486C31.4359 30.8021 31.3228 30.4679 31.1484 30.1652Z" fill="#569FD6"/>
<path d="M62.7532 10.6434C63.8031 10.6434 64.8296 10.3313 65.7026 9.74659C66.5756 9.16184 67.2559 8.33076 67.6577 7.35834C68.0594 6.38592 68.1645 5.31581 67.9597 4.28348C67.7549 3.25116 67.2494 2.30292 66.507 1.55865C65.7647 0.814378 64.8187 0.307588 63.789 0.10224C62.7592 -0.103108 61.692 0.00224472 60.7221 0.405034C59.7521 0.807823 58.9229 1.48997 58.3396 2.36513C57.7563 3.24029 57.4451 4.26912 57.4451 5.32166C57.4451 6.73306 58.0043 8.08666 58.9998 9.08468C59.9952 10.0827 61.3454 10.6434 62.7532 10.6434ZM78.1269 30.1652L71.5035 15.8006L71.4915 15.7771L71.4041 15.6067C71.3449 15.5056 71.279 15.4085 71.2068 15.3162C70.6591 14.503 69.9212 13.8367 69.0573 13.3755C68.1935 12.9142 67.2301 12.6722 66.2514 12.6704H59.255C58.3437 12.6722 57.4447 12.8829 56.627 13.2863C55.8093 13.6897 55.0944 14.2751 54.5369 14.9978C54.3468 15.1757 54.1841 15.3809 54.0541 15.6067L47.3315 30.1652C47.1571 30.4679 47.0438 30.8021 46.9983 31.1486C46.9528 31.4952 46.9758 31.8474 47.0661 32.1851C47.1564 32.5227 47.3123 32.8392 47.5246 33.1165C47.737 33.3938 48.0017 33.6263 48.3037 33.8009C48.6058 33.9756 48.9391 34.0889 49.2849 34.1343C49.6306 34.1798 49.9818 34.1565 50.3186 34.0658C50.6553 33.9751 50.9709 33.8187 51.2473 33.6057C51.5238 33.3927 51.7557 33.1272 51.9298 32.8243L56.6705 22.1345V54.9171C56.6705 55.2666 56.7392 55.6126 56.8726 55.9355C57.0059 56.2583 57.2015 56.5516 57.448 56.7987C57.6944 57.0458 57.9871 57.2418 58.3091 57.3756C58.6311 57.5093 58.9761 57.5781 59.3247 57.5781C59.6732 57.5781 60.0184 57.5093 60.3405 57.3756C60.6625 57.2418 60.9551 57.0458 61.2016 56.7987C61.4481 56.5516 61.6436 56.2583 61.777 55.9355C61.9104 55.6126 61.979 55.2666 61.979 54.9171V38.1393H63.5271V54.9171C63.5263 55.2672 63.5943 55.6139 63.7273 55.9375C63.8603 56.2612 64.0558 56.5553 64.3023 56.8031C64.5489 57.051 64.8416 57.2475 65.1641 57.3817C65.4866 57.5158 65.8324 57.5848 66.1815 57.5848C66.5306 57.5848 66.8763 57.5158 67.1987 57.3817C67.5212 57.2475 67.8141 57.051 68.0607 56.8031C68.3073 56.5553 68.5027 56.2612 68.6357 55.9375C68.7687 55.6139 68.8366 55.2672 68.8357 54.9171V22.2286L73.5284 32.8243C73.7025 33.1272 73.9344 33.3927 74.2108 33.6057C74.4873 33.8187 74.8028 33.9751 75.1396 34.0658C75.4763 34.1565 75.8276 34.1798 76.1733 34.1343C76.519 34.0889 76.8524 33.9756 77.1544 33.8009C77.4565 33.6263 77.7212 33.3938 77.9335 33.1165C78.1459 32.8392 78.3017 32.5227 78.392 32.1851C78.4823 31.8474 78.5054 31.4952 78.4599 31.1486C78.4144 30.8021 78.3013 30.4679 78.1269 30.1652Z" fill="#569FD6"/>
<path d="M109.732 10.6434C110.782 10.6434 111.808 10.3313 112.681 9.74659C113.554 9.16184 114.234 8.33076 114.636 7.35834C115.038 6.38592 115.143 5.31581 114.938 4.28348C114.733 3.25116 114.228 2.30292 113.486 1.55865C112.743 0.814378 111.797 0.307588 110.767 0.10224C109.738 -0.103108 108.671 0.00224472 107.701 0.405034C106.731 0.807823 105.901 1.48997 105.318 2.36513C104.735 3.24029 104.424 4.26912 104.424 5.32166C104.424 6.73306 104.983 8.08667 105.978 9.08468C106.974 10.0827 108.324 10.6434 109.732 10.6434ZM125.105 30.1652L118.482 15.8006L118.47 15.7771L118.383 15.6067C118.323 15.5056 118.257 15.4085 118.185 15.3162C117.638 14.503 116.9 13.8367 116.036 13.3755C115.172 12.9142 114.209 12.6722 113.23 12.6704H106.234C105.322 12.6722 104.423 12.8829 103.606 13.2863C102.788 13.6897 102.073 14.2751 101.515 14.9978C101.325 15.1757 101.163 15.3809 101.033 15.6067L94.31 30.1652C94.1356 30.468 94.0223 30.8021 93.9768 31.1486C93.9313 31.4952 93.9543 31.8474 94.0446 32.1851C94.1349 32.5227 94.2908 32.8392 94.5031 33.1165C94.7155 33.3938 94.9802 33.6263 95.2822 33.8009C95.5843 33.9756 95.9177 34.0889 96.2634 34.1343C96.6091 34.1798 96.9604 34.1565 97.2971 34.0658C97.6338 33.9751 97.9494 33.8187 98.2259 33.6057C98.5023 33.3927 98.7342 33.1272 98.9083 32.8243L103.649 22.1345V54.9171C103.649 55.6229 103.929 56.2997 104.426 56.7987C104.924 57.2977 105.599 57.5781 106.303 57.5781C107.007 57.5781 107.682 57.2977 108.18 56.7987C108.678 56.2997 108.958 55.6229 108.958 54.9171V38.1393H110.506V54.9171C110.506 55.6229 110.785 56.2997 111.283 56.7987C111.781 57.2977 112.456 57.5781 113.16 57.5781C113.864 57.5781 114.539 57.2977 115.037 56.7987C115.535 56.2997 115.814 55.6229 115.814 54.9171V22.2286L120.507 32.8243C120.681 33.1272 120.913 33.3927 121.189 33.6057C121.466 33.8187 121.781 33.9751 122.118 34.0658C122.455 34.1565 122.806 34.1798 123.152 34.1343C123.498 34.0889 123.831 33.9756 124.133 33.8009C124.435 33.6263 124.7 33.3938 124.912 33.1165C125.124 32.8392 125.28 32.5227 125.371 32.1851C125.461 31.8474 125.484 31.4952 125.438 31.1486C125.393 30.8021 125.28 30.468 125.105 30.1652Z" fill="#569FD6"/>
<path d="M156.709 10.6434C157.759 10.6434 158.786 10.3313 159.659 9.74659C160.532 9.16184 161.212 8.33076 161.614 7.35834C162.016 6.38592 162.121 5.31581 161.916 4.28348C161.711 3.25116 161.205 2.30292 160.463 1.55865C159.721 0.814378 158.775 0.307588 157.745 0.10224C156.716 -0.103108 155.648 0.00224472 154.678 0.405034C153.708 0.807823 152.879 1.48997 152.296 2.36513C151.713 3.24029 151.401 4.26912 151.401 5.32166C151.401 6.73306 151.96 8.08666 152.956 9.08468C153.951 10.0827 155.302 10.6434 156.709 10.6434ZM172.083 30.1652L165.46 15.8006L165.448 15.7771L165.36 15.6067C165.301 15.5056 165.235 15.4085 165.163 15.3162C164.615 14.503 163.877 13.8367 163.013 13.3755C162.15 12.9142 161.186 12.6722 160.207 12.6704H153.211C152.3 12.6722 151.401 12.8829 150.583 13.2863C149.765 13.6897 149.05 14.2751 148.493 14.9978C148.303 15.1757 148.14 15.3809 148.01 15.6067L141.288 30.1652C141.113 30.4679 141 30.8021 140.954 31.1486C140.909 31.4952 140.932 31.8474 141.022 32.1851C141.112 32.5227 141.268 32.8392 141.481 33.1165C141.693 33.3938 141.958 33.6263 142.26 33.8009C142.562 33.9756 142.895 34.0889 143.241 34.1343C143.587 34.1798 143.938 34.1565 144.275 34.0658C144.611 33.9751 144.927 33.8187 145.203 33.6057C145.48 33.3927 145.712 33.1272 145.886 32.8243L150.627 22.1345V54.9171C150.626 55.2672 150.694 55.6139 150.827 55.9375C150.96 56.2612 151.155 56.5553 151.402 56.8031C151.648 57.051 151.941 57.2475 152.264 57.3817C152.586 57.5158 152.932 57.5848 153.281 57.5848C153.63 57.5848 153.976 57.5158 154.298 57.3817C154.621 57.2475 154.914 57.051 155.16 56.8031C155.407 56.5553 155.602 56.2612 155.735 55.9375C155.868 55.6139 155.936 55.2672 155.935 54.9171V38.1393H157.483V54.9171C157.483 55.6229 157.763 56.2997 158.261 56.7987C158.759 57.2977 159.434 57.5781 160.138 57.5781C160.842 57.5781 161.517 57.2977 162.014 56.7987C162.512 56.2997 162.792 55.6229 162.792 54.9171V22.2286L167.484 32.8243C167.659 33.1272 167.89 33.3927 168.167 33.6057C168.443 33.8187 168.759 33.9751 169.096 34.0658C169.432 34.1565 169.784 34.1798 170.129 34.1343C170.475 34.0889 170.808 33.9756 171.11 33.8009C171.413 33.6263 171.677 33.3938 171.89 33.1165C172.102 32.8392 172.258 32.5227 172.348 32.1851C172.438 31.8474 172.461 31.4952 172.416 31.1486C172.37 30.8021 172.257 30.4679 172.083 30.1652Z" fill="#569FD6"/>
<path d="M203.688 10.6434C204.738 10.6434 205.764 10.3313 206.637 9.74659C207.51 9.16184 208.19 8.33076 208.592 7.35834C208.994 6.38592 209.099 5.31581 208.894 4.28348C208.69 3.25116 208.184 2.30292 207.442 1.55865C206.699 0.814378 205.753 0.307588 204.724 0.10224C203.694 -0.103108 202.627 0.00224472 201.657 0.405034C200.687 0.807823 199.858 1.48997 199.274 2.36513C198.691 3.24029 198.38 4.26912 198.38 5.32166C198.38 6.73306 198.939 8.08667 199.934 9.08468C200.93 10.0827 202.28 10.6434 203.688 10.6434ZM219.061 30.1652L212.438 15.8006L212.426 15.7771L212.339 15.6067C212.279 15.5056 212.214 15.4085 212.142 15.3162C211.594 14.503 210.856 13.8367 209.992 13.3755C209.128 12.9142 208.165 12.6722 207.186 12.6704H200.19C199.278 12.6722 198.379 12.8828 197.562 13.2862C196.744 13.6896 196.029 14.2751 195.471 14.9978C195.281 15.1757 195.119 15.3809 194.989 15.6067L188.266 30.1652C188.092 30.468 187.978 30.8021 187.933 31.1486C187.887 31.4952 187.91 31.8474 188.001 32.1851C188.091 32.5227 188.247 32.8392 188.459 33.1165C188.672 33.3938 188.936 33.6263 189.238 33.8009C189.54 33.9756 189.874 34.0889 190.219 34.1343C190.565 34.1798 190.916 34.1565 191.253 34.0658C191.59 33.9751 191.905 33.8187 192.182 33.6057C192.458 33.3927 192.69 33.1272 192.864 32.8243L197.605 22.1345V54.9171C197.605 55.6229 197.885 56.2997 198.383 56.7987C198.88 57.2977 199.555 57.5781 200.259 57.5781C200.963 57.5781 201.639 57.2977 202.136 56.7987C202.634 56.2997 202.914 55.6229 202.914 54.9171V38.1393H204.462V54.9171C204.462 55.6229 204.742 56.2997 205.239 56.7987C205.737 57.2977 206.412 57.5781 207.116 57.5781C207.82 57.5781 208.495 57.2977 208.993 56.7987C209.491 56.2997 209.77 55.6229 209.77 54.9171V22.2286L214.463 32.8243C214.637 33.1272 214.869 33.3927 215.145 33.6057C215.422 33.8187 215.737 33.9751 216.074 34.0658C216.411 34.1565 216.762 34.1798 217.108 34.1343C217.454 34.0889 217.787 33.9756 218.089 33.8009C218.391 33.6263 218.656 33.3938 218.868 33.1165C219.081 32.8392 219.236 32.5227 219.327 32.1851C219.417 31.8474 219.44 31.4952 219.394 31.1486C219.349 30.8021 219.236 30.468 219.061 30.1652Z" fill="#569FD6"/>
<path d="M250.666 10.6434C251.715 10.6434 252.742 10.3313 253.615 9.74659C254.488 9.16184 255.168 8.33076 255.57 7.35834C255.972 6.38592 256.077 5.31581 255.872 4.28348C255.667 3.25116 255.162 2.30292 254.419 1.55865C253.677 0.814378 252.731 0.307588 251.701 0.10224C250.672 -0.103108 249.604 0.00224472 248.634 0.405034C247.664 0.807823 246.835 1.48997 246.252 2.36513C245.669 3.24029 245.357 4.26912 245.357 5.32166C245.357 6.73306 245.916 8.08667 246.912 9.08468C247.907 10.0827 249.258 10.6434 250.666 10.6434ZM266.039 30.1652L259.416 15.8006L259.404 15.7771L259.316 15.6067C259.257 15.5056 259.191 15.4085 259.119 15.3162C258.571 14.503 257.833 13.8367 256.969 13.3755C256.106 12.9142 255.142 12.6722 254.164 12.6704H247.167C246.256 12.6722 245.357 12.8828 244.539 13.2862C243.721 13.6896 243.007 14.2751 242.449 14.9978C242.259 15.1757 242.096 15.3809 241.966 15.6067L235.244 30.1652C235.069 30.468 234.956 30.8021 234.91 31.1486C234.865 31.4952 234.888 31.8474 234.978 32.1851C235.069 32.5227 235.224 32.8392 235.437 33.1165C235.649 33.3938 235.914 33.6263 236.216 33.8009C236.518 33.9756 236.851 34.0889 237.197 34.1343C237.543 34.1798 237.894 34.1565 238.231 34.0658C238.567 33.9751 238.883 33.8187 239.16 33.6057C239.436 33.3927 239.668 33.1272 239.842 32.8243L244.583 22.1345V54.9171C244.583 55.6229 244.862 56.2997 245.36 56.7987C245.858 57.2977 246.533 57.5781 247.237 57.5781C247.941 57.5781 248.616 57.2977 249.114 56.7987C249.612 56.2997 249.891 55.6229 249.891 54.9171V38.1393H251.439V54.9171C251.439 55.6229 251.719 56.2997 252.217 56.7987C252.715 57.2977 253.39 57.5781 254.094 57.5781C254.798 57.5781 255.473 57.2977 255.971 56.7987C256.468 56.2997 256.748 55.6229 256.748 54.9171V22.2286L261.441 32.8243C261.614 33.1279 261.846 33.3941 262.123 33.6078C262.399 33.8215 262.715 33.9784 263.052 34.0695C263.389 34.1607 263.741 34.1842 264.087 34.1389C264.433 34.0935 264.767 33.9802 265.069 33.8054C265.372 33.6305 265.637 33.3975 265.849 33.1198C266.062 32.8421 266.217 32.5252 266.307 32.187C266.398 31.8489 266.42 31.4962 266.374 31.1493C266.328 30.8023 266.214 30.468 266.039 30.1652Z" fill="#569FD6"/>
<path d="M297.644 10.6434C298.694 10.6434 299.72 10.3313 300.593 9.74659C301.466 9.16184 302.146 8.33076 302.548 7.35834C302.95 6.38592 303.055 5.31581 302.85 4.28348C302.646 3.25116 302.14 2.30292 301.398 1.55865C300.655 0.814378 299.709 0.307588 298.68 0.10224C297.65 -0.103108 296.583 0.00224472 295.613 0.405034C294.643 0.807823 293.814 1.48997 293.23 2.36513C292.647 3.24029 292.336 4.26912 292.336 5.32166C292.336 6.73306 292.895 8.08666 293.89 9.08468C294.886 10.0827 296.236 10.6434 297.644 10.6434ZM313.017 30.1652L306.394 15.8006L306.382 15.7771L306.295 15.6067C306.235 15.5056 306.17 15.4085 306.098 15.3162C305.55 14.503 304.812 13.8367 303.948 13.3755C303.084 12.9142 302.121 12.6722 301.142 12.6704H294.146C293.234 12.6722 292.335 12.8829 291.518 13.2863C290.7 13.6897 289.985 14.2751 289.427 14.9978C289.237 15.1757 289.075 15.3809 288.945 15.6067L282.222 30.1652C282.048 30.4679 281.934 30.8021 281.889 31.1486C281.843 31.4952 281.867 31.8474 281.957 32.1851C282.047 32.5227 282.203 32.8392 282.415 33.1165C282.628 33.3938 282.892 33.6263 283.194 33.8009C283.496 33.9756 283.83 34.0889 284.175 34.1343C284.521 34.1798 284.872 34.1565 285.209 34.0658C285.546 33.9751 285.862 33.8187 286.138 33.6057C286.415 33.3927 286.646 33.1272 286.821 32.8243L291.561 22.1345V54.9171C291.561 55.6229 291.841 56.2997 292.339 56.7987C292.836 57.2977 293.511 57.5781 294.215 57.5781C294.919 57.5781 295.595 57.2977 296.092 56.7987C296.59 56.2997 296.87 55.6229 296.87 54.9171V38.1393H298.418V54.9171C298.417 55.2672 298.485 55.6139 298.618 55.9375C298.751 56.2612 298.946 56.5553 299.193 56.8031C299.439 57.051 299.732 57.2475 300.055 57.3817C300.377 57.5158 300.723 57.5848 301.072 57.5848C301.421 57.5848 301.767 57.5158 302.09 57.3817C302.412 57.2475 302.705 57.051 302.951 56.8031C303.198 56.5553 303.393 56.2612 303.526 55.9375C303.659 55.6139 303.727 55.2672 303.726 54.9171V22.2286L308.419 32.8243C308.593 33.1272 308.825 33.3927 309.101 33.6057C309.378 33.8187 309.694 33.9751 310.03 34.0658C310.367 34.1565 310.718 34.1798 311.064 34.1343C311.41 34.0889 311.743 33.9756 312.045 33.8009C312.347 33.6263 312.612 33.3938 312.824 33.1165C313.037 32.8392 313.192 32.5227 313.283 32.1851C313.373 31.8474 313.396 31.4952 313.351 31.1486C313.305 30.8021 313.192 30.4679 313.017 30.1652Z" fill="#569FD6"/>
<path d="M344.622 10.6434C345.672 10.6434 346.699 10.3313 347.572 9.74659C348.445 9.16184 349.125 8.33076 349.527 7.35834C349.929 6.38592 350.034 5.31581 349.829 4.28348C349.624 3.25116 349.119 2.30292 348.376 1.55865C347.634 0.814378 346.688 0.307588 345.658 0.10224C344.629 -0.103108 343.561 0.00224472 342.591 0.405034C341.621 0.807823 340.792 1.48997 340.209 2.36513C339.626 3.24029 339.314 4.26912 339.314 5.32166C339.314 6.73306 339.874 8.08667 340.869 9.08468C341.865 10.0827 343.215 10.6434 344.622 10.6434ZM359.996 30.1652L353.373 15.8006L353.361 15.7771L353.273 15.6067C353.214 15.5056 353.148 15.4085 353.076 15.3162C352.528 14.503 351.79 13.8367 350.926 13.3755C350.063 12.9142 349.099 12.6722 348.12 12.6704H341.124C340.213 12.6722 339.314 12.8829 338.496 13.2863C337.678 13.6897 336.963 14.2751 336.406 14.9978C336.216 15.1757 336.053 15.3809 335.923 15.6067L329.201 30.1652C329.026 30.468 328.913 30.8021 328.867 31.1486C328.822 31.4952 328.845 31.8474 328.935 32.1851C329.026 32.5227 329.181 32.8392 329.394 33.1165C329.606 33.3938 329.871 33.6263 330.173 33.8009C330.475 33.9756 330.808 34.0889 331.154 34.1343C331.5 34.1798 331.851 34.1565 332.188 34.0658C332.525 33.9751 332.84 33.8187 333.117 33.6057C333.393 33.3927 333.625 33.1272 333.799 32.8243L338.54 22.1345V54.9171C338.54 55.6229 338.819 56.2997 339.317 56.7987C339.815 57.2977 340.49 57.5781 341.194 57.5781C341.898 57.5781 342.573 57.2977 343.071 56.7987C343.568 56.2997 343.848 55.6229 343.848 54.9171V38.1393H345.396V54.9171C345.396 55.6229 345.676 56.2997 346.174 56.7987C346.672 57.2977 347.347 57.5781 348.051 57.5781C348.755 57.5781 349.43 57.2977 349.928 56.7987C350.425 56.2997 350.705 55.6229 350.705 54.9171V22.2286L355.397 32.8243C355.572 33.1272 355.803 33.3927 356.08 33.6057C356.356 33.8187 356.672 33.9751 357.009 34.0658C357.345 34.1565 357.697 34.1798 358.042 34.1343C358.388 34.0889 358.721 33.9756 359.024 33.8009C359.326 33.6263 359.59 33.3938 359.803 33.1165C360.015 32.8392 360.171 32.5227 360.261 32.1851C360.351 31.8474 360.374 31.4952 360.329 31.1486C360.283 30.8021 360.17 30.468 359.996 30.1652Z" fill="#569FD6"/>
<path d="M391.6 10.6434C392.65 10.6434 393.676 10.3313 394.549 9.74659C395.422 9.16184 396.102 8.33076 396.504 7.35834C396.906 6.38592 397.011 5.31581 396.807 4.28348C396.602 3.25116 396.096 2.30292 395.354 1.55865C394.611 0.814378 393.666 0.307588 392.636 0.10224C391.606 -0.103108 390.539 0.00224472 389.569 0.405034C388.599 0.807823 387.77 1.48997 387.186 2.36513C386.603 3.24029 386.292 4.26912 386.292 5.32166C386.292 6.73306 386.851 8.08666 387.847 9.08468C388.842 10.0827 390.192 10.6434 391.6 10.6434ZM406.974 30.1652L400.35 15.8006L400.338 15.7771L400.251 15.6067C400.192 15.5056 400.126 15.4085 400.054 15.3162C399.506 14.503 398.768 13.8367 397.904 13.3755C397.04 12.9142 396.077 12.6722 395.098 12.6704H388.102C387.19 12.6722 386.291 12.8829 385.474 13.2863C384.656 13.6897 383.941 14.2751 383.384 14.9978C383.193 15.1757 383.031 15.3809 382.901 15.6067L376.178 30.1652C376.004 30.4679 375.89 30.8021 375.845 31.1486C375.799 31.4952 375.823 31.8474 375.913 32.1851C376.003 32.5227 376.159 32.8392 376.371 33.1165C376.584 33.3938 376.848 33.6263 377.15 33.8009C377.452 33.9756 377.786 34.0889 378.131 34.1343C378.477 34.1798 378.828 34.1565 379.165 34.0658C379.502 33.9751 379.818 33.8187 380.094 33.6057C380.371 33.3927 380.603 33.1272 380.777 32.8243L385.517 22.1345V54.9171C385.516 55.2672 385.584 55.6139 385.717 55.9375C385.85 56.2612 386.046 56.5553 386.292 56.8031C386.539 57.051 386.832 57.2475 387.154 57.3817C387.477 57.5158 387.822 57.5848 388.172 57.5848C388.521 57.5848 388.866 57.5158 389.189 57.3817C389.511 57.2475 389.804 57.051 390.051 56.8031C390.297 56.5553 390.493 56.2612 390.626 55.9375C390.759 55.6139 390.827 55.2672 390.826 54.9171V38.1393H392.374V54.9171C392.374 55.6229 392.654 56.2997 393.151 56.7987C393.649 57.2977 394.324 57.5781 395.028 57.5781C395.732 57.5781 396.407 57.2977 396.905 56.7987C397.403 56.2997 397.683 55.6229 397.683 54.9171V22.2286L402.375 32.8243C402.549 33.1272 402.781 33.3927 403.057 33.6057C403.334 33.8187 403.649 33.9751 403.986 34.0658C404.323 34.1565 404.674 34.1798 405.02 34.1343C405.366 34.0889 405.699 33.9756 406.001 33.8009C406.303 33.6263 406.568 33.3938 406.78 33.1165C406.992 32.8392 407.148 32.5227 407.239 32.1851C407.329 31.8474 407.352 31.4952 407.306 31.1486C407.261 30.8021 407.148 30.4679 406.974 30.1652Z" fill="#569FD6"/>
<path d="M438.578 10.6434C439.628 10.6434 440.655 10.3313 441.528 9.74659C442.401 9.16184 443.081 8.33076 443.483 7.35834C443.884 6.38592 443.99 5.31581 443.785 4.28348C443.58 3.25116 443.074 2.30292 442.332 1.55865C441.59 0.814378 440.644 0.307588 439.614 0.10224C438.584 -0.103108 437.517 0.00224472 436.547 0.405034C435.577 0.807823 434.748 1.48997 434.165 2.36513C433.582 3.24029 433.27 4.26912 433.27 5.32166C433.27 6.73306 433.829 8.08667 434.825 9.08468C435.82 10.0827 437.171 10.6434 438.578 10.6434ZM453.952 30.1652L447.328 15.8006L447.317 15.7771L447.229 15.6067C447.17 15.5056 447.104 15.4085 447.032 15.3162C446.484 14.503 445.746 13.8367 444.882 13.3755C444.019 12.9142 443.055 12.6722 442.076 12.6704H435.08C434.169 12.6722 433.27 12.8828 432.452 13.2862C431.634 13.6896 430.919 14.2751 430.362 14.9978C430.172 15.1757 430.009 15.3809 429.879 15.6067L423.156 30.1652C422.982 30.468 422.869 30.8021 422.823 31.1486C422.778 31.4952 422.801 31.8474 422.891 32.1851C422.982 32.5227 423.137 32.8392 423.35 33.1165C423.562 33.3938 423.827 33.6263 424.129 33.8009C424.431 33.9756 424.764 34.0889 425.11 34.1343C425.456 34.1798 425.807 34.1565 426.144 34.0658C426.481 33.9751 426.796 33.8187 427.073 33.6057C427.349 33.3927 427.581 33.1272 427.755 32.8243L432.496 22.1345V54.9171C432.496 55.6229 432.775 56.2997 433.273 56.7987C433.771 57.2977 434.446 57.5781 435.15 57.5781C435.854 57.5781 436.529 57.2977 437.027 56.7987C437.525 56.2997 437.804 55.6229 437.804 54.9171V38.1393H439.352V54.9171C439.352 55.6229 439.632 56.2997 440.13 56.7987C440.628 57.2977 441.303 57.5781 442.007 57.5781C442.711 57.5781 443.386 57.2977 443.883 56.7987C444.381 56.2997 444.661 55.6229 444.661 54.9171V22.2286L449.353 32.8243C449.527 33.1272 449.759 33.3927 450.036 33.6057C450.312 33.8187 450.628 33.9751 450.965 34.0658C451.302 34.1565 451.653 34.1798 451.998 34.1343C452.344 34.0889 452.678 33.9756 452.98 33.8009C453.282 33.6263 453.546 33.3938 453.759 33.1165C453.971 32.8392 454.127 32.5227 454.217 32.1851C454.307 31.8474 454.331 31.4952 454.285 31.1486C454.24 30.8021 454.126 30.468 453.952 30.1652Z" fill="#569FD6"/>
<path d="M15.7747 80.7481C16.8246 80.7481 17.8509 80.436 18.7239 79.8512C19.5968 79.2665 20.2773 78.4353 20.6791 77.4629C21.0809 76.4905 21.186 75.4205 20.9812 74.3881C20.7764 73.3558 20.2709 72.4076 19.5285 71.6633C18.7862 70.919 17.8402 70.4121 16.8105 70.2068C15.7807 70.0014 14.7135 70.1068 13.7435 70.5096C12.7736 70.9124 11.9444 71.5945 11.3611 72.4697C10.7778 73.3448 10.4666 74.3738 10.4666 75.4263C10.4665 76.8377 11.0258 78.1912 12.0212 79.1892C13.0167 80.1873 14.3668 80.748 15.7747 80.7481ZM31.1484 100.27L24.5249 85.9052L24.513 85.8818L24.4256 85.7113C24.3664 85.6101 24.3005 85.5131 24.2283 85.4208C23.6806 84.6076 22.9426 83.9413 22.0788 83.48C21.2149 83.0188 20.2516 82.7767 19.2729 82.7749H12.2763C11.3649 82.7768 10.4662 82.9874 9.64849 83.3908C8.83079 83.7942 8.11588 84.3796 7.5584 85.1024C7.36825 85.2803 7.20556 85.4855 7.07556 85.7113L0.35273 100.27C0.178363 100.573 0.0652731 100.907 0.0197738 101.253C-0.0257256 101.6 -0.00269771 101.952 0.087602 102.29C0.177902 102.627 0.33377 102.944 0.546113 103.221C0.758455 103.498 1.02317 103.731 1.32521 103.906C1.62725 104.08 1.96063 104.194 2.30635 104.239C2.65207 104.284 3.00332 104.261 3.34006 104.17C3.6768 104.08 3.99237 103.923 4.26883 103.71C4.54529 103.497 4.77717 103.232 4.95124 102.929L9.692 92.2391V125.022C9.692 125.727 9.97167 126.404 10.4694 126.903C10.9672 127.402 11.6424 127.683 12.3464 127.683C13.0503 127.683 13.7253 127.402 14.2231 126.903C14.7209 126.404 15.0005 125.727 15.0005 125.022V108.244H16.5488V125.022C16.5488 125.727 16.8283 126.404 17.3261 126.903C17.8238 127.402 18.499 127.683 19.203 127.683C19.907 127.683 20.5821 127.402 21.0799 126.903C21.5777 126.404 21.8574 125.727 21.8574 125.022V92.3332L26.5499 102.929C26.7239 103.232 26.9558 103.497 27.2323 103.71C27.5088 103.923 27.8243 104.08 28.1611 104.17C28.4978 104.261 28.8491 104.284 29.1948 104.239C29.5405 104.194 29.8739 104.08 30.1759 103.906C30.478 103.731 30.7427 103.498 30.955 103.221C31.1674 102.944 31.3232 102.627 31.4135 102.29C31.5038 101.952 31.5268 101.6 31.4813 101.253C31.4359 100.907 31.3228 100.573 31.1484 100.27Z" fill="#569FD6"/>
<path d="M62.7532 80.7481C63.8031 80.7481 64.8294 80.436 65.7024 79.8512C66.5754 79.2665 67.2559 78.4353 67.6577 77.4629C68.0594 76.4905 68.1645 75.4205 67.9597 74.3881C67.7549 73.3558 67.2494 72.4076 66.507 71.6633C65.7647 70.919 64.8187 70.4121 63.789 70.2068C62.7593 70.0014 61.692 70.1068 60.7221 70.5096C59.7521 70.9124 58.9229 71.5945 58.3396 72.4697C57.7563 73.3448 57.4451 74.3738 57.4451 75.4263C57.4451 76.8377 58.0043 78.1912 58.9998 79.1892C59.9952 80.1873 61.3454 80.748 62.7532 80.7481ZM78.1269 100.27L71.5035 85.9052L71.4915 85.8818L71.4041 85.7113C71.3449 85.6101 71.279 85.5131 71.2068 85.4208C70.6591 84.6076 69.9212 83.9413 69.0573 83.48C68.1935 83.0188 67.2301 82.7767 66.2514 82.7749H59.255C58.3437 82.7768 57.4447 82.9874 56.627 83.3908C55.8093 83.7942 55.0944 84.3796 54.5369 85.1024C54.3468 85.2803 54.1841 85.4855 54.0541 85.7113L47.3315 100.27C47.1571 100.573 47.0438 100.907 46.9983 101.253C46.9528 101.6 46.9758 101.952 47.0661 102.29C47.1564 102.627 47.3123 102.944 47.5246 103.221C47.737 103.498 48.0017 103.731 48.3037 103.906C48.6058 104.08 48.9391 104.194 49.2849 104.239C49.6306 104.284 49.9818 104.261 50.3186 104.17C50.6553 104.08 50.9709 103.923 51.2473 103.71C51.5238 103.497 51.7557 103.232 51.9298 102.929L56.6705 92.2391V125.022C56.6705 125.371 56.7392 125.717 56.8726 126.04C57.0059 126.363 57.2015 126.656 57.448 126.903C57.6944 127.15 57.9871 127.346 58.3091 127.48C58.6311 127.614 58.9761 127.683 59.3247 127.683C59.6732 127.683 60.0184 127.614 60.3405 127.48C60.6625 127.346 60.9551 127.15 61.2016 126.903C61.4481 126.656 61.6436 126.363 61.777 126.04C61.9104 125.717 61.979 125.371 61.979 125.022V108.244H63.5271V125.022C63.5263 125.372 63.5943 125.718 63.7273 126.042C63.8603 126.366 64.0558 126.66 64.3023 126.908C64.5489 127.156 64.8416 127.352 65.1641 127.486C65.4866 127.62 65.8324 127.689 66.1815 127.689C66.5306 127.689 66.8763 127.62 67.1987 127.486C67.5212 127.352 67.8141 127.156 68.0607 126.908C68.3073 126.66 68.5027 126.366 68.6357 126.042C68.7687 125.718 68.8366 125.372 68.8357 125.022V92.3332L73.5284 102.929C73.7025 103.232 73.9344 103.497 74.2108 103.71C74.4873 103.923 74.8028 104.08 75.1396 104.17C75.4763 104.261 75.8276 104.284 76.1733 104.239C76.519 104.194 76.8524 104.08 77.1544 103.906C77.4565 103.731 77.7212 103.498 77.9335 103.221C78.1459 102.944 78.3017 102.627 78.392 102.29C78.4823 101.952 78.5054 101.6 78.4599 101.253C78.4144 100.907 78.3013 100.573 78.1269 100.27Z" fill="#569FD6"/>
<path d="M109.755 80.5423C110.816 80.5423 111.853 80.2269 112.736 79.636C113.618 79.0451 114.305 78.2052 114.711 77.2226C115.117 76.24 115.223 75.1589 115.016 74.1157C114.809 73.0726 114.298 72.1145 113.548 71.3625C112.798 70.6105 111.842 70.0983 110.802 69.8908C109.761 69.6833 108.683 69.7898 107.703 70.1968C106.722 70.6038 105.885 71.293 105.295 72.1773C104.706 73.0617 104.392 74.1013 104.392 75.1649C104.392 75.8711 104.53 76.5703 104.8 77.2227C105.069 77.8752 105.464 78.468 105.963 78.9674C106.461 79.4667 107.052 79.8627 107.703 80.133C108.354 80.4032 109.051 80.5423 109.755 80.5423Z" fill="#F47D39"/>
<path d="M126.82 100.284L118.598 85.7541L118.585 85.7297L118.497 85.5577C118.437 85.4555 118.371 85.3574 118.298 85.2641C117.744 84.4423 116.999 83.769 116.126 83.3029C115.253 82.8369 114.279 82.5922 113.29 82.5904H106.22C105.3 82.5923 104.391 82.8053 103.565 83.2129C102.739 83.6205 102.016 84.2121 101.453 84.9425C101.261 85.1223 101.097 85.3296 100.965 85.5577L92.642 100.284C92.466 100.59 92.3518 100.928 92.306 101.278C92.2601 101.628 92.2837 101.984 92.375 102.325C92.4663 102.666 92.6237 102.985 92.8383 103.266C93.0528 103.546 93.3201 103.78 93.6252 103.957C93.9303 104.133 94.2672 104.248 94.6164 104.294C94.9657 104.34 95.3205 104.316 95.6607 104.225C96.0008 104.133 96.3196 103.975 96.5989 103.76C96.8783 103.545 97.1126 103.277 97.2885 102.971L101.692 95.8947L98.2773 113.056C98.2208 113.283 98.2179 113.52 98.2691 113.748C98.3202 113.976 98.424 114.19 98.5719 114.37C98.7199 114.551 98.908 114.695 99.1211 114.79C99.3343 114.884 99.5666 114.928 99.7996 114.917H103.609V125.311C103.611 126.023 103.894 126.705 104.397 127.208C104.899 127.711 105.581 127.993 106.291 127.993C107.001 127.993 107.682 127.711 108.185 127.208C108.688 126.705 108.971 126.023 108.973 125.311V114.917H110.537V125.311C110.539 126.023 110.822 126.705 111.325 127.208C111.828 127.711 112.509 127.993 113.219 127.993C113.929 127.993 114.611 127.711 115.114 127.208C115.616 126.705 115.9 126.023 115.902 125.311V114.917H119.662C119.895 114.928 120.127 114.885 120.341 114.79C120.554 114.695 120.742 114.551 120.89 114.37C121.038 114.189 121.141 113.976 121.193 113.748C121.244 113.52 121.241 113.283 121.184 113.056L117.77 95.8947L122.173 102.971C122.349 103.277 122.584 103.545 122.863 103.76C123.142 103.975 123.461 104.133 123.801 104.225C124.142 104.316 124.496 104.34 124.846 104.294C125.195 104.248 125.531 104.133 125.837 103.957C126.142 103.78 126.409 103.546 126.624 103.266C126.838 102.985 126.996 102.666 127.087 102.325C127.178 101.984 127.202 101.628 127.156 101.278C127.11 100.928 126.996 100.59 126.82 100.284Z" fill="#F47D39"/>
<path d="M156.73 80.5423C157.791 80.5423 158.828 80.2269 159.71 79.636C160.592 79.0451 161.28 78.2052 161.686 77.2226C162.092 76.24 162.198 75.1589 161.991 74.1157C161.784 73.0726 161.273 72.1145 160.523 71.3625C159.773 70.6105 158.817 70.0983 157.776 69.8908C156.736 69.6833 155.658 69.7898 154.677 70.1968C153.697 70.6038 152.86 71.293 152.27 72.1773C151.681 73.0617 151.366 74.1013 151.366 75.1649C151.366 75.8711 151.505 76.5703 151.774 77.2227C152.044 77.8752 152.439 78.468 152.937 78.9674C153.435 79.4667 154.027 79.8627 154.677 80.133C155.328 80.4032 156.026 80.5423 156.73 80.5423Z" fill="#F47D39"/>
<path d="M173.795 100.284L165.572 85.7541L165.56 85.7297L165.471 85.5577C165.412 85.4555 165.345 85.3574 165.272 85.2641C164.719 84.4424 163.973 83.769 163.1 83.3029C162.227 82.8369 161.254 82.5922 160.265 82.5904H153.195C152.274 82.5923 151.366 82.8053 150.539 83.2129C149.713 83.6205 148.991 84.2121 148.428 84.9425C148.236 85.1223 148.071 85.3296 147.94 85.5577L139.616 100.284C139.44 100.59 139.326 100.928 139.281 101.278C139.235 101.628 139.258 101.984 139.349 102.325C139.441 102.666 139.598 102.985 139.813 103.265C140.027 103.545 140.295 103.78 140.6 103.957C140.905 104.133 141.242 104.248 141.591 104.294C141.94 104.34 142.295 104.316 142.635 104.225C142.975 104.133 143.294 103.975 143.573 103.76C143.853 103.545 144.087 103.277 144.263 102.971L148.667 95.8947L145.252 113.056C145.195 113.283 145.193 113.52 145.244 113.748C145.295 113.976 145.398 114.19 145.546 114.37C145.694 114.551 145.882 114.695 146.096 114.79C146.309 114.884 146.541 114.928 146.774 114.917H150.583V125.311C150.583 126.024 150.866 126.708 151.369 127.212C151.872 127.717 152.554 128 153.265 128C153.977 128 154.659 127.717 155.162 127.212C155.665 126.708 155.948 126.024 155.948 125.311V114.917H157.512V125.311C157.512 126.024 157.794 126.708 158.297 127.212C158.8 127.717 159.483 128 160.194 128C160.905 128 161.587 127.717 162.09 127.212C162.593 126.708 162.876 126.024 162.876 125.311V114.917H166.637C166.87 114.928 167.102 114.885 167.315 114.79C167.529 114.695 167.717 114.551 167.865 114.37C168.012 114.189 168.116 113.976 168.167 113.748C168.218 113.52 168.215 113.283 168.159 113.056L164.744 95.8947L169.148 102.971C169.324 103.277 169.558 103.545 169.838 103.76C170.117 103.975 170.436 104.133 170.776 104.225C171.116 104.316 171.471 104.34 171.82 104.294C172.169 104.248 172.506 104.133 172.811 103.957C173.116 103.78 173.384 103.545 173.598 103.265C173.813 102.985 173.97 102.666 174.061 102.325C174.153 101.984 174.176 101.628 174.131 101.278C174.085 100.928 173.971 100.59 173.795 100.284Z" fill="#F47D39"/>
<path d="M203.705 80.5423C204.766 80.5423 205.803 80.2269 206.685 79.636C207.567 79.0451 208.254 78.2052 208.66 77.2226C209.066 76.24 209.172 75.1589 208.966 74.1157C208.759 73.0726 208.248 72.1145 207.497 71.3625C206.747 70.6105 205.792 70.0983 204.751 69.8908C203.711 69.6833 202.632 69.7898 201.652 70.1968C200.672 70.6038 199.834 71.293 199.245 72.1773C198.655 73.0617 198.341 74.1013 198.341 75.1649C198.341 75.8711 198.48 76.5703 198.749 77.2227C199.019 77.8752 199.414 78.468 199.912 78.9674C200.41 79.4667 201.001 79.8627 201.652 80.133C202.303 80.4032 203 80.5424 203.705 80.5423Z" fill="#F47D39"/>
<path d="M220.769 100.284L212.547 85.7541L212.534 85.7297L212.446 85.5577C212.386 85.4555 212.32 85.3574 212.247 85.2641C211.694 84.4423 210.948 83.769 210.075 83.3029C209.202 82.8369 208.229 82.5922 207.24 82.5904H200.17C199.249 82.5923 198.34 82.8053 197.514 83.2129C196.688 83.6205 195.966 84.2121 195.402 84.9425C195.21 85.1223 195.046 85.3296 194.914 85.5577L186.591 100.284C186.415 100.59 186.301 100.928 186.255 101.278C186.209 101.628 186.233 101.984 186.324 102.325C186.415 102.666 186.573 102.985 186.787 103.266C187.002 103.546 187.269 103.78 187.574 103.957C187.88 104.133 188.216 104.248 188.566 104.294C188.915 104.34 189.27 104.316 189.61 104.225C189.95 104.133 190.269 103.975 190.548 103.76C190.828 103.545 191.062 103.277 191.238 102.971L195.641 95.8947L192.226 113.056C192.17 113.283 192.167 113.52 192.218 113.748C192.269 113.976 192.373 114.19 192.521 114.37C192.669 114.551 192.857 114.695 193.07 114.79C193.283 114.884 193.516 114.928 193.749 114.917H197.558V125.311C197.56 126.023 197.843 126.705 198.346 127.208C198.849 127.711 199.53 127.993 200.24 127.993C200.95 127.993 201.631 127.711 202.134 127.208C202.637 126.705 202.92 126.023 202.922 125.311V114.917H204.486V125.311C204.488 126.023 204.772 126.705 205.274 127.208C205.777 127.711 206.458 127.993 207.169 127.993C207.879 127.993 208.56 127.711 209.063 127.208C209.565 126.705 209.849 126.023 209.851 125.311V114.917H213.611C213.844 114.928 214.077 114.885 214.29 114.79C214.503 114.695 214.691 114.551 214.839 114.37C214.987 114.189 215.091 113.976 215.142 113.748C215.193 113.52 215.19 113.283 215.134 113.056L211.719 95.8947L216.123 102.971C216.478 103.589 217.064 104.04 217.751 104.225C218.438 104.41 219.17 104.313 219.786 103.957C220.402 103.601 220.852 103.013 221.036 102.325C221.221 101.636 221.125 100.902 220.769 100.284Z" fill="#F47D39"/>
<path d="M250.679 80.5423C251.74 80.5423 252.777 80.2269 253.66 79.636C254.542 79.0451 255.229 78.2052 255.635 77.2226C256.041 76.24 256.147 75.1589 255.94 74.1157C255.733 73.0726 255.222 72.1145 254.472 71.3625C253.722 70.6105 252.766 70.0983 251.726 69.8908C250.685 69.6833 249.607 69.7898 248.627 70.1968C247.647 70.6038 246.809 71.293 246.219 72.1773C245.63 73.0617 245.315 74.1013 245.315 75.1649C245.315 75.8711 245.454 76.5703 245.724 77.2227C245.993 77.8752 246.389 78.468 246.887 78.9674C247.385 79.4667 247.976 79.8627 248.627 80.133C249.278 80.4032 249.975 80.5424 250.679 80.5423Z" fill="#F47D39"/>
<path d="M267.744 100.284L259.522 85.7541L259.509 85.7297L259.421 85.5577C259.361 85.4555 259.294 85.3574 259.222 85.2641C258.668 84.4424 257.922 83.769 257.049 83.3029C256.177 82.8369 255.203 82.5922 254.214 82.5904H247.144C246.223 82.5923 245.315 82.8053 244.489 83.2129C243.663 83.6205 242.94 84.2121 242.377 84.9425C242.185 85.1223 242.02 85.3296 241.889 85.5577L233.566 100.284C233.39 100.59 233.276 100.928 233.23 101.278C233.184 101.628 233.208 101.984 233.299 102.325C233.39 102.666 233.547 102.985 233.762 103.265C233.976 103.545 234.244 103.78 234.549 103.957C234.854 104.133 235.191 104.248 235.54 104.294C235.889 104.34 236.244 104.316 236.584 104.225C236.924 104.133 237.243 103.975 237.523 103.76C237.802 103.545 238.036 103.277 238.212 102.971L242.616 95.8947L239.201 113.056C239.145 113.283 239.142 113.52 239.193 113.748C239.244 113.976 239.348 114.19 239.496 114.37C239.644 114.551 239.832 114.695 240.045 114.79C240.258 114.884 240.49 114.928 240.723 114.917H244.533V125.311C244.533 126.024 244.815 126.708 245.318 127.212C245.821 127.717 246.503 128 247.215 128C247.926 128 248.608 127.717 249.111 127.212C249.614 126.708 249.897 126.024 249.897 125.311V114.917H251.461V125.311C251.461 126.024 251.744 126.708 252.247 127.212C252.75 127.717 253.432 128 254.143 128C254.854 128 255.537 127.717 256.04 127.212C256.543 126.708 256.825 126.024 256.825 125.311V114.917H260.586C260.819 114.928 261.051 114.885 261.264 114.79C261.478 114.695 261.666 114.551 261.814 114.37C261.962 114.189 262.065 113.976 262.116 113.748C262.167 113.52 262.165 113.283 262.108 113.056L258.694 95.8947L263.097 102.971C263.273 103.277 263.508 103.545 263.787 103.76C264.066 103.975 264.385 104.133 264.725 104.225C265.065 104.316 265.42 104.34 265.769 104.294C266.119 104.248 266.455 104.133 266.76 103.957C267.066 103.78 267.333 103.545 267.548 103.265C267.762 102.985 267.92 102.666 268.011 102.325C268.102 101.984 268.125 101.628 268.08 101.278C268.034 100.928 267.92 100.59 267.744 100.284Z" fill="#F47D39"/>
<path d="M297.654 80.5423C298.715 80.5423 299.752 80.2269 300.634 79.636C301.516 79.0451 302.203 78.2052 302.609 77.2226C303.015 76.24 303.122 75.1589 302.915 74.1157C302.708 73.0726 302.197 72.1145 301.447 71.3625C300.696 70.6105 299.741 70.0983 298.7 69.8908C297.66 69.6833 296.581 69.7898 295.601 70.1968C294.621 70.6038 293.783 71.293 293.194 72.1773C292.604 73.0617 292.29 74.1013 292.29 75.1649C292.29 75.8711 292.429 76.5703 292.698 77.2227C292.968 77.8752 293.363 78.468 293.861 78.9674C294.359 79.4667 294.95 79.8627 295.601 80.133C296.252 80.4032 296.949 80.5423 297.654 80.5423Z" fill="#F47D39"/>
<path d="M314.718 100.284L306.496 85.7541L306.484 85.7297L306.395 85.5577C306.335 85.4555 306.269 85.3574 306.196 85.2641C305.643 84.4424 304.897 83.769 304.024 83.3029C303.151 82.8369 302.178 82.5922 301.189 82.5904H294.119C293.198 82.5923 292.29 82.8053 291.463 83.2129C290.637 83.6205 289.915 84.2121 289.351 84.9425C289.159 85.1223 288.995 85.3296 288.864 85.5577L280.54 100.284C280.364 100.59 280.25 100.928 280.204 101.278C280.159 101.628 280.182 101.984 280.273 102.325C280.365 102.666 280.522 102.985 280.737 103.265C280.951 103.545 281.218 103.78 281.523 103.957C281.829 104.133 282.166 104.248 282.515 104.294C282.864 104.34 283.219 104.316 283.559 104.225C283.899 104.133 284.218 103.975 284.497 103.76C284.777 103.545 285.011 103.277 285.187 102.971L289.591 95.8947L286.176 113.056C286.119 113.283 286.116 113.52 286.167 113.748C286.219 113.976 286.322 114.19 286.47 114.37C286.618 114.551 286.806 114.695 287.019 114.79C287.233 114.884 287.465 114.928 287.698 114.917H291.507V125.311C291.509 126.023 291.792 126.705 292.295 127.208C292.798 127.711 293.479 127.993 294.189 127.993C294.899 127.993 295.581 127.711 296.083 127.208C296.586 126.705 296.87 126.023 296.871 125.311V114.917H298.436V125.311C298.437 126.023 298.721 126.705 299.224 127.208C299.726 127.711 300.407 127.993 301.118 127.993C301.828 127.993 302.509 127.711 303.012 127.208C303.515 126.705 303.798 126.023 303.8 125.311V114.917H307.56C307.793 114.928 308.026 114.885 308.239 114.79C308.452 114.695 308.64 114.551 308.788 114.37C308.936 114.189 309.04 113.976 309.091 113.748C309.142 113.52 309.139 113.283 309.083 113.056L305.668 95.8947L310.072 102.971C310.248 103.277 310.482 103.545 310.761 103.76C311.041 103.975 311.359 104.133 311.7 104.225C312.04 104.316 312.395 104.34 312.744 104.294C313.093 104.248 313.43 104.133 313.735 103.957C314.04 103.78 314.307 103.545 314.522 103.265C314.737 102.985 314.894 102.666 314.985 102.325C315.077 101.984 315.1 101.628 315.054 101.278C315.008 100.928 314.894 100.59 314.718 100.284Z" fill="#F47D39"/>
<path d="M344.629 80.5423C345.69 80.5423 346.726 80.2269 347.609 79.636C348.491 79.0451 349.178 78.2052 349.584 77.2226C349.99 76.24 350.096 75.1589 349.889 74.1157C349.682 73.0726 349.171 72.1145 348.421 71.3625C347.671 70.6105 346.715 70.0983 345.675 69.8908C344.634 69.6833 343.556 69.7898 342.576 70.1968C341.596 70.6038 340.758 71.293 340.169 72.1773C339.579 73.0617 339.265 74.1013 339.265 75.1649C339.265 75.8711 339.403 76.5703 339.673 77.2227C339.942 77.8752 340.338 78.468 340.836 78.9674C341.334 79.4667 341.925 79.8627 342.576 80.133C343.227 80.4032 343.924 80.5424 344.629 80.5423Z" fill="#F47D39"/>
<path d="M361.693 100.284L353.471 85.7541L353.458 85.7297L353.37 85.5577C353.31 85.4555 353.244 85.3574 353.171 85.2641C352.617 84.4423 351.872 83.769 350.999 83.3029C350.126 82.8369 349.152 82.5922 348.163 82.5904H341.094C340.173 82.5923 339.264 82.8053 338.438 83.2129C337.612 83.6205 336.889 84.2121 336.326 84.9425C336.134 85.1223 335.97 85.3296 335.838 85.5577L327.515 100.284C327.339 100.59 327.225 100.928 327.179 101.278C327.133 101.628 327.157 101.984 327.248 102.325C327.339 102.666 327.497 102.985 327.711 103.265C327.926 103.545 328.193 103.78 328.498 103.957C328.803 104.133 329.14 104.248 329.489 104.294C329.839 104.34 330.193 104.316 330.534 104.225C330.874 104.133 331.192 103.975 331.472 103.76C331.751 103.545 331.986 103.277 332.162 102.971L336.565 95.8947L333.15 113.056C333.094 113.283 333.091 113.52 333.142 113.748C333.193 113.976 333.297 114.19 333.445 114.37C333.593 114.551 333.781 114.695 333.994 114.79C334.207 114.884 334.44 114.928 334.673 114.917H338.482V125.311C338.482 126.024 338.764 126.708 339.267 127.212C339.77 127.717 340.452 128 341.164 128C341.875 128 342.558 127.717 343.061 127.212C343.564 126.708 343.846 126.024 343.846 125.311V114.917H345.41V125.311C345.41 126.024 345.693 126.708 346.196 127.212C346.699 127.717 347.381 128 348.092 128C348.804 128 349.486 127.717 349.989 127.212C350.492 126.708 350.774 126.024 350.774 125.311V114.917H354.535C354.768 114.928 355.001 114.885 355.214 114.79C355.427 114.695 355.615 114.551 355.763 114.37C355.911 114.189 356.015 113.976 356.066 113.748C356.117 113.52 356.114 113.283 356.057 113.056L352.643 95.8947L357.046 102.971C357.222 103.277 357.457 103.545 357.736 103.76C358.015 103.975 358.334 104.133 358.674 104.225C359.015 104.316 359.369 104.34 359.719 104.294C360.068 104.248 360.405 104.133 360.71 103.957C361.015 103.78 361.282 103.545 361.497 103.265C361.711 102.985 361.869 102.666 361.96 102.325C362.051 101.984 362.075 101.628 362.029 101.278C361.983 100.928 361.869 100.59 361.693 100.284Z" fill="#F47D39"/>
<path d="M391.603 80.5423C392.664 80.5423 393.701 80.2269 394.583 79.636C395.465 79.0451 396.153 78.2052 396.559 77.2226C396.965 76.24 397.071 75.1589 396.864 74.1157C396.657 73.0726 396.146 72.1145 395.396 71.3625C394.646 70.6105 393.69 70.0983 392.65 69.8908C391.609 69.6833 390.531 69.7898 389.55 70.1968C388.57 70.6038 387.733 71.293 387.143 72.1773C386.554 73.0617 386.239 74.1013 386.239 75.1649C386.239 75.8711 386.378 76.5703 386.648 77.2227C386.917 77.8752 387.312 78.468 387.81 78.9674C388.309 79.4667 388.9 79.8627 389.55 80.133C390.201 80.4032 390.899 80.5423 391.603 80.5423Z" fill="#F47D39"/>
<path d="M408.668 100.284L400.445 85.7541L400.433 85.7297L400.345 85.5577C400.285 85.4555 400.218 85.3574 400.145 85.2641C399.592 84.4424 398.846 83.769 397.973 83.3029C397.1 82.8369 396.127 82.5922 395.138 82.5904H388.068C387.147 82.5923 386.239 82.8053 385.413 83.2129C384.586 83.6205 383.864 84.2121 383.301 84.9425C383.109 85.1223 382.944 85.3296 382.813 85.5577L374.49 100.284C374.314 100.59 374.199 100.928 374.154 101.278C374.108 101.628 374.131 101.984 374.223 102.325C374.314 102.666 374.471 102.985 374.686 103.265C374.9 103.545 375.168 103.78 375.473 103.957C375.778 104.133 376.115 104.248 376.464 104.294C376.813 104.34 377.168 104.316 377.508 104.225C377.848 104.133 378.167 103.975 378.447 103.76C378.726 103.545 378.96 103.277 379.136 102.971L383.54 95.8947L380.125 113.056C380.068 113.283 380.066 113.52 380.117 113.748C380.168 113.976 380.272 114.19 380.42 114.37C380.568 114.551 380.756 114.695 380.969 114.79C381.182 114.884 381.414 114.928 381.647 114.917H385.456V125.311C385.456 126.024 385.739 126.708 386.242 127.212C386.745 127.717 387.427 128 388.139 128C388.85 128 389.532 127.717 390.035 127.212C390.538 126.708 390.821 126.024 390.821 125.311V114.917H392.385V125.311C392.385 126.024 392.668 126.708 393.171 127.212C393.674 127.717 394.356 128 395.067 128C395.778 128 396.461 127.717 396.964 127.212C397.467 126.708 397.749 126.024 397.749 125.311V114.917H401.51C401.743 114.928 401.975 114.885 402.188 114.79C402.402 114.695 402.59 114.551 402.738 114.37C402.886 114.189 402.989 113.976 403.04 113.748C403.091 113.52 403.089 113.283 403.032 113.056L399.617 95.8947L404.021 102.971C404.197 103.277 404.431 103.545 404.711 103.76C404.99 103.975 405.309 104.133 405.649 104.225C405.989 104.316 406.344 104.34 406.693 104.294C407.042 104.248 407.379 104.133 407.684 103.957C407.989 103.78 408.257 103.545 408.471 103.265C408.686 102.985 408.843 102.666 408.935 102.325C409.026 101.984 409.049 101.628 409.004 101.278C408.958 100.928 408.844 100.59 408.668 100.284Z" fill="#F47D39"/>
<path d="M438.579 80.5423C439.639 80.5423 440.677 80.2269 441.559 79.636C442.441 79.0451 443.128 78.2052 443.534 77.2226C443.94 76.24 444.046 75.1589 443.839 74.1157C443.632 73.0726 443.122 72.1145 442.371 71.3625C441.621 70.6105 440.665 70.0983 439.625 69.8908C438.584 69.6833 437.506 69.7898 436.526 70.1968C435.546 70.6038 434.708 71.293 434.119 72.1773C433.529 73.0617 433.215 74.1013 433.215 75.1649C433.215 75.8711 433.353 76.5703 433.623 77.2227C433.893 77.8752 434.288 78.468 434.786 78.9674C435.284 79.4667 435.875 79.8627 436.526 80.133C437.177 80.4032 437.874 80.5424 438.579 80.5423Z" fill="#F47D39"/>
<path d="M455.643 100.284L447.421 85.7541L447.409 85.7297L447.32 85.5577C447.26 85.4555 447.194 85.3574 447.121 85.2641C446.568 84.4423 445.822 83.769 444.949 83.3029C444.076 82.8369 443.102 82.5922 442.113 82.5904H435.044C434.123 82.5923 433.215 82.8053 432.388 83.2129C431.562 83.6205 430.839 84.2121 430.276 84.9425C430.084 85.1223 429.92 85.3296 429.789 85.5577L421.465 100.284C421.289 100.59 421.175 100.928 421.129 101.278C421.083 101.628 421.107 101.984 421.198 102.325C421.29 102.666 421.447 102.985 421.662 103.265C421.876 103.545 422.143 103.78 422.448 103.957C422.754 104.133 423.09 104.248 423.44 104.294C423.789 104.34 424.144 104.316 424.484 104.225C424.824 104.133 425.143 103.975 425.422 103.76C425.702 103.545 425.936 103.277 426.112 102.971L430.515 95.8947L427.101 113.056C427.044 113.283 427.041 113.52 427.092 113.748C427.143 113.976 427.247 114.19 427.395 114.37C427.543 114.551 427.731 114.695 427.944 114.79C428.158 114.884 428.39 114.928 428.623 114.917H432.432V125.311C432.432 126.024 432.715 126.708 433.218 127.212C433.721 127.717 434.403 128 435.114 128C435.826 128 436.508 127.717 437.011 127.212C437.514 126.708 437.796 126.024 437.796 125.311V114.917H439.361V125.311C439.361 126.024 439.643 126.708 440.146 127.212C440.649 127.717 441.331 128 442.043 128C442.754 128 443.436 127.717 443.939 127.212C444.442 126.708 444.725 126.024 444.725 125.311V114.917H448.485C448.718 114.928 448.951 114.885 449.164 114.79C449.377 114.695 449.565 114.551 449.713 114.37C449.861 114.189 449.965 113.976 450.016 113.748C450.067 113.52 450.064 113.283 450.008 113.056L446.593 95.8947L450.996 102.971C451.172 103.277 451.407 103.545 451.686 103.76C451.966 103.975 452.284 104.133 452.625 104.225C452.965 104.316 453.32 104.34 453.669 104.294C454.018 104.248 454.355 104.133 454.66 103.957C454.965 103.78 455.232 103.545 455.447 103.265C455.662 102.985 455.819 102.666 455.91 102.325C456.002 101.984 456.025 101.628 455.979 101.278C455.933 100.928 455.819 100.59 455.643 100.284Z" fill="#F47D39"/>
</g>
<defs>
<clipPath id="clip0_617_2197">
<rect width="456" height="128" fill="white"/>
</clipPath>
</defs>
</svg>
