<svg width="120" height="92" viewBox="0 0 120 92" fill="none" xmlns="http://www.w3.org/2000/svg">
<g clip-path="url(#clip0_656_4900)">
<path fill-rule="evenodd" clip-rule="evenodd" d="M30.5455 50.5249L44.7813 49.8903C53.7196 49.8903 58.1518 53.3125 65.3251 58.1763H85.1393C86.8215 58.1763 88.4349 58.8442 89.6244 60.0333C90.8139 61.2223 91.4822 62.8351 91.4822 64.5166C91.4822 66.1982 90.8139 67.8108 89.6244 68.9998C88.4349 70.1889 86.8215 70.8568 85.1393 70.8568H65.332M90.6207 61.3288L107.613 53.1352C116.669 49.7466 122.766 59.5797 116.274 66.5246C100.796 75.5771 84.2873 84.1212 76.069 88.6996C72.0606 90.9323 67.3483 91.5432 62.9028 90.4064L31.2013 81.3256M1.0332 46.724L30.2812 44.7363L31.5791 86.9444L2.33106 88.9202L1.0332 46.724Z" fill="white"/>
<path d="M67.3626 92.0004C65.7723 91.9997 64.1882 91.8002 62.6474 91.4065L32.4837 82.7676L32.6113 86.9126C32.6194 87.1797 32.5236 87.4396 32.3441 87.6376C32.1645 87.8356 31.9152 87.9563 31.6485 87.9743L2.40017 89.9506C2.12089 89.9654 1.84692 89.8702 1.63709 89.6854C1.5342 89.592 1.45118 89.4789 1.39295 89.3528C1.33472 89.2267 1.30248 89.0902 1.29817 88.9514L0.0004701 46.7546C-0.00758601 46.4876 0.0881623 46.2279 0.267587 46.0299C0.447012 45.832 0.696162 45.7112 0.962772 45.6929L30.2106 43.7056C30.49 43.691 30.764 43.7861 30.9742 43.9707C31.0772 44.064 31.1602 44.1771 31.2185 44.3032C31.2767 44.4294 31.3089 44.5659 31.3131 44.7048L31.4589 49.4508L44.7349 48.8589H44.7389C53.4894 48.8589 58.1531 52.039 64.6093 56.4412L65.6427 57.144H85.139C86.2662 57.1439 87.3784 57.4024 88.3899 57.8996C89.4015 58.3967 90.2854 59.1192 90.9737 60.0116L107.164 52.2054C111.738 50.4873 116.17 51.6912 118.539 55.2363C120.551 58.2491 120.865 63.1262 117.028 67.2289C116.96 67.3022 116.882 67.3651 116.795 67.4154C106.217 73.6022 95.3394 79.4543 86.599 84.156C82.6156 86.2996 79.175 88.1508 76.5715 89.6007C73.7572 91.1734 70.5869 91.9995 67.3626 92.0004ZM32.4172 80.5997L63.1871 89.4142C67.3681 90.4811 71.7993 89.9025 75.5659 87.7979C78.183 86.3399 81.6292 84.4857 85.6202 82.338C94.3091 77.6636 105.114 71.8498 115.619 65.7104C118.782 62.2399 118.251 58.5253 116.82 56.3827C115.376 54.221 112.292 52.4867 107.975 54.102L91.9997 61.8093C92.4411 62.9274 92.6024 64.1364 92.4694 65.331C92.3365 66.5256 91.9134 67.6696 91.237 68.6634C90.5606 69.6572 89.6514 70.4707 88.5885 71.0329C87.5257 71.5951 86.3415 71.889 85.139 71.8892H65.3315C65.0576 71.8892 64.7949 71.7803 64.6012 71.5867C64.4074 71.393 64.2986 71.1305 64.2986 70.8567C64.2986 70.5828 64.4074 70.3202 64.6012 70.1266C64.7949 69.9329 65.0576 69.8242 65.3315 69.8242H85.1389C86.5459 69.8222 87.8946 69.2622 88.8887 68.267C89.8829 67.2719 90.4413 65.923 90.4413 64.5166C90.4413 63.1102 89.8829 61.7613 88.8887 60.7661C87.8946 59.771 86.5459 59.2109 85.1389 59.209H65.3245C65.1177 59.2087 64.9157 59.1466 64.7445 59.0305L63.4453 58.1472C57.0648 53.7965 52.8499 50.9229 44.7808 50.9229L31.5224 51.5147L32.4172 80.5997ZM2.09605 47.6863L3.3302 87.8181L30.5157 85.981L30.3927 81.968C30.2902 81.8394 30.2201 81.6882 30.188 81.527C30.1558 81.3658 30.1627 81.1993 30.2081 81.0414C30.2396 80.9315 30.289 80.8276 30.3543 80.7338L29.2811 45.8391L2.09605 47.6863Z" fill="#F47D39"/>
<path d="M78.6972 48.6531C91.8528 48.6531 102.517 37.9928 102.517 24.8426C102.517 11.6925 91.8528 1.03223 78.6972 1.03223C65.5416 1.03223 54.877 11.6925 54.877 24.8426C54.877 37.9928 65.5416 48.6531 78.6972 48.6531Z" fill="white"/>
<path d="M78.6976 49.6853C73.7822 49.6853 68.9772 48.2283 64.8902 45.4986C60.8031 42.7689 57.6177 38.889 55.7366 34.3496C53.8555 29.8103 53.3633 24.8153 54.3222 19.9963C55.2812 15.1773 57.6481 10.7509 61.1238 7.27654C64.5995 3.80221 69.0278 1.43603 73.8487 0.477414C78.6697 -0.481204 83.6667 0.010709 88.208 1.8909C92.7493 3.7711 96.6308 6.95519 99.3617 11.0405C102.093 15.1257 103.55 19.9287 103.55 24.8421C103.543 31.4286 100.922 37.743 96.2631 42.4004C91.6039 47.0578 85.2868 49.6777 78.6976 49.6853ZM78.6976 2.06496C74.1907 2.06496 69.7851 3.4009 66.0377 5.90375C62.2904 8.40661 59.3697 11.964 57.6451 16.1261C55.9204 20.2882 55.4692 24.868 56.3484 29.2864C57.2277 33.7048 59.398 37.7635 62.5849 40.949C65.7718 44.1345 69.8321 46.3038 74.2524 47.1826C78.6726 48.0614 83.2544 47.6104 87.4181 45.8863C91.5819 44.1623 95.1407 41.2427 97.6445 37.4969C100.148 33.751 101.485 29.3471 101.485 24.8421C101.478 18.8033 99.0746 13.0139 94.8027 8.74384C90.5308 4.4738 84.7389 2.07187 78.6976 2.06496Z" fill="#F47D39"/>
<path d="M84.0208 36.5701H69.8122C69.5383 36.5701 69.2755 36.4613 69.0818 36.2677C68.8881 36.0741 68.7793 35.8114 68.7793 35.5376C68.7793 35.2637 68.8881 35.0011 69.0818 34.8075C69.2755 34.6138 69.5383 34.5051 69.8122 34.5051H84.0208C84.6914 34.5043 85.3343 34.2376 85.8085 33.7635C86.2827 33.2894 86.5494 32.6467 86.5501 31.9763V28.404C86.5494 27.7336 86.2827 27.0908 85.8085 26.6168C85.3343 26.1427 84.6914 25.876 84.0208 25.8752H73.3749C72.1566 25.874 70.9886 25.3896 70.127 24.5286C69.2655 23.6676 68.7808 22.5002 68.7793 21.2824V17.71C68.7807 16.4921 69.2654 15.3245 70.1269 14.4633C70.9885 13.6021 72.1565 13.1177 73.3749 13.1162H87.5829C87.8569 13.1162 88.1197 13.2251 88.3134 13.4187C88.5071 13.6123 88.6159 13.8749 88.6159 14.1487C88.6159 14.4225 88.5071 14.6852 88.3134 14.8788C88.1197 15.0724 87.8569 15.1812 87.5829 15.1812H73.3749C72.7042 15.1819 72.0612 15.4486 71.5869 15.9226C71.1126 16.3967 70.8458 17.0395 70.8451 17.71V21.2824C70.8461 21.9527 71.1129 22.5952 71.5872 23.0691C72.0614 23.543 72.7044 23.8095 73.3749 23.8102H84.0208C85.2391 23.8117 86.4072 24.2961 87.2686 25.1573C88.1301 26.0185 88.6146 27.1861 88.6159 28.404V31.9763C88.6146 33.1942 88.1301 34.3618 87.2686 35.223C86.4072 36.0842 85.2391 36.5686 84.0208 36.5701Z" fill="#F47D39"/>
<path d="M78.6979 40.2581C78.5623 40.2581 78.4279 40.2314 78.3026 40.1796C78.1773 40.1277 78.0634 40.0516 77.9675 39.9557C77.8716 39.8598 77.7955 39.746 77.7436 39.6207C77.6917 39.4954 77.665 39.3612 77.665 39.2256V10.4602C77.665 10.1864 77.7738 9.92372 77.9676 9.73009C78.1613 9.53647 78.424 9.42773 78.6979 9.42773C78.9719 9.42773 79.2346 9.53647 79.4283 9.73009C79.622 9.92372 79.7309 10.1864 79.7309 10.4602V39.2256C79.7309 39.3612 79.7042 39.4954 79.6523 39.6207C79.6004 39.746 79.5243 39.8598 79.4284 39.9557C79.3325 40.0516 79.2186 40.1277 79.0933 40.1796C78.9679 40.2314 78.8336 40.2581 78.6979 40.2581Z" fill="#F47D39"/>
</g>
<defs>
<clipPath id="clip0_656_4900">
<rect width="120" height="92" fill="white"/>
</clipPath>
</defs>
</svg>
