<svg width="127" height="86" viewBox="0 0 127 86" fill="none" xmlns="http://www.w3.org/2000/svg">
<path d="M126.057 0.941406H18.9307V67.1091H126.057V0.941406Z" fill="white"/>
<path d="M126.057 68.0499H18.9306C18.8067 68.0499 18.684 68.0256 18.5695 67.9783C18.4551 67.931 18.3511 67.8616 18.2635 67.7742C18.1759 67.6868 18.1064 67.583 18.059 67.4688C18.0116 67.3545 17.9873 67.2321 17.9873 67.1085V0.941358C17.9873 0.817728 18.0116 0.695334 18.059 0.581109C18.1064 0.466884 18.1759 0.363093 18.2635 0.275673C18.3511 0.188254 18.4551 0.118886 18.5695 0.0715901C18.684 0.0242938 18.8067 -3.21245e-05 18.9306 3.18387e-08H126.057C126.181 -3.21245e-05 126.304 0.0242938 126.418 0.0715901C126.533 0.118886 126.637 0.188254 126.724 0.275673C126.812 0.363093 126.881 0.466884 126.929 0.581109C126.976 0.695334 127 0.817728 127 0.941358V67.1085C127 67.2321 126.976 67.3545 126.929 67.4688C126.881 67.583 126.812 67.6868 126.724 67.7742C126.637 67.8616 126.533 67.931 126.418 67.9783C126.304 68.0256 126.181 68.0499 126.057 68.0499ZM19.8739 66.1671H125.114V1.88272H19.8739V66.1671Z" fill="#5DACE7"/>
<path d="M117.063 9.91602H9.93652V76.0837H117.063V9.91602Z" fill="white"/>
<path d="M117.063 77.0245H9.93645C9.81257 77.0245 9.68987 77.0002 9.57541 76.9529C9.46095 76.9056 9.357 76.8362 9.2694 76.7488C9.1818 76.6614 9.11229 76.5576 9.0649 76.4434C9.01751 76.3291 8.99313 76.2067 8.99316 76.0831V9.91597C8.99313 9.79234 9.01751 9.66994 9.0649 9.55572C9.11229 9.44149 9.1818 9.3377 9.2694 9.25028C9.357 9.16286 9.46095 9.0935 9.57541 9.0462C9.68987 8.9989 9.81257 8.97458 9.93645 8.97461H117.063C117.187 8.97458 117.31 8.9989 117.424 9.0462C117.538 9.0935 117.642 9.16286 117.73 9.25028C117.818 9.3377 117.887 9.44149 117.935 9.55572C117.982 9.66994 118.006 9.79234 118.006 9.91597V76.0831C118.006 76.2067 117.982 76.3291 117.935 76.4434C117.887 76.5576 117.818 76.6614 117.73 76.7488C117.642 76.8362 117.538 76.9056 117.424 76.9529C117.31 77.0002 117.187 77.0245 117.063 77.0245ZM10.8797 75.1418H116.12V10.8573H10.8797V75.1418Z" fill="#5DACE7"/>
<path d="M108.07 18.8916H0.943359V85.0593H108.07V18.8916Z" fill="white"/>
<path d="M108.07 86.0001H0.943286C0.819403 86.0001 0.696701 85.9758 0.582242 85.9285C0.467783 85.8812 0.363837 85.8118 0.276238 85.7244C0.18864 85.637 0.11913 85.5332 0.0717367 85.4189C0.0243436 85.3047 -3.21903e-05 85.1823 3.1904e-08 85.0587V18.8916C-3.21903e-05 18.7679 0.0243436 18.6455 0.0717367 18.5313C0.11913 18.4171 0.18864 18.3133 0.276238 18.2259C0.363837 18.1384 0.467783 18.0691 0.582242 18.0218C0.696701 17.9745 0.819403 17.9502 0.943286 17.9502H108.07C108.194 17.9502 108.316 17.9745 108.431 18.0218C108.545 18.0691 108.649 18.1384 108.737 18.2259C108.824 18.3133 108.894 18.4171 108.941 18.5313C108.989 18.6455 109.013 18.7679 109.013 18.8916V85.0587C109.013 85.1823 108.989 85.3047 108.941 85.4189C108.894 85.5332 108.824 85.637 108.737 85.7244C108.649 85.8118 108.545 85.8812 108.431 85.9285C108.316 85.9758 108.194 86.0001 108.07 86.0001ZM1.88657 84.1173H107.127V19.8329H1.88657V84.1173Z" fill="#5DACE7"/>
<path d="M60.29 64.5183H44.8515C44.6013 64.5183 44.3614 64.4191 44.1845 64.2425C44.0076 64.066 43.9082 63.8266 43.9082 63.577C43.9082 63.3273 44.0076 63.0878 44.1845 62.9113C44.3614 62.7347 44.6013 62.6356 44.8515 62.6356H60.29C61.0661 62.6347 61.8102 62.3266 62.359 61.7789C62.9078 61.2312 63.2166 60.4886 63.2175 59.7141V55.8383C63.2166 55.0638 62.9079 54.3212 62.359 53.7735C61.8102 53.2258 61.0661 52.9177 60.29 52.9168H48.7223C47.4459 52.9154 46.2223 52.4088 45.3198 51.5081C44.4173 50.6075 43.9096 49.3863 43.9082 48.1126V44.2368C43.9096 42.9631 44.4173 41.742 45.3198 40.8413C46.2223 39.9407 47.4459 39.434 48.7223 39.4326H64.1608C64.4109 39.4326 64.6508 39.5318 64.8277 39.7083C65.0046 39.8848 65.104 40.1243 65.104 40.374C65.104 40.6236 65.0046 40.863 64.8277 41.0395C64.6508 41.2161 64.4109 41.3153 64.1608 41.3153H48.7223C47.9461 41.3162 47.2021 41.6243 46.6533 42.172C46.1044 42.7197 45.7957 43.4623 45.7948 44.2368V48.1126C45.7957 48.8872 46.1044 49.6298 46.6533 50.1774C47.2021 50.7251 47.9461 51.0332 48.7223 51.0341H60.29C61.5663 51.0355 62.7899 51.5422 63.6925 52.4428C64.595 53.3435 65.1026 54.5646 65.104 55.8383V59.7141C65.1026 60.9878 64.595 62.209 63.6925 63.1096C62.7899 64.0103 61.5663 64.5169 60.29 64.5183Z" fill="#5DACE7"/>
<path d="M54.5068 68.5189C54.3829 68.5189 54.2602 68.4946 54.1457 68.4473C54.0313 68.4 53.9273 68.3306 53.8397 68.2432C53.7521 68.1558 53.6826 68.052 53.6352 67.9378C53.5878 67.8236 53.5634 67.7012 53.5635 67.5775V36.373C53.5635 36.1233 53.6629 35.8839 53.8398 35.7073C54.0167 35.5308 54.2566 35.4316 54.5068 35.4316C54.7569 35.4316 54.9969 35.5308 55.1738 35.7073C55.3507 35.8839 55.45 36.1233 55.45 36.373V67.5775C55.4501 67.7012 55.4257 67.8236 55.3783 67.9378C55.3309 68.052 55.2615 68.1558 55.1739 68.2432C55.0863 68.3306 54.9823 68.4 54.8678 68.4473C54.7533 68.4946 54.6306 68.5189 54.5068 68.5189Z" fill="#5DACE7"/>
<path d="M91.9108 79.7217H17.102C16.9781 79.7217 16.8554 79.6974 16.7409 79.6501C16.6265 79.6028 16.5225 79.5334 16.4349 79.446C16.3473 79.3586 16.2778 79.2548 16.2304 79.1406C16.183 79.0263 16.1586 78.9039 16.1587 78.7803C16.156 76.4191 15.2149 74.1553 13.5418 72.4857C11.8688 70.816 9.60037 69.8769 7.2343 69.8742C7.11042 69.8742 6.98772 69.8499 6.87326 69.8026C6.7588 69.7553 6.65479 69.6859 6.5672 69.5985C6.4796 69.5111 6.41015 69.4073 6.36275 69.2931C6.31536 69.1789 6.29098 69.0565 6.29102 68.9328V35.0164C6.29098 34.8927 6.31536 34.7704 6.36275 34.6561C6.41015 34.5419 6.4796 34.4381 6.5672 34.3507C6.65479 34.2633 6.7588 34.1939 6.87326 34.1466C6.98772 34.0993 7.11042 34.075 7.2343 34.075C9.60037 34.0724 11.8688 33.1332 13.5418 31.4635C15.2149 29.7939 16.156 27.5301 16.1587 25.1689C16.1586 25.0453 16.183 24.9229 16.2304 24.8086C16.2778 24.6944 16.3473 24.5906 16.4349 24.5032C16.5225 24.4158 16.6265 24.3464 16.7409 24.2991C16.8554 24.2518 16.9781 24.2275 17.102 24.2275H91.9108C92.0347 24.2275 92.1574 24.2518 92.2718 24.2991C92.3863 24.3464 92.4903 24.4158 92.5779 24.5032C92.6655 24.5906 92.735 24.6944 92.7823 24.8086C92.8297 24.9229 92.8541 25.0453 92.8541 25.1689C92.8567 27.5301 93.7978 29.7938 95.4707 31.4634C97.1437 33.1331 99.412 34.0723 101.778 34.075C101.902 34.075 102.025 34.0993 102.139 34.1466C102.253 34.1939 102.357 34.2633 102.445 34.3507C102.533 34.4381 102.602 34.5419 102.65 34.6561C102.697 34.7704 102.721 34.8927 102.721 35.0164V68.9328C102.721 69.0565 102.697 69.1789 102.65 69.2931C102.602 69.4073 102.533 69.5111 102.445 69.5985C102.357 69.6859 102.253 69.7553 102.139 69.8026C102.025 69.8499 101.902 69.8742 101.778 69.8742C99.412 69.8769 97.1437 70.8162 95.4707 72.4858C93.7978 74.1554 92.8567 76.4192 92.8541 78.7803C92.8541 78.9039 92.8297 79.0263 92.7823 79.1406C92.735 79.2548 92.6654 79.3586 92.5778 79.446C92.4902 79.5334 92.3863 79.6028 92.2718 79.6501C92.1574 79.6974 92.0347 79.7217 91.9108 79.7217ZM18.0043 77.839H91.0085C91.2334 75.3136 92.3409 72.9477 94.1372 71.1549C95.9335 69.3621 98.3042 68.2566 100.835 68.0319V35.9173C98.3042 35.6926 95.9335 34.5871 94.1372 32.7943C92.3409 31.0015 91.2334 28.6356 91.0085 26.1103H18.0043C17.7793 28.6356 16.6717 31.0016 14.8754 32.7944C13.079 34.5872 10.7081 35.6927 8.17759 35.9173V68.0319C10.7081 68.2566 13.079 69.362 14.8754 71.1548C16.6717 72.9476 17.7793 75.3136 18.0043 77.839Z" fill="#5DACE7"/>
<path d="M22.4664 55.5918C24.4682 55.5918 26.091 53.9724 26.091 51.9746C26.091 49.9769 24.4682 48.3574 22.4664 48.3574C20.4646 48.3574 18.8418 49.9769 18.8418 51.9746C18.8418 53.9724 20.4646 55.5918 22.4664 55.5918Z" fill="white"/>
<path d="M22.467 56.5336C21.5635 56.5337 20.6803 56.2664 19.929 55.7656C19.1777 55.2647 18.5921 54.5528 18.2463 53.7198C17.9005 52.8868 17.8099 51.9701 17.9861 51.0858C18.1624 50.2014 18.5974 49.3891 19.2362 48.7515C19.8751 48.1139 20.6891 47.6796 21.5752 47.5036C22.4614 47.3277 23.3799 47.418 24.2146 47.763C25.0494 48.108 25.7629 48.6924 26.2648 49.4421C26.7668 50.1918 27.0347 51.0732 27.0347 51.9749C27.0333 53.1834 26.5516 54.342 25.6953 55.1966C24.839 56.0513 23.6781 56.5321 22.467 56.5336ZM22.467 49.2988C21.9367 49.2987 21.4181 49.4556 20.9771 49.7496C20.5361 50.0436 20.1923 50.4614 19.9893 50.9504C19.7863 51.4394 19.7331 51.9775 19.8365 52.4967C19.9399 53.0158 20.1953 53.4927 20.5703 53.867C20.9453 54.2413 21.4231 54.4962 21.9433 54.5994C22.4635 54.7027 23.0026 54.6498 23.4927 54.4473C23.9827 54.2448 24.4015 53.9018 24.6962 53.4617C24.9909 53.0216 25.1481 52.5042 25.1481 51.9749C25.1473 51.2655 24.8646 50.5853 24.362 50.0836C23.8594 49.582 23.1779 49.2998 22.467 49.2988Z" fill="#5DACE7"/>
<path d="M86.5465 55.5918C88.5483 55.5918 90.1711 53.9724 90.1711 51.9746C90.1711 49.9769 88.5483 48.3574 86.5465 48.3574C84.5447 48.3574 82.9219 49.9769 82.9219 51.9746C82.9219 53.9724 84.5447 55.5918 86.5465 55.5918Z" fill="white"/>
<path d="M86.5467 56.5336C85.6432 56.5336 84.76 56.2662 84.0088 55.7653C83.2575 55.2644 82.672 54.5524 82.3262 53.7194C81.9805 52.8864 81.89 51.9697 82.0663 51.0854C82.2426 50.2011 82.6776 49.3889 83.3165 48.7513C83.9554 48.1138 84.7694 47.6795 85.6555 47.5036C86.5416 47.3277 87.4601 47.418 88.2948 47.7631C89.1295 48.1081 89.843 48.6924 90.3449 49.442C90.8469 50.1917 91.1148 51.0732 91.1148 51.9748C91.1134 53.1835 90.6317 54.3422 89.7753 55.1968C88.9189 56.0515 87.7578 56.5322 86.5467 56.5336ZM86.5467 49.2988C86.0163 49.2988 85.4979 49.4557 85.0569 49.7498C84.6159 50.0438 84.2722 50.4617 84.0692 50.9507C83.8663 51.4397 83.8132 51.9778 83.9167 52.4969C84.0201 53.016 84.2755 53.4928 84.6505 53.8671C85.0256 54.2413 85.5033 54.4963 86.0235 54.5995C86.5437 54.7028 87.0829 54.6497 87.5729 54.4471C88.0629 54.2446 88.4817 53.9016 88.7763 53.4615C89.071 53.0215 89.2282 52.5041 89.2282 51.9748C89.2275 51.2653 88.9447 50.5851 88.442 50.0834C87.9393 49.5817 87.2576 49.2995 86.5467 49.2988Z" fill="#5DACE7"/>
</svg>
