<svg width="172" height="116" viewBox="0 0 172 116" fill="none" xmlns="http://www.w3.org/2000/svg">
<path d="M94.4812 44.6007L89.6572 47.3047L84.8374 44.6007L80.0135 47.3047L75.1895 44.6007L70.3627 47.3047L65.529 44.6007L60.6953 47.3047V2.6955H94.4812V44.6007Z" fill="white"/>
<path d="M60.6955 48C60.5111 47.9999 60.3342 47.9266 60.2038 47.7962C60.0734 47.6658 60.0001 47.4889 60 47.3045V2.6955C59.9999 2.60415 60.0179 2.51366 60.0528 2.42925C60.0877 2.34485 60.139 2.26818 60.2036 2.20359C60.2682 2.139 60.3448 2.08774 60.4293 2.05281C60.5137 2.01787 60.6041 1.99995 60.6955 2H94.4815C94.5728 1.99995 94.6632 2.01787 94.7477 2.05281C94.8321 2.08774 94.9088 2.139 94.9734 2.20359C95.038 2.26818 95.0892 2.34485 95.1241 2.42925C95.159 2.51366 95.177 2.60415 95.177 2.6955V44.6C95.1771 44.7237 95.1441 44.845 95.0815 44.9516C95.0189 45.0582 94.9291 45.1462 94.8211 45.2065L89.9961 47.911C89.8921 47.9692 89.7749 47.9997 89.6558 47.9997C89.5367 47.9997 89.4194 47.9692 89.3154 47.911L84.8382 45.3973L80.3542 47.911C80.2504 47.9691 80.1335 47.9997 80.0146 47.9997C79.8957 47.9997 79.7787 47.9691 79.675 47.911L75.1896 45.3973L70.7028 47.911C70.5991 47.9692 70.4822 47.9999 70.3633 48C70.2444 48.0001 70.1274 47.9697 70.0236 47.9117L65.53 45.3966L61.0351 47.9117C60.9313 47.9697 60.8144 48.0001 60.6955 48ZM65.53 43.9044C65.6489 43.9044 65.7658 43.9348 65.8696 43.9927L70.3631 46.5071L74.85 43.9934C74.9537 43.9353 75.0707 43.9048 75.1896 43.9048C75.3085 43.9048 75.4254 43.9353 75.5292 43.9934L80.0146 46.5071L84.4987 43.9934C84.6026 43.9353 84.7198 43.9048 84.8389 43.9048C84.9581 43.9048 85.0752 43.9353 85.1792 43.9934L89.6565 46.5071L93.786 44.1924V3.391H61.391V46.1186L65.1903 43.9927C65.2941 43.9348 65.4111 43.9044 65.53 43.9044Z" fill="black"/>
<path d="M77.1891 29.6066H66.5705C66.386 29.6066 66.2091 29.5334 66.0787 29.403C65.9482 29.2725 65.875 29.0956 65.875 28.9111C65.875 28.7267 65.9482 28.5497 66.0787 28.4193C66.2091 28.2889 66.386 28.2156 66.5705 28.2156H77.1891C77.3735 28.2156 77.5504 28.2889 77.6808 28.4193C77.8112 28.5497 77.8846 28.7267 77.8846 28.9111C77.8846 29.0956 77.8112 29.2725 77.6808 29.403C77.5504 29.5334 77.3735 29.6066 77.1891 29.6066Z" fill="black"/>
<path d="M88.6061 29.6066H83.4279C83.2435 29.6066 83.0665 29.5334 82.9361 29.403C82.8057 29.2725 82.7324 29.0956 82.7324 28.9111C82.7324 28.7267 82.8057 28.5497 82.9361 28.4193C83.0665 28.2889 83.2435 28.2156 83.4279 28.2156H88.6061C88.7906 28.2156 88.9674 28.2889 89.0979 28.4193C89.2283 28.5497 89.3016 28.7267 89.3016 28.9111C89.3016 29.0956 89.2283 29.2725 89.0979 29.403C88.9674 29.5334 88.7906 29.6066 88.6061 29.6066Z" fill="black"/>
<path d="M77.1891 34.2109H66.5705C66.386 34.2109 66.2091 34.1377 66.0787 34.0073C65.9482 33.8768 65.875 33.6999 65.875 33.5154C65.875 33.331 65.9482 33.1541 66.0787 33.0236C66.2091 32.8932 66.386 32.8199 66.5705 32.8199H77.1891C77.3735 32.8199 77.5504 32.8932 77.6808 33.0236C77.8112 33.1541 77.8846 33.331 77.8846 33.5154C77.8846 33.6999 77.8112 33.8768 77.6808 34.0073C77.5504 34.1377 77.3735 34.2109 77.1891 34.2109Z" fill="black"/>
<path d="M88.6061 34.2109H83.4279C83.2435 34.2109 83.0665 34.1377 82.9361 34.0073C82.8057 33.8768 82.7324 33.6999 82.7324 33.5154C82.7324 33.331 82.8057 33.1541 82.9361 33.0236C83.0665 32.8932 83.2435 32.8199 83.4279 32.8199H88.6061C88.7906 32.8199 88.9674 32.8932 89.0979 33.0236C89.2283 33.1541 89.3016 33.331 89.3016 33.5154C89.3016 33.6999 89.2283 33.8768 89.0979 34.0073C88.9674 34.1377 88.7906 34.2109 88.6061 34.2109Z" fill="black"/>
<path d="M77.1891 38.8152H66.5705C66.386 38.8152 66.2091 38.7419 66.0787 38.6115C65.9482 38.4811 65.875 38.3042 65.875 38.1197C65.875 37.9352 65.9482 37.7583 66.0787 37.6279C66.2091 37.4974 66.386 37.4242 66.5705 37.4242H77.1891C77.3735 37.4242 77.5504 37.4974 77.6808 37.6279C77.8112 37.7583 77.8846 37.9352 77.8846 38.1197C77.8846 38.3042 77.8112 38.4811 77.6808 38.6115C77.5504 38.7419 77.3735 38.8152 77.1891 38.8152Z" fill="black"/>
<path d="M88.6061 38.8152H83.4279C83.2435 38.8152 83.0665 38.7419 82.9361 38.6115C82.8057 38.4811 82.7324 38.3042 82.7324 38.1197C82.7324 37.9352 82.8057 37.7583 82.9361 37.6279C83.0665 37.4974 83.2435 37.4242 83.4279 37.4242H88.6061C88.7906 37.4242 88.9674 37.4974 89.0979 37.6279C89.2283 37.7583 89.3016 37.9352 89.3016 38.1197C89.3016 38.3042 89.2283 38.4811 89.0979 38.6115C88.9674 38.7419 88.7906 38.8152 88.6061 38.8152Z" fill="black"/>
<path d="M99.9754 26.7216C105.891 26.7216 110.686 21.9262 110.686 16.0108C110.686 10.0954 105.891 5.30005 99.9754 5.30005C94.06 5.30005 89.2646 10.0954 89.2646 16.0108C89.2646 21.9262 94.06 26.7216 99.9754 26.7216Z" fill="#A5D4F8"/>
<path d="M99.9762 27.4169C97.7203 27.4169 95.5151 26.7479 93.6394 25.4945C91.7637 24.2412 90.3018 22.4598 89.4385 20.3756C88.5752 18.2914 88.3494 15.998 88.7895 13.7854C89.2296 11.5729 90.3159 9.5405 91.9111 7.94534C93.5063 6.35017 95.5386 5.26387 97.7512 4.82375C99.9637 4.38363 102.257 4.60945 104.341 5.47272C106.425 6.33599 108.207 7.79795 109.46 9.67364C110.714 11.5493 111.383 13.7546 111.383 16.0105C111.379 19.0346 110.176 21.9338 108.038 24.0722C105.9 26.2106 103 27.4134 99.9762 27.4169ZM99.9762 5.9957C97.9954 5.99576 96.059 6.58323 94.4121 7.68376C92.7651 8.78429 91.4815 10.3485 90.7235 12.1785C89.9655 14.0086 89.7673 16.0223 90.1538 17.965C90.5403 19.9078 91.4942 21.6923 92.8949 23.0929C94.2956 24.4935 96.0802 25.4473 98.0229 25.8337C99.9657 26.2201 101.979 26.0216 103.809 25.2635C105.639 24.5054 107.204 23.2217 108.304 21.5747C109.404 19.9277 109.992 17.9913 109.992 16.0105C109.988 13.3553 108.932 10.8098 107.055 8.9323C105.177 7.05484 102.631 5.99878 99.9762 5.9957Z" fill="black"/>
<path d="M98.7766 20.6127C98.6786 20.6125 98.5818 20.5918 98.4924 20.5518C98.403 20.5117 98.323 20.4534 98.2577 20.3804L94.8848 16.6075L95.9226 15.6811L98.7249 18.8162L103.989 11.6915L105.108 12.5174L99.3362 20.3302C99.2748 20.4134 99.1957 20.4819 99.1045 20.5306C99.0134 20.5794 98.9124 20.6072 98.8092 20.612L98.7766 20.6127Z" fill="black"/>
<path d="M70.1701 20.9958C70.0788 20.9958 69.9883 20.9779 69.9039 20.943C69.8195 20.908 69.7428 20.8568 69.6782 20.7922C69.6136 20.7276 69.5624 20.6509 69.5274 20.5665C69.4925 20.4821 69.4746 20.3916 69.4746 20.3003V9.50782C69.4746 9.32336 69.5479 9.14642 69.6783 9.01599C69.8087 8.88556 69.9857 8.81232 70.1701 8.81232C70.3546 8.81232 70.5314 8.88556 70.6618 9.01599C70.7923 9.14642 70.8656 9.32336 70.8656 9.50782V20.3003C70.8657 20.3916 70.8476 20.4821 70.8127 20.5665C70.7778 20.6509 70.7266 20.7276 70.662 20.7922C70.5974 20.8568 70.5207 20.908 70.4363 20.943C70.3519 20.9779 70.2615 20.9958 70.1701 20.9958Z" fill="black"/>
<path d="M72.7076 15.5996H70.1701C69.9856 15.5996 69.8087 15.5263 69.6783 15.3959C69.5479 15.2654 69.4746 15.0885 69.4746 14.9041C69.4746 14.7196 69.5479 14.5427 69.6783 14.4122C69.8087 14.2818 69.9856 14.2086 70.1701 14.2086H72.7076C72.892 14.2086 73.0689 14.2818 73.1993 14.4122C73.3298 14.5427 73.4031 14.7196 73.4031 14.9041C73.4031 15.0885 73.3298 15.2654 73.1993 15.3959C73.0689 15.5263 72.892 15.5996 72.7076 15.5996Z" fill="black"/>
<path d="M72.7076 15.5996H70.1701C69.9856 15.5996 69.8087 15.5263 69.6783 15.3959C69.5479 15.2654 69.4746 15.0885 69.4746 14.9041C69.4746 14.7196 69.5479 14.5427 69.6783 14.4122C69.8087 14.2818 69.9856 14.2086 70.1701 14.2086H72.7076C72.892 14.2086 73.0689 14.2818 73.1993 14.4122C73.3298 14.5427 73.4031 14.7196 73.4031 14.9041C73.4031 15.0885 73.3298 15.2654 73.1993 15.3959C73.0689 15.5263 72.892 15.5996 72.7076 15.5996Z" fill="black"/>
<path d="M72.708 15.5995C72.5836 15.5995 72.4615 15.5661 72.3545 15.5028C72.2474 15.4396 72.1593 15.3488 72.0992 15.2399C72.0392 15.131 72.0094 15.008 72.013 14.8837C72.0166 14.7594 72.0535 14.6384 72.1198 14.5332L75.5199 9.13696C75.6185 8.98158 75.7746 8.87164 75.9542 8.83124C76.1338 8.79083 76.322 8.82325 76.4777 8.9214C76.6334 9.01956 76.7438 9.17547 76.7848 9.3549C76.8257 9.53433 76.7939 9.72266 76.6962 9.87865L73.2962 15.2749C73.2337 15.3744 73.1469 15.4565 73.044 15.5133C72.9411 15.5701 72.8255 15.5998 72.708 15.5995Z" fill="black"/>
<path d="M76.1081 20.9958C75.9906 20.9961 75.8749 20.9664 75.772 20.9096C75.6691 20.8528 75.5824 20.7707 75.5199 20.6712L72.1199 15.275C72.0215 15.119 71.9891 14.9303 72.0299 14.7504C72.0706 14.5706 72.1811 14.4143 72.3371 14.3159C72.4931 14.2176 72.6819 14.1852 72.8617 14.2259C73.0416 14.2667 73.1979 14.3773 73.2962 14.5333L76.6963 19.9295C76.7626 20.0347 76.7994 20.1557 76.803 20.28C76.8066 20.4043 76.7768 20.5273 76.7168 20.6362C76.6567 20.7451 76.5686 20.8359 76.4616 20.8991C76.3545 20.9624 76.2325 20.9958 76.1081 20.9958Z" fill="black"/>
<path d="M79.0684 9.27893H82.2242C82.9621 9.27893 83.6697 9.57203 84.1914 10.0938C84.7131 10.6155 85.0062 11.3231 85.0062 12.0609V17.5185C85.0062 18.2563 84.7131 18.964 84.1914 19.4857C83.6697 20.0074 82.9621 20.3005 82.2242 20.3005H79.0684V9.27893Z" fill="white"/>
<path d="M82.2241 20.9958H79.0685C78.9772 20.9958 78.8867 20.9779 78.8023 20.943C78.7179 20.908 78.6412 20.8568 78.5766 20.7922C78.512 20.7276 78.4608 20.6509 78.4259 20.5665C78.3909 20.4821 78.373 20.3916 78.373 20.3003V9.27893C78.373 9.18758 78.3909 9.09709 78.4259 9.01269C78.4608 8.92828 78.512 8.85162 78.5766 8.78702C78.6412 8.72243 78.7179 8.67118 78.8023 8.63624C78.8867 8.60131 78.9772 8.58338 79.0685 8.58344H82.2241C83.1461 8.5844 84.03 8.95105 84.6819 9.603C85.3339 10.2549 85.7006 11.1389 85.7016 12.0609V17.5183C85.7006 18.4403 85.3339 19.3242 84.6819 19.9761C84.03 20.6281 83.1461 20.9948 82.2241 20.9958ZM79.764 19.6048H82.2241C82.7773 19.6042 83.3076 19.3841 83.6988 18.993C84.09 18.6018 84.31 18.0715 84.3106 17.5183V12.0609C84.31 11.5077 84.09 10.9774 83.6988 10.5862C83.3076 10.1951 82.7773 9.97504 82.2241 9.97443H79.764V19.6048Z" fill="black"/>
<path d="M53.9453 91H47.4653V67.84H43.4653V61.8H53.9453V91ZM68.9434 91.56C63.9834 91.56 59.8634 89.04 58.1834 85.16L63.9434 82.52C64.6634 83.92 66.6634 85.08 68.7834 85.08C71.3034 85.08 72.9434 83.68 72.9434 81.76C72.9434 79.52 70.9434 78.4 68.1834 78.4H66.5434V72.4H68.3034C70.0634 72.4 71.8634 71.64 71.8634 69.88C71.8634 68.4 70.4634 67.48 68.6634 67.48C67.3034 67.48 66.1034 68.04 65.5034 68.84L59.5034 66.56C60.9034 63.4 64.7434 61.16 68.7434 61.16C73.7834 61.16 78.3834 63.72 78.3834 69.4C78.3834 71.88 77.0234 73.88 75.0234 75.2C77.6234 76.64 79.4234 79.04 79.4234 82.28C79.4234 87.96 74.9434 91.56 68.9434 91.56ZM91.0991 91H83.8591L94.5391 67.84H81.0591V61.8H102.299V65.72L91.0991 91ZM112.843 91H105.923V61.8H112.843V72.72L120.803 61.8H128.523L119.523 74.08L129.203 91H121.203L115.243 80.52L112.843 83.4V91Z" fill="#569FD6"/>
<path d="M14.0446 111H12.6026V100.78H14.0446V105.708L18.3706 100.78H20.0366L16.4526 104.994L20.3866 111H18.6926L15.5426 106.296L14.0446 107.92V111ZM24.9261 111H21.7901V100.78H24.9261C28.1041 100.78 30.3021 103.034 30.3021 105.876C30.3021 108.746 28.1881 111 24.9261 111ZM23.2321 102.194V109.572H24.9261C27.3621 109.572 28.8041 107.906 28.8041 105.862C28.8041 103.888 27.2781 102.194 24.9261 102.194H23.2321ZM36.6258 111H35.0298L38.7678 100.78H40.3358L44.0738 111H42.5058L41.5258 108.34H37.5918L36.6258 111ZM39.5518 102.726L38.0118 106.982H41.1058L39.5518 102.726ZM46.6467 111H45.2887V103.3H46.5487L46.6187 104.574C47.0107 103.678 47.8787 103.188 48.7187 103.188C49.9507 103.188 50.7487 103.902 51.0707 104.826C51.3927 103.916 52.1907 103.188 53.3107 103.188C54.9487 103.188 56.1667 104.238 56.1667 106.912V111H54.7947V106.912C54.7947 105.148 54.0107 104.532 53.1007 104.532C52.2467 104.532 51.4067 105.148 51.4067 106.912V111H50.0347V106.912C50.0347 105.148 49.2507 104.532 48.3407 104.532C47.4307 104.532 46.6467 105.316 46.6467 107.08V111ZM61.5032 111.112C59.3192 111.112 57.5552 109.32 57.5552 107.136C57.5552 104.966 59.3192 103.202 61.5032 103.202C63.6732 103.202 65.4512 104.966 65.4512 107.136C65.4512 109.32 63.6732 111.112 61.5032 111.112ZM61.5032 109.712C62.9172 109.712 64.0652 108.564 64.0652 107.136C64.0652 105.736 62.9172 104.588 61.5032 104.588C60.0752 104.588 58.9412 105.736 58.9412 107.136C58.9412 108.564 60.0752 109.712 61.5032 109.712ZM69.9817 111.112C68.1897 111.112 66.8317 109.866 66.8317 107.206V103.3H68.2037V107.206C68.2037 108.97 69.1557 109.754 70.2897 109.754C71.4097 109.754 72.3757 108.97 72.3757 107.206V103.3H73.7337V111H72.4737L72.4037 109.628C71.9837 110.44 71.1437 111.112 69.9817 111.112ZM77.094 111H75.736V103.3H76.996L77.066 104.658C77.486 103.846 78.312 103.188 79.488 103.188C81.28 103.188 82.638 104.42 82.638 107.08V111H81.266V107.08C81.266 105.33 80.314 104.532 79.18 104.532C78.06 104.532 77.094 105.316 77.094 107.08V111ZM87.2346 111.126C85.8206 111.126 84.6446 110.272 84.6446 108.13V104.532H83.6086V103.3H84.6866L84.8546 100.78H86.0026V103.3H87.8506V104.532H86.0026V108.116C86.0026 109.222 86.5486 109.796 87.4166 109.796C87.6126 109.796 87.8226 109.768 88.0046 109.698L88.3546 110.916C88.0326 111.056 87.6406 111.126 87.2346 111.126ZM94.4305 111H92.8345L96.5725 100.78H98.1405L101.878 111H100.31L99.3305 108.34H95.3965L94.4305 111ZM97.3565 102.726L95.8165 106.982H98.9105L97.3565 102.726ZM104.451 114.08H103.093V103.3H104.353L104.423 104.896C104.885 103.944 106.019 103.202 107.279 103.202C109.351 103.202 111.031 104.966 111.031 107.136C111.031 109.32 109.351 111.112 107.279 111.112C106.033 111.112 104.913 110.37 104.451 109.418V114.08ZM107.069 109.754C108.497 109.754 109.659 108.578 109.659 107.136C109.659 105.708 108.497 104.546 107.069 104.546C105.613 104.546 104.451 105.708 104.451 107.136C104.451 108.578 105.613 109.754 107.069 109.754ZM113.844 114.08H112.486V103.3H113.746L113.816 104.896C114.278 103.944 115.412 103.202 116.672 103.202C118.744 103.202 120.424 104.966 120.424 107.136C120.424 109.32 118.744 111.112 116.672 111.112C115.426 111.112 114.306 110.37 113.844 109.418V114.08ZM116.462 109.754C117.89 109.754 119.052 108.578 119.052 107.136C119.052 105.708 117.89 104.546 116.462 104.546C115.006 104.546 113.844 105.708 113.844 107.136C113.844 108.578 115.006 109.754 116.462 109.754ZM123.332 111H121.974V103.3H123.234L123.318 104.56C123.766 103.734 124.634 103.244 125.768 103.258C125.964 103.258 126.16 103.272 126.342 103.3L126.062 104.616C125.978 104.602 125.88 104.588 125.796 104.588C124.494 104.588 123.332 105.316 123.332 107.444V111ZM130.724 111.112C128.54 111.112 126.776 109.32 126.776 107.136C126.776 104.966 128.54 103.202 130.724 103.202C132.894 103.202 134.672 104.966 134.672 107.136C134.672 109.32 132.894 111.112 130.724 111.112ZM130.724 109.712C132.138 109.712 133.286 108.564 133.286 107.136C133.286 105.736 132.138 104.588 130.724 104.588C129.296 104.588 128.162 105.736 128.162 107.136C128.162 108.564 129.296 109.712 130.724 109.712ZM139.38 111H138.022L134.998 103.3H136.468L138.708 108.956L140.934 103.3H142.404L139.38 111ZM146.805 111.112C144.467 111.112 142.717 109.32 142.717 107.136C142.717 104.966 144.467 103.202 146.623 103.202C148.863 103.202 150.529 104.966 150.529 107.136C150.529 107.318 150.501 107.584 150.487 107.78H144.187C144.397 108.942 145.475 109.824 146.805 109.824C147.757 109.824 148.513 109.432 149.003 108.83L150.109 109.516C149.381 110.482 148.107 111.112 146.805 111.112ZM144.173 106.66H149.115C149.045 105.47 148.051 104.476 146.637 104.476C145.279 104.476 144.257 105.47 144.173 106.66ZM155.356 111.098C153.284 111.098 151.604 109.32 151.604 107.15C151.604 104.966 153.284 103.188 155.356 103.188C156.602 103.188 157.722 103.916 158.184 104.882V100.08H159.556V111H158.296L158.226 109.39C157.75 110.356 156.616 111.098 155.356 111.098ZM155.58 109.74C157.022 109.74 158.184 108.578 158.184 107.15C158.184 105.708 157.022 104.532 155.58 104.532C154.152 104.532 152.99 105.708 152.99 107.15C152.99 108.578 154.152 109.74 155.58 109.74Z" fill="black"/>
</svg>
