<svg width="80" height="50" viewBox="0 0 80 50" fill="none" xmlns="http://www.w3.org/2000/svg">
<path d="M64.4061 2.67639H31.1382C29.2543 2.67639 27.7271 4.20361 27.7271 6.08753V24.625C27.7271 26.509 29.2543 28.0362 31.1382 28.0362H64.4061C66.2901 28.0362 67.8173 26.509 67.8173 24.625V6.08753C67.8173 4.20361 66.2901 2.67639 64.4061 2.67639Z" fill="white"/>
<path d="M64.4065 28.7127H31.1378C30.0543 28.7112 29.0154 28.28 28.2493 27.5136C27.4832 26.7473 27.0524 25.7084 27.0513 24.6248V6.08723C27.0525 5.00371 27.4834 3.96492 28.2495 3.19869C29.0156 2.43246 30.0543 2.00137 31.1378 2H64.4065C65.4902 2.00109 66.5291 2.43202 67.2955 3.19827C68.0619 3.96452 68.4931 5.0035 68.4943 6.08723V24.6248C68.4931 25.7086 68.062 26.7476 67.2957 27.514C66.5293 28.2803 65.4902 28.7114 64.4065 28.7127ZM31.1378 3.35298C30.413 3.35387 29.718 3.64224 29.2055 4.15485C28.6931 4.66745 28.4049 5.36243 28.4042 6.08727V24.6248C28.4048 25.3498 28.6929 26.0449 29.2054 26.5576C29.7179 27.0703 30.4129 27.3588 31.1378 27.3598H64.4065C65.1315 27.3589 65.8265 27.0704 66.3392 26.5577C66.852 26.045 67.1405 25.3499 67.1414 24.6248V6.08723C67.1404 5.36225 66.8518 4.66726 66.3391 4.15468C65.8264 3.6421 65.1314 3.35379 64.4065 3.35294L31.1378 3.35298Z" fill="black"/>
<path d="M60.9276 8.24082H42.6814C42.5019 8.24082 42.3298 8.16954 42.2029 8.04268C42.076 7.91581 42.0049 7.74376 42.0049 7.56435C42.0049 7.38494 42.076 7.21288 42.2029 7.08602C42.3298 6.95916 42.5019 6.88788 42.6814 6.88788H60.9276C61.107 6.88788 61.279 6.95916 61.4058 7.08602C61.5327 7.21288 61.604 7.38494 61.604 7.56435C61.604 7.74376 61.5327 7.91581 61.4058 8.04268C61.279 8.16954 61.107 8.24082 60.9276 8.24082Z" fill="black"/>
<path d="M60.9276 13.4353H46.5315C46.352 13.4353 46.1799 13.364 46.053 13.2371C45.9261 13.1103 45.855 12.9382 45.855 12.7588C45.855 12.5794 45.9261 12.4073 46.053 12.2804C46.1799 12.1536 46.352 12.0823 46.5315 12.0823H60.9276C61.107 12.0823 61.279 12.1536 61.4059 12.2804C61.5327 12.4073 61.6041 12.5794 61.6041 12.7588C61.6041 12.9382 61.5327 13.1103 61.4059 13.2371C61.279 13.364 61.107 13.4353 60.9276 13.4353Z" fill="black"/>
<path d="M60.9276 18.6297H42.6814C42.5019 18.6297 42.3298 18.5584 42.2029 18.4315C42.076 18.3047 42.0049 18.1326 42.0049 17.9532C42.0049 17.7738 42.076 17.6017 42.2029 17.4749C42.3298 17.348 42.5019 17.2767 42.6814 17.2767H60.9276C61.107 17.2767 61.279 17.348 61.4058 17.4749C61.5327 17.6017 61.604 17.7738 61.604 17.9532C61.604 18.1326 61.5327 18.3047 61.4058 18.4315C61.279 18.5584 61.107 18.6297 60.9276 18.6297Z" fill="black"/>
<path d="M60.9276 23.8241H46.5315C46.352 23.8241 46.1799 23.7529 46.053 23.626C45.9261 23.4991 45.855 23.3271 45.855 23.1477C45.855 22.9683 45.9261 22.7962 46.053 22.6693C46.1799 22.5425 46.352 22.4712 46.5315 22.4712H60.9276C61.107 22.4712 61.279 22.5425 61.4059 22.6693C61.5327 22.7962 61.6041 22.9683 61.6041 23.1477C61.6041 23.3271 61.5327 23.4991 61.4059 23.626C61.279 23.7529 61.107 23.8241 60.9276 23.8241Z" fill="black"/>
<path d="M17.538 12.063C19.9512 12.063 21.9076 10.1066 21.9076 7.69335C21.9076 5.28008 19.9512 3.32373 17.538 3.32373C15.1247 3.32373 13.1683 5.28008 13.1683 7.69335C13.1683 10.1066 15.1247 12.063 17.538 12.063Z" fill="#8EBFE4"/>
<path d="M17.5383 12.7396C16.5402 12.7397 15.5646 12.4438 14.7348 11.8894C13.9049 11.335 13.2579 10.5469 12.876 9.62487C12.494 8.70283 12.3939 7.68827 12.5886 6.7094C12.7832 5.73054 13.2638 4.83137 13.9694 4.12561C14.6751 3.41985 15.5743 2.9392 16.5531 2.74443C17.5319 2.54966 18.5465 2.64952 19.4686 3.03138C20.3907 3.41325 21.1788 4.05995 21.7333 4.88974C22.2879 5.71953 22.584 6.69512 22.584 7.69314C22.5826 9.03101 22.0505 10.3137 21.1046 11.2598C20.1586 12.2058 18.8761 12.7381 17.5383 12.7396ZM17.5383 4.00034C16.8078 4.00028 16.0936 4.21685 15.4862 4.62264C14.8788 5.02843 14.4054 5.60519 14.1258 6.28004C13.8463 6.9549 13.7731 7.69752 13.9156 8.41396C14.0581 9.13039 14.4098 9.78849 14.9263 10.305C15.4429 10.8215 16.1011 11.1733 16.8175 11.3158C17.534 11.4582 18.2765 11.3851 18.9513 11.1055C19.6262 10.8259 20.203 10.3525 20.6088 9.74514C21.0146 9.13775 21.2312 8.42365 21.2311 7.69318C21.2299 6.71414 20.8405 5.77554 20.1482 5.08326C19.4559 4.39097 18.5173 4.00152 17.5383 4.00034Z" fill="black"/>
<path d="M17.538 12.0629C18.9584 12.0629 20.3206 12.6272 21.325 13.6316C22.3294 14.6359 22.8936 15.9981 22.8936 17.4185V33.8749H12.1824V17.4185C12.1824 15.9981 12.7466 14.6359 13.751 13.6316C14.7554 12.6272 16.1176 12.0629 17.538 12.0629Z" fill="#8EBFE4"/>
<path d="M22.8933 34.5512H12.1821C12.0932 34.5513 12.0052 34.5338 11.9231 34.4998C11.841 34.4658 11.7665 34.416 11.7036 34.3532C11.6408 34.2904 11.591 34.2158 11.557 34.1337C11.523 34.0516 11.5056 33.9636 11.5056 33.8747V17.4188C11.5056 15.819 12.141 14.2847 13.2723 13.1535C14.4035 12.0223 15.9379 11.3867 17.5377 11.3867C19.1375 11.3867 20.6717 12.0223 21.803 13.1535C22.9342 14.2847 23.5698 15.819 23.5698 17.4188V33.8747C23.5698 33.9636 23.5524 34.0516 23.5184 34.1337C23.4844 34.2158 23.4346 34.2904 23.3718 34.3532C23.3089 34.416 23.2344 34.4658 23.1523 34.4998C23.0702 34.5338 22.9822 34.5513 22.8933 34.5512ZM12.8586 33.1983H22.2168V17.4188C22.2168 16.1778 21.7239 14.9877 20.8464 14.1101C19.9689 13.2326 18.7787 12.7397 17.5377 12.7397C16.2967 12.7397 15.1065 13.2326 14.229 14.1101C13.3515 14.9877 12.8586 16.1778 12.8586 17.4188V33.1983Z" fill="black"/>
<path d="M31.2422 16.7198C31.1117 16.7199 30.9839 16.6822 30.8744 16.6112C30.7648 16.5403 30.6782 16.4393 30.6248 16.3202C30.5715 16.2011 30.5537 16.0691 30.5736 15.9402C30.5936 15.8112 30.6506 15.6908 30.7375 15.5935L38.1786 7.24329C38.2375 7.17616 38.3089 7.12136 38.389 7.08202C38.4692 7.04268 38.5564 7.0196 38.6455 7.0141C38.7346 7.00861 38.8239 7.02079 38.9083 7.04998C38.9926 7.07918 39.0704 7.12477 39.137 7.18417C39.2037 7.24356 39.2577 7.31556 39.2964 7.39602C39.3351 7.47648 39.3576 7.56382 39.3623 7.65296C39.3671 7.7421 39.3541 7.83128 39.3242 7.91539C39.2942 7.9995 39.248 8.07687 39.1881 8.14301L31.7469 16.4932C31.6836 16.5646 31.6058 16.6216 31.5188 16.6607C31.4318 16.6998 31.3376 16.7199 31.2422 16.7198Z" fill="black"/>
<path d="M17.1506 18.5984L19.1282 24.1556C19.2651 24.5405 19.49 24.8881 19.785 25.1706C20.08 25.4532 20.437 25.6629 20.8275 25.783C21.2179 25.9032 21.6309 25.9304 22.0337 25.8626C22.4366 25.7949 22.8181 25.6339 23.1477 25.3926L31.9985 18.9126C32.5565 18.5005 32.9284 17.8841 33.033 17.1983C33.1376 16.5125 32.9662 15.8133 32.5564 15.2536C32.1465 14.6939 31.5317 14.3194 30.8464 14.212C30.161 14.1046 29.4611 14.2731 28.8997 14.6806L22.8937 18.8266L17.1506 18.5984Z" fill="#8EBFE4"/>
<path d="M21.5985 26.5756C20.9176 26.5752 20.2534 26.3642 19.6971 25.9716C19.1407 25.5789 18.7194 25.0238 18.491 24.3823L16.5144 18.8252C16.4846 18.7416 16.4716 18.6529 16.4761 18.5643C16.4806 18.4756 16.5026 18.3887 16.5407 18.3085C16.5788 18.2284 16.6322 18.1565 16.6981 18.097C16.7639 18.0375 16.841 17.9916 16.9246 17.9618C17.0083 17.932 17.0969 17.919 17.1856 17.9235C17.2742 17.928 17.3611 17.95 17.4412 17.9881C17.5214 18.0261 17.5933 18.0797 17.6528 18.1455C17.7123 18.2114 17.7583 18.2884 17.7881 18.372L19.7646 23.9291C19.8665 24.2148 20.0335 24.4727 20.2527 24.6823C20.4718 24.892 20.7368 25.0475 21.0267 25.1366C21.3166 25.2256 21.6235 25.2457 21.9225 25.1953C22.2216 25.1448 22.5047 25.0253 22.7493 24.846L31.5989 18.3667C32.0139 18.0611 32.2908 17.6034 32.3689 17.094C32.4469 16.5846 32.3196 16.065 32.0151 15.6492C31.7106 15.2334 31.2535 14.9554 30.7442 14.8761C30.235 14.7968 29.7152 14.9227 29.2986 15.2261L23.2778 19.3834C23.1301 19.485 22.9481 19.5238 22.7718 19.4914C22.5954 19.4589 22.4391 19.3579 22.3372 19.2103C22.2354 19.0628 22.1963 18.8809 22.2284 18.7045C22.2605 18.5281 22.3615 18.3717 22.5088 18.2696L28.5152 14.1236C29.2227 13.6112 30.1044 13.4004 30.9672 13.5373C31.8299 13.6743 32.6032 14.1478 33.1173 14.8541C33.6314 15.5603 33.8444 16.4416 33.7096 17.3047C33.5748 18.1678 33.1032 18.9422 32.3983 19.458L23.5473 25.938C22.9826 26.3534 22.2995 26.5768 21.5985 26.5756Z" fill="black"/>
<path d="M67.8173 47.3235V47.3129C67.8168 45.7596 67.273 44.2555 66.2801 43.061C65.2872 41.8665 63.9076 41.057 62.3806 40.7726C63.1708 40.3399 63.7946 39.6565 64.1534 38.8301C64.5122 38.0038 64.5858 37.0815 64.3625 36.2087C64.1392 35.3359 63.6316 34.5623 62.92 34.0098C62.2084 33.4574 61.333 33.1575 60.4321 33.1575C59.5312 33.1575 58.6561 33.4574 57.9444 34.0098C57.2328 34.5623 56.7253 35.3359 56.502 36.2087C56.2787 37.0815 56.3522 38.0038 56.7111 38.8301C57.0699 39.6565 57.6936 40.3399 58.4838 40.7726C56.9568 41.0571 55.5774 41.8666 54.5845 43.0611C53.5916 44.2556 53.0477 45.7596 53.0471 47.3129V47.3235H67.8173Z" fill="white"/>
<path d="M67.8179 48H53.0478C52.959 48.0001 52.8709 47.9826 52.7889 47.9486C52.7068 47.9146 52.6322 47.8648 52.5694 47.802C52.5065 47.7392 52.4567 47.6646 52.4227 47.5825C52.3887 47.5004 52.3713 47.4124 52.3713 47.3236C52.37 45.8498 52.8125 44.4097 53.6414 43.1911C54.4702 41.9725 55.6469 41.0317 57.0181 40.4915C56.3751 39.8221 55.943 38.9784 55.7757 38.0654C55.6083 37.1524 55.7131 36.2104 56.0769 35.3565C56.4407 34.5025 57.0476 33.7743 57.8219 33.2626C58.5963 32.7508 59.504 32.4779 60.4322 32.4779C61.3604 32.4779 62.2681 32.7508 63.0424 33.2626C63.8168 33.7743 64.4236 34.5025 64.7874 35.3565C65.1513 36.2104 65.2559 37.1524 65.0885 38.0654C64.9212 38.9784 64.4893 39.8221 63.8462 40.4915C65.2165 41.0301 66.3928 41.969 67.2218 43.1857C68.0509 44.4024 68.4943 45.8406 68.4943 47.313C68.4948 47.4935 68.424 47.667 68.2973 47.7956C68.1706 47.9243 67.9984 47.9977 67.8179 48ZM53.7613 46.6471H67.1044C66.9617 45.374 66.4136 44.1805 65.541 43.2426C64.6685 42.3048 63.5176 41.6721 62.2581 41.4381C62.1211 41.4127 61.9953 41.3455 61.8979 41.2459C61.8005 41.1463 61.7362 41.019 61.7138 40.8815C61.6914 40.744 61.712 40.6029 61.7727 40.4775C61.8335 40.3522 61.9315 40.2486 62.0533 40.181C62.7121 39.8209 63.2322 39.2517 63.5316 38.5632C63.831 37.8747 63.8927 37.1062 63.7068 36.3788C63.521 35.6514 63.0981 35.0066 62.5052 34.5461C61.9123 34.0856 61.1829 33.8356 60.4322 33.8356C59.6814 33.8356 58.9521 34.0856 58.3592 34.5461C57.7662 35.0066 57.3435 35.6514 57.1577 36.3788C56.9718 37.1062 57.0333 37.8747 57.3327 38.5632C57.6321 39.2517 58.1523 39.8209 58.811 40.181C58.9328 40.2486 59.0309 40.3522 59.0916 40.4775C59.1524 40.6029 59.173 40.744 59.1506 40.8815C59.1282 41.019 59.0638 41.1463 58.9664 41.2459C58.869 41.3455 58.7432 41.4127 58.6062 41.4381C57.3469 41.6723 56.1963 42.305 55.324 43.2428C54.4516 44.1807 53.9038 45.3742 53.7613 46.6471Z" fill="black"/>
<path d="M38.2768 47.3234V47.3128C38.2763 45.7595 37.7323 44.2554 36.7394 43.0609C35.7465 41.8665 34.3672 41.0569 32.8401 40.7725C33.6303 40.3398 34.2539 39.6564 34.6127 38.8301C34.9716 38.0037 35.0451 37.0814 34.8218 36.2086C34.5985 35.3358 34.0912 34.5622 33.3795 34.0097C32.6679 33.4572 31.7926 33.1573 30.8917 33.1573C29.9908 33.1573 29.1154 33.4572 28.4038 34.0097C27.6922 34.5622 27.1848 35.3358 26.9615 36.2086C26.7382 37.0814 26.8117 38.0037 27.1706 38.8301C27.5294 39.6564 28.153 40.3398 28.9432 40.7725C27.4162 41.057 26.0368 41.8666 25.0439 43.061C24.051 44.2555 23.5071 45.7596 23.5065 47.3128V47.3234H38.2768Z" fill="white"/>
<path d="M38.2764 47.9998H23.5063C23.4175 47.9999 23.3294 47.9824 23.2473 47.9484C23.1652 47.9144 23.0907 47.8646 23.0279 47.8018C22.965 47.739 22.9152 47.6644 22.8812 47.5823C22.8472 47.5002 22.8298 47.4122 22.8298 47.3233C22.8285 45.8494 23.2711 44.4092 24.1002 43.1905C24.9293 41.9718 26.1064 41.0312 27.4779 40.4912C26.835 39.822 26.4028 38.9784 26.2355 38.0655C26.0681 37.1527 26.1728 36.2107 26.5366 35.3569C26.9003 34.5031 27.507 33.775 28.2812 33.2632C29.0555 32.7515 29.9632 32.4786 30.8913 32.4786C31.8194 32.4786 32.727 32.7515 33.5013 33.2632C34.2755 33.775 34.8822 34.5031 35.2459 35.3569C35.6097 36.2107 35.7144 37.1527 35.547 38.0655C35.3797 38.9784 34.9477 39.822 34.3047 40.4912C35.675 41.0299 36.8512 41.9688 37.6803 43.1855C38.5094 44.4022 38.9528 45.8404 38.9528 47.3128C38.9533 47.4933 38.8825 47.6668 38.7558 47.7954C38.6291 47.9241 38.4569 47.9975 38.2764 47.9998ZM24.2198 46.6469H37.5629C37.4202 45.3738 36.8721 44.1803 35.9995 43.2424C35.127 42.3045 33.9761 41.6719 32.7166 41.4379C32.5796 41.4124 32.4538 41.3453 32.3564 41.2457C32.259 41.1461 32.1947 41.0188 32.1723 40.8813C32.1499 40.7438 32.1705 40.6027 32.2312 40.4773C32.292 40.352 32.39 40.2484 32.5118 40.1808C33.1709 39.8207 33.6913 39.2515 33.9909 38.5629C34.2906 37.8743 34.3524 37.1055 34.1667 36.3778C33.9809 35.6502 33.5581 35.0051 32.965 34.5444C32.3719 34.0837 31.6423 33.8336 30.8913 33.8336C30.1403 33.8336 29.4107 34.0837 28.8177 34.5444C28.2246 35.0051 27.8018 35.6502 27.616 36.3778C27.4302 37.1055 27.4921 37.8743 27.7917 38.5629C28.0914 39.2515 28.6118 39.8207 29.2708 40.1808C29.3927 40.2484 29.4907 40.352 29.5514 40.4773C29.6122 40.6027 29.6328 40.7438 29.6104 40.8813C29.588 41.0188 29.5237 41.1461 29.4263 41.2457C29.3288 41.3453 29.203 41.4124 29.0661 41.4379C27.8066 41.6719 26.6557 42.3045 25.7831 43.2424C24.9105 44.1803 24.3624 45.3738 24.2198 46.6469Z" fill="black"/>
<path d="M53.0471 47.3235V47.3129C53.0465 45.7596 52.5026 44.2555 51.5097 43.061C50.5167 41.8665 49.1374 41.057 47.6104 40.7726C48.4006 40.3399 49.0243 39.6565 49.3831 38.8301C49.742 38.0038 49.8155 37.0815 49.5922 36.2087C49.3689 35.3359 48.8614 34.5623 48.1498 34.0098C47.4381 33.4573 46.5628 33.1575 45.6619 33.1575C44.761 33.1575 43.8858 33.4573 43.1742 34.0098C42.4625 34.5623 41.955 35.3359 41.7317 36.2087C41.5084 37.0815 41.582 38.0038 41.9408 38.8301C42.2996 39.6565 42.9232 40.3399 43.7134 40.7726C42.1864 41.0571 40.807 41.8666 39.8141 43.0611C38.8212 44.2556 38.2775 45.7596 38.2769 47.3129V47.3235H53.0471Z" fill="white"/>
<path d="M53.0478 48H38.2764C38.1876 48 38.0996 47.9826 38.0175 47.9486C37.9354 47.9146 37.8608 47.8648 37.798 47.802C37.7352 47.7392 37.6853 47.6645 37.6513 47.5824C37.6174 47.5003 37.5999 47.4124 37.6 47.3235C37.5986 45.8496 38.0412 44.4094 38.8703 43.1907C39.6994 41.972 40.8766 41.0314 42.2481 40.4914C41.6055 39.8221 41.1738 38.9787 41.0068 38.0661C40.8397 37.1534 40.9446 36.2118 41.3083 35.3582C41.6721 34.5047 42.2788 33.7769 43.0529 33.2654C43.8269 32.7539 44.7343 32.4811 45.6621 32.4811C46.59 32.4811 47.4972 32.7539 48.2712 33.2654C49.0453 33.7769 49.652 34.5047 50.0158 35.3582C50.3795 36.2118 50.4844 37.1534 50.3173 38.0661C50.1503 38.9787 49.7188 39.8221 49.0762 40.4914C50.4465 41.0301 51.6227 41.9689 52.4518 43.1857C53.2808 44.4024 53.7243 45.8406 53.7243 47.313C53.7248 47.4935 53.6539 47.6669 53.5273 47.7956C53.4006 47.9242 53.2283 47.9977 53.0478 48ZM38.9899 46.6471H52.3344C52.1917 45.374 51.6436 44.1805 50.771 43.2426C49.8984 42.3047 48.7475 41.6721 47.4881 41.4381C47.3511 41.4126 47.2253 41.3455 47.1279 41.2459C47.0305 41.1463 46.9661 41.019 46.9437 40.8815C46.9213 40.744 46.9419 40.6029 47.0027 40.4775C47.0634 40.3521 47.1615 40.2486 47.2833 40.1809C47.9424 39.8208 48.4629 39.2514 48.7626 38.5627C49.0622 37.8739 49.124 37.105 48.9381 36.3773C48.7523 35.6495 48.3293 35.0044 47.7361 34.5436C47.1429 34.0829 46.4132 33.8328 45.6621 33.8328C44.911 33.8328 44.1813 34.0829 43.5881 34.5436C42.9949 35.0044 42.572 35.6495 42.3861 36.3773C42.2003 37.105 42.2621 37.8739 42.5617 38.5627C42.8613 39.2514 43.3818 39.8208 44.041 40.1809C44.1628 40.2486 44.2608 40.3521 44.3216 40.4775C44.3823 40.6029 44.4029 40.744 44.3805 40.8815C44.3581 41.019 44.2938 41.1463 44.1964 41.2459C44.099 41.3455 43.9732 41.4126 43.8362 41.4381C42.5767 41.6721 41.4257 42.3047 40.5531 43.2426C39.6805 44.1805 39.1326 45.374 38.9899 46.6471Z" fill="black"/>
</svg>
