<svg width="60" height="50" viewBox="0 0 60 50" fill="none" xmlns="http://www.w3.org/2000/svg">
<path d="M51.086 11.439H8.91444C6.97153 11.439 5.39648 13.014 5.39648 14.9569V43.8081C5.39648 45.751 6.97153 47.326 8.91444 47.326H51.086C53.0289 47.326 54.6039 45.751 54.6039 43.8081V14.9569C54.6039 13.014 53.0289 11.439 51.086 11.439Z" fill="white"/>
<path d="M51.086 48H8.91382C7.80252 47.9988 6.73702 47.5567 5.95128 46.7708C5.16553 45.985 4.72374 44.9195 4.72266 43.8082V14.9565C4.72374 13.8452 5.16553 12.7797 5.95128 11.9938C6.73702 11.208 7.80252 10.7659 8.91382 10.7646H51.086C52.1973 10.7659 53.2627 11.208 54.0484 11.9938C54.8342 12.7797 55.2761 13.8452 55.2772 14.9565V43.8082C55.2761 44.9195 54.8342 45.985 54.0484 46.7708C53.2627 47.5567 52.1973 47.9988 51.086 48ZM8.91382 12.1126C8.1599 12.1135 7.43716 12.4134 6.90413 12.9465C6.37109 13.4797 6.07129 14.2026 6.07057 14.9565V43.8082C6.07129 44.5621 6.37109 45.2849 6.90413 45.8181C7.43716 46.3512 8.1599 46.6512 8.91382 46.6521H51.086C51.84 46.6512 52.5627 46.3512 53.0957 45.8181C53.6288 45.2849 53.9286 44.5621 53.9293 43.8082V14.9565C53.9286 14.2026 53.6288 13.4797 53.0957 12.9465C52.5627 12.4134 51.84 12.1135 51.086 12.1126H8.91382Z" fill="black"/>
<path d="M51.086 7.14648H8.91444C6.97153 7.14648 5.39648 8.72153 5.39648 10.6644V39.5156C5.39648 41.4585 6.97153 43.0336 8.91444 43.0336H51.086C53.0289 43.0336 54.6039 41.4585 54.6039 39.5156V10.6644C54.6039 8.72153 53.0289 7.14648 51.086 7.14648Z" fill="white"/>
<path d="M51.086 43.7076H8.91382C7.80252 43.7064 6.73702 43.2643 5.95128 42.4784C5.16553 41.6926 4.72374 40.6271 4.72266 39.5158V10.6646C4.72371 9.55328 5.16555 8.48775 5.95128 7.70177C6.737 6.9158 7.80246 6.47357 8.91382 6.47217H51.086C52.1974 6.47357 53.2628 6.9158 54.0486 7.70177C54.8343 8.48775 55.2761 9.55328 55.2772 10.6646V39.5157C55.2761 40.627 54.8342 41.6926 54.0484 42.4784C53.2627 43.2643 52.1973 43.7064 51.086 43.7076ZM8.91382 7.82016C8.15984 7.82121 7.43698 8.12127 6.90396 8.65454C6.37094 9.18781 6.07127 9.91075 6.07057 10.6647V39.5158C6.07129 40.2697 6.37109 40.9925 6.90413 41.5257C7.43716 42.0588 8.1599 42.3588 8.91382 42.3597H51.086C51.84 42.3588 52.5627 42.0588 53.0957 41.5257C53.6288 40.9925 53.9286 40.2697 53.9293 39.5158V10.6646C53.9286 9.91066 53.6288 9.18773 53.0957 8.65446C52.5627 8.12119 51.84 7.82113 51.086 7.82008L8.91382 7.82016Z" fill="black"/>
<path d="M54.6036 15.822H5.75501C5.57627 15.822 5.40473 15.7511 5.27834 15.6247C5.15195 15.4983 5.08105 15.3268 5.08105 15.1481C5.08105 14.9693 5.15195 14.798 5.27834 14.6716C5.40473 14.5452 5.57627 14.4741 5.75501 14.4741H54.6036C54.7824 14.4741 54.9537 14.5452 55.0801 14.6716C55.2065 14.798 55.2776 14.9693 55.2776 15.1481C55.2776 15.3268 55.2065 15.4983 55.0801 15.6247C54.9537 15.7511 54.7824 15.822 54.6036 15.822Z" fill="black"/>
<path d="M16.1287 4.39297C16.1287 3.44351 15.359 2.67383 14.4096 2.67383C13.4601 2.67383 12.6904 3.44351 12.6904 4.39297V9.90006C12.6904 10.8495 13.4601 11.6192 14.4096 11.6192C15.359 11.6192 16.1287 10.8495 16.1287 9.90006V4.39297Z" fill="white"/>
<path d="M14.4097 12.2929C13.7752 12.2921 13.167 12.0396 12.7184 11.591C12.2698 11.1424 12.0174 10.5342 12.0166 9.89981V4.39307C12.0166 3.75839 12.2688 3.14964 12.7175 2.70086C13.1663 2.25207 13.775 2 14.4097 2C15.0443 2 15.653 2.25207 16.1018 2.70086C16.5506 3.14964 16.8027 3.75839 16.8027 4.39307V9.89989C16.8019 10.5343 16.5494 11.1425 16.1008 11.5911C15.6522 12.0397 15.0441 12.2921 14.4097 12.2929ZM14.4097 3.34783C14.1325 3.34805 13.8668 3.45824 13.6709 3.6542C13.4749 3.85016 13.3647 4.11586 13.3645 4.39299V9.89981C13.3645 10.177 13.4746 10.4428 13.6706 10.6388C13.8666 10.8348 14.1325 10.945 14.4097 10.945C14.6869 10.945 14.9526 10.8348 15.1486 10.6388C15.3446 10.4428 15.4548 10.177 15.4548 9.89981V4.39307C15.4546 4.11593 15.3444 3.85017 15.1485 3.6542C14.9525 3.45824 14.6868 3.34805 14.4097 3.34783Z" fill="black"/>
<path d="M47.3094 4.39297C47.3094 3.44351 46.5397 2.67383 45.5902 2.67383C44.6408 2.67383 43.8711 3.44351 43.8711 4.39297V9.90006C43.8711 10.8495 44.6408 11.6192 45.5902 11.6192C46.5397 11.6192 47.3094 10.8495 47.3094 9.90006V4.39297Z" fill="white"/>
<path d="M45.5903 12.2929C44.9559 12.2921 44.3476 12.0397 43.899 11.5911C43.4504 11.1425 43.1981 10.5342 43.1973 9.89981V4.39307C43.1973 3.75839 43.4494 3.14964 43.8982 2.70086C44.347 2.25207 44.9557 2 45.5903 2C46.225 2 46.8337 2.25207 47.2825 2.70086C47.7312 3.14964 47.9834 3.75839 47.9834 4.39307V9.89989C47.9826 10.5343 47.7301 11.1425 47.2815 11.5911C46.8329 12.0397 46.2248 12.2921 45.5903 12.2929ZM45.5903 3.34783C45.3132 3.34805 45.0475 3.45824 44.8515 3.6542C44.6556 3.85016 44.5454 4.11586 44.5452 4.39299V9.89981C44.5452 10.177 44.6552 10.4428 44.8512 10.6388C45.0472 10.8348 45.3131 10.945 45.5903 10.945C45.8675 10.945 46.1333 10.8348 46.3293 10.6388C46.5253 10.4428 46.6355 10.177 46.6355 9.89981V4.39307C46.6353 4.11593 46.5251 3.85017 46.3291 3.6542C46.1332 3.45824 45.8675 3.34805 45.5903 3.34783Z" fill="black"/>
<path d="M31.7185 4.39297C31.7185 3.44351 30.9489 2.67383 29.9994 2.67383C29.05 2.67383 28.2803 3.44351 28.2803 4.39297V9.90006C28.2803 10.8495 29.05 11.6192 29.9994 11.6192C30.9489 11.6192 31.7185 10.8495 31.7185 9.90006V4.39297Z" fill="white"/>
<path d="M29.9995 12.2929C29.3651 12.2921 28.7568 12.0397 28.3082 11.5911C27.8596 11.1425 27.6073 10.5342 27.6064 9.89981V4.39307C27.6064 3.75839 27.8586 3.14964 28.3074 2.70086C28.7562 2.25207 29.3648 2 29.9995 2C30.6342 2 31.2429 2.25207 31.6916 2.70086C32.1404 3.14964 32.3926 3.75839 32.3926 4.39307V9.89989C32.3918 10.5343 32.1393 11.1425 31.6907 11.5911C31.242 12.0397 30.6339 12.2921 29.9995 12.2929ZM29.9995 3.34783C29.7224 3.34805 29.4567 3.45824 29.2607 3.6542C29.0648 3.85016 28.9546 4.11586 28.9544 4.39299V9.89981C28.9544 10.177 29.0644 10.4428 29.2604 10.6388C29.4564 10.8348 29.7223 10.945 29.9995 10.945C30.2767 10.945 30.5425 10.8348 30.7385 10.6388C30.9345 10.4428 31.0447 10.177 31.0447 9.89981V4.39307C31.0445 4.11593 30.9343 3.85017 30.7383 3.6542C30.5423 3.45824 30.2766 3.34805 29.9995 3.34783Z" fill="black"/>
<path d="M30.957 20.9194L32.7735 24.794C32.8494 24.9558 32.9649 25.0958 33.1095 25.2008C33.2541 25.3059 33.423 25.3725 33.6003 25.3947L37.8464 25.925C38.0459 25.9499 38.2343 26.0312 38.3892 26.1592C38.5442 26.2872 38.6595 26.4567 38.7216 26.6479C38.7837 26.8391 38.79 27.044 38.7399 27.2387C38.6897 27.4333 38.5852 27.6097 38.4384 27.7471L35.315 30.672C35.1845 30.7941 35.087 30.9474 35.0318 31.1174C34.9766 31.2873 34.9653 31.4685 34.9991 31.644L35.807 35.8462C35.8449 36.0436 35.8259 36.2478 35.752 36.4348C35.6781 36.6218 35.5525 36.7838 35.3898 36.9019C35.2272 37.0201 35.0343 37.0894 34.8337 37.1019C34.6331 37.1144 34.433 37.0694 34.257 36.9723L30.5101 34.9056C30.3536 34.8192 30.1777 34.7739 29.999 34.7739C29.8203 34.7739 29.6445 34.8192 29.488 34.9056L25.7411 36.9723C25.565 37.0694 25.365 37.1144 25.1643 37.1019C24.9637 37.0894 24.7708 37.0201 24.6082 36.9019C24.4456 36.7838 24.3199 36.6218 24.2461 36.4348C24.1722 36.2478 24.1531 36.0436 24.1911 35.8462L24.9988 31.644C25.0326 31.4685 25.0213 31.2873 24.9661 31.1174C24.9108 30.9474 24.8135 30.7941 24.6831 30.672L21.5594 27.7471C21.4127 27.6097 21.3081 27.4333 21.258 27.2387C21.2079 27.044 21.2143 26.8391 21.2764 26.6479C21.3386 26.4567 21.4538 26.2871 21.6088 26.1591C21.7638 26.0311 21.952 25.9499 22.1515 25.925L26.3977 25.3947C26.5751 25.3725 26.744 25.3059 26.8886 25.2008C27.0331 25.0958 27.1487 24.9558 27.2246 24.794L29.0411 20.9194C29.1264 20.7374 29.2619 20.5835 29.4315 20.4757C29.6012 20.3678 29.798 20.3105 29.999 20.3105C30.2 20.3105 30.3969 20.3678 30.5665 20.4757C30.7362 20.5835 30.8716 20.7374 30.957 20.9194Z" fill="#FFA18C"/>
<path d="M25.2292 37.7809C24.9742 37.7797 24.7225 37.7225 24.4921 37.6132C24.2616 37.5039 24.0581 37.3452 23.8959 37.1484C23.7337 36.9516 23.6168 36.7215 23.5535 36.4744C23.4902 36.2274 23.4822 35.9694 23.5298 35.7188L24.3367 31.5172C24.3496 31.4537 24.346 31.388 24.3262 31.3263C24.3064 31.2646 24.271 31.2091 24.2235 31.165L21.0999 28.2389C20.8595 28.0142 20.6881 27.7256 20.6058 27.4069C20.5235 27.0883 20.5337 26.7529 20.6352 26.4399C20.7368 26.1269 20.9254 25.8493 21.179 25.6396C21.4327 25.43 21.7409 25.2969 22.0674 25.2561L26.3152 24.7263C26.3794 24.7183 26.4404 24.6942 26.4927 24.6561C26.545 24.618 26.5868 24.5671 26.614 24.5084L28.4305 20.6332C28.5704 20.3353 28.7922 20.0834 29.07 19.9069C29.3479 19.7304 29.6704 19.6367 29.9995 19.6367C30.3287 19.6367 30.651 19.7304 30.9289 19.9069C31.2067 20.0834 31.4286 20.3353 31.5686 20.6332L33.3851 24.5078C33.4123 24.5668 33.4542 24.6179 33.5067 24.6562C33.5592 24.6944 33.6207 24.7185 33.6852 24.7263L37.9304 25.2561C38.2571 25.2967 38.5653 25.4297 38.8192 25.6393C39.0731 25.8489 39.262 26.1266 39.3637 26.4397C39.4653 26.7528 39.4756 27.0884 39.3933 27.4072C39.311 27.726 39.1397 28.0147 38.8992 28.2395L35.7769 31.1637C35.7293 31.2075 35.6936 31.2628 35.6734 31.3242C35.6531 31.3855 35.6489 31.451 35.661 31.5145L36.4692 35.7195C36.5313 36.0425 36.5 36.3766 36.3791 36.6825C36.2582 36.9884 36.0525 37.2535 35.7864 37.4468C35.5203 37.6402 35.2046 37.7537 34.8763 37.7742C34.548 37.7946 34.2208 37.7212 33.9327 37.5624L30.1851 35.4957C30.1282 35.4646 30.0644 35.4483 29.9995 35.4483C29.9347 35.4483 29.8709 35.4646 29.8139 35.4957L26.0664 37.563C25.8102 37.7052 25.5222 37.7801 25.2292 37.7809ZM29.9995 20.9846C29.9263 20.9833 29.8542 21.0036 29.7924 21.0429C29.7306 21.0822 29.6818 21.1389 29.652 21.2058L27.8355 25.0804C27.7118 25.3455 27.5227 25.5749 27.2859 25.7469C27.0492 25.9189 26.7727 26.0279 26.4823 26.0636L22.2346 26.5935C22.1622 26.6025 22.0938 26.6321 22.0376 26.6786C21.9814 26.7252 21.9396 26.7869 21.9172 26.8563C21.8948 26.9258 21.8928 27.0002 21.9112 27.0708C21.9297 27.1414 21.9678 27.2053 22.0213 27.2549L25.1436 30.1804C25.3588 30.3797 25.5191 30.6309 25.6094 30.9098C25.6998 31.1888 25.7171 31.4863 25.6596 31.7738L24.854 35.9736C24.8403 36.0452 24.8472 36.1192 24.874 36.187C24.9007 36.2548 24.9463 36.3136 25.0053 36.3565C25.0642 36.3994 25.1341 36.4247 25.2068 36.4294C25.2796 36.4341 25.3522 36.4179 25.4161 36.3829L29.1637 34.315C29.4194 34.1732 29.7071 34.0988 29.9995 34.0988C30.292 34.0988 30.5796 34.1732 30.8354 34.315L34.583 36.3823C34.6468 36.4174 34.7192 36.4337 34.7919 36.4292C34.8646 36.4246 34.9345 36.3995 34.9935 36.3567C35.0524 36.3139 35.098 36.2552 35.1248 36.1875C35.1516 36.1197 35.1587 36.0458 35.145 35.9742L34.3381 31.7712C34.2814 31.4836 34.2993 31.1863 34.3901 30.9076C34.4809 30.6289 34.6415 30.3781 34.8567 30.1791L37.9777 27.2555C38.0313 27.2057 38.0696 27.1417 38.088 27.071C38.1064 27.0002 38.1043 26.9256 38.0817 26.856C38.0592 26.7864 38.0172 26.7247 37.9608 26.6782C37.9044 26.6317 37.8358 26.6022 37.7632 26.5934L33.5181 26.0636C33.2273 26.028 32.9504 25.9191 32.7135 25.7469C32.4765 25.5748 32.2872 25.3451 32.1636 25.0796L30.347 21.2057C30.3172 21.1388 30.2683 21.0822 30.2065 21.0429C30.1447 21.0036 30.0728 20.9833 29.9995 20.9846Z" fill="black"/>
</svg>
