<svg width="60" height="50" viewBox="0 0 60 50" fill="none" xmlns="http://www.w3.org/2000/svg">
<path d="M38.4804 44.6001L33.6565 47.3041L28.8382 44.6001L24.0143 47.3041L19.189 44.6001L14.3637 47.3041L9.53005 44.6001L4.69641 47.3041V2.69556H38.4804V44.6001Z" fill="white"/>
<path d="M4.69549 48C4.51107 47.9999 4.33433 47.9266 4.20393 47.7962C4.07353 47.6658 4.00014 47.4889 4 47.3045V2.69549C3.99995 2.60414 4.01796 2.51373 4.05289 2.42933C4.08783 2.34493 4.13899 2.26818 4.20359 2.20359C4.26818 2.13899 4.34493 2.08783 4.42933 2.05289C4.51373 2.01796 4.60414 1.99995 4.69549 2H38.4797C38.5711 1.99995 38.6615 2.01796 38.746 2.05289C38.8304 2.08782 38.907 2.13899 38.9716 2.20359C39.0362 2.26818 39.0875 2.34493 39.1224 2.42933C39.1573 2.51374 39.1753 2.60414 39.1752 2.69549V44.6001C39.1752 44.7237 39.1422 44.845 39.0796 44.9516C39.017 45.0582 38.9272 45.1462 38.8193 45.2065L33.9957 47.911C33.8917 47.9691 33.7746 47.9997 33.6554 47.9997C33.5363 47.9997 33.4192 47.9691 33.3152 47.911L28.838 45.3974L24.354 47.911C24.2502 47.9691 24.1333 47.9997 24.0144 47.9997C23.8955 47.9997 23.7785 47.9691 23.6748 47.911L19.1894 45.3974L14.7027 47.911C14.599 47.9692 14.482 47.9999 14.3631 48C14.2442 48.0001 14.1273 47.9697 14.0235 47.9117L9.52994 45.3967L5.03508 47.9117C4.93128 47.9697 4.81437 48 4.69549 48ZM9.52994 43.9045C9.64882 43.9045 9.76574 43.9348 9.86954 43.9928L14.3631 46.5071L18.8498 43.9935C18.9536 43.9354 19.0705 43.9048 19.1894 43.9048C19.3083 43.9048 19.4253 43.9354 19.529 43.9935L24.0144 46.5071L28.4984 43.9935C28.6024 43.9354 28.7195 43.9048 28.8386 43.9048C28.9578 43.9048 29.0749 43.9354 29.1789 43.9935L33.6561 46.5071L37.7842 44.1925V3.39098H5.39098V46.1187L9.19035 43.9928C9.29415 43.9348 9.41106 43.9045 9.52994 43.9045Z" fill="black"/>
<path d="M21.189 30.1699H10.5705C10.386 30.1699 10.2092 30.0967 10.0788 29.9662C9.94833 29.8358 9.875 29.6589 9.875 29.4744C9.875 29.29 9.94833 29.1131 10.0788 28.9827C10.2092 28.8523 10.386 28.7789 10.5705 28.7789H21.189C21.3734 28.7789 21.5503 28.8523 21.6807 28.9827C21.8111 29.1131 21.8845 29.29 21.8845 29.4744C21.8845 29.6589 21.8111 29.8358 21.6807 29.9662C21.5503 30.0967 21.3734 30.1699 21.189 30.1699Z" fill="black"/>
<path d="M32.606 30.1699H27.4279C27.2435 30.1699 27.0664 30.0967 26.936 29.9662C26.8056 29.8358 26.7324 29.6589 26.7324 29.4744C26.7324 29.29 26.8056 29.1131 26.936 28.9827C27.0664 28.8523 27.2435 28.7789 27.4279 28.7789H32.606C32.7905 28.7789 32.9673 28.8523 33.0978 28.9827C33.2282 29.1131 33.3015 29.29 33.3015 29.4744C33.3015 29.6589 33.2282 29.8358 33.0978 29.9662C32.9673 30.0967 32.7905 30.1699 32.606 30.1699Z" fill="black"/>
<path d="M21.189 34.7742H10.5705C10.386 34.7742 10.2092 34.7009 10.0788 34.5705C9.94833 34.4401 9.875 34.2631 9.875 34.0787C9.875 33.8942 9.94833 33.7174 10.0788 33.5869C10.2092 33.4565 10.386 33.3832 10.5705 33.3832H21.189C21.3734 33.3832 21.5503 33.4565 21.6807 33.5869C21.8111 33.7174 21.8845 33.8942 21.8845 34.0787C21.8845 34.2631 21.8111 34.4401 21.6807 34.5705C21.5503 34.7009 21.3734 34.7742 21.189 34.7742Z" fill="black"/>
<path d="M32.606 34.7742H27.4279C27.2435 34.7742 27.0664 34.7009 26.936 34.5705C26.8056 34.4401 26.7324 34.2631 26.7324 34.0787C26.7324 33.8942 26.8056 33.7174 26.936 33.5869C27.0664 33.4565 27.2435 33.3832 27.4279 33.3832H32.606C32.7905 33.3832 32.9673 33.4565 33.0978 33.5869C33.2282 33.7174 33.3015 33.8942 33.3015 34.0787C33.3015 34.2631 33.2282 34.4401 33.0978 34.5705C32.9673 34.7009 32.7905 34.7742 32.606 34.7742Z" fill="black"/>
<path d="M21.189 39.3784H10.5705C10.386 39.3784 10.2092 39.3052 10.0788 39.1747C9.94833 39.0443 9.875 38.8674 9.875 38.6829C9.875 38.4985 9.94833 38.3216 10.0788 38.1912C10.2092 38.0608 10.386 37.9874 10.5705 37.9874H21.189C21.3734 37.9874 21.5503 38.0608 21.6807 38.1912C21.8111 38.3216 21.8845 38.4985 21.8845 38.6829C21.8845 38.8674 21.8111 39.0443 21.6807 39.1747C21.5503 39.3052 21.3734 39.3784 21.189 39.3784Z" fill="black"/>
<path d="M32.606 39.3784H27.4279C27.2435 39.3784 27.0664 39.3052 26.936 39.1747C26.8056 39.0443 26.7324 38.8674 26.7324 38.6829C26.7324 38.4985 26.8056 38.3216 26.936 38.1912C27.0664 38.0608 27.2435 37.9874 27.4279 37.9874H32.606C32.7905 37.9874 32.9673 38.0608 33.0978 38.1912C33.2282 38.3216 33.3015 38.4985 33.3015 38.6829C33.3015 38.8674 33.2282 39.0443 33.0978 39.1747C32.9673 39.3052 32.7905 39.3784 32.606 39.3784Z" fill="black"/>
<path d="M43.9749 26.7214C49.8902 26.7214 54.6855 21.9261 54.6855 16.0108C54.6855 10.0955 49.8902 5.30017 43.9749 5.30017C38.0596 5.30017 33.2643 10.0955 33.2643 16.0108C33.2643 21.9261 38.0596 26.7214 43.9749 26.7214Z" fill="#A5D4F8"/>
<path d="M43.9756 27.4171C41.7196 27.4174 39.5142 26.7487 37.6383 25.4955C35.7624 24.2424 34.3 22.461 33.4365 20.3768C32.573 18.2926 32.3469 15.9991 32.7869 13.7864C33.2268 11.5737 34.3131 9.54127 35.9083 7.94594C37.5034 6.3506 39.5358 5.26411 41.7484 4.82388C43.9611 4.38366 46.2546 4.60949 48.3389 5.47276C50.4232 6.33603 52.2047 7.79801 53.4581 9.67379C54.7115 11.5496 55.3806 13.7549 55.3806 16.0109C55.3771 19.0347 54.1744 21.9337 52.0364 24.0721C49.8984 26.2104 46.9995 27.4133 43.9756 27.4171ZM43.9756 5.99556C41.9947 5.99529 40.0582 6.5825 38.4111 7.68284C36.7639 8.78317 35.48 10.3472 34.7217 12.1773C33.9635 14.0073 33.7649 16.0211 34.1512 17.9639C34.5375 19.9068 35.4913 21.6915 36.8919 23.0923C38.2925 24.4931 40.0771 25.4471 42.0199 25.8337C43.9627 26.2202 45.9765 26.0219 47.8066 25.2639C49.6367 24.5059 51.2011 23.2222 52.3016 21.5752C53.4022 19.9281 53.9896 17.9918 53.9896 16.0109C53.9865 13.3558 52.9304 10.8104 51.0531 8.93288C49.1758 7.05536 46.6307 5.99903 43.9756 5.99556Z" fill="black"/>
<path d="M42.7762 20.6132C42.6783 20.613 42.5815 20.5923 42.4921 20.5524C42.4027 20.5125 42.3228 20.4543 42.2573 20.3816L38.8831 16.608L39.9209 15.6803L42.7245 18.8168L47.9882 11.6914L49.1075 12.5173L43.3358 20.3307C43.2744 20.4139 43.1952 20.4824 43.104 20.5311C43.0129 20.5799 42.912 20.6077 42.8088 20.6125L42.7762 20.6132Z" fill="black"/>
<path d="M13.9258 21.9794C13.8345 21.9795 13.744 21.9615 13.6596 21.9266C13.5752 21.8917 13.4985 21.8404 13.4339 21.7758C13.3693 21.7112 13.318 21.6346 13.2831 21.5502C13.2482 21.4658 13.2302 21.3753 13.2302 21.2839V8.56487C13.2302 8.38042 13.3036 8.20357 13.434 8.07314C13.5644 7.94271 13.7413 7.86938 13.9258 7.86938C14.1103 7.86938 14.2871 7.94271 14.4175 8.07314C14.548 8.20357 14.6213 8.38042 14.6213 8.56487V21.2839C14.6213 21.3753 14.6034 21.4658 14.5685 21.5502C14.5335 21.6346 14.4823 21.7112 14.4177 21.7758C14.3531 21.8404 14.2764 21.8917 14.192 21.9266C14.1076 21.9615 14.0171 21.9795 13.9258 21.9794Z" fill="black"/>
<path d="M16.4619 15.6203H13.9258C13.7413 15.6203 13.5644 15.5471 13.434 15.4167C13.3036 15.2862 13.2302 15.1093 13.2302 14.9249C13.2302 14.7404 13.3036 14.5636 13.434 14.4331C13.5644 14.3027 13.7413 14.2294 13.9258 14.2294H16.4619C16.6463 14.2294 16.8232 14.3027 16.9536 14.4331C17.084 14.5636 17.1574 14.7404 17.1574 14.9249C17.1574 15.1093 17.084 15.2862 16.9536 15.4167C16.8232 15.5471 16.6463 15.6203 16.4619 15.6203Z" fill="black"/>
<path d="M16.4619 15.6203H13.9258C13.7413 15.6203 13.5644 15.5471 13.434 15.4167C13.3036 15.2862 13.2302 15.1093 13.2302 14.9249C13.2302 14.7404 13.3036 14.5636 13.434 14.4331C13.5644 14.3027 13.7413 14.2294 13.9258 14.2294H16.4619C16.6463 14.2294 16.8232 14.3027 16.9536 14.4331C17.084 14.5636 17.1574 14.7404 17.1574 14.9249C17.1574 15.1093 17.084 15.2862 16.9536 15.4167C16.8232 15.5471 16.6463 15.6203 16.4619 15.6203Z" fill="black"/>
<path d="M16.4618 15.6204C16.3417 15.6203 16.2236 15.5891 16.1192 15.5298C16.0147 15.4705 15.9273 15.3851 15.8657 15.2821C15.804 15.179 15.7701 15.0617 15.7672 14.9416C15.7643 14.8215 15.7925 14.7028 15.8492 14.5968L19.2506 8.23694C19.2935 8.15629 19.352 8.08493 19.4226 8.0269C19.4931 7.96887 19.5745 7.92534 19.662 7.89879C19.7494 7.87224 19.8412 7.86315 19.9321 7.87213C20.0231 7.88111 20.1113 7.90795 20.1919 7.95109C20.2725 7.99422 20.3437 8.0528 20.4016 8.12351C20.4595 8.19423 20.5028 8.27569 20.5291 8.36318C20.5555 8.45068 20.5644 8.54249 20.5553 8.63341C20.5461 8.72433 20.5191 8.81257 20.4758 8.89303L17.0744 15.2529C17.0152 15.364 16.9268 15.4568 16.8189 15.5216C16.711 15.5863 16.5876 15.6204 16.4618 15.6204Z" fill="black"/>
<path d="M19.8632 21.9797C19.7374 21.9798 19.6138 21.9456 19.5059 21.8809C19.398 21.8162 19.3098 21.7233 19.2506 21.6123L15.8492 15.2531C15.8059 15.1726 15.7789 15.0845 15.7697 14.9935C15.7606 14.9026 15.7695 14.8107 15.7959 14.7232C15.8222 14.6357 15.8655 14.5543 15.9234 14.4836C15.9813 14.4129 16.0525 14.3543 16.1331 14.3111C16.2136 14.268 16.3019 14.2412 16.3929 14.2323C16.4838 14.2233 16.5756 14.2323 16.663 14.2588C16.7505 14.2854 16.8318 14.3289 16.9024 14.3869C16.973 14.445 17.0315 14.5163 17.0744 14.597L20.4758 20.9562C20.5325 21.0621 20.5607 21.181 20.5578 21.3011C20.5549 21.4211 20.521 21.5384 20.4593 21.6415C20.3977 21.7446 20.3103 21.8299 20.2058 21.8892C20.1014 21.9484 19.9833 21.9796 19.8632 21.9797Z" fill="black"/>
<path d="M26.4689 21.9796H23.3134C23.2221 21.9797 23.1316 21.9617 23.0472 21.9268C22.9628 21.8919 22.8861 21.8406 22.8215 21.776C22.7569 21.7114 22.7057 21.6348 22.6707 21.5504C22.6358 21.466 22.6179 21.3755 22.6179 21.2841V8.29534C22.6179 8.20399 22.6358 8.11359 22.6707 8.02918C22.7057 7.94478 22.7569 7.86803 22.8215 7.80344C22.8861 7.73885 22.9628 7.68768 23.0472 7.65275C23.1316 7.61781 23.2221 7.5998 23.3134 7.59985H26.4689C27.3909 7.60082 28.2748 7.96755 28.9267 8.61948C29.5787 9.27142 29.9454 10.1553 29.9464 11.0773V18.5022C29.9454 19.4241 29.5787 20.3081 28.9267 20.9601C28.2748 21.612 27.3909 21.9786 26.4689 21.9796ZM24.0089 20.5886H26.4689C27.0221 20.588 27.5524 20.368 27.9436 19.9769C28.3348 19.5857 28.5548 19.0553 28.5554 18.5022V11.0773C28.5548 10.5241 28.3348 9.99376 27.9436 9.60261C27.5524 9.21145 27.0221 8.99143 26.4689 8.99083H24.0089V20.5886Z" fill="black"/>
</svg>
