<svg width="60" height="50" viewBox="0 0 60 50" fill="none" xmlns="http://www.w3.org/2000/svg">
<path d="M38.4812 44.6005L33.6572 47.3046L28.8374 44.6005L24.0135 47.3046L19.1895 44.6005L14.3627 47.3046L9.52903 44.6005L4.69531 47.3046V2.69531H38.4812V44.6005Z" fill="white"/>
<path d="M4.6955 48C4.51108 47.9999 4.33425 47.9266 4.20384 47.7962C4.07344 47.6658 4.00013 47.4889 4 47.3045V2.6955C3.99995 2.60415 4.01787 2.51366 4.05281 2.42925C4.08774 2.34485 4.139 2.26818 4.20359 2.20359C4.26818 2.139 4.34485 2.08774 4.42925 2.05281C4.51366 2.01787 4.60415 1.99995 4.6955 2H38.4815C38.5728 1.99995 38.6632 2.01787 38.7477 2.05281C38.8321 2.08774 38.9088 2.139 38.9734 2.20359C39.038 2.26818 39.0892 2.34485 39.1241 2.42925C39.159 2.51366 39.177 2.60415 39.177 2.6955V44.6C39.1771 44.7237 39.1441 44.845 39.0815 44.9516C39.0189 45.0582 38.9291 45.1462 38.8211 45.2065L33.9961 47.911C33.8921 47.9692 33.7749 47.9997 33.6558 47.9997C33.5367 47.9997 33.4194 47.9692 33.3154 47.911L28.8382 45.3973L24.3542 47.911C24.2504 47.9691 24.1335 47.9997 24.0146 47.9997C23.8957 47.9997 23.7787 47.9691 23.675 47.911L19.1896 45.3973L14.7028 47.911C14.5991 47.9692 14.4822 47.9999 14.3633 48C14.2444 48.0001 14.1274 47.9697 14.0236 47.9117L9.53003 45.3966L5.0351 47.9117C4.93129 47.9697 4.81438 48.0001 4.6955 48ZM9.53003 43.9044C9.64891 43.9044 9.76582 43.9348 9.86962 43.9927L14.3631 46.5071L18.85 43.9934C18.9537 43.9353 19.0707 43.9048 19.1896 43.9048C19.3085 43.9048 19.4254 43.9353 19.5292 43.9934L24.0146 46.5071L28.4987 43.9934C28.6026 43.9353 28.7198 43.9048 28.8389 43.9048C28.9581 43.9048 29.0752 43.9353 29.1792 43.9934L33.6565 46.5071L37.786 44.1924V3.391H5.391V46.1186L9.19034 43.9927C9.29415 43.9348 9.41114 43.9044 9.53003 43.9044Z" fill="black"/>
<path d="M21.1891 29.6068H10.5705C10.386 29.6068 10.2091 29.5336 10.0787 29.4031C9.94824 29.2727 9.875 29.0958 9.875 28.9113C9.875 28.7269 9.94824 28.5499 10.0787 28.4195C10.2091 28.2891 10.386 28.2158 10.5705 28.2158H21.1891C21.3735 28.2158 21.5504 28.2891 21.6808 28.4195C21.8112 28.5499 21.8846 28.7269 21.8846 28.9113C21.8846 29.0958 21.8112 29.2727 21.6808 29.4031C21.5504 29.5336 21.3735 29.6068 21.1891 29.6068Z" fill="black"/>
<path d="M32.6061 29.6068H27.4279C27.2435 29.6068 27.0665 29.5336 26.9361 29.4031C26.8057 29.2727 26.7324 29.0958 26.7324 28.9113C26.7324 28.7269 26.8057 28.5499 26.9361 28.4195C27.0665 28.2891 27.2435 28.2158 27.4279 28.2158H32.6061C32.7906 28.2158 32.9674 28.2891 33.0979 28.4195C33.2283 28.5499 33.3016 28.7269 33.3016 28.9113C33.3016 29.0958 33.2283 29.2727 33.0979 29.4031C32.9674 29.5336 32.7906 29.6068 32.6061 29.6068Z" fill="black"/>
<path d="M21.1891 34.2113H10.5705C10.386 34.2113 10.2091 34.1381 10.0787 34.0076C9.94824 33.8772 9.875 33.7003 9.875 33.5158C9.875 33.3314 9.94824 33.1544 10.0787 33.024C10.2091 32.8936 10.386 32.8203 10.5705 32.8203H21.1891C21.3735 32.8203 21.5504 32.8936 21.6808 33.024C21.8112 33.1544 21.8846 33.3314 21.8846 33.5158C21.8846 33.7003 21.8112 33.8772 21.6808 34.0076C21.5504 34.1381 21.3735 34.2113 21.1891 34.2113Z" fill="black"/>
<path d="M32.6061 34.2113H27.4279C27.2435 34.2113 27.0665 34.1381 26.9361 34.0076C26.8057 33.8772 26.7324 33.7003 26.7324 33.5158C26.7324 33.3314 26.8057 33.1544 26.9361 33.024C27.0665 32.8936 27.2435 32.8203 27.4279 32.8203H32.6061C32.7906 32.8203 32.9674 32.8936 33.0979 33.024C33.2283 33.1544 33.3016 33.3314 33.3016 33.5158C33.3016 33.7003 33.2283 33.8772 33.0979 34.0076C32.9674 34.1381 32.7906 34.2113 32.6061 34.2113Z" fill="black"/>
<path d="M21.1891 38.8153H10.5705C10.386 38.8153 10.2091 38.7421 10.0787 38.6116C9.94824 38.4812 9.875 38.3043 9.875 38.1198C9.875 37.9354 9.94824 37.7584 10.0787 37.628C10.2091 37.4976 10.386 37.4243 10.5705 37.4243H21.1891C21.3735 37.4243 21.5504 37.4976 21.6808 37.628C21.8112 37.7584 21.8846 37.9354 21.8846 38.1198C21.8846 38.3043 21.8112 38.4812 21.6808 38.6116C21.5504 38.7421 21.3735 38.8153 21.1891 38.8153Z" fill="black"/>
<path d="M32.6061 38.8153H27.4279C27.2435 38.8153 27.0665 38.7421 26.9361 38.6116C26.8057 38.4812 26.7324 38.3043 26.7324 38.1198C26.7324 37.9354 26.8057 37.7584 26.9361 37.628C27.0665 37.4976 27.2435 37.4243 27.4279 37.4243H32.6061C32.7906 37.4243 32.9674 37.4976 33.0979 37.628C33.2283 37.7584 33.3016 37.9354 33.3016 38.1198C33.3016 38.3043 33.2283 38.4812 33.0979 38.6116C32.9674 38.7421 32.7906 38.8153 32.6061 38.8153Z" fill="black"/>
<path d="M43.9754 26.7214C49.8908 26.7214 54.6862 21.926 54.6862 16.0106C54.6862 10.0952 49.8908 5.2998 43.9754 5.2998C38.06 5.2998 33.2646 10.0952 33.2646 16.0106C33.2646 21.926 38.06 26.7214 43.9754 26.7214Z" fill="#FFA18C"/>
<path d="M43.9762 27.4169C41.7203 27.4168 39.5151 26.7478 37.6394 25.4945C35.7637 24.2411 34.3018 22.4597 33.4385 20.3755C32.5752 18.2913 32.3494 15.9979 32.7895 13.7854C33.2296 11.5728 34.3159 9.54044 35.9111 7.94528C37.5063 6.35011 39.5386 5.2638 41.7512 4.82369C43.9637 4.38357 46.2571 4.60939 48.3413 5.47266C50.4255 6.33593 52.2069 7.79789 53.4602 9.67358C54.7135 11.5493 55.3826 13.7545 55.3827 16.0104C55.3792 19.0345 54.1763 21.9338 52.038 24.0721C49.8996 26.2105 47.0003 27.4134 43.9762 27.4169ZM43.9762 5.99564C41.9954 5.99569 40.059 6.58317 38.4121 7.6837C36.7651 8.78423 35.4815 10.3484 34.7235 12.1785C33.9655 14.0085 33.7673 16.0222 34.1538 17.965C34.5403 19.9077 35.4942 21.6922 36.8949 23.0928C38.2956 24.4934 40.0802 25.4473 42.0229 25.8336C43.9657 26.22 45.9794 26.0215 47.8094 25.2635C49.6395 24.5054 51.2035 23.2217 52.304 21.5746C53.4044 19.9276 53.9918 17.9912 53.9917 16.0104C53.9884 13.3552 52.9321 10.8097 51.0546 8.93224C49.177 7.05478 46.6314 5.99872 43.9762 5.99564Z" fill="black"/>
<path d="M42.7766 20.6127C42.6786 20.6125 42.5818 20.5917 42.4924 20.5517C42.403 20.5117 42.323 20.4533 42.2577 20.3804L38.8848 16.6074L39.9226 15.681L42.7249 18.8162L47.9887 11.6914L49.108 12.5173L43.3362 20.3301C43.2748 20.4133 43.1957 20.4818 43.1045 20.5306C43.0134 20.5793 42.9124 20.6071 42.8092 20.612L42.7766 20.6127Z" fill="black"/>
<path d="M14.1701 20.9959C14.0788 20.996 13.9883 20.9781 13.9039 20.9431C13.8195 20.9082 13.7428 20.8569 13.6782 20.7924C13.6136 20.7278 13.5624 20.6511 13.5274 20.5667C13.4925 20.4823 13.4746 20.3918 13.4746 20.3004V9.508C13.4746 9.32354 13.5479 9.14661 13.6783 9.01617C13.8087 8.88574 13.9857 8.8125 14.1701 8.8125C14.3546 8.8125 14.5314 8.88574 14.6618 9.01617C14.7923 9.14661 14.8656 9.32354 14.8656 9.508V20.3004C14.8657 20.3918 14.8476 20.4823 14.8127 20.5667C14.7778 20.6511 14.7266 20.7278 14.662 20.7924C14.5974 20.8569 14.5207 20.9082 14.4363 20.9431C14.3519 20.9781 14.2615 20.996 14.1701 20.9959Z" fill="black"/>
<path d="M16.7076 15.5995H14.1701C13.9856 15.5995 13.8087 15.5262 13.6783 15.3958C13.5479 15.2654 13.4746 15.0885 13.4746 14.904C13.4746 14.7195 13.5479 14.5426 13.6783 14.4122C13.8087 14.2817 13.9856 14.2085 14.1701 14.2085H16.7076C16.892 14.2085 17.0689 14.2817 17.1993 14.4122C17.3298 14.5426 17.4031 14.7195 17.4031 14.904C17.4031 15.0885 17.3298 15.2654 17.1993 15.3958C17.0689 15.5262 16.892 15.5995 16.7076 15.5995Z" fill="black"/>
<path d="M16.7076 15.5995H14.1701C13.9856 15.5995 13.8087 15.5262 13.6783 15.3958C13.5479 15.2654 13.4746 15.0885 13.4746 14.904C13.4746 14.7195 13.5479 14.5426 13.6783 14.4122C13.8087 14.2817 13.9856 14.2085 14.1701 14.2085H16.7076C16.892 14.2085 17.0689 14.2817 17.1993 14.4122C17.3298 14.5426 17.4031 14.7195 17.4031 14.904C17.4031 15.0885 17.3298 15.2654 17.1993 15.3958C17.0689 15.5262 16.892 15.5995 16.7076 15.5995Z" fill="black"/>
<path d="M16.708 15.5997C16.5836 15.5996 16.4615 15.5663 16.3545 15.503C16.2474 15.4398 16.1593 15.349 16.0992 15.2401C16.0392 15.1312 16.0094 15.0082 16.013 14.8839C16.0166 14.7596 16.0535 14.6386 16.1198 14.5334L19.5199 9.13715C19.6185 8.98176 19.7746 8.87183 19.9542 8.83142C20.1338 8.79102 20.322 8.82343 20.4777 8.92159C20.6334 9.01974 20.7438 9.17565 20.7848 9.35508C20.8257 9.53451 20.7939 9.72285 20.6962 9.87883L17.2962 15.2751C17.2337 15.3746 17.1469 15.4567 17.044 15.5135C16.9411 15.5702 16.8255 15.5999 16.708 15.5997Z" fill="black"/>
<path d="M20.1081 20.9961C19.9906 20.9963 19.8749 20.9666 19.772 20.9098C19.6691 20.853 19.5824 20.771 19.5199 20.6714L16.1199 15.2752C16.0215 15.1192 15.9891 14.9305 16.0299 14.7507C16.0706 14.5708 16.1811 14.4145 16.3371 14.3162C16.4931 14.2178 16.6819 14.1854 16.8617 14.2262C17.0416 14.2669 17.1979 14.3775 17.2962 14.5335L20.6963 19.9297C20.7626 20.0349 20.7994 20.156 20.803 20.2803C20.8066 20.4046 20.7768 20.5276 20.7168 20.6364C20.6567 20.7453 20.5686 20.8361 20.4616 20.8994C20.3545 20.9626 20.2325 20.996 20.1081 20.9961Z" fill="black"/>
<path d="M23.0684 9.27881H26.2242C26.9621 9.27881 27.6697 9.57191 28.1914 10.0936C28.7131 10.6154 29.0062 11.323 29.0062 12.0608V17.5184C29.0062 18.2562 28.7131 18.9638 28.1914 19.4856C27.6697 20.0073 26.9621 20.3004 26.2242 20.3004H23.0684V9.27881Z" fill="white"/>
<path d="M26.2241 20.9958H23.0685C22.9772 20.9959 22.8867 20.978 22.8023 20.943C22.7179 20.9081 22.6412 20.8568 22.5766 20.7922C22.512 20.7276 22.4608 20.651 22.4259 20.5666C22.3909 20.4822 22.373 20.3917 22.373 20.3003V9.27899C22.373 9.18765 22.3909 9.09715 22.4259 9.01275C22.4608 8.92834 22.512 8.85168 22.5766 8.78709C22.6412 8.72249 22.7179 8.67124 22.8023 8.6363C22.8867 8.60137 22.9772 8.58345 23.0685 8.5835H26.2241C27.1461 8.58446 28.03 8.95111 28.6819 9.60306C29.3339 10.255 29.7006 11.139 29.7016 12.061V17.5183C29.7006 18.4403 29.3339 19.3242 28.6819 19.9762C28.03 20.6281 27.1461 20.9949 26.2241 20.9958ZM23.764 19.6048H26.2241C26.7773 19.6042 27.3076 19.3842 27.6988 18.993C28.09 18.6019 28.31 18.0715 28.3106 17.5183V12.061C28.31 11.5078 28.09 10.9774 27.6988 10.5863C27.3076 10.1951 26.7773 9.9751 26.2241 9.97449H23.764V19.6048Z" fill="black"/>
</svg>
