<svg width="230" height="279" viewBox="0 0 230 279" fill="none" xmlns="http://www.w3.org/2000/svg">
<path d="M47.2958 52.5H43.408C43.2563 52.4998 43.109 52.4483 42.9897 52.3538C42.8705 52.2592 42.7861 52.127 42.7501 51.9784L40.7276 43.5526C40.6782 43.3417 40.6529 43.1258 40.6523 42.9091V37.9598C40.6523 37.7789 40.7237 37.6053 40.8505 37.4774C40.9773 37.3495 41.1493 37.2776 41.3287 37.2776C41.5081 37.2776 41.6801 37.3495 41.8069 37.4774C41.9338 37.6053 42.0051 37.7789 42.0051 37.9598V42.9091C42.0056 43.019 42.0185 43.1285 42.0434 43.2355L43.9404 51.1357H46.4358L44.5468 43.2655C44.5121 43.1194 44.526 42.9658 44.5864 42.8285L47.7159 35.7036C47.789 35.5388 47.9238 35.41 48.0909 35.3453C48.258 35.2806 48.4438 35.2855 48.6074 35.3586C48.7711 35.4318 48.8991 35.5673 48.9638 35.7356C49.0285 35.904 49.0244 36.0912 48.9524 36.2565L45.9167 43.1695L47.9537 51.6573C47.9775 51.7577 47.9784 51.8622 47.9565 51.963C47.9346 52.0638 47.8903 52.1583 47.827 52.2394C47.7637 52.3204 47.6831 52.386 47.5911 52.4311C47.4991 52.4763 47.3981 52.4998 47.2958 52.5Z" fill="black"/>
<path d="M56.406 52.5H52.6371C52.5483 52.5 52.4603 52.4824 52.3782 52.4482C52.2961 52.4139 52.2216 52.3636 52.1587 52.3003C52.0959 52.2369 52.0461 52.1617 52.0121 52.079C51.9781 51.9962 51.9607 51.9074 51.9608 51.8178V36.6622H42.6461L40.1217 42.0718V51.8178C40.1217 51.9074 40.1041 51.9962 40.0701 52.079C40.0362 52.1617 39.9865 52.2369 39.9237 52.3003C39.8608 52.3636 39.7861 52.4139 39.704 52.4482C39.622 52.4824 39.5341 52.5 39.4453 52.5H35.6764C35.5875 52.5 35.4995 52.4824 35.4174 52.4482C35.3354 52.4139 35.2608 52.3636 35.198 52.3003C35.1352 52.2369 35.0853 52.1617 35.0514 52.079C35.0174 51.9962 35 51.9074 35 51.8178V29.0423C34.9988 27.7405 35.4409 26.4777 36.2523 25.4652L43.1455 17.4224C43.9133 16.6953 44.8332 16.1514 45.8373 15.8308C46.8414 15.5102 47.904 15.421 48.9468 15.57C49.9896 15.719 50.9859 16.1022 51.8622 16.6915C52.7385 17.2807 53.4724 18.0609 54.0097 18.9745C54.0309 18.9965 54.0507 19.0199 54.0691 19.0444L58.6227 25.3806C61.1063 25.0995 61.3837 21.657 61.3837 20.1415V16.1821C61.3836 16.0925 61.4011 16.0037 61.435 15.921C61.469 15.8382 61.5189 15.763 61.5817 15.6996C61.6445 15.6363 61.7191 15.586 61.8011 15.5518C61.8832 15.5175 61.9712 15.4999 62.0601 15.5H73.3668C73.4556 15.4999 73.5436 15.5175 73.6257 15.5518C73.7078 15.586 73.7824 15.6363 73.8452 15.6996C73.908 15.763 73.9578 15.8382 73.9918 15.921C74.0258 16.0037 74.0432 16.0925 74.0432 16.1821V20.1415C74.0432 20.2832 73.9994 20.4213 73.918 20.5368C73.8366 20.6522 73.7214 20.7392 73.5887 20.7857L68.1963 22.6748C67.5622 27.3171 65.1566 30.7563 61.6453 32.0745L64.755 38.6026C64.7964 38.6902 64.8188 38.7856 64.8209 38.8827C64.8229 38.9797 64.8045 39.0761 64.7669 39.1654L60.636 48.9302C60.6005 49.0142 60.5486 49.0902 60.4834 49.1536C60.4182 49.217 60.3411 49.2666 60.2565 49.2993C60.172 49.3321 60.0818 49.3473 59.9913 49.3442C59.9008 49.3411 59.8119 49.3197 59.7298 49.2812L57.0824 48.0436V51.8178C57.0825 51.9074 57.065 51.9962 57.031 52.079C56.9971 52.1618 56.9472 52.2369 56.8844 52.3003C56.8216 52.3636 56.7471 52.4139 56.665 52.4482C56.5829 52.4824 56.4949 52.5 56.406 52.5ZM53.3135 51.1357H55.7297V35.9801C55.7296 35.8905 55.747 35.8018 55.781 35.719C55.815 35.6362 55.8648 35.561 55.9277 35.4977C55.9905 35.4343 56.065 35.384 56.1471 35.3498C56.2292 35.3155 56.3172 35.2979 56.406 35.298H58.5395C58.6668 35.298 58.7914 35.3342 58.8992 35.4026C59.0069 35.4709 59.0934 35.5686 59.1485 35.6843L60.5871 38.7032C60.629 38.7908 60.6519 38.8864 60.6542 38.9836C60.6564 39.0808 60.6381 39.1773 60.6003 39.2668L57.4497 46.7121L59.665 47.7479L63.4022 38.9144L60.0904 31.9607C60.0476 31.8705 60.0249 31.772 60.024 31.672C60.0231 31.572 60.0441 31.4731 60.0853 31.3822C60.1265 31.2912 60.1869 31.2105 60.2625 31.1458C60.338 31.081 60.4268 31.0338 60.5224 31.0075C64.0575 30.0316 66.3838 26.7822 66.9043 22.0934C66.9186 21.9654 66.9684 21.8442 67.0481 21.7436C67.1278 21.6431 67.2342 21.5674 67.3548 21.5252L72.6904 19.6567V16.8643H62.7364V20.1416C62.7364 24.2876 61.0746 26.7629 58.2912 26.7629C58.1842 26.7628 58.0788 26.7373 57.9835 26.6883C57.8882 26.6393 57.8058 26.5684 57.7429 26.4811L53.0387 19.9358C52.9924 19.8943 52.9524 19.8463 52.9198 19.7932C52.4117 18.9094 51.6838 18.1744 50.8082 17.6608C49.9325 17.1472 48.9393 16.8726 47.9263 16.8642C46.5107 16.8707 45.1486 17.4105 44.1072 18.3776L37.292 26.3372C36.6824 27.1046 36.351 28.059 36.3527 29.0423V51.1357H38.7689V41.9192C38.769 41.8188 38.7911 41.7196 38.8336 41.6288L41.6052 35.6896C41.6597 35.5725 41.7462 35.4734 41.8545 35.4041C41.9628 35.3347 42.0885 35.2979 42.2168 35.2979H52.6371C52.726 35.2979 52.8138 35.3155 52.8959 35.3498C52.978 35.384 53.0527 35.4342 53.1155 35.4976C53.1783 35.5609 53.228 35.6362 53.262 35.719C53.2959 35.8018 53.3135 35.8904 53.3135 35.98V51.1357ZM57.0824 36.6621V44.1034L59.2357 39.0156L58.1141 36.6621H57.0824Z" fill="black"/>
<path d="M62.5265 36.6622H58.5397C58.3603 36.6622 58.1883 36.5903 58.0614 36.4624C57.9346 36.3344 57.8633 36.161 57.8633 35.9801C57.8633 35.7992 57.9346 35.6256 58.0614 35.4977C58.1883 35.3698 58.3603 35.298 58.5397 35.298H62.5265C62.7059 35.298 62.8779 35.3698 63.0047 35.4977C63.1316 35.6256 63.2029 35.7992 63.2029 35.9801C63.2029 36.161 63.1316 36.3344 63.0047 36.4624C62.8779 36.5903 62.7059 36.6622 62.5265 36.6622Z" fill="black"/>
<path d="M88.9115 52.4999H82.087C81.0028 52.4988 79.9633 52.0641 79.1966 51.2911C78.4298 50.5181 77.9985 49.4699 77.9971 48.3766V30.8155C77.9973 30.754 78.0057 30.6928 78.0222 30.6336C78.2798 26.876 80.4608 22.1172 81.3974 20.2241C81.5907 19.8355 81.888 19.5093 82.2558 19.2825C82.6235 19.0557 83.047 18.9375 83.478 18.9411H87.5772C87.9889 18.9379 88.3937 19.0467 88.7491 19.256C89.1046 19.4654 89.3976 19.7676 89.5971 20.1308C91.4278 23.3722 92.5805 26.9576 92.9842 30.6656C92.9948 30.7142 93.0001 30.7638 93.0001 30.8135V48.3766C92.9989 49.4698 92.5677 50.5179 91.8012 51.2909C91.0347 52.0639 89.9955 52.4987 88.9115 52.4999ZM79.3498 30.9421V48.3766C79.3507 49.1083 79.6393 49.8098 80.1525 50.3271C80.6657 50.8444 81.3614 51.1352 82.087 51.1357H88.9115C89.6368 51.1349 90.3322 50.8439 90.8451 50.3267C91.358 49.8094 91.6465 49.1081 91.6473 48.3766V30.9234C91.6404 30.8838 91.6369 30.8437 91.6367 30.8035C91.2569 27.2754 90.1587 23.8644 88.4108 20.7843C88.3273 20.6363 88.2057 20.5138 88.0591 20.4295C87.9124 20.3452 87.746 20.3023 87.5772 20.3053H83.478C83.2985 20.3026 83.1218 20.3506 82.968 20.444C82.8141 20.5373 82.6892 20.6723 82.6075 20.8336C81.6946 22.6788 79.5519 27.3476 79.363 30.8388C79.3613 30.8735 79.3569 30.908 79.3498 30.9421Z" fill="black"/>
<path d="M89.7651 20.3054H81.2339C80.8284 20.3051 80.4396 20.1425 80.1528 19.8534C79.866 19.5643 79.7046 19.1722 79.7041 18.7633V17.0427C79.7045 16.6336 79.8658 16.2415 80.1526 15.9522C80.4394 15.663 80.8283 15.5003 81.2339 15.4999H89.7651C90.1707 15.5003 90.5596 15.663 90.8464 15.9522C91.1332 16.2415 91.2945 16.6336 91.2949 17.0427V18.7633C91.2944 19.1722 91.133 19.5643 90.8462 19.8534C90.5594 20.1425 90.1706 20.3051 89.7651 20.3054ZM81.2339 16.8642C81.1869 16.8642 81.1419 16.883 81.1087 16.9165C81.0755 16.9499 81.0568 16.9953 81.0568 17.0427V18.7633C81.057 18.8105 81.0757 18.8558 81.1089 18.8891C81.142 18.9225 81.187 18.9412 81.2339 18.9411H89.7651C89.8119 18.9412 89.8569 18.9225 89.8901 18.8891C89.9233 18.8558 89.942 18.8105 89.9421 18.7633V17.0427C89.9421 16.9953 89.9235 16.9499 89.8903 16.9165C89.8571 16.883 89.812 16.8642 89.7651 16.8642H81.2339Z" fill="black"/>
<path d="M90.618 25.6864H80.0709C79.8915 25.6864 79.7194 25.6145 79.5925 25.4866C79.4657 25.3587 79.3945 25.1852 79.3945 25.0043C79.3945 24.8233 79.4657 24.6498 79.5925 24.5219C79.7194 24.394 79.8915 24.3221 80.0709 24.3221H90.618C90.7974 24.3221 90.9694 24.394 91.0962 24.5219C91.2231 24.6498 91.2944 24.8233 91.2944 25.0043C91.2944 25.1852 91.2231 25.3587 91.0962 25.4866C90.9694 25.6145 90.7974 25.6864 90.618 25.6864Z" fill="black"/>
<path d="M28.6711 84H27.2291V73.78H31.1071C33.1791 73.78 34.5511 75.222 34.5511 76.986C34.5511 78.764 33.1791 80.206 31.1071 80.206H28.6711V84ZM28.6711 75.194V78.792H31.0791C32.3111 78.792 33.0671 77.966 33.0671 76.986C33.0671 76.034 32.3111 75.194 31.0791 75.194H28.6711ZM37.3885 84H36.0305V76.3H37.2905L37.3745 77.56C37.8225 76.734 38.6905 76.244 39.8245 76.258C40.0205 76.258 40.2165 76.272 40.3985 76.3L40.1185 77.616C40.0345 77.602 39.9365 77.588 39.8525 77.588C38.5505 77.588 37.3885 78.316 37.3885 80.444V84ZM42.0393 84.098C41.5773 84.098 41.1993 83.706 41.1993 83.244C41.1993 82.782 41.5773 82.404 42.0393 82.404C42.5013 82.404 42.8793 82.782 42.8793 83.244C42.8793 83.706 42.5013 84.098 42.0393 84.098ZM49.8094 77.532V84.014L48.4514 83.986V77.532H47.4714V76.3H48.4514V76.006C48.4514 73.682 49.6694 72.87 51.1394 72.87C51.4894 72.87 51.8954 72.94 52.1754 73.038L51.8114 74.256C51.6434 74.228 51.4334 74.186 51.2514 74.186C50.3834 74.186 49.8094 74.62 49.8094 76.006V76.3H51.7974V77.532H49.8094ZM56.3602 84.112C54.1762 84.112 52.4122 82.32 52.4122 80.136C52.4122 77.966 54.1762 76.202 56.3602 76.202C58.5302 76.202 60.3082 77.966 60.3082 80.136C60.3082 82.32 58.5302 84.112 56.3602 84.112ZM56.3602 82.712C57.7742 82.712 58.9222 81.564 58.9222 80.136C58.9222 78.736 57.7742 77.588 56.3602 77.588C54.9322 77.588 53.7982 78.736 53.7982 80.136C53.7982 81.564 54.9322 82.712 56.3602 82.712ZM63.2146 84H61.8566V76.3H63.1166L63.2006 77.56C63.6486 76.734 64.5166 76.244 65.6506 76.258C65.8466 76.258 66.0426 76.272 66.2246 76.3L65.9446 77.616C65.8606 77.602 65.7626 77.588 65.6786 77.588C64.3766 77.588 63.2146 78.316 63.2146 80.444V84ZM74.3396 84.126C72.9256 84.126 71.7496 83.272 71.7496 81.13V77.532H70.7136V76.3H71.7916L71.9596 73.78H73.1076V76.3H74.9556V77.532H73.1076V81.116C73.1076 82.222 73.6536 82.796 74.5216 82.796C74.7176 82.796 74.9276 82.768 75.1096 82.698L75.4596 83.916C75.1376 84.056 74.7456 84.126 74.3396 84.126ZM78.2674 84H76.9094V73.08H78.2674V77.63C78.6874 76.832 79.5134 76.188 80.6614 76.188C82.4534 76.188 83.8114 77.42 83.8114 80.08V84H82.4394V80.08C82.4394 78.33 81.4874 77.532 80.3534 77.532C79.2334 77.532 78.2674 78.316 78.2674 80.08V84ZM89.2717 84.112C86.9337 84.112 85.1837 82.32 85.1837 80.136C85.1837 77.966 86.9337 76.202 89.0897 76.202C91.3297 76.202 92.9957 77.966 92.9957 80.136C92.9957 80.318 92.9677 80.584 92.9537 80.78H86.6537C86.8637 81.942 87.9417 82.824 89.2717 82.824C90.2237 82.824 90.9797 82.432 91.4697 81.83L92.5757 82.516C91.8477 83.482 90.5737 84.112 89.2717 84.112ZM86.6397 79.66H91.5817C91.5117 78.47 90.5177 77.476 89.1037 77.476C87.7457 77.476 86.7237 78.47 86.6397 79.66ZM23.7576 107.08H22.3996V96.3H23.6596L23.7296 97.896C24.1916 96.944 25.3256 96.202 26.5856 96.202C28.6576 96.202 30.3376 97.966 30.3376 100.136C30.3376 102.32 28.6576 104.112 26.5856 104.112C25.3396 104.112 24.2196 103.37 23.7576 102.418V107.08ZM26.3756 102.754C27.8036 102.754 28.9656 101.578 28.9656 100.136C28.9656 98.708 27.8036 97.546 26.3756 97.546C24.9196 97.546 23.7576 98.708 23.7576 100.136C23.7576 101.578 24.9196 102.754 26.3756 102.754ZM33.2459 104H31.8879V96.3H33.1479L33.2319 97.56C33.6799 96.734 34.5479 96.244 35.6819 96.258C35.8779 96.258 36.0739 96.272 36.2559 96.3L35.9759 97.616C35.8919 97.602 35.7939 97.588 35.7099 97.588C34.4079 97.588 33.2459 98.316 33.2459 100.444V104ZM40.6376 104.112C38.4536 104.112 36.6896 102.32 36.6896 100.136C36.6896 97.966 38.4536 96.202 40.6376 96.202C42.8076 96.202 44.5856 97.966 44.5856 100.136C44.5856 102.32 42.8076 104.112 40.6376 104.112ZM40.6376 102.712C42.0516 102.712 43.1996 101.564 43.1996 100.136C43.1996 98.736 42.0516 97.588 40.6376 97.588C39.2096 97.588 38.0756 98.736 38.0756 100.136C38.0756 101.564 39.2096 102.712 40.6376 102.712ZM49.424 104.098C47.352 104.098 45.672 102.32 45.672 100.15C45.672 97.966 47.352 96.188 49.424 96.188C50.67 96.188 51.79 96.916 52.252 97.882V93.08H53.624V104H52.364L52.294 102.39C51.818 103.356 50.684 104.098 49.424 104.098ZM49.648 102.74C51.09 102.74 52.252 101.578 52.252 100.15C52.252 98.708 51.09 97.532 49.648 97.532C48.22 97.532 47.058 98.708 47.058 100.15C47.058 101.578 48.22 102.74 49.648 102.74ZM58.6043 104.112C56.8123 104.112 55.4543 102.866 55.4543 100.206V96.3H56.8263V100.206C56.8263 101.97 57.7783 102.754 58.9123 102.754C60.0323 102.754 60.9983 101.97 60.9983 100.206V96.3H62.3563V104H61.0963L61.0263 102.628C60.6063 103.44 59.7663 104.112 58.6043 104.112ZM67.8446 104.112C65.6606 104.112 63.8966 102.32 63.8966 100.136C63.8966 97.966 65.6606 96.202 67.8446 96.202C69.1746 96.202 70.3506 96.86 71.0786 97.868L69.9446 98.624C69.4686 97.994 68.6986 97.588 67.8446 97.588C66.4166 97.588 65.2826 98.736 65.2826 100.136C65.2826 101.564 66.4166 102.712 67.8446 102.712C68.7266 102.712 69.5106 102.278 69.9726 101.606L71.1066 102.362C70.4066 103.412 69.2026 104.112 67.8446 104.112ZM75.5701 104.126C74.1561 104.126 72.9801 103.272 72.9801 101.13V97.532H71.9441V96.3H73.0221L73.1901 93.78H74.3381V96.3H76.1861V97.532H74.3381V101.116C74.3381 102.222 74.8841 102.796 75.7521 102.796C75.9481 102.796 76.1581 102.768 76.3401 102.698L76.6901 103.916C76.3681 104.056 75.9761 104.126 75.5701 104.126ZM78.8258 95.516C78.3498 95.516 77.9578 95.124 77.9578 94.648C77.9578 94.172 78.3498 93.78 78.8258 93.78C79.2878 93.78 79.6798 94.172 79.6798 94.648C79.6798 95.124 79.2878 95.516 78.8258 95.516ZM79.4978 104H78.1398V96.3H79.4978V104ZM84.9891 104.112C82.8051 104.112 81.0411 102.32 81.0411 100.136C81.0411 97.966 82.8051 96.202 84.9891 96.202C87.1591 96.202 88.9371 97.966 88.9371 100.136C88.9371 102.32 87.1591 104.112 84.9891 104.112ZM84.9891 102.712C86.4031 102.712 87.5511 101.564 87.5511 100.136C87.5511 98.736 86.4031 97.588 84.9891 97.588C83.5611 97.588 82.4271 98.736 82.4271 100.136C82.4271 101.564 83.5611 102.712 84.9891 102.712ZM91.8435 104H90.4855V96.3H91.7455L91.8155 97.658C92.2355 96.846 93.0615 96.188 94.2375 96.188C96.0295 96.188 97.3875 97.42 97.3875 100.08V104H96.0155V100.08C96.0155 98.33 95.0635 97.532 93.9295 97.532C92.8095 97.532 91.8435 98.316 91.8435 100.08V104ZM22.5838 124.112C20.3998 124.112 18.6358 122.32 18.6358 120.136C18.6358 117.966 20.3998 116.202 22.5838 116.202C24.7538 116.202 26.5318 117.966 26.5318 120.136C26.5318 122.32 24.7538 124.112 22.5838 124.112ZM22.5838 122.712C23.9978 122.712 25.1458 121.564 25.1458 120.136C25.1458 118.736 23.9978 117.588 22.5838 117.588C21.1558 117.588 20.0218 118.736 20.0218 120.136C20.0218 121.564 21.1558 122.712 22.5838 122.712ZM29.7323 117.532V124.014L28.3743 123.986V117.532H27.3943V116.3H28.3743V116.006C28.3743 113.682 29.5923 112.87 31.0623 112.87C31.4123 112.87 31.8183 112.94 32.0983 113.038L31.7343 114.256C31.5663 114.228 31.3563 114.186 31.1743 114.186C30.3063 114.186 29.7323 114.62 29.7323 116.006V116.3H31.7203V117.532H29.7323ZM40.5077 124.112C38.3237 124.112 36.5597 122.32 36.5597 120.136C36.5597 117.966 38.3237 116.202 40.5077 116.202C41.8377 116.202 43.0137 116.86 43.7417 117.868L42.6077 118.624C42.1317 117.994 41.3617 117.588 40.5077 117.588C39.0797 117.588 37.9457 118.736 37.9457 120.136C37.9457 121.564 39.0797 122.712 40.5077 122.712C41.3897 122.712 42.1737 122.278 42.6357 121.606L43.7697 122.362C43.0697 123.412 41.8657 124.112 40.5077 124.112ZM48.4738 124.098C46.4018 124.098 44.7218 122.32 44.7218 120.15C44.7218 117.966 46.4018 116.188 48.4738 116.188C49.7338 116.188 50.8678 116.944 51.3438 117.924L51.4138 116.3H52.6738V124H51.4138L51.3438 122.39C50.8678 123.356 49.7338 124.098 48.4738 124.098ZM48.6978 122.74C50.1398 122.74 51.3018 121.578 51.3018 120.15C51.3018 118.708 50.1398 117.532 48.6978 117.532C47.2698 117.532 46.1078 118.708 46.1078 120.15C46.1078 121.578 47.2698 122.74 48.6978 122.74ZM56.0301 124H54.6721V116.3H55.9321L56.0021 117.574C56.3941 116.678 57.2621 116.188 58.1021 116.188C59.3341 116.188 60.1321 116.902 60.4541 117.826C60.7761 116.916 61.5741 116.188 62.6941 116.188C64.3321 116.188 65.5501 117.238 65.5501 119.912V124H64.1781V119.912C64.1781 118.148 63.3941 117.532 62.4841 117.532C61.6301 117.532 60.7901 118.148 60.7901 119.912V124H59.4181V119.912C59.4181 118.148 58.6341 117.532 57.7241 117.532C56.8141 117.532 56.0301 118.316 56.0301 120.08V124ZM71.0266 124.112C68.6886 124.112 66.9386 122.32 66.9386 120.136C66.9386 117.966 68.6886 116.202 70.8446 116.202C73.0846 116.202 74.7506 117.966 74.7506 120.136C74.7506 120.318 74.7226 120.584 74.7086 120.78H68.4086C68.6186 121.942 69.6966 122.824 71.0266 122.824C71.9786 122.824 72.7346 122.432 73.2246 121.83L74.3306 122.516C73.6026 123.482 72.3286 124.112 71.0266 124.112ZM68.3946 119.66H73.3366C73.2666 118.47 72.2726 117.476 70.8586 117.476C69.5006 117.476 68.4786 118.47 68.3946 119.66ZM77.5496 124H76.1916V113.08H77.5496V124ZM84.741 124H83.383V116.3H84.643L84.713 117.574C85.105 116.678 85.973 116.188 86.813 116.188C88.045 116.188 88.843 116.902 89.165 117.826C89.487 116.916 90.285 116.188 91.405 116.188C93.043 116.188 94.261 117.238 94.261 119.912V124H92.889V119.912C92.889 118.148 92.105 117.532 91.195 117.532C90.341 117.532 89.501 118.148 89.501 119.912V124H88.129V119.912C88.129 118.148 87.345 117.532 86.435 117.532C85.525 117.532 84.741 118.316 84.741 120.08V124ZM96.7975 115.516C96.3215 115.516 95.9295 115.124 95.9295 114.648C95.9295 114.172 96.3215 113.78 96.7975 113.78C97.2595 113.78 97.6515 114.172 97.6515 114.648C97.6515 115.124 97.2595 115.516 96.7975 115.516ZM97.4695 124H96.1115V116.3H97.4695V124ZM100.833 124H99.4748V113.08H100.833V124ZM104.14 124H102.838V113.08H104.14V119.744L107.584 116.3H109.208L106.268 119.366L109.6 124H107.99L105.386 120.388L104.14 121.592V124Z" fill="black"/>
<path d="M44.3796 173.232H40.6847C40.5851 173.232 40.4865 173.212 40.3945 173.175C40.3026 173.137 40.219 173.082 40.1486 173.012C40.0782 172.943 40.0224 172.86 39.9843 172.769C39.9462 172.679 39.9267 172.581 39.9268 172.483V162.749C39.9267 162.65 39.9462 162.553 39.9843 162.462C40.0224 162.371 40.0782 162.289 40.1486 162.219C40.219 162.15 40.3026 162.094 40.3945 162.057C40.4865 162.019 40.5851 162 40.6847 162H44.3796C45.8871 162 47.3329 162.592 48.3988 163.645C49.4648 164.698 50.0636 166.126 50.0636 167.616C50.0636 169.105 49.4648 170.534 48.3988 171.587C47.3329 172.64 45.8871 173.232 44.3796 173.232ZM41.4426 171.734H44.3796C45.4851 171.734 46.5452 171.3 47.3269 170.528C48.1086 169.756 48.5478 168.708 48.5478 167.616C48.5478 166.524 48.1086 165.476 47.3269 164.704C46.5452 163.931 45.4851 163.498 44.3796 163.498H41.4426V171.734Z" fill="black"/>
<path d="M40.6844 165.931H35.7579C35.5569 165.931 35.364 165.853 35.2219 165.712C35.0797 165.572 35 165.381 35 165.183C35 164.984 35.0797 164.793 35.2219 164.653C35.364 164.513 35.5569 164.434 35.7579 164.434H40.6844C40.8855 164.434 41.0782 164.513 41.2203 164.653C41.3625 164.793 41.4424 164.984 41.4424 165.183C41.4424 165.381 41.3625 165.572 41.2203 165.712C41.0782 165.853 40.8855 165.931 40.6844 165.931Z" fill="black"/>
<path d="M40.6844 170.798H35.7579C35.5569 170.798 35.364 170.719 35.2219 170.579C35.0797 170.438 35 170.248 35 170.049C35 169.851 35.0797 169.66 35.2219 169.52C35.364 169.379 35.5569 169.3 35.7579 169.3H40.6844C40.8855 169.3 41.0782 169.379 41.2203 169.52C41.3625 169.66 41.4424 169.851 41.4424 170.049C41.4424 170.248 41.3625 170.438 41.2203 170.579C41.0782 170.719 40.8855 170.798 40.6844 170.798Z" fill="black"/>
<path d="M61.249 195.133H44.3792C42.5451 195.133 40.7862 194.413 39.4893 193.131C38.1924 191.85 37.4639 190.112 37.4639 188.3C37.4639 186.488 38.1924 184.75 39.4893 183.469C40.7862 182.188 42.5451 181.468 44.3792 181.468H62.8522C63.7231 181.468 64.5855 181.299 65.3902 180.969C66.1948 180.64 66.926 180.158 67.5418 179.549C68.1577 178.941 68.6462 178.218 68.9794 177.423C69.3127 176.628 69.4841 175.776 69.484 174.916C69.479 173.179 68.7812 171.515 67.5418 170.283C66.9272 169.673 66.1962 169.189 65.3913 168.86C64.5863 168.531 63.7234 168.362 62.8522 168.364H49.3057C49.1047 168.364 48.9118 168.285 48.7697 168.145C48.6275 168.005 48.5478 167.814 48.5478 167.615C48.5478 167.417 48.6275 167.226 48.7697 167.086C48.9118 166.946 49.1047 166.867 49.3057 166.867H62.8522C63.923 166.865 64.9837 167.072 65.9734 167.476C66.9632 167.88 67.8627 168.473 68.6204 169.22C69.3782 169.968 69.9793 170.856 70.3894 171.833C70.7996 172.811 71.0106 173.858 71.0106 174.916C71.0106 175.974 70.7996 177.022 70.3894 177.999C69.9793 178.976 69.3782 179.864 68.6204 180.612C67.8627 181.36 66.9632 181.952 65.9734 182.356C64.9837 182.76 63.923 182.967 62.8522 182.966H44.3792C42.9472 182.966 41.5737 183.528 40.5611 184.528C39.5485 185.529 38.9797 186.885 38.9797 188.3C38.9797 189.715 39.5485 191.072 40.5611 192.073C41.5737 193.073 42.9472 193.635 44.3792 193.635H61.249C61.45 193.635 61.6427 193.714 61.7849 193.854C61.927 193.995 62.0069 194.185 62.0069 194.384C62.0069 194.582 61.927 194.773 61.7849 194.913C61.6427 195.054 61.45 195.133 61.249 195.133Z" fill="black"/>
<path d="M60.8542 200H56.4473C55.6211 199.999 54.8051 199.821 54.055 199.479C53.3042 199.136 52.6387 198.634 52.1055 198.009C51.5733 197.385 51.184 196.654 50.9641 195.867C50.7452 195.08 50.7033 194.254 50.8413 193.449C51.1098 192.105 51.8494 190.898 52.93 190.04C54.0103 189.197 55.3519 188.747 56.7285 188.768H60.8542C62.9493 188.766 64.9979 189.379 66.7399 190.529L70.1092 192.749C70.3818 192.928 70.6052 193.171 70.7598 193.457C70.9144 193.742 70.9953 194.06 70.9953 194.384C70.9953 194.708 70.9144 195.026 70.7598 195.312C70.6052 195.597 70.3818 195.84 70.1092 196.02L66.7399 198.239C64.9979 199.389 62.9493 200.002 60.8542 200ZM56.6145 190.265C55.606 190.261 54.6274 190.603 53.8461 191.234C53.0649 191.864 52.5296 192.743 52.332 193.72C52.2349 194.303 52.2672 194.901 52.4267 195.471C52.5873 196.049 52.8727 196.585 53.2631 197.043C53.6542 197.501 54.1424 197.869 54.6931 198.12C55.243 198.371 55.8414 198.502 56.4473 198.502H60.8542C62.65 198.504 64.4059 197.979 65.8991 196.993L69.2683 194.774C69.3326 194.732 69.3851 194.675 69.4208 194.608C69.4776 194.505 69.4935 194.385 69.4652 194.272C69.437 194.158 69.3668 194.059 69.2683 193.995L65.8991 191.775C64.4059 190.79 62.65 190.264 60.8542 190.266H56.7122C56.6797 190.265 56.6471 190.265 56.6145 190.265Z" fill="black"/>
<path d="M13.4125 231H6.95855V220.78H13.2725V222.11H8.38655V225.092H12.9925V226.422H8.38655V229.6H13.4125V231ZM16.448 231H15.09V223.3H16.35L16.42 224.658C16.84 223.846 17.666 223.188 18.842 223.188C20.634 223.188 21.992 224.42 21.992 227.08V231H20.62V227.08C20.62 225.33 19.668 224.532 18.534 224.532C17.414 224.532 16.448 225.316 16.448 227.08V231ZM27.4524 231.112C25.1144 231.112 23.3644 229.32 23.3644 227.136C23.3644 224.966 25.1144 223.202 27.2704 223.202C29.5104 223.202 31.1764 224.966 31.1764 227.136C31.1764 227.318 31.1484 227.584 31.1344 227.78H24.8344C25.0444 228.942 26.1224 229.824 27.4524 229.824C28.4044 229.824 29.1604 229.432 29.6504 228.83L30.7564 229.516C30.0284 230.482 28.7544 231.112 27.4524 231.112ZM24.8204 226.66H29.7624C29.6924 225.47 28.6984 224.476 27.2844 224.476C25.9264 224.476 24.9044 225.47 24.8204 226.66ZM34.0711 231H32.7131V223.3H33.9731L34.0571 224.56C34.5051 223.734 35.3731 223.244 36.5071 223.258C36.7031 223.258 36.8991 223.272 37.0811 223.3L36.8011 224.616C36.7171 224.602 36.6191 224.588 36.5351 224.588C35.2331 224.588 34.0711 225.316 34.0711 227.444V231ZM41.2528 234.22C39.9508 234.22 38.6908 233.632 37.9628 232.68L38.9988 231.882C39.5308 232.512 40.4128 232.904 41.3228 232.904C42.8068 232.904 44.0948 232.05 44.0948 230.02V229.432C43.6328 230.37 42.5128 231.098 41.2668 231.098C39.1948 231.098 37.5148 229.32 37.5148 227.15C37.5148 224.966 39.1948 223.188 41.2668 223.188C42.5268 223.188 43.6608 223.944 44.1368 224.924L44.2068 223.3H45.4668V229.796C45.4668 232.778 43.6748 234.22 41.2528 234.22ZM41.4908 229.74C42.9328 229.74 44.0948 228.578 44.0948 227.15C44.0948 225.708 42.9328 224.532 41.4908 224.532C40.0628 224.532 38.9008 225.708 38.9008 227.15C38.9008 228.578 40.0628 229.74 41.4908 229.74ZM48.053 234.164C47.493 234.164 47.073 234.066 46.639 233.884L47.045 232.666C47.283 232.764 47.675 232.862 47.997 232.862C48.865 232.862 49.425 232.036 49.873 230.846L46.793 223.3H48.263L50.503 228.998L52.729 223.3H54.185L51.245 231C50.405 233.212 49.523 234.164 48.053 234.164ZM63.0735 231H61.6315V222.166H58.5095V220.78H66.1955V222.166H63.0735V231ZM68.866 231H67.508V223.3H68.768L68.852 224.56C69.3 223.734 70.168 223.244 71.302 223.258C71.498 223.258 71.694 223.272 71.876 223.3L71.596 224.616C71.512 224.602 71.414 224.588 71.33 224.588C70.028 224.588 68.866 225.316 68.866 227.444V231ZM76.0617 231.098C73.9897 231.098 72.3097 229.32 72.3097 227.15C72.3097 224.966 73.9897 223.188 76.0617 223.188C77.3217 223.188 78.4557 223.944 78.9317 224.924L79.0017 223.3H80.2617V231H79.0017L78.9317 229.39C78.4557 230.356 77.3217 231.098 76.0617 231.098ZM76.2857 229.74C77.7277 229.74 78.8897 228.578 78.8897 227.15C78.8897 225.708 77.7277 224.532 76.2857 224.532C74.8577 224.532 73.6957 225.708 73.6957 227.15C73.6957 228.578 74.8577 229.74 76.2857 229.74ZM83.618 231H82.26V223.3H83.52L83.59 224.658C84.01 223.846 84.836 223.188 86.012 223.188C87.804 223.188 89.162 224.42 89.162 227.08V231H87.79V227.08C87.79 225.33 86.838 224.532 85.704 224.532C84.584 224.532 83.618 225.316 83.618 227.08V231ZM93.9249 231.14C92.8189 231.14 91.3909 230.776 90.4949 229.796L91.4329 228.9C91.9509 229.474 92.9589 229.852 93.9249 229.852C94.9329 229.852 95.6329 229.46 95.6329 228.788C95.6329 227.206 90.7609 228.172 90.7609 225.316C90.7609 224.056 91.9089 223.174 93.6729 223.174C94.6669 223.174 95.9269 223.44 96.7669 224.448L95.9269 225.288C95.3949 224.644 94.4289 224.406 93.7149 224.406C92.7909 224.406 92.1329 224.742 92.1329 225.33C92.1329 226.73 97.0049 225.862 97.0049 228.746C97.0049 230.398 95.5349 231.14 93.9249 231.14ZM98.9192 231.098C98.4572 231.098 98.0792 230.706 98.0792 230.244C98.0792 229.782 98.4572 229.404 98.9192 229.404C99.3812 229.404 99.7592 229.782 99.7592 230.244C99.7592 230.706 99.3812 231.098 98.9192 231.098ZM14.6539 251H13.1699L10.0619 240.78H11.5739L13.9539 248.536L16.2779 240.766H17.5659L19.8899 248.536L22.2699 240.78H23.7819L20.6739 251H19.2039L16.9359 243.23L14.6539 251ZM26.408 251H25.05V240.08H26.408V244.63C26.828 243.832 27.654 243.188 28.802 243.188C30.594 243.188 31.952 244.42 31.952 247.08V251H30.58V247.08C30.58 245.33 29.628 244.532 28.494 244.532C27.374 244.532 26.408 245.316 26.408 247.08V251ZM34.4723 242.516C33.9963 242.516 33.6043 242.124 33.6043 241.648C33.6043 241.172 33.9963 240.78 34.4723 240.78C34.9343 240.78 35.3263 241.172 35.3263 241.648C35.3263 242.124 34.9343 242.516 34.4723 242.516ZM35.1443 251H33.7863V243.3H35.1443V251ZM40.0896 251.126C38.6756 251.126 37.4996 250.272 37.4996 248.13V244.532H36.4636V243.3H37.5416L37.7096 240.78H38.8576V243.3H40.7056V244.532H38.8576V248.116C38.8576 249.222 39.4036 249.796 40.2716 249.796C40.4676 249.796 40.6776 249.768 40.8596 249.698L41.2096 250.916C40.8876 251.056 40.4956 251.126 40.0896 251.126ZM45.8889 251.112C43.5509 251.112 41.8009 249.32 41.8009 247.136C41.8009 244.966 43.5509 243.202 45.7069 243.202C47.9469 243.202 49.6129 244.966 49.6129 247.136C49.6129 247.318 49.5849 247.584 49.5709 247.78H43.2709C43.4809 248.942 44.5589 249.824 45.8889 249.824C46.8409 249.824 47.5969 249.432 48.0869 248.83L49.1929 249.516C48.4649 250.482 47.1909 251.112 45.8889 251.112ZM43.2569 246.66H48.1989C48.1289 245.47 47.1349 244.476 45.7209 244.476C44.3629 244.476 43.3409 245.47 43.2569 246.66ZM56.5597 251H55.1177V240.78H58.9957C61.0677 240.78 62.4397 242.222 62.4397 243.986C62.4397 245.764 61.0677 247.206 58.9957 247.206H56.5597V251ZM56.5597 242.194V245.792H58.9677C60.1997 245.792 60.9557 244.966 60.9557 243.986C60.9557 243.034 60.1997 242.194 58.9677 242.194H56.5597ZM66.9357 251.098C64.8637 251.098 63.1837 249.32 63.1837 247.15C63.1837 244.966 64.8637 243.188 66.9357 243.188C68.1957 243.188 69.3297 243.944 69.8057 244.924L69.8757 243.3H71.1357V251H69.8757L69.8057 249.39C69.3297 250.356 68.1957 251.098 66.9357 251.098ZM67.1597 249.74C68.6017 249.74 69.7637 248.578 69.7637 247.15C69.7637 245.708 68.6017 244.532 67.1597 244.532C65.7317 244.532 64.5697 245.708 64.5697 247.15C64.5697 248.578 65.7317 249.74 67.1597 249.74ZM74.492 254.08H73.134V243.3H74.394L74.464 244.896C74.926 243.944 76.06 243.202 77.32 243.202C79.392 243.202 81.072 244.966 81.072 247.136C81.072 249.32 79.392 251.112 77.32 251.112C76.074 251.112 74.954 250.37 74.492 249.418V254.08ZM77.11 249.754C78.538 249.754 79.7 248.578 79.7 247.136C79.7 245.708 78.538 244.546 77.11 244.546C75.654 244.546 74.492 245.708 74.492 247.136C74.492 248.578 75.654 249.754 77.11 249.754ZM86.2483 251.112C83.9103 251.112 82.1603 249.32 82.1603 247.136C82.1603 244.966 83.9103 243.202 86.0663 243.202C88.3063 243.202 89.9723 244.966 89.9723 247.136C89.9723 247.318 89.9443 247.584 89.9303 247.78H83.6303C83.8403 248.942 84.9183 249.824 86.2483 249.824C87.2003 249.824 87.9563 249.432 88.4463 248.83L89.5523 249.516C88.8243 250.482 87.5503 251.112 86.2483 251.112ZM83.6163 246.66H88.5583C88.4883 245.47 87.4943 244.476 86.0803 244.476C84.7223 244.476 83.7003 245.47 83.6163 246.66ZM92.867 251H91.509V243.3H92.769L92.853 244.56C93.301 243.734 94.169 243.244 95.303 243.258C95.499 243.258 95.695 243.272 95.877 243.3L95.597 244.616C95.513 244.602 95.415 244.588 95.331 244.588C94.029 244.588 92.867 245.316 92.867 247.444V251Z" fill="black"/>
<path d="M192.316 51.4751C190.994 51.4751 189.701 51.084 188.602 50.351C187.503 49.6181 186.646 48.5762 186.14 47.3573C185.634 46.1384 185.501 44.7972 185.759 43.5031C186.017 42.2091 186.654 41.0204 187.589 40.0874C188.523 39.1545 189.714 38.5191 191.011 38.2616C192.308 38.0041 193.652 38.1362 194.874 38.641C196.095 39.1459 197.139 40.0008 197.874 41.0978C198.608 42.1948 199 43.4845 199 44.8039C198.999 46.5726 198.294 48.2683 197.041 49.519C195.787 50.7696 194.088 51.4731 192.316 51.4751ZM192.316 39.4169C191.248 39.4168 190.204 39.7327 189.317 40.3247C188.429 40.9166 187.737 41.758 187.328 42.7424C186.919 43.7269 186.812 44.8101 187.021 45.8552C187.229 46.9003 187.743 47.8602 188.498 48.6137C189.253 49.3672 190.215 49.8803 191.263 50.0881C192.31 50.296 193.395 50.1893 194.382 49.7815C195.368 49.3737 196.211 48.6831 196.805 47.7971C197.398 46.9111 197.714 45.8695 197.714 44.8039C197.713 43.3757 197.143 42.0064 196.131 40.9964C195.119 39.9865 193.747 39.4185 192.316 39.4169Z" fill="black"/>
<path d="M152.624 27.0791C151.907 27.079 151.206 26.8667 150.61 26.4693C150.014 26.0718 149.55 25.5069 149.276 24.846C149.001 24.1851 148.93 23.458 149.07 22.7565C149.21 22.0549 149.555 21.4106 150.062 20.9048C150.569 20.3991 151.214 20.0547 151.917 19.9152C152.62 19.7757 153.349 19.8474 154.011 20.1211C154.673 20.3949 155.239 20.8585 155.638 21.4532C156.036 22.0479 156.248 22.7471 156.248 23.4624C156.247 24.4214 155.865 25.3409 155.185 26.0189C154.506 26.697 153.585 27.0783 152.624 27.0791ZM152.624 21.1292C152.161 21.1294 151.709 21.2663 151.325 21.5228C150.94 21.7792 150.641 22.1436 150.464 22.57C150.287 22.9963 150.241 23.4654 150.331 23.918C150.421 24.3705 150.644 24.7862 150.971 25.1125C151.298 25.4387 151.715 25.6609 152.168 25.7508C152.622 25.8408 153.092 25.7946 153.519 25.6179C153.946 25.4413 154.311 25.1423 154.568 24.7586C154.825 24.3749 154.962 23.9239 154.962 23.4624C154.962 22.8437 154.715 22.2505 154.276 21.8131C153.838 21.3756 153.244 21.1297 152.624 21.1292Z" fill="black"/>
<path d="M171.572 46.9403C167.997 46.9457 164.551 45.6141 161.912 43.2083C159.274 40.8024 157.634 37.4971 157.318 33.9443C157.001 30.3916 158.031 26.8495 160.202 24.0169C162.374 21.1842 165.531 19.2667 169.05 18.6427C172.57 18.0187 176.195 18.7336 179.212 20.6462C182.229 22.5587 184.418 25.5301 185.347 28.9742C186.277 32.4183 185.878 36.0849 184.232 39.2506C182.585 42.4163 179.81 44.8512 176.452 46.0749C174.889 46.6469 173.237 46.9399 171.572 46.9403ZM171.567 19.7832C168.811 19.7859 166.128 20.6652 163.907 22.2933C161.686 23.9214 160.043 26.2136 159.216 28.837C158.389 31.4604 158.422 34.2785 159.309 36.882C160.197 39.4856 161.893 41.7391 164.151 43.3153C166.409 44.8915 169.112 45.7084 171.867 45.6473C174.622 45.5863 177.286 44.6504 179.472 42.9757C181.658 41.301 183.252 38.9746 184.023 36.3343C184.794 33.694 184.701 30.8772 183.759 28.293C182.856 25.7917 181.199 23.6307 179.016 22.1069C176.833 20.5831 174.231 19.7713 171.567 19.7832Z" fill="black"/>
<path d="M162.007 30.9778C161.954 30.9778 161.902 30.9713 161.851 30.9583C161.769 30.9379 161.692 30.9016 161.624 30.8515C161.556 30.8013 161.499 30.7383 161.455 30.666C161.412 30.5937 161.383 30.5136 161.37 30.4302C161.358 30.3468 161.362 30.2618 161.382 30.18C161.799 28.5139 162.618 26.9753 163.77 25.6994C164.921 24.4236 166.369 23.4495 167.986 22.8627C168.066 22.8337 168.15 22.8205 168.235 22.824C168.319 22.8276 168.402 22.8477 168.479 22.8833C168.555 22.9188 168.624 22.9692 168.681 23.0314C168.739 23.0936 168.783 23.1664 168.812 23.2457C168.841 23.325 168.854 23.4092 168.85 23.4935C168.846 23.5778 168.826 23.6606 168.79 23.737C168.754 23.8134 168.704 23.882 168.641 23.9389C168.579 23.9958 168.506 24.0398 168.426 24.0685C167.007 24.5836 165.736 25.4388 164.725 26.5589C163.715 27.6789 162.996 29.0296 162.631 30.4921C162.596 30.6308 162.515 30.7539 162.402 30.8419C162.289 30.9298 162.15 30.9777 162.007 30.9778Z" fill="black"/>
<path d="M154.555 41.9256C152.223 41.9256 150.858 41.4092 150.482 40.3795C149.865 38.6868 152.15 36.3674 157.273 33.4859C157.347 33.4442 157.428 33.4175 157.512 33.4072C157.596 33.3969 157.681 33.4032 157.763 33.4259C157.844 33.4485 157.92 33.4869 157.987 33.539C158.053 33.591 158.109 33.6557 158.151 33.7293C158.192 33.8029 158.218 33.8838 158.229 33.9676C158.239 34.0514 158.232 34.1364 158.209 34.2177C158.186 34.2989 158.147 34.3749 158.095 34.4411C158.043 34.5074 157.978 34.5627 157.904 34.6039C152.55 37.6164 151.498 39.4125 151.69 39.9408C151.849 40.3789 153.397 41.0231 158.09 40.3438C163.147 39.4958 168.11 38.1597 172.908 36.3543C185.048 31.9443 192.01 26.9758 191.47 25.4924C191.234 24.8494 188.734 24.3161 182.794 25.4818C182.627 25.5147 182.453 25.4799 182.311 25.385C182.17 25.2902 182.071 25.1431 182.038 24.976C182.005 24.809 182.04 24.6357 182.135 24.4943C182.23 24.3529 182.378 24.255 182.545 24.2221C188.634 23.0276 192.043 23.3078 192.679 25.0537C193.975 28.6071 181.828 34.4798 173.348 37.56C168.467 39.3957 163.419 40.7533 158.276 41.6135C157.045 41.8052 155.801 41.9094 154.555 41.9256Z" fill="black"/>
<path d="M179.987 57C179.859 57 179.734 56.9621 179.628 56.8911C179.522 56.8202 179.44 56.7193 179.391 56.6014L178.321 53.99L175.705 52.9233C175.587 52.875 175.486 52.7927 175.415 52.6869C175.344 52.5811 175.306 52.4566 175.306 52.3292C175.306 52.2018 175.344 52.0773 175.415 51.9715C175.486 51.8657 175.587 51.7834 175.705 51.7351L178.321 50.6685L179.391 48.0571C179.44 47.9391 179.522 47.8382 179.628 47.7671C179.734 47.696 179.859 47.658 179.987 47.6579C180.114 47.658 180.239 47.696 180.345 47.7671C180.451 47.8382 180.534 47.9391 180.582 48.0571L181.651 50.6685L184.268 51.7351C184.387 51.7834 184.488 51.8657 184.559 51.9715C184.63 52.0773 184.668 52.2018 184.668 52.3292C184.668 52.4566 184.63 52.5811 184.559 52.6869C184.488 52.7927 184.387 52.875 184.268 52.9233L181.651 53.99L180.582 56.6008C180.534 56.7188 180.451 56.8197 180.345 56.8908C180.239 56.9619 180.114 56.9999 179.987 57ZM177.649 52.3292L179.059 52.9039C179.138 52.9362 179.209 52.9839 179.27 53.0441C179.33 53.1044 179.378 53.176 179.41 53.2549L179.987 54.6618L180.562 53.2555C180.594 53.1765 180.642 53.1047 180.702 53.0444C180.763 52.984 180.835 52.9363 180.914 52.9039L182.324 52.3292L180.914 51.7546C180.835 51.7222 180.763 51.6745 180.702 51.6141C180.642 51.5537 180.594 51.482 180.562 51.403L179.987 49.9967L179.41 51.403C179.378 51.482 179.33 51.5537 179.27 51.6141C179.21 51.6745 179.138 51.7222 179.059 51.7546L177.649 52.3292Z" fill="black"/>
<path d="M184.407 20.3422C184.279 20.3422 184.154 20.3043 184.048 20.2333C183.942 20.1623 183.86 20.0615 183.811 19.9436L182.741 17.3321L180.125 16.2655C180.007 16.2172 179.906 16.1349 179.835 16.0291C179.764 15.9233 179.726 15.7988 179.726 15.6714C179.726 15.544 179.764 15.4195 179.835 15.3137C179.906 15.2079 180.007 15.1256 180.125 15.0773L182.741 14.0107L183.811 11.3992C183.86 11.2813 183.942 11.1803 184.048 11.1093C184.154 11.0382 184.279 11.0002 184.407 11.0001C184.534 11.0002 184.659 11.0382 184.765 11.1093C184.871 11.1803 184.954 11.2813 185.002 11.3992L186.071 14.0107L188.687 15.0773C188.805 15.1256 188.906 15.2079 188.977 15.3137C189.049 15.4195 189.087 15.544 189.087 15.6714C189.087 15.7988 189.049 15.9233 188.977 16.0291C188.906 16.1349 188.805 16.2172 188.687 16.2655L186.071 17.3321L185.002 19.943C184.954 20.0609 184.871 20.1619 184.765 20.233C184.659 20.304 184.534 20.3421 184.407 20.3422ZM182.069 15.6714L183.479 16.2461C183.558 16.2784 183.629 16.3261 183.69 16.3863C183.75 16.4466 183.798 16.5182 183.83 16.597L184.407 18.004L184.982 16.5977C185.014 16.5187 185.062 16.4469 185.122 16.3865C185.183 16.3262 185.255 16.2784 185.334 16.2461L186.743 15.6714L185.334 15.0967C185.255 15.0644 185.183 15.0166 185.122 14.9563C185.062 14.8959 185.014 14.8241 184.982 14.7451L184.407 13.3388L183.83 14.7451C183.798 14.8241 183.75 14.8959 183.69 14.9563C183.629 15.0166 183.558 15.0644 183.479 15.0967L182.069 15.6714Z" fill="black"/>
<path d="M159.95 53.5783C159.822 53.5782 159.697 53.5402 159.591 53.4691C159.485 53.398 159.403 53.2971 159.355 53.1791L158.45 50.9713L156.237 50.0695C156.119 50.0211 156.018 49.9389 155.947 49.8331C155.876 49.7273 155.838 49.6027 155.838 49.4753C155.838 49.348 155.876 49.2235 155.947 49.1177C156.018 49.0119 156.119 48.9296 156.237 48.8812L158.45 47.9794L159.355 45.7716C159.411 45.6625 159.496 45.5711 159.601 45.5073C159.706 45.4434 159.827 45.4097 159.95 45.4097C160.073 45.4097 160.194 45.4434 160.299 45.5073C160.404 45.5711 160.489 45.6625 160.545 45.7716L161.45 47.9794L163.663 48.8812C163.781 48.9296 163.882 49.0119 163.953 49.1177C164.024 49.2235 164.062 49.348 164.062 49.4753C164.062 49.6027 164.024 49.7273 163.953 49.8331C163.882 49.9389 163.781 50.0211 163.663 50.0695L161.45 50.9713L160.545 53.1791C160.497 53.2971 160.414 53.398 160.308 53.4691C160.202 53.5402 160.078 53.5782 159.95 53.5783ZM158.182 49.4753L159.188 49.8852C159.267 49.9175 159.339 49.9653 159.399 50.0256C159.459 50.086 159.507 50.1578 159.539 50.2367L159.95 51.2401L160.361 50.2367C160.393 50.1578 160.441 50.086 160.501 50.0256C160.561 49.9653 160.633 49.9175 160.712 49.8852L161.718 49.4753L160.712 49.0655C160.633 49.0331 160.561 48.9854 160.501 48.925C160.441 48.8646 160.393 48.7929 160.361 48.7139L159.95 47.7105L159.539 48.7139C159.507 48.7929 159.459 48.8646 159.399 48.925C159.339 48.9854 159.267 49.0331 159.188 49.0655L158.182 49.4753Z" fill="black"/>
<path d="M138.227 84H136.785V73.78H138.227L143.939 81.466V73.78H145.395V84H143.939L138.227 76.3V84ZM150.736 84.098C148.664 84.098 146.984 82.32 146.984 80.15C146.984 77.966 148.664 76.188 150.736 76.188C151.996 76.188 153.13 76.944 153.606 77.924L153.676 76.3H154.936V84H153.676L153.606 82.39C153.13 83.356 151.996 84.098 150.736 84.098ZM150.96 82.74C152.402 82.74 153.564 81.578 153.564 80.15C153.564 78.708 152.402 77.532 150.96 77.532C149.532 77.532 148.37 78.708 148.37 80.15C148.37 81.578 149.532 82.74 150.96 82.74ZM159.874 84.126C158.46 84.126 157.284 83.272 157.284 81.13V77.532H156.248V76.3H157.326L157.494 73.78H158.642V76.3H160.49V77.532H158.642V81.116C158.642 82.222 159.188 82.796 160.056 82.796C160.252 82.796 160.462 82.768 160.644 82.698L160.994 83.916C160.672 84.056 160.28 84.126 159.874 84.126ZM162.738 84.098C162.276 84.098 161.898 83.706 161.898 83.244C161.898 82.782 162.276 82.404 162.738 82.404C163.2 82.404 163.578 82.782 163.578 83.244C163.578 83.706 163.2 84.098 162.738 84.098ZM172.174 84.154C170.858 84.154 169.57 83.706 168.492 82.544L169.402 81.62C170.13 82.348 171.04 82.81 172.188 82.824C173.42 82.824 174.288 82.236 174.288 81.214C174.288 78.736 168.688 79.842 168.688 76.286C168.688 74.774 169.92 73.612 172.02 73.612C173.126 73.612 174.526 74.06 175.422 75.264L174.4 76.062C173.896 75.362 172.972 74.956 172.09 74.942C170.872 74.928 170.088 75.502 170.088 76.272C170.088 78.512 175.702 77.448 175.702 81.144C175.702 82.992 174.232 84.168 172.174 84.154ZM178.704 87.08H177.346V76.3H178.606L178.676 77.896C179.138 76.944 180.272 76.202 181.532 76.202C183.604 76.202 185.284 77.966 185.284 80.136C185.284 82.32 183.604 84.112 181.532 84.112C180.286 84.112 179.166 83.37 178.704 82.418V87.08ZM181.322 82.754C182.75 82.754 183.912 81.578 183.912 80.136C183.912 78.708 182.75 77.546 181.322 77.546C179.866 77.546 178.704 78.708 178.704 80.136C178.704 81.578 179.866 82.754 181.322 82.754ZM190.124 84.098C188.052 84.098 186.372 82.32 186.372 80.15C186.372 77.966 188.052 76.188 190.124 76.188C191.384 76.188 192.518 76.944 192.994 77.924L193.064 76.3H194.324V84H193.064L192.994 82.39C192.518 83.356 191.384 84.098 190.124 84.098ZM190.348 82.74C191.79 82.74 192.952 81.578 192.952 80.15C192.952 78.708 191.79 77.532 190.348 77.532C188.92 77.532 187.758 78.708 187.758 80.15C187.758 81.578 188.92 82.74 190.348 82.74ZM199.808 84.112C197.624 84.112 195.86 82.32 195.86 80.136C195.86 77.966 197.624 76.202 199.808 76.202C201.138 76.202 202.314 76.86 203.042 77.868L201.908 78.624C201.432 77.994 200.662 77.588 199.808 77.588C198.38 77.588 197.246 78.736 197.246 80.136C197.246 81.564 198.38 82.712 199.808 82.712C200.69 82.712 201.474 82.278 201.936 81.606L203.07 82.362C202.37 83.412 201.166 84.112 199.808 84.112ZM208.111 84.112C205.773 84.112 204.023 82.32 204.023 80.136C204.023 77.966 205.773 76.202 207.929 76.202C210.169 76.202 211.835 77.966 211.835 80.136C211.835 80.318 211.807 80.584 211.793 80.78H205.493C205.703 81.942 206.781 82.824 208.111 82.824C209.063 82.824 209.819 82.432 210.309 81.83L211.415 82.516C210.687 83.482 209.413 84.112 208.111 84.112ZM205.479 79.66H210.421C210.351 78.47 209.357 77.476 207.943 77.476C206.585 77.476 205.563 78.47 205.479 79.66ZM143.887 104H142.445V93.78H146.323C148.395 93.78 149.767 95.222 149.767 96.986C149.767 98.414 148.829 99.618 147.429 99.954L149.935 104H148.255L145.931 100.206H143.887V104ZM143.887 95.194V98.792H146.295C147.527 98.792 148.283 97.966 148.283 96.986C148.283 96.034 147.527 95.194 146.295 95.194H143.887ZM154.626 104.112C152.288 104.112 150.538 102.32 150.538 100.136C150.538 97.966 152.288 96.202 154.444 96.202C156.684 96.202 158.35 97.966 158.35 100.136C158.35 100.318 158.322 100.584 158.308 100.78H152.008C152.218 101.942 153.296 102.824 154.626 102.824C155.578 102.824 156.334 102.432 156.824 101.83L157.93 102.516C157.202 103.482 155.928 104.112 154.626 104.112ZM151.994 99.66H156.936C156.866 98.47 155.872 97.476 154.458 97.476C153.1 97.476 152.078 98.47 151.994 99.66ZM162.651 104.14C161.545 104.14 160.117 103.776 159.221 102.796L160.159 101.9C160.677 102.474 161.685 102.852 162.651 102.852C163.659 102.852 164.359 102.46 164.359 101.788C164.359 100.206 159.487 101.172 159.487 98.316C159.487 97.056 160.635 96.174 162.399 96.174C163.393 96.174 164.653 96.44 165.493 97.448L164.653 98.288C164.121 97.644 163.155 97.406 162.441 97.406C161.517 97.406 160.859 97.742 160.859 98.33C160.859 99.73 165.731 98.862 165.731 101.746C165.731 103.398 164.261 104.14 162.651 104.14ZM170.745 104.112C168.407 104.112 166.657 102.32 166.657 100.136C166.657 97.966 168.407 96.202 170.563 96.202C172.803 96.202 174.469 97.966 174.469 100.136C174.469 100.318 174.441 100.584 174.427 100.78H168.127C168.337 101.942 169.415 102.824 170.745 102.824C171.697 102.824 172.453 102.432 172.943 101.83L174.049 102.516C173.321 103.482 172.047 104.112 170.745 104.112ZM168.113 99.66H173.055C172.985 98.47 171.991 97.476 170.577 97.476C169.219 97.476 168.197 98.47 168.113 99.66ZM179.296 104.098C177.224 104.098 175.544 102.32 175.544 100.15C175.544 97.966 177.224 96.188 179.296 96.188C180.556 96.188 181.69 96.944 182.166 97.924L182.236 96.3H183.496V104H182.236L182.166 102.39C181.69 103.356 180.556 104.098 179.296 104.098ZM179.52 102.74C180.962 102.74 182.124 101.578 182.124 100.15C182.124 98.708 180.962 97.532 179.52 97.532C178.092 97.532 176.93 98.708 176.93 100.15C176.93 101.578 178.092 102.74 179.52 102.74ZM186.852 104H185.494V96.3H186.754L186.838 97.56C187.286 96.734 188.154 96.244 189.288 96.258C189.484 96.258 189.68 96.272 189.862 96.3L189.582 97.616C189.498 97.602 189.4 97.588 189.316 97.588C188.014 97.588 186.852 98.316 186.852 100.444V104ZM194.244 104.112C192.06 104.112 190.296 102.32 190.296 100.136C190.296 97.966 192.06 96.202 194.244 96.202C195.574 96.202 196.75 96.86 197.478 97.868L196.344 98.624C195.868 97.994 195.098 97.588 194.244 97.588C192.816 97.588 191.682 98.736 191.682 100.136C191.682 101.564 192.816 102.712 194.244 102.712C195.126 102.712 195.91 102.278 196.372 101.606L197.506 102.362C196.806 103.412 195.602 104.112 194.244 104.112ZM200.333 104H198.975V93.08H200.333V97.63C200.753 96.832 201.579 96.188 202.727 96.188C204.519 96.188 205.877 97.42 205.877 100.08V104H204.505V100.08C204.505 98.33 203.553 97.532 202.419 97.532C201.299 97.532 200.333 98.316 200.333 100.08V104ZM156.099 124.168C153.187 124.168 150.835 121.802 150.835 118.89C150.835 115.992 153.187 113.64 156.099 113.64C157.765 113.64 159.263 114.41 160.229 115.628L159.039 116.51C158.339 115.656 157.275 115.11 156.099 115.11C154.013 115.11 152.305 116.79 152.305 118.876C152.305 121.004 154.013 122.684 156.099 122.684C157.303 122.684 158.381 122.124 159.067 121.228L160.327 122.012C159.375 123.314 157.835 124.168 156.099 124.168ZM165.324 124.112C162.986 124.112 161.236 122.32 161.236 120.136C161.236 117.966 162.986 116.202 165.142 116.202C167.382 116.202 169.048 117.966 169.048 120.136C169.048 120.318 169.02 120.584 169.006 120.78H162.706C162.916 121.942 163.994 122.824 165.324 122.824C166.276 122.824 167.032 122.432 167.522 121.83L168.628 122.516C167.9 123.482 166.626 124.112 165.324 124.112ZM162.692 119.66H167.634C167.564 118.47 166.57 117.476 165.156 117.476C163.798 117.476 162.776 118.47 162.692 119.66ZM171.943 124H170.585V116.3H171.845L171.915 117.658C172.335 116.846 173.161 116.188 174.337 116.188C176.129 116.188 177.487 117.42 177.487 120.08V124H176.115V120.08C176.115 118.33 175.163 117.532 174.029 117.532C172.909 117.532 171.943 118.316 171.943 120.08V124ZM182.084 124.126C180.67 124.126 179.494 123.272 179.494 121.13V117.532H178.458V116.3H179.536L179.704 113.78H180.852V116.3H182.7V117.532H180.852V121.116C180.852 122.222 181.398 122.796 182.266 122.796C182.462 122.796 182.672 122.768 182.854 122.698L183.204 123.916C182.882 124.056 182.49 124.126 182.084 124.126ZM187.883 124.112C185.545 124.112 183.795 122.32 183.795 120.136C183.795 117.966 185.545 116.202 187.701 116.202C189.941 116.202 191.607 117.966 191.607 120.136C191.607 120.318 191.579 120.584 191.565 120.78H185.265C185.475 121.942 186.553 122.824 187.883 122.824C188.835 122.824 189.591 122.432 190.081 121.83L191.187 122.516C190.459 123.482 189.185 124.112 187.883 124.112ZM185.251 119.66H190.193C190.123 118.47 189.129 117.476 187.715 117.476C186.357 117.476 185.335 118.47 185.251 119.66ZM194.502 124H193.144V116.3H194.404L194.488 117.56C194.936 116.734 195.804 116.244 196.938 116.258C197.134 116.258 197.33 116.272 197.512 116.3L197.232 117.616C197.148 117.602 197.05 117.588 196.966 117.588C195.664 117.588 194.502 118.316 194.502 120.444V124Z" fill="black"/>
<path d="M182.144 202.505H159.856C159.673 202.505 159.496 202.436 159.362 202.312C159.227 202.187 159.145 202.016 159.131 201.833L156.56 168.49C156.552 168.39 156.565 168.289 156.597 168.194C156.63 168.099 156.683 168.012 156.751 167.939C156.819 167.865 156.902 167.806 156.994 167.766C157.086 167.726 157.185 167.705 157.286 167.705H184.715C184.815 167.705 184.915 167.726 185.007 167.766C185.099 167.806 185.182 167.865 185.25 167.939C185.318 168.012 185.37 168.099 185.403 168.194C185.436 168.289 185.448 168.39 185.44 168.49L182.869 201.833C182.856 202.016 182.773 202.187 182.639 202.312C182.504 202.436 182.327 202.505 182.144 202.505ZM160.531 201.048H181.47L183.928 169.162H158.072L160.531 201.048Z" fill="black"/>
<path d="M173.999 192.509C173.905 192.509 173.812 192.491 173.725 192.455C173.638 192.419 173.559 192.366 173.493 192.299L171.614 190.415L171.509 190.294L171.436 190.086L171.421 189.889L171.455 189.708L171.557 189.448L173.491 187.556C173.557 187.49 173.636 187.437 173.722 187.401C173.809 187.365 173.902 187.347 173.996 187.347C174.09 187.347 174.184 187.365 174.271 187.401C174.358 187.437 174.437 187.49 174.504 187.557C174.57 187.624 174.623 187.703 174.659 187.79C174.695 187.877 174.713 187.97 174.713 188.065C174.713 188.159 174.695 188.252 174.659 188.339C174.623 188.426 174.57 188.505 174.503 188.572L173.866 189.212H177.639L175.411 185.355C175.316 185.19 175.291 184.994 175.34 184.81C175.389 184.627 175.509 184.47 175.674 184.375C175.839 184.28 176.035 184.254 176.219 184.303C176.403 184.352 176.559 184.473 176.655 184.638L179.503 189.571C179.566 189.68 179.599 189.804 179.599 189.93C179.599 190.056 179.565 190.179 179.502 190.288C179.439 190.397 179.349 190.488 179.24 190.551C179.131 190.614 179.007 190.647 178.881 190.647L173.867 190.646L174.505 191.284C174.606 191.384 174.674 191.512 174.703 191.651C174.731 191.79 174.717 191.935 174.663 192.066C174.608 192.197 174.516 192.309 174.398 192.388C174.28 192.467 174.141 192.509 173.999 192.509ZM163.118 190.646C162.992 190.646 162.869 190.613 162.76 190.55C162.651 190.487 162.56 190.396 162.497 190.287C162.434 190.178 162.401 190.055 162.401 189.929C162.401 189.803 162.434 189.679 162.497 189.57L165.004 185.229L164.132 185.463C164.071 185.479 164.009 185.487 163.946 185.488C163.772 185.488 163.604 185.425 163.473 185.31C163.342 185.195 163.258 185.037 163.235 184.864C163.212 184.692 163.253 184.517 163.349 184.372C163.446 184.228 163.592 184.123 163.76 184.078L166.327 183.392L166.473 183.372L166.657 183.392L166.843 183.463L166.816 183.624L166.979 183.565L167.091 183.753L167.174 183.876L167.868 186.445C167.893 186.536 167.899 186.631 167.887 186.724C167.875 186.817 167.844 186.908 167.797 186.989C167.75 187.071 167.687 187.143 167.613 187.2C167.538 187.257 167.453 187.3 167.362 187.324C167.271 187.349 167.176 187.355 167.082 187.343C166.989 187.331 166.899 187.3 166.817 187.253C166.735 187.206 166.664 187.143 166.606 187.069C166.549 186.994 166.507 186.909 166.482 186.818L166.247 185.942L164.36 189.212H168.814C169.004 189.213 169.185 189.289 169.319 189.423C169.453 189.558 169.528 189.739 169.528 189.929C169.528 190.119 169.453 190.301 169.319 190.435C169.185 190.569 169.004 190.645 168.814 190.646L163.118 190.646ZM174.214 182.819L171.645 182.134C171.553 182.11 171.468 182.068 171.393 182.011C171.318 181.954 171.255 181.882 171.207 181.8C171.144 181.691 171.111 181.567 171.111 181.441C171.111 181.315 171.144 181.192 171.207 181.083C171.27 180.974 171.36 180.883 171.469 180.82C171.578 180.757 171.702 180.724 171.828 180.724C171.891 180.724 171.954 180.732 172.014 180.749L172.888 180.982L171 177.713L168.775 181.569C168.712 181.678 168.621 181.768 168.512 181.831C168.403 181.894 168.279 181.928 168.153 181.928C167.995 181.927 167.842 181.875 167.717 181.779C167.592 181.684 167.502 181.549 167.46 181.397C167.411 181.213 167.437 181.018 167.532 180.853L170.379 175.921C170.442 175.812 170.533 175.721 170.642 175.658C170.751 175.594 170.875 175.561 171.001 175.561C171.127 175.561 171.251 175.594 171.36 175.658C171.469 175.721 171.56 175.812 171.623 175.921L174.13 180.262L174.361 179.39C174.402 179.238 174.493 179.103 174.618 179.007C174.742 178.911 174.896 178.858 175.053 178.858C175.179 178.858 175.303 178.891 175.412 178.954C175.521 179.017 175.612 179.108 175.675 179.217C175.77 179.381 175.796 179.577 175.748 179.761L175.025 182.454L174.771 182.732L174.542 182.817L174.377 182.84L174.214 182.819Z" fill="black"/>
<path d="M186.487 169.162H155.513C155.417 169.162 155.322 169.143 155.234 169.107C155.145 169.07 155.065 169.017 154.997 168.949C154.93 168.881 154.876 168.801 154.839 168.713C154.803 168.624 154.784 168.529 154.784 168.434V164.004C154.784 163.908 154.803 163.814 154.839 163.725C154.876 163.637 154.93 163.556 154.997 163.489C155.065 163.421 155.145 163.367 155.234 163.331C155.322 163.294 155.417 163.275 155.513 163.276H186.487C186.583 163.275 186.678 163.294 186.766 163.331C186.855 163.367 186.935 163.421 187.003 163.489C187.07 163.556 187.124 163.637 187.161 163.725C187.197 163.814 187.216 163.908 187.216 164.004V168.434C187.216 168.529 187.197 168.624 187.161 168.713C187.124 168.801 187.07 168.881 187.003 168.949C186.935 169.017 186.855 169.07 186.766 169.107C186.678 169.143 186.583 169.162 186.487 169.162ZM156.241 167.705H185.759V164.732H156.241V167.705Z" fill="black"/>
<path d="M175.961 164.732C175.865 164.732 175.77 164.714 175.682 164.677C175.594 164.64 175.513 164.587 175.446 164.519C175.378 164.451 175.324 164.371 175.288 164.283C175.251 164.194 175.232 164.1 175.232 164.004V161.893C175.232 161.397 174.552 160.962 173.778 160.962H168.222C167.449 160.962 166.768 161.397 166.768 161.893V164.004C166.768 164.197 166.692 164.382 166.555 164.519C166.419 164.656 166.233 164.732 166.04 164.732C165.847 164.732 165.662 164.656 165.525 164.519C165.388 164.382 165.312 164.197 165.312 164.004V161.893C165.388 161.194 165.736 160.552 166.28 160.106C166.824 159.659 167.521 159.444 168.222 159.505H173.778C174.479 159.444 175.177 159.659 175.721 160.106C176.265 160.552 176.613 161.194 176.689 161.893V164.004C176.689 164.1 176.67 164.194 176.634 164.283C176.597 164.371 176.544 164.451 176.476 164.519C176.408 164.587 176.328 164.64 176.24 164.677C176.151 164.714 176.057 164.732 175.961 164.732Z" fill="black"/>
<path d="M125.157 231.154C123.841 231.154 122.553 230.706 121.475 229.544L122.385 228.62C123.113 229.348 124.023 229.81 125.171 229.824C126.403 229.824 127.271 229.236 127.271 228.214C127.271 225.736 121.671 226.842 121.671 223.286C121.671 221.774 122.903 220.612 125.003 220.612C126.109 220.612 127.509 221.06 128.405 222.264L127.383 223.062C126.879 222.362 125.955 221.956 125.073 221.942C123.855 221.928 123.071 222.502 123.071 223.272C123.071 225.512 128.685 224.448 128.685 228.144C128.685 229.992 127.215 231.168 125.157 231.154ZM133.269 231.126C131.855 231.126 130.679 230.272 130.679 228.13V224.532H129.643V223.3H130.721L130.889 220.78H132.037V223.3H133.885V224.532H132.037V228.116C132.037 229.222 132.583 229.796 133.451 229.796C133.647 229.796 133.857 229.768 134.039 229.698L134.389 230.916C134.067 231.056 133.675 231.126 133.269 231.126ZM138.712 231.112C136.92 231.112 135.562 229.866 135.562 227.206V223.3H136.934V227.206C136.934 228.97 137.886 229.754 139.02 229.754C140.14 229.754 141.106 228.97 141.106 227.206V223.3H142.464V231H141.204L141.134 229.628C140.714 230.44 139.874 231.112 138.712 231.112ZM147.756 231.098C145.684 231.098 144.004 229.32 144.004 227.15C144.004 224.966 145.684 223.188 147.756 223.188C149.002 223.188 150.122 223.916 150.584 224.882V220.08H151.956V231H150.696L150.626 229.39C150.15 230.356 149.016 231.098 147.756 231.098ZM147.98 229.74C149.422 229.74 150.584 228.578 150.584 227.15C150.584 225.708 149.422 224.532 147.98 224.532C146.552 224.532 145.39 225.708 145.39 227.15C145.39 228.578 146.552 229.74 147.98 229.74ZM154.64 222.516C154.164 222.516 153.772 222.124 153.772 221.648C153.772 221.172 154.164 220.78 154.64 220.78C155.102 220.78 155.494 221.172 155.494 221.648C155.494 222.124 155.102 222.516 154.64 222.516ZM155.312 231H153.954V223.3H155.312V231ZM160.944 231.112C158.606 231.112 156.856 229.32 156.856 227.136C156.856 224.966 158.606 223.202 160.762 223.202C163.002 223.202 164.668 224.966 164.668 227.136C164.668 227.318 164.64 227.584 164.626 227.78H158.326C158.536 228.942 159.614 229.824 160.944 229.824C161.896 229.824 162.652 229.432 163.142 228.83L164.248 229.516C163.52 230.482 162.246 231.112 160.944 231.112ZM158.312 226.66H163.254C163.184 225.47 162.19 224.476 160.776 224.476C159.418 224.476 158.396 225.47 158.312 226.66ZM168.969 231.14C167.863 231.14 166.435 230.776 165.539 229.796L166.477 228.9C166.995 229.474 168.003 229.852 168.969 229.852C169.977 229.852 170.677 229.46 170.677 228.788C170.677 227.206 165.805 228.172 165.805 225.316C165.805 224.056 166.953 223.174 168.717 223.174C169.711 223.174 170.971 223.44 171.811 224.448L170.971 225.288C170.439 224.644 169.473 224.406 168.759 224.406C167.835 224.406 167.177 224.742 167.177 225.33C167.177 226.73 172.049 225.862 172.049 228.746C172.049 230.398 170.579 231.14 168.969 231.14ZM180.983 231.112C178.799 231.112 177.035 229.32 177.035 227.136C177.035 224.966 178.799 223.202 180.983 223.202C183.153 223.202 184.931 224.966 184.931 227.136C184.931 229.32 183.153 231.112 180.983 231.112ZM180.983 229.712C182.397 229.712 183.545 228.564 183.545 227.136C183.545 225.736 182.397 224.588 180.983 224.588C179.555 224.588 178.421 225.736 178.421 227.136C178.421 228.564 179.555 229.712 180.983 229.712ZM187.838 231H186.48V223.3H187.74L187.81 224.658C188.23 223.846 189.056 223.188 190.232 223.188C192.024 223.188 193.382 224.42 193.382 227.08V231H192.01V227.08C192.01 225.33 191.058 224.532 189.924 224.532C188.804 224.532 187.838 225.316 187.838 227.08V231ZM201.984 231.126C200.57 231.126 199.394 230.272 199.394 228.13V224.532H198.358V223.3H199.436L199.604 220.78H200.752V223.3H202.6V224.532H200.752V228.116C200.752 229.222 201.298 229.796 202.166 229.796C202.362 229.796 202.572 229.768 202.754 229.698L203.104 230.916C202.782 231.056 202.39 231.126 201.984 231.126ZM205.912 231H204.554V220.08H205.912V224.63C206.332 223.832 207.158 223.188 208.306 223.188C210.098 223.188 211.456 224.42 211.456 227.08V231H210.084V227.08C210.084 225.33 209.132 224.532 207.998 224.532C206.878 224.532 205.912 225.316 205.912 227.08V231ZM216.916 231.112C214.578 231.112 212.828 229.32 212.828 227.136C212.828 224.966 214.578 223.202 216.734 223.202C218.974 223.202 220.64 224.966 220.64 227.136C220.64 227.318 220.612 227.584 220.598 227.78H214.298C214.508 228.942 215.586 229.824 216.916 229.824C217.868 229.824 218.624 229.432 219.114 228.83L220.22 229.516C219.492 230.482 218.218 231.112 216.916 231.112ZM214.284 226.66H219.226C219.156 225.47 218.162 224.476 216.748 224.476C215.39 224.476 214.368 225.47 214.284 226.66ZM135.11 242.516C134.634 242.516 134.242 242.124 134.242 241.648C134.242 241.172 134.634 240.78 135.11 240.78C135.572 240.78 135.964 241.172 135.964 241.648C135.964 242.124 135.572 242.516 135.11 242.516ZM135.782 251H134.424V243.3H135.782V251ZM139.145 251H137.787V243.3H139.047L139.117 244.574C139.509 243.678 140.377 243.188 141.217 243.188C142.449 243.188 143.247 243.902 143.569 244.826C143.891 243.916 144.689 243.188 145.809 243.188C147.447 243.188 148.665 244.238 148.665 246.912V251H147.293V246.912C147.293 245.148 146.509 244.532 145.599 244.532C144.745 244.532 143.905 245.148 143.905 246.912V251H142.533V246.912C142.533 245.148 141.749 244.532 140.839 244.532C139.929 244.532 139.145 245.316 139.145 247.08V251ZM151.874 254.08H150.516V243.3H151.776L151.846 244.896C152.308 243.944 153.442 243.202 154.702 243.202C156.774 243.202 158.454 244.966 158.454 247.136C158.454 249.32 156.774 251.112 154.702 251.112C153.456 251.112 152.336 250.37 151.874 249.418V254.08ZM154.492 249.754C155.92 249.754 157.082 248.578 157.082 247.136C157.082 245.708 155.92 244.546 154.492 244.546C153.036 244.546 151.874 245.708 151.874 247.136C151.874 248.578 153.036 249.754 154.492 249.754ZM163.294 251.098C161.222 251.098 159.542 249.32 159.542 247.15C159.542 244.966 161.222 243.188 163.294 243.188C164.554 243.188 165.688 243.944 166.164 244.924L166.234 243.3H167.494V251H166.234L166.164 249.39C165.688 250.356 164.554 251.098 163.294 251.098ZM163.518 249.74C164.96 249.74 166.122 248.578 166.122 247.15C166.122 245.708 164.96 244.532 163.518 244.532C162.09 244.532 160.928 245.708 160.928 247.15C160.928 248.578 162.09 249.74 163.518 249.74ZM172.978 251.112C170.794 251.112 169.03 249.32 169.03 247.136C169.03 244.966 170.794 243.202 172.978 243.202C174.308 243.202 175.484 243.86 176.212 244.868L175.078 245.624C174.602 244.994 173.832 244.588 172.978 244.588C171.55 244.588 170.416 245.736 170.416 247.136C170.416 248.564 171.55 249.712 172.978 249.712C173.86 249.712 174.644 249.278 175.106 248.606L176.24 249.362C175.54 250.412 174.336 251.112 172.978 251.112ZM180.704 251.126C179.29 251.126 178.114 250.272 178.114 248.13V244.532H177.078V243.3H178.156L178.324 240.78H179.472V243.3H181.32V244.532H179.472V248.116C179.472 249.222 180.018 249.796 180.886 249.796C181.082 249.796 181.292 249.768 181.474 249.698L181.824 250.916C181.502 251.056 181.11 251.126 180.704 251.126ZM190.588 251.112C188.404 251.112 186.64 249.32 186.64 247.136C186.64 244.966 188.404 243.202 190.588 243.202C192.758 243.202 194.536 244.966 194.536 247.136C194.536 249.32 192.758 251.112 190.588 251.112ZM190.588 249.712C192.002 249.712 193.15 248.564 193.15 247.136C193.15 245.736 192.002 244.588 190.588 244.588C189.16 244.588 188.026 245.736 188.026 247.136C188.026 248.564 189.16 249.712 190.588 249.712ZM197.736 244.532V251.014L196.378 250.986V244.532H195.398V243.3H196.378V243.006C196.378 240.682 197.596 239.87 199.066 239.87C199.416 239.87 199.822 239.94 200.102 240.038L199.738 241.256C199.57 241.228 199.36 241.186 199.178 241.186C198.31 241.186 197.736 241.62 197.736 243.006V243.3H199.724V244.532H197.736ZM126.506 274.08H125.148V263.3H126.408L126.478 264.896C126.94 263.944 128.074 263.202 129.334 263.202C131.406 263.202 133.086 264.966 133.086 267.136C133.086 269.32 131.406 271.112 129.334 271.112C128.088 271.112 126.968 270.37 126.506 269.418V274.08ZM129.124 269.754C130.552 269.754 131.714 268.578 131.714 267.136C131.714 265.708 130.552 264.546 129.124 264.546C127.668 264.546 126.506 265.708 126.506 267.136C126.506 268.578 127.668 269.754 129.124 269.754ZM135.898 271H134.54V260.08H135.898V271ZM141.194 271.098C139.122 271.098 137.442 269.32 137.442 267.15C137.442 264.966 139.122 263.188 141.194 263.188C142.454 263.188 143.588 263.944 144.064 264.924L144.134 263.3H145.394V271H144.134L144.064 269.39C143.588 270.356 142.454 271.098 141.194 271.098ZM141.418 269.74C142.86 269.74 144.022 268.578 144.022 267.15C144.022 265.708 142.86 264.532 141.418 264.532C139.99 264.532 138.828 265.708 138.828 267.15C138.828 268.578 139.99 269.74 141.418 269.74ZM150.156 271.14C149.05 271.14 147.622 270.776 146.726 269.796L147.664 268.9C148.182 269.474 149.19 269.852 150.156 269.852C151.164 269.852 151.864 269.46 151.864 268.788C151.864 267.206 146.992 268.172 146.992 265.316C146.992 264.056 148.14 263.174 149.904 263.174C150.898 263.174 152.158 263.44 152.998 264.448L152.158 265.288C151.626 264.644 150.66 264.406 149.946 264.406C149.022 264.406 148.364 264.742 148.364 265.33C148.364 266.73 153.236 265.862 153.236 268.746C153.236 270.398 151.766 271.14 150.156 271.14ZM157.797 271.126C156.383 271.126 155.207 270.272 155.207 268.13V264.532H154.171V263.3H155.249L155.417 260.78H156.565V263.3H158.413V264.532H156.565V268.116C156.565 269.222 157.111 269.796 157.979 269.796C158.175 269.796 158.385 269.768 158.567 269.698L158.917 270.916C158.595 271.056 158.203 271.126 157.797 271.126ZM161.052 262.516C160.576 262.516 160.184 262.124 160.184 261.648C160.184 261.172 160.576 260.78 161.052 260.78C161.514 260.78 161.906 261.172 161.906 261.648C161.906 262.124 161.514 262.516 161.052 262.516ZM161.724 271H160.366V263.3H161.724V271ZM167.216 271.112C165.032 271.112 163.268 269.32 163.268 267.136C163.268 264.966 165.032 263.202 167.216 263.202C168.546 263.202 169.722 263.86 170.45 264.868L169.316 265.624C168.84 264.994 168.07 264.588 167.216 264.588C165.788 264.588 164.654 265.736 164.654 267.136C164.654 268.564 165.788 269.712 167.216 269.712C168.098 269.712 168.882 269.278 169.344 268.606L170.478 269.362C169.778 270.412 168.574 271.112 167.216 271.112ZM179.119 271H177.761L175.073 263.3H176.529L178.447 268.9L180.309 263.3H181.695L183.571 268.9L185.489 263.3H186.945L184.243 271H182.899L181.009 265.47L179.119 271ZM191.205 271.098C189.133 271.098 187.453 269.32 187.453 267.15C187.453 264.966 189.133 263.188 191.205 263.188C192.465 263.188 193.599 263.944 194.075 264.924L194.145 263.3H195.405V271H194.145L194.075 269.39C193.599 270.356 192.465 271.098 191.205 271.098ZM191.429 269.74C192.871 269.74 194.033 268.578 194.033 267.15C194.033 265.708 192.871 264.532 191.429 264.532C190.001 264.532 188.839 265.708 188.839 267.15C188.839 268.578 190.001 269.74 191.429 269.74ZM200.168 271.14C199.062 271.14 197.634 270.776 196.738 269.796L197.676 268.9C198.194 269.474 199.202 269.852 200.168 269.852C201.176 269.852 201.876 269.46 201.876 268.788C201.876 267.206 197.004 268.172 197.004 265.316C197.004 264.056 198.152 263.174 199.916 263.174C200.91 263.174 202.17 263.44 203.01 264.448L202.17 265.288C201.638 264.644 200.672 264.406 199.958 264.406C199.034 264.406 198.376 264.742 198.376 265.33C198.376 266.73 203.248 265.862 203.248 268.746C203.248 270.398 201.778 271.14 200.168 271.14ZM207.808 271.126C206.394 271.126 205.218 270.272 205.218 268.13V264.532H204.182V263.3H205.26L205.428 260.78H206.576V263.3H208.424V264.532H206.576V268.116C206.576 269.222 207.122 269.796 207.99 269.796C208.186 269.796 208.396 269.768 208.578 269.698L208.928 270.916C208.606 271.056 208.214 271.126 207.808 271.126ZM213.608 271.112C211.27 271.112 209.52 269.32 209.52 267.136C209.52 264.966 211.27 263.202 213.426 263.202C215.666 263.202 217.332 264.966 217.332 267.136C217.332 267.318 217.304 267.584 217.29 267.78H210.99C211.2 268.942 212.278 269.824 213.608 269.824C214.56 269.824 215.316 269.432 215.806 268.83L216.912 269.516C216.184 270.482 214.91 271.112 213.608 271.112ZM210.976 266.66H215.918C215.848 265.47 214.854 264.476 213.44 264.476C212.082 264.476 211.06 265.47 210.976 266.66Z" fill="black"/>
</svg>
