<svg width="239" height="279" viewBox="0 0 239 279" fill="none" xmlns="http://www.w3.org/2000/svg">
<path d="M48.239 44.8611H42.0398C41.9555 44.8611 41.8719 44.8444 41.7939 44.8118C41.716 44.7792 41.6452 44.7313 41.5855 44.671C41.5258 44.6106 41.4785 44.539 41.4462 44.4602C41.414 44.3814 41.3974 44.2969 41.3975 44.2115V32.6628C41.3974 32.5775 41.414 32.493 41.4462 32.4141C41.4785 32.3353 41.5258 32.2637 41.5855 32.2034C41.6452 32.1431 41.716 32.0952 41.7939 32.0626C41.8719 32.0299 41.9555 32.0132 42.0398 32.0132H48.239C48.3233 32.0132 48.4069 32.0299 48.4849 32.0626C48.5628 32.0952 48.6337 32.1431 48.6933 32.2034C48.753 32.2637 48.8003 32.3353 48.8326 32.4141C48.8648 32.493 48.8814 32.5775 48.8813 32.6628V44.2115C48.8814 44.2969 48.8648 44.3814 48.8326 44.4602C48.8003 44.539 48.753 44.6106 48.6933 44.671C48.6337 44.7313 48.5628 44.7792 48.4849 44.8118C48.4069 44.8444 48.3233 44.8611 48.239 44.8611ZM42.6822 43.562H47.5966V33.3124H42.6822V43.562Z" fill="black"/>
<path d="M58.8132 44.8611H52.6141C52.5297 44.8611 52.4461 44.8444 52.3681 44.8118C52.2902 44.7792 52.2194 44.7313 52.1597 44.671C52.1001 44.6106 52.0527 44.539 52.0205 44.4602C51.9882 44.3814 51.9716 44.2969 51.9717 44.2115V27.7492C51.9716 27.6639 51.9882 27.5794 52.0205 27.5006C52.0527 27.4217 52.1001 27.3501 52.1597 27.2898C52.2194 27.2295 52.2902 27.1816 52.3681 27.149C52.4461 27.1164 52.5297 27.0996 52.6141 27.0997H58.8132C58.8976 27.0996 58.9811 27.1164 59.0591 27.149C59.1371 27.1816 59.2079 27.2295 59.2675 27.2898C59.3272 27.3501 59.3745 27.4217 59.4068 27.5006C59.4391 27.5794 59.4556 27.6639 59.4556 27.7492V44.2115C59.4556 44.2969 59.4391 44.3814 59.4068 44.4602C59.3745 44.539 59.3272 44.6106 59.2675 44.671C59.2079 44.7313 59.1371 44.7792 59.0591 44.8118C58.9811 44.8444 58.8976 44.8611 58.8132 44.8611ZM53.2564 43.562H58.1708V28.3988H53.2564V43.562Z" fill="black"/>
<path d="M69.3877 44.8611H63.1873C63.1029 44.8611 63.0193 44.8444 62.9414 44.8118C62.8634 44.7791 62.7926 44.7313 62.733 44.6709C62.6733 44.6106 62.626 44.539 62.5937 44.4602C62.5614 44.3814 62.5449 44.2968 62.5449 44.2115V21.1991C62.5449 21.1137 62.5614 21.0292 62.5937 20.9504C62.626 20.8716 62.6733 20.8 62.733 20.7396C62.7926 20.6793 62.8634 20.6314 62.9414 20.5988C63.0193 20.5662 63.1029 20.5495 63.1873 20.5495H69.3877C69.4721 20.5495 69.5556 20.5662 69.6336 20.5988C69.7116 20.6314 69.7824 20.6793 69.842 20.7396C69.9017 20.8 69.949 20.8716 69.9813 20.9504C70.0136 21.0292 70.0301 21.1137 70.0301 21.1991V44.2115C70.0301 44.2968 70.0136 44.3814 69.9813 44.4602C69.949 44.539 69.9017 44.6106 69.842 44.6709C69.7824 44.7313 69.7116 44.7791 69.6336 44.8118C69.5556 44.8444 69.4721 44.8611 69.3877 44.8611ZM63.8297 43.562H68.7453V21.8486H63.8297V43.562Z" fill="black"/>
<path d="M79.9609 44.8611H73.7605C73.6762 44.8612 73.5926 44.8444 73.5146 44.8118C73.4367 44.7792 73.3659 44.7313 73.3062 44.671C73.2465 44.6106 73.1992 44.539 73.1669 44.4602C73.1347 44.3814 73.1181 44.2969 73.1182 44.2116V14.6496C73.1181 14.5642 73.1347 14.4797 73.1669 14.4009C73.1992 14.3221 73.2465 14.2505 73.3062 14.1901C73.3659 14.1298 73.4367 14.0819 73.5146 14.0493C73.5926 14.0167 73.6762 14 73.7605 14H79.9609C80.0453 14 80.1289 14.0167 80.2068 14.0493C80.2848 14.0819 80.3556 14.1298 80.4153 14.1901C80.4749 14.2505 80.5223 14.3221 80.5545 14.4009C80.5868 14.4797 80.6034 14.5642 80.6033 14.6496V44.2116C80.6034 44.2969 80.5868 44.3814 80.5545 44.4602C80.5223 44.539 80.4749 44.6106 80.4153 44.671C80.3556 44.7313 80.2848 44.7792 80.2068 44.8118C80.1289 44.8444 80.0453 44.8612 79.9609 44.8611ZM74.4029 43.562H79.3186V15.2991H74.4029V43.562Z" fill="black"/>
<path d="M82.3576 44.8611H39.6424C39.472 44.8611 39.3087 44.7927 39.1882 44.6709C39.0677 44.5491 39 44.3838 39 44.2116C39 44.0393 39.0677 43.874 39.1882 43.7522C39.3087 43.6304 39.472 43.562 39.6424 43.562H82.3576C82.528 43.562 82.6913 43.6304 82.8118 43.7522C82.9323 43.874 83 44.0393 83 44.2116C83 44.3838 82.9323 44.5491 82.8118 44.6709C82.6913 44.7927 82.528 44.8611 82.3576 44.8611Z" fill="black"/>
<path d="M60.9996 53.3505C65.991 53.3505 70.0373 49.2589 70.0373 44.2117C70.0373 39.1644 65.991 35.0728 60.9996 35.0728C56.0082 35.0728 51.9619 39.1644 51.9619 44.2117C51.9619 49.2589 56.0082 53.3505 60.9996 53.3505Z" fill="#FFE1D0"/>
<path d="M60.9999 54C59.0854 53.9999 57.2139 53.4257 55.6221 52.35C54.0302 51.2744 52.7896 49.7456 52.057 47.957C51.3244 46.1684 51.1328 44.2003 51.5064 42.3016C51.88 40.4028 52.802 38.6587 54.1559 37.2898C55.5097 35.921 57.2344 34.9888 59.1121 34.6111C60.9899 34.2335 62.9362 34.4274 64.705 35.1683C66.4737 35.9092 67.9857 37.1638 69.0493 38.7735C70.1129 40.3832 70.6806 42.2756 70.6806 44.2116C70.6778 46.8069 69.6569 49.295 67.842 51.1301C66.0271 52.9652 63.5665 53.9974 60.9999 54ZM60.9999 35.7222C59.3395 35.7224 57.7163 36.2203 56.3358 37.1532C54.9553 38.0861 53.8792 39.4121 53.2439 40.9633C52.6086 42.5145 52.4425 44.2214 52.7665 45.8681C53.0905 47.5149 53.8901 49.0275 55.0642 50.2147C56.2384 51.4019 57.7344 52.2103 59.3629 52.5378C60.9914 52.8653 62.6793 52.6972 64.2133 52.0547C65.7473 51.4121 67.0585 50.324 67.981 48.9279C68.9034 47.5319 69.3959 45.8906 69.3959 44.2116C69.3933 41.9608 68.5078 39.8029 66.9338 38.2114C65.3598 36.6199 63.2258 35.7247 60.9999 35.7222Z" fill="black"/>
<path d="M58.7544 51.0725C58.607 51.0625 58.4628 51.0249 58.329 50.9615C58.1523 50.8631 58.0143 50.7064 57.9381 50.5176C57.8618 50.3287 57.8519 50.1191 57.91 49.9237L59.2537 45.3933H57.0694C56.9189 45.3933 56.7709 45.3543 56.6395 45.2801C56.5081 45.2059 56.3976 45.0989 56.3186 44.9693C56.2397 44.8398 56.1948 44.6919 56.1883 44.5398C56.1818 44.3877 56.2138 44.2365 56.2815 44.1005L59.0881 38.4245C59.1612 38.2761 59.2738 38.1514 59.4132 38.0642C59.5526 37.977 59.7133 37.9308 59.8773 37.931H63.808C63.9626 37.9309 64.1145 37.972 64.2484 38.0499C64.3824 38.1279 64.4937 38.24 64.5713 38.3752C64.6489 38.5103 64.6901 38.6636 64.6907 38.8199C64.6912 38.9762 64.6512 39.1299 64.5746 39.2656L63.0816 41.9057H64.9309C65.0982 41.9066 65.262 41.9551 65.4033 42.0456C65.5446 42.1361 65.6579 42.265 65.7301 42.4176L65.7351 42.4309C65.8028 42.5844 65.8267 42.7541 65.8038 42.9206C65.781 43.0871 65.7124 43.2437 65.6059 43.3729L59.4268 50.7565C59.3442 50.8554 59.2412 50.9349 59.1251 50.9895C59.009 51.0441 58.8824 51.0724 58.7544 51.0725ZM57.7205 44.0942H60.1169C60.217 44.0941 60.3158 44.1177 60.4053 44.1632C60.4948 44.2086 60.5726 44.2746 60.6324 44.3558C60.6921 44.4371 60.7323 44.5313 60.7495 44.6311C60.7668 44.7308 60.7606 44.8333 60.7317 44.9302L59.6953 48.4242L64.0627 43.2048H61.975C61.8625 43.2048 61.752 43.175 61.6544 43.1183C61.5569 43.0615 61.4759 42.9798 61.4194 42.8814C61.3628 42.783 61.3328 42.6714 61.3323 42.5577C61.3319 42.4439 61.361 42.332 61.4167 42.2331L63.1142 39.2302H60.1257L57.7205 44.0942Z" fill="black"/>
<path d="M40.1303 84H33.6763V73.78H39.9903V75.11H35.1043V78.092H39.7103V79.422H35.1043V82.6H40.1303V84ZM43.1658 84H41.8078V76.3H43.0678L43.1378 77.658C43.5578 76.846 44.3838 76.188 45.5598 76.188C47.3518 76.188 48.7098 77.42 48.7098 80.08V84H47.3378V80.08C47.3378 78.33 46.3858 77.532 45.2518 77.532C44.1318 77.532 43.1658 78.316 43.1658 80.08V84ZM54.1701 84.112C51.8321 84.112 50.0821 82.32 50.0821 80.136C50.0821 77.966 51.8321 76.202 53.9881 76.202C56.2281 76.202 57.8941 77.966 57.8941 80.136C57.8941 80.318 57.8661 80.584 57.8521 80.78H51.5521C51.7621 81.942 52.8401 82.824 54.1701 82.824C55.1221 82.824 55.8781 82.432 56.3681 81.83L57.4741 82.516C56.7461 83.482 55.4721 84.112 54.1701 84.112ZM51.5381 79.66H56.4801C56.4101 78.47 55.4161 77.476 54.0021 77.476C52.6441 77.476 51.6221 78.47 51.5381 79.66ZM60.7889 84H59.4309V76.3H60.6909L60.7749 77.56C61.2229 76.734 62.0909 76.244 63.2249 76.258C63.4209 76.258 63.6169 76.272 63.7989 76.3L63.5189 77.616C63.4349 77.602 63.3369 77.588 63.2529 77.588C61.9509 77.588 60.7889 78.316 60.7889 80.444V84ZM67.9705 87.22C66.6685 87.22 65.4085 86.632 64.6805 85.68L65.7165 84.882C66.2485 85.512 67.1305 85.904 68.0405 85.904C69.5245 85.904 70.8125 85.05 70.8125 83.02V82.432C70.3505 83.37 69.2305 84.098 67.9845 84.098C65.9125 84.098 64.2325 82.32 64.2325 80.15C64.2325 77.966 65.9125 76.188 67.9845 76.188C69.2445 76.188 70.3785 76.944 70.8545 77.924L70.9245 76.3H72.1845V82.796C72.1845 85.778 70.3925 87.22 67.9705 87.22ZM68.2085 82.74C69.6505 82.74 70.8125 81.578 70.8125 80.15C70.8125 78.708 69.6505 77.532 68.2085 77.532C66.7805 77.532 65.6185 78.708 65.6185 80.15C65.6185 81.578 66.7805 82.74 68.2085 82.74ZM74.7708 87.164C74.2108 87.164 73.7908 87.066 73.3568 86.884L73.7628 85.666C74.0008 85.764 74.3928 85.862 74.7148 85.862C75.5828 85.862 76.1428 85.036 76.5908 83.846L73.5108 76.3H74.9808L77.2208 81.998L79.4468 76.3H80.9028L77.9628 84C77.1228 86.212 76.2408 87.164 74.7708 87.164ZM19.4471 104.168C16.5351 104.168 14.1831 101.802 14.1831 98.89C14.1831 95.992 16.5351 93.64 19.4471 93.64C22.3451 93.64 24.6971 95.992 24.6971 98.89C24.6971 101.802 22.3451 104.168 19.4471 104.168ZM19.4471 102.684C21.5191 102.684 23.2271 101.004 23.2271 98.876C23.2271 96.79 21.5191 95.11 19.4471 95.11C17.3611 95.11 15.6531 96.79 15.6531 98.876C15.6531 101.004 17.3611 102.684 19.4471 102.684ZM29.3679 104.112C27.5759 104.112 26.2179 102.866 26.2179 100.206V96.3H27.5899V100.206C27.5899 101.97 28.5419 102.754 29.6759 102.754C30.7959 102.754 31.7619 101.97 31.7619 100.206V96.3H33.1199V104H31.8599L31.7899 102.628C31.3699 103.44 30.5299 104.112 29.3679 104.112ZM38.0623 104.126C36.6483 104.126 35.4723 103.272 35.4723 101.13V97.532H34.4363V96.3H35.5143L35.6823 93.78H36.8303V96.3H38.6783V97.532H36.8303V101.116C36.8303 102.222 37.3763 102.796 38.2443 102.796C38.4403 102.796 38.6503 102.768 38.8323 102.698L39.1823 103.916C38.8603 104.056 38.4683 104.126 38.0623 104.126ZM41.99 104H40.632V93.08H41.99V104ZM47.4813 104.112C45.2973 104.112 43.5333 102.32 43.5333 100.136C43.5333 97.966 45.2973 96.202 47.4813 96.202C49.6513 96.202 51.4293 97.966 51.4293 100.136C51.4293 102.32 49.6513 104.112 47.4813 104.112ZM47.4813 102.712C48.8953 102.712 50.0433 101.564 50.0433 100.136C50.0433 98.736 48.8953 97.588 47.4813 97.588C46.0533 97.588 44.9193 98.736 44.9193 100.136C44.9193 101.564 46.0533 102.712 47.4813 102.712ZM56.4637 104.112C54.2797 104.112 52.5157 102.32 52.5157 100.136C52.5157 97.966 54.2797 96.202 56.4637 96.202C58.6337 96.202 60.4117 97.966 60.4117 100.136C60.4117 102.32 58.6337 104.112 56.4637 104.112ZM56.4637 102.712C57.8777 102.712 59.0257 101.564 59.0257 100.136C59.0257 98.736 57.8777 97.588 56.4637 97.588C55.0357 97.588 53.9017 98.736 53.9017 100.136C53.9017 101.564 55.0357 102.712 56.4637 102.712ZM63.1664 104H61.8644V93.08H63.1664V99.744L66.6104 96.3H68.2344L65.2944 99.366L68.6264 104H67.0164L64.4124 100.388L63.1664 101.592V104ZM80.5066 104H73.9126V93.78H75.3546V102.558H80.5066V104ZM85.2736 104.112C82.9356 104.112 81.1856 102.32 81.1856 100.136C81.1856 97.966 82.9356 96.202 85.0916 96.202C87.3316 96.202 88.9976 97.966 88.9976 100.136C88.9976 100.318 88.9696 100.584 88.9556 100.78H82.6556C82.8656 101.942 83.9436 102.824 85.2736 102.824C86.2256 102.824 86.9816 102.432 87.4716 101.83L88.5776 102.516C87.8496 103.482 86.5756 104.112 85.2736 104.112ZM82.6416 99.66H87.5836C87.5136 98.47 86.5196 97.476 85.1056 97.476C83.7476 97.476 82.7256 98.47 82.6416 99.66ZM93.8244 104.098C91.7524 104.098 90.0724 102.32 90.0724 100.15C90.0724 97.966 91.7524 96.188 93.8244 96.188C95.0844 96.188 96.2184 96.944 96.6944 97.924L96.7644 96.3H98.0244V104H96.7644L96.6944 102.39C96.2184 103.356 95.0844 104.098 93.8244 104.098ZM94.0484 102.74C95.4904 102.74 96.6524 101.578 96.6524 100.15C96.6524 98.708 95.4904 97.532 94.0484 97.532C92.6204 97.532 91.4584 98.708 91.4584 100.15C91.4584 101.578 92.6204 102.74 94.0484 102.74ZM101.381 107.08H100.023V96.3H101.283L101.353 97.896C101.815 96.944 102.949 96.202 104.209 96.202C106.281 96.202 107.961 97.966 107.961 100.136C107.961 102.32 106.281 104.112 104.209 104.112C102.963 104.112 101.843 103.37 101.381 102.418V107.08ZM103.999 102.754C105.427 102.754 106.589 101.578 106.589 100.136C106.589 98.708 105.427 97.546 103.999 97.546C102.543 97.546 101.381 98.708 101.381 100.136C101.381 101.578 102.543 102.754 103.999 102.754ZM41.797 124H40.355V113.78H41.867L45.745 120.36L49.609 113.78H51.135V124H49.693V116.188L46.165 122.194H45.311L41.797 116.188V124ZM56.662 124.112C54.478 124.112 52.714 122.32 52.714 120.136C52.714 117.966 54.478 116.202 56.662 116.202C58.832 116.202 60.61 117.966 60.61 120.136C60.61 122.32 58.832 124.112 56.662 124.112ZM56.662 122.712C58.076 122.712 59.224 121.564 59.224 120.136C59.224 118.736 58.076 117.588 56.662 117.588C55.234 117.588 54.1 118.736 54.1 120.136C54.1 121.564 55.234 122.712 56.662 122.712ZM65.4484 124.098C63.3764 124.098 61.6964 122.32 61.6964 120.15C61.6964 117.966 63.3764 116.188 65.4484 116.188C66.6944 116.188 67.8144 116.916 68.2764 117.882V113.08H69.6484V124H68.3884L68.3184 122.39C67.8424 123.356 66.7084 124.098 65.4484 124.098ZM65.6724 122.74C67.1144 122.74 68.2764 121.578 68.2764 120.15C68.2764 118.708 67.1144 117.532 65.6724 117.532C64.2444 117.532 63.0824 118.708 63.0824 120.15C63.0824 121.578 64.2444 122.74 65.6724 122.74ZM75.2727 124.112C72.9347 124.112 71.1847 122.32 71.1847 120.136C71.1847 117.966 72.9347 116.202 75.0907 116.202C77.3307 116.202 78.9967 117.966 78.9967 120.136C78.9967 120.318 78.9687 120.584 78.9547 120.78H72.6547C72.8647 121.942 73.9427 122.824 75.2727 122.824C76.2247 122.824 76.9807 122.432 77.4707 121.83L78.5767 122.516C77.8487 123.482 76.5747 124.112 75.2727 124.112ZM72.6407 119.66H77.5827C77.5127 118.47 76.5187 117.476 75.1047 117.476C73.7467 117.476 72.7247 118.47 72.6407 119.66ZM81.7957 124H80.4377V113.08H81.7957V124Z" fill="black"/>
<path d="M69.3347 181.534H39.6737C39.5515 181.534 39.4316 181.5 39.3268 181.437C39.2221 181.374 39.1364 181.283 39.079 181.175C39.0216 181.066 38.9946 180.944 39.0009 180.821C39.0071 180.699 39.0464 180.58 39.1145 180.478L50.6111 163.3C50.6729 163.208 50.7562 163.133 50.8536 163.081C50.9511 163.029 51.0598 163.001 51.1702 163.001H80.8299C80.9521 163.001 81.0718 163.035 81.1766 163.098C81.2813 163.161 81.367 163.252 81.4244 163.36C81.4819 163.469 81.509 163.591 81.5027 163.714C81.4965 163.836 81.4571 163.955 81.3889 164.057L69.8937 181.235C69.8319 181.327 69.7487 181.402 69.6513 181.454C69.5538 181.506 69.4451 181.534 69.3347 181.534ZM40.9394 180.179H68.9755L79.5642 164.356H51.5294L40.9394 180.179Z" fill="black"/>
<path d="M92.3263 199.001C92.2379 199.001 92.1502 198.984 92.0685 198.95C91.9867 198.916 91.9125 198.866 91.8499 198.803C91.7873 198.74 91.7377 198.665 91.7039 198.583C91.67 198.501 91.6527 198.413 91.6527 198.324V181.063L80.2706 164.057C80.1716 163.908 80.1355 163.725 80.17 163.549C80.2045 163.374 80.3069 163.219 80.4548 163.118C80.6028 163.018 80.7842 162.981 80.9592 163.015C81.1343 163.049 81.2889 163.152 81.389 163.3L92.8855 180.478C92.9604 180.59 93.0002 180.722 93 180.856V198.324C93 198.413 92.9827 198.501 92.9488 198.583C92.915 198.665 92.8654 198.74 92.8028 198.803C92.7402 198.866 92.666 198.916 92.5842 198.95C92.5025 198.984 92.4148 199.001 92.3263 199.001Z" fill="black"/>
<path d="M39.6736 199.001C39.5852 199.001 39.4975 198.984 39.4158 198.95C39.334 198.916 39.2598 198.866 39.1972 198.803C39.1346 198.74 39.085 198.665 39.0511 198.583C39.0173 198.501 39 198.413 39 198.324V180.856C39 180.677 39.0709 180.504 39.1972 180.377C39.3235 180.25 39.495 180.179 39.6736 180.179C39.8523 180.179 40.0236 180.25 40.1499 180.377C40.2762 180.504 40.3473 180.677 40.3473 180.856V198.324C40.3473 198.413 40.33 198.501 40.2961 198.583C40.2623 198.665 40.2126 198.74 40.1501 198.803C40.0875 198.866 40.0133 198.916 39.9315 198.95C39.8498 198.984 39.7621 199.001 39.6736 199.001Z" fill="black"/>
<path d="M69.3348 199.001C69.2463 199.001 69.1586 198.984 69.0769 198.95C68.9951 198.916 68.9209 198.866 68.8583 198.803C68.7958 198.74 68.7461 198.665 68.7123 198.583C68.6784 198.501 68.6611 198.413 68.6611 198.324V180.856C68.6611 180.677 68.7322 180.504 68.8585 180.377C68.9848 180.25 69.1561 180.179 69.3348 180.179C69.5134 180.179 69.6847 180.25 69.811 180.377C69.9374 180.504 70.0084 180.677 70.0084 180.856V198.324C70.0085 198.413 69.9911 198.501 69.9573 198.583C69.9234 198.665 69.8738 198.74 69.8112 198.803C69.7487 198.866 69.6744 198.916 69.5926 198.95C69.5109 198.984 69.4232 199.001 69.3348 199.001Z" fill="black"/>
<path d="M56.0736 195.302H52.9344C52.8459 195.303 52.7583 195.285 52.6765 195.251C52.5947 195.217 52.5205 195.167 52.4579 195.104C52.3954 195.041 52.3457 194.967 52.3119 194.884C52.2781 194.802 52.2607 194.714 52.2607 194.625V187.429C52.2607 187.34 52.2781 187.252 52.3119 187.17C52.3457 187.088 52.3954 187.013 52.4579 186.95C52.5205 186.887 52.5947 186.837 52.6765 186.803C52.7583 186.769 52.8459 186.752 52.9344 186.752H56.0736C56.1621 186.752 56.2497 186.769 56.3315 186.803C56.4132 186.837 56.4875 186.887 56.5501 186.95C56.6126 187.013 56.6623 187.088 56.6961 187.17C56.7299 187.252 56.7473 187.34 56.7473 187.429V194.625C56.7473 194.714 56.7299 194.802 56.6961 194.884C56.6623 194.967 56.6126 195.041 56.5501 195.104C56.4875 195.167 56.4132 195.217 56.3315 195.251C56.2497 195.285 56.1621 195.303 56.0736 195.302ZM53.608 193.948H55.4V188.107H53.608V193.948Z" fill="black"/>
<path d="M47.8734 195.302H44.7342C44.6457 195.303 44.5581 195.285 44.4763 195.251C44.3946 195.217 44.3203 195.167 44.2577 195.104C44.1952 195.041 44.1455 194.967 44.1117 194.884C44.0779 194.802 44.0605 194.714 44.0605 194.625V187.429C44.0605 187.34 44.0779 187.252 44.1117 187.17C44.1455 187.088 44.1952 187.013 44.2577 186.95C44.3203 186.887 44.3946 186.837 44.4763 186.803C44.5581 186.769 44.6457 186.752 44.7342 186.752H47.8734C47.9619 186.752 48.0495 186.769 48.1313 186.803C48.2131 186.837 48.2873 186.887 48.3499 186.95C48.4124 187.013 48.4621 187.088 48.4959 187.17C48.5297 187.252 48.5471 187.34 48.5471 187.429V194.625C48.5471 194.714 48.5297 194.802 48.4959 194.884C48.4621 194.967 48.4124 195.041 48.3499 195.104C48.2873 195.167 48.2131 195.217 48.1313 195.251C48.0496 195.285 47.9619 195.303 47.8734 195.302ZM45.4078 193.948H47.1998V188.107H45.4078V193.948Z" fill="black"/>
<path d="M64.2728 195.302H61.1336C61.0451 195.303 60.9575 195.285 60.8757 195.251C60.794 195.217 60.7197 195.167 60.6572 195.104C60.5946 195.041 60.5449 194.967 60.5111 194.884C60.4773 194.802 60.4599 194.714 60.46 194.625V187.429C60.4599 187.34 60.4773 187.252 60.5111 187.17C60.5449 187.088 60.5946 187.013 60.6572 186.95C60.7197 186.887 60.794 186.837 60.8757 186.803C60.9575 186.769 61.0451 186.752 61.1336 186.752H64.2728C64.3613 186.752 64.449 186.769 64.5307 186.803C64.6125 186.837 64.6867 186.887 64.7493 186.95C64.8118 187.013 64.8615 187.088 64.8953 187.17C64.9292 187.252 64.9465 187.34 64.9465 187.429V194.625C64.9465 194.714 64.9292 194.802 64.8953 194.884C64.8615 194.967 64.8118 195.041 64.7493 195.104C64.6867 195.167 64.6125 195.217 64.5307 195.251C64.449 195.285 64.3613 195.303 64.2728 195.302ZM61.8072 193.948H63.5992V188.107H61.8072V193.948Z" fill="black"/>
<path d="M82.3996 195.302H79.2605C79.1721 195.303 79.0844 195.285 79.0027 195.251C78.9209 195.217 78.8467 195.167 78.7841 195.104C78.7215 195.041 78.6719 194.967 78.6381 194.884C78.6042 194.802 78.5869 194.714 78.5869 194.625V187.429C78.5869 187.34 78.6042 187.252 78.6381 187.17C78.6719 187.088 78.7215 187.013 78.7841 186.95C78.8467 186.887 78.9209 186.837 79.0027 186.803C79.0844 186.769 79.1721 186.752 79.2605 186.752H82.3996C82.4881 186.752 82.5758 186.769 82.6575 186.803C82.7393 186.837 82.8135 186.887 82.8761 186.95C82.9386 187.013 82.9883 187.088 83.0221 187.17C83.056 187.252 83.0733 187.34 83.0733 187.429V194.625C83.0733 194.714 83.056 194.802 83.0221 194.884C82.9883 194.967 82.9386 195.041 82.8761 195.104C82.8135 195.167 82.7393 195.217 82.6575 195.251C82.5758 195.285 82.4881 195.303 82.3996 195.302ZM79.934 193.948H81.726V188.107H79.9342L79.934 193.948Z" fill="black"/>
<path d="M82.3996 182.889H79.2605C79.1721 182.889 79.0844 182.872 79.0027 182.838C78.9209 182.804 78.8467 182.754 78.7841 182.691C78.7215 182.628 78.6719 182.553 78.6381 182.471C78.6042 182.389 78.5869 182.301 78.5869 182.212V175.015C78.5869 174.926 78.6042 174.838 78.6381 174.756C78.6719 174.674 78.7215 174.599 78.7841 174.536C78.8467 174.473 78.9209 174.423 79.0027 174.389C79.0844 174.355 79.1721 174.338 79.2605 174.338H82.3996C82.4881 174.338 82.5758 174.355 82.6575 174.389C82.7393 174.423 82.8135 174.473 82.8761 174.536C82.9386 174.599 82.9883 174.674 83.0221 174.756C83.056 174.838 83.0733 174.926 83.0733 175.015V182.212C83.0733 182.301 83.056 182.389 83.0221 182.471C82.9883 182.553 82.9386 182.628 82.8761 182.691C82.8135 182.754 82.7393 182.804 82.6575 182.838C82.5758 182.872 82.4881 182.889 82.3996 182.889ZM79.934 181.534H81.726V175.692H79.9342L79.934 181.534Z" fill="black"/>
<path d="M76.9987 170.082H47.3377C47.159 170.082 46.9876 170.011 46.8613 169.884C46.7349 169.757 46.6641 169.584 46.6641 169.405C46.6641 169.225 46.7349 169.053 46.8613 168.926C46.9876 168.799 47.159 168.727 47.3377 168.727H76.9987C77.1774 168.727 77.3486 168.799 77.475 168.926C77.6013 169.053 77.6723 169.225 77.6723 169.405C77.6723 169.584 77.6013 169.757 77.475 169.884C77.3486 170.011 77.1774 170.082 76.9987 170.082Z" fill="black"/>
<path d="M73.1657 175.808H43.5047C43.326 175.808 43.1546 175.736 43.0282 175.609C42.9019 175.482 42.8311 175.31 42.8311 175.13C42.8311 174.951 42.9019 174.778 43.0282 174.651C43.1546 174.524 43.326 174.453 43.5047 174.453H73.1657C73.3443 174.453 73.5156 174.524 73.642 174.651C73.7683 174.778 73.8393 174.951 73.8393 175.13C73.8393 175.31 73.7683 175.482 73.642 175.609C73.5156 175.736 73.3443 175.808 73.1657 175.808Z" fill="black"/>
<path d="M47.0893 181.534C46.967 181.534 46.8471 181.5 46.7422 181.437C46.6374 181.374 46.5515 181.283 46.4941 181.175C46.4366 181.066 46.4096 180.944 46.4159 180.821C46.4223 180.699 46.4618 180.58 46.5301 180.478L58.0266 163.3C58.0759 163.226 58.1392 163.162 58.2129 163.113C58.2867 163.063 58.3696 163.029 58.4567 163.012C58.5437 162.994 58.6333 162.995 58.7203 163.012C58.8073 163.03 58.8899 163.064 58.9635 163.114C59.0372 163.164 59.1002 163.228 59.1492 163.302C59.1982 163.377 59.232 163.46 59.2489 163.548C59.2658 163.635 59.2652 163.725 59.2474 163.813C59.2296 163.9 59.1948 163.983 59.145 164.057L47.6484 181.235C47.5866 181.327 47.5033 181.402 47.4058 181.454C47.3083 181.506 47.1997 181.534 47.0893 181.534Z" fill="black"/>
<path d="M54.5041 181.534C54.3819 181.534 54.2619 181.5 54.1571 181.437C54.0523 181.374 53.9666 181.283 53.9091 181.175C53.8516 181.066 53.8246 180.944 53.831 180.821C53.8373 180.699 53.8766 180.58 53.945 180.478L65.4402 163.3C65.4894 163.226 65.5529 163.162 65.6267 163.113C65.7005 163.063 65.7832 163.029 65.8702 163.012C65.9573 162.994 66.0469 162.995 66.1339 163.012C66.2208 163.03 66.3035 163.064 66.3771 163.114C66.4507 163.164 66.5138 163.228 66.5628 163.302C66.6118 163.377 66.6456 163.46 66.6624 163.548C66.6793 163.635 66.6788 163.725 66.661 163.813C66.6431 163.9 66.6083 163.983 66.5585 164.057L55.0633 181.235C55.0015 181.327 54.9182 181.402 54.8207 181.454C54.7232 181.506 54.6145 181.534 54.5041 181.534Z" fill="black"/>
<path d="M61.9193 181.534C61.7971 181.534 61.6771 181.5 61.5723 181.437C61.4675 181.374 61.3816 181.283 61.3241 181.175C61.2667 181.066 61.2397 180.944 61.246 180.821C61.2524 180.699 61.2918 180.58 61.3602 180.478L72.8554 163.3C72.9555 163.152 73.11 163.049 73.2851 163.015C73.4602 162.981 73.6416 163.018 73.7895 163.118C73.9375 163.219 74.0398 163.374 74.0744 163.549C74.1089 163.725 74.0727 163.908 73.9737 164.057L62.4785 181.235C62.4167 181.327 62.3334 181.402 62.2359 181.454C62.1384 181.506 62.0298 181.534 61.9193 181.534Z" fill="black"/>
<path d="M26.1522 231.154C24.8362 231.154 23.5482 230.706 22.4702 229.544L23.3802 228.62C24.1082 229.348 25.0182 229.81 26.1662 229.824C27.3982 229.824 28.2662 229.236 28.2662 228.214C28.2662 225.736 22.6662 226.842 22.6662 223.286C22.6662 221.774 23.8982 220.612 25.9982 220.612C27.1042 220.612 28.5042 221.06 29.4002 222.264L28.3782 223.062C27.8742 222.362 26.9502 221.956 26.0682 221.942C24.8502 221.928 24.0662 222.502 24.0662 223.272C24.0662 225.512 29.6802 224.448 29.6802 228.144C29.6802 229.992 28.2102 231.168 26.1522 231.154ZM34.2644 231.126C32.8504 231.126 31.6744 230.272 31.6744 228.13V224.532H30.6384V223.3H31.7164L31.8844 220.78H33.0324V223.3H34.8804V224.532H33.0324V228.116C33.0324 229.222 33.5784 229.796 34.4464 229.796C34.6424 229.796 34.8524 229.768 35.0344 229.698L35.3844 230.916C35.0624 231.056 34.6704 231.126 34.2644 231.126ZM39.7068 231.112C37.9148 231.112 36.5568 229.866 36.5568 227.206V223.3H37.9288V227.206C37.9288 228.97 38.8808 229.754 40.0148 229.754C41.1348 229.754 42.1008 228.97 42.1008 227.206V223.3H43.4588V231H42.1988L42.1288 229.628C41.7088 230.44 40.8688 231.112 39.7068 231.112ZM48.7511 231.098C46.6791 231.098 44.9991 229.32 44.9991 227.15C44.9991 224.966 46.6791 223.188 48.7511 223.188C49.9971 223.188 51.1171 223.916 51.5791 224.882V220.08H52.9511V231H51.6911L51.6211 229.39C51.1451 230.356 50.0111 231.098 48.7511 231.098ZM48.9751 229.74C50.4171 229.74 51.5791 228.578 51.5791 227.15C51.5791 225.708 50.4171 224.532 48.9751 224.532C47.5471 224.532 46.3851 225.708 46.3851 227.15C46.3851 228.578 47.5471 229.74 48.9751 229.74ZM55.3597 234.164C54.7997 234.164 54.3797 234.066 53.9457 233.884L54.3517 232.666C54.5897 232.764 54.9817 232.862 55.3037 232.862C56.1717 232.862 56.7317 232.036 57.1797 230.846L54.0997 223.3H55.5697L57.8097 228.998L60.0357 223.3H61.4917L58.5517 231C57.7117 233.212 56.8297 234.164 55.3597 234.164ZM69.9881 231.112C67.8041 231.112 66.0401 229.32 66.0401 227.136C66.0401 224.966 67.8041 223.202 69.9881 223.202C72.1581 223.202 73.9361 224.966 73.9361 227.136C73.9361 229.32 72.1581 231.112 69.9881 231.112ZM69.9881 229.712C71.4021 229.712 72.5501 228.564 72.5501 227.136C72.5501 225.736 71.4021 224.588 69.9881 224.588C68.5601 224.588 67.4261 225.736 67.4261 227.136C67.4261 228.564 68.5601 229.712 69.9881 229.712ZM76.8426 231H75.4846V223.3H76.7446L76.8146 224.658C77.2346 223.846 78.0606 223.188 79.2366 223.188C81.0286 223.188 82.3866 224.42 82.3866 227.08V231H81.0146V227.08C81.0146 225.33 80.0626 224.532 78.9286 224.532C77.8086 224.532 76.8426 225.316 76.8426 227.08V231ZM90.989 231.126C89.575 231.126 88.399 230.272 88.399 228.13V224.532H87.363V223.3H88.441L88.609 220.78H89.757V223.3H91.605V224.532H89.757V228.116C89.757 229.222 90.303 229.796 91.171 229.796C91.367 229.796 91.577 229.768 91.759 229.698L92.109 230.916C91.787 231.056 91.395 231.126 90.989 231.126ZM94.9168 231H93.5588V220.08H94.9168V224.63C95.3368 223.832 96.1628 223.188 97.3108 223.188C99.1028 223.188 100.461 224.42 100.461 227.08V231H99.0888V227.08C99.0888 225.33 98.1368 224.532 97.0028 224.532C95.8828 224.532 94.9168 225.316 94.9168 227.08V231ZM105.921 231.112C103.583 231.112 101.833 229.32 101.833 227.136C101.833 224.966 103.583 223.202 105.739 223.202C107.979 223.202 109.645 224.966 109.645 227.136C109.645 227.318 109.617 227.584 109.603 227.78H103.303C103.513 228.942 104.591 229.824 105.921 229.824C106.873 229.824 107.629 229.432 108.119 228.83L109.225 229.516C108.497 230.482 107.223 231.112 105.921 231.112ZM103.289 226.66H108.231C108.161 225.47 107.167 224.476 105.753 224.476C104.395 224.476 103.373 225.47 103.289 226.66ZM23.6842 242.516C23.2082 242.516 22.8162 242.124 22.8162 241.648C22.8162 241.172 23.2082 240.78 23.6842 240.78C24.1462 240.78 24.5382 241.172 24.5382 241.648C24.5382 242.124 24.1462 242.516 23.6842 242.516ZM24.3562 251H22.9982V243.3H24.3562V251ZM27.7195 251H26.3615V243.3H27.6215L27.6915 244.574C28.0835 243.678 28.9515 243.188 29.7915 243.188C31.0235 243.188 31.8215 243.902 32.1435 244.826C32.4655 243.916 33.2635 243.188 34.3835 243.188C36.0215 243.188 37.2395 244.238 37.2395 246.912V251H35.8675V246.912C35.8675 245.148 35.0835 244.532 34.1735 244.532C33.3195 244.532 32.4795 245.148 32.4795 246.912V251H31.1075V246.912C31.1075 245.148 30.3235 244.532 29.4135 244.532C28.5035 244.532 27.7195 245.316 27.7195 247.08V251ZM40.448 254.08H39.09V243.3H40.35L40.42 244.896C40.882 243.944 42.016 243.202 43.276 243.202C45.348 243.202 47.028 244.966 47.028 247.136C47.028 249.32 45.348 251.112 43.276 251.112C42.03 251.112 40.91 250.37 40.448 249.418V254.08ZM43.066 249.754C44.494 249.754 45.656 248.578 45.656 247.136C45.656 245.708 44.494 244.546 43.066 244.546C41.61 244.546 40.448 245.708 40.448 247.136C40.448 248.578 41.61 249.754 43.066 249.754ZM49.8406 251H48.4826V240.08H49.8406V251ZM55.4719 251.112C53.1339 251.112 51.3839 249.32 51.3839 247.136C51.3839 244.966 53.1339 243.202 55.2899 243.202C57.5299 243.202 59.1959 244.966 59.1959 247.136C59.1959 247.318 59.1679 247.584 59.1539 247.78H52.8539C53.0639 248.942 54.1419 249.824 55.4719 249.824C56.4239 249.824 57.1799 249.432 57.6699 248.83L58.7759 249.516C58.0479 250.482 56.7739 251.112 55.4719 251.112ZM52.8399 246.66H57.7819C57.7119 245.47 56.7179 244.476 55.3039 244.476C53.9459 244.476 52.9239 245.47 52.8399 246.66ZM62.0906 251H60.7326V243.3H61.9926L62.0626 244.574C62.4546 243.678 63.3226 243.188 64.1626 243.188C65.3946 243.188 66.1926 243.902 66.5146 244.826C66.8366 243.916 67.6346 243.188 68.7546 243.188C70.3926 243.188 71.6106 244.238 71.6106 246.912V251H70.2386V246.912C70.2386 245.148 69.4546 244.532 68.5446 244.532C67.6906 244.532 66.8506 245.148 66.8506 246.912V251H65.4786V246.912C65.4786 245.148 64.6946 244.532 63.7846 244.532C62.8746 244.532 62.0906 245.316 62.0906 247.08V251ZM77.0871 251.112C74.7491 251.112 72.9991 249.32 72.9991 247.136C72.9991 244.966 74.7491 243.202 76.9051 243.202C79.1451 243.202 80.8111 244.966 80.8111 247.136C80.8111 247.318 80.7831 247.584 80.7691 247.78H74.4691C74.6791 248.942 75.7571 249.824 77.0871 249.824C78.0391 249.824 78.7951 249.432 79.2851 248.83L80.3911 249.516C79.6631 250.482 78.3891 251.112 77.0871 251.112ZM74.4551 246.66H79.3971C79.3271 245.47 78.3331 244.476 76.9191 244.476C75.5611 244.476 74.5391 245.47 74.4551 246.66ZM83.7058 251H82.3478V243.3H83.6078L83.6778 244.658C84.0978 243.846 84.9238 243.188 86.0998 243.188C87.8918 243.188 89.2498 244.42 89.2498 247.08V251H87.8778V247.08C87.8778 245.33 86.9258 244.532 85.7918 244.532C84.6718 244.532 83.7058 245.316 83.7058 247.08V251ZM93.8464 251.126C92.4324 251.126 91.2564 250.272 91.2564 248.13V244.532H90.2204V243.3H91.2984L91.4664 240.78H92.6144V243.3H94.4624V244.532H92.6144V248.116C92.6144 249.222 93.1604 249.796 94.0284 249.796C94.2244 249.796 94.4344 249.768 94.6164 249.698L94.9664 250.916C94.6444 251.056 94.2524 251.126 93.8464 251.126ZM99.3097 251.098C97.2377 251.098 95.5577 249.32 95.5577 247.15C95.5577 244.966 97.2377 243.188 99.3097 243.188C100.57 243.188 101.704 243.944 102.18 244.924L102.25 243.3H103.51V251H102.25L102.18 249.39C101.704 250.356 100.57 251.098 99.3097 251.098ZM99.5337 249.74C100.976 249.74 102.138 248.578 102.138 247.15C102.138 245.708 100.976 244.532 99.5337 244.532C98.1057 244.532 96.9437 245.708 96.9437 247.15C96.9437 248.578 98.1057 249.74 99.5337 249.74ZM108.448 251.126C107.034 251.126 105.858 250.272 105.858 248.13V244.532H104.822V243.3H105.9L106.068 240.78H107.216V243.3H109.064V244.532H107.216V248.116C107.216 249.222 107.762 249.796 108.63 249.796C108.826 249.796 109.036 249.768 109.218 249.698L109.568 250.916C109.246 251.056 108.854 251.126 108.448 251.126ZM33.3981 262.516C32.9221 262.516 32.5301 262.124 32.5301 261.648C32.5301 261.172 32.9221 260.78 33.3981 260.78C33.8601 260.78 34.2521 261.172 34.2521 261.648C34.2521 262.124 33.8601 262.516 33.3981 262.516ZM34.0701 271H32.7121V263.3H34.0701V271ZM39.5614 271.112C37.3774 271.112 35.6134 269.32 35.6134 267.136C35.6134 264.966 37.3774 263.202 39.5614 263.202C41.7314 263.202 43.5094 264.966 43.5094 267.136C43.5094 269.32 41.7314 271.112 39.5614 271.112ZM39.5614 269.712C40.9754 269.712 42.1234 268.564 42.1234 267.136C42.1234 265.736 40.9754 264.588 39.5614 264.588C38.1334 264.588 36.9994 265.736 36.9994 267.136C36.9994 268.564 38.1334 269.712 39.5614 269.712ZM46.4158 271H45.0578V263.3H46.3178L46.3878 264.658C46.8078 263.846 47.6338 263.188 48.8098 263.188C50.6018 263.188 51.9598 264.42 51.9598 267.08V271H50.5878V267.08C50.5878 265.33 49.6358 264.532 48.5018 264.532C47.3818 264.532 46.4158 265.316 46.4158 267.08V271ZM61.1083 271.112C58.9243 271.112 57.1603 269.32 57.1603 267.136C57.1603 264.966 58.9243 263.202 61.1083 263.202C63.2783 263.202 65.0563 264.966 65.0563 267.136C65.0563 269.32 63.2783 271.112 61.1083 271.112ZM61.1083 269.712C62.5223 269.712 63.6703 268.564 63.6703 267.136C63.6703 265.736 62.5223 264.588 61.1083 264.588C59.6803 264.588 58.5463 265.736 58.5463 267.136C58.5463 268.564 59.6803 269.712 61.1083 269.712ZM68.2567 264.532V271.014L66.8987 270.986V264.532H65.9187V263.3H66.8987V263.006C66.8987 260.682 68.1167 259.87 69.5867 259.87C69.9367 259.87 70.3427 259.94 70.6227 260.038L70.2587 261.256C70.0907 261.228 69.8807 261.186 69.6987 261.186C68.8307 261.186 68.2567 261.62 68.2567 263.006V263.3H70.2447V264.532H68.2567ZM78.8641 271.154C77.5481 271.154 76.2601 270.706 75.1821 269.544L76.0921 268.62C76.8201 269.348 77.7301 269.81 78.8781 269.824C80.1101 269.824 80.9781 269.236 80.9781 268.214C80.9781 265.736 75.3781 266.842 75.3781 263.286C75.3781 261.774 76.6101 260.612 78.7101 260.612C79.8161 260.612 81.2161 261.06 82.1121 262.264L81.0901 263.062C80.5861 262.362 79.6621 261.956 78.7801 261.942C77.5621 261.928 76.7781 262.502 76.7781 263.272C76.7781 265.512 82.3921 264.448 82.3921 268.144C82.3921 269.992 80.9221 271.168 78.8641 271.154ZM85.5089 271H84.0669V260.78H87.9449C90.0169 260.78 91.3889 262.222 91.3889 263.986C91.3889 265.764 90.0169 267.206 87.9449 267.206H85.5089V271ZM85.5089 262.194V265.792H87.9169C89.1489 265.792 89.9049 264.966 89.9049 263.986C89.9049 263.034 89.1489 262.194 87.9169 262.194H85.5089ZM96.1317 271.154C94.8157 271.154 93.5277 270.706 92.4497 269.544L93.3597 268.62C94.0877 269.348 94.9977 269.81 96.1457 269.824C97.3777 269.824 98.2457 269.236 98.2457 268.214C98.2457 265.736 92.6457 266.842 92.6457 263.286C92.6457 261.774 93.8777 260.612 95.9777 260.612C97.0837 260.612 98.4837 261.06 99.3797 262.264L98.3577 263.062C97.8537 262.362 96.9297 261.956 96.0477 261.942C94.8297 261.928 94.0457 262.502 94.0457 263.272C94.0457 265.512 99.6597 264.448 99.6597 268.144C99.6597 269.992 98.1897 271.168 96.1317 271.154Z" fill="black"/>
<path d="M181.541 29.0512L176.753 31.7253L170.364 28.0196L176.749 24.3161L181.549 26.9891C181.661 27.0521 181.788 27.0851 181.917 27.0848C182.085 27.0848 182.249 27.0289 182.382 26.9256C182.515 26.8224 182.61 26.6777 182.653 26.5143C182.695 26.3509 182.682 26.1779 182.617 26.0224C182.551 25.867 182.436 25.7378 182.289 25.6551L182.285 25.6531L178.285 23.425L181.513 21.5524C181.602 21.503 181.679 21.4365 181.741 21.3567C181.803 21.2769 181.849 21.1854 181.876 21.0876C181.903 20.9898 181.91 20.8877 181.897 20.7872C181.884 20.6866 181.851 20.5897 181.8 20.5021C181.75 20.4144 181.682 20.3377 181.602 20.2766C181.521 20.2154 181.429 20.1709 181.332 20.1457C181.234 20.1205 181.132 20.1152 181.032 20.1299C180.932 20.1447 180.837 20.1793 180.75 20.2317L180.753 20.2296L177.528 22.1002L177.601 17.5087V17.4975C177.6 17.2969 177.522 17.1045 177.382 16.9615C177.242 16.8185 177.052 16.7363 176.852 16.7327C176.654 16.7374 176.463 16.8172 176.319 16.956C176.176 17.0949 176.09 17.2827 176.079 17.4822V17.4843L175.991 22.9892L169.6 26.6948V19.2857L174.307 16.4527C174.478 16.3477 174.601 16.1787 174.649 15.9828C174.697 15.7869 174.666 15.58 174.563 15.4071C174.459 15.2342 174.292 15.1094 174.097 15.0599C173.903 15.0105 173.696 15.0404 173.523 15.1432L173.527 15.1412L169.6 17.5036V13.7603C169.6 13.5583 169.519 13.365 169.377 13.2225C169.234 13.08 169.041 13 168.84 13C168.639 13 168.446 13.08 168.304 13.2225C168.161 13.365 168.081 13.5583 168.08 13.7603V17.5027L164.163 15.1392C164.048 15.0696 163.916 15.032 163.782 15.0303C163.647 15.0285 163.515 15.0625 163.398 15.129C163.281 15.1955 163.184 15.292 163.116 15.4087C163.048 15.5253 163.012 15.6579 163.012 15.7929C163.012 15.924 163.046 16.0529 163.11 16.1672C163.174 16.2815 163.266 16.3774 163.377 16.4457L163.38 16.4476L168.08 19.2826V26.6929L161.691 22.9883L161.602 17.4802C161.599 17.2786 161.517 17.0864 161.373 16.9455C161.23 16.8046 161.037 16.7265 160.836 16.7281C160.635 16.7297 160.443 16.8109 160.302 16.9541C160.161 17.0973 160.082 17.2908 160.082 17.4924V17.5036L160.156 22.0973L156.929 20.2266C156.811 20.1554 156.676 20.118 156.539 20.1186C156.371 20.1186 156.207 20.1745 156.074 20.2775C155.941 20.3806 155.846 20.5249 155.803 20.6881C155.761 20.8513 155.773 21.0241 155.838 21.1796C155.904 21.335 156.019 21.4643 156.165 21.5473L156.169 21.5494L159.395 23.4211L155.397 25.6471C155.309 25.6953 155.231 25.7606 155.168 25.8392C155.105 25.9179 155.058 26.0083 155.03 26.1053C155.002 26.2022 154.994 26.3038 155.005 26.4042C155.016 26.5045 155.047 26.6015 155.096 26.6897C155.145 26.7779 155.211 26.8555 155.29 26.918C155.369 26.9805 155.459 27.0265 155.556 27.0536C155.653 27.0807 155.754 27.0883 155.854 27.0758C155.954 27.0634 156.05 27.0311 156.137 26.981L156.133 26.9831L160.931 24.311L167.318 28.0156L160.931 31.7192L156.135 29.0421C155.959 28.9433 155.752 28.9186 155.558 28.9737C155.364 29.0288 155.199 29.159 155.101 29.3358C155.002 29.5126 154.978 29.7214 155.033 29.9163C155.088 30.1112 155.217 30.2762 155.393 30.3751L155.397 30.3771L159.395 32.6113L156.169 34.4829C156.024 34.5671 155.91 34.6971 155.846 34.8526C155.782 35.0081 155.771 35.1805 155.815 35.3431C155.858 35.5056 155.954 35.6493 156.087 35.7517C156.22 35.8541 156.382 35.9095 156.55 35.9095C156.684 35.9092 156.818 35.8735 156.934 35.8057L156.93 35.8077L160.157 33.9361L160.077 38.5246V38.5368C160.077 38.7373 160.155 38.9298 160.294 39.0729C160.434 39.2161 160.624 39.2986 160.824 39.3026H160.837C161.036 39.3024 161.227 39.2238 161.369 39.0837C161.511 38.9436 161.593 38.7531 161.597 38.5531L161.693 33.045L168.079 29.3404V36.7475L163.374 39.5866C163.288 39.6379 163.212 39.706 163.152 39.7869C163.092 39.8678 163.048 39.9598 163.024 40.0577C162.999 40.1556 162.994 40.2574 163.009 40.3572C163.024 40.4571 163.058 40.553 163.11 40.6394C163.162 40.7258 163.231 40.801 163.312 40.8607C163.393 40.9203 163.485 40.9632 163.583 40.9869C163.68 41.0105 163.782 41.0145 163.881 40.9986C163.98 40.9827 164.075 40.9472 164.161 40.8941L164.158 40.8961L168.078 38.5306V42.2749C168.078 42.4775 168.158 42.6718 168.3 42.815C168.443 42.9582 168.636 43.0386 168.838 43.0386C169.04 43.0386 169.233 42.9582 169.376 42.815C169.518 42.6718 169.598 42.4775 169.598 42.2749V38.5327L173.52 40.8921C173.638 40.9638 173.772 41.0014 173.91 41.001C174.076 41.0008 174.238 40.9461 174.37 40.8452C174.502 40.7444 174.597 40.603 174.642 40.4425C174.686 40.2821 174.678 40.1114 174.617 39.9565C174.556 39.8016 174.446 39.6709 174.304 39.5845L174.301 39.5826L169.598 36.7526V29.3404L175.983 33.0429L176.078 38.556C176.082 38.7561 176.164 38.9466 176.306 39.0867C176.448 39.2269 176.639 39.3054 176.838 39.3055H176.852C177.051 39.3016 177.241 39.2195 177.381 39.0767C177.52 38.9339 177.598 38.7418 177.598 38.5418V38.5286L177.518 33.934L180.748 35.8077C180.863 35.8748 180.994 35.9099 181.127 35.9095C181.26 35.9096 181.391 35.8749 181.506 35.8086C181.622 35.7423 181.718 35.6468 181.785 35.5317L181.787 35.5277C181.887 35.3526 181.915 35.1448 181.863 34.9497C181.811 34.7545 181.685 34.5879 181.511 34.4859L181.507 34.4839L178.285 32.6153L182.276 30.3852C182.363 30.3363 182.441 30.2706 182.503 30.1917C182.565 30.1127 182.612 30.0222 182.639 29.9252C182.667 29.8283 182.675 29.7268 182.663 29.6267C182.651 29.5267 182.62 29.4299 182.571 29.342C182.522 29.2541 182.456 29.1768 182.377 29.1146C182.298 29.0524 182.207 29.0064 182.111 28.9794C182.014 28.9523 181.913 28.9448 181.813 28.9571C181.714 28.9695 181.618 29.0015 181.531 29.0512L181.535 29.0492L181.541 29.0512Z" fill="black"/>
<path d="M201.274 38.4368C201.274 38.3448 201.147 29.9915 201.123 29.8203C201.024 29.1411 200.713 29.193 200.518 29.2021C198.749 29.3823 196.962 29.2609 195.232 28.8429C192.023 27.9134 189.883 25.4299 188.785 25.32V25.3096C188.773 25.3096 188.76 25.3142 188.747 25.3148C188.735 25.3142 188.721 25.3096 188.709 25.3096V25.32C187.611 25.4299 185.472 27.9134 182.262 28.8429C180.533 29.2609 178.746 29.3823 176.976 29.2021C176.781 29.1931 176.471 29.1411 176.372 29.8203C176.347 29.9915 176.221 38.3448 176.221 38.4368C176.221 46.522 186.082 54.1162 188.709 54.2554V54.262L188.747 54.2587L188.785 54.262L188.785 54.2554C191.412 54.1162 201.274 46.522 201.274 38.4368Z" fill="#FFE1D0"/>
<path d="M188.786 54.9965C188.747 54.9965 188.709 54.9936 188.671 54.9879C185.629 54.8258 175.489 46.7945 175.489 38.4368C175.489 38.3607 175.614 29.9587 175.648 29.717C175.773 28.8673 176.242 28.4421 176.99 28.4672C178.686 28.6453 180.401 28.5338 182.06 28.1374C183.627 27.6121 185.092 26.8199 186.392 25.7956C187.006 25.2711 187.715 24.8697 188.48 24.6132C188.566 24.583 188.658 24.5705 188.749 24.5767C188.842 24.5711 188.935 24.584 189.023 24.6147C189.784 24.8727 190.491 25.2734 191.104 25.7956C192.403 26.8199 193.869 27.6121 195.435 28.1374C197.047 28.5252 198.712 28.6391 200.362 28.4744C200.542 28.4464 200.726 28.4573 200.902 28.5062C201.078 28.5552 201.242 28.641 201.382 28.7583C201.523 28.8755 201.637 29.0214 201.717 29.1861C201.797 29.3509 201.841 29.5309 201.847 29.7141C201.881 29.9586 202.005 38.3607 202.005 38.4368C202.005 46.689 192.121 54.6243 188.943 54.9793C188.891 54.9909 188.839 54.9966 188.786 54.9965ZM177.094 29.943C177.072 30.4427 176.954 37.9708 176.951 38.4404C176.951 46.223 186.506 53.4019 188.747 53.5223C190.99 53.4019 200.54 46.2252 200.543 38.4397C200.54 37.9779 200.426 30.761 200.398 29.9429C198.599 30.1162 196.784 29.9829 195.03 29.5486C193.305 28.9777 191.691 28.1132 190.258 26.993C190.117 26.7116 189.902 26.475 189.635 26.3096C189.368 26.1442 189.061 26.0567 188.748 26.0567C188.435 26.0567 188.127 26.1442 187.861 26.3096C187.594 26.475 187.379 26.7116 187.238 26.993C185.805 28.1132 184.191 28.9777 182.466 29.5486C180.71 29.9814 178.894 30.1147 177.094 29.943Z" fill="black"/>
<path d="M188.687 45.3912C187.518 45.391 186.376 45.0428 185.404 44.3904C184.432 43.738 183.675 42.8108 183.228 41.7261C182.781 40.6414 182.664 39.4479 182.892 38.2964C183.12 37.1449 183.683 36.0872 184.509 35.2571C185.336 34.427 186.389 33.8617 187.535 33.6327C188.681 33.4037 189.87 33.5213 190.949 33.9706C192.029 34.4199 192.952 35.1808 193.601 36.157C194.251 37.1332 194.597 38.2809 194.597 39.4549C194.595 41.0289 193.972 42.5379 192.864 43.6508C191.756 44.7637 190.254 45.3896 188.687 45.3912ZM188.687 34.9871C187.807 34.9872 186.948 35.2494 186.216 35.7404C185.485 36.2314 184.915 36.9293 184.578 37.7456C184.242 38.562 184.154 39.4603 184.326 40.3269C184.497 41.1936 184.921 41.9896 185.543 42.6143C186.165 43.2391 186.958 43.6645 187.82 43.8369C188.683 44.0092 189.577 43.9207 190.39 43.5825C191.203 43.2443 191.897 42.6716 192.386 41.9369C192.875 41.2022 193.135 40.3385 193.135 39.4549C193.134 38.2701 192.665 37.1344 191.831 36.2967C190.997 35.4591 189.866 34.988 188.687 34.9871Z" fill="black"/>
<path d="M188.144 42.1868C188.048 42.1869 187.953 42.1678 187.864 42.1306C187.775 42.0934 187.694 42.0389 187.626 41.9703L185.802 40.1246C185.733 40.0566 185.678 39.9754 185.64 39.8859C185.602 39.7963 185.582 39.7001 185.582 39.6028C185.582 39.5056 185.601 39.4092 185.638 39.3193C185.675 39.2294 185.729 39.1479 185.798 39.0793C185.866 39.0107 185.948 38.9565 186.037 38.9198C186.127 38.8832 186.223 38.8648 186.32 38.8657C186.417 38.8666 186.512 38.8869 186.601 38.9252C186.69 38.9636 186.771 39.0194 186.838 39.0892L188.08 40.3463L190.48 37.2831C190.539 37.207 190.613 37.1433 190.696 37.0957C190.78 37.0482 190.872 37.0177 190.968 37.0061C191.063 36.9945 191.16 37.002 191.253 37.0281C191.345 37.0541 191.432 37.0983 191.508 37.158C191.583 37.2178 191.646 37.2919 191.693 37.3763C191.74 37.4606 191.77 37.5534 191.781 37.6494C191.792 37.7453 191.785 37.8426 191.758 37.9355C191.732 38.0285 191.687 38.1152 191.628 38.1909L188.718 41.9065C188.655 41.9883 188.574 42.0554 188.483 42.1035C188.391 42.1516 188.29 42.1796 188.187 42.1854L188.144 42.1868Z" fill="black"/>
<path d="M157.772 84.1645C154.86 84.1645 152.508 81.7985 152.508 78.8865C152.508 75.9885 154.86 73.6365 157.772 73.6365C159.438 73.6365 160.936 74.4065 161.902 75.6245L160.712 76.5065C160.012 75.6525 158.948 75.1065 157.772 75.1065C155.686 75.1065 153.978 76.7865 153.978 78.8725C153.978 81.0005 155.686 82.6805 157.772 82.6805C158.976 82.6805 160.054 82.1205 160.74 81.2245L162 82.0085C161.048 83.3105 159.508 84.1645 157.772 84.1645ZM166.857 84.1085C164.673 84.1085 162.909 82.3165 162.909 80.1325C162.909 77.9625 164.673 76.1985 166.857 76.1985C169.027 76.1985 170.805 77.9625 170.805 80.1325C170.805 82.3165 169.027 84.1085 166.857 84.1085ZM166.857 82.7085C168.271 82.7085 169.419 81.5605 169.419 80.1325C169.419 78.7325 168.271 77.5845 166.857 77.5845C165.429 77.5845 164.295 78.7325 164.295 80.1325C164.295 81.5605 165.429 82.7085 166.857 82.7085ZM175.84 84.1085C173.656 84.1085 171.892 82.3165 171.892 80.1325C171.892 77.9625 173.656 76.1985 175.84 76.1985C178.01 76.1985 179.788 77.9625 179.788 80.1325C179.788 82.3165 178.01 84.1085 175.84 84.1085ZM175.84 82.7085C177.254 82.7085 178.402 81.5605 178.402 80.1325C178.402 78.7325 177.254 77.5845 175.84 77.5845C174.412 77.5845 173.278 78.7325 173.278 80.1325C173.278 81.5605 174.412 82.7085 175.84 82.7085ZM182.598 83.9965H181.24V73.0765H182.598V83.9965ZM185.29 75.5125C184.814 75.5125 184.422 75.1205 184.422 74.6445C184.422 74.1685 184.814 73.7765 185.29 73.7765C185.752 73.7765 186.144 74.1685 186.144 74.6445C186.144 75.1205 185.752 75.5125 185.29 75.5125ZM185.962 83.9965H184.604V76.2965H185.962V83.9965ZM189.325 83.9965H187.967V76.2965H189.227L189.297 77.6545C189.717 76.8425 190.543 76.1845 191.719 76.1845C193.511 76.1845 194.869 77.4165 194.869 80.0765V83.9965H193.497V80.0765C193.497 78.3265 192.545 77.5285 191.411 77.5285C190.291 77.5285 189.325 78.3125 189.325 80.0765V83.9965ZM199.979 87.2165C198.677 87.2165 197.417 86.6285 196.689 85.6765L197.725 84.8785C198.257 85.5085 199.139 85.9005 200.049 85.9005C201.533 85.9005 202.821 85.0465 202.821 83.0165V82.4285C202.359 83.3665 201.239 84.0945 199.993 84.0945C197.921 84.0945 196.241 82.3165 196.241 80.1465C196.241 77.9625 197.921 76.1845 199.993 76.1845C201.253 76.1845 202.387 76.9405 202.863 77.9205L202.933 76.2965H204.193V82.7925C204.193 85.7745 202.401 87.2165 199.979 87.2165ZM200.217 82.7365C201.659 82.7365 202.821 81.5745 202.821 80.1465C202.821 78.7045 201.659 77.5285 200.217 77.5285C198.789 77.5285 197.627 78.7045 197.627 80.1465C197.627 81.5745 198.789 82.7365 200.217 82.7365ZM159.285 103.997H156.149V93.7765H159.285C162.463 93.7765 164.661 96.0305 164.661 98.8725C164.661 101.743 162.547 103.997 159.285 103.997ZM157.591 95.1905V102.569H159.285C161.721 102.569 163.163 100.903 163.163 98.8585C163.163 96.8845 161.637 95.1905 159.285 95.1905H157.591ZM169.985 104.109C167.647 104.109 165.897 102.317 165.897 100.133C165.897 97.9625 167.647 96.1985 169.803 96.1985C172.043 96.1985 173.709 97.9625 173.709 100.133C173.709 100.315 173.681 100.581 173.667 100.777H167.367C167.577 101.939 168.655 102.821 169.985 102.821C170.937 102.821 171.693 102.429 172.183 101.827L173.289 102.513C172.561 103.479 171.287 104.109 169.985 104.109ZM167.353 99.6565H172.295C172.225 98.4665 171.231 97.4725 169.817 97.4725C168.459 97.4725 167.437 98.4665 167.353 99.6565ZM178.405 103.997H177.047L174.023 96.2965H175.493L177.733 101.953L179.959 96.2965H181.429L178.405 103.997ZM183.287 95.5125C182.811 95.5125 182.419 95.1205 182.419 94.6445C182.419 94.1685 182.811 93.7765 183.287 93.7765C183.749 93.7765 184.141 94.1685 184.141 94.6445C184.141 95.1205 183.749 95.5125 183.287 95.5125ZM183.959 103.997H182.601V96.2965H183.959V103.997ZM189.45 104.109C187.266 104.109 185.502 102.317 185.502 100.133C185.502 97.9625 187.266 96.1985 189.45 96.1985C190.78 96.1985 191.956 96.8565 192.684 97.8645L191.55 98.6205C191.074 97.9905 190.304 97.5845 189.45 97.5845C188.022 97.5845 186.888 98.7325 186.888 100.133C186.888 101.561 188.022 102.709 189.45 102.709C190.332 102.709 191.116 102.275 191.578 101.603L192.712 102.359C192.012 103.409 190.808 104.109 189.45 104.109ZM197.752 104.109C195.414 104.109 193.664 102.317 193.664 100.133C193.664 97.9625 195.414 96.1985 197.57 96.1985C199.81 96.1985 201.476 97.9625 201.476 100.133C201.476 100.315 201.448 100.581 201.434 100.777H195.134C195.344 101.939 196.422 102.821 197.752 102.821C198.704 102.821 199.46 102.429 199.95 101.827L201.056 102.513C200.328 103.479 199.054 104.109 197.752 104.109ZM195.12 99.6565H200.062C199.992 98.4665 198.998 97.4725 197.584 97.4725C196.226 97.4725 195.204 98.4665 195.12 99.6565ZM160.475 124.151C159.159 124.151 157.871 123.703 156.793 122.541L157.703 121.617C158.431 122.345 159.341 122.807 160.489 122.821C161.721 122.821 162.589 122.233 162.589 121.211C162.589 118.733 156.989 119.839 156.989 116.283C156.989 114.771 158.221 113.609 160.321 113.609C161.427 113.609 162.827 114.057 163.723 115.261L162.701 116.059C162.197 115.359 161.273 114.953 160.391 114.939C159.173 114.925 158.389 115.499 158.389 116.269C158.389 118.509 164.003 117.445 164.003 121.141C164.003 122.989 162.533 124.165 160.475 124.151ZM168.938 124.095C166.866 124.095 165.186 122.317 165.186 120.147C165.186 117.963 166.866 116.185 168.938 116.185C170.198 116.185 171.332 116.941 171.808 117.921L171.878 116.297H173.138V123.997H171.878L171.808 122.387C171.332 123.353 170.198 124.095 168.938 124.095ZM169.162 122.737C170.604 122.737 171.766 121.575 171.766 120.147C171.766 118.705 170.604 117.529 169.162 117.529C167.734 117.529 166.572 118.705 166.572 120.147C166.572 121.575 167.734 122.737 169.162 122.737ZM176.788 117.529V124.011L175.43 123.983V117.529H174.45V116.297H175.43V116.003C175.43 113.679 176.648 112.867 178.118 112.867C178.468 112.867 178.874 112.937 179.154 113.035L178.79 114.253C178.622 114.225 178.412 114.183 178.23 114.183C177.362 114.183 176.788 114.617 176.788 116.003V116.297H178.776V117.529H176.788ZM183.479 124.109C181.141 124.109 179.391 122.317 179.391 120.133C179.391 117.963 181.141 116.199 183.297 116.199C185.537 116.199 187.203 117.963 187.203 120.133C187.203 120.315 187.175 120.581 187.161 120.777H180.861C181.071 121.939 182.149 122.821 183.479 122.821C184.431 122.821 185.187 122.429 185.677 121.827L186.783 122.513C186.055 123.479 184.781 124.109 183.479 124.109ZM180.847 119.657H185.789C185.719 118.467 184.725 117.473 183.311 117.473C181.953 117.473 180.931 118.467 180.847 119.657ZM191.502 124.123C190.088 124.123 188.912 123.269 188.912 121.127V117.529H187.876V116.297H188.954L189.122 113.777H190.27V116.297H192.118V117.529H190.27V121.113C190.27 122.219 190.816 122.793 191.684 122.793C191.88 122.793 192.09 122.765 192.272 122.695L192.622 123.913C192.3 124.053 191.908 124.123 191.502 124.123ZM194.55 127.161C193.99 127.161 193.57 127.063 193.136 126.881L193.542 125.663C193.78 125.761 194.172 125.859 194.494 125.859C195.362 125.859 195.922 125.033 196.37 123.843L193.29 116.297H194.76L197 121.995L199.226 116.297H200.682L197.742 123.997C196.902 126.209 196.02 127.161 194.55 127.161Z" fill="black"/>
</svg>
