<svg width="206" height="165" viewBox="0 0 206 165" fill="none" xmlns="http://www.w3.org/2000/svg">
<path d="M4.464 16.16C2.592 16.16 1.008 15.104 0.4 13.504L2.896 12.592C3.12 13.168 3.792 13.568 4.512 13.568C5.44 13.568 6.208 12.864 6.208 11.92C6.208 10.976 5.456 10.272 4.544 10.272C4 10.272 3.472 10.528 3.168 10.928H0.576L1.04 4.32H8.368V6.736H3.472L3.36 8.416C3.76 8.128 4.4 7.904 4.96 7.904C7.2 7.904 8.832 9.584 8.832 11.984C8.832 14.4 6.864 16.16 4.464 16.16ZM14.0325 16.16C11.6645 16.16 9.7605 14.4 9.7605 11.984C9.7605 11.072 10.0325 10.224 10.5285 9.568L14.1445 4.304H17.2965L14.6405 8.016C16.6245 8.128 18.3365 9.776 18.3365 11.984C18.3365 14.4 16.4005 16.16 14.0325 16.16ZM14.0325 13.568C14.9765 13.568 15.7125 12.864 15.7125 11.984C15.7125 11.104 14.9765 10.416 14.0325 10.416C13.1205 10.416 12.3845 11.104 12.3845 11.984C12.3845 12.864 13.1205 13.568 14.0325 13.568ZM21.8376 9.664C20.2696 9.664 19.1656 8.4 19.1656 6.496C19.1656 4.624 20.2696 3.392 21.8376 3.392C23.4056 3.392 24.4936 4.624 24.4936 6.496C24.4936 8.4 23.4056 9.664 21.8376 9.664ZM22.8616 16H21.1016L27.5656 3.504H29.3256L22.8616 16ZM21.8216 8.128C22.4296 8.128 22.9576 7.696 22.9576 6.496C22.9576 5.36 22.4296 4.928 21.8216 4.928C21.2616 4.928 20.7016 5.36 20.7016 6.496C20.7016 7.696 21.2616 8.128 21.8216 8.128ZM28.6056 16.16C27.0376 16.16 25.9336 14.896 25.9336 12.992C25.9336 11.12 27.0376 9.888 28.6056 9.888C30.1576 9.888 31.2456 11.12 31.2456 12.992C31.2456 14.896 30.1576 16.16 28.6056 16.16ZM28.5896 14.624C29.1816 14.624 29.7096 14.192 29.7096 12.992C29.7096 11.856 29.1816 11.424 28.5896 11.424C28.0136 11.424 27.4696 11.856 27.4696 12.992C27.4696 14.192 28.0136 14.624 28.5896 14.624Z" fill="#F36D20"/>
<path d="M41.3068 11.45H36.1548V10.316H41.3068V11.45ZM51.7547 16.168C48.8427 16.168 46.4907 13.802 46.4907 10.89C46.4907 7.992 48.8427 5.64 51.7547 5.64C53.4207 5.64 54.9187 6.41 55.8847 7.628L54.6947 8.51C53.9947 7.656 52.9307 7.11 51.7547 7.11C49.6687 7.11 47.9607 8.79 47.9607 10.876C47.9607 13.004 49.6687 14.684 51.7547 14.684C52.9587 14.684 54.0367 14.124 54.7227 13.228L55.9827 14.012C55.0307 15.314 53.4907 16.168 51.7547 16.168ZM60.8397 16.112C58.6557 16.112 56.8917 14.32 56.8917 12.136C56.8917 9.966 58.6557 8.202 60.8397 8.202C63.0097 8.202 64.7877 9.966 64.7877 12.136C64.7877 14.32 63.0097 16.112 60.8397 16.112ZM60.8397 14.712C62.2537 14.712 63.4017 13.564 63.4017 12.136C63.4017 10.736 62.2537 9.588 60.8397 9.588C59.4117 9.588 58.2777 10.736 58.2777 12.136C58.2777 13.564 59.4117 14.712 60.8397 14.712ZM67.6941 16H66.3361V8.3H67.5961L67.6661 9.574C68.0581 8.678 68.9261 8.188 69.7661 8.188C70.9981 8.188 71.7961 8.902 72.1181 9.826C72.4401 8.916 73.2381 8.188 74.3581 8.188C75.9961 8.188 77.2141 9.238 77.2141 11.912V16H75.8421V11.912C75.8421 10.148 75.0581 9.532 74.1481 9.532C73.2941 9.532 72.4541 10.148 72.4541 11.912V16H71.0821V11.912C71.0821 10.148 70.2981 9.532 69.3881 9.532C68.4781 9.532 67.6941 10.316 67.6941 12.08V16ZM80.4226 16H79.0646V8.3H80.3246L80.3946 9.574C80.7866 8.678 81.6546 8.188 82.4946 8.188C83.7266 8.188 84.5246 8.902 84.8466 9.826C85.1686 8.916 85.9666 8.188 87.0866 8.188C88.7246 8.188 89.9426 9.238 89.9426 11.912V16H88.5706V11.912C88.5706 10.148 87.7866 9.532 86.8766 9.532C86.0226 9.532 85.1826 10.148 85.1826 11.912V16H83.8106V11.912C83.8106 10.148 83.0266 9.532 82.1166 9.532C81.2066 9.532 80.4226 10.316 80.4226 12.08V16ZM94.7752 16.112C92.9832 16.112 91.6252 14.866 91.6252 12.206V8.3H92.9972V12.206C92.9972 13.97 93.9492 14.754 95.0832 14.754C96.2032 14.754 97.1692 13.97 97.1692 12.206V8.3H98.5272V16H97.2672L97.1972 14.628C96.7772 15.44 95.9372 16.112 94.7752 16.112ZM101.887 16H100.529V8.3H101.789L101.859 9.658C102.279 8.846 103.105 8.188 104.281 8.188C106.073 8.188 107.431 9.42 107.431 12.08V16H106.059V12.08C106.059 10.33 105.107 9.532 103.973 9.532C102.853 9.532 101.887 10.316 101.887 12.08V16ZM109.952 7.516C109.476 7.516 109.084 7.124 109.084 6.648C109.084 6.172 109.476 5.78 109.952 5.78C110.414 5.78 110.806 6.172 110.806 6.648C110.806 7.124 110.414 7.516 109.952 7.516ZM110.624 16H109.266V8.3H110.624V16ZM116.115 16.112C113.931 16.112 112.167 14.32 112.167 12.136C112.167 9.966 113.931 8.202 116.115 8.202C117.445 8.202 118.621 8.86 119.349 9.868L118.215 10.624C117.739 9.994 116.969 9.588 116.115 9.588C114.687 9.588 113.553 10.736 113.553 12.136C113.553 13.564 114.687 14.712 116.115 14.712C116.997 14.712 117.781 14.278 118.243 13.606L119.377 14.362C118.677 15.412 117.473 16.112 116.115 16.112ZM124.081 16.098C122.009 16.098 120.329 14.32 120.329 12.15C120.329 9.966 122.009 8.188 124.081 8.188C125.341 8.188 126.475 8.944 126.951 9.924L127.021 8.3H128.281V16H127.021L126.951 14.39C126.475 15.356 125.341 16.098 124.081 16.098ZM124.305 14.74C125.747 14.74 126.909 13.578 126.909 12.15C126.909 10.708 125.747 9.532 124.305 9.532C122.877 9.532 121.715 10.708 121.715 12.15C121.715 13.578 122.877 14.74 124.305 14.74ZM133.219 16.126C131.805 16.126 130.629 15.272 130.629 13.13V9.532H129.593V8.3H130.671L130.839 5.78H131.987V8.3H133.835V9.532H131.987V13.116C131.987 14.222 132.533 14.796 133.401 14.796C133.597 14.796 133.807 14.768 133.989 14.698L134.339 15.916C134.017 16.056 133.625 16.126 133.219 16.126ZM136.475 7.516C135.999 7.516 135.607 7.124 135.607 6.648C135.607 6.172 135.999 5.78 136.475 5.78C136.937 5.78 137.329 6.172 137.329 6.648C137.329 7.124 136.937 7.516 136.475 7.516ZM137.147 16H135.789V8.3H137.147V16ZM140.511 16H139.153V8.3H140.413L140.483 9.658C140.903 8.846 141.729 8.188 142.905 8.188C144.697 8.188 146.055 9.42 146.055 12.08V16H144.683V12.08C144.683 10.33 143.731 9.532 142.597 9.532C141.477 9.532 140.511 10.316 140.511 12.08V16ZM151.165 19.22C149.863 19.22 148.603 18.632 147.875 17.68L148.911 16.882C149.443 17.512 150.325 17.904 151.235 17.904C152.719 17.904 154.007 17.05 154.007 15.02V14.432C153.545 15.37 152.425 16.098 151.179 16.098C149.107 16.098 147.427 14.32 147.427 12.15C147.427 9.966 149.107 8.188 151.179 8.188C152.439 8.188 153.573 8.944 154.049 9.924L154.119 8.3H155.379V14.796C155.379 17.778 153.587 19.22 151.165 19.22ZM151.403 14.74C152.845 14.74 154.007 13.578 154.007 12.15C154.007 10.708 152.845 9.532 151.403 9.532C149.975 9.532 148.813 10.708 148.813 12.15C148.813 13.578 149.975 14.74 151.403 14.74ZM161.793 19.164C161.233 19.164 160.813 19.066 160.379 18.884L160.785 17.666C161.023 17.764 161.415 17.862 161.737 17.862C162.605 17.862 163.165 17.036 163.613 15.846L160.533 8.3H162.003L164.243 13.998L166.469 8.3H167.925L164.985 16C164.145 18.212 163.263 19.164 161.793 19.164ZM172.197 16.112C170.013 16.112 168.249 14.32 168.249 12.136C168.249 9.966 170.013 8.202 172.197 8.202C174.367 8.202 176.145 9.966 176.145 12.136C176.145 14.32 174.367 16.112 172.197 16.112ZM172.197 14.712C173.611 14.712 174.759 13.564 174.759 12.136C174.759 10.736 173.611 9.588 172.197 9.588C170.769 9.588 169.635 10.736 169.635 12.136C169.635 13.564 170.769 14.712 172.197 14.712ZM180.676 16.112C178.884 16.112 177.526 14.866 177.526 12.206V8.3H178.898V12.206C178.898 13.97 179.85 14.754 180.984 14.754C182.104 14.754 183.07 13.97 183.07 12.206V8.3H184.428V16H183.168L183.098 14.628C182.678 15.44 181.838 16.112 180.676 16.112ZM187.788 16H186.43V8.3H187.69L187.774 9.56C188.222 8.734 189.09 8.244 190.224 8.258C190.42 8.258 190.616 8.272 190.798 8.3L190.518 9.616C190.434 9.602 190.336 9.588 190.252 9.588C188.95 9.588 187.788 10.316 187.788 12.444V16ZM4.326 33.154C3.01 33.154 1.722 32.706 0.644 31.544L1.554 30.62C2.282 31.348 3.192 31.81 4.34 31.824C5.572 31.824 6.44 31.236 6.44 30.214C6.44 27.736 0.84 28.842 0.84 25.286C0.84 23.774 2.072 22.612 4.172 22.612C5.278 22.612 6.678 23.06 7.574 24.264L6.552 25.062C6.048 24.362 5.124 23.956 4.242 23.942C3.024 23.928 2.24 24.502 2.24 25.272C2.24 27.512 7.854 26.448 7.854 30.144C7.854 31.992 6.384 33.168 4.326 33.154ZM12.9842 33.112C10.8002 33.112 9.03623 31.32 9.03623 29.136C9.03623 26.966 10.8002 25.202 12.9842 25.202C14.3142 25.202 15.4902 25.86 16.2182 26.868L15.0842 27.624C14.6082 26.994 13.8382 26.588 12.9842 26.588C11.5562 26.588 10.4222 27.736 10.4222 29.136C10.4222 30.564 11.5562 31.712 12.9842 31.712C13.8662 31.712 14.6502 31.278 15.1122 30.606L16.2462 31.362C15.5462 32.412 14.3422 33.112 12.9842 33.112ZM18.4557 24.516C17.9797 24.516 17.5877 24.124 17.5877 23.648C17.5877 23.172 17.9797 22.78 18.4557 22.78C18.9177 22.78 19.3097 23.172 19.3097 23.648C19.3097 24.124 18.9177 24.516 18.4557 24.516ZM19.1277 33H17.7697V25.3H19.1277V33ZM24.759 33.112C22.421 33.112 20.671 31.32 20.671 29.136C20.671 26.966 22.421 25.202 24.577 25.202C26.817 25.202 28.483 26.966 28.483 29.136C28.483 29.318 28.455 29.584 28.441 29.78H22.141C22.351 30.942 23.429 31.824 24.759 31.824C25.711 31.824 26.467 31.432 26.957 30.83L28.063 31.516C27.335 32.482 26.061 33.112 24.759 33.112ZM22.127 28.66H27.069C26.999 27.47 26.005 26.476 24.591 26.476C23.233 26.476 22.211 27.47 22.127 28.66ZM31.3777 33H30.0197V25.3H31.2797L31.3497 26.658C31.7697 25.846 32.5957 25.188 33.7717 25.188C35.5637 25.188 36.9217 26.42 36.9217 29.08V33H35.5497V29.08C35.5497 27.33 34.5977 26.532 33.4637 26.532C32.3437 26.532 31.3777 27.316 31.3777 29.08V33ZM42.242 33.112C40.058 33.112 38.294 31.32 38.294 29.136C38.294 26.966 40.058 25.202 42.242 25.202C43.572 25.202 44.748 25.86 45.476 26.868L44.342 27.624C43.866 26.994 43.096 26.588 42.242 26.588C40.814 26.588 39.68 27.736 39.68 29.136C39.68 30.564 40.814 31.712 42.242 31.712C43.124 31.712 43.908 31.278 44.37 30.606L45.504 31.362C44.804 32.412 43.6 33.112 42.242 33.112ZM50.5442 33.112C48.2062 33.112 46.4562 31.32 46.4562 29.136C46.4562 26.966 48.2062 25.202 50.3622 25.202C52.6022 25.202 54.2682 26.966 54.2682 29.136C54.2682 29.318 54.2402 29.584 54.2262 29.78H47.9262C48.1362 30.942 49.2142 31.824 50.5442 31.824C51.4962 31.824 52.2522 31.432 52.7422 30.83L53.8482 31.516C53.1202 32.482 51.8462 33.112 50.5442 33.112ZM47.9122 28.66H52.8542C52.7842 27.47 51.7902 26.476 50.3762 26.476C49.0182 26.476 47.9962 27.47 47.9122 28.66ZM62.573 33.126C61.159 33.126 59.983 32.272 59.983 30.13V26.532H58.947V25.3H60.025L60.193 22.78H61.341V25.3H63.189V26.532H61.341V30.116C61.341 31.222 61.887 31.796 62.755 31.796C62.951 31.796 63.161 31.768 63.343 31.698L63.693 32.916C63.371 33.056 62.979 33.126 62.573 33.126ZM68.2323 33.112C66.0483 33.112 64.2843 31.32 64.2843 29.136C64.2843 26.966 66.0483 25.202 68.2323 25.202C70.4023 25.202 72.1803 26.966 72.1803 29.136C72.1803 31.32 70.4023 33.112 68.2323 33.112ZM68.2323 31.712C69.6463 31.712 70.7943 30.564 70.7943 29.136C70.7943 27.736 69.6463 26.588 68.2323 26.588C66.8043 26.588 65.6703 27.736 65.6703 29.136C65.6703 30.564 66.8043 31.712 68.2323 31.712ZM80.4968 33.126C79.0828 33.126 77.9068 32.272 77.9068 30.13V26.532H76.8708V25.3H77.9488L78.1168 22.78H79.2648V25.3H81.1128V26.532H79.2648V30.116C79.2648 31.222 79.8108 31.796 80.6788 31.796C80.8748 31.796 81.0848 31.768 81.2668 31.698L81.6168 32.916C81.2948 33.056 80.9028 33.126 80.4968 33.126ZM84.4246 33H83.0666V22.08H84.4246V26.63C84.8446 25.832 85.6706 25.188 86.8186 25.188C88.6106 25.188 89.9686 26.42 89.9686 29.08V33H88.5966V29.08C88.5966 27.33 87.6446 26.532 86.5106 26.532C85.3906 26.532 84.4246 27.316 84.4246 29.08V33ZM95.4289 33.112C93.0909 33.112 91.3409 31.32 91.3409 29.136C91.3409 26.966 93.0909 25.202 95.2469 25.202C97.4869 25.202 99.1529 26.966 99.1529 29.136C99.1529 29.318 99.1249 29.584 99.1109 29.78H92.8109C93.0209 30.942 94.0989 31.824 95.4289 31.824C96.3809 31.824 97.1369 31.432 97.6269 30.83L98.7329 31.516C98.0049 32.482 96.7309 33.112 95.4289 33.112ZM92.7969 28.66H97.7389C97.6689 27.47 96.6749 26.476 95.2609 26.476C93.9029 26.476 92.8809 27.47 92.7969 28.66ZM106.1 33H104.658V22.78H108.536C110.608 22.78 111.98 24.222 111.98 25.986C111.98 27.764 110.608 29.206 108.536 29.206H106.1V33ZM106.1 24.194V27.792H108.508C109.74 27.792 110.496 26.966 110.496 25.986C110.496 25.034 109.74 24.194 108.508 24.194H106.1ZM116.441 33.112C114.649 33.112 113.291 31.866 113.291 29.206V25.3H114.663V29.206C114.663 30.97 115.615 31.754 116.749 31.754C117.869 31.754 118.835 30.97 118.835 29.206V25.3H120.193V33H118.933L118.863 31.628C118.443 32.44 117.603 33.112 116.441 33.112ZM126.382 33.098C125.122 33.098 123.988 32.356 123.526 31.39L123.456 33H122.196V22.08H123.554V26.882C124.016 25.916 125.136 25.188 126.382 25.188C128.454 25.188 130.134 26.966 130.134 29.15C130.134 31.32 128.454 33.098 126.382 33.098ZM126.172 31.74C127.6 31.74 128.762 30.578 128.762 29.15C128.762 27.708 127.6 26.532 126.172 26.532C124.716 26.532 123.554 27.708 123.554 29.15C123.554 30.578 124.716 31.74 126.172 31.74ZM132.946 33H131.588V22.08H132.946V33ZM135.637 24.516C135.161 24.516 134.769 24.124 134.769 23.648C134.769 23.172 135.161 22.78 135.637 22.78C136.099 22.78 136.491 23.172 136.491 23.648C136.491 24.124 136.099 24.516 135.637 24.516ZM136.309 33H134.951V25.3H136.309V33ZM141.801 33.112C139.617 33.112 137.853 31.32 137.853 29.136C137.853 26.966 139.617 25.202 141.801 25.202C143.131 25.202 144.307 25.86 145.035 26.868L143.901 27.624C143.425 26.994 142.655 26.588 141.801 26.588C140.373 26.588 139.239 27.736 139.239 29.136C139.239 30.564 140.373 31.712 141.801 31.712C142.683 31.712 143.467 31.278 143.929 30.606L145.063 31.362C144.363 32.412 143.159 33.112 141.801 33.112Z" fill="black"/>
<path d="M4.56 59.224C2.576 59.224 0.928 58.216 0.256 56.664L2.56 55.608C2.848 56.168 3.648 56.632 4.496 56.632C5.504 56.632 6.16 56.072 6.16 55.304C6.16 54.408 5.36 53.96 4.256 53.96H3.6V51.56H4.304C5.008 51.56 5.728 51.256 5.728 50.552C5.728 49.96 5.168 49.592 4.448 49.592C3.904 49.592 3.424 49.816 3.184 50.136L0.784 49.224C1.344 47.96 2.88 47.064 4.48 47.064C6.496 47.064 8.336 48.088 8.336 50.36C8.336 51.352 7.792 52.152 6.992 52.68C8.032 53.256 8.752 54.216 8.752 55.512C8.752 57.784 6.96 59.224 4.56 59.224ZM17.5663 59H14.9743V56.6H9.71025V54.328L14.4143 47.32H17.5663V54.056H18.5263V56.6H17.5663V59ZM14.9743 50.792L12.6063 54.056H14.9743V50.792ZM21.8064 52.664C20.2384 52.664 19.1344 51.4 19.1344 49.496C19.1344 47.624 20.2384 46.392 21.8064 46.392C23.3744 46.392 24.4624 47.624 24.4624 49.496C24.4624 51.4 23.3744 52.664 21.8064 52.664ZM22.8304 59H21.0704L27.5344 46.504H29.2944L22.8304 59ZM21.7904 51.128C22.3984 51.128 22.9264 50.696 22.9264 49.496C22.9264 48.36 22.3984 47.928 21.7904 47.928C21.2304 47.928 20.6704 48.36 20.6704 49.496C20.6704 50.696 21.2304 51.128 21.7904 51.128ZM28.5744 59.16C27.0064 59.16 25.9024 57.896 25.9024 55.992C25.9024 54.12 27.0064 52.888 28.5744 52.888C30.1264 52.888 31.2144 54.12 31.2144 55.992C31.2144 57.896 30.1264 59.16 28.5744 59.16ZM28.5584 57.624C29.1504 57.624 29.6784 57.192 29.6784 55.992C29.6784 54.856 29.1504 54.424 28.5584 54.424C27.9824 54.424 27.4384 54.856 27.4384 55.992C27.4384 57.192 27.9824 57.624 28.5584 57.624Z" fill="#F39733"/>
<path d="M41.2755 54.45H36.1235V53.316H41.2755V54.45ZM50.0994 59.154C48.7834 59.154 47.4954 58.706 46.4174 57.544L47.3274 56.62C48.0554 57.348 48.9654 57.81 50.1134 57.824C51.3454 57.824 52.2134 57.236 52.2134 56.214C52.2134 53.736 46.6134 54.842 46.6134 51.286C46.6134 49.774 47.8454 48.612 49.9454 48.612C51.0514 48.612 52.4514 49.06 53.3474 50.264L52.3254 51.062C51.8214 50.362 50.8974 49.956 50.0154 49.942C48.7974 49.928 48.0134 50.502 48.0134 51.272C48.0134 53.512 53.6274 52.448 53.6274 56.144C53.6274 57.992 52.1574 59.168 50.0994 59.154ZM58.7577 59.112C56.5737 59.112 54.8097 57.32 54.8097 55.136C54.8097 52.966 56.5737 51.202 58.7577 51.202C60.0877 51.202 61.2637 51.86 61.9917 52.868L60.8577 53.624C60.3817 52.994 59.6117 52.588 58.7577 52.588C57.3297 52.588 56.1957 53.736 56.1957 55.136C56.1957 56.564 57.3297 57.712 58.7577 57.712C59.6397 57.712 60.4237 57.278 60.8857 56.606L62.0197 57.362C61.3197 58.412 60.1157 59.112 58.7577 59.112ZM66.9198 59.112C64.7358 59.112 62.9718 57.32 62.9718 55.136C62.9718 52.966 64.7358 51.202 66.9198 51.202C69.0898 51.202 70.8678 52.966 70.8678 55.136C70.8678 57.32 69.0898 59.112 66.9198 59.112ZM66.9198 57.712C68.3338 57.712 69.4818 56.564 69.4818 55.136C69.4818 53.736 68.3338 52.588 66.9198 52.588C65.4918 52.588 64.3578 53.736 64.3578 55.136C64.3578 56.564 65.4918 57.712 66.9198 57.712ZM73.6785 62.08H72.3205V51.3H73.5805L73.6505 52.896C74.1125 51.944 75.2465 51.202 76.5065 51.202C78.5785 51.202 80.2585 52.966 80.2585 55.136C80.2585 57.32 78.5785 59.112 76.5065 59.112C75.2605 59.112 74.1405 58.37 73.6785 57.418V62.08ZM76.2965 57.754C77.7245 57.754 78.8865 56.578 78.8865 55.136C78.8865 53.708 77.7245 52.546 76.2965 52.546C74.8405 52.546 73.6785 53.708 73.6785 55.136C73.6785 56.578 74.8405 57.754 76.2965 57.754ZM84.7908 59.112C82.9988 59.112 81.6408 57.866 81.6408 55.206V51.3H83.0128V55.206C83.0128 56.97 83.9648 57.754 85.0988 57.754C86.2188 57.754 87.1848 56.97 87.1848 55.206V51.3H88.5428V59H87.2828L87.2128 57.628C86.7928 58.44 85.9528 59.112 84.7908 59.112ZM93.3097 59.14C92.2037 59.14 90.7757 58.776 89.8797 57.796L90.8177 56.9C91.3357 57.474 92.3437 57.852 93.3097 57.852C94.3177 57.852 95.0177 57.46 95.0177 56.788C95.0177 55.206 90.1457 56.172 90.1457 53.316C90.1457 52.056 91.2937 51.174 93.0577 51.174C94.0517 51.174 95.3117 51.44 96.1517 52.448L95.3117 53.288C94.7797 52.644 93.8137 52.406 93.0997 52.406C92.1757 52.406 91.5177 52.742 91.5177 53.33C91.5177 54.73 96.3897 53.862 96.3897 56.746C96.3897 58.398 94.9197 59.14 93.3097 59.14ZM103.42 59H101.978V48.78H105.856C107.928 48.78 109.3 50.222 109.3 51.986C109.3 53.414 108.362 54.618 106.962 54.954L109.468 59H107.788L105.464 55.206H103.42V59ZM103.42 50.194V53.792H105.828C107.06 53.792 107.816 52.966 107.816 51.986C107.816 51.034 107.06 50.194 105.828 50.194H103.42ZM114.159 59.112C111.821 59.112 110.071 57.32 110.071 55.136C110.071 52.966 111.821 51.202 113.977 51.202C116.217 51.202 117.883 52.966 117.883 55.136C117.883 55.318 117.855 55.584 117.841 55.78H111.541C111.751 56.942 112.829 57.824 114.159 57.824C115.111 57.824 115.867 57.432 116.357 56.83L117.463 57.516C116.735 58.482 115.461 59.112 114.159 59.112ZM111.527 54.66H116.469C116.399 53.47 115.405 52.476 113.991 52.476C112.633 52.476 111.611 53.47 111.527 54.66ZM122.185 59.14C121.079 59.14 119.651 58.776 118.755 57.796L119.693 56.9C120.211 57.474 121.219 57.852 122.185 57.852C123.193 57.852 123.893 57.46 123.893 56.788C123.893 55.206 119.021 56.172 119.021 53.316C119.021 52.056 120.169 51.174 121.933 51.174C122.927 51.174 124.187 51.44 125.027 52.448L124.187 53.288C123.655 52.644 122.689 52.406 121.975 52.406C121.051 52.406 120.393 52.742 120.393 53.33C120.393 54.73 125.265 53.862 125.265 56.746C125.265 58.398 123.795 59.14 122.185 59.14ZM130.279 59.112C127.941 59.112 126.191 57.32 126.191 55.136C126.191 52.966 127.941 51.202 130.097 51.202C132.337 51.202 134.003 52.966 134.003 55.136C134.003 55.318 133.975 55.584 133.961 55.78H127.661C127.871 56.942 128.949 57.824 130.279 57.824C131.231 57.824 131.987 57.432 132.477 56.83L133.583 57.516C132.855 58.482 131.581 59.112 130.279 59.112ZM127.647 54.66H132.589C132.519 53.47 131.525 52.476 130.111 52.476C128.753 52.476 127.731 53.47 127.647 54.66ZM138.829 59.098C136.757 59.098 135.077 57.32 135.077 55.15C135.077 52.966 136.757 51.188 138.829 51.188C140.089 51.188 141.223 51.944 141.699 52.924L141.769 51.3H143.029V59H141.769L141.699 57.39C141.223 58.356 140.089 59.098 138.829 59.098ZM139.053 57.74C140.495 57.74 141.657 56.578 141.657 55.15C141.657 53.708 140.495 52.532 139.053 52.532C137.625 52.532 136.463 53.708 136.463 55.15C136.463 56.578 137.625 57.74 139.053 57.74ZM146.386 59H145.028V51.3H146.288L146.372 52.56C146.82 51.734 147.688 51.244 148.822 51.258C149.018 51.258 149.214 51.272 149.396 51.3L149.116 52.616C149.032 52.602 148.934 52.588 148.85 52.588C147.548 52.588 146.386 53.316 146.386 55.444V59ZM153.777 59.112C151.593 59.112 149.829 57.32 149.829 55.136C149.829 52.966 151.593 51.202 153.777 51.202C155.107 51.202 156.283 51.86 157.011 52.868L155.877 53.624C155.401 52.994 154.631 52.588 153.777 52.588C152.349 52.588 151.215 53.736 151.215 55.136C151.215 56.564 152.349 57.712 153.777 57.712C154.659 57.712 155.443 57.278 155.905 56.606L157.039 57.362C156.339 58.412 155.135 59.112 153.777 59.112ZM159.866 59H158.508V48.08H159.866V52.63C160.286 51.832 161.112 51.188 162.26 51.188C164.052 51.188 165.41 52.42 165.41 55.08V59H164.038V55.08C164.038 53.33 163.086 52.532 161.952 52.532C160.832 52.532 159.866 53.316 159.866 55.08V59ZM2.59 76H1.148V65.78H5.026C7.098 65.78 8.47 67.222 8.47 68.986C8.47 70.764 7.098 72.206 5.026 72.206H2.59V76ZM2.59 67.194V70.792H4.998C6.23 70.792 6.986 69.966 6.986 68.986C6.986 68.034 6.23 67.194 4.998 67.194H2.59ZM11.3074 76H9.94941V68.3H11.2094L11.2934 69.56C11.7414 68.734 12.6094 68.244 13.7434 68.258C13.9394 68.258 14.1354 68.272 14.3174 68.3L14.0374 69.616C13.9534 69.602 13.8554 69.588 13.7714 69.588C12.4694 69.588 11.3074 70.316 11.3074 72.444V76ZM18.6991 76.112C16.5151 76.112 14.7511 74.32 14.7511 72.136C14.7511 69.966 16.5151 68.202 18.6991 68.202C20.8691 68.202 22.6471 69.966 22.6471 72.136C22.6471 74.32 20.8691 76.112 18.6991 76.112ZM18.6991 74.712C20.1131 74.712 21.2611 73.564 21.2611 72.136C21.2611 70.736 20.1131 69.588 18.6991 69.588C17.2711 69.588 16.1371 70.736 16.1371 72.136C16.1371 73.564 17.2711 74.712 18.6991 74.712ZM25.8475 69.532V76.014L24.4895 75.986V69.532H23.5095V68.3H24.4895V68.006C24.4895 65.682 25.7075 64.87 27.1775 64.87C27.4995 64.87 27.8075 64.94 28.0735 65.01L27.6535 66.242C27.5275 66.214 27.3315 66.186 27.2055 66.186C26.4355 66.186 25.8475 66.62 25.8475 68.006V68.3H29.7255V76.014L28.3535 76V69.532H25.8475ZM29.0255 67.516C28.5495 67.516 28.1715 67.124 28.1715 66.648C28.1715 66.172 28.5495 65.78 29.0255 65.78C29.4875 65.78 29.8795 66.172 29.8795 66.648C29.8795 67.124 29.4875 67.516 29.0255 67.516ZM33.073 76H31.715V65.08H33.073V76ZM38.7043 76.112C36.3663 76.112 34.6163 74.32 34.6163 72.136C34.6163 69.966 36.3663 68.202 38.5223 68.202C40.7623 68.202 42.4283 69.966 42.4283 72.136C42.4283 72.318 42.4003 72.584 42.3863 72.78H36.0863C36.2963 73.942 37.3743 74.824 38.7043 74.824C39.6563 74.824 40.4123 74.432 40.9023 73.83L42.0083 74.516C41.2803 75.482 40.0063 76.112 38.7043 76.112ZM36.0723 71.66H41.0143C40.9443 70.47 39.9503 69.476 38.5363 69.476C37.1783 69.476 36.1563 70.47 36.0723 71.66ZM46.7296 76.14C45.6236 76.14 44.1956 75.776 43.2996 74.796L44.2376 73.9C44.7556 74.474 45.7636 74.852 46.7296 74.852C47.7376 74.852 48.4376 74.46 48.4376 73.788C48.4376 72.206 43.5656 73.172 43.5656 70.316C43.5656 69.056 44.7136 68.174 46.4776 68.174C47.4716 68.174 48.7316 68.44 49.5716 69.448L48.7316 70.288C48.1996 69.644 47.2336 69.406 46.5196 69.406C45.5956 69.406 44.9376 69.742 44.9376 70.33C44.9376 71.73 49.8096 70.862 49.8096 73.746C49.8096 75.398 48.3396 76.14 46.7296 76.14Z" fill="black"/>
<path d="M4.928 102.4C2.4 102.4 0.608 100.832 0.608 98.608C0.608 97.376 1.264 96.368 2.256 95.776C1.568 95.248 1.12 94.432 1.12 93.472C1.12 91.52 2.848 90.064 4.96 90.064C7.056 90.064 8.784 91.52 8.784 93.472C8.784 94.432 8.336 95.248 7.632 95.776C8.656 96.384 9.312 97.376 9.312 98.608C9.312 100.832 7.488 102.4 4.928 102.4ZM4.944 94.592C5.664 94.592 6.224 94.112 6.224 93.504C6.224 92.896 5.664 92.432 4.944 92.432C4.24 92.432 3.696 92.896 3.696 93.504C3.696 94.112 4.24 94.592 4.944 94.592ZM4.944 99.888C5.92 99.888 6.656 99.232 6.656 98.432C6.656 97.648 5.888 97.008 4.944 97.008C4.016 97.008 3.248 97.648 3.248 98.432C3.248 99.232 3.984 99.888 4.944 99.888ZM12.9783 95.664C11.4103 95.664 10.3063 94.4 10.3063 92.496C10.3063 90.624 11.4103 89.392 12.9783 89.392C14.5463 89.392 15.6343 90.624 15.6343 92.496C15.6343 94.4 14.5463 95.664 12.9783 95.664ZM14.0023 102H12.2423L18.7063 89.504H20.4663L14.0023 102ZM12.9623 94.128C13.5703 94.128 14.0983 93.696 14.0983 92.496C14.0983 91.36 13.5703 90.928 12.9623 90.928C12.4023 90.928 11.8423 91.36 11.8423 92.496C11.8423 93.696 12.4023 94.128 12.9623 94.128ZM19.7463 102.16C18.1783 102.16 17.0743 100.896 17.0743 98.992C17.0743 97.12 18.1783 95.888 19.7463 95.888C21.2983 95.888 22.3863 97.12 22.3863 98.992C22.3863 100.896 21.2983 102.16 19.7463 102.16ZM19.7303 100.624C20.3223 100.624 20.8503 100.192 20.8503 98.992C20.8503 97.856 20.3223 97.424 19.7303 97.424C19.1543 97.424 18.6103 97.856 18.6103 98.992C18.6103 100.192 19.1543 100.624 19.7303 100.624Z" fill="#003D63"/>
<path d="M32.4474 97.45H27.2954V96.316H32.4474V97.45ZM39.5353 102H38.0933V91.78H41.9713C44.0433 91.78 45.4153 93.222 45.4153 94.986C45.4153 96.764 44.0433 98.206 41.9713 98.206H39.5353V102ZM39.5353 93.194V96.792H41.9433C43.1753 96.792 43.9313 95.966 43.9313 94.986C43.9313 94.034 43.1753 93.194 41.9433 93.194H39.5353ZM49.8767 102.112C48.0847 102.112 46.7267 100.866 46.7267 98.206V94.3H48.0987V98.206C48.0987 99.97 49.0507 100.754 50.1847 100.754C51.3047 100.754 52.2707 99.97 52.2707 98.206V94.3H53.6287V102H52.3687L52.2987 100.628C51.8787 101.44 51.0387 102.112 49.8767 102.112ZM59.817 102.098C58.557 102.098 57.423 101.356 56.961 100.39L56.891 102H55.631V91.08H56.989V95.882C57.451 94.916 58.571 94.188 59.817 94.188C61.889 94.188 63.569 95.966 63.569 98.15C63.569 100.32 61.889 102.098 59.817 102.098ZM59.607 100.74C61.035 100.74 62.197 99.578 62.197 98.15C62.197 96.708 61.035 95.532 59.607 95.532C58.151 95.532 56.989 96.708 56.989 98.15C56.989 99.578 58.151 100.74 59.607 100.74ZM66.3816 102H65.0236V91.08H66.3816V102ZM69.0729 93.516C68.5969 93.516 68.2049 93.124 68.2049 92.648C68.2049 92.172 68.5969 91.78 69.0729 91.78C69.5349 91.78 69.9269 92.172 69.9269 92.648C69.9269 93.124 69.5349 93.516 69.0729 93.516ZM69.7449 102H68.3869V94.3H69.7449V102ZM75.2362 102.112C73.0522 102.112 71.2882 100.32 71.2882 98.136C71.2882 95.966 73.0522 94.202 75.2362 94.202C76.5662 94.202 77.7422 94.86 78.4702 95.868L77.3362 96.624C76.8602 95.994 76.0902 95.588 75.2362 95.588C73.8082 95.588 72.6742 96.736 72.6742 98.136C72.6742 99.564 73.8082 100.712 75.2362 100.712C76.1182 100.712 76.9022 100.278 77.3642 99.606L78.4982 100.362C77.7982 101.412 76.5942 102.112 75.2362 102.112ZM87.7278 102H86.2858V93.166H83.1638V91.78H90.8498V93.166H87.7278V102ZM95.1789 102.098C93.1069 102.098 91.4269 100.32 91.4269 98.15C91.4269 95.966 93.1069 94.188 95.1789 94.188C96.4389 94.188 97.5729 94.944 98.0489 95.924L98.1189 94.3H99.3789V102H98.1189L98.0489 100.39C97.5729 101.356 96.4389 102.098 95.1789 102.098ZM95.4029 100.74C96.8449 100.74 98.0069 99.578 98.0069 98.15C98.0069 96.708 96.8449 95.532 95.4029 95.532C93.9749 95.532 92.8129 96.708 92.8129 98.15C92.8129 99.578 93.9749 100.74 95.4029 100.74ZM102.735 102H101.377V91.08H102.735V102ZM106.042 102H104.74V91.08H106.042V97.744L109.486 94.3H111.11L108.17 97.366L111.502 102H109.892L107.288 98.388L106.042 99.592V102ZM113.395 96.162C112.933 96.162 112.555 95.784 112.555 95.322C112.555 94.846 112.933 94.468 113.395 94.468C113.857 94.468 114.235 94.846 114.235 95.322C114.235 95.784 113.857 96.162 113.395 96.162ZM113.395 101.818C112.933 101.818 112.555 101.44 112.555 100.978C112.555 100.502 112.933 100.124 113.395 100.124C113.857 100.124 114.235 100.502 114.235 100.978C114.235 101.44 113.857 101.818 113.395 101.818ZM124.035 102H119.933V91.78H123.587C125.477 91.78 126.737 92.872 126.737 94.426C126.737 95.364 126.261 96.092 125.505 96.526C126.597 96.89 127.353 97.786 127.353 99.06C127.353 100.754 126.023 102 124.035 102ZM121.375 93.11V96.064L123.643 96.05C124.637 96.036 125.323 95.434 125.323 94.622C125.323 93.796 124.735 93.11 123.559 93.11H121.375ZM121.375 97.338V100.6H123.993C125.169 100.6 125.869 99.914 125.869 98.962C125.869 97.996 125.099 97.338 124.077 97.338H121.375ZM129.598 93.516C129.122 93.516 128.73 93.124 128.73 92.648C128.73 92.172 129.122 91.78 129.598 91.78C130.06 91.78 130.452 92.172 130.452 92.648C130.452 93.124 130.06 93.516 129.598 93.516ZM130.27 102H128.912V94.3H130.27V102ZM135.552 105.22C134.25 105.22 132.99 104.632 132.262 103.68L133.298 102.882C133.83 103.512 134.712 103.904 135.622 103.904C137.106 103.904 138.394 103.05 138.394 101.02V100.432C137.932 101.37 136.812 102.098 135.566 102.098C133.494 102.098 131.814 100.32 131.814 98.15C131.814 95.966 133.494 94.188 135.566 94.188C136.826 94.188 137.96 94.944 138.436 95.924L138.506 94.3H139.766V100.796C139.766 103.778 137.974 105.22 135.552 105.22ZM135.79 100.74C137.232 100.74 138.394 99.578 138.394 98.15C138.394 96.708 137.232 95.532 135.79 95.532C134.362 95.532 133.2 96.708 133.2 98.15C133.2 99.578 134.362 100.74 135.79 100.74ZM148.868 102H145.732V91.78H148.868C152.046 91.78 154.244 94.034 154.244 96.876C154.244 99.746 152.13 102 148.868 102ZM147.174 93.194V100.572H148.868C151.304 100.572 152.746 98.906 152.746 96.862C152.746 94.888 151.22 93.194 148.868 93.194H147.174ZM159.232 102.098C157.16 102.098 155.48 100.32 155.48 98.15C155.48 95.966 157.16 94.188 159.232 94.188C160.492 94.188 161.626 94.944 162.102 95.924L162.172 94.3H163.432V102H162.172L162.102 100.39C161.626 101.356 160.492 102.098 159.232 102.098ZM159.456 100.74C160.898 100.74 162.06 99.578 162.06 98.15C162.06 96.708 160.898 95.532 159.456 95.532C158.028 95.532 156.866 96.708 156.866 98.15C156.866 99.578 158.028 100.74 159.456 100.74ZM168.37 102.126C166.956 102.126 165.78 101.272 165.78 99.13V95.532H164.744V94.3H165.822L165.99 91.78H167.138V94.3H168.986V95.532H167.138V99.116C167.138 100.222 167.684 100.796 168.552 100.796C168.748 100.796 168.958 100.768 169.14 100.698L169.49 101.916C169.168 102.056 168.776 102.126 168.37 102.126ZM173.833 102.098C171.761 102.098 170.081 100.32 170.081 98.15C170.081 95.966 171.761 94.188 173.833 94.188C175.093 94.188 176.227 94.944 176.703 95.924L176.773 94.3H178.033V102H176.773L176.703 100.39C176.227 101.356 175.093 102.098 173.833 102.098ZM174.057 100.74C175.499 100.74 176.661 99.578 176.661 98.15C176.661 96.708 175.499 95.532 174.057 95.532C172.629 95.532 171.467 96.708 171.467 98.15C171.467 99.578 172.629 100.74 174.057 100.74ZM187.472 102.126C185.022 102.126 183.482 100.978 183.482 99.158C183.482 97.8 184.42 97.058 185.54 96.512C185.036 95.896 184.49 95.168 184.49 94.09C184.49 92.564 185.876 91.57 187.528 91.57C189.208 91.57 190.468 92.592 190.468 94.104C190.468 95.63 189.04 96.372 187.654 97.002L190.258 99.718C190.902 99.032 191.07 98.038 190.888 97.212L192.148 96.904C192.4 98.43 192.022 99.788 191.112 100.74L192.246 102H190.51L190.02 101.482C189.348 101.888 188.48 102.126 187.472 102.126ZM186.786 95.966C187.976 95.476 189.124 95.07 189.124 94.132C189.124 93.208 188.228 92.83 187.514 92.83C186.716 92.83 185.876 93.236 185.876 94.132C185.876 94.902 186.366 95.476 186.786 95.966ZM187.472 100.838C188.172 100.838 188.704 100.684 189.124 100.418L186.422 97.59C185.554 97.982 184.84 98.416 184.84 99.186C184.84 100.348 186.058 100.838 187.472 100.838ZM1.806 119H0.21L3.948 108.78H5.516L9.254 119H7.686L6.706 116.34H2.772L1.806 119ZM4.732 110.726L3.192 114.982H6.286L4.732 110.726ZM12.0509 119H10.6089V108.78H12.0509V119ZM18.7018 110.516C18.2258 110.516 17.8338 110.124 17.8338 109.648C17.8338 109.172 18.2258 108.78 18.7018 108.78C19.1638 108.78 19.5558 109.172 19.5558 109.648C19.5558 110.124 19.1638 110.516 18.7018 110.516ZM19.3738 119H18.0158V111.3H19.3738V119ZM22.7371 119H21.3791V111.3H22.6391L22.7091 112.658C23.1291 111.846 23.9551 111.188 25.1311 111.188C26.9231 111.188 28.2811 112.42 28.2811 115.08V119H26.9091V115.08C26.9091 113.33 25.9571 112.532 24.8231 112.532C23.7031 112.532 22.7371 113.316 22.7371 115.08V119ZM37.2615 119.154C35.9455 119.154 34.6575 118.706 33.5795 117.544L34.4895 116.62C35.2175 117.348 36.1275 117.81 37.2755 117.824C38.5075 117.824 39.3755 117.236 39.3755 116.214C39.3755 113.736 33.7755 114.842 33.7755 111.286C33.7755 109.774 35.0075 108.612 37.1075 108.612C38.2135 108.612 39.6135 109.06 40.5095 110.264L39.4875 111.062C38.9835 110.362 38.0595 109.956 37.1775 109.942C35.9595 109.928 35.1755 110.502 35.1755 111.272C35.1755 113.512 40.7895 112.448 40.7895 116.144C40.7895 117.992 39.3195 119.168 37.2615 119.154ZM45.9198 119.112C43.7358 119.112 41.9718 117.32 41.9718 115.136C41.9718 112.966 43.7358 111.202 45.9198 111.202C47.2498 111.202 48.4258 111.86 49.1538 112.868L48.0198 113.624C47.5438 112.994 46.7738 112.588 45.9198 112.588C44.4918 112.588 43.3578 113.736 43.3578 115.136C43.3578 116.564 44.4918 117.712 45.9198 117.712C46.8018 117.712 47.5858 117.278 48.0478 116.606L49.1818 117.362C48.4818 118.412 47.2778 119.112 45.9198 119.112ZM51.3913 110.516C50.9153 110.516 50.5233 110.124 50.5233 109.648C50.5233 109.172 50.9153 108.78 51.3913 108.78C51.8533 108.78 52.2453 109.172 52.2453 109.648C52.2453 110.124 51.8533 110.516 51.3913 110.516ZM52.0633 119H50.7053V111.3H52.0633V119ZM57.6945 119.112C55.3565 119.112 53.6065 117.32 53.6065 115.136C53.6065 112.966 55.3565 111.202 57.5125 111.202C59.7525 111.202 61.4185 112.966 61.4185 115.136C61.4185 115.318 61.3905 115.584 61.3765 115.78H55.0765C55.2865 116.942 56.3645 117.824 57.6945 117.824C58.6465 117.824 59.4025 117.432 59.8925 116.83L60.9985 117.516C60.2705 118.482 58.9965 119.112 57.6945 119.112ZM55.0625 114.66H60.0045C59.9345 113.47 58.9405 112.476 57.5265 112.476C56.1685 112.476 55.1465 113.47 55.0625 114.66ZM64.3133 119H62.9553V111.3H64.2153L64.2853 112.658C64.7053 111.846 65.5313 111.188 66.7073 111.188C68.4993 111.188 69.8573 112.42 69.8573 115.08V119H68.4853V115.08C68.4853 113.33 67.5333 112.532 66.3993 112.532C65.2793 112.532 64.3133 113.316 64.3133 115.08V119ZM74.4539 119.126C73.0399 119.126 71.8639 118.272 71.8639 116.13V112.532H70.8279V111.3H71.9059L72.0739 108.78H73.2219V111.3H75.0699V112.532H73.2219V116.116C73.2219 117.222 73.7679 117.796 74.6359 117.796C74.8319 117.796 75.0419 117.768 75.2239 117.698L75.5739 118.916C75.2519 119.056 74.8599 119.126 74.4539 119.126ZM77.7096 110.516C77.2336 110.516 76.8416 110.124 76.8416 109.648C76.8416 109.172 77.2336 108.78 77.7096 108.78C78.1716 108.78 78.5636 109.172 78.5636 109.648C78.5636 110.124 78.1716 110.516 77.7096 110.516ZM78.3816 119H77.0236V111.3H78.3816V119ZM82.0389 112.532V119.014L80.6809 118.986V112.532H79.7009V111.3H80.6809V111.006C80.6809 108.682 81.8989 107.87 83.3689 107.87C83.6909 107.87 83.9989 107.94 84.2649 108.01L83.8449 109.242C83.7189 109.214 83.5229 109.186 83.3969 109.186C82.6269 109.186 82.0389 109.62 82.0389 111.006V111.3H85.9169V119.014L84.5449 119V112.532H82.0389ZM85.2169 110.516C84.7409 110.516 84.3629 110.124 84.3629 109.648C84.3629 109.172 84.7409 108.78 85.2169 108.78C85.6789 108.78 86.0709 109.172 86.0709 109.648C86.0709 110.124 85.6789 110.516 85.2169 110.516ZM91.3924 119.112C89.2084 119.112 87.4444 117.32 87.4444 115.136C87.4444 112.966 89.2084 111.202 91.3924 111.202C92.7224 111.202 93.8984 111.86 94.6264 112.868L93.4924 113.624C93.0164 112.994 92.2464 112.588 91.3924 112.588C89.9644 112.588 88.8304 113.736 88.8304 115.136C88.8304 116.564 89.9644 117.712 91.3924 117.712C92.2744 117.712 93.0584 117.278 93.5204 116.606L94.6544 117.362C93.9544 118.412 92.7504 119.112 91.3924 119.112ZM101.588 119H100.146V108.78H104.024C106.096 108.78 107.468 110.222 107.468 111.986C107.468 113.414 106.53 114.618 105.13 114.954L107.636 119H105.956L103.632 115.206H101.588V119ZM101.588 110.194V113.792H103.996C105.228 113.792 105.984 112.966 105.984 111.986C105.984 111.034 105.228 110.194 103.996 110.194H101.588ZM112.327 119.112C109.989 119.112 108.239 117.32 108.239 115.136C108.239 112.966 109.989 111.202 112.145 111.202C114.385 111.202 116.051 112.966 116.051 115.136C116.051 115.318 116.023 115.584 116.009 115.78H109.709C109.919 116.942 110.997 117.824 112.327 117.824C113.279 117.824 114.035 117.432 114.525 116.83L115.631 117.516C114.903 118.482 113.629 119.112 112.327 119.112ZM109.695 114.66H114.637C114.567 113.47 113.573 112.476 112.159 112.476C110.801 112.476 109.779 113.47 109.695 114.66ZM120.353 119.14C119.247 119.14 117.819 118.776 116.923 117.796L117.861 116.9C118.379 117.474 119.387 117.852 120.353 117.852C121.361 117.852 122.061 117.46 122.061 116.788C122.061 115.206 117.189 116.172 117.189 113.316C117.189 112.056 118.337 111.174 120.101 111.174C121.095 111.174 122.355 111.44 123.195 112.448L122.355 113.288C121.823 112.644 120.857 112.406 120.143 112.406C119.219 112.406 118.561 112.742 118.561 113.33C118.561 114.73 123.433 113.862 123.433 116.746C123.433 118.398 121.963 119.14 120.353 119.14ZM128.447 119.112C126.109 119.112 124.359 117.32 124.359 115.136C124.359 112.966 126.109 111.202 128.265 111.202C130.505 111.202 132.171 112.966 132.171 115.136C132.171 115.318 132.143 115.584 132.129 115.78H125.829C126.039 116.942 127.117 117.824 128.447 117.824C129.399 117.824 130.155 117.432 130.645 116.83L131.751 117.516C131.023 118.482 129.749 119.112 128.447 119.112ZM125.815 114.66H130.757C130.687 113.47 129.693 112.476 128.279 112.476C126.921 112.476 125.899 113.47 125.815 114.66ZM136.997 119.098C134.925 119.098 133.245 117.32 133.245 115.15C133.245 112.966 134.925 111.188 136.997 111.188C138.257 111.188 139.391 111.944 139.867 112.924L139.937 111.3H141.197V119H139.937L139.867 117.39C139.391 118.356 138.257 119.098 136.997 119.098ZM137.221 117.74C138.663 117.74 139.825 116.578 139.825 115.15C139.825 113.708 138.663 112.532 137.221 112.532C135.793 112.532 134.631 113.708 134.631 115.15C134.631 116.578 135.793 117.74 137.221 117.74ZM144.554 119H143.196V111.3H144.456L144.54 112.56C144.988 111.734 145.856 111.244 146.99 111.258C147.186 111.258 147.382 111.272 147.564 111.3L147.284 112.616C147.2 112.602 147.102 112.588 147.018 112.588C145.716 112.588 144.554 113.316 144.554 115.444V119ZM151.945 119.112C149.761 119.112 147.997 117.32 147.997 115.136C147.997 112.966 149.761 111.202 151.945 111.202C153.275 111.202 154.451 111.86 155.179 112.868L154.045 113.624C153.569 112.994 152.799 112.588 151.945 112.588C150.517 112.588 149.383 113.736 149.383 115.136C149.383 116.564 150.517 117.712 151.945 117.712C152.827 117.712 153.611 117.278 154.073 116.606L155.207 117.362C154.507 118.412 153.303 119.112 151.945 119.112ZM158.034 119H156.676V108.08H158.034V112.63C158.454 111.832 159.28 111.188 160.428 111.188C162.22 111.188 163.578 112.42 163.578 115.08V119H162.206V115.08C162.206 113.33 161.254 112.532 160.12 112.532C159 112.532 158.034 113.316 158.034 115.08V119Z" fill="black"/>
<path d="M8.816 145H0.32V143.416L4.64 139.336C5.376 138.664 5.952 137.992 5.952 137.208C5.952 136.28 5.28 135.688 4.432 135.688C3.632 135.688 3.072 136.248 2.816 136.808L0.432 135.992C0.896 134.344 2.528 133.096 4.416 133.096C6.704 133.096 8.544 134.664 8.544 137.224C8.544 138.696 7.488 139.928 6.4 140.968L4.496 142.584H8.816V145ZM12.5408 138.664C10.9728 138.664 9.86875 137.4 9.86875 135.496C9.86875 133.624 10.9728 132.392 12.5408 132.392C14.1088 132.392 15.1968 133.624 15.1968 135.496C15.1968 137.4 14.1088 138.664 12.5408 138.664ZM13.5648 145H11.8048L18.2688 132.504H20.0288L13.5648 145ZM12.5248 137.128C13.1328 137.128 13.6608 136.696 13.6608 135.496C13.6608 134.36 13.1328 133.928 12.5248 133.928C11.9648 133.928 11.4048 134.36 11.4048 135.496C11.4048 136.696 11.9648 137.128 12.5248 137.128ZM19.3088 145.16C17.7408 145.16 16.6368 143.896 16.6368 141.992C16.6368 140.12 17.7408 138.888 19.3088 138.888C20.8608 138.888 21.9488 140.12 21.9488 141.992C21.9488 143.896 20.8608 145.16 19.3088 145.16ZM19.2928 143.624C19.8848 143.624 20.4128 143.192 20.4128 141.992C20.4128 140.856 19.8848 140.424 19.2928 140.424C18.7168 140.424 18.1728 140.856 18.1728 141.992C18.1728 143.192 18.7168 143.624 19.2928 143.624Z" fill="#3F91BA"/>
<path d="M31.8868 140.45H26.7348V139.316H31.8868V140.45ZM38.9748 145H37.5328V134.78H41.4108C43.4828 134.78 44.8548 136.222 44.8548 137.986C44.8548 139.414 43.9168 140.618 42.5168 140.954L45.0228 145H43.3428L41.0188 141.206H38.9748V145ZM38.9748 136.194V139.792H41.3828C42.6148 139.792 43.3708 138.966 43.3708 137.986C43.3708 137.034 42.6148 136.194 41.3828 136.194H38.9748ZM49.7141 145.112C47.3761 145.112 45.6261 143.32 45.6261 141.136C45.6261 138.966 47.3761 137.202 49.5321 137.202C51.7721 137.202 53.4381 138.966 53.4381 141.136C53.4381 141.318 53.4101 141.584 53.3961 141.78H47.0961C47.3061 142.942 48.3841 143.824 49.7141 143.824C50.6661 143.824 51.4221 143.432 51.9121 142.83L53.0181 143.516C52.2901 144.482 51.0161 145.112 49.7141 145.112ZM47.0821 140.66H52.0241C51.9541 139.47 50.9601 138.476 49.5461 138.476C48.1881 138.476 47.1661 139.47 47.0821 140.66ZM56.3328 145H54.9748V137.3H56.2348L56.3048 138.658C56.7248 137.846 57.5508 137.188 58.7268 137.188C60.5188 137.188 61.8768 138.42 61.8768 141.08V145H60.5048V141.08C60.5048 139.33 59.5528 138.532 58.4188 138.532C57.2988 138.532 56.3328 139.316 56.3328 141.08V145ZM67.3371 145.112C64.9991 145.112 63.2491 143.32 63.2491 141.136C63.2491 138.966 64.9991 137.202 67.1551 137.202C69.3951 137.202 71.0611 138.966 71.0611 141.136C71.0611 141.318 71.0331 141.584 71.0191 141.78H64.7191C64.9291 142.942 66.0071 143.824 67.3371 143.824C68.2891 143.824 69.0451 143.432 69.5351 142.83L70.6411 143.516C69.9131 144.482 68.6391 145.112 67.3371 145.112ZM64.7051 140.66H69.6471C69.5771 139.47 68.5831 138.476 67.1691 138.476C65.8111 138.476 64.7891 139.47 64.7051 140.66ZM75.6144 145H74.2564L71.5684 137.3H73.0244L74.9424 142.9L76.8044 137.3H78.1904L80.0664 142.9L81.9844 137.3H83.4404L80.7384 145H79.3944L77.5044 139.47L75.6144 145ZM87.7003 145.098C85.6283 145.098 83.9483 143.32 83.9483 141.15C83.9483 138.966 85.6283 137.188 87.7003 137.188C88.9603 137.188 90.0943 137.944 90.5703 138.924L90.6403 137.3H91.9003V145H90.6403L90.5703 143.39C90.0943 144.356 88.9603 145.098 87.7003 145.098ZM87.9243 143.74C89.3663 143.74 90.5283 142.578 90.5283 141.15C90.5283 139.708 89.3663 138.532 87.9243 138.532C86.4963 138.532 85.3343 139.708 85.3343 141.15C85.3343 142.578 86.4963 143.74 87.9243 143.74ZM98.0846 145.098C96.8246 145.098 95.6906 144.356 95.2286 143.39L95.1586 145H93.8986V134.08H95.2566V138.882C95.7186 137.916 96.8386 137.188 98.0846 137.188C100.157 137.188 101.837 138.966 101.837 141.15C101.837 143.32 100.157 145.098 98.0846 145.098ZM97.8746 143.74C99.3026 143.74 100.465 142.578 100.465 141.15C100.465 139.708 99.3026 138.532 97.8746 138.532C96.4186 138.532 95.2566 139.708 95.2566 141.15C95.2566 142.578 96.4186 143.74 97.8746 143.74ZM104.649 145H103.291V134.08H104.649V145ZM110.28 145.112C107.942 145.112 106.192 143.32 106.192 141.136C106.192 138.966 107.942 137.202 110.098 137.202C112.338 137.202 114.004 138.966 114.004 141.136C114.004 141.318 113.976 141.584 113.962 141.78H107.662C107.872 142.942 108.95 143.824 110.28 143.824C111.232 143.824 111.988 143.432 112.478 142.83L113.584 143.516C112.856 144.482 111.582 145.112 110.28 145.112ZM107.648 140.66H112.59C112.52 139.47 111.526 138.476 110.112 138.476C108.754 138.476 107.732 139.47 107.648 140.66ZM118.306 145.14C117.2 145.14 115.772 144.776 114.876 143.796L115.814 142.9C116.332 143.474 117.34 143.852 118.306 143.852C119.314 143.852 120.014 143.46 120.014 142.788C120.014 141.206 115.142 142.172 115.142 139.316C115.142 138.056 116.29 137.174 118.054 137.174C119.048 137.174 120.308 137.44 121.148 138.448L120.308 139.288C119.776 138.644 118.81 138.406 118.096 138.406C117.172 138.406 116.514 138.742 116.514 139.33C116.514 140.73 121.386 139.862 121.386 142.746C121.386 144.398 119.916 145.14 118.306 145.14ZM127.632 145H126.036L129.774 134.78H131.342L135.08 145H133.512L132.532 142.34H128.598L127.632 145ZM130.558 136.726L129.018 140.982H132.112L130.558 136.726ZM139.508 145.112C137.324 145.112 135.56 143.32 135.56 141.136C135.56 138.966 137.324 137.202 139.508 137.202C140.838 137.202 142.014 137.86 142.742 138.868L141.608 139.624C141.132 138.994 140.362 138.588 139.508 138.588C138.08 138.588 136.946 139.736 136.946 141.136C136.946 142.564 138.08 143.712 139.508 143.712C140.39 143.712 141.174 143.278 141.636 142.606L142.77 143.362C142.07 144.412 140.866 145.112 139.508 145.112ZM147.474 145.098C145.402 145.098 143.722 143.32 143.722 141.15C143.722 138.966 145.402 137.188 147.474 137.188C148.734 137.188 149.868 137.944 150.344 138.924L150.414 137.3H151.674V145H150.414L150.344 143.39C149.868 144.356 148.734 145.098 147.474 145.098ZM147.698 143.74C149.14 143.74 150.302 142.578 150.302 141.15C150.302 139.708 149.14 138.532 147.698 138.532C146.27 138.532 145.108 139.708 145.108 141.15C145.108 142.578 146.27 143.74 147.698 143.74ZM156.962 145.098C154.89 145.098 153.21 143.32 153.21 141.15C153.21 138.966 154.89 137.188 156.962 137.188C158.208 137.188 159.328 137.916 159.79 138.882V134.08H161.162V145H159.902L159.832 143.39C159.356 144.356 158.222 145.098 156.962 145.098ZM157.186 143.74C158.628 143.74 159.79 142.578 159.79 141.15C159.79 139.708 158.628 138.532 157.186 138.532C155.758 138.532 154.596 139.708 154.596 141.15C154.596 142.578 155.758 143.74 157.186 143.74ZM166.786 145.112C164.448 145.112 162.698 143.32 162.698 141.136C162.698 138.966 164.448 137.202 166.604 137.202C168.844 137.202 170.51 138.966 170.51 141.136C170.51 141.318 170.482 141.584 170.468 141.78H164.168C164.378 142.942 165.456 143.824 166.786 143.824C167.738 143.824 168.494 143.432 168.984 142.83L170.09 143.516C169.362 144.482 168.088 145.112 166.786 145.112ZM164.154 140.66H169.096C169.026 139.47 168.032 138.476 166.618 138.476C165.26 138.476 164.238 139.47 164.154 140.66ZM173.405 145H172.047V137.3H173.307L173.377 138.574C173.769 137.678 174.637 137.188 175.477 137.188C176.709 137.188 177.507 137.902 177.829 138.826C178.151 137.916 178.949 137.188 180.069 137.188C181.707 137.188 182.925 138.238 182.925 140.912V145H181.553V140.912C181.553 139.148 180.769 138.532 179.859 138.532C179.005 138.532 178.165 139.148 178.165 140.912V145H176.793V140.912C176.793 139.148 176.009 138.532 175.099 138.532C174.189 138.532 173.405 139.316 173.405 141.08V145ZM184.967 148.164C184.407 148.164 183.987 148.066 183.553 147.884L183.959 146.666C184.197 146.764 184.589 146.862 184.911 146.862C185.779 146.862 186.339 146.036 186.787 144.846L183.707 137.3H185.177L187.417 142.998L189.643 137.3H191.099L188.159 145C187.319 147.212 186.437 148.164 184.967 148.164ZM5.95 162.168C3.038 162.168 0.686 159.802 0.686 156.89C0.686 153.992 3.038 151.64 5.95 151.64C8.848 151.64 11.2 153.992 11.2 156.89C11.2 159.802 8.848 162.168 5.95 162.168ZM5.95 160.684C8.022 160.684 9.73 159.004 9.73 156.876C9.73 154.79 8.022 153.11 5.95 153.11C3.864 153.11 2.156 154.79 2.156 156.876C2.156 159.004 3.864 160.684 5.95 160.684ZM14.2469 162H12.8889V154.3H14.1489L14.2189 155.658C14.6389 154.846 15.4649 154.188 16.6409 154.188C18.4329 154.188 19.7909 155.42 19.7909 158.08V162H18.4189V158.08C18.4189 156.33 17.4669 155.532 16.3329 155.532C15.2129 155.532 14.2469 156.316 14.2469 158.08V162ZM22.9832 162H21.6252V151.08H22.9832V162ZM25.6745 153.516C25.1985 153.516 24.8065 153.124 24.8065 152.648C24.8065 152.172 25.1985 151.78 25.6745 151.78C26.1365 151.78 26.5285 152.172 26.5285 152.648C26.5285 153.124 26.1365 153.516 25.6745 153.516ZM26.3465 162H24.9885V154.3H26.3465V162ZM29.7098 162H28.3518V154.3H29.6118L29.6818 155.658C30.1018 154.846 30.9278 154.188 32.1038 154.188C33.8958 154.188 35.2537 155.42 35.2537 158.08V162H33.8818V158.08C33.8818 156.33 32.9298 155.532 31.7958 155.532C30.6758 155.532 29.7098 156.316 29.7098 158.08V162ZM40.7141 162.112C38.3761 162.112 36.6261 160.32 36.6261 158.136C36.6261 155.966 38.3761 154.202 40.5321 154.202C42.7721 154.202 44.4381 155.966 44.4381 158.136C44.4381 158.318 44.4101 158.584 44.3961 158.78H38.0961C38.3061 159.942 39.3841 160.824 40.7141 160.824C41.6661 160.824 42.4221 160.432 42.9121 159.83L44.0181 160.516C43.2901 161.482 42.0161 162.112 40.7141 162.112ZM38.0821 157.66H43.0241C42.9541 156.47 41.9601 155.476 40.5461 155.476C39.1881 155.476 38.1661 156.47 38.0821 157.66Z" fill="black"/>
</svg>
