<svg width="206" height="272" viewBox="0 0 206 272" fill="none" xmlns="http://www.w3.org/2000/svg">
<rect y="117.5" width="10" height="10" fill="#F36D20"/>
<path d="M23.906 128.14C22.268 128.14 20.882 127.216 20.35 125.816L22.534 125.018C22.73 125.522 23.318 125.872 23.948 125.872C24.76 125.872 25.432 125.256 25.432 124.43C25.432 123.604 24.774 122.988 23.976 122.988C23.5 122.988 23.038 123.212 22.772 123.562H20.504L20.91 117.78H27.322V119.894H23.038L22.94 121.364C23.29 121.112 23.85 120.916 24.34 120.916C26.3 120.916 27.728 122.386 27.728 124.486C27.728 126.6 26.006 128.14 23.906 128.14ZM32.2784 128.14C30.2064 128.14 28.5404 126.6 28.5404 124.486C28.5404 123.688 28.7784 122.946 29.2124 122.372L32.3764 117.766H35.1344L32.8104 121.014C34.5464 121.112 36.0444 122.554 36.0444 124.486C36.0444 126.6 34.3504 128.14 32.2784 128.14ZM32.2784 125.872C33.1044 125.872 33.7484 125.256 33.7484 124.486C33.7484 123.716 33.1044 123.114 32.2784 123.114C31.4804 123.114 30.8364 123.716 30.8364 124.486C30.8364 125.256 31.4804 125.872 32.2784 125.872ZM39.1079 122.456C37.7359 122.456 36.7699 121.35 36.7699 119.684C36.7699 118.046 37.7359 116.968 39.1079 116.968C40.4799 116.968 41.4319 118.046 41.4319 119.684C41.4319 121.35 40.4799 122.456 39.1079 122.456ZM40.0039 128H38.4639L44.1199 117.066H45.6599L40.0039 128ZM39.0939 121.112C39.6259 121.112 40.0879 120.734 40.0879 119.684C40.0879 118.69 39.6259 118.312 39.0939 118.312C38.6039 118.312 38.1139 118.69 38.1139 119.684C38.1139 120.734 38.6039 121.112 39.0939 121.112ZM45.0299 128.14C43.6579 128.14 42.6919 127.034 42.6919 125.368C42.6919 123.73 43.6579 122.652 45.0299 122.652C46.3879 122.652 47.3399 123.73 47.3399 125.368C47.3399 127.034 46.3879 128.14 45.0299 128.14ZM45.0159 126.796C45.5339 126.796 45.9959 126.418 45.9959 125.368C45.9959 124.374 45.5339 123.996 45.0159 123.996C44.5119 123.996 44.0359 124.374 44.0359 125.368C44.0359 126.418 44.5119 126.796 45.0159 126.796ZM57.3517 123.45H52.1997V122.316H57.3517V123.45ZM67.7996 128.168C64.8876 128.168 62.5356 125.802 62.5356 122.89C62.5356 119.992 64.8876 117.64 67.7996 117.64C69.4656 117.64 70.9636 118.41 71.9296 119.628L70.7396 120.51C70.0396 119.656 68.9756 119.11 67.7996 119.11C65.7136 119.11 64.0056 120.79 64.0056 122.876C64.0056 125.004 65.7136 126.684 67.7996 126.684C69.0036 126.684 70.0816 126.124 70.7676 125.228L72.0276 126.012C71.0756 127.314 69.5356 128.168 67.7996 128.168ZM76.8846 128.112C74.7006 128.112 72.9366 126.32 72.9366 124.136C72.9366 121.966 74.7006 120.202 76.8846 120.202C79.0546 120.202 80.8326 121.966 80.8326 124.136C80.8326 126.32 79.0546 128.112 76.8846 128.112ZM76.8846 126.712C78.2986 126.712 79.4466 125.564 79.4466 124.136C79.4466 122.736 78.2986 121.588 76.8846 121.588C75.4566 121.588 74.3226 122.736 74.3226 124.136C74.3226 125.564 75.4566 126.712 76.8846 126.712ZM83.739 128H82.381V120.3H83.641L83.711 121.574C84.103 120.678 84.971 120.188 85.811 120.188C87.043 120.188 87.841 120.902 88.163 121.826C88.485 120.916 89.283 120.188 90.403 120.188C92.041 120.188 93.259 121.238 93.259 123.912V128H91.887V123.912C91.887 122.148 91.103 121.532 90.193 121.532C89.339 121.532 88.499 122.148 88.499 123.912V128H87.127V123.912C87.127 122.148 86.343 121.532 85.433 121.532C84.523 121.532 83.739 122.316 83.739 124.08V128ZM96.4676 128H95.1096V120.3H96.3696L96.4396 121.574C96.8316 120.678 97.6996 120.188 98.5396 120.188C99.7716 120.188 100.57 120.902 100.892 121.826C101.214 120.916 102.012 120.188 103.132 120.188C104.77 120.188 105.988 121.238 105.988 123.912V128H104.616V123.912C104.616 122.148 103.832 121.532 102.922 121.532C102.068 121.532 101.228 122.148 101.228 123.912V128H99.8556V123.912C99.8556 122.148 99.0716 121.532 98.1616 121.532C97.2516 121.532 96.4676 122.316 96.4676 124.08V128ZM110.82 128.112C109.028 128.112 107.67 126.866 107.67 124.206V120.3H109.042V124.206C109.042 125.97 109.994 126.754 111.128 126.754C112.248 126.754 113.214 125.97 113.214 124.206V120.3H114.572V128H113.312L113.242 126.628C112.822 127.44 111.982 128.112 110.82 128.112ZM117.932 128H116.574V120.3H117.834L117.904 121.658C118.324 120.846 119.15 120.188 120.326 120.188C122.118 120.188 123.476 121.42 123.476 124.08V128H122.104V124.08C122.104 122.33 121.152 121.532 120.018 121.532C118.898 121.532 117.932 122.316 117.932 124.08V128ZM125.997 119.516C125.521 119.516 125.129 119.124 125.129 118.648C125.129 118.172 125.521 117.78 125.997 117.78C126.459 117.78 126.851 118.172 126.851 118.648C126.851 119.124 126.459 119.516 125.997 119.516ZM126.669 128H125.311V120.3H126.669V128ZM132.16 128.112C129.976 128.112 128.212 126.32 128.212 124.136C128.212 121.966 129.976 120.202 132.16 120.202C133.49 120.202 134.666 120.86 135.394 121.868L134.26 122.624C133.784 121.994 133.014 121.588 132.16 121.588C130.732 121.588 129.598 122.736 129.598 124.136C129.598 125.564 130.732 126.712 132.16 126.712C133.042 126.712 133.826 126.278 134.288 125.606L135.422 126.362C134.722 127.412 133.518 128.112 132.16 128.112ZM140.126 128.098C138.054 128.098 136.374 126.32 136.374 124.15C136.374 121.966 138.054 120.188 140.126 120.188C141.386 120.188 142.52 120.944 142.996 121.924L143.066 120.3H144.326V128H143.066L142.996 126.39C142.52 127.356 141.386 128.098 140.126 128.098ZM140.35 126.74C141.792 126.74 142.954 125.578 142.954 124.15C142.954 122.708 141.792 121.532 140.35 121.532C138.922 121.532 137.76 122.708 137.76 124.15C137.76 125.578 138.922 126.74 140.35 126.74ZM149.264 128.126C147.85 128.126 146.674 127.272 146.674 125.13V121.532H145.638V120.3H146.716L146.884 117.78H148.032V120.3H149.88V121.532H148.032V125.116C148.032 126.222 148.578 126.796 149.446 126.796C149.642 126.796 149.852 126.768 150.034 126.698L150.384 127.916C150.062 128.056 149.67 128.126 149.264 128.126ZM152.52 119.516C152.044 119.516 151.652 119.124 151.652 118.648C151.652 118.172 152.044 117.78 152.52 117.78C152.982 117.78 153.374 118.172 153.374 118.648C153.374 119.124 152.982 119.516 152.52 119.516ZM153.192 128H151.834V120.3H153.192V128ZM156.555 128H155.197V120.3H156.457L156.527 121.658C156.947 120.846 157.773 120.188 158.949 120.188C160.741 120.188 162.099 121.42 162.099 124.08V128H160.727V124.08C160.727 122.33 159.775 121.532 158.641 121.532C157.521 121.532 156.555 122.316 156.555 124.08V128ZM167.21 131.22C165.908 131.22 164.648 130.632 163.92 129.68L164.956 128.882C165.488 129.512 166.37 129.904 167.28 129.904C168.764 129.904 170.052 129.05 170.052 127.02V126.432C169.59 127.37 168.47 128.098 167.224 128.098C165.152 128.098 163.472 126.32 163.472 124.15C163.472 121.966 165.152 120.188 167.224 120.188C168.484 120.188 169.618 120.944 170.094 121.924L170.164 120.3H171.424V126.796C171.424 129.778 169.632 131.22 167.21 131.22ZM167.448 126.74C168.89 126.74 170.052 125.578 170.052 124.15C170.052 122.708 168.89 121.532 167.448 121.532C166.02 121.532 164.858 122.708 164.858 124.15C164.858 125.578 166.02 126.74 167.448 126.74ZM21.596 148.164C21.036 148.164 20.616 148.066 20.182 147.884L20.588 146.666C20.826 146.764 21.218 146.862 21.54 146.862C22.408 146.862 22.968 146.036 23.416 144.846L20.336 137.3H21.806L24.046 142.998L26.272 137.3H27.728L24.788 145C23.948 147.212 23.066 148.164 21.596 148.164ZM31.9999 145.112C29.8159 145.112 28.0519 143.32 28.0519 141.136C28.0519 138.966 29.8159 137.202 31.9999 137.202C34.1699 137.202 35.9479 138.966 35.9479 141.136C35.9479 143.32 34.1699 145.112 31.9999 145.112ZM31.9999 143.712C33.4139 143.712 34.5619 142.564 34.5619 141.136C34.5619 139.736 33.4139 138.588 31.9999 138.588C30.5719 138.588 29.4379 139.736 29.4379 141.136C29.4379 142.564 30.5719 143.712 31.9999 143.712ZM40.4783 145.112C38.6863 145.112 37.3283 143.866 37.3283 141.206V137.3H38.7003V141.206C38.7003 142.97 39.6523 143.754 40.7863 143.754C41.9063 143.754 42.8723 142.97 42.8723 141.206V137.3H44.2303V145H42.9703L42.9003 143.628C42.4803 144.44 41.6403 145.112 40.4783 145.112ZM47.5906 145H46.2326V137.3H47.4926L47.5766 138.56C48.0246 137.734 48.8926 137.244 50.0266 137.258C50.2226 137.258 50.4186 137.272 50.6006 137.3L50.3206 138.616C50.2366 138.602 50.1386 138.588 50.0546 138.588C48.7526 138.588 47.5906 139.316 47.5906 141.444V145ZM59.0936 145.154C57.7776 145.154 56.4896 144.706 55.4116 143.544L56.3216 142.62C57.0496 143.348 57.9596 143.81 59.1076 143.824C60.3396 143.824 61.2076 143.236 61.2076 142.214C61.2076 139.736 55.6076 140.842 55.6076 137.286C55.6076 135.774 56.8396 134.612 58.9396 134.612C60.0456 134.612 61.4456 135.06 62.3416 136.264L61.3196 137.062C60.8156 136.362 59.8916 135.956 59.0096 135.942C57.7916 135.928 57.0076 136.502 57.0076 137.272C57.0076 139.512 62.6216 138.448 62.6216 142.144C62.6216 143.992 61.1516 145.168 59.0936 145.154ZM67.7518 145.112C65.5678 145.112 63.8038 143.32 63.8038 141.136C63.8038 138.966 65.5678 137.202 67.7518 137.202C69.0818 137.202 70.2578 137.86 70.9858 138.868L69.8518 139.624C69.3758 138.994 68.6058 138.588 67.7518 138.588C66.3238 138.588 65.1898 139.736 65.1898 141.136C65.1898 142.564 66.3238 143.712 67.7518 143.712C68.6338 143.712 69.4178 143.278 69.8798 142.606L71.0138 143.362C70.3138 144.412 69.1098 145.112 67.7518 145.112ZM73.2233 136.516C72.7473 136.516 72.3553 136.124 72.3553 135.648C72.3553 135.172 72.7473 134.78 73.2233 134.78C73.6853 134.78 74.0773 135.172 74.0773 135.648C74.0773 136.124 73.6853 136.516 73.2233 136.516ZM73.8953 145H72.5373V137.3H73.8953V145ZM79.5266 145.112C77.1886 145.112 75.4386 143.32 75.4386 141.136C75.4386 138.966 77.1886 137.202 79.3446 137.202C81.5846 137.202 83.2506 138.966 83.2506 141.136C83.2506 141.318 83.2226 141.584 83.2086 141.78H76.9086C77.1186 142.942 78.1966 143.824 79.5266 143.824C80.4786 143.824 81.2346 143.432 81.7246 142.83L82.8306 143.516C82.1026 144.482 80.8286 145.112 79.5266 145.112ZM76.8946 140.66H81.8366C81.7666 139.47 80.7726 138.476 79.3586 138.476C78.0006 138.476 76.9786 139.47 76.8946 140.66ZM86.1453 145H84.7873V137.3H86.0473L86.1173 138.658C86.5373 137.846 87.3633 137.188 88.5393 137.188C90.3313 137.188 91.6893 138.42 91.6893 141.08V145H90.3173V141.08C90.3173 139.33 89.3653 138.532 88.2313 138.532C87.1113 138.532 86.1453 139.316 86.1453 141.08V145ZM97.0096 145.112C94.8256 145.112 93.0616 143.32 93.0616 141.136C93.0616 138.966 94.8256 137.202 97.0096 137.202C98.3396 137.202 99.5156 137.86 100.244 138.868L99.1096 139.624C98.6336 138.994 97.8636 138.588 97.0096 138.588C95.5816 138.588 94.4476 139.736 94.4476 141.136C94.4476 142.564 95.5816 143.712 97.0096 143.712C97.8916 143.712 98.6756 143.278 99.1376 142.606L100.272 143.362C99.5716 144.412 98.3676 145.112 97.0096 145.112ZM105.312 145.112C102.974 145.112 101.224 143.32 101.224 141.136C101.224 138.966 102.974 137.202 105.13 137.202C107.37 137.202 109.036 138.966 109.036 141.136C109.036 141.318 109.008 141.584 108.994 141.78H102.694C102.904 142.942 103.982 143.824 105.312 143.824C106.264 143.824 107.02 143.432 107.51 142.83L108.616 143.516C107.888 144.482 106.614 145.112 105.312 145.112ZM102.68 140.66H107.622C107.552 139.47 106.558 138.476 105.144 138.476C103.786 138.476 102.764 139.47 102.68 140.66ZM117.341 145.126C115.927 145.126 114.751 144.272 114.751 142.13V138.532H113.715V137.3H114.793L114.961 134.78H116.109V137.3H117.957V138.532H116.109V142.116C116.109 143.222 116.655 143.796 117.523 143.796C117.719 143.796 117.929 143.768 118.111 143.698L118.461 144.916C118.139 145.056 117.747 145.126 117.341 145.126ZM123 145.112C120.816 145.112 119.052 143.32 119.052 141.136C119.052 138.966 120.816 137.202 123 137.202C125.17 137.202 126.948 138.966 126.948 141.136C126.948 143.32 125.17 145.112 123 145.112ZM123 143.712C124.414 143.712 125.562 142.564 125.562 141.136C125.562 139.736 124.414 138.588 123 138.588C121.572 138.588 120.438 139.736 120.438 141.136C120.438 142.564 121.572 143.712 123 143.712ZM135.264 145.126C133.85 145.126 132.674 144.272 132.674 142.13V138.532H131.638V137.3H132.716L132.884 134.78H134.032V137.3H135.88V138.532H134.032V142.116C134.032 143.222 134.578 143.796 135.446 143.796C135.642 143.796 135.852 143.768 136.034 143.698L136.384 144.916C136.062 145.056 135.67 145.126 135.264 145.126ZM139.192 145H137.834V134.08H139.192V138.63C139.612 137.832 140.438 137.188 141.586 137.188C143.378 137.188 144.736 138.42 144.736 141.08V145H143.364V141.08C143.364 139.33 142.412 138.532 141.278 138.532C140.158 138.532 139.192 139.316 139.192 141.08V145ZM150.197 145.112C147.859 145.112 146.109 143.32 146.109 141.136C146.109 138.966 147.859 137.202 150.015 137.202C152.255 137.202 153.921 138.966 153.921 141.136C153.921 141.318 153.893 141.584 153.879 141.78H147.579C147.789 142.942 148.867 143.824 150.197 143.824C151.149 143.824 151.905 143.432 152.395 142.83L153.501 143.516C152.773 144.482 151.499 145.112 150.197 145.112ZM147.565 140.66H152.507C152.437 139.47 151.443 138.476 150.029 138.476C148.671 138.476 147.649 139.47 147.565 140.66ZM160.867 145H159.425V134.78H163.303C165.375 134.78 166.747 136.222 166.747 137.986C166.747 139.764 165.375 141.206 163.303 141.206H160.867V145ZM160.867 136.194V139.792H163.275C164.507 139.792 165.263 138.966 165.263 137.986C165.263 137.034 164.507 136.194 163.275 136.194H160.867ZM171.209 145.112C169.417 145.112 168.059 143.866 168.059 141.206V137.3H169.431V141.206C169.431 142.97 170.383 143.754 171.517 143.754C172.637 143.754 173.603 142.97 173.603 141.206V137.3H174.961V145H173.701L173.631 143.628C173.211 144.44 172.371 145.112 171.209 145.112ZM181.149 145.098C179.889 145.098 178.755 144.356 178.293 143.39L178.223 145H176.963V134.08H178.321V138.882C178.783 137.916 179.903 137.188 181.149 137.188C183.221 137.188 184.901 138.966 184.901 141.15C184.901 143.32 183.221 145.098 181.149 145.098ZM180.939 143.74C182.367 143.74 183.529 142.578 183.529 141.15C183.529 139.708 182.367 138.532 180.939 138.532C179.483 138.532 178.321 139.708 178.321 141.15C178.321 142.578 179.483 143.74 180.939 143.74ZM187.714 145H186.356V134.08H187.714V145ZM190.405 136.516C189.929 136.516 189.537 136.124 189.537 135.648C189.537 135.172 189.929 134.78 190.405 134.78C190.867 134.78 191.259 135.172 191.259 135.648C191.259 136.124 190.867 136.516 190.405 136.516ZM191.077 145H189.719V137.3H191.077V145ZM196.568 145.112C194.384 145.112 192.62 143.32 192.62 141.136C192.62 138.966 194.384 137.202 196.568 137.202C197.898 137.202 199.074 137.86 199.802 138.868L198.668 139.624C198.192 138.994 197.422 138.588 196.568 138.588C195.14 138.588 194.006 139.736 194.006 141.136C194.006 142.564 195.14 143.712 196.568 143.712C197.45 143.712 198.234 143.278 198.696 142.606L199.83 143.362C199.13 144.412 197.926 145.112 196.568 145.112Z" fill="black"/>
<rect y="158.5" width="10" height="10" fill="#FFAA4D"/>
<path d="M23.99 169.196C22.254 169.196 20.812 168.314 20.224 166.956L22.24 166.032C22.492 166.522 23.192 166.928 23.934 166.928C24.816 166.928 25.39 166.438 25.39 165.766C25.39 164.982 24.69 164.59 23.724 164.59H23.15V162.49H23.766C24.382 162.49 25.012 162.224 25.012 161.608C25.012 161.09 24.522 160.768 23.892 160.768C23.416 160.768 22.996 160.964 22.786 161.244L20.686 160.446C21.176 159.34 22.52 158.556 23.92 158.556C25.684 158.556 27.294 159.452 27.294 161.44C27.294 162.308 26.818 163.008 26.118 163.47C27.028 163.974 27.658 164.814 27.658 165.948C27.658 167.936 26.09 169.196 23.99 169.196ZM35.3705 169H33.1025V166.9H28.4965V164.912L32.6125 158.78H35.3705V164.674H36.2105V166.9H35.3705V169ZM33.1025 161.818L31.0305 164.674H33.1025V161.818ZM39.0806 163.456C37.7086 163.456 36.7426 162.35 36.7426 160.684C36.7426 159.046 37.7086 157.968 39.0806 157.968C40.4526 157.968 41.4046 159.046 41.4046 160.684C41.4046 162.35 40.4526 163.456 39.0806 163.456ZM39.9766 169H38.4366L44.0926 158.066H45.6326L39.9766 169ZM39.0666 162.112C39.5986 162.112 40.0606 161.734 40.0606 160.684C40.0606 159.69 39.5986 159.312 39.0666 159.312C38.5766 159.312 38.0866 159.69 38.0866 160.684C38.0866 161.734 38.5766 162.112 39.0666 162.112ZM45.0026 169.14C43.6306 169.14 42.6646 168.034 42.6646 166.368C42.6646 164.73 43.6306 163.652 45.0026 163.652C46.3606 163.652 47.3126 164.73 47.3126 166.368C47.3126 168.034 46.3606 169.14 45.0026 169.14ZM44.9886 167.796C45.5066 167.796 45.9686 167.418 45.9686 166.368C45.9686 165.374 45.5066 164.996 44.9886 164.996C44.4846 164.996 44.0086 165.374 44.0086 166.368C44.0086 167.418 44.4846 167.796 44.9886 167.796ZM57.3243 164.45H52.1723V163.316H57.3243V164.45ZM66.1483 169.154C64.8323 169.154 63.5443 168.706 62.4663 167.544L63.3763 166.62C64.1043 167.348 65.0143 167.81 66.1623 167.824C67.3943 167.824 68.2623 167.236 68.2623 166.214C68.2623 163.736 62.6623 164.842 62.6623 161.286C62.6623 159.774 63.8943 158.612 65.9943 158.612C67.1003 158.612 68.5003 159.06 69.3963 160.264L68.3743 161.062C67.8703 160.362 66.9463 159.956 66.0643 159.942C64.8463 159.928 64.0623 160.502 64.0623 161.272C64.0623 163.512 69.6763 162.448 69.6763 166.144C69.6763 167.992 68.2063 169.168 66.1483 169.154ZM74.8065 169.112C72.6225 169.112 70.8585 167.32 70.8585 165.136C70.8585 162.966 72.6225 161.202 74.8065 161.202C76.1365 161.202 77.3125 161.86 78.0405 162.868L76.9065 163.624C76.4305 162.994 75.6605 162.588 74.8065 162.588C73.3785 162.588 72.2445 163.736 72.2445 165.136C72.2445 166.564 73.3785 167.712 74.8065 167.712C75.6885 167.712 76.4725 167.278 76.9345 166.606L78.0685 167.362C77.3685 168.412 76.1645 169.112 74.8065 169.112ZM82.9686 169.112C80.7846 169.112 79.0206 167.32 79.0206 165.136C79.0206 162.966 80.7846 161.202 82.9686 161.202C85.1386 161.202 86.9166 162.966 86.9166 165.136C86.9166 167.32 85.1386 169.112 82.9686 169.112ZM82.9686 167.712C84.3826 167.712 85.5306 166.564 85.5306 165.136C85.5306 163.736 84.3826 162.588 82.9686 162.588C81.5406 162.588 80.4066 163.736 80.4066 165.136C80.4066 166.564 81.5406 167.712 82.9686 167.712ZM89.7273 172.08H88.3693V161.3H89.6293L89.6993 162.896C90.1613 161.944 91.2953 161.202 92.5553 161.202C94.6273 161.202 96.3073 162.966 96.3073 165.136C96.3073 167.32 94.6273 169.112 92.5553 169.112C91.3093 169.112 90.1893 168.37 89.7273 167.418V172.08ZM92.3453 167.754C93.7733 167.754 94.9353 166.578 94.9353 165.136C94.9353 163.708 93.7733 162.546 92.3453 162.546C90.8893 162.546 89.7273 163.708 89.7273 165.136C89.7273 166.578 90.8893 167.754 92.3453 167.754ZM100.84 169.112C99.0476 169.112 97.6896 167.866 97.6896 165.206V161.3H99.0616V165.206C99.0616 166.97 100.014 167.754 101.148 167.754C102.268 167.754 103.234 166.97 103.234 165.206V161.3H104.592V169H103.332L103.262 167.628C102.842 168.44 102.002 169.112 100.84 169.112ZM109.359 169.14C108.253 169.14 106.825 168.776 105.929 167.796L106.867 166.9C107.385 167.474 108.393 167.852 109.359 167.852C110.367 167.852 111.067 167.46 111.067 166.788C111.067 165.206 106.195 166.172 106.195 163.316C106.195 162.056 107.343 161.174 109.107 161.174C110.101 161.174 111.361 161.44 112.201 162.448L111.361 163.288C110.829 162.644 109.863 162.406 109.149 162.406C108.225 162.406 107.567 162.742 107.567 163.33C107.567 164.73 112.439 163.862 112.439 166.746C112.439 168.398 110.969 169.14 109.359 169.14ZM119.469 169H118.027V158.78H121.905C123.977 158.78 125.349 160.222 125.349 161.986C125.349 163.414 124.411 164.618 123.011 164.954L125.517 169H123.837L121.513 165.206H119.469V169ZM119.469 160.194V163.792H121.877C123.109 163.792 123.865 162.966 123.865 161.986C123.865 161.034 123.109 160.194 121.877 160.194H119.469ZM130.208 169.112C127.87 169.112 126.12 167.32 126.12 165.136C126.12 162.966 127.87 161.202 130.026 161.202C132.266 161.202 133.932 162.966 133.932 165.136C133.932 165.318 133.904 165.584 133.89 165.78H127.59C127.8 166.942 128.878 167.824 130.208 167.824C131.16 167.824 131.916 167.432 132.406 166.83L133.512 167.516C132.784 168.482 131.51 169.112 130.208 169.112ZM127.576 164.66H132.518C132.448 163.47 131.454 162.476 130.04 162.476C128.682 162.476 127.66 163.47 127.576 164.66ZM138.234 169.14C137.128 169.14 135.7 168.776 134.804 167.796L135.742 166.9C136.26 167.474 137.268 167.852 138.234 167.852C139.242 167.852 139.942 167.46 139.942 166.788C139.942 165.206 135.07 166.172 135.07 163.316C135.07 162.056 136.218 161.174 137.982 161.174C138.976 161.174 140.236 161.44 141.076 162.448L140.236 163.288C139.704 162.644 138.738 162.406 138.024 162.406C137.1 162.406 136.442 162.742 136.442 163.33C136.442 164.73 141.314 163.862 141.314 166.746C141.314 168.398 139.844 169.14 138.234 169.14ZM146.327 169.112C143.989 169.112 142.239 167.32 142.239 165.136C142.239 162.966 143.989 161.202 146.145 161.202C148.385 161.202 150.051 162.966 150.051 165.136C150.051 165.318 150.023 165.584 150.009 165.78H143.709C143.919 166.942 144.997 167.824 146.327 167.824C147.279 167.824 148.035 167.432 148.525 166.83L149.631 167.516C148.903 168.482 147.629 169.112 146.327 169.112ZM143.695 164.66H148.637C148.567 163.47 147.573 162.476 146.159 162.476C144.801 162.476 143.779 163.47 143.695 164.66ZM154.878 169.098C152.806 169.098 151.126 167.32 151.126 165.15C151.126 162.966 152.806 161.188 154.878 161.188C156.138 161.188 157.272 161.944 157.748 162.924L157.818 161.3H159.078V169H157.818L157.748 167.39C157.272 168.356 156.138 169.098 154.878 169.098ZM155.102 167.74C156.544 167.74 157.706 166.578 157.706 165.15C157.706 163.708 156.544 162.532 155.102 162.532C153.674 162.532 152.512 163.708 152.512 165.15C152.512 166.578 153.674 167.74 155.102 167.74ZM162.434 169H161.076V161.3H162.336L162.42 162.56C162.868 161.734 163.736 161.244 164.87 161.258C165.066 161.258 165.262 161.272 165.444 161.3L165.164 162.616C165.08 162.602 164.982 162.588 164.898 162.588C163.596 162.588 162.434 163.316 162.434 165.444V169ZM169.826 169.112C167.642 169.112 165.878 167.32 165.878 165.136C165.878 162.966 167.642 161.202 169.826 161.202C171.156 161.202 172.332 161.86 173.06 162.868L171.926 163.624C171.45 162.994 170.68 162.588 169.826 162.588C168.398 162.588 167.264 163.736 167.264 165.136C167.264 166.564 168.398 167.712 169.826 167.712C170.708 167.712 171.492 167.278 171.954 166.606L173.088 167.362C172.388 168.412 171.184 169.112 169.826 169.112ZM175.915 169H174.557V158.08H175.915V162.63C176.335 161.832 177.161 161.188 178.309 161.188C180.101 161.188 181.459 162.42 181.459 165.08V169H180.087V165.08C180.087 163.33 179.135 162.532 178.001 162.532C176.881 162.532 175.915 163.316 175.915 165.08V169ZM22.59 186H21.148V175.78H25.026C27.098 175.78 28.47 177.222 28.47 178.986C28.47 180.764 27.098 182.206 25.026 182.206H22.59V186ZM22.59 177.194V180.792H24.998C26.23 180.792 26.986 179.966 26.986 178.986C26.986 178.034 26.23 177.194 24.998 177.194H22.59ZM31.3074 186H29.9494V178.3H31.2094L31.2934 179.56C31.7414 178.734 32.6094 178.244 33.7434 178.258C33.9394 178.258 34.1354 178.272 34.3174 178.3L34.0374 179.616C33.9534 179.602 33.8554 179.588 33.7714 179.588C32.4694 179.588 31.3074 180.316 31.3074 182.444V186ZM38.6991 186.112C36.5151 186.112 34.7511 184.32 34.7511 182.136C34.7511 179.966 36.5151 178.202 38.6991 178.202C40.8691 178.202 42.6471 179.966 42.6471 182.136C42.6471 184.32 40.8691 186.112 38.6991 186.112ZM38.6991 184.712C40.1131 184.712 41.2611 183.564 41.2611 182.136C41.2611 180.736 40.1131 179.588 38.6991 179.588C37.2711 179.588 36.1371 180.736 36.1371 182.136C36.1371 183.564 37.2711 184.712 38.6991 184.712ZM45.8475 179.532V186.014L44.4895 185.986V179.532H43.5095V178.3H44.4895V178.006C44.4895 175.682 45.7075 174.87 47.1775 174.87C47.4995 174.87 47.8075 174.94 48.0735 175.01L47.6535 176.242C47.5275 176.214 47.3315 176.186 47.2055 176.186C46.4355 176.186 45.8475 176.62 45.8475 178.006V178.3H49.7255V186.014L48.3535 186V179.532H45.8475ZM49.0255 177.516C48.5495 177.516 48.1715 177.124 48.1715 176.648C48.1715 176.172 48.5495 175.78 49.0255 175.78C49.4875 175.78 49.8795 176.172 49.8795 176.648C49.8795 177.124 49.4875 177.516 49.0255 177.516ZM53.073 186H51.715V175.08H53.073V186ZM58.7043 186.112C56.3663 186.112 54.6163 184.32 54.6163 182.136C54.6163 179.966 56.3663 178.202 58.5223 178.202C60.7623 178.202 62.4283 179.966 62.4283 182.136C62.4283 182.318 62.4003 182.584 62.3863 182.78H56.0863C56.2963 183.942 57.3743 184.824 58.7043 184.824C59.6563 184.824 60.4123 184.432 60.9023 183.83L62.0083 184.516C61.2803 185.482 60.0063 186.112 58.7043 186.112ZM56.0723 181.66H61.0143C60.9443 180.47 59.9503 179.476 58.5363 179.476C57.1783 179.476 56.1563 180.47 56.0723 181.66ZM66.7296 186.14C65.6236 186.14 64.1956 185.776 63.2996 184.796L64.2376 183.9C64.7556 184.474 65.7636 184.852 66.7296 184.852C67.7376 184.852 68.4376 184.46 68.4376 183.788C68.4376 182.206 63.5656 183.172 63.5656 180.316C63.5656 179.056 64.7136 178.174 66.4776 178.174C67.4716 178.174 68.7316 178.44 69.5716 179.448L68.7316 180.288C68.1996 179.644 67.2336 179.406 66.5196 179.406C65.5956 179.406 64.9376 179.742 64.9376 180.33C64.9376 181.73 69.8096 180.862 69.8096 183.746C69.8096 185.398 68.3396 186.14 66.7296 186.14Z" fill="black"/>
<rect y="199.5" width="10" height="10" fill="#3F91BA"/>
<path d="M24.312 210.35C22.1 210.35 20.532 208.978 20.532 207.032C20.532 205.954 21.106 205.072 21.974 204.554C21.372 204.092 20.98 203.378 20.98 202.538C20.98 200.83 22.492 199.556 24.34 199.556C26.174 199.556 27.686 200.83 27.686 202.538C27.686 203.378 27.294 204.092 26.678 204.554C27.574 205.086 28.148 205.954 28.148 207.032C28.148 208.978 26.552 210.35 24.312 210.35ZM24.326 203.518C24.956 203.518 25.446 203.098 25.446 202.566C25.446 202.034 24.956 201.628 24.326 201.628C23.71 201.628 23.234 202.034 23.234 202.566C23.234 203.098 23.71 203.518 24.326 203.518ZM24.326 208.152C25.18 208.152 25.824 207.578 25.824 206.878C25.824 206.192 25.152 205.632 24.326 205.632C23.514 205.632 22.842 206.192 22.842 206.878C22.842 207.578 23.486 208.152 24.326 208.152ZM31.356 204.456C29.984 204.456 29.018 203.35 29.018 201.684C29.018 200.046 29.984 198.968 31.356 198.968C32.728 198.968 33.68 200.046 33.68 201.684C33.68 203.35 32.728 204.456 31.356 204.456ZM32.252 210H30.712L36.368 199.066H37.908L32.252 210ZM31.342 203.112C31.874 203.112 32.336 202.734 32.336 201.684C32.336 200.69 31.874 200.312 31.342 200.312C30.852 200.312 30.362 200.69 30.362 201.684C30.362 202.734 30.852 203.112 31.342 203.112ZM37.278 210.14C35.906 210.14 34.94 209.034 34.94 207.368C34.94 205.73 35.906 204.652 37.278 204.652C38.636 204.652 39.588 205.73 39.588 207.368C39.588 209.034 38.636 210.14 37.278 210.14ZM37.264 208.796C37.782 208.796 38.244 208.418 38.244 207.368C38.244 206.374 37.782 205.996 37.264 205.996C36.76 205.996 36.284 206.374 36.284 207.368C36.284 208.418 36.76 208.796 37.264 208.796ZM49.5997 205.45H44.4477V204.316H49.5997V205.45ZM56.6877 210H55.2457V199.78H59.1237C61.1957 199.78 62.5677 201.222 62.5677 202.986C62.5677 204.764 61.1957 206.206 59.1237 206.206H56.6877V210ZM56.6877 201.194V204.792H59.0957C60.3277 204.792 61.0837 203.966 61.0837 202.986C61.0837 202.034 60.3277 201.194 59.0957 201.194H56.6877ZM67.0291 210.112C65.2371 210.112 63.8791 208.866 63.8791 206.206V202.3H65.2511V206.206C65.2511 207.97 66.2031 208.754 67.3371 208.754C68.4571 208.754 69.4231 207.97 69.4231 206.206V202.3H70.7811V210H69.5211L69.4511 208.628C69.0311 209.44 68.1911 210.112 67.0291 210.112ZM76.9694 210.098C75.7094 210.098 74.5754 209.356 74.1134 208.39L74.0434 210H72.7834V199.08H74.1414V203.882C74.6034 202.916 75.7234 202.188 76.9694 202.188C79.0414 202.188 80.7214 203.966 80.7214 206.15C80.7214 208.32 79.0414 210.098 76.9694 210.098ZM76.7594 208.74C78.1874 208.74 79.3494 207.578 79.3494 206.15C79.3494 204.708 78.1874 203.532 76.7594 203.532C75.3034 203.532 74.1414 204.708 74.1414 206.15C74.1414 207.578 75.3034 208.74 76.7594 208.74ZM83.534 210H82.176V199.08H83.534V210ZM86.2253 201.516C85.7493 201.516 85.3573 201.124 85.3573 200.648C85.3573 200.172 85.7493 199.78 86.2253 199.78C86.6873 199.78 87.0793 200.172 87.0793 200.648C87.0793 201.124 86.6873 201.516 86.2253 201.516ZM86.8973 210H85.5393V202.3H86.8973V210ZM92.3885 210.112C90.2045 210.112 88.4405 208.32 88.4405 206.136C88.4405 203.966 90.2045 202.202 92.3885 202.202C93.7185 202.202 94.8945 202.86 95.6225 203.868L94.4885 204.624C94.0125 203.994 93.2425 203.588 92.3885 203.588C90.9605 203.588 89.8265 204.736 89.8265 206.136C89.8265 207.564 90.9605 208.712 92.3885 208.712C93.2705 208.712 94.0545 208.278 94.5165 207.606L95.6505 208.362C94.9505 209.412 93.7465 210.112 92.3885 210.112ZM104.88 210H103.438V201.166H100.316V199.78H108.002V201.166H104.88V210ZM112.331 210.098C110.259 210.098 108.579 208.32 108.579 206.15C108.579 203.966 110.259 202.188 112.331 202.188C113.591 202.188 114.725 202.944 115.201 203.924L115.271 202.3H116.531V210H115.271L115.201 208.39C114.725 209.356 113.591 210.098 112.331 210.098ZM112.555 208.74C113.997 208.74 115.159 207.578 115.159 206.15C115.159 204.708 113.997 203.532 112.555 203.532C111.127 203.532 109.965 204.708 109.965 206.15C109.965 207.578 111.127 208.74 112.555 208.74ZM119.887 210H118.529V199.08H119.887V210ZM123.195 210H121.893V199.08H123.195V205.744L126.639 202.3H128.263L125.323 205.366L128.655 210H127.045L124.441 206.388L123.195 207.592V210ZM130.547 204.162C130.085 204.162 129.707 203.784 129.707 203.322C129.707 202.846 130.085 202.468 130.547 202.468C131.009 202.468 131.387 202.846 131.387 203.322C131.387 203.784 131.009 204.162 130.547 204.162ZM130.547 209.818C130.085 209.818 129.707 209.44 129.707 208.978C129.707 208.502 130.085 208.124 130.547 208.124C131.009 208.124 131.387 208.502 131.387 208.978C131.387 209.44 131.009 209.818 130.547 209.818ZM141.188 210H137.086V199.78H140.74C142.63 199.78 143.89 200.872 143.89 202.426C143.89 203.364 143.414 204.092 142.658 204.526C143.75 204.89 144.506 205.786 144.506 207.06C144.506 208.754 143.176 210 141.188 210ZM138.528 201.11V204.064L140.796 204.05C141.79 204.036 142.476 203.434 142.476 202.622C142.476 201.796 141.888 201.11 140.712 201.11H138.528ZM138.528 205.338V208.6H141.146C142.322 208.6 143.022 207.914 143.022 206.962C143.022 205.996 142.252 205.338 141.23 205.338H138.528ZM146.751 201.516C146.275 201.516 145.883 201.124 145.883 200.648C145.883 200.172 146.275 199.78 146.751 199.78C147.213 199.78 147.605 200.172 147.605 200.648C147.605 201.124 147.213 201.516 146.751 201.516ZM147.423 210H146.065V202.3H147.423V210ZM152.704 213.22C151.402 213.22 150.142 212.632 149.414 211.68L150.45 210.882C150.982 211.512 151.864 211.904 152.774 211.904C154.258 211.904 155.546 211.05 155.546 209.02V208.432C155.084 209.37 153.964 210.098 152.718 210.098C150.646 210.098 148.966 208.32 148.966 206.15C148.966 203.966 150.646 202.188 152.718 202.188C153.978 202.188 155.112 202.944 155.588 203.924L155.658 202.3H156.918V208.796C156.918 211.778 155.126 213.22 152.704 213.22ZM152.942 208.74C154.384 208.74 155.546 207.578 155.546 206.15C155.546 204.708 154.384 203.532 152.942 203.532C151.514 203.532 150.352 204.708 150.352 206.15C150.352 207.578 151.514 208.74 152.942 208.74ZM166.02 210H162.884V199.78H166.02C169.198 199.78 171.396 202.034 171.396 204.876C171.396 207.746 169.282 210 166.02 210ZM164.326 201.194V208.572H166.02C168.456 208.572 169.898 206.906 169.898 204.862C169.898 202.888 168.372 201.194 166.02 201.194H164.326ZM176.384 210.098C174.312 210.098 172.632 208.32 172.632 206.15C172.632 203.966 174.312 202.188 176.384 202.188C177.644 202.188 178.778 202.944 179.254 203.924L179.324 202.3H180.584V210H179.324L179.254 208.39C178.778 209.356 177.644 210.098 176.384 210.098ZM176.608 208.74C178.05 208.74 179.212 207.578 179.212 206.15C179.212 204.708 178.05 203.532 176.608 203.532C175.18 203.532 174.018 204.708 174.018 206.15C174.018 207.578 175.18 208.74 176.608 208.74ZM185.522 210.126C184.108 210.126 182.932 209.272 182.932 207.13V203.532H181.896V202.3H182.974L183.142 199.78H184.29V202.3H186.138V203.532H184.29V207.116C184.29 208.222 184.836 208.796 185.704 208.796C185.9 208.796 186.11 208.768 186.292 208.698L186.642 209.916C186.32 210.056 185.928 210.126 185.522 210.126ZM190.986 210.098C188.914 210.098 187.234 208.32 187.234 206.15C187.234 203.966 188.914 202.188 190.986 202.188C192.246 202.188 193.38 202.944 193.856 203.924L193.926 202.3H195.186V210H193.926L193.856 208.39C193.38 209.356 192.246 210.098 190.986 210.098ZM191.21 208.74C192.652 208.74 193.814 207.578 193.814 206.15C193.814 204.708 192.652 203.532 191.21 203.532C189.782 203.532 188.62 204.708 188.62 206.15C188.62 207.578 189.782 208.74 191.21 208.74ZM24.62 227.126C22.17 227.126 20.63 225.978 20.63 224.158C20.63 222.8 21.568 222.058 22.688 221.512C22.184 220.896 21.638 220.168 21.638 219.09C21.638 217.564 23.024 216.57 24.676 216.57C26.356 216.57 27.616 217.592 27.616 219.104C27.616 220.63 26.188 221.372 24.802 222.002L27.406 224.718C28.05 224.032 28.218 223.038 28.036 222.212L29.296 221.904C29.548 223.43 29.17 224.788 28.26 225.74L29.394 227H27.658L27.168 226.482C26.496 226.888 25.628 227.126 24.62 227.126ZM23.934 220.966C25.124 220.476 26.272 220.07 26.272 219.132C26.272 218.208 25.376 217.83 24.662 217.83C23.864 217.83 23.024 218.236 23.024 219.132C23.024 219.902 23.514 220.476 23.934 220.966ZM24.62 225.838C25.32 225.838 25.852 225.684 26.272 225.418L23.57 222.59C22.702 222.982 21.988 223.416 21.988 224.186C21.988 225.348 23.206 225.838 24.62 225.838ZM35.4232 227H33.8272L37.5652 216.78H39.1332L42.8712 227H41.3032L40.3232 224.34H36.3892L35.4232 227ZM38.3492 218.726L36.8092 222.982H39.9032L38.3492 218.726ZM45.6681 227H44.2261V216.78H45.6681V227ZM52.319 218.516C51.843 218.516 51.451 218.124 51.451 217.648C51.451 217.172 51.843 216.78 52.319 216.78C52.781 216.78 53.173 217.172 53.173 217.648C53.173 218.124 52.781 218.516 52.319 218.516ZM52.991 227H51.633V219.3H52.991V227ZM56.3543 227H54.9963V219.3H56.2563L56.3263 220.658C56.7463 219.846 57.5723 219.188 58.7483 219.188C60.5403 219.188 61.8983 220.42 61.8983 223.08V227H60.5263V223.08C60.5263 221.33 59.5743 220.532 58.4403 220.532C57.3203 220.532 56.3543 221.316 56.3543 223.08V227ZM70.8787 227.154C69.5627 227.154 68.2747 226.706 67.1967 225.544L68.1067 224.62C68.8347 225.348 69.7447 225.81 70.8927 225.824C72.1247 225.824 72.9927 225.236 72.9927 224.214C72.9927 221.736 67.3927 222.842 67.3927 219.286C67.3927 217.774 68.6247 216.612 70.7247 216.612C71.8307 216.612 73.2307 217.06 74.1267 218.264L73.1047 219.062C72.6007 218.362 71.6767 217.956 70.7947 217.942C69.5767 217.928 68.7927 218.502 68.7927 219.272C68.7927 221.512 74.4067 220.448 74.4067 224.144C74.4067 225.992 72.9367 227.168 70.8787 227.154ZM79.537 227.112C77.353 227.112 75.589 225.32 75.589 223.136C75.589 220.966 77.353 219.202 79.537 219.202C80.867 219.202 82.043 219.86 82.771 220.868L81.637 221.624C81.161 220.994 80.391 220.588 79.537 220.588C78.109 220.588 76.975 221.736 76.975 223.136C76.975 224.564 78.109 225.712 79.537 225.712C80.419 225.712 81.203 225.278 81.665 224.606L82.799 225.362C82.099 226.412 80.895 227.112 79.537 227.112ZM85.0085 218.516C84.5325 218.516 84.1405 218.124 84.1405 217.648C84.1405 217.172 84.5325 216.78 85.0085 216.78C85.4705 216.78 85.8625 217.172 85.8625 217.648C85.8625 218.124 85.4705 218.516 85.0085 218.516ZM85.6805 227H84.3225V219.3H85.6805V227ZM91.3117 227.112C88.9737 227.112 87.2237 225.32 87.2237 223.136C87.2237 220.966 88.9737 219.202 91.1297 219.202C93.3697 219.202 95.0357 220.966 95.0357 223.136C95.0357 223.318 95.0077 223.584 94.9937 223.78H88.6937C88.9037 224.942 89.9817 225.824 91.3117 225.824C92.2637 225.824 93.0197 225.432 93.5097 224.83L94.6157 225.516C93.8877 226.482 92.6137 227.112 91.3117 227.112ZM88.6797 222.66H93.6217C93.5517 221.47 92.5577 220.476 91.1437 220.476C89.7857 220.476 88.7637 221.47 88.6797 222.66ZM97.9305 227H96.5725V219.3H97.8325L97.9025 220.658C98.3225 219.846 99.1485 219.188 100.324 219.188C102.116 219.188 103.474 220.42 103.474 223.08V227H102.102V223.08C102.102 221.33 101.15 220.532 100.016 220.532C98.8965 220.532 97.9305 221.316 97.9305 223.08V227ZM108.071 227.126C106.657 227.126 105.481 226.272 105.481 224.13V220.532H104.445V219.3H105.523L105.691 216.78H106.839V219.3H108.687V220.532H106.839V224.116C106.839 225.222 107.385 225.796 108.253 225.796C108.449 225.796 108.659 225.768 108.841 225.698L109.191 226.916C108.869 227.056 108.477 227.126 108.071 227.126ZM111.327 218.516C110.851 218.516 110.459 218.124 110.459 217.648C110.459 217.172 110.851 216.78 111.327 216.78C111.789 216.78 112.181 217.172 112.181 217.648C112.181 218.124 111.789 218.516 111.327 218.516ZM111.999 227H110.641V219.3H111.999V227ZM115.656 220.532V227.014L114.298 226.986V220.532H113.318V219.3H114.298V219.006C114.298 216.682 115.516 215.87 116.986 215.87C117.308 215.87 117.616 215.94 117.882 216.01L117.462 217.242C117.336 217.214 117.14 217.186 117.014 217.186C116.244 217.186 115.656 217.62 115.656 219.006V219.3H119.534V227.014L118.162 227V220.532H115.656ZM118.834 218.516C118.358 218.516 117.98 218.124 117.98 217.648C117.98 217.172 118.358 216.78 118.834 216.78C119.296 216.78 119.688 217.172 119.688 217.648C119.688 218.124 119.296 218.516 118.834 218.516ZM125.01 227.112C122.826 227.112 121.062 225.32 121.062 223.136C121.062 220.966 122.826 219.202 125.01 219.202C126.34 219.202 127.516 219.86 128.244 220.868L127.11 221.624C126.634 220.994 125.864 220.588 125.01 220.588C123.582 220.588 122.448 221.736 122.448 223.136C122.448 224.564 123.582 225.712 125.01 225.712C125.892 225.712 126.676 225.278 127.138 224.606L128.272 225.362C127.572 226.412 126.368 227.112 125.01 227.112ZM135.205 227H133.763V216.78H137.641C139.713 216.78 141.085 218.222 141.085 219.986C141.085 221.414 140.147 222.618 138.747 222.954L141.253 227H139.573L137.249 223.206H135.205V227ZM135.205 218.194V221.792H137.613C138.845 221.792 139.601 220.966 139.601 219.986C139.601 219.034 138.845 218.194 137.613 218.194H135.205ZM145.945 227.112C143.607 227.112 141.857 225.32 141.857 223.136C141.857 220.966 143.607 219.202 145.763 219.202C148.003 219.202 149.669 220.966 149.669 223.136C149.669 223.318 149.641 223.584 149.627 223.78H143.327C143.537 224.942 144.615 225.824 145.945 225.824C146.897 225.824 147.653 225.432 148.143 224.83L149.249 225.516C148.521 226.482 147.247 227.112 145.945 227.112ZM143.313 222.66H148.255C148.185 221.47 147.191 220.476 145.777 220.476C144.419 220.476 143.397 221.47 143.313 222.66ZM153.97 227.14C152.864 227.14 151.436 226.776 150.54 225.796L151.478 224.9C151.996 225.474 153.004 225.852 153.97 225.852C154.978 225.852 155.678 225.46 155.678 224.788C155.678 223.206 150.806 224.172 150.806 221.316C150.806 220.056 151.954 219.174 153.718 219.174C154.712 219.174 155.972 219.44 156.812 220.448L155.972 221.288C155.44 220.644 154.474 220.406 153.76 220.406C152.836 220.406 152.178 220.742 152.178 221.33C152.178 222.73 157.05 221.862 157.05 224.746C157.05 226.398 155.58 227.14 153.97 227.14ZM162.064 227.112C159.726 227.112 157.976 225.32 157.976 223.136C157.976 220.966 159.726 219.202 161.882 219.202C164.122 219.202 165.788 220.966 165.788 223.136C165.788 223.318 165.76 223.584 165.746 223.78H159.446C159.656 224.942 160.734 225.824 162.064 225.824C163.016 225.824 163.772 225.432 164.262 224.83L165.368 225.516C164.64 226.482 163.366 227.112 162.064 227.112ZM159.432 222.66H164.374C164.304 221.47 163.31 220.476 161.896 220.476C160.538 220.476 159.516 221.47 159.432 222.66ZM170.614 227.098C168.542 227.098 166.862 225.32 166.862 223.15C166.862 220.966 168.542 219.188 170.614 219.188C171.874 219.188 173.008 219.944 173.484 220.924L173.554 219.3H174.814V227H173.554L173.484 225.39C173.008 226.356 171.874 227.098 170.614 227.098ZM170.838 225.74C172.28 225.74 173.442 224.578 173.442 223.15C173.442 221.708 172.28 220.532 170.838 220.532C169.41 220.532 168.248 221.708 168.248 223.15C168.248 224.578 169.41 225.74 170.838 225.74ZM178.171 227H176.813V219.3H178.073L178.157 220.56C178.605 219.734 179.473 219.244 180.607 219.258C180.803 219.258 180.999 219.272 181.181 219.3L180.901 220.616C180.817 220.602 180.719 220.588 180.635 220.588C179.333 220.588 178.171 221.316 178.171 223.444V227ZM185.562 227.112C183.378 227.112 181.614 225.32 181.614 223.136C181.614 220.966 183.378 219.202 185.562 219.202C186.892 219.202 188.068 219.86 188.796 220.868L187.662 221.624C187.186 220.994 186.416 220.588 185.562 220.588C184.134 220.588 183 221.736 183 223.136C183 224.564 184.134 225.712 185.562 225.712C186.444 225.712 187.228 225.278 187.69 224.606L188.824 225.362C188.124 226.412 186.92 227.112 185.562 227.112ZM191.651 227H190.293V216.08H191.651V220.63C192.071 219.832 192.897 219.188 194.045 219.188C195.837 219.188 197.195 220.42 197.195 223.08V227H195.823V223.08C195.823 221.33 194.871 220.532 193.737 220.532C192.617 220.532 191.651 221.316 191.651 223.08V227Z" fill="black"/>
<rect y="240.5" width="10" height="10" fill="#003D63"/>
<path d="M27.714 251H20.28V249.614L24.06 246.044C24.704 245.456 25.208 244.868 25.208 244.182C25.208 243.37 24.62 242.852 23.878 242.852C23.178 242.852 22.688 243.342 22.464 243.832L20.378 243.118C20.784 241.676 22.212 240.584 23.864 240.584C25.866 240.584 27.476 241.956 27.476 244.196C27.476 245.484 26.552 246.562 25.6 247.472L23.934 248.886H27.714V251ZM30.9732 245.456C29.6012 245.456 28.6352 244.35 28.6352 242.684C28.6352 241.046 29.6012 239.968 30.9732 239.968C32.3452 239.968 33.2972 241.046 33.2972 242.684C33.2972 244.35 32.3452 245.456 30.9732 245.456ZM31.8692 251H30.3292L35.9852 240.066H37.5252L31.8692 251ZM30.9592 244.112C31.4912 244.112 31.9532 243.734 31.9532 242.684C31.9532 241.69 31.4912 241.312 30.9592 241.312C30.4692 241.312 29.9792 241.69 29.9792 242.684C29.9792 243.734 30.4692 244.112 30.9592 244.112ZM36.8952 251.14C35.5232 251.14 34.5572 250.034 34.5572 248.368C34.5572 246.73 35.5232 245.652 36.8952 245.652C38.2532 245.652 39.2052 246.73 39.2052 248.368C39.2052 250.034 38.2532 251.14 36.8952 251.14ZM36.8812 249.796C37.3992 249.796 37.8612 249.418 37.8612 248.368C37.8612 247.374 37.3992 246.996 36.8812 246.996C36.3772 246.996 35.9012 247.374 35.9012 248.368C35.9012 249.418 36.3772 249.796 36.8812 249.796ZM49.0939 246.45H43.9419V245.316H49.0939V246.45ZM56.1818 251H54.7398V240.78H58.6178C60.6898 240.78 62.0618 242.222 62.0618 243.986C62.0618 245.414 61.1238 246.618 59.7238 246.954L62.2298 251H60.5498L58.2258 247.206H56.1818V251ZM56.1818 242.194V245.792H58.5898C59.8218 245.792 60.5778 244.966 60.5778 243.986C60.5778 243.034 59.8218 242.194 58.5898 242.194H56.1818ZM66.9211 251.112C64.5831 251.112 62.8331 249.32 62.8331 247.136C62.8331 244.966 64.5831 243.202 66.7391 243.202C68.9791 243.202 70.6451 244.966 70.6451 247.136C70.6451 247.318 70.6171 247.584 70.6031 247.78H64.3031C64.5131 248.942 65.5911 249.824 66.9211 249.824C67.8731 249.824 68.6291 249.432 69.1191 248.83L70.2251 249.516C69.4971 250.482 68.2231 251.112 66.9211 251.112ZM64.2891 246.66H69.2311C69.1611 245.47 68.1671 244.476 66.7531 244.476C65.3951 244.476 64.3731 245.47 64.2891 246.66ZM73.5398 251H72.1818V243.3H73.4418L73.5118 244.658C73.9318 243.846 74.7578 243.188 75.9338 243.188C77.7258 243.188 79.0838 244.42 79.0838 247.08V251H77.7118V247.08C77.7118 245.33 76.7598 244.532 75.6258 244.532C74.5058 244.532 73.5398 245.316 73.5398 247.08V251ZM84.5442 251.112C82.2062 251.112 80.4562 249.32 80.4562 247.136C80.4562 244.966 82.2062 243.202 84.3622 243.202C86.6022 243.202 88.2682 244.966 88.2682 247.136C88.2682 247.318 88.2402 247.584 88.2262 247.78H81.9262C82.1362 248.942 83.2142 249.824 84.5442 249.824C85.4962 249.824 86.2522 249.432 86.7422 248.83L87.8482 249.516C87.1202 250.482 85.8462 251.112 84.5442 251.112ZM81.9122 246.66H86.8542C86.7842 245.47 85.7902 244.476 84.3762 244.476C83.0182 244.476 81.9962 245.47 81.9122 246.66ZM92.8214 251H91.4634L88.7754 243.3H90.2314L92.1494 248.9L94.0114 243.3H95.3974L97.2734 248.9L99.1914 243.3H100.647L97.9454 251H96.6014L94.7114 245.47L92.8214 251ZM104.907 251.098C102.835 251.098 101.155 249.32 101.155 247.15C101.155 244.966 102.835 243.188 104.907 243.188C106.167 243.188 107.301 243.944 107.777 244.924L107.847 243.3H109.107V251H107.847L107.777 249.39C107.301 250.356 106.167 251.098 104.907 251.098ZM105.131 249.74C106.573 249.74 107.735 248.578 107.735 247.15C107.735 245.708 106.573 244.532 105.131 244.532C103.703 244.532 102.541 245.708 102.541 247.15C102.541 248.578 103.703 249.74 105.131 249.74ZM115.292 251.098C114.032 251.098 112.898 250.356 112.436 249.39L112.366 251H111.106V240.08H112.464V244.882C112.926 243.916 114.046 243.188 115.292 243.188C117.364 243.188 119.044 244.966 119.044 247.15C119.044 249.32 117.364 251.098 115.292 251.098ZM115.082 249.74C116.51 249.74 117.672 248.578 117.672 247.15C117.672 245.708 116.51 244.532 115.082 244.532C113.626 244.532 112.464 245.708 112.464 247.15C112.464 248.578 113.626 249.74 115.082 249.74ZM121.856 251H120.498V240.08H121.856V251ZM127.488 251.112C125.15 251.112 123.4 249.32 123.4 247.136C123.4 244.966 125.15 243.202 127.306 243.202C129.546 243.202 131.212 244.966 131.212 247.136C131.212 247.318 131.184 247.584 131.17 247.78H124.87C125.08 248.942 126.158 249.824 127.488 249.824C128.44 249.824 129.196 249.432 129.686 248.83L130.792 249.516C130.064 250.482 128.79 251.112 127.488 251.112ZM124.856 246.66H129.798C129.728 245.47 128.734 244.476 127.32 244.476C125.962 244.476 124.94 245.47 124.856 246.66ZM135.513 251.14C134.407 251.14 132.979 250.776 132.083 249.796L133.021 248.9C133.539 249.474 134.547 249.852 135.513 249.852C136.521 249.852 137.221 249.46 137.221 248.788C137.221 247.206 132.349 248.172 132.349 245.316C132.349 244.056 133.497 243.174 135.261 243.174C136.255 243.174 137.515 243.44 138.355 244.448L137.515 245.288C136.983 244.644 136.017 244.406 135.303 244.406C134.379 244.406 133.721 244.742 133.721 245.33C133.721 246.73 138.593 245.862 138.593 248.746C138.593 250.398 137.123 251.14 135.513 251.14ZM21.806 268H20.21L23.948 257.78H25.516L29.254 268H27.686L26.706 265.34H22.772L21.806 268ZM24.732 259.726L23.192 263.982H26.286L24.732 259.726ZM33.6815 268.112C31.4975 268.112 29.7335 266.32 29.7335 264.136C29.7335 261.966 31.4975 260.202 33.6815 260.202C35.0115 260.202 36.1875 260.86 36.9155 261.868L35.7815 262.624C35.3055 261.994 34.5355 261.588 33.6815 261.588C32.2535 261.588 31.1195 262.736 31.1195 264.136C31.1195 265.564 32.2535 266.712 33.6815 266.712C34.5635 266.712 35.3475 266.278 35.8095 265.606L36.9435 266.362C36.2435 267.412 35.0395 268.112 33.6815 268.112ZM41.6476 268.098C39.5756 268.098 37.8956 266.32 37.8956 264.15C37.8956 261.966 39.5756 260.188 41.6476 260.188C42.9076 260.188 44.0416 260.944 44.5176 261.924L44.5876 260.3H45.8476V268H44.5876L44.5176 266.39C44.0416 267.356 42.9076 268.098 41.6476 268.098ZM41.8716 266.74C43.3136 266.74 44.4756 265.578 44.4756 264.15C44.4756 262.708 43.3136 261.532 41.8716 261.532C40.4436 261.532 39.2816 262.708 39.2816 264.15C39.2816 265.578 40.4436 266.74 41.8716 266.74ZM51.1359 268.098C49.0639 268.098 47.3839 266.32 47.3839 264.15C47.3839 261.966 49.0639 260.188 51.1359 260.188C52.3819 260.188 53.5019 260.916 53.9639 261.882V257.08H55.3359V268H54.0759L54.0059 266.39C53.5299 267.356 52.3959 268.098 51.1359 268.098ZM51.3599 266.74C52.8019 266.74 53.9639 265.578 53.9639 264.15C53.9639 262.708 52.8019 261.532 51.3599 261.532C49.9319 261.532 48.7699 262.708 48.7699 264.15C48.7699 265.578 49.9319 266.74 51.3599 266.74ZM60.9602 268.112C58.6222 268.112 56.8722 266.32 56.8722 264.136C56.8722 261.966 58.6222 260.202 60.7782 260.202C63.0182 260.202 64.6842 261.966 64.6842 264.136C64.6842 264.318 64.6562 264.584 64.6422 264.78H58.3422C58.5522 265.942 59.6302 266.824 60.9602 266.824C61.9122 266.824 62.6682 266.432 63.1582 265.83L64.2642 266.516C63.5362 267.482 62.2622 268.112 60.9602 268.112ZM58.3282 263.66H63.2702C63.2002 262.47 62.2062 261.476 60.7922 261.476C59.4342 261.476 58.4122 262.47 58.3282 263.66ZM67.5789 268H66.2209V260.3H67.4809L67.5509 261.574C67.9429 260.678 68.8109 260.188 69.6509 260.188C70.8829 260.188 71.6809 260.902 72.0029 261.826C72.3249 260.916 73.1229 260.188 74.2429 260.188C75.8809 260.188 77.0989 261.238 77.0989 263.912V268H75.7269V263.912C75.7269 262.148 74.9429 261.532 74.0329 261.532C73.1789 261.532 72.3389 262.148 72.3389 263.912V268H70.9669V263.912C70.9669 262.148 70.1829 261.532 69.2729 261.532C68.3629 261.532 67.5789 262.316 67.5789 264.08V268ZM79.1409 271.164C78.5809 271.164 78.1609 271.066 77.7269 270.884L78.1329 269.666C78.3709 269.764 78.7629 269.862 79.0849 269.862C79.9529 269.862 80.5129 269.036 80.9609 267.846L77.8809 260.3H79.3509L81.5909 265.998L83.8169 260.3H85.2729L82.3329 268C81.4929 270.212 80.6109 271.164 79.1409 271.164ZM95.2254 268.168C92.3134 268.168 89.9614 265.802 89.9614 262.89C89.9614 259.992 92.3134 257.64 95.2254 257.64C98.1234 257.64 100.475 259.992 100.475 262.89C100.475 265.802 98.1234 268.168 95.2254 268.168ZM95.2254 266.684C97.2974 266.684 99.0054 265.004 99.0054 262.876C99.0054 260.79 97.2974 259.11 95.2254 259.11C93.1394 259.11 91.4314 260.79 91.4314 262.876C91.4314 265.004 93.1394 266.684 95.2254 266.684ZM103.522 268H102.164V260.3H103.424L103.494 261.658C103.914 260.846 104.74 260.188 105.916 260.188C107.708 260.188 109.066 261.42 109.066 264.08V268H107.694V264.08C107.694 262.33 106.742 261.532 105.608 261.532C104.488 261.532 103.522 262.316 103.522 264.08V268ZM112.259 268H110.901V257.08H112.259V268ZM114.95 259.516C114.474 259.516 114.082 259.124 114.082 258.648C114.082 258.172 114.474 257.78 114.95 257.78C115.412 257.78 115.804 258.172 115.804 258.648C115.804 259.124 115.412 259.516 114.95 259.516ZM115.622 268H114.264V260.3H115.622V268ZM118.985 268H117.627V260.3H118.887L118.957 261.658C119.377 260.846 120.203 260.188 121.379 260.188C123.171 260.188 124.529 261.42 124.529 264.08V268H123.157V264.08C123.157 262.33 122.205 261.532 121.071 261.532C119.951 261.532 118.985 262.316 118.985 264.08V268ZM129.989 268.112C127.651 268.112 125.901 266.32 125.901 264.136C125.901 261.966 127.651 260.202 129.807 260.202C132.047 260.202 133.713 261.966 133.713 264.136C133.713 264.318 133.685 264.584 133.671 264.78H127.371C127.581 265.942 128.659 266.824 129.989 266.824C130.941 266.824 131.697 266.432 132.187 265.83L133.293 266.516C132.565 267.482 131.291 268.112 129.989 268.112ZM127.357 263.66H132.299C132.229 262.47 131.235 261.476 129.821 261.476C128.463 261.476 127.441 262.47 127.357 263.66Z" fill="black"/>
<g clip-path="url(#clip0_3003_2115)">
<path d="M51 61.037V0H155V50.296H112.037V61.037H51Z" fill="#F36D20"/>
<path d="M51 93.259V64.444H115.445V53.703H155V93.259H51Z" fill="#FFAA4D"/>
<path d="M133.518 96.6666H51V104H133.518V96.6666Z" fill="#003D63"/>
<path d="M155 96.6666H136.926V104H155V96.6666Z" fill="#3F91BA"/>
</g>
<defs>
<clipPath id="clip0_3003_2115">
<rect width="104" height="104" fill="white" transform="translate(51)"/>
</clipPath>
</defs>
</svg>
