<svg width="198" height="261" viewBox="0 0 198 261" fill="none" xmlns="http://www.w3.org/2000/svg">
<rect y="117.5" width="10" height="10" fill="#F36D20"/>
<path d="M20.906 128.14C19.268 128.14 17.882 127.216 17.35 125.816L19.534 125.018C19.73 125.522 20.318 125.872 20.948 125.872C21.76 125.872 22.432 125.256 22.432 124.43C22.432 123.604 21.774 122.988 20.976 122.988C20.5 122.988 20.038 123.212 19.772 123.562H17.504L17.91 117.78H24.322V119.894H20.038L19.94 121.364C20.29 121.112 20.85 120.916 21.34 120.916C23.3 120.916 24.728 122.386 24.728 124.486C24.728 126.6 23.006 128.14 20.906 128.14ZM29.2784 128.14C27.2064 128.14 25.5404 126.6 25.5404 124.486C25.5404 123.688 25.7784 122.946 26.2124 122.372L29.3764 117.766H32.1344L29.8104 121.014C31.5464 121.112 33.0444 122.554 33.0444 124.486C33.0444 126.6 31.3504 128.14 29.2784 128.14ZM29.2784 125.872C30.1044 125.872 30.7484 125.256 30.7484 124.486C30.7484 123.716 30.1044 123.114 29.2784 123.114C28.4804 123.114 27.8364 123.716 27.8364 124.486C27.8364 125.256 28.4804 125.872 29.2784 125.872ZM36.1079 122.456C34.7359 122.456 33.7699 121.35 33.7699 119.684C33.7699 118.046 34.7359 116.968 36.1079 116.968C37.4799 116.968 38.4319 118.046 38.4319 119.684C38.4319 121.35 37.4799 122.456 36.1079 122.456ZM37.0039 128H35.4639L41.1199 117.066H42.6599L37.0039 128ZM36.0939 121.112C36.6259 121.112 37.0879 120.734 37.0879 119.684C37.0879 118.69 36.6259 118.312 36.0939 118.312C35.6039 118.312 35.1139 118.69 35.1139 119.684C35.1139 120.734 35.6039 121.112 36.0939 121.112ZM42.0299 128.14C40.6579 128.14 39.6919 127.034 39.6919 125.368C39.6919 123.73 40.6579 122.652 42.0299 122.652C43.3879 122.652 44.3399 123.73 44.3399 125.368C44.3399 127.034 43.3879 128.14 42.0299 128.14ZM42.0159 126.796C42.5339 126.796 42.9959 126.418 42.9959 125.368C42.9959 124.374 42.5339 123.996 42.0159 123.996C41.5119 123.996 41.0359 124.374 41.0359 125.368C41.0359 126.418 41.5119 126.796 42.0159 126.796Z" fill="black"/>
<path d="M64.95 128.168C62.038 128.168 59.686 125.802 59.686 122.89C59.686 119.992 62.038 117.64 64.95 117.64C66.616 117.64 68.114 118.41 69.08 119.628L67.89 120.51C67.19 119.656 66.126 119.11 64.95 119.11C62.864 119.11 61.156 120.79 61.156 122.876C61.156 125.004 62.864 126.684 64.95 126.684C66.154 126.684 67.232 126.124 67.918 125.228L69.178 126.012C68.226 127.314 66.686 128.168 64.95 128.168ZM74.035 128.112C71.851 128.112 70.087 126.32 70.087 124.136C70.087 121.966 71.851 120.202 74.035 120.202C76.205 120.202 77.983 121.966 77.983 124.136C77.983 126.32 76.205 128.112 74.035 128.112ZM74.035 126.712C75.449 126.712 76.597 125.564 76.597 124.136C76.597 122.736 75.449 121.588 74.035 121.588C72.607 121.588 71.473 122.736 71.473 124.136C71.473 125.564 72.607 126.712 74.035 126.712ZM80.8894 128H79.5314V120.3H80.7914L80.8614 121.658C81.2814 120.846 82.1074 120.188 83.2834 120.188C85.0754 120.188 86.4334 121.42 86.4334 124.08V128H85.0614V124.08C85.0614 122.33 84.1094 121.532 82.9754 121.532C81.8554 121.532 80.8894 122.316 80.8894 124.08V128ZM89.9198 121.532V128.014L88.5618 127.986V121.532H87.5818V120.3H88.5618V120.006C88.5618 117.682 89.7798 116.87 91.2498 116.87C91.5998 116.87 92.0058 116.94 92.2858 117.038L91.9218 118.256C91.7538 118.228 91.5438 118.186 91.3618 118.186C90.4938 118.186 89.9198 118.62 89.9198 120.006V120.3H91.9078V121.532H89.9198ZM96.6106 128.112C94.2726 128.112 92.5226 126.32 92.5226 124.136C92.5226 121.966 94.2726 120.202 96.4286 120.202C98.6686 120.202 100.335 121.966 100.335 124.136C100.335 124.318 100.307 124.584 100.293 124.78H93.9926C94.2026 125.942 95.2806 126.824 96.6106 126.824C97.5626 126.824 98.3186 126.432 98.8086 125.83L99.9146 126.516C99.1866 127.482 97.9126 128.112 96.6106 128.112ZM93.9786 123.66H98.9206C98.8506 122.47 97.8566 121.476 96.4426 121.476C95.0846 121.476 94.0626 122.47 93.9786 123.66ZM103.229 128H101.871V120.3H103.131L103.215 121.56C103.663 120.734 104.531 120.244 105.665 120.258C105.861 120.258 106.057 120.272 106.239 120.3L105.959 121.616C105.875 121.602 105.777 121.588 105.693 121.588C104.391 121.588 103.229 122.316 103.229 124.444V128ZM110.761 128.112C108.423 128.112 106.673 126.32 106.673 124.136C106.673 121.966 108.423 120.202 110.579 120.202C112.819 120.202 114.485 121.966 114.485 124.136C114.485 124.318 114.457 124.584 114.443 124.78H108.143C108.353 125.942 109.431 126.824 110.761 126.824C111.713 126.824 112.469 126.432 112.959 125.83L114.065 126.516C113.337 127.482 112.063 128.112 110.761 128.112ZM108.129 123.66H113.071C113.001 122.47 112.007 121.476 110.593 121.476C109.235 121.476 108.213 122.47 108.129 123.66ZM117.38 128H116.022V120.3H117.282L117.352 121.658C117.772 120.846 118.598 120.188 119.774 120.188C121.566 120.188 122.924 121.42 122.924 124.08V128H121.552V124.08C121.552 122.33 120.6 121.532 119.466 121.532C118.346 121.532 117.38 122.316 117.38 124.08V128ZM128.244 128.112C126.06 128.112 124.296 126.32 124.296 124.136C124.296 121.966 126.06 120.202 128.244 120.202C129.574 120.202 130.75 120.86 131.478 121.868L130.344 122.624C129.868 121.994 129.098 121.588 128.244 121.588C126.816 121.588 125.682 122.736 125.682 124.136C125.682 125.564 126.816 126.712 128.244 126.712C129.126 126.712 129.91 126.278 130.372 125.606L131.506 126.362C130.806 127.412 129.602 128.112 128.244 128.112ZM136.546 128.112C134.208 128.112 132.458 126.32 132.458 124.136C132.458 121.966 134.208 120.202 136.364 120.202C138.604 120.202 140.27 121.966 140.27 124.136C140.27 124.318 140.242 124.584 140.228 124.78H133.928C134.138 125.942 135.216 126.824 136.546 126.824C137.498 126.824 138.254 126.432 138.744 125.83L139.85 126.516C139.122 127.482 137.848 128.112 136.546 128.112ZM133.914 123.66H138.856C138.786 122.47 137.792 121.476 136.378 121.476C135.02 121.476 133.998 122.47 133.914 123.66ZM144.571 128.14C143.465 128.14 142.037 127.776 141.141 126.796L142.079 125.9C142.597 126.474 143.605 126.852 144.571 126.852C145.579 126.852 146.279 126.46 146.279 125.788C146.279 124.206 141.407 125.172 141.407 122.316C141.407 121.056 142.555 120.174 144.319 120.174C145.313 120.174 146.573 120.44 147.413 121.448L146.573 122.288C146.041 121.644 145.075 121.406 144.361 121.406C143.437 121.406 142.779 121.742 142.779 122.33C142.779 123.73 147.651 122.862 147.651 125.746C147.651 127.398 146.181 128.14 144.571 128.14Z" fill="black"/>
<rect y="143.5" width="10" height="10" fill="#FFAA4D"/>
<path d="M21.018 154H18.75V145.894H17.35V143.78H21.018V154ZM25.7913 154H23.2573L26.9953 145.894H22.2773V143.78H29.7113V145.152L25.7913 154ZM32.7857 148.456C31.4137 148.456 30.4477 147.35 30.4477 145.684C30.4477 144.046 31.4137 142.968 32.7857 142.968C34.1577 142.968 35.1097 144.046 35.1097 145.684C35.1097 147.35 34.1577 148.456 32.7857 148.456ZM33.6817 154H32.1417L37.7977 143.066H39.3377L33.6817 154ZM32.7717 147.112C33.3037 147.112 33.7657 146.734 33.7657 145.684C33.7657 144.69 33.3037 144.312 32.7717 144.312C32.2817 144.312 31.7917 144.69 31.7917 145.684C31.7917 146.734 32.2817 147.112 32.7717 147.112ZM38.7077 154.14C37.3357 154.14 36.3697 153.034 36.3697 151.368C36.3697 149.73 37.3357 148.652 38.7077 148.652C40.0657 148.652 41.0177 149.73 41.0177 151.368C41.0177 153.034 40.0657 154.14 38.7077 154.14ZM38.6937 152.796C39.2117 152.796 39.6737 152.418 39.6737 151.368C39.6737 150.374 39.2117 149.996 38.6937 149.996C38.1897 149.996 37.7137 150.374 37.7137 151.368C37.7137 152.418 38.1897 152.796 38.6937 152.796Z" fill="black"/>
<path d="M63.886 154H62.444V145.166H59.322V143.78H67.008V145.166H63.886V154ZM69.6785 154H68.3205V146.3H69.5805L69.6645 147.56C70.1125 146.734 70.9805 146.244 72.1145 146.258C72.3105 146.258 72.5065 146.272 72.6885 146.3L72.4085 147.616C72.3245 147.602 72.2265 147.588 72.1425 147.588C70.8405 147.588 69.6785 148.316 69.6785 150.444V154ZM76.8742 154.098C74.8022 154.098 73.1222 152.32 73.1222 150.15C73.1222 147.966 74.8022 146.188 76.8742 146.188C78.1342 146.188 79.2682 146.944 79.7442 147.924L79.8142 146.3H81.0742V154H79.8142L79.7442 152.39C79.2682 153.356 78.1342 154.098 76.8742 154.098ZM77.0982 152.74C78.5402 152.74 79.7022 151.578 79.7022 150.15C79.7022 148.708 78.5402 147.532 77.0982 147.532C75.6702 147.532 74.5082 148.708 74.5082 150.15C74.5082 151.578 75.6702 152.74 77.0982 152.74ZM83.7585 145.516C83.2825 145.516 82.8905 145.124 82.8905 144.648C82.8905 144.172 83.2825 143.78 83.7585 143.78C84.2205 143.78 84.6125 144.172 84.6125 144.648C84.6125 145.124 84.2205 145.516 83.7585 145.516ZM84.4305 154H83.0725V146.3H84.4305V154ZM87.7937 154H86.4357V146.3H87.6957L87.7657 147.658C88.1857 146.846 89.0117 146.188 90.1877 146.188C91.9797 146.188 93.3377 147.42 93.3377 150.08V154H91.9657V150.08C91.9657 148.33 91.0137 147.532 89.8797 147.532C88.7597 147.532 87.7937 148.316 87.7937 150.08V154ZM95.8581 145.516C95.3821 145.516 94.9901 145.124 94.9901 144.648C94.9901 144.172 95.3821 143.78 95.8581 143.78C96.3201 143.78 96.7121 144.172 96.7121 144.648C96.7121 145.124 96.3201 145.516 95.8581 145.516ZM96.5301 154H95.1721V146.3H96.5301V154ZM99.8933 154H98.5353V146.3H99.7953L99.8653 147.658C100.285 146.846 101.111 146.188 102.287 146.188C104.079 146.188 105.437 147.42 105.437 150.08V154H104.065V150.08C104.065 148.33 103.113 147.532 101.979 147.532C100.859 147.532 99.8933 148.316 99.8933 150.08V154ZM110.548 157.22C109.246 157.22 107.986 156.632 107.258 155.68L108.294 154.882C108.826 155.512 109.708 155.904 110.618 155.904C112.102 155.904 113.39 155.05 113.39 153.02V152.432C112.928 153.37 111.808 154.098 110.562 154.098C108.49 154.098 106.81 152.32 106.81 150.15C106.81 147.966 108.49 146.188 110.562 146.188C111.822 146.188 112.956 146.944 113.432 147.924L113.502 146.3H114.762V152.796C114.762 155.778 112.97 157.22 110.548 157.22ZM110.786 152.74C112.228 152.74 113.39 151.578 113.39 150.15C113.39 148.708 112.228 147.532 110.786 147.532C109.358 147.532 108.196 148.708 108.196 150.15C108.196 151.578 109.358 152.74 110.786 152.74Z" fill="black"/>
<rect y="169.5" width="10" height="10" fill="#003D63"/>
<path d="M21.018 180H18.75V171.894H17.35V169.78H21.018V180ZM29.9913 180H22.5573V178.614L26.3373 175.044C26.9813 174.456 27.4853 173.868 27.4853 173.182C27.4853 172.37 26.8973 171.852 26.1553 171.852C25.4553 171.852 24.9653 172.342 24.7413 172.832L22.6553 172.118C23.0613 170.676 24.4893 169.584 26.1413 169.584C28.1433 169.584 29.7533 170.956 29.7533 173.196C29.7533 174.484 28.8293 175.562 27.8773 176.472L26.2113 177.886H29.9913V180ZM33.2505 174.456C31.8785 174.456 30.9125 173.35 30.9125 171.684C30.9125 170.046 31.8785 168.968 33.2505 168.968C34.6225 168.968 35.5745 170.046 35.5745 171.684C35.5745 173.35 34.6225 174.456 33.2505 174.456ZM34.1465 180H32.6065L38.2625 169.066H39.8025L34.1465 180ZM33.2365 173.112C33.7685 173.112 34.2305 172.734 34.2305 171.684C34.2305 170.69 33.7685 170.312 33.2365 170.312C32.7465 170.312 32.2565 170.69 32.2565 171.684C32.2565 172.734 32.7465 173.112 33.2365 173.112ZM39.1725 180.14C37.8005 180.14 36.8345 179.034 36.8345 177.368C36.8345 175.73 37.8005 174.652 39.1725 174.652C40.5305 174.652 41.4825 175.73 41.4825 177.368C41.4825 179.034 40.5305 180.14 39.1725 180.14ZM39.1585 178.796C39.6765 178.796 40.1385 178.418 40.1385 177.368C40.1385 176.374 39.6765 175.996 39.1585 175.996C38.6545 175.996 38.1785 176.374 38.1785 177.368C38.1785 178.418 38.6545 178.796 39.1585 178.796Z" fill="black"/>
<path d="M63.858 180H62.374L59.266 169.78H60.778L63.158 177.536L65.482 169.766H66.77L69.094 177.536L71.474 169.78H72.986L69.878 180H68.408L66.14 172.23L63.858 180ZM77.0702 180.112C74.8862 180.112 73.1222 178.32 73.1222 176.136C73.1222 173.966 74.8862 172.202 77.0702 172.202C79.2402 172.202 81.0182 173.966 81.0182 176.136C81.0182 178.32 79.2402 180.112 77.0702 180.112ZM77.0702 178.712C78.4842 178.712 79.6322 177.564 79.6322 176.136C79.6322 174.736 78.4842 173.588 77.0702 173.588C75.6422 173.588 74.5082 174.736 74.5082 176.136C74.5082 177.564 75.6422 178.712 77.0702 178.712ZM83.9246 180H82.5666V172.3H83.8266L83.9106 173.56C84.3586 172.734 85.2266 172.244 86.3606 172.258C86.5566 172.258 86.7526 172.272 86.9346 172.3L86.6546 173.616C86.5706 173.602 86.4726 173.588 86.3886 173.588C85.0866 173.588 83.9246 174.316 83.9246 176.444V180ZM89.4741 180H88.1721V169.08H89.4741V175.744L92.9181 172.3H94.5421L91.6021 175.366L94.9341 180H93.3241L90.7201 176.388L89.4741 177.592V180ZM98.798 180.14C97.692 180.14 96.264 179.776 95.368 178.796L96.306 177.9C96.824 178.474 97.832 178.852 98.798 178.852C99.806 178.852 100.506 178.46 100.506 177.788C100.506 176.206 95.634 177.172 95.634 174.316C95.634 173.056 96.782 172.174 98.546 172.174C99.54 172.174 100.8 172.44 101.64 173.448L100.8 174.288C100.268 173.644 99.302 173.406 98.588 173.406C97.664 173.406 97.006 173.742 97.006 174.33C97.006 175.73 101.878 174.862 101.878 177.746C101.878 179.398 100.408 180.14 98.798 180.14ZM104.856 180H103.498V169.08H104.856V173.63C105.276 172.832 106.102 172.188 107.25 172.188C109.042 172.188 110.4 173.42 110.4 176.08V180H109.028V176.08C109.028 174.33 108.076 173.532 106.942 173.532C105.822 173.532 104.856 174.316 104.856 176.08V180ZM115.721 180.112C113.537 180.112 111.773 178.32 111.773 176.136C111.773 173.966 113.537 172.202 115.721 172.202C117.891 172.202 119.669 173.966 119.669 176.136C119.669 178.32 117.891 180.112 115.721 180.112ZM115.721 178.712C117.135 178.712 118.283 177.564 118.283 176.136C118.283 174.736 117.135 173.588 115.721 173.588C114.293 173.588 113.159 174.736 113.159 176.136C113.159 177.564 114.293 178.712 115.721 178.712ZM122.479 183.08H121.121V172.3H122.381L122.451 173.896C122.913 172.944 124.047 172.202 125.307 172.202C127.379 172.202 129.059 173.966 129.059 176.136C129.059 178.32 127.379 180.112 125.307 180.112C124.061 180.112 122.941 179.37 122.479 178.418V183.08ZM125.097 178.754C126.525 178.754 127.687 177.578 127.687 176.136C127.687 174.708 126.525 173.546 125.097 173.546C123.641 173.546 122.479 174.708 122.479 176.136C122.479 177.578 123.641 178.754 125.097 178.754ZM133.374 180.14C132.268 180.14 130.84 179.776 129.944 178.796L130.882 177.9C131.4 178.474 132.408 178.852 133.374 178.852C134.382 178.852 135.082 178.46 135.082 177.788C135.082 176.206 130.21 177.172 130.21 174.316C130.21 173.056 131.358 172.174 133.122 172.174C134.116 172.174 135.376 172.44 136.216 173.448L135.376 174.288C134.844 173.644 133.878 173.406 133.164 173.406C132.24 173.406 131.582 173.742 131.582 174.33C131.582 175.73 136.454 174.862 136.454 177.746C136.454 179.398 134.984 180.14 133.374 180.14Z" fill="black"/>
<rect y="195.5" width="10" height="10" fill="#3F91BA"/>
<path d="M20.514 206H17.98L21.718 197.894H17V195.78H24.434V197.152L20.514 206ZM27.5083 200.456C26.1363 200.456 25.1703 199.35 25.1703 197.684C25.1703 196.046 26.1363 194.968 27.5083 194.968C28.8803 194.968 29.8323 196.046 29.8323 197.684C29.8323 199.35 28.8803 200.456 27.5083 200.456ZM28.4043 206H26.8643L32.5203 195.066H34.0603L28.4043 206ZM27.4943 199.112C28.0263 199.112 28.4883 198.734 28.4883 197.684C28.4883 196.69 28.0263 196.312 27.4943 196.312C27.0043 196.312 26.5143 196.69 26.5143 197.684C26.5143 198.734 27.0043 199.112 27.4943 199.112ZM33.4303 206.14C32.0583 206.14 31.0923 205.034 31.0923 203.368C31.0923 201.73 32.0583 200.652 33.4303 200.652C34.7883 200.652 35.7403 201.73 35.7403 203.368C35.7403 205.034 34.7883 206.14 33.4303 206.14ZM33.4163 204.796C33.9343 204.796 34.3963 204.418 34.3963 203.368C34.3963 202.374 33.9343 201.996 33.4163 201.996C32.9123 201.996 32.4363 202.374 32.4363 203.368C32.4363 204.418 32.9123 204.796 33.4163 204.796Z" fill="black"/>
<path d="M61.576 206H60.148V195.78H66.742V197.166H61.576V200.162H66.462V201.548H61.576V206ZM71.5421 206.098C69.4701 206.098 67.7901 204.32 67.7901 202.15C67.7901 199.966 69.4701 198.188 71.5421 198.188C72.8021 198.188 73.9361 198.944 74.4121 199.924L74.4821 198.3H75.7421V206H74.4821L74.4121 204.39C73.9361 205.356 72.8021 206.098 71.5421 206.098ZM71.7661 204.74C73.2081 204.74 74.3701 203.578 74.3701 202.15C74.3701 200.708 73.2081 199.532 71.7661 199.532C70.3381 199.532 69.1761 200.708 69.1761 202.15C69.1761 203.578 70.3381 204.74 71.7661 204.74ZM78.4264 197.516C77.9504 197.516 77.5584 197.124 77.5584 196.648C77.5584 196.172 77.9504 195.78 78.4264 195.78C78.8884 195.78 79.2804 196.172 79.2804 196.648C79.2804 197.124 78.8884 197.516 78.4264 197.516ZM79.0984 206H77.7404V198.3H79.0984V206ZM82.4617 206H81.1037V198.3H82.3637L82.4477 199.56C82.8957 198.734 83.7637 198.244 84.8977 198.258C85.0937 198.258 85.2897 198.272 85.4717 198.3L85.1917 199.616C85.1077 199.602 85.0097 199.588 84.9257 199.588C83.6237 199.588 82.4617 200.316 82.4617 202.444V206ZM89.5148 206.14C88.4088 206.14 86.9808 205.776 86.0848 204.796L87.0228 203.9C87.5408 204.474 88.5488 204.852 89.5148 204.852C90.5228 204.852 91.2228 204.46 91.2228 203.788C91.2228 202.206 86.3508 203.172 86.3508 200.316C86.3508 199.056 87.4988 198.174 89.2628 198.174C90.2568 198.174 91.5168 198.44 92.3568 199.448L91.5168 200.288C90.9848 199.644 90.0188 199.406 89.3048 199.406C88.3808 199.406 87.7228 199.742 87.7228 200.33C87.7228 201.73 92.5948 200.862 92.5948 203.746C92.5948 205.398 91.1248 206.14 89.5148 206.14Z" fill="black"/>
<rect y="221.5" width="10" height="10" fill="#88C1D8"/>
<path d="M20.906 232.14C19.268 232.14 17.882 231.216 17.35 229.816L19.534 229.018C19.73 229.522 20.318 229.872 20.948 229.872C21.76 229.872 22.432 229.256 22.432 228.43C22.432 227.604 21.774 226.988 20.976 226.988C20.5 226.988 20.038 227.212 19.772 227.562H17.504L17.91 221.78H24.322V223.894H20.038L19.94 225.364C20.29 225.112 20.85 224.916 21.34 224.916C23.3 224.916 24.728 226.386 24.728 228.486C24.728 230.6 23.006 232.14 20.906 232.14ZM27.8364 226.456C26.4644 226.456 25.4984 225.35 25.4984 223.684C25.4984 222.046 26.4644 220.968 27.8364 220.968C29.2084 220.968 30.1604 222.046 30.1604 223.684C30.1604 225.35 29.2084 226.456 27.8364 226.456ZM28.7324 232H27.1924L32.8484 221.066H34.3884L28.7324 232ZM27.8224 225.112C28.3544 225.112 28.8164 224.734 28.8164 223.684C28.8164 222.69 28.3544 222.312 27.8224 222.312C27.3324 222.312 26.8424 222.69 26.8424 223.684C26.8424 224.734 27.3324 225.112 27.8224 225.112ZM33.7584 232.14C32.3864 232.14 31.4204 231.034 31.4204 229.368C31.4204 227.73 32.3864 226.652 33.7584 226.652C35.1164 226.652 36.0684 227.73 36.0684 229.368C36.0684 231.034 35.1164 232.14 33.7584 232.14ZM33.7444 230.796C34.2624 230.796 34.7244 230.418 34.7244 229.368C34.7244 228.374 34.2624 227.996 33.7444 227.996C33.2404 227.996 32.7644 228.374 32.7644 229.368C32.7644 230.418 33.2404 230.796 33.7444 230.796Z" fill="black"/>
<path d="M64.95 232.168C62.038 232.168 59.686 229.802 59.686 226.89C59.686 223.992 62.038 221.64 64.95 221.64C66.616 221.64 68.114 222.41 69.08 223.628L67.89 224.51C67.19 223.656 66.126 223.11 64.95 223.11C62.864 223.11 61.156 224.79 61.156 226.876C61.156 229.004 62.864 230.684 64.95 230.684C66.154 230.684 67.232 230.124 67.918 229.228L69.178 230.012C68.226 231.314 66.686 232.168 64.95 232.168ZM74.035 232.112C71.851 232.112 70.087 230.32 70.087 228.136C70.087 225.966 71.851 224.202 74.035 224.202C76.205 224.202 77.983 225.966 77.983 228.136C77.983 230.32 76.205 232.112 74.035 232.112ZM74.035 230.712C75.449 230.712 76.597 229.564 76.597 228.136C76.597 226.736 75.449 225.588 74.035 225.588C72.607 225.588 71.473 226.736 71.473 228.136C71.473 229.564 72.607 230.712 74.035 230.712ZM80.8894 232H79.5314V224.3H80.7914L80.8614 225.574C81.2534 224.678 82.1214 224.188 82.9614 224.188C84.1934 224.188 84.9914 224.902 85.3134 225.826C85.6354 224.916 86.4334 224.188 87.5534 224.188C89.1914 224.188 90.4094 225.238 90.4094 227.912V232H89.0374V227.912C89.0374 226.148 88.2534 225.532 87.3434 225.532C86.4894 225.532 85.6494 226.148 85.6494 227.912V232H84.2774V227.912C84.2774 226.148 83.4934 225.532 82.5834 225.532C81.6734 225.532 80.8894 226.316 80.8894 228.08V232ZM93.618 235.08H92.26V224.3H93.52L93.59 225.896C94.052 224.944 95.186 224.202 96.446 224.202C98.518 224.202 100.198 225.966 100.198 228.136C100.198 230.32 98.518 232.112 96.446 232.112C95.2 232.112 94.08 231.37 93.618 230.418V235.08ZM96.236 230.754C97.664 230.754 98.826 229.578 98.826 228.136C98.826 226.708 97.664 225.546 96.236 225.546C94.78 225.546 93.618 226.708 93.618 228.136C93.618 229.578 94.78 230.754 96.236 230.754ZM105.374 232.112C103.036 232.112 101.286 230.32 101.286 228.136C101.286 225.966 103.036 224.202 105.192 224.202C107.432 224.202 109.098 225.966 109.098 228.136C109.098 228.318 109.07 228.584 109.056 228.78H102.756C102.966 229.942 104.044 230.824 105.374 230.824C106.326 230.824 107.082 230.432 107.572 229.83L108.678 230.516C107.95 231.482 106.676 232.112 105.374 232.112ZM102.742 227.66H107.684C107.614 226.47 106.62 225.476 105.206 225.476C103.848 225.476 102.826 226.47 102.742 227.66ZM113.397 232.126C111.983 232.126 110.807 231.272 110.807 229.13V225.532H109.771V224.3H110.849L111.017 221.78H112.165V224.3H114.013V225.532H112.165V229.116C112.165 230.222 112.711 230.796 113.579 230.796C113.775 230.796 113.985 230.768 114.167 230.698L114.517 231.916C114.195 232.056 113.803 232.126 113.397 232.126ZM116.653 223.516C116.177 223.516 115.785 223.124 115.785 222.648C115.785 222.172 116.177 221.78 116.653 221.78C117.115 221.78 117.507 222.172 117.507 222.648C117.507 223.124 117.115 223.516 116.653 223.516ZM117.325 232H115.967V224.3H117.325V232ZM122.27 232.126C120.856 232.126 119.68 231.272 119.68 229.13V225.532H118.644V224.3H119.722L119.89 221.78H121.038V224.3H122.886V225.532H121.038V229.116C121.038 230.222 121.584 230.796 122.452 230.796C122.648 230.796 122.858 230.768 123.04 230.698L123.39 231.916C123.068 232.056 122.676 232.126 122.27 232.126ZM125.526 223.516C125.05 223.516 124.658 223.124 124.658 222.648C124.658 222.172 125.05 221.78 125.526 221.78C125.988 221.78 126.38 222.172 126.38 222.648C126.38 223.124 125.988 223.516 125.526 223.516ZM126.198 232H124.84V224.3H126.198V232ZM131.689 232.112C129.505 232.112 127.741 230.32 127.741 228.136C127.741 225.966 129.505 224.202 131.689 224.202C133.859 224.202 135.637 225.966 135.637 228.136C135.637 230.32 133.859 232.112 131.689 232.112ZM131.689 230.712C133.103 230.712 134.251 229.564 134.251 228.136C134.251 226.736 133.103 225.588 131.689 225.588C130.261 225.588 129.127 226.736 129.127 228.136C129.127 229.564 130.261 230.712 131.689 230.712ZM138.544 232H137.186V224.3H138.446L138.516 225.658C138.936 224.846 139.762 224.188 140.938 224.188C142.73 224.188 144.088 225.42 144.088 228.08V232H142.716V228.08C142.716 226.33 141.764 225.532 140.63 225.532C139.51 225.532 138.544 226.316 138.544 228.08V232ZM148.851 232.14C147.745 232.14 146.317 231.776 145.421 230.796L146.359 229.9C146.877 230.474 147.885 230.852 148.851 230.852C149.859 230.852 150.559 230.46 150.559 229.788C150.559 228.206 145.687 229.172 145.687 226.316C145.687 225.056 146.835 224.174 148.599 224.174C149.593 224.174 150.853 224.44 151.693 225.448L150.853 226.288C150.321 225.644 149.355 225.406 148.641 225.406C147.717 225.406 147.059 225.742 147.059 226.33C147.059 227.73 151.931 226.862 151.931 229.746C151.931 231.398 150.461 232.14 148.851 232.14Z" fill="black"/>
<rect y="247.5" width="10" height="10" fill="#A3A3A3"/>
<path d="M20.99 258.196C19.254 258.196 17.812 257.314 17.224 255.956L19.24 255.032C19.492 255.522 20.192 255.928 20.934 255.928C21.816 255.928 22.39 255.438 22.39 254.766C22.39 253.982 21.69 253.59 20.724 253.59H20.15V251.49H20.766C21.382 251.49 22.012 251.224 22.012 250.608C22.012 250.09 21.522 249.768 20.892 249.768C20.416 249.768 19.996 249.964 19.786 250.244L17.686 249.446C18.176 248.34 19.52 247.556 20.92 247.556C22.684 247.556 24.294 248.452 24.294 250.44C24.294 251.308 23.818 252.008 23.118 252.47C24.028 252.974 24.658 253.814 24.658 254.948C24.658 256.936 23.09 258.196 20.99 258.196ZM27.9185 252.456C26.5465 252.456 25.5805 251.35 25.5805 249.684C25.5805 248.046 26.5465 246.968 27.9185 246.968C29.2905 246.968 30.2425 248.046 30.2425 249.684C30.2425 251.35 29.2905 252.456 27.9185 252.456ZM28.8145 258H27.2745L32.9305 247.066H34.4705L28.8145 258ZM27.9045 251.112C28.4365 251.112 28.8985 250.734 28.8985 249.684C28.8985 248.69 28.4365 248.312 27.9045 248.312C27.4145 248.312 26.9245 248.69 26.9245 249.684C26.9245 250.734 27.4145 251.112 27.9045 251.112ZM33.8405 258.14C32.4685 258.14 31.5025 257.034 31.5025 255.368C31.5025 253.73 32.4685 252.652 33.8405 252.652C35.1985 252.652 36.1505 253.73 36.1505 255.368C36.1505 257.034 35.1985 258.14 33.8405 258.14ZM33.8265 256.796C34.3445 256.796 34.8065 256.418 34.8065 255.368C34.8065 254.374 34.3445 253.996 33.8265 253.996C33.3225 253.996 32.8465 254.374 32.8465 255.368C32.8465 256.418 33.3225 256.796 33.8265 256.796Z" fill="black"/>
<path d="M63.326 258.154C62.01 258.154 60.722 257.706 59.644 256.544L60.554 255.62C61.282 256.348 62.192 256.81 63.34 256.824C64.572 256.824 65.44 256.236 65.44 255.214C65.44 252.736 59.84 253.842 59.84 250.286C59.84 248.774 61.072 247.612 63.172 247.612C64.278 247.612 65.678 248.06 66.574 249.264L65.552 250.062C65.048 249.362 64.124 248.956 63.242 248.942C62.024 248.928 61.24 249.502 61.24 250.272C61.24 252.512 66.854 251.448 66.854 255.144C66.854 256.992 65.384 258.168 63.326 258.154ZM72.1242 258.112C69.7862 258.112 68.0362 256.32 68.0362 254.136C68.0362 251.966 69.7862 250.202 71.9422 250.202C74.1822 250.202 75.8482 251.966 75.8482 254.136C75.8482 254.318 75.8202 254.584 75.8062 254.78H69.5062C69.7162 255.942 70.7942 256.824 72.1242 256.824C73.0762 256.824 73.8322 256.432 74.3222 255.83L75.4282 256.516C74.7002 257.482 73.4262 258.112 72.1242 258.112ZM69.4922 253.66H74.4342C74.3642 252.47 73.3702 251.476 71.9562 251.476C70.5982 251.476 69.5762 252.47 69.4922 253.66ZM78.743 258H77.385V250.3H78.645L78.715 251.574C79.107 250.678 79.975 250.188 80.815 250.188C82.047 250.188 82.845 250.902 83.167 251.826C83.489 250.916 84.287 250.188 85.407 250.188C87.045 250.188 88.263 251.238 88.263 253.912V258H86.891V253.912C86.891 252.148 86.107 251.532 85.197 251.532C84.343 251.532 83.503 252.148 83.503 253.912V258H82.131V253.912C82.131 252.148 81.347 251.532 80.437 251.532C79.527 251.532 78.743 252.316 78.743 254.08V258ZM90.7995 249.516C90.3235 249.516 89.9315 249.124 89.9315 248.648C89.9315 248.172 90.3235 247.78 90.7995 247.78C91.2615 247.78 91.6535 248.172 91.6535 248.648C91.6535 249.124 91.2615 249.516 90.7995 249.516ZM91.4715 258H90.1135V250.3H91.4715V258ZM94.8348 258H93.4768V250.3H94.7368L94.8068 251.658C95.2268 250.846 96.0528 250.188 97.2288 250.188C99.0208 250.188 100.379 251.42 100.379 254.08V258H99.0068V254.08C99.0068 252.33 98.0548 251.532 96.9208 251.532C95.8008 251.532 94.8348 252.316 94.8348 254.08V258ZM105.503 258.098C103.431 258.098 101.751 256.32 101.751 254.15C101.751 251.966 103.431 250.188 105.503 250.188C106.763 250.188 107.897 250.944 108.373 251.924L108.443 250.3H109.703V258H108.443L108.373 256.39C107.897 257.356 106.763 258.098 105.503 258.098ZM105.727 256.74C107.169 256.74 108.331 255.578 108.331 254.15C108.331 252.708 107.169 251.532 105.727 251.532C104.299 251.532 103.137 252.708 103.137 254.15C103.137 255.578 104.299 256.74 105.727 256.74ZM113.059 258H111.701V250.3H112.961L113.045 251.56C113.493 250.734 114.361 250.244 115.495 250.258C115.691 250.258 115.887 250.272 116.069 250.3L115.789 251.616C115.705 251.602 115.607 251.588 115.523 251.588C114.221 251.588 113.059 252.316 113.059 254.444V258ZM120.112 258.14C119.006 258.14 117.578 257.776 116.682 256.796L117.62 255.9C118.138 256.474 119.146 256.852 120.112 256.852C121.12 256.852 121.82 256.46 121.82 255.788C121.82 254.206 116.948 255.172 116.948 252.316C116.948 251.056 118.096 250.174 119.86 250.174C120.854 250.174 122.114 250.44 122.954 251.448L122.114 252.288C121.582 251.644 120.616 251.406 119.902 251.406C118.978 251.406 118.32 251.742 118.32 252.33C118.32 253.73 123.192 252.862 123.192 255.746C123.192 257.398 121.722 258.14 120.112 258.14Z" fill="black"/>
<g clip-path="url(#clip0_3003_2114)">
<path d="M52 61.087V0H156V50.359H113.086V61.087H52Z" fill="#F36D20"/>
<path d="M52 82.544V64.37H116.37V53.642H156V71.815H80.901V82.544H52Z" fill="#FFAA4D"/>
<path d="M52 93.272V85.827H84.185V75.099H156V82.544H102.358V93.272H52Z" fill="#003D63"/>
<path d="M137.826 104V93.272H105.642V85.827H155.999V104H137.826Z" fill="#3F91BA"/>
<path d="M134.543 96.5556H84.1846V104H134.543V96.5556Z" fill="#88C1D8"/>
<path d="M80.9017 96.5556H52V104H80.9017V96.5556Z" fill="#A3A3A3"/>
</g>
<defs>
<clipPath id="clip0_3003_2114">
<rect width="104" height="104" fill="white" transform="translate(52)"/>
</clipPath>
</defs>
</svg>
