<svg width="211" height="261" viewBox="0 0 211 261" fill="none" xmlns="http://www.w3.org/2000/svg">
<path d="M8.37 31.3C4.86 31.3 1.89 29.32 0.75 26.32L5.43 24.61C5.85 25.69 7.11 26.44 8.46 26.44C10.2 26.44 11.64 25.12 11.64 23.35C11.64 21.58 10.23 20.26 8.52 20.26C7.5 20.26 6.51 20.74 5.94 21.49H1.08L1.95 9.1H15.69V13.63H6.51L6.3 16.78C7.05 16.24 8.25 15.82 9.3 15.82C13.5 15.82 16.56 18.97 16.56 23.47C16.56 28 12.87 31.3 8.37 31.3ZM26.3109 31.3C21.8709 31.3 18.3009 28 18.3009 23.47C18.3009 21.76 18.8109 20.17 19.7409 18.94L26.5209 9.07H32.4309L27.4509 16.03C31.1709 16.24 34.3809 19.33 34.3809 23.47C34.3809 28 30.7509 31.3 26.3109 31.3ZM26.3109 26.44C28.0809 26.44 29.4609 25.12 29.4609 23.47C29.4609 21.82 28.0809 20.53 26.3109 20.53C24.6009 20.53 23.2209 21.82 23.2209 23.47C23.2209 25.12 24.6009 26.44 26.3109 26.44ZM40.9455 19.12C38.0055 19.12 35.9355 16.75 35.9355 13.18C35.9355 9.67 38.0055 7.36 40.9455 7.36C43.8855 7.36 45.9255 9.67 45.9255 13.18C45.9255 16.75 43.8855 19.12 40.9455 19.12ZM42.8655 31H39.5655L51.6855 7.57H54.9855L42.8655 31ZM40.9155 16.24C42.0555 16.24 43.0455 15.43 43.0455 13.18C43.0455 11.05 42.0555 10.24 40.9155 10.24C39.8655 10.24 38.8155 11.05 38.8155 13.18C38.8155 15.43 39.8655 16.24 40.9155 16.24ZM53.6355 31.3C50.6955 31.3 48.6255 28.93 48.6255 25.36C48.6255 21.85 50.6955 19.54 53.6355 19.54C56.5455 19.54 58.5855 21.85 58.5855 25.36C58.5855 28.93 56.5455 31.3 53.6355 31.3ZM53.6055 28.42C54.7155 28.42 55.7055 27.61 55.7055 25.36C55.7055 23.23 54.7155 22.42 53.6055 22.42C52.5255 22.42 51.5055 23.23 51.5055 25.36C51.5055 27.61 52.5255 28.42 53.6055 28.42Z" fill="#F36D20"/>
<path d="M78.8 24.692C75.472 24.692 72.784 21.988 72.784 18.66C72.784 15.348 75.472 12.66 78.8 12.66C80.704 12.66 82.416 13.54 83.52 14.932L82.16 15.94C81.36 14.964 80.144 14.34 78.8 14.34C76.416 14.34 74.464 16.26 74.464 18.644C74.464 21.076 76.416 22.996 78.8 22.996C80.176 22.996 81.408 22.356 82.192 21.332L83.632 22.228C82.544 23.716 80.784 24.692 78.8 24.692ZM89.1829 24.628C86.6869 24.628 84.6709 22.58 84.6709 20.084C84.6709 17.604 86.6869 15.588 89.1829 15.588C91.6629 15.588 93.6949 17.604 93.6949 20.084C93.6949 22.58 91.6629 24.628 89.1829 24.628ZM89.1829 23.028C90.7989 23.028 92.1109 21.716 92.1109 20.084C92.1109 18.484 90.7989 17.172 89.1829 17.172C87.5509 17.172 86.2549 18.484 86.2549 20.084C86.2549 21.716 87.5509 23.028 89.1829 23.028ZM97.0165 24.5H95.4645V15.7H96.9045L96.9845 17.252C97.4645 16.324 98.4085 15.572 99.7525 15.572C101.801 15.572 103.352 16.98 103.352 20.02V24.5H101.785V20.02C101.785 18.02 100.697 17.108 99.4005 17.108C98.1205 17.108 97.0165 18.004 97.0165 20.02V24.5ZM107.337 17.108V24.516L105.785 24.484V17.108H104.665V15.7H105.785V15.364C105.785 12.708 107.177 11.78 108.857 11.78C109.257 11.78 109.721 11.86 110.041 11.972L109.625 13.364C109.433 13.332 109.193 13.284 108.985 13.284C107.993 13.284 107.337 13.78 107.337 15.364V15.7H109.609V17.108H107.337ZM114.984 24.628C112.312 24.628 110.312 22.58 110.312 20.084C110.312 17.604 112.312 15.588 114.776 15.588C117.336 15.588 119.24 17.604 119.24 20.084C119.24 20.292 119.208 20.596 119.192 20.82H111.992C112.232 22.148 113.464 23.156 114.984 23.156C116.072 23.156 116.936 22.708 117.496 22.02L118.76 22.804C117.928 23.908 116.472 24.628 114.984 24.628ZM111.976 19.54H117.624C117.544 18.18 116.408 17.044 114.792 17.044C113.24 17.044 112.072 18.18 111.976 19.54ZM122.548 24.5H120.996V15.7H122.436L122.532 17.14C123.044 16.196 124.036 15.636 125.332 15.652C125.556 15.652 125.78 15.668 125.988 15.7L125.668 17.204C125.572 17.188 125.46 17.172 125.364 17.172C123.876 17.172 122.548 18.004 122.548 20.436V24.5ZM131.155 24.628C128.483 24.628 126.483 22.58 126.483 20.084C126.483 17.604 128.483 15.588 130.947 15.588C133.507 15.588 135.411 17.604 135.411 20.084C135.411 20.292 135.379 20.596 135.363 20.82H128.163C128.403 22.148 129.635 23.156 131.155 23.156C132.243 23.156 133.107 22.708 133.667 22.02L134.931 22.804C134.099 23.908 132.643 24.628 131.155 24.628ZM128.147 19.54H133.795C133.715 18.18 132.579 17.044 130.963 17.044C129.411 17.044 128.243 18.18 128.147 19.54ZM138.72 24.5H137.168V15.7H138.608L138.688 17.252C139.168 16.324 140.112 15.572 141.456 15.572C143.504 15.572 145.056 16.98 145.056 20.02V24.5H143.488V20.02C143.488 18.02 142.4 17.108 141.104 17.108C139.824 17.108 138.72 18.004 138.72 20.02V24.5ZM151.136 24.628C148.64 24.628 146.624 22.58 146.624 20.084C146.624 17.604 148.64 15.588 151.136 15.588C152.656 15.588 154 16.34 154.832 17.492L153.536 18.356C152.992 17.636 152.112 17.172 151.136 17.172C149.504 17.172 148.208 18.484 148.208 20.084C148.208 21.716 149.504 23.028 151.136 23.028C152.144 23.028 153.04 22.532 153.568 21.764L154.864 22.628C154.064 23.828 152.688 24.628 151.136 24.628ZM160.624 24.628C157.952 24.628 155.952 22.58 155.952 20.084C155.952 17.604 157.952 15.588 160.416 15.588C162.976 15.588 164.88 17.604 164.88 20.084C164.88 20.292 164.848 20.596 164.832 20.82H157.632C157.872 22.148 159.104 23.156 160.624 23.156C161.712 23.156 162.576 22.708 163.136 22.02L164.4 22.804C163.568 23.908 162.112 24.628 160.624 24.628ZM157.616 19.54H163.264C163.184 18.18 162.048 17.044 160.432 17.044C158.88 17.044 157.712 18.18 157.616 19.54ZM169.796 24.66C168.532 24.66 166.9 24.244 165.876 23.124L166.948 22.1C167.54 22.756 168.692 23.188 169.796 23.188C170.948 23.188 171.748 22.74 171.748 21.972C171.748 20.164 166.18 21.268 166.18 18.004C166.18 16.564 167.492 15.556 169.508 15.556C170.644 15.556 172.084 15.86 173.044 17.012L172.084 17.972C171.476 17.236 170.372 16.964 169.556 16.964C168.5 16.964 167.748 17.348 167.748 18.02C167.748 19.62 173.316 18.628 173.316 21.924C173.316 23.812 171.636 24.66 169.796 24.66Z" fill="black"/>
<path d="M8.61 76H3.75V58.63H0.75V54.1H8.61V76ZM18.8386 76H13.4086L21.4186 58.63H11.3086V54.1H27.2386V57.04L18.8386 76ZM33.8264 64.12C30.8864 64.12 28.8164 61.75 28.8164 58.18C28.8164 54.67 30.8864 52.36 33.8264 52.36C36.7664 52.36 38.8064 54.67 38.8064 58.18C38.8064 61.75 36.7664 64.12 33.8264 64.12ZM35.7464 76H32.4464L44.5664 52.57H47.8664L35.7464 76ZM33.7964 61.24C34.9364 61.24 35.9264 60.43 35.9264 58.18C35.9264 56.05 34.9364 55.24 33.7964 55.24C32.7464 55.24 31.6964 56.05 31.6964 58.18C31.6964 60.43 32.7464 61.24 33.7964 61.24ZM46.5164 76.3C43.5764 76.3 41.5064 73.93 41.5064 70.36C41.5064 66.85 43.5764 64.54 46.5164 64.54C49.4264 64.54 51.4664 66.85 51.4664 70.36C51.4664 73.93 49.4264 76.3 46.5164 76.3ZM46.4864 73.42C47.5964 73.42 48.5864 72.61 48.5864 70.36C48.5864 68.23 47.5964 67.42 46.4864 67.42C45.4064 67.42 44.3864 68.23 44.3864 70.36C44.3864 72.61 45.4064 73.42 46.4864 73.42Z" fill="#FFA13A"/>
<path d="M77.584 69.5H75.936V59.404H72.368V57.82H81.152V59.404H77.584V69.5ZM84.204 69.5H82.652V60.7H84.092L84.188 62.14C84.7 61.196 85.692 60.636 86.988 60.652C87.212 60.652 87.436 60.668 87.644 60.7L87.324 62.204C87.228 62.188 87.116 62.172 87.02 62.172C85.532 62.172 84.204 63.004 84.204 65.436V69.5ZM92.4276 69.612C90.0596 69.612 88.1396 67.58 88.1396 65.1C88.1396 62.604 90.0596 60.572 92.4276 60.572C93.8676 60.572 95.1636 61.436 95.7076 62.556L95.7876 60.7H97.2276V69.5H95.7876L95.7076 67.66C95.1636 68.764 93.8676 69.612 92.4276 69.612ZM92.6836 68.06C94.3316 68.06 95.6596 66.732 95.6596 65.1C95.6596 63.452 94.3316 62.108 92.6836 62.108C91.0516 62.108 89.7236 63.452 89.7236 65.1C89.7236 66.732 91.0516 68.06 92.6836 68.06ZM100.295 59.804C99.7514 59.804 99.3034 59.356 99.3034 58.812C99.3034 58.268 99.7514 57.82 100.295 57.82C100.823 57.82 101.271 58.268 101.271 58.812C101.271 59.356 100.823 59.804 100.295 59.804ZM101.063 69.5H99.5114V60.7H101.063V69.5ZM104.907 69.5H103.355V60.7H104.795L104.875 62.252C105.355 61.324 106.299 60.572 107.643 60.572C109.691 60.572 111.243 61.98 111.243 65.02V69.5H109.675V65.02C109.675 63.02 108.587 62.108 107.291 62.108C106.011 62.108 104.907 63.004 104.907 65.02V69.5ZM114.124 59.804C113.58 59.804 113.132 59.356 113.132 58.812C113.132 58.268 113.58 57.82 114.124 57.82C114.652 57.82 115.1 58.268 115.1 58.812C115.1 59.356 114.652 59.804 114.124 59.804ZM114.892 69.5H113.34V60.7H114.892V69.5ZM118.735 69.5H117.183V60.7H118.623L118.703 62.252C119.183 61.324 120.127 60.572 121.471 60.572C123.519 60.572 125.071 61.98 125.071 65.02V69.5H123.503V65.02C123.503 63.02 122.415 62.108 121.119 62.108C119.839 62.108 118.735 63.004 118.735 65.02V69.5ZM130.912 73.18C129.424 73.18 127.984 72.508 127.152 71.42L128.336 70.508C128.944 71.228 129.952 71.676 130.992 71.676C132.688 71.676 134.16 70.7 134.16 68.38V67.708C133.632 68.78 132.352 69.612 130.928 69.612C128.56 69.612 126.64 67.58 126.64 65.1C126.64 62.604 128.56 60.572 130.928 60.572C132.368 60.572 133.664 61.436 134.208 62.556L134.288 60.7H135.728V68.124C135.728 71.532 133.68 73.18 130.912 73.18ZM131.184 68.06C132.832 68.06 134.16 66.732 134.16 65.1C134.16 63.452 132.832 62.108 131.184 62.108C129.552 62.108 128.224 63.452 128.224 65.1C128.224 66.732 129.552 68.06 131.184 68.06Z" fill="black"/>
<path d="M8.61 121H3.75V103.63H0.75V99.1H8.61V121ZM27.8386 121H11.9086V118.03L20.0086 110.38C21.3886 109.12 22.4686 107.86 22.4686 106.39C22.4686 104.65 21.2086 103.54 19.6186 103.54C18.1186 103.54 17.0686 104.59 16.5886 105.64L12.1186 104.11C12.9886 101.02 16.0486 98.68 19.5886 98.68C23.8786 98.68 27.3286 101.62 27.3286 106.42C27.3286 109.18 25.3486 111.49 23.3086 113.44L19.7386 116.47H27.8386V121ZM34.8225 109.12C31.8825 109.12 29.8125 106.75 29.8125 103.18C29.8125 99.67 31.8825 97.36 34.8225 97.36C37.7625 97.36 39.8025 99.67 39.8025 103.18C39.8025 106.75 37.7625 109.12 34.8225 109.12ZM36.7425 121H33.4425L45.5625 97.57H48.8625L36.7425 121ZM34.7925 106.24C35.9325 106.24 36.9225 105.43 36.9225 103.18C36.9225 101.05 35.9325 100.24 34.7925 100.24C33.7425 100.24 32.6925 101.05 32.6925 103.18C32.6925 105.43 33.7425 106.24 34.7925 106.24ZM47.5125 121.3C44.5725 121.3 42.5025 118.93 42.5025 115.36C42.5025 111.85 44.5725 109.54 47.5125 109.54C50.4225 109.54 52.4625 111.85 52.4625 115.36C52.4625 118.93 50.4225 121.3 47.5125 121.3ZM47.4825 118.42C48.5925 118.42 49.5825 117.61 49.5825 115.36C49.5825 113.23 48.5925 112.42 47.4825 112.42C46.4025 112.42 45.3825 113.23 45.3825 115.36C45.3825 117.61 46.4025 118.42 47.4825 118.42Z" fill="#003D63"/>
<path d="M72.552 114.5H70.856L67.304 102.82H69.032L71.752 111.684L74.408 102.804H75.88L78.536 111.684L81.256 102.82H82.984L79.432 114.5H77.752L75.16 105.62L72.552 114.5ZM87.6516 114.628C85.1556 114.628 83.1396 112.58 83.1396 110.084C83.1396 107.604 85.1556 105.588 87.6516 105.588C90.1316 105.588 92.1636 107.604 92.1636 110.084C92.1636 112.58 90.1316 114.628 87.6516 114.628ZM87.6516 113.028C89.2676 113.028 90.5796 111.716 90.5796 110.084C90.5796 108.484 89.2676 107.172 87.6516 107.172C86.0196 107.172 84.7236 108.484 84.7236 110.084C84.7236 111.716 86.0196 113.028 87.6516 113.028ZM95.4853 114.5H93.9333V105.7H95.3733L95.4693 107.14C95.9813 106.196 96.9733 105.636 98.2693 105.652C98.4933 105.652 98.7173 105.668 98.9253 105.7L98.6053 107.204C98.5093 107.188 98.3973 107.172 98.3013 107.172C96.8133 107.172 95.4853 108.004 95.4853 110.436V114.5ZM101.828 114.5H100.34V102.02H101.828V109.636L105.764 105.7H107.62L104.26 109.204L108.068 114.5H106.228L103.252 110.372L101.828 111.748V114.5ZM112.483 114.66C111.219 114.66 109.587 114.244 108.563 113.124L109.635 112.1C110.227 112.756 111.379 113.188 112.483 113.188C113.635 113.188 114.435 112.74 114.435 111.972C114.435 110.164 108.867 111.268 108.867 108.004C108.867 106.564 110.179 105.556 112.195 105.556C113.331 105.556 114.771 105.86 115.731 107.012L114.771 107.972C114.163 107.236 113.059 106.964 112.243 106.964C111.187 106.964 110.435 107.348 110.435 108.02C110.435 109.62 116.003 108.628 116.003 111.924C116.003 113.812 114.323 114.66 112.483 114.66ZM119.407 114.5H117.855V102.02H119.407V107.22C119.887 106.308 120.831 105.572 122.143 105.572C124.191 105.572 125.743 106.98 125.743 110.02V114.5H124.175V110.02C124.175 108.02 123.087 107.108 121.791 107.108C120.511 107.108 119.407 108.004 119.407 110.02V114.5ZM131.824 114.628C129.328 114.628 127.312 112.58 127.312 110.084C127.312 107.604 129.328 105.588 131.824 105.588C134.304 105.588 136.336 107.604 136.336 110.084C136.336 112.58 134.304 114.628 131.824 114.628ZM131.824 113.028C133.44 113.028 134.752 111.716 134.752 110.084C134.752 108.484 133.44 107.172 131.824 107.172C130.192 107.172 128.896 108.484 128.896 110.084C128.896 111.716 130.192 113.028 131.824 113.028ZM139.548 118.02H137.996V105.7H139.436L139.516 107.524C140.044 106.436 141.34 105.588 142.78 105.588C145.148 105.588 147.068 107.604 147.068 110.084C147.068 112.58 145.148 114.628 142.78 114.628C141.356 114.628 140.076 113.78 139.548 112.692V118.02ZM142.54 113.076C144.172 113.076 145.5 111.732 145.5 110.084C145.5 108.452 144.172 107.124 142.54 107.124C140.876 107.124 139.548 108.452 139.548 110.084C139.548 111.732 140.876 113.076 142.54 113.076ZM151.999 114.66C150.735 114.66 149.103 114.244 148.079 113.124L149.151 112.1C149.743 112.756 150.895 113.188 151.999 113.188C153.151 113.188 153.951 112.74 153.951 111.972C153.951 110.164 148.383 111.268 148.383 108.004C148.383 106.564 149.695 105.556 151.711 105.556C152.847 105.556 154.287 105.86 155.247 107.012L154.287 107.972C153.679 107.236 152.575 106.964 151.759 106.964C150.703 106.964 149.951 107.348 149.951 108.02C149.951 109.62 155.519 108.628 155.519 111.924C155.519 113.812 153.839 114.66 151.999 114.66Z" fill="black"/>
<path d="M7.53 166H2.1L10.11 148.63H0V144.1H15.93V147.04L7.53 166ZM22.5178 154.12C19.5778 154.12 17.5078 151.75 17.5078 148.18C17.5078 144.67 19.5778 142.36 22.5178 142.36C25.4578 142.36 27.4978 144.67 27.4978 148.18C27.4978 151.75 25.4578 154.12 22.5178 154.12ZM24.4378 166H21.1378L33.2578 142.57H36.5578L24.4378 166ZM22.4878 151.24C23.6278 151.24 24.6178 150.43 24.6178 148.18C24.6178 146.05 23.6278 145.24 22.4878 145.24C21.4378 145.24 20.3878 146.05 20.3878 148.18C20.3878 150.43 21.4378 151.24 22.4878 151.24ZM35.2078 166.3C32.2678 166.3 30.1978 163.93 30.1978 160.36C30.1978 156.85 32.2678 154.54 35.2078 154.54C38.1178 154.54 40.1578 156.85 40.1578 160.36C40.1578 163.93 38.1178 166.3 35.2078 166.3ZM35.1778 163.42C36.2878 163.42 37.2778 162.61 37.2778 160.36C37.2778 158.23 36.2878 157.42 35.1778 157.42C34.0978 157.42 33.0778 158.23 33.0778 160.36C33.0778 162.61 34.0978 163.42 35.1778 163.42Z" fill="#3992BF"/>
<path d="M69.944 159.5H68.312V147.82H75.848V149.404H69.944V152.828H75.528V154.412H69.944V159.5ZM81.3339 159.612C78.9659 159.612 77.0459 157.58 77.0459 155.1C77.0459 152.604 78.9659 150.572 81.3339 150.572C82.7739 150.572 84.0699 151.436 84.6139 152.556L84.6939 150.7H86.1339V159.5H84.6939L84.6139 157.66C84.0699 158.764 82.7739 159.612 81.3339 159.612ZM81.5899 158.06C83.2379 158.06 84.5659 156.732 84.5659 155.1C84.5659 153.452 83.2379 152.108 81.5899 152.108C79.9579 152.108 78.6299 153.452 78.6299 155.1C78.6299 156.732 79.9579 158.06 81.5899 158.06ZM89.2016 149.804C88.6576 149.804 88.2096 149.356 88.2096 148.812C88.2096 148.268 88.6576 147.82 89.2016 147.82C89.7296 147.82 90.1776 148.268 90.1776 148.812C90.1776 149.356 89.7296 149.804 89.2016 149.804ZM89.9696 159.5H88.4176V150.7H89.9696V159.5ZM93.8134 159.5H92.2614V150.7H93.7014L93.7974 152.14C94.3094 151.196 95.3014 150.636 96.5974 150.652C96.8214 150.652 97.0454 150.668 97.2534 150.7L96.9334 152.204C96.8374 152.188 96.7254 152.172 96.6294 152.172C95.1414 152.172 93.8134 153.004 93.8134 155.436V159.5ZM101.874 159.66C100.61 159.66 98.978 159.244 97.954 158.124L99.026 157.1C99.618 157.756 100.77 158.188 101.874 158.188C103.026 158.188 103.826 157.74 103.826 156.972C103.826 155.164 98.258 156.268 98.258 153.004C98.258 151.564 99.57 150.556 101.586 150.556C102.722 150.556 104.162 150.86 105.122 152.012L104.162 152.972C103.554 152.236 102.45 151.964 101.634 151.964C100.578 151.964 99.826 152.348 99.826 153.02C99.826 154.62 105.394 153.628 105.394 156.924C105.394 158.812 103.714 159.66 101.874 159.66Z" fill="black"/>
<path d="M8.37 211.3C4.86 211.3 1.89 209.32 0.75 206.32L5.43 204.61C5.85 205.69 7.11 206.44 8.46 206.44C10.2 206.44 11.64 205.12 11.64 203.35C11.64 201.58 10.23 200.26 8.52 200.26C7.5 200.26 6.51 200.74 5.94 201.49H1.08L1.95 189.1H15.69V193.63H6.51L6.3 196.78C7.05 196.24 8.25 195.82 9.3 195.82C13.5 195.82 16.56 198.97 16.56 203.47C16.56 208 12.87 211.3 8.37 211.3ZM23.2209 199.12C20.2809 199.12 18.2109 196.75 18.2109 193.18C18.2109 189.67 20.2809 187.36 23.2209 187.36C26.1609 187.36 28.2009 189.67 28.2009 193.18C28.2009 196.75 26.1609 199.12 23.2209 199.12ZM25.1409 211H21.8409L33.9609 187.57H37.2609L25.1409 211ZM23.1909 196.24C24.3309 196.24 25.3209 195.43 25.3209 193.18C25.3209 191.05 24.3309 190.24 23.1909 190.24C22.1409 190.24 21.0909 191.05 21.0909 193.18C21.0909 195.43 22.1409 196.24 23.1909 196.24ZM35.9109 211.3C32.9709 211.3 30.9009 208.93 30.9009 205.36C30.9009 201.85 32.9709 199.54 35.9109 199.54C38.8209 199.54 40.8609 201.85 40.8609 205.36C40.8609 208.93 38.8209 211.3 35.9109 211.3ZM35.8809 208.42C36.9909 208.42 37.9809 207.61 37.9809 205.36C37.9809 203.23 36.9909 202.42 35.8809 202.42C34.8009 202.42 33.7809 203.23 33.7809 205.36C33.7809 207.61 34.8009 208.42 35.8809 208.42Z" fill="#76BAD6"/>
<path d="M73.8 204.692C70.472 204.692 67.784 201.988 67.784 198.66C67.784 195.348 70.472 192.66 73.8 192.66C75.704 192.66 77.416 193.54 78.52 194.932L77.16 195.94C76.36 194.964 75.144 194.34 73.8 194.34C71.416 194.34 69.464 196.26 69.464 198.644C69.464 201.076 71.416 202.996 73.8 202.996C75.176 202.996 76.408 202.356 77.192 201.332L78.632 202.228C77.544 203.716 75.784 204.692 73.8 204.692ZM84.1829 204.628C81.6869 204.628 79.6709 202.58 79.6709 200.084C79.6709 197.604 81.6869 195.588 84.1829 195.588C86.6629 195.588 88.6949 197.604 88.6949 200.084C88.6949 202.58 86.6629 204.628 84.1829 204.628ZM84.1829 203.028C85.7989 203.028 87.1109 201.716 87.1109 200.084C87.1109 198.484 85.7989 197.172 84.1829 197.172C82.5509 197.172 81.2549 198.484 81.2549 200.084C81.2549 201.716 82.5509 203.028 84.1829 203.028ZM92.0165 204.5H90.4645V195.7H91.9045L91.9845 197.156C92.4325 196.132 93.4245 195.572 94.3845 195.572C95.7925 195.572 96.7045 196.388 97.0725 197.444C97.4405 196.404 98.3525 195.572 99.6325 195.572C101.505 195.572 102.897 196.772 102.897 199.828V204.5H101.329V199.828C101.329 197.812 100.433 197.108 99.3925 197.108C98.4165 197.108 97.4565 197.812 97.4565 199.828V204.5H95.8885V199.828C95.8885 197.812 94.9925 197.108 93.9525 197.108C92.9125 197.108 92.0165 198.004 92.0165 200.02V204.5ZM106.563 208.02H105.011V195.7H106.451L106.531 197.524C107.059 196.436 108.355 195.588 109.795 195.588C112.163 195.588 114.083 197.604 114.083 200.084C114.083 202.58 112.163 204.628 109.795 204.628C108.371 204.628 107.091 203.78 106.563 202.692V208.02ZM109.555 203.076C111.187 203.076 112.515 201.732 112.515 200.084C112.515 198.452 111.187 197.124 109.555 197.124C107.891 197.124 106.563 198.452 106.563 200.084C106.563 201.732 107.891 203.076 109.555 203.076ZM119.999 204.628C117.327 204.628 115.327 202.58 115.327 200.084C115.327 197.604 117.327 195.588 119.791 195.588C122.351 195.588 124.255 197.604 124.255 200.084C124.255 200.292 124.223 200.596 124.207 200.82H117.007C117.247 202.148 118.479 203.156 119.999 203.156C121.087 203.156 121.951 202.708 122.511 202.02L123.775 202.804C122.943 203.908 121.487 204.628 119.999 204.628ZM116.991 199.54H122.639C122.559 198.18 121.423 197.044 119.807 197.044C118.255 197.044 117.087 198.18 116.991 199.54ZM129.168 204.644C127.552 204.644 126.208 203.668 126.208 201.22V197.108H125.024V195.7H126.256L126.448 192.82H127.76V195.7H129.872V197.108H127.76V201.204C127.76 202.468 128.384 203.124 129.376 203.124C129.6 203.124 129.84 203.092 130.048 203.012L130.448 204.404C130.08 204.564 129.632 204.644 129.168 204.644ZM132.889 194.804C132.345 194.804 131.897 194.356 131.897 193.812C131.897 193.268 132.345 192.82 132.889 192.82C133.417 192.82 133.865 193.268 133.865 193.812C133.865 194.356 133.417 194.804 132.889 194.804ZM133.657 204.5H132.105V195.7H133.657V204.5ZM139.309 204.644C137.693 204.644 136.349 203.668 136.349 201.22V197.108H135.165V195.7H136.397L136.589 192.82H137.901V195.7H140.013V197.108H137.901V201.204C137.901 202.468 138.525 203.124 139.517 203.124C139.741 203.124 139.981 203.092 140.189 203.012L140.589 204.404C140.221 204.564 139.773 204.644 139.309 204.644ZM143.03 194.804C142.486 194.804 142.038 194.356 142.038 193.812C142.038 193.268 142.486 192.82 143.03 192.82C143.558 192.82 144.006 193.268 144.006 193.812C144.006 194.356 143.558 194.804 143.03 194.804ZM143.798 204.5H142.246V195.7H143.798V204.5ZM150.074 204.628C147.578 204.628 145.562 202.58 145.562 200.084C145.562 197.604 147.578 195.588 150.074 195.588C152.554 195.588 154.586 197.604 154.586 200.084C154.586 202.58 152.554 204.628 150.074 204.628ZM150.074 203.028C151.69 203.028 153.002 201.716 153.002 200.084C153.002 198.484 151.69 197.172 150.074 197.172C148.442 197.172 147.146 198.484 147.146 200.084C147.146 201.716 148.442 203.028 150.074 203.028ZM157.907 204.5H156.355V195.7H157.795L157.875 197.252C158.355 196.324 159.299 195.572 160.643 195.572C162.691 195.572 164.243 196.98 164.243 200.02V204.5H162.675V200.02C162.675 198.02 161.587 197.108 160.291 197.108C159.011 197.108 157.907 198.004 157.907 200.02V204.5ZM169.687 204.66C168.423 204.66 166.791 204.244 165.767 203.124L166.839 202.1C167.431 202.756 168.583 203.188 169.687 203.188C170.839 203.188 171.639 202.74 171.639 201.972C171.639 200.164 166.071 201.268 166.071 198.004C166.071 196.564 167.383 195.556 169.399 195.556C170.535 195.556 171.975 195.86 172.935 197.012L171.975 197.972C171.367 197.236 170.263 196.964 169.447 196.964C168.391 196.964 167.639 197.348 167.639 198.02C167.639 199.62 173.207 198.628 173.207 201.924C173.207 203.812 171.527 204.66 169.687 204.66Z" fill="black"/>
<path d="M8.55 256.42C4.83 256.42 1.74 254.53 0.48 251.62L4.8 249.64C5.34 250.69 6.84 251.56 8.43 251.56C10.32 251.56 11.55 250.51 11.55 249.07C11.55 247.39 10.05 246.55 7.98 246.55H6.75V242.05H8.07C9.39 242.05 10.74 241.48 10.74 240.16C10.74 239.05 9.69 238.36 8.34 238.36C7.32 238.36 6.42 238.78 5.97 239.38L1.47 237.67C2.52 235.3 5.4 233.62 8.4 233.62C12.18 233.62 15.63 235.54 15.63 239.8C15.63 241.66 14.61 243.16 13.11 244.15C15.06 245.23 16.41 247.03 16.41 249.46C16.41 253.72 13.05 256.42 8.55 256.42ZM23.3967 244.12C20.4567 244.12 18.3867 241.75 18.3867 238.18C18.3867 234.67 20.4567 232.36 23.3967 232.36C26.3367 232.36 28.3767 234.67 28.3767 238.18C28.3767 241.75 26.3367 244.12 23.3967 244.12ZM25.3167 256H22.0167L34.1367 232.57H37.4367L25.3167 256ZM23.3667 241.24C24.5067 241.24 25.4967 240.43 25.4967 238.18C25.4967 236.05 24.5067 235.24 23.3667 235.24C22.3167 235.24 21.2667 236.05 21.2667 238.18C21.2667 240.43 22.3167 241.24 23.3667 241.24ZM36.0867 256.3C33.1467 256.3 31.0767 253.93 31.0767 250.36C31.0767 246.85 33.1467 244.54 36.0867 244.54C38.9967 244.54 41.0367 246.85 41.0367 250.36C41.0367 253.93 38.9967 256.3 36.0867 256.3ZM36.0567 253.42C37.1667 253.42 38.1567 252.61 38.1567 250.36C38.1567 248.23 37.1667 247.42 36.0567 247.42C34.9767 247.42 33.9567 248.23 33.9567 250.36C33.9567 252.61 34.9767 253.42 36.0567 253.42Z" fill="#959595"/>
<path d="M71.944 249.676C70.44 249.676 68.968 249.164 67.736 247.836L68.776 246.78C69.608 247.612 70.648 248.14 71.96 248.156C73.368 248.156 74.36 247.484 74.36 246.316C74.36 243.484 67.96 244.748 67.96 240.684C67.96 238.956 69.368 237.628 71.768 237.628C73.032 237.628 74.632 238.14 75.656 239.516L74.488 240.428C73.912 239.628 72.856 239.164 71.848 239.148C70.456 239.132 69.56 239.788 69.56 240.668C69.56 243.228 75.976 242.012 75.976 246.236C75.976 248.348 74.296 249.692 71.944 249.676ZM81.9991 249.628C79.3271 249.628 77.3271 247.58 77.3271 245.084C77.3271 242.604 79.3271 240.588 81.7911 240.588C84.3511 240.588 86.2551 242.604 86.2551 245.084C86.2551 245.292 86.2231 245.596 86.2071 245.82H79.0071C79.2471 247.148 80.4791 248.156 81.9991 248.156C83.0871 248.156 83.9511 247.708 84.5111 247.02L85.7751 247.804C84.9431 248.908 83.4871 249.628 81.9991 249.628ZM78.9911 244.54H84.6391C84.5591 243.18 83.4231 242.044 81.8071 242.044C80.2551 242.044 79.0871 243.18 78.9911 244.54ZM89.5634 249.5H88.0114V240.7H89.4514L89.5314 242.156C89.9794 241.132 90.9714 240.572 91.9314 240.572C93.3394 240.572 94.2514 241.388 94.6194 242.444C94.9874 241.404 95.8994 240.572 97.1794 240.572C99.0514 240.572 100.443 241.772 100.443 244.828V249.5H98.8754V244.828C98.8754 242.812 97.9794 242.108 96.9394 242.108C95.9634 242.108 95.0034 242.812 95.0034 244.828V249.5H93.4354V244.828C93.4354 242.812 92.5394 242.108 91.4994 242.108C90.4594 242.108 89.5634 243.004 89.5634 245.02V249.5ZM103.342 239.804C102.798 239.804 102.35 239.356 102.35 238.812C102.35 238.268 102.798 237.82 103.342 237.82C103.87 237.82 104.318 238.268 104.318 238.812C104.318 239.356 103.87 239.804 103.342 239.804ZM104.11 249.5H102.558V240.7H104.11V249.5ZM107.954 249.5H106.402V240.7H107.842L107.922 242.252C108.402 241.324 109.346 240.572 110.69 240.572C112.738 240.572 114.29 241.98 114.29 245.02V249.5H112.722V245.02C112.722 243.02 111.634 242.108 110.338 242.108C109.058 242.108 107.954 243.004 107.954 245.02V249.5ZM120.146 249.612C117.778 249.612 115.858 247.58 115.858 245.1C115.858 242.604 117.778 240.572 120.146 240.572C121.586 240.572 122.882 241.436 123.426 242.556L123.506 240.7H124.946V249.5H123.506L123.426 247.66C122.882 248.764 121.586 249.612 120.146 249.612ZM120.402 248.06C122.05 248.06 123.378 246.732 123.378 245.1C123.378 243.452 122.05 242.108 120.402 242.108C118.77 242.108 117.442 243.452 117.442 245.1C117.442 246.732 118.77 248.06 120.402 248.06ZM128.782 249.5H127.23V240.7H128.67L128.766 242.14C129.278 241.196 130.27 240.636 131.566 240.652C131.79 240.652 132.014 240.668 132.222 240.7L131.902 242.204C131.806 242.188 131.694 242.172 131.598 242.172C130.11 242.172 128.782 243.004 128.782 245.436V249.5ZM136.843 249.66C135.579 249.66 133.947 249.244 132.923 248.124L133.995 247.1C134.587 247.756 135.739 248.188 136.843 248.188C137.995 248.188 138.795 247.74 138.795 246.972C138.795 245.164 133.227 246.268 133.227 243.004C133.227 241.564 134.539 240.556 136.555 240.556C137.691 240.556 139.131 240.86 140.091 242.012L139.131 242.972C138.523 242.236 137.419 241.964 136.603 241.964C135.547 241.964 134.795 242.348 134.795 243.02C134.795 244.62 140.363 243.628 140.363 246.924C140.363 248.812 138.683 249.66 136.843 249.66Z" fill="black"/>
</svg>
