<svg width="130" height="100" viewBox="0 0 130 100" fill="none" xmlns="http://www.w3.org/2000/svg">
<path d="M72.976 99.9998C71.2532 99.9993 69.5371 99.7831 67.8679 99.3554L35.1906 89.9646L35.3288 94.4707C35.3377 94.761 35.234 95.0434 35.0394 95.2585C34.8448 95.4736 34.5747 95.6043 34.2858 95.6235L2.60015 97.7726C2.29755 97.7881 2.0009 97.6842 1.77346 97.4834C1.66188 97.382 1.57187 97.2595 1.50878 97.1224C1.44569 96.9853 1.41085 96.8365 1.40633 96.6856L0.000502278 50.8199C-0.00816353 50.5297 0.0955851 50.2473 0.289961 50.0321C0.484338 49.817 0.754233 49.6857 1.043 49.6659L32.7281 47.506C33.0307 47.4901 33.3276 47.5935 33.5553 47.7941C33.6668 47.8955 33.7569 48.0184 33.82 48.1555C33.8831 48.2926 33.9179 48.4409 33.9225 48.5919L34.0804 53.7507L48.4627 53.1073H48.467C57.9467 53.1073 62.999 56.5639 69.9932 61.3489L71.1128 62.1128H92.2337C93.4547 62.1127 94.6595 62.3936 95.7554 62.934C96.8512 63.4744 97.8088 64.2597 98.5546 65.2297L116.094 56.7447C121.049 54.8772 125.851 56.1858 128.417 60.0392C130.597 63.3139 130.937 68.6151 126.78 73.0745C126.707 73.1544 126.621 73.2229 126.528 73.2775C115.068 80.0023 103.284 86.3633 93.8154 91.4739C89.5001 93.8043 85.7728 95.816 82.9523 97.3921C79.9032 99.1015 76.4688 99.9992 72.976 99.9998ZM35.1185 87.608L68.4525 97.1891C72.9819 98.3492 77.7822 97.7202 81.8629 95.4324C84.698 93.8476 88.4314 91.8323 92.755 89.4978C102.168 84.417 113.873 78.0973 125.254 71.424C128.68 67.6517 128.105 63.6143 126.555 61.2853C124.99 58.9357 121.649 57.0506 116.973 58.8064L99.6661 67.184C100.144 68.3996 100.318 69.7136 100.174 71.0122C100.03 72.3108 99.5713 73.5545 98.8386 74.6347C98.1058 75.7149 97.1209 76.5991 95.9698 77.2101C94.8186 77.8211 93.536 78.1405 92.2337 78.1404H70.7756C70.6285 78.1409 70.4827 78.1117 70.3466 78.0555C70.2105 77.9993 70.0869 77.9169 69.9827 77.8126C69.8784 77.7084 69.7958 77.5844 69.7394 77.448C69.6829 77.3116 69.6539 77.1657 69.6539 77.018C69.6539 76.8704 69.6829 76.7239 69.7394 76.5876C69.7958 76.4512 69.8784 76.3277 69.9827 76.2234C70.0869 76.1192 70.2105 76.0362 70.3466 75.98C70.4827 75.9238 70.6285 75.8952 70.7756 75.8956H92.2337C93.7574 75.8936 95.2179 75.285 96.2947 74.2033C97.3714 73.1216 97.9762 71.6556 97.9762 70.1268C97.9762 68.598 97.3714 67.1315 96.2947 66.0498C95.2179 64.9681 93.7574 64.3594 92.2337 64.3575H70.7681C70.544 64.3572 70.3251 64.2895 70.1397 64.1634L68.7322 63.2033C61.8201 58.4742 57.2539 55.3508 48.5124 55.3508L34.1491 55.9939L35.1185 87.608ZM2.27069 51.8327L3.60768 95.4542L33.0586 93.4572L32.9253 89.0955C32.7754 88.9062 32.6903 88.6734 32.6828 88.4317C32.6753 88.19 32.7458 87.9521 32.8837 87.7538L31.7211 49.8249L2.27069 51.8327Z" fill="black"/>
<path d="M85.2555 54.0056C79.0196 54.0115 72.9746 51.8473 68.151 47.882C63.3273 43.9167 60.0235 38.3958 58.8027 32.2601C57.582 26.1244 58.5197 19.7538 61.4562 14.2342C64.3927 8.71451 69.1461 4.38737 74.9063 1.99045C80.6664 -0.406459 87.0768 -0.724753 93.0448 1.0896C99.0127 2.90395 104.169 6.7386 107.634 11.9402C111.1 17.1419 112.66 23.3885 112.049 29.6152C111.439 35.8419 108.694 41.6634 104.285 46.0873C99.2381 51.1527 92.3938 54.0008 85.2555 54.0056ZM85.2555 2.2445C79.5377 2.2391 73.995 4.22328 69.5721 7.85917C65.1493 11.4951 62.1201 16.5574 61.0008 22.1834C59.8815 27.8093 60.7414 33.6508 63.434 38.7118C66.1266 43.7728 70.4851 47.7401 75.7668 49.9377C81.0484 52.1354 86.9262 52.4272 92.3983 50.7634C97.8704 49.0997 102.598 45.5832 105.775 40.8136C108.953 36.044 110.383 30.3165 109.823 24.6071C109.263 18.8978 106.746 13.5602 102.703 9.504C98.0756 4.85991 91.8003 2.24888 85.2555 2.2445Z" fill="black"/>
<path d="M91.0222 39.75H75.6296C75.4824 39.7504 75.3366 39.7217 75.2005 39.6655C75.0645 39.6093 74.9407 39.5266 74.8365 39.4224C74.7323 39.3181 74.6496 39.1943 74.5932 39.058C74.5368 38.9216 74.5078 38.7752 74.5078 38.6275C74.5078 38.4799 74.5368 38.3337 74.5932 38.1973C74.6496 38.0609 74.7323 37.9372 74.8365 37.8329C74.9407 37.7287 75.0645 37.646 75.2005 37.5898C75.3366 37.5336 75.4824 37.5049 75.6296 37.5053H91.0222C91.7486 37.5046 92.445 37.2147 92.9587 36.6994C93.4724 36.1841 93.7613 35.4855 93.7622 34.7567V30.8738C93.7613 30.145 93.4724 29.4462 92.9587 28.9309C92.445 28.4156 91.7486 28.1259 91.0222 28.1251H79.4891C78.1696 28.124 76.9044 27.5976 75.9711 26.6617C75.0377 25.7258 74.5125 24.4567 74.5106 23.1328V19.2499C74.5124 17.9258 75.0376 16.6563 75.9709 15.7203C76.9042 14.7842 78.1695 14.2579 79.4891 14.2566H94.8811C95.1778 14.2566 95.4623 14.3749 95.672 14.5853C95.8818 14.7958 95.9997 15.0812 95.9997 15.3788C95.9997 15.6764 95.8818 15.962 95.672 16.1725C95.4623 16.383 95.1778 16.5012 94.8811 16.5012H79.4891C78.7627 16.5019 78.0661 16.7914 77.5523 17.3067C77.0385 17.822 76.7494 18.521 76.7485 19.2499V23.1328C76.7497 23.8615 77.0389 24.5602 77.5527 25.0752C78.0665 25.5903 78.7629 25.8799 79.4891 25.8805H91.0222C92.3418 25.8818 93.607 26.4083 94.5402 27.3444C95.4735 28.2805 95.9985 29.5498 96.0002 30.8738V34.7567C95.9985 36.0807 95.4735 37.35 94.5402 38.2861C93.607 39.2222 92.3418 39.7487 91.0222 39.75Z" fill="black"/>
<path d="M85.2557 43.7586C85.1088 43.7587 84.9633 43.7297 84.8275 43.6733C84.6918 43.6169 84.5684 43.5344 84.4645 43.4301C84.3606 43.3259 84.2782 43.2022 84.2219 43.066C84.1657 42.9298 84.1367 42.7839 84.1367 42.6364V11.3697C84.1376 11.0725 84.2558 10.7877 84.4656 10.5778C84.6754 10.368 84.9595 10.25 85.2557 10.25C85.552 10.25 85.8361 10.368 86.0459 10.5778C86.2557 10.7877 86.3739 11.0725 86.3748 11.3697V42.6364C86.3748 42.7839 86.3458 42.9298 86.2896 43.066C86.2333 43.2022 86.1509 43.3259 86.047 43.4301C85.943 43.5344 85.8197 43.6169 85.6839 43.6733C85.5481 43.7296 85.4026 43.7587 85.2557 43.7586Z" fill="black"/>
</svg>
