<svg width="207" height="241" viewBox="0 0 207 241" fill="none" xmlns="http://www.w3.org/2000/svg">
<g clip-path="url(#clip0_1059_6491)">
<path d="M0.75061 35.6305L205.488 35.6305V18.233L0.75061 18.233V35.6305Z" fill="#F47D39"/>
<path d="M0.85498 86.8927L171.005 86.8927V69.4952L0.85498 69.4952V86.8927Z" fill="#F47D39"/>
<path d="M0.75061 138.155L131.85 138.155V120.757L0.75061 120.757V138.155Z" fill="#FFB455"/>
<path d="M0.749878 189.358H70.4834V171.96H0.749878V189.358Z" fill="#569FD6"/>
<path d="M0.750488 240.775H47.6113V223.377H0.750488V240.775Z" fill="#569FD6"/>
<path d="M205.488 18.9834H0.75C0.551088 18.9834 0.360379 18.9043 0.219727 18.7637C0.0790743 18.623 0 18.4323 0 18.2334C0 18.0345 0.0790743 17.8438 0.219727 17.7031C0.360379 17.5625 0.551088 17.4834 0.75 17.4834H205.488C205.687 17.4834 205.878 17.5625 206.019 17.7031C206.159 17.8438 206.238 18.0345 206.238 18.2334C206.238 18.4323 206.159 18.623 206.019 18.7637C205.878 18.9043 205.687 18.9834 205.488 18.9834Z" fill="#2B2B2B"/>
<path d="M205.488 70.0908H0.75C0.551088 70.0908 0.360379 70.0117 0.219727 69.8711C0.0790743 69.7304 0 69.5397 0 69.3408C0 69.1419 0.0790743 68.9512 0.219727 68.8105C0.360379 68.6699 0.551088 68.5908 0.75 68.5908H205.488C205.687 68.5908 205.878 68.6699 206.019 68.8105C206.159 68.9512 206.238 69.1419 206.238 69.3408C206.238 69.5397 206.159 69.7304 206.019 69.8711C205.878 70.0117 205.687 70.0908 205.488 70.0908Z" fill="#2B2B2B"/>
<path d="M205.488 121.508H0.75C0.551088 121.508 0.360379 121.429 0.219727 121.288C0.0790743 121.147 0 120.957 0 120.758C0 120.559 0.0790743 120.368 0.219727 120.228C0.360379 120.087 0.551088 120.008 0.75 120.008H205.488C205.687 120.008 205.878 120.087 206.019 120.228C206.159 120.368 206.238 120.559 206.238 120.758C206.238 120.957 206.159 121.147 206.019 121.288C205.878 121.429 205.687 121.508 205.488 121.508Z" fill="#2B2B2B"/>
<path d="M205.488 172.711H0.75C0.551088 172.711 0.360379 172.632 0.219727 172.491C0.0790743 172.351 0 172.16 0 171.961C0 171.762 0.0790743 171.571 0.219727 171.431C0.360379 171.29 0.551088 171.211 0.75 171.211H205.488C205.687 171.211 205.878 171.29 206.019 171.431C206.159 171.571 206.238 171.762 206.238 171.961C206.238 172.16 206.159 172.351 206.019 172.491C205.878 172.632 205.687 172.711 205.488 172.711Z" fill="#2B2B2B"/>
<path d="M205.488 224.127H0.75C0.551088 224.127 0.360379 224.048 0.219727 223.907C0.0790743 223.767 0 223.576 0 223.377C0 223.178 0.0790743 222.987 0.219727 222.847C0.360379 222.706 0.551088 222.627 0.75 222.627H205.488C205.687 222.627 205.878 222.706 206.019 222.847C206.159 222.987 206.238 223.178 206.238 223.377C206.238 223.576 206.159 223.767 206.019 223.907C205.878 224.048 205.687 224.127 205.488 224.127Z" fill="#2B2B2B"/>
<path d="M38.752 10.9199L35.6162 0.699219H37.0156L39.4658 8.6377L41.8457 0.685547H43.0635L45.4443 8.6377L47.8936 0.699219H49.2939L46.1719 10.9199H44.7998L42.4619 2.96777L40.1104 10.9199H38.752Z" fill="black"/>
<path d="M53.4239 11.0176C52.7276 11.0239 52.0428 10.8399 51.4435 10.4854C50.8478 10.1378 50.3531 9.641 50.0079 9.04395C49.6543 8.44136 49.4704 7.75431 49.4757 7.05566C49.4711 6.36389 49.6551 5.68393 50.0079 5.08887C50.3547 4.49458 50.8492 4.00006 51.4435 3.65332C52.0444 3.30532 52.7266 3.12207 53.421 3.12207C54.1154 3.12207 54.7976 3.30532 55.3985 3.65332C55.9902 4.00312 56.4837 4.49697 56.8331 5.08887C57.1902 5.68243 57.3767 6.36298 57.3722 7.05566C57.3774 7.75522 57.191 8.44285 56.8331 9.04395C56.4853 9.63861 55.9916 10.1347 55.3985 10.4854C54.8015 10.8403 54.1185 11.0244 53.4239 11.0176ZM53.4239 9.74414C53.8922 9.74596 54.352 9.62002 54.754 9.37988C55.1584 9.14381 55.4938 8.80572 55.7267 8.39941C55.9643 7.9917 56.0877 7.52754 56.0841 7.05566C56.0869 6.59036 55.9634 6.13302 55.7267 5.73242C55.493 5.33058 55.1575 4.99745 54.754 4.7666C54.3484 4.53306 53.8886 4.41016 53.4205 4.41016C52.9525 4.41016 52.4926 4.53306 52.087 4.7666C51.6857 5.0002 51.3508 5.33271 51.1144 5.73242C50.8734 6.13153 50.7473 6.58945 50.7501 7.05566C50.7465 7.52845 50.8725 7.99318 51.1144 8.39941C51.35 8.8036 51.6847 9.14105 52.087 9.37988C52.4908 9.62176 52.9533 9.74779 53.4239 9.74414Z" fill="black"/>
<path d="M58.9678 10.9199V3.23338L60.1299 3.21971L60.2139 4.50779C60.4351 4.09045 60.7762 3.74895 61.1934 3.52732C61.6554 3.28678 62.1706 3.16655 62.6914 3.17771C62.879 3.1783 63.0664 3.19232 63.252 3.21971L62.9854 4.43748C62.8926 4.42869 62.7988 4.42381 62.7061 4.42381C62.3771 4.40709 62.0483 4.45954 61.7408 4.57762C61.4334 4.69569 61.1541 4.87677 60.9209 5.10936C60.4071 5.72637 60.1579 6.52138 60.2275 7.32127V10.9199H58.9678Z" fill="black"/>
<path d="M64.5264 10.9199V0H65.7305V6.77539L69.2998 3.21973H70.8262L67.8721 6.28613L71.2178 10.9199H69.7344L67.0459 7.22363L65.7305 8.4834V10.9199H64.5264Z" fill="black"/>
<path d="M75.0957 11.0459C74.4638 11.0432 73.8369 10.9342 73.2412 10.7236C72.6415 10.5231 72.1037 10.1713 71.6797 9.70212L72.5615 8.87595C72.8606 9.19599 73.2329 9.43864 73.6465 9.58298C74.1085 9.76287 74.5999 9.85526 75.0957 9.85544C75.5499 9.87708 76.001 9.77048 76.3975 9.54783C76.5462 9.46723 76.6703 9.34783 76.7566 9.20237C76.8429 9.0569 76.8882 8.8908 76.8877 8.72166C76.8921 8.61208 76.8718 8.50293 76.8281 8.40232C76.7845 8.30171 76.7188 8.21225 76.6357 8.1406C76.4402 7.98157 76.2137 7.86485 75.9707 7.79783C75.6953 7.71383 75.3522 7.62987 74.9414 7.54587C74.4231 7.43499 73.9116 7.2948 73.4092 7.12595C73.0167 6.98866 72.6635 6.75809 72.3799 6.45408C72.0797 6.1158 71.9241 5.67336 71.9463 5.22166C71.941 4.8272 72.069 4.44251 72.3096 4.12986C72.5775 3.79351 72.9305 3.53489 73.332 3.38084C73.8129 3.19049 74.3267 3.09755 74.8438 3.1074C75.4185 3.10673 75.9891 3.20382 76.5312 3.39451C77.076 3.58506 77.5578 3.92191 77.9238 4.36814L77.1396 5.15134C76.8699 4.84116 76.5219 4.60913 76.1318 4.47947C75.7324 4.33384 75.3109 4.25818 74.8857 4.25584C74.4689 4.23812 74.0544 4.3272 73.6816 4.51462C73.5441 4.5784 73.4276 4.67994 73.3458 4.80759C73.264 4.93524 73.2202 5.08371 73.2197 5.23533C73.217 5.33117 73.2372 5.42621 73.2787 5.51267C73.3201 5.59913 73.3816 5.67451 73.458 5.7324C73.6422 5.87128 73.8514 5.9734 74.0742 6.03318C74.3262 6.10838 74.6527 6.19269 75.0537 6.28611C75.5886 6.3987 76.1168 6.54118 76.6357 6.71287C77.0495 6.8535 77.4221 7.094 77.7207 7.41306C78.0333 7.75882 78.1969 8.21399 78.1758 8.67966C78.1905 9.15678 78.0397 9.6243 77.749 10.0029C77.456 10.3681 77.0651 10.6425 76.6221 10.7939C76.1318 10.9659 75.6153 11.0511 75.0957 11.0459Z" fill="black"/>
<path d="M79.8418 10.9199V0H81.1016V4.5918C81.3223 4.15685 81.6559 3.78921 82.0674 3.52734C82.5074 3.25131 83.0188 3.1104 83.5381 3.12207C84.1152 3.10918 84.6846 3.25693 85.1826 3.54883C85.677 3.85997 86.0652 4.31393 86.2959 4.85059C86.5861 5.53376 86.7247 6.27175 86.7021 7.01367V10.9199H85.4414V7.01367C85.4581 6.50545 85.3575 6.0002 85.1475 5.53711C84.9811 5.17292 84.711 4.86585 84.3711 4.6543C84.0374 4.46063 83.6572 4.3617 83.2715 4.36816C82.884 4.36234 82.502 4.46119 82.166 4.6543C81.825 4.8614 81.5542 5.16627 81.3887 5.5293C81.1821 5.99606 81.0839 6.50354 81.1016 7.01367V10.9199H79.8418Z" fill="black"/>
<path d="M92.0773 11.0176C91.3809 11.0239 90.6961 10.8399 90.0968 10.4854C89.5012 10.1378 89.0064 9.641 88.6612 9.04395C88.3077 8.44136 88.1237 7.75431 88.129 7.05566C88.1244 6.36389 88.3084 5.68393 88.6612 5.08887C89.008 4.49458 89.5025 4.00006 90.0968 3.65332C90.6977 3.30532 91.3799 3.12207 92.0743 3.12207C92.7688 3.12207 93.4509 3.30532 94.0519 3.65332C94.6435 4.00312 95.137 4.49697 95.4864 5.08887C95.8435 5.68243 96.0301 6.36297 96.0255 7.05566C96.0308 7.75522 95.8443 8.44285 95.4864 9.04395C95.1386 9.63861 94.6449 10.1347 94.0519 10.4854C93.4549 10.8403 92.7718 11.0244 92.0773 11.0176ZM92.0773 9.74414C92.5455 9.74596 93.0054 9.62002 93.4073 9.37988C93.8118 9.14381 94.1472 8.80572 94.38 8.39941C94.6176 7.9917 94.741 7.52754 94.7374 7.05566C94.7402 6.59036 94.6167 6.13302 94.38 5.73242C94.1463 5.33058 93.8108 4.99745 93.4073 4.7666C93.0017 4.53306 92.5419 4.41016 92.0738 4.41016C91.6058 4.41016 91.146 4.53306 90.7403 4.7666C90.339 5.0002 90.0041 5.33271 89.7677 5.73242C89.5267 6.13153 89.4006 6.58945 89.4034 7.05566C89.3998 7.52845 89.5258 7.99318 89.7677 8.39941C90.0033 8.8036 90.3381 9.14105 90.7403 9.37988C91.1441 9.62176 91.6066 9.74779 92.0773 9.74414Z" fill="black"/>
<path d="M97.5234 14.0001V3.21981H98.6855L98.7549 4.87215C99.0075 4.3472 99.4125 3.91057 99.917 3.61922C100.447 3.29079 101.058 3.1185 101.682 3.12215C102.347 3.11758 103 3.3018 103.564 3.6534C104.142 4.01298 104.619 4.51421 104.948 5.1097C105.278 5.70519 105.45 6.37516 105.447 7.05575C105.453 7.75171 105.277 8.43715 104.937 9.04403C104.611 9.63465 104.138 10.1312 103.564 10.4854C103 10.8378 102.347 11.0224 101.682 11.0177C101.068 11.0213 100.466 10.8513 99.9453 10.5274C99.4443 10.2348 99.0402 9.80149 98.7832 9.28133V14.0001H97.5234ZM101.485 9.77157C101.958 9.77519 102.423 9.64921 102.829 9.40731C103.236 9.16904 103.574 8.82915 103.81 8.42098C104.051 8.00696 104.177 7.53525 104.173 7.05575C104.176 6.58311 104.051 6.11849 103.81 5.712C103.572 5.30658 103.235 4.96897 102.829 4.73153C102.423 4.49037 101.958 4.36476 101.485 4.36825C101.011 4.36539 100.544 4.49091 100.135 4.73153C99.7261 4.96707 99.3858 5.30498 99.1475 5.712C98.9056 6.11823 98.7796 6.58297 98.7832 7.05575C98.7789 7.5354 98.9048 8.00722 99.1475 8.42098C99.3842 8.83076 99.7247 9.17096 100.135 9.40731C100.544 9.64867 101.01 9.77456 101.485 9.77157Z" fill="black"/>
<path d="M109.788 11.0459C109.156 11.0432 108.529 10.9342 107.934 10.7236C107.334 10.5231 106.796 10.1713 106.372 9.70212L107.254 8.87595C107.553 9.19599 107.925 9.43864 108.339 9.58298C108.801 9.76287 109.292 9.85526 109.788 9.85544C110.242 9.87708 110.693 9.77048 111.09 9.54783C111.239 9.46723 111.363 9.34783 111.449 9.20237C111.535 9.0569 111.581 8.8908 111.58 8.72166C111.585 8.61208 111.564 8.50293 111.521 8.40232C111.477 8.30171 111.411 8.21225 111.328 8.1406C111.133 7.98158 110.906 7.86486 110.663 7.79783C110.388 7.71383 110.045 7.62987 109.634 7.54587C109.116 7.43499 108.604 7.2948 108.102 7.12595C107.709 6.98866 107.356 6.75809 107.072 6.45408C106.772 6.1158 106.616 5.67336 106.639 5.22166C106.633 4.8272 106.761 4.44251 107.002 4.12986C107.27 3.79351 107.623 3.53489 108.024 3.38084C108.505 3.19049 109.019 3.09755 109.536 3.1074C110.111 3.10673 110.681 3.20382 111.224 3.39451C111.768 3.58506 112.25 3.92191 112.616 4.36814L111.832 5.15134C111.562 4.84116 111.214 4.60913 110.824 4.47947C110.425 4.33384 110.003 4.25818 109.578 4.25584C109.161 4.23812 108.747 4.3272 108.374 4.51462C108.236 4.5784 108.12 4.67994 108.038 4.80759C107.956 4.93524 107.913 5.08371 107.912 5.23533C107.909 5.33117 107.93 5.42621 107.971 5.51267C108.013 5.59913 108.074 5.67451 108.15 5.7324C108.335 5.87128 108.544 5.9734 108.767 6.03318C109.019 6.10838 109.345 6.19269 109.746 6.28611C110.281 6.3987 110.809 6.54118 111.328 6.71287C111.742 6.8535 112.114 7.094 112.413 7.41306C112.726 7.75882 112.889 8.21399 112.868 8.67966C112.883 9.15678 112.732 9.6243 112.441 10.0029C112.148 10.3681 111.758 10.6425 111.314 10.7939C110.824 10.9659 110.308 11.0511 109.788 11.0459Z" fill="black"/>
<path d="M7.4707 11.1161C6.66905 11.1287 5.87943 10.9202 5.18848 10.5136C4.54533 10.1439 4.03565 9.58021 3.73242 8.90321L5.58008 8.06337C5.74406 8.36695 5.99875 8.61174 6.30859 8.76356C6.65236 8.94993 7.03768 9.04634 7.42871 9.04383C7.71903 9.0491 8.0073 8.99423 8.27539 8.8827C8.50735 8.78735 8.70677 8.62693 8.84961 8.42079C8.98601 8.21559 9.05684 7.97379 9.05273 7.72743C9.05776 7.47237 8.97617 7.22311 8.82129 7.0204C8.65413 6.81089 8.43098 6.65309 8.17773 6.56532C7.87428 6.45828 7.55415 6.40636 7.23242 6.412H6.67285V4.49403H7.27441C7.50851 4.49534 7.74097 4.45499 7.96094 4.37489C8.15966 4.30571 8.33768 4.18747 8.47852 4.03114C8.61017 3.88028 8.68024 3.6854 8.6748 3.48524C8.67745 3.2989 8.61841 3.11693 8.50684 2.96766C8.38646 2.81236 8.22708 2.69173 8.04492 2.61805C7.83659 2.5309 7.61252 2.48771 7.38672 2.4911C7.1289 2.4885 6.87349 2.5411 6.6377 2.6454C6.432 2.72902 6.25471 2.87004 6.12695 3.05165L4.20801 2.30946C4.48532 1.75114 4.92792 1.29183 5.47559 0.99403C6.05875 0.650915 6.72379 0.471753 7.40039 0.475475C7.97569 0.467874 8.54673 0.57511 9.08008 0.790905C9.56757 0.987428 9.98803 1.32039 10.291 1.74989C10.6057 2.21604 10.765 2.76979 10.7461 3.33192C10.7501 3.74713 10.636 4.15492 10.417 4.5077C10.1909 4.86944 9.88148 5.1718 9.51465 5.38954C9.98551 5.63035 10.3895 5.98396 10.6904 6.41883C10.9829 6.85494 11.1343 7.3704 11.124 7.8954C11.1369 8.49483 10.9714 9.08458 10.6484 9.58973C10.327 10.0785 9.87641 10.4685 9.34668 10.7167C8.75996 10.991 8.11829 11.1276 7.4707 11.1161Z" fill="black"/>
<path d="M15.8848 11.0596C15.2267 11.0657 14.5781 10.9019 14.0019 10.584C13.2633 10.1668 12.693 9.50533 12.389 8.71338C12.085 7.92143 12.0662 7.04842 12.3359 6.24414C12.458 5.8875 12.6349 5.55209 12.8603 5.25L16.0801 0.685547H18.6006L16.2207 3.93359C16.8112 3.93217 17.3913 4.08933 17.9004 4.38867C18.4214 4.6906 18.8554 5.12224 19.1601 5.6416C19.4779 6.17459 19.6428 6.78478 19.6367 7.40527C19.6458 8.06306 19.4713 8.71035 19.1328 9.27441C18.8009 9.8259 18.3271 10.2782 17.7607 10.584C17.1863 10.9001 16.5404 11.0638 15.8848 11.0596ZM15.8848 8.9873C16.1758 8.98954 16.4626 8.91729 16.7178 8.77734C16.9665 8.64517 17.1742 8.44744 17.3185 8.20557C17.4627 7.96369 17.538 7.6869 17.5361 7.40527C17.539 7.12656 17.4639 6.85258 17.3193 6.61426C17.1732 6.37495 16.9654 6.17933 16.7178 6.04785C16.4626 5.90791 16.1758 5.83565 15.8848 5.83789C15.5979 5.83445 15.3152 5.90686 15.0654 6.04785C14.8227 6.18366 14.6182 6.37846 14.4707 6.61426C14.3216 6.85095 14.2436 7.12553 14.2461 7.40527C14.2441 7.68741 14.322 7.96434 14.4707 8.2041C14.6185 8.44582 14.8265 8.64495 15.0743 8.78223C15.3222 8.9195 15.6014 8.99024 15.8848 8.9873Z" fill="black"/>
<path d="M20.9941 10.9199L24.8164 2.63184H19.9023V0.699219H27.2939V1.97363L23.3047 10.9199H20.9941Z" fill="black"/>
<path d="M41.2998 62.1271C40.3692 62.1354 39.4541 61.8881 38.6543 61.4122C37.8614 60.9469 37.2029 60.2836 36.7432 59.4874C36.28 58.6876 36.0361 57.7798 36.0361 56.8556C36.0361 55.9314 36.28 55.0235 36.7432 54.2237C37.202 53.4287 37.8609 52.7675 38.6543 52.3058C39.4019 51.8742 40.244 51.6324 41.1067 51.6019C41.9694 51.5714 42.8264 51.7532 43.6025 52.131C44.3094 52.479 44.9291 52.9813 45.416 53.6007L44.3096 54.4122C43.9536 53.9636 43.5019 53.6002 42.9873 53.3487C42.463 53.0885 41.8851 52.9544 41.2998 52.9571C40.611 52.9512 39.9336 53.1325 39.3398 53.4816C38.7519 53.8221 38.2624 54.3093 37.9189 54.8956C37.5708 55.482 37.3891 56.1522 37.3936 56.8341C37.3878 57.5298 37.5693 58.2141 37.9189 58.8155C38.4168 59.6683 39.2189 60.3011 40.1642 60.5868C41.1094 60.8725 42.1278 60.7899 43.0146 60.3556C43.5431 60.097 44.0016 59.7152 44.3516 59.2423L45.5137 59.9708C45.0362 60.6359 44.4076 61.1781 43.6797 61.5528C42.945 61.9351 42.128 62.1322 41.2998 62.1271Z" fill="black"/>
<path d="M50.4142 62.0566C49.7179 62.0625 49.0332 61.8785 48.4337 61.5244C47.8378 61.1768 47.343 60.6796 46.9982 60.082C46.6445 59.4798 46.4605 58.7931 46.4659 58.0947C46.4614 57.4026 46.6453 56.7224 46.9982 56.127C47.3449 55.5329 47.8395 55.0387 48.4337 54.6924C49.0345 54.3438 49.7167 54.1602 50.4112 54.1602C51.1058 54.1602 51.788 54.3438 52.3888 54.6924C52.9804 55.0418 53.4739 55.5353 53.8234 56.127C54.1805 56.7209 54.367 57.4017 54.3624 58.0947C54.3678 58.794 54.1814 59.4813 53.8234 60.082C53.4759 60.6772 52.9821 61.1737 52.3888 61.5244C51.7916 61.879 51.1087 62.063 50.4142 62.0566ZM50.4142 60.7832C50.8826 60.7852 51.3425 60.6588 51.7443 60.418C52.1489 60.1825 52.4843 59.8447 52.7169 59.4385C52.9544 59.0307 53.0778 58.5666 53.0743 58.0947C53.0772 57.6294 52.9536 57.1721 52.7169 56.7715C52.4816 56.3695 52.1454 56.0359 51.7414 55.804C51.3375 55.572 50.88 55.4498 50.4142 55.4492C49.9445 55.4448 49.4824 55.568 49.0773 55.8057C48.6755 56.0387 48.3405 56.3713 48.1046 56.7715C47.8636 57.1706 47.7376 57.6285 47.7403 58.0947C47.7369 58.5675 47.8628 59.0322 48.1046 59.4385C48.34 59.8426 48.6748 60.1798 49.0773 60.418C49.4807 60.6606 49.9434 60.787 50.4142 60.7832Z" fill="black"/>
<path d="M55.958 61.959V54.2578H57.1201L57.1895 55.6582C57.4139 55.2197 57.7497 54.8479 58.1631 54.5801C58.6072 54.2947 59.1265 54.1485 59.6543 54.1602C60.2315 54.1476 60.8009 54.2957 61.2988 54.5879C61.7932 54.899 62.1814 55.353 62.4121 55.8897C62.7025 56.5728 62.8411 57.3108 62.8184 58.0527V61.959H61.5576V58.0527C61.5743 57.5445 61.4737 57.0393 61.2637 56.5762C61.0973 56.212 60.8273 55.9049 60.4873 55.6934C60.1539 55.4989 59.7736 55.3996 59.3877 55.4063C59 55.4003 58.618 55.4995 58.2822 55.6934C57.941 55.9002 57.6701 56.2052 57.5049 56.5684C57.2983 57.0351 57.2001 57.5426 57.2178 58.0527V61.959H55.958Z" fill="black"/>
<path d="M66.2617 61.9727L64.9873 61.9591V55.4063H64.0078V54.2579H64.9873V53.9513C64.963 53.3323 65.0831 52.7161 65.3379 52.1515C65.5357 51.7264 65.8642 51.3757 66.2754 51.1505C66.6963 50.9384 67.1626 50.8325 67.6338 50.8419C67.9711 50.8428 68.3063 50.8948 68.6279 50.9962L68.292 52.1309C68.2672 52.1222 68.2411 52.1175 68.2148 52.1173C68.1885 52.1162 68.1625 52.1113 68.1377 52.1026C68.004 52.0751 67.8679 52.0611 67.7314 52.0606C67.5293 52.0475 67.3267 52.0789 67.1381 52.1527C66.9494 52.2264 66.7793 52.3406 66.6396 52.4874C66.3458 52.9159 66.212 53.4341 66.2617 53.9513V54.2579H68.2773V55.4063H66.2617V61.9727Z" fill="black"/>
<path d="M72.9677 62.0566C72.2422 62.0643 71.5275 61.8807 70.8954 61.5244C70.4426 61.2684 70.045 60.9253 69.7254 60.5149C69.4058 60.1045 69.1705 59.635 69.0333 59.1333C68.896 58.6316 68.8594 58.1075 68.9256 57.5916C68.9918 57.0756 69.1594 56.5778 69.4189 56.127C69.7601 55.5337 70.2498 55.0393 70.8398 54.6924C71.438 54.3438 72.1181 54.1602 72.8105 54.1602C73.5029 54.1602 74.1829 54.3438 74.7812 54.6924C75.3658 55.039 75.8486 55.5339 76.1806 56.127C76.5209 56.7266 76.6974 57.4053 76.6923 58.0947C76.6893 58.3053 76.6753 58.5155 76.6503 58.7246H70.2519C70.3252 59.1239 70.496 59.4989 70.749 59.8164C71.0069 60.1444 71.3375 60.4078 71.7148 60.5859C72.1054 60.7742 72.5341 60.8704 72.9677 60.8672C73.4164 60.8727 73.8609 60.7794 74.2695 60.5938C74.6517 60.4197 74.9876 60.1581 75.2499 59.8301L76.2724 60.4746C75.8909 60.9651 75.3991 61.3585 74.8369 61.623C74.2555 61.9095 73.6158 62.0578 72.9677 62.0566ZM75.3896 57.6738C75.3734 57.2603 75.2451 56.859 75.0185 56.5127C74.7895 56.1573 74.474 55.8659 74.1015 55.666C73.7017 55.4512 73.2535 55.3426 72.7997 55.3506C72.3597 55.346 71.9259 55.4546 71.54 55.666C71.1675 55.8659 70.8519 56.1573 70.623 56.5127C70.3965 56.86 70.2639 57.26 70.2382 57.6738H75.3896Z" fill="black"/>
<path d="M78.2881 61.959V54.2724L79.4502 54.2578L79.5342 55.5469C79.7554 55.1295 80.0966 54.788 80.5137 54.5664C80.9757 54.3258 81.4909 54.2056 82.0117 54.2168C82.1993 54.2175 82.3866 54.2312 82.5723 54.2578L82.3057 55.4765C82.2129 55.4671 82.1196 55.4626 82.0264 55.4629C81.6974 55.4459 81.3685 55.4981 81.061 55.6162C80.7535 55.7343 80.4743 55.9156 80.2412 56.1484C79.7274 56.7654 79.4782 57.5604 79.5479 58.3603V61.959H78.2881Z" fill="black"/>
<path d="M87.1211 62.0566C86.3956 62.0643 85.6808 61.8807 85.0488 61.5244C84.596 61.2684 84.1982 60.9253 83.8786 60.5149C83.559 60.1045 83.3238 59.635 83.1865 59.1333C83.0492 58.6316 83.0128 58.1075 83.0789 57.5916C83.1451 57.0756 83.3128 56.5778 83.5722 56.127C83.9135 55.5337 84.4031 55.0393 84.9931 54.6924C85.5914 54.3438 86.2714 54.1602 86.9638 54.1602C87.6562 54.1602 88.3363 54.3438 88.9345 54.6924C89.5192 55.039 90.0019 55.5339 90.334 56.127C90.6743 56.7266 90.8508 57.4053 90.8457 58.0947C90.8426 58.3053 90.8286 58.5155 90.8037 58.7246H84.4052C84.4786 59.1239 84.6493 59.4989 84.9023 59.8164C85.1602 60.1444 85.4909 60.4078 85.8681 60.5859C86.2588 60.7742 86.6874 60.8704 87.1211 60.8672C87.5698 60.8727 88.0142 60.7794 88.4228 60.5938C88.8051 60.4197 89.141 60.1581 89.4033 59.8301L90.4257 60.4746C90.0443 60.9651 89.5524 61.3585 88.9902 61.623C88.4088 61.9095 87.7692 62.0578 87.1211 62.0566ZM89.5429 57.6738C89.5267 57.2603 89.3984 56.859 89.1718 56.5127C88.9429 56.1573 88.6273 55.8659 88.2549 55.666C87.8551 55.4512 87.4069 55.3426 86.9531 55.3506C86.5131 55.346 86.0793 55.4546 85.6933 55.666C85.3208 55.8659 85.0053 56.1573 84.7763 56.5127C84.5498 56.86 84.4173 57.26 84.3916 57.6738H89.5429Z" fill="black"/>
<path d="M92.4414 61.959V54.2578H93.6035L93.6729 55.6582C93.8973 55.2197 94.2331 54.8479 94.6465 54.5801C95.0906 54.2947 95.6099 54.1485 96.1377 54.1602C96.7149 54.1476 97.2843 54.2957 97.7822 54.5879C98.2766 54.899 98.6648 55.353 98.8955 55.8897C99.1859 56.5728 99.3245 57.3108 99.3018 58.0527V61.959H98.041V58.0527C98.0577 57.5445 97.9571 57.0393 97.7471 56.5762C97.5807 56.212 97.3106 55.9049 96.9707 55.6934C96.6373 55.4989 96.257 55.3996 95.8711 55.4063C95.4834 55.4003 95.1014 55.4995 94.7656 55.6934C94.4244 55.9002 94.1535 56.2052 93.9883 56.5684C93.7817 57.0351 93.6835 57.5426 93.7012 58.0527V61.959H92.4414Z" fill="black"/>
<path d="M104.678 62.0567C103.982 62.0626 103.297 61.8786 102.697 61.5245C102.101 61.1768 101.607 60.6796 101.262 60.0821C100.908 59.4799 100.724 58.7932 100.73 58.0948C100.725 57.4027 100.909 56.7224 101.262 56.127C101.609 55.533 102.103 55.0388 102.697 54.6925C103.273 54.3574 103.925 54.1745 104.591 54.161C105.257 54.1475 105.916 54.3039 106.505 54.6153C107.058 54.9091 107.535 55.3285 107.898 55.8399L106.848 56.5411C106.604 56.2035 106.282 55.9295 105.91 55.7423C105.529 55.5473 105.106 55.4468 104.678 55.4493C104.208 55.4448 103.746 55.568 103.341 55.8057C102.939 56.0388 102.604 56.3714 102.368 56.7716C102.127 57.1707 102.001 57.6286 102.004 58.0948C102.001 58.5676 102.126 59.0323 102.368 59.4385C102.604 59.8427 102.938 60.1798 103.341 60.418C103.744 60.6607 104.207 60.7871 104.678 60.7833C105.113 60.7817 105.541 60.6753 105.926 60.473C106.311 60.2707 106.642 59.9785 106.89 59.6212L107.94 60.3204C107.581 60.8485 107.101 61.2831 106.54 61.588C105.97 61.9007 105.328 62.0621 104.678 62.0567Z" fill="black"/>
<path d="M113.007 62.0566C112.281 62.0643 111.567 61.8807 110.935 61.5244C110.482 61.2684 110.084 60.9253 109.764 60.5149C109.445 60.1045 109.21 59.635 109.072 59.1333C108.935 58.6316 108.898 58.1075 108.965 57.5916C109.031 57.0756 109.199 56.5778 109.458 56.127C109.799 55.5337 110.289 55.0393 110.879 54.6924C111.477 54.3438 112.157 54.1602 112.85 54.1602C113.542 54.1602 114.222 54.3438 114.82 54.6924C115.405 55.039 115.888 55.5339 116.22 56.127C116.56 56.7266 116.737 57.4053 116.732 58.0947C116.728 58.3053 116.714 58.5155 116.69 58.7246H110.291C110.364 59.1239 110.535 59.4989 110.788 59.8164C111.046 60.1444 111.377 60.4078 111.754 60.5859C112.145 60.7742 112.573 60.8704 113.007 60.8672C113.456 60.8727 113.9 60.7794 114.309 60.5938C114.691 60.4197 115.027 60.1581 115.289 59.8301L116.312 60.4746C115.93 60.9651 115.438 61.3585 114.876 61.623C114.295 61.9095 113.655 62.0579 113.007 62.0566ZM115.429 57.6738C115.413 57.2603 115.284 56.859 115.058 56.5127C114.829 56.1573 114.513 55.866 114.141 55.666C113.741 55.4512 113.293 55.3426 112.839 55.3506C112.399 55.346 111.965 55.4546 111.579 55.666C111.207 55.866 110.891 56.1573 110.662 56.5127C110.436 56.86 110.303 57.26 110.277 57.6738H115.429Z" fill="black"/>
<path d="M121.058 62.084C120.426 62.0811 119.799 61.9725 119.203 61.7627C118.603 61.5618 118.066 61.2097 117.642 60.7402L118.523 59.914C118.822 60.2347 119.194 60.4775 119.608 60.6211C120.07 60.8017 120.562 60.8945 121.058 60.8945C121.512 60.9163 121.963 60.8094 122.359 60.5859C122.508 60.5053 122.632 60.3859 122.719 60.2405C122.805 60.095 122.85 59.9289 122.85 59.7597C122.854 59.6503 122.834 59.5413 122.79 59.4409C122.746 59.3404 122.681 59.2511 122.598 59.1797C122.402 59.0203 122.176 58.9033 121.933 58.8359C121.657 58.7519 121.314 58.668 120.903 58.584C120.385 58.474 119.873 58.3338 119.371 58.164C118.978 58.0275 118.625 57.7968 118.342 57.4922C118.041 57.154 117.886 56.7115 117.908 56.2597C117.903 55.8653 118.031 55.4807 118.271 55.1679C118.54 54.8322 118.893 54.574 119.294 54.4199C119.775 54.2296 120.289 54.1366 120.806 54.1465C121.38 54.1458 121.951 54.2429 122.493 54.4336C123.038 54.6241 123.519 54.9606 123.886 55.4062L123.102 56.1904C122.832 55.8802 122.484 55.6482 122.094 55.5185C121.694 55.3729 121.273 55.2972 120.848 55.2949C120.431 55.2772 120.016 55.3663 119.644 55.5537C119.506 55.6175 119.39 55.719 119.308 55.8467C119.226 55.9743 119.182 56.1228 119.182 56.2744C119.179 56.3702 119.199 56.4653 119.241 56.5517C119.282 56.6382 119.343 56.7136 119.42 56.7715C119.604 56.9103 119.813 57.0125 120.036 57.0722C120.288 57.1474 120.615 57.2314 121.016 57.3242C121.55 57.4375 122.079 57.5803 122.598 57.7519C123.011 57.8922 123.384 58.1324 123.683 58.4511C123.995 58.7973 124.159 59.2528 124.138 59.7187C124.152 60.1955 124.002 60.6628 123.711 61.041C123.418 61.4062 123.027 61.6806 122.584 61.832C122.094 62.0039 121.577 62.0892 121.058 62.084Z" fill="black"/>
<path d="M7.4707 62.1542C6.66914 62.1672 5.87951 61.959 5.18848 61.5527C4.54533 61.183 4.03565 60.6193 3.73242 59.9423L5.58008 59.1025C5.74435 59.4058 5.99896 59.6506 6.30859 59.8027C6.65244 59.9887 7.03776 60.0848 7.42871 60.082C7.71896 60.0875 8.00723 60.033 8.27539 59.9218C8.50762 59.8264 8.70711 59.6656 8.84961 59.4589C8.986 59.2541 9.05685 59.0126 9.05273 58.7665C9.05791 58.5115 8.97631 58.2621 8.82129 58.0595C8.65441 57.8497 8.43116 57.6918 8.17773 57.6044C7.87428 57.4974 7.55415 57.4455 7.23242 57.4511H6.67285V55.5331H7.27441C7.50847 55.534 7.74085 55.4936 7.96094 55.414C8.15947 55.3445 8.33742 55.2263 8.47852 55.0702C8.61017 54.9194 8.68024 54.7245 8.6748 54.5244C8.67745 54.3377 8.61842 54.1554 8.50684 54.0058C8.38619 53.8508 8.22689 53.7302 8.04492 53.6562C7.83638 53.5698 7.61241 53.527 7.38672 53.5302C7.1289 53.5276 6.87349 53.5802 6.6377 53.6845C6.43208 53.7678 6.25478 53.9085 6.12695 54.0898L4.20801 53.3486C4.48532 52.7903 4.92792 52.3309 5.47559 52.0331C6.05875 51.69 6.72379 51.5109 7.40039 51.5146C7.97573 51.5065 8.54686 51.6138 9.08008 51.83C9.56777 52.0262 9.98831 52.3592 10.291 52.789C10.6057 53.2552 10.765 53.8089 10.7461 54.371C10.75 54.7862 10.6359 55.194 10.417 55.5468C10.1909 55.9086 9.88149 56.2109 9.51465 56.4286C9.98546 56.6691 10.3894 57.0224 10.6904 57.457C10.9828 57.8935 11.1341 58.4092 11.124 58.9345C11.1367 59.5339 10.9712 60.1236 10.6484 60.6288C10.3267 61.1173 9.87621 61.5073 9.34668 61.7558C8.75972 62.0293 8.11816 62.1656 7.4707 62.1542Z" fill="black"/>
<path d="M16.2354 62.1406C15.4889 62.1523 14.7573 61.9318 14.1416 61.5098C13.4987 61.0507 13.0009 60.4169 12.707 59.6836C12.3422 58.784 12.1657 57.8191 12.1885 56.8486C12.1658 55.8851 12.3424 54.9273 12.707 54.0352C13.002 53.3041 13.4998 52.6725 14.1416 52.2148C14.7595 51.8035 15.4852 51.584 16.2275 51.584C16.9699 51.584 17.6956 51.8035 18.3135 52.2148C18.9554 52.6727 19.4534 53.3042 19.749 54.0352C20.1129 54.9275 20.2891 55.8852 20.2666 56.8486C20.2892 57.819 20.1131 58.7838 19.749 59.6836C19.4545 60.4168 18.9564 61.0505 18.3135 61.5098C17.7029 61.9304 16.9767 62.1508 16.2354 62.1406ZM16.2354 60.0547C16.5895 60.058 16.9345 59.9421 17.2149 59.7256C17.5427 59.4483 17.7815 59.0804 17.9014 58.668C18.0852 58.0746 18.1703 57.455 18.1533 56.834C18.1699 56.2271 18.0847 55.6217 17.9014 55.043C17.7794 54.6357 17.5407 54.2731 17.2149 54C16.9346 53.7832 16.5896 53.6669 16.2354 53.6699C15.8763 53.6652 15.5261 53.7814 15.2412 54C14.9148 54.2726 14.676 54.6353 14.5547 55.043C14.3714 55.6217 14.2862 56.2271 14.3027 56.834C14.2858 57.455 14.3709 58.0746 14.5547 58.668C14.6738 59.0807 14.9127 59.4488 15.2412 59.7256C15.5262 59.9438 15.8764 60.0598 16.2354 60.0547Z" fill="black"/>
<path d="M24.7188 62.0977C23.95 62.1084 23.196 61.8865 22.5557 61.4609C21.933 61.058 21.4549 60.4673 21.1904 59.7744L23.1787 59.0469C23.2897 59.3461 23.5027 59.5965 23.7803 59.7539C24.0752 59.9346 24.4149 60.0289 24.7607 60.0264C25.0542 60.0303 25.3436 59.958 25.6006 59.8164C25.8516 59.677 26.0617 59.4743 26.21 59.2285C26.3625 58.9801 26.4423 58.6939 26.4404 58.4023C26.4435 58.1073 26.3662 57.817 26.2168 57.5625C26.0727 57.3157 25.8645 57.1126 25.6143 56.9746C25.3617 56.8341 25.077 56.7618 24.7881 56.7646C24.5166 56.7649 24.2488 56.827 24.0049 56.9463C23.7635 57.0592 23.5558 57.2332 23.4023 57.4512H21.3301L21.7363 51.7383H28.1348V53.6699H23.6689L23.5566 55.3926C23.7727 55.2234 24.0166 55.0932 24.2773 55.0078C24.5449 54.9129 24.8264 54.863 25.1104 54.8604C25.7248 54.8526 26.3298 55.0123 26.8604 55.3223C27.3785 55.626 27.8026 56.0671 28.0859 56.5967C28.3865 57.1655 28.538 57.8011 28.5264 58.4443C28.5353 59.103 28.3582 59.7508 28.0156 60.3135C27.6783 60.8654 27.2 61.3174 26.6299 61.623C26.0432 61.9402 25.3857 62.1034 24.7188 62.0977Z" fill="black"/>
<path d="M36.5117 113.589V103.369H37.8418V112.259H43.0781V113.589H36.5117Z" fill="black"/>
<path d="M47.7257 113.687C47.0294 113.693 46.3446 113.509 45.7452 113.154C45.1492 112.807 44.6543 112.31 44.3097 111.713C43.9561 111.11 43.7722 110.423 43.7775 109.725C43.7729 109.033 43.9569 108.353 44.3097 107.758C44.6567 107.164 45.1511 106.669 45.7452 106.322C46.3462 105.974 47.0283 105.791 47.7228 105.791C48.4172 105.791 49.0994 105.974 49.7003 106.322C50.2918 106.672 50.7852 107.166 51.1349 107.758C51.492 108.351 51.6785 109.032 51.6739 109.725C51.6792 110.424 51.4928 111.112 51.1349 111.713C50.7876 112.308 50.2937 112.804 49.7003 113.154C49.1033 113.509 48.4202 113.693 47.7257 113.687ZM47.7257 112.413C48.1939 112.415 48.6538 112.289 49.0558 112.049C49.4604 111.813 49.7959 111.475 50.0284 111.068C50.2661 110.661 50.3896 110.197 50.3859 109.725C50.3887 109.26 50.2651 108.803 50.0284 108.402C49.7951 108 49.4595 107.666 49.0558 107.436C48.6502 107.202 48.1903 107.079 47.7223 107.079C47.2542 107.079 46.7944 107.202 46.3888 107.436C45.9872 107.669 45.6522 108.002 45.4161 108.402C45.1751 108.801 45.0491 109.259 45.0519 109.725C45.0481 110.197 45.1741 110.662 45.4161 111.068C45.6515 111.473 45.9863 111.81 46.3888 112.049C46.7925 112.291 47.2551 112.417 47.7257 112.413Z" fill="black"/>
<path d="M56.7423 113.687C56.046 113.693 55.3612 113.509 54.7618 113.154C54.1658 112.807 53.6709 112.31 53.3263 111.713C52.9727 111.11 52.7888 110.423 52.7941 109.725C52.7895 109.033 52.9735 108.353 53.3263 107.758C53.6733 107.164 54.1678 106.669 54.7618 106.322C55.3379 105.988 55.9897 105.805 56.6557 105.792C57.3218 105.778 57.9804 105.935 58.5694 106.246C59.1234 106.539 59.6004 106.959 59.962 107.471L58.9122 108.171C58.6685 107.833 58.3469 107.56 57.9747 107.373C57.5935 107.177 57.1708 107.077 56.7423 107.079C56.2726 107.075 55.8105 107.198 55.4054 107.436C55.0038 107.669 54.6688 108.002 54.4327 108.402C54.1917 108.801 54.0657 109.259 54.0685 109.725C54.0647 110.197 54.1907 110.662 54.4327 111.068C54.6681 111.473 55.0029 111.81 55.4054 112.049C55.8091 112.291 56.2717 112.417 56.7423 112.413C57.1774 112.412 57.6058 112.306 57.991 112.104C58.3761 111.901 58.7066 111.609 58.9542 111.251L60.004 111.951C59.645 112.479 59.1652 112.913 58.6046 113.218C58.0342 113.531 57.393 113.692 56.7423 113.687Z" fill="black"/>
<path d="M64.7779 113.686C64.108 113.693 63.4502 113.508 62.8814 113.154C62.3082 112.802 61.8356 112.308 61.5093 111.72C61.0019 110.816 60.8613 109.751 61.1167 108.747C61.3721 107.742 62.0039 106.874 62.8814 106.322C63.4507 105.969 64.1082 105.785 64.7779 105.791C65.3972 105.789 66.0042 105.964 66.5279 106.295C67.0361 106.595 67.445 107.038 67.7036 107.568L67.7603 105.889H68.9361V113.589H67.7603L67.7036 111.937C67.4431 112.461 67.0342 112.896 66.5279 113.189C66.0029 113.516 65.3963 113.689 64.7779 113.686ZM64.9605 112.427C65.4388 112.431 65.9097 112.308 66.3247 112.07C66.6322 111.894 66.9018 111.659 67.1181 111.378C67.3343 111.097 67.4928 110.776 67.5846 110.434C67.6764 110.092 67.6995 109.735 67.6527 109.384C67.6059 109.032 67.4902 108.694 67.312 108.388C67.0745 107.978 66.7342 107.638 66.3247 107.4C65.911 107.158 65.4396 107.033 64.9605 107.037C64.4899 107.035 64.0277 107.161 63.6226 107.4C63.2132 107.638 62.8732 107.978 62.6362 108.388C62.3988 108.796 62.2732 109.26 62.2721 109.733C62.2711 110.205 62.3946 110.67 62.6303 111.079C62.866 111.489 63.2056 111.829 63.6146 112.066C64.0237 112.302 64.4879 112.427 64.9605 112.427Z" fill="black"/>
<path d="M71.0078 113.589V102.669H72.2676V113.589H71.0078Z" fill="black"/>
<path d="M78.2881 113.589V103.369H84.5742V104.615H79.6045V107.736H84.2939V108.955H79.6045V112.301H84.7139V113.589H78.2881Z" fill="black"/>
<path d="M85.7363 113.589L88.6904 109.738L85.7363 105.889H87.2764L89.5576 108.759L91.8398 105.889H93.3662L90.4258 109.738L93.3662 113.589H91.8398L89.5576 110.705L87.2764 113.589H85.7363Z" fill="black"/>
<path d="M97.6631 113.687C96.9375 113.695 96.2227 113.511 95.5908 113.154C95.138 112.898 94.7402 112.555 94.4206 112.145C94.101 111.735 93.8657 111.265 93.7285 110.764C93.5912 110.262 93.5547 109.738 93.6209 109.222C93.6871 108.706 93.8547 108.209 94.1142 107.758C94.4557 107.164 94.9453 106.67 95.5351 106.322C96.1336 105.974 96.8135 105.791 97.5058 105.791C98.1981 105.791 98.8781 105.974 99.4765 106.322C100.061 106.67 100.544 107.165 100.876 107.758C101.216 108.357 101.393 109.035 101.388 109.725C101.385 109.935 101.371 110.146 101.346 110.355H94.9472C95.021 110.755 95.1917 111.13 95.4443 111.447C95.7025 111.775 96.0331 112.038 96.4101 112.217C96.8009 112.405 97.2295 112.501 97.6631 112.497C98.1118 112.503 98.5564 112.41 98.9648 112.224C99.3468 112.05 99.6827 111.788 99.9453 111.461L100.968 112.105C100.586 112.595 100.094 112.988 99.5322 113.253C98.951 113.54 98.3112 113.688 97.6631 113.687ZM100.085 109.305C100.069 108.891 99.9403 108.489 99.7138 108.143C99.4846 107.787 99.1691 107.496 98.7968 107.296C98.3969 107.081 97.9488 106.973 97.4951 106.98C97.0551 106.976 96.6214 107.085 96.2353 107.296C95.863 107.496 95.5476 107.787 95.3183 108.143C95.092 108.49 94.9594 108.891 94.9336 109.305H100.085Z" fill="black"/>
<path d="M106.455 113.687C105.759 113.693 105.074 113.509 104.475 113.154C103.879 112.807 103.384 112.31 103.039 111.713C102.686 111.11 102.502 110.423 102.507 109.725C102.502 109.033 102.686 108.353 103.039 107.758C103.386 107.164 103.881 106.669 104.475 106.322C105.051 105.988 105.703 105.805 106.369 105.792C107.035 105.778 107.693 105.935 108.282 106.246C108.836 106.539 109.313 106.959 109.675 107.471L108.625 108.171C108.381 107.833 108.06 107.56 107.688 107.373C107.306 107.177 106.884 107.077 106.455 107.079C105.985 107.075 105.523 107.198 105.118 107.436C104.717 107.669 104.382 108.002 104.146 108.402C103.905 108.801 103.779 109.259 103.781 109.725C103.778 110.197 103.904 110.662 104.146 111.068C104.381 111.473 104.716 111.81 105.118 112.049C105.522 112.291 105.985 112.417 106.455 112.413C106.89 112.412 107.319 112.306 107.704 112.104C108.089 111.901 108.419 111.609 108.667 111.251L109.717 111.951C109.358 112.479 108.878 112.913 108.317 113.218C107.747 113.531 107.106 113.692 106.455 113.687Z" fill="black"/>
<path d="M111.523 113.673C111.417 113.675 111.311 113.655 111.212 113.614C111.113 113.573 111.024 113.512 110.949 113.436C110.873 113.363 110.813 113.276 110.772 113.18C110.731 113.084 110.71 112.98 110.711 112.875C110.711 112.66 110.797 112.453 110.949 112.301C111.102 112.148 111.308 112.063 111.523 112.063C111.627 112.062 111.73 112.083 111.825 112.124C111.92 112.165 112.006 112.225 112.076 112.301C112.151 112.376 112.21 112.466 112.25 112.564C112.289 112.663 112.309 112.769 112.307 112.875C112.308 112.979 112.288 113.082 112.248 113.179C112.209 113.275 112.15 113.362 112.076 113.436C112.006 113.511 111.92 113.571 111.825 113.612C111.73 113.653 111.627 113.674 111.523 113.673Z" fill="black"/>
<path d="M117.767 113.589V103.369H124.053V104.615H119.083V107.736H123.772V108.955H119.083V112.301H124.192V113.589H117.767Z" fill="black"/>
<path d="M129.233 113.687C128.563 113.693 127.905 113.508 127.336 113.154C126.763 112.802 126.291 112.308 125.964 111.72C125.457 110.816 125.316 109.751 125.572 108.747C125.827 107.742 126.459 106.874 127.336 106.322C127.906 105.97 128.563 105.785 129.233 105.791C129.844 105.789 130.443 105.959 130.962 106.281C131.466 106.573 131.873 107.006 132.131 107.527V102.669H133.391V113.589H132.215L132.159 111.938C131.898 112.461 131.489 112.897 130.983 113.189C130.458 113.517 129.851 113.689 129.233 113.687ZM129.416 112.427C129.894 112.431 130.365 112.308 130.78 112.07C131.087 111.894 131.357 111.659 131.573 111.378C131.789 111.097 131.948 110.777 132.04 110.434C132.131 110.092 132.155 109.735 132.108 109.384C132.061 109.033 131.945 108.694 131.767 108.388C131.53 107.978 131.189 107.638 130.78 107.4C130.366 107.159 129.895 107.033 129.416 107.037C128.945 107.036 128.483 107.161 128.078 107.4C127.668 107.638 127.328 107.978 127.091 108.388C126.854 108.796 126.728 109.26 126.727 109.733C126.726 110.205 126.85 110.67 127.085 111.079C127.321 111.489 127.661 111.829 128.07 112.066C128.479 112.302 128.943 112.427 129.416 112.427Z" fill="black"/>
<path d="M138.444 113.687C137.871 113.698 137.307 113.55 136.813 113.26C136.319 112.948 135.931 112.494 135.701 111.958C135.41 111.275 135.271 110.537 135.295 109.795V105.889H136.554V109.795C136.538 110.303 136.638 110.808 136.848 111.271C137.015 111.636 137.286 111.943 137.626 112.154C137.961 112.343 138.34 112.441 138.725 112.441C139.11 112.441 139.488 112.343 139.824 112.154C140.163 111.942 140.433 111.635 140.6 111.271C140.81 110.808 140.911 110.303 140.894 109.795V105.889H142.154V113.589H140.993L140.922 112.189C140.698 112.628 140.362 112.999 139.95 113.268C139.501 113.554 138.976 113.7 138.444 113.687Z" fill="black"/>
<path d="M147.698 113.687C147.002 113.693 146.317 113.509 145.718 113.154C145.122 112.807 144.627 112.31 144.282 111.713C143.929 111.11 143.745 110.423 143.75 109.725C143.746 109.033 143.93 108.353 144.282 107.758C144.629 107.164 145.124 106.669 145.718 106.322C146.294 105.988 146.946 105.805 147.612 105.792C148.278 105.778 148.936 105.935 149.526 106.246C150.079 106.539 150.556 106.959 150.918 107.471L149.868 108.171C149.625 107.833 149.303 107.56 148.931 107.373C148.55 107.177 148.127 107.077 147.698 107.079C147.229 107.075 146.767 107.198 146.361 107.436C145.96 107.669 145.625 108.002 145.389 108.402C145.148 108.801 145.022 109.259 145.025 109.725C145.021 110.197 145.147 110.662 145.389 111.068C145.624 111.473 145.959 111.81 146.361 112.049C146.765 112.291 147.228 112.417 147.698 112.413C148.133 112.412 148.562 112.306 148.947 112.104C149.332 111.901 149.663 111.609 149.91 111.251L150.96 111.951C150.601 112.479 150.121 112.913 149.561 113.218C148.99 113.531 148.349 113.692 147.698 113.687Z" fill="black"/>
<path d="M155.735 113.686C155.065 113.693 154.407 113.508 153.838 113.154C153.265 112.802 152.793 112.308 152.466 111.72C151.959 110.816 151.818 109.751 152.074 108.747C152.329 107.742 152.961 106.874 153.838 106.322C154.408 105.969 155.065 105.785 155.735 105.791C156.354 105.789 156.961 105.964 157.485 106.295C157.993 106.595 158.402 107.038 158.661 107.568L158.717 105.889H159.893V113.589H158.717L158.661 111.937C158.4 112.461 157.991 112.896 157.485 113.189C156.96 113.516 156.353 113.689 155.735 113.686ZM155.917 112.427C156.396 112.431 156.867 112.308 157.282 112.07C157.589 111.894 157.859 111.659 158.075 111.378C158.291 111.097 158.45 110.776 158.542 110.434C158.633 110.092 158.657 109.735 158.61 109.384C158.563 109.032 158.447 108.694 158.269 108.388C158.032 107.978 157.691 107.638 157.282 107.4C156.868 107.158 156.397 107.033 155.917 107.037C155.447 107.035 154.985 107.161 154.58 107.4C154.17 107.638 153.83 107.978 153.593 108.388C153.356 108.796 153.23 109.26 153.229 109.733C153.228 110.205 153.352 110.67 153.587 111.079C153.823 111.489 154.163 111.829 154.572 112.066C154.981 112.302 155.445 112.427 155.917 112.427Z" fill="black"/>
<path d="M164.835 113.715C164.496 113.727 164.159 113.669 163.844 113.544C163.53 113.418 163.245 113.228 163.008 112.986C162.492 112.376 162.238 111.586 162.301 110.789V107.037H161.251V105.889H162.329L162.482 103.369H163.561V105.889H165.423V107.037H163.561V110.761C163.529 111.219 163.663 111.674 163.938 112.042C164.069 112.19 164.231 112.306 164.413 112.382C164.595 112.459 164.791 112.493 164.988 112.482C165.194 112.484 165.399 112.446 165.591 112.371L165.913 113.52C165.57 113.654 165.204 113.721 164.835 113.715Z" fill="black"/>
<path d="M168.041 105.076C167.934 105.078 167.827 105.057 167.728 105.015C167.629 104.973 167.54 104.911 167.467 104.832C167.314 104.679 167.229 104.471 167.229 104.255C167.229 104.038 167.314 103.83 167.467 103.677C167.541 103.6 167.631 103.539 167.729 103.499C167.828 103.458 167.934 103.438 168.041 103.44C168.149 103.438 168.255 103.459 168.354 103.501C168.453 103.543 168.542 103.605 168.615 103.684C168.692 103.76 168.752 103.851 168.793 103.95C168.833 104.05 168.854 104.157 168.853 104.265C168.853 104.37 168.832 104.475 168.791 104.572C168.751 104.67 168.691 104.758 168.615 104.832C168.542 104.91 168.453 104.973 168.354 105.015C168.255 105.057 168.149 105.078 168.041 105.076ZM167.411 113.589V105.889H168.671V113.589H167.411Z" fill="black"/>
<path d="M174.2 113.687C173.504 113.693 172.819 113.509 172.22 113.154C171.624 112.807 171.129 112.31 170.784 111.713C170.431 111.11 170.247 110.423 170.252 109.725C170.247 109.033 170.431 108.353 170.784 107.758C171.131 107.164 171.626 106.669 172.22 106.322C172.821 105.974 173.503 105.791 174.197 105.791C174.892 105.791 175.574 105.974 176.175 106.322C176.766 106.672 177.26 107.166 177.609 107.758C177.967 108.351 178.153 109.032 178.149 109.725C178.154 110.424 177.967 111.112 177.609 111.713C177.262 112.308 176.768 112.804 176.175 113.154C175.578 113.509 174.895 113.693 174.2 113.687ZM174.2 112.413C174.669 112.415 175.128 112.289 175.53 112.049C175.935 111.813 176.27 111.475 176.503 111.068C176.741 110.661 176.864 110.197 176.86 109.725C176.863 109.26 176.74 108.803 176.503 108.402C176.27 108 175.934 107.666 175.53 107.436C175.125 107.202 174.665 107.079 174.197 107.079C173.729 107.079 173.269 107.202 172.863 107.436C172.462 107.669 172.127 108.002 171.891 108.402C171.65 108.801 171.524 109.259 171.526 109.725C171.523 110.197 171.649 110.662 171.891 111.068C172.126 111.473 172.461 111.81 172.863 112.049C173.267 112.291 173.73 112.417 174.2 112.413Z" fill="black"/>
<path d="M179.745 113.589V105.889H180.907L180.977 107.289C181.2 106.85 181.536 106.478 181.95 106.211C182.394 105.925 182.914 105.779 183.441 105.791C184.018 105.779 184.588 105.926 185.086 106.218C185.58 106.529 185.969 106.983 186.199 107.52C186.49 108.203 186.628 108.941 186.605 109.684V113.589H185.345V109.684C185.361 109.175 185.261 108.669 185.051 108.206C184.884 107.842 184.614 107.535 184.274 107.324C183.941 107.13 183.561 107.03 183.175 107.037C182.787 107.031 182.405 107.13 182.069 107.324C181.728 107.531 181.457 107.836 181.292 108.199C181.085 108.666 180.987 109.173 181.005 109.684V113.589H179.745Z" fill="black"/>
<path d="M3.78809 113.589V112.301L7.66602 108.689C8.00308 108.404 8.30208 108.077 8.55566 107.716C8.75822 107.426 8.86789 107.082 8.87012 106.729C8.8743 106.457 8.80694 106.189 8.6748 105.951C8.54919 105.728 8.36205 105.546 8.13574 105.427C7.90017 105.304 7.6378 105.241 7.37207 105.244C7.02297 105.239 6.68253 105.353 6.40625 105.566C6.13844 105.766 5.9263 106.032 5.79004 106.337L3.88672 105.693C4.01883 105.213 4.26355 104.771 4.60059 104.404C4.94501 104.022 5.36414 103.715 5.83203 103.502C6.31078 103.282 6.83171 103.17 7.3584 103.173C7.98952 103.166 8.6126 103.315 9.17188 103.607C9.71167 103.891 10.1585 104.323 10.459 104.854C10.7813 105.43 10.9435 106.082 10.9287 106.742C10.9278 107.334 10.7551 107.913 10.4316 108.408C10.0457 108.996 9.58695 109.532 9.06641 110.005L7.10645 111.656H11.1807V113.589H3.78809Z" fill="black"/>
<path d="M15.7725 113.785C14.971 113.798 14.1815 113.589 13.4902 113.183C12.8472 112.813 12.3376 112.249 12.0342 111.572L13.8818 110.732C14.046 111.036 14.3006 111.281 14.6104 111.433C14.9544 111.619 15.3396 111.715 15.7305 111.713C16.0208 111.718 16.3091 111.663 16.5771 111.552C16.8095 111.457 17.0091 111.296 17.1514 111.09C17.2878 110.885 17.3586 110.643 17.3545 110.396C17.3594 110.141 17.2778 109.892 17.123 109.689C16.9559 109.48 16.7327 109.322 16.4795 109.234C16.1759 109.128 15.8559 109.076 15.5342 109.081H14.9746V107.163H15.5762C15.8103 107.164 16.0427 107.124 16.2627 107.044C16.4612 106.975 16.6391 106.857 16.7803 106.701C16.9118 106.55 16.9818 106.355 16.9766 106.154C16.9792 105.968 16.9202 105.786 16.8086 105.637C16.6879 105.482 16.5286 105.361 16.3467 105.287C16.1382 105.2 15.9142 105.157 15.6885 105.16C15.4307 105.158 15.1754 105.211 14.9395 105.314C14.734 105.398 14.5567 105.539 14.4287 105.721L12.5098 104.978C12.7874 104.42 13.2299 103.961 13.7773 103.663C14.3607 103.32 15.0256 103.141 15.7021 103.144C16.2775 103.137 16.8485 103.244 17.3818 103.46C17.8691 103.657 18.2895 103.99 18.5928 104.419C18.9075 104.885 19.0668 105.439 19.0479 106.001C19.0519 106.416 18.9378 106.824 18.7188 107.177C18.4929 107.539 18.1835 107.841 17.8164 108.058C18.2873 108.299 18.6912 108.653 18.9922 109.088C19.2847 109.524 19.436 110.039 19.4258 110.564C19.4387 111.164 19.2732 111.754 18.9502 112.259C18.6287 112.747 18.1782 113.137 17.6484 113.386C17.0617 113.66 16.4201 113.797 15.7725 113.785Z" fill="black"/>
<path d="M23.9346 113.729C23.1659 113.739 22.412 113.517 21.7715 113.092C21.1486 112.689 20.6704 112.098 20.4062 111.404L22.3945 110.677C22.5052 110.976 22.7183 111.227 22.9961 111.384C23.2908 111.565 23.6306 111.659 23.9766 111.656C24.2698 111.66 24.5591 111.588 24.8164 111.447C25.0674 111.308 25.2775 111.105 25.4258 110.859C25.5783 110.611 25.6581 110.325 25.6562 110.033C25.6595 109.738 25.5821 109.448 25.4326 109.193C25.2888 108.946 25.0805 108.743 24.8301 108.605C24.5776 108.465 24.2929 108.392 24.0039 108.395C23.7324 108.395 23.4646 108.457 23.2207 108.576C22.9793 108.689 22.7716 108.863 22.6182 109.081H20.5459L20.9521 103.369H27.3506V105.301H22.8848L22.7725 107.023C22.9884 106.854 23.2323 106.723 23.4932 106.638C23.7608 106.543 24.0423 106.493 24.3262 106.49C24.9408 106.482 25.5459 106.642 26.0762 106.953C26.5943 107.257 27.0184 107.697 27.3018 108.227C27.6022 108.795 27.7537 109.431 27.7422 110.074C27.7513 110.733 27.5743 111.381 27.2314 111.943C26.8947 112.496 26.4162 112.948 25.8457 113.253C25.2592 113.571 24.6016 113.734 23.9346 113.729Z" fill="black"/>
<path d="M41.2998 164.746C40.3692 164.755 39.4542 164.508 38.6543 164.032C37.8614 163.567 37.2029 162.904 36.7432 162.107C36.28 161.308 36.0361 160.4 36.0361 159.475C36.0361 158.551 36.28 157.643 36.7432 156.844C37.2017 156.048 37.8607 155.387 38.6543 154.926C39.4019 154.494 40.2439 154.253 41.1066 154.222C41.9692 154.191 42.8262 154.373 43.6025 154.75C44.3092 155.099 44.9289 155.601 45.416 156.221L44.3096 157.032C43.9539 156.583 43.5021 156.22 42.9873 155.969C42.4632 155.708 41.8853 155.573 41.2998 155.576C40.6109 155.571 39.9335 155.752 39.3398 156.101C38.7517 156.442 38.2621 156.929 37.9189 157.516C37.5707 158.102 37.389 158.772 37.3936 159.454C37.3887 159.969 37.4864 160.48 37.6808 160.957C37.8752 161.434 38.1626 161.867 38.5261 162.232C38.8896 162.596 39.322 162.885 39.7982 163.081C40.2744 163.278 40.7848 163.377 41.2998 163.374C41.8947 163.377 42.4819 163.24 43.0146 162.975C43.5427 162.716 44.0011 162.335 44.3516 161.862L45.5137 162.591C45.0362 163.256 44.4076 163.798 43.6797 164.173C42.9449 164.555 42.1279 164.751 41.2998 164.746Z" fill="black"/>
<path d="M50.0211 164.676C49.4484 164.687 48.8838 164.54 48.3902 164.249C47.8959 163.938 47.5079 163.484 47.2779 162.947C46.987 162.264 46.8484 161.526 46.8717 160.784V156.878H48.1314V160.784C48.1148 161.293 48.2153 161.798 48.4254 162.262C48.5924 162.626 48.8627 162.932 49.2027 163.144C49.5384 163.332 49.9169 163.431 50.3018 163.431C50.6867 163.431 51.0652 163.332 51.4009 163.144C51.7404 162.932 52.0103 162.625 52.1773 162.262C52.3873 161.798 52.4879 161.293 52.4713 160.784V156.878H53.731V164.578H52.5699L52.4996 163.179C52.2755 163.617 51.9401 163.989 51.5269 164.257C51.0778 164.543 50.5535 164.689 50.0211 164.676Z" fill="black"/>
<path d="M58.5342 164.704C57.9024 164.701 57.2756 164.593 56.6797 164.383C56.0799 164.182 55.5421 163.83 55.1182 163.36L56 162.534C56.2986 162.855 56.671 163.098 57.085 163.241C57.5468 163.422 58.0383 163.515 58.5342 163.515C58.9885 163.536 59.4398 163.429 59.8359 163.206C59.9846 163.125 60.1088 163.006 60.1951 162.861C60.2814 162.715 60.3267 162.549 60.3262 162.38C60.3306 162.27 60.3102 162.161 60.2666 162.061C60.223 161.961 60.1572 161.871 60.0742 161.8C59.879 161.64 59.6524 161.523 59.4092 161.456C59.1338 161.372 58.7907 161.288 58.3799 161.204C57.8614 161.094 57.3498 160.954 56.8477 160.784C56.455 160.647 56.1017 160.417 55.8184 160.112C55.518 159.774 55.3624 159.332 55.3848 158.88C55.3795 158.485 55.5075 158.101 55.748 157.788C56.0163 157.452 56.3692 157.193 56.7705 157.039C57.2515 156.849 57.7653 156.757 58.2822 156.767C58.8569 156.766 59.4276 156.863 59.9697 157.054C60.5142 157.244 60.996 157.581 61.3623 158.026L60.5781 158.811C60.3087 158.5 59.9605 158.268 59.5703 158.139C59.1709 157.993 58.7494 157.917 58.3242 157.914C57.9073 157.897 57.4928 157.986 57.1201 158.174C56.9824 158.237 56.8658 158.339 56.7839 158.467C56.7021 158.594 56.6584 158.743 56.6582 158.894C56.6556 158.99 56.6758 159.085 56.7173 159.172C56.7587 159.258 56.8201 159.334 56.8965 159.392C57.0807 159.53 57.2899 159.633 57.5127 159.692C57.7646 159.768 58.0911 159.852 58.4922 159.944C59.0271 160.057 59.5553 160.199 60.0742 160.371C60.4878 160.512 60.8603 160.752 61.1592 161.071C61.4717 161.417 61.6352 161.872 61.6143 162.338C61.6292 162.815 61.4784 163.283 61.1875 163.661C60.8944 164.026 60.5036 164.301 60.0605 164.452C59.5702 164.624 59.0537 164.709 58.5342 164.704Z" fill="black"/>
<path d="M66.1504 164.704C65.812 164.717 65.4747 164.658 65.16 164.533C64.8454 164.408 64.5604 164.218 64.3232 163.977C63.8077 163.365 63.5537 162.576 63.6162 161.778V158.026H62.5664V156.878H63.6445L63.7979 154.358H64.876V156.878H66.7383V158.026H64.876V161.75C64.8442 162.209 64.9783 162.663 65.2539 163.031C65.3844 163.179 65.5466 163.296 65.7284 163.372C65.9102 163.448 66.1068 163.483 66.3037 163.473C66.5099 163.474 66.7145 163.436 66.9062 163.36L67.2285 164.509C66.8853 164.644 66.5191 164.71 66.1504 164.704Z" fill="black"/>
<path d="M71.8194 164.676C71.1233 164.682 70.4386 164.498 69.839 164.145C69.2431 163.797 68.7483 163.3 68.4034 162.702C68.0499 162.1 67.8659 161.413 67.8712 160.715C67.8666 160.023 68.0506 159.342 68.4034 158.747C68.7502 158.153 69.2447 157.659 69.839 157.312C70.4397 156.964 71.1219 156.78 71.8165 156.78C72.5111 156.78 73.1933 156.964 73.7941 157.312C74.3857 157.662 74.8792 158.155 75.2286 158.747C75.5857 159.341 75.7722 160.022 75.7677 160.715C75.7729 161.414 75.5865 162.101 75.2286 162.702C74.8811 163.297 74.3873 163.794 73.7941 164.145C73.1968 164.499 72.5138 164.683 71.8194 164.676ZM71.8194 163.402C72.2877 163.405 72.7477 163.279 73.1495 163.038C73.5539 162.802 73.8893 162.465 74.1222 162.059C74.3597 161.651 74.4831 161.187 74.4796 160.715C74.4826 160.25 74.359 159.792 74.1222 159.392C73.8867 158.99 73.5505 158.656 73.1466 158.424C72.7427 158.192 72.2853 158.069 71.8194 158.068C71.3497 158.064 70.8876 158.188 70.4825 158.426C70.0807 158.659 69.7457 158.991 69.5099 159.392C69.2688 159.791 69.1427 160.249 69.1456 160.715C69.1421 161.188 69.2681 161.652 69.5099 162.059C69.7455 162.462 70.0803 162.8 70.4825 163.038C70.8861 163.28 71.3488 163.406 71.8194 163.402Z" fill="black"/>
<path d="M77.3643 164.578V156.878H78.5264L78.5957 158.194C78.7681 157.764 79.0719 157.399 79.4639 157.151C79.8397 156.909 80.2774 156.78 80.7246 156.78C81.2637 156.762 81.7933 156.925 82.2295 157.242C82.1792 157.379 82.1624 157.525 82.1808 157.669C82.1992 157.814 82.2521 157.951 82.3351 158.071C82.418 158.191 82.5286 158.288 82.6573 158.356C82.7861 158.424 82.9292 158.459 83.0747 158.46C83.2202 158.46 83.3636 158.426 83.4929 158.359C83.6222 158.293 83.7336 158.196 83.8175 158.077C83.9014 157.958 83.9553 157.821 83.9749 157.677C83.9944 157.533 83.9789 157.386 83.9297 157.249C84.3384 156.934 84.8426 156.769 85.3584 156.78C85.7484 156.765 86.1366 156.839 86.4941 156.995C86.8517 157.152 87.1692 157.387 87.4229 157.684C88.0047 158.493 88.2802 159.483 88.2002 160.477V164.578H86.9258V160.477C86.9803 159.818 86.8076 159.161 86.4365 158.614C86.2822 158.43 86.0893 158.281 85.8712 158.18C85.6531 158.078 85.4153 158.026 85.1747 158.026C84.9341 158.027 84.6967 158.081 84.4791 158.183C84.2616 158.286 84.0693 158.436 83.916 158.621C83.5371 159.162 83.3589 159.818 83.4121 160.477V164.578H82.1377V160.477C82.1922 159.818 82.0195 159.161 81.6484 158.614C81.4977 158.426 81.3056 158.275 81.0869 158.173C80.8682 158.071 80.6289 158.021 80.3877 158.026C80.0659 158.022 79.7514 158.123 79.4922 158.313C79.2032 158.542 78.9848 158.848 78.8623 159.195C78.6903 159.668 78.6094 160.17 78.624 160.673V164.578H77.3643Z" fill="black"/>
<path d="M94.0518 164.578V154.358H97.9297C98.5469 154.348 99.1567 154.494 99.7012 154.785C100.199 155.055 100.616 155.454 100.906 155.941C101.196 156.428 101.349 156.984 101.349 157.55C101.349 158.117 101.196 158.673 100.906 159.16C100.616 159.646 100.199 160.046 99.7012 160.316C99.1568 160.607 98.5469 160.754 97.9297 160.742H95.3818V164.578H94.0518ZM97.9023 159.441C98.2802 159.448 98.6537 159.359 98.9873 159.182C99.2822 159.023 99.5288 158.788 99.7007 158.501C99.8725 158.214 99.9633 157.885 99.9633 157.55C99.9633 157.216 99.8725 156.887 99.7007 156.6C99.5288 156.313 99.2822 156.077 98.9873 155.919C98.6536 155.742 98.2801 155.653 97.9023 155.66H95.3818V159.441H97.9023Z" fill="black"/>
<path d="M102.886 164.578V156.893L104.048 156.878L104.132 158.166C104.353 157.749 104.694 157.408 105.111 157.187C105.573 156.945 106.088 156.825 106.609 156.836C106.797 156.837 106.984 156.851 107.17 156.878L106.903 158.097C106.811 158.087 106.717 158.082 106.624 158.082C106.295 158.065 105.966 158.118 105.659 158.236C105.351 158.355 105.072 158.536 104.839 158.769C104.325 159.386 104.076 160.181 104.146 160.98V164.578H102.886Z" fill="black"/>
<path d="M111.593 164.676C110.897 164.682 110.212 164.498 109.612 164.145C109.017 163.797 108.522 163.3 108.177 162.702C107.823 162.1 107.639 161.413 107.645 160.715C107.64 160.023 107.824 159.342 108.177 158.747C108.524 158.153 109.018 157.659 109.612 157.312C110.213 156.964 110.895 156.78 111.59 156.78C112.285 156.78 112.967 156.964 113.567 157.312C114.159 157.662 114.653 158.155 115.002 158.747C115.359 159.341 115.546 160.022 115.541 160.715C115.546 161.414 115.36 162.101 115.002 162.702C114.655 163.297 114.161 163.794 113.567 164.145C112.97 164.499 112.287 164.683 111.593 164.676ZM111.593 163.402C112.061 163.405 112.521 163.279 112.923 163.038C113.327 162.802 113.663 162.465 113.896 162.059C114.133 161.651 114.257 161.187 114.253 160.715C114.256 160.25 114.132 159.792 113.896 159.392C113.66 158.99 113.324 158.656 112.92 158.424C112.516 158.192 112.059 158.069 111.593 158.068C111.123 158.064 110.661 158.188 110.256 158.426C109.854 158.659 109.519 158.991 109.283 159.392C109.042 159.791 108.916 160.249 108.919 160.715C108.916 161.188 109.042 161.652 109.283 162.059C109.519 162.462 109.854 162.8 110.256 163.038C110.66 163.28 111.122 163.406 111.593 163.402Z" fill="black"/>
<path d="M120.399 167.784C119.761 167.785 119.129 167.644 118.552 167.371C117.994 167.119 117.504 166.738 117.124 166.258L118.075 165.502C118.36 165.839 118.72 166.106 119.126 166.279C119.549 166.469 120.007 166.567 120.47 166.566C120.971 166.573 121.468 166.463 121.919 166.244C122.355 166.026 122.716 165.682 122.954 165.257C123.229 164.738 123.362 164.157 123.34 163.57V162.954C123.079 163.468 122.676 163.896 122.178 164.186C121.657 164.509 121.055 164.679 120.441 164.676C119.772 164.682 119.114 164.498 118.545 164.144C117.965 163.783 117.488 163.28 117.158 162.682C116.828 162.084 116.657 161.411 116.661 160.728C116.657 160.037 116.833 159.356 117.173 158.754C117.498 158.163 117.971 157.666 118.545 157.312C119.114 156.959 119.772 156.774 120.441 156.78C121.061 156.778 121.668 156.953 122.191 157.284C122.7 157.584 123.109 158.027 123.367 158.558L123.424 156.878H124.6V163.389C124.627 164.231 124.442 165.066 124.061 165.817C123.728 166.449 123.21 166.965 122.576 167.294C121.901 167.631 121.154 167.8 120.399 167.784ZM120.624 163.416C121.102 163.42 121.573 163.297 121.988 163.059C122.296 162.883 122.565 162.648 122.782 162.367C122.998 162.087 123.156 161.766 123.248 161.423C123.34 161.081 123.363 160.724 123.316 160.373C123.27 160.022 123.154 159.683 122.976 159.377C122.738 158.967 122.398 158.627 121.988 158.391C121.575 158.148 121.103 158.022 120.624 158.026C120.153 158.025 119.691 158.15 119.286 158.391C118.877 158.627 118.537 158.967 118.3 159.377C118.062 159.785 117.937 160.249 117.936 160.722C117.935 161.194 118.058 161.659 118.294 162.068C118.53 162.478 118.869 162.818 119.278 163.055C119.687 163.291 120.152 163.416 120.624 163.416Z" fill="black"/>
<path d="M126.671 164.578V156.893L127.833 156.878L127.917 158.166C128.138 157.749 128.479 157.408 128.896 157.187C129.358 156.945 129.874 156.825 130.395 156.836C130.582 156.837 130.769 156.851 130.955 156.878L130.688 158.097C130.596 158.087 130.502 158.082 130.409 158.082C130.08 158.065 129.751 158.118 129.444 158.236C129.136 158.355 128.857 158.536 128.624 158.769C128.11 159.386 127.861 160.181 127.931 160.98V164.578H126.671Z" fill="black"/>
<path d="M135.211 164.676C134.541 164.682 133.884 164.498 133.315 164.144C132.735 163.783 132.257 163.28 131.927 162.682C131.598 162.084 131.427 161.411 131.431 160.728C131.426 160.037 131.603 159.356 131.942 158.754C132.268 158.163 132.74 157.666 133.315 157.312C133.884 156.959 134.541 156.774 135.211 156.78C135.83 156.778 136.437 156.953 136.961 157.284C137.47 157.584 137.878 158.027 138.137 158.558L138.193 156.878H139.369V164.578H138.193L138.137 162.927C137.876 163.45 137.467 163.886 136.961 164.18C136.436 164.506 135.829 164.678 135.211 164.676ZM135.394 163.416C135.872 163.42 136.343 163.297 136.758 163.059C137.065 162.883 137.335 162.648 137.551 162.367C137.767 162.087 137.926 161.766 138.018 161.423C138.11 161.081 138.133 160.724 138.086 160.373C138.039 160.022 137.923 159.683 137.745 159.377C137.508 158.967 137.167 158.627 136.758 158.391C136.344 158.148 135.873 158.022 135.394 158.026C134.923 158.025 134.461 158.15 134.056 158.391C133.646 158.627 133.306 158.967 133.069 159.377C132.832 159.785 132.706 160.249 132.705 160.722C132.704 161.194 132.828 161.659 133.063 162.068C133.299 162.478 133.639 162.818 134.048 163.055C134.457 163.291 134.921 163.416 135.394 163.416Z" fill="black"/>
<path d="M141.441 164.578V156.878H142.604L142.673 158.194C142.845 157.764 143.149 157.399 143.541 157.151C143.917 156.909 144.355 156.78 144.802 156.78C145.341 156.762 145.87 156.925 146.307 157.242C146.256 157.379 146.24 157.525 146.258 157.669C146.276 157.814 146.329 157.951 146.412 158.071C146.495 158.191 146.606 158.288 146.734 158.356C146.863 158.424 147.006 158.459 147.152 158.46C147.297 158.46 147.441 158.426 147.57 158.359C147.699 158.293 147.811 158.196 147.895 158.077C147.979 157.958 148.032 157.821 148.052 157.677C148.072 157.533 148.056 157.386 148.007 157.249C148.416 156.934 148.92 156.769 149.436 156.78C149.826 156.765 150.214 156.839 150.571 156.995C150.929 157.152 151.246 157.387 151.5 157.684C152.082 158.493 152.357 159.483 152.277 160.477V164.578H151.003V160.477C151.057 159.818 150.885 159.161 150.514 158.614C150.359 158.43 150.166 158.281 149.948 158.18C149.73 158.078 149.492 158.026 149.252 158.026C149.011 158.027 148.774 158.081 148.556 158.183C148.339 158.286 148.146 158.436 147.993 158.621C147.614 159.162 147.436 159.818 147.489 160.477V164.578H146.215V160.477C146.269 159.818 146.097 159.161 145.726 158.614C145.575 158.426 145.383 158.275 145.164 158.173C144.945 158.071 144.706 158.021 144.465 158.026C144.143 158.022 143.829 158.123 143.569 158.313C143.28 158.542 143.062 158.848 142.939 159.195C142.767 159.668 142.687 160.17 142.701 160.673V164.578H141.441Z" fill="black"/>
<path d="M157.079 164.704C156.447 164.701 155.821 164.593 155.225 164.383C154.625 164.182 154.087 163.83 153.663 163.36L154.545 162.534C154.843 162.855 155.216 163.098 155.63 163.241C156.092 163.422 156.583 163.515 157.079 163.515C157.533 163.536 157.985 163.429 158.381 163.206C158.53 163.125 158.654 163.006 158.74 162.861C158.826 162.715 158.872 162.549 158.871 162.38C158.876 162.27 158.855 162.161 158.812 162.061C158.768 161.961 158.702 161.871 158.619 161.8C158.424 161.64 158.197 161.523 157.954 161.456C157.679 161.372 157.336 161.288 156.925 161.204C156.406 161.094 155.895 160.954 155.393 160.784C155 160.647 154.647 160.417 154.363 160.112C154.063 159.774 153.907 159.332 153.93 158.88C153.924 158.485 154.052 158.101 154.293 157.788C154.561 157.452 154.914 157.193 155.315 157.039C155.796 156.849 156.31 156.757 156.827 156.767C157.402 156.766 157.972 156.863 158.515 157.054C159.059 157.244 159.541 157.581 159.907 158.026L159.123 158.811C158.854 158.5 158.505 158.268 158.115 158.139C157.716 157.993 157.294 157.917 156.869 157.914C156.452 157.897 156.038 157.986 155.665 158.174C155.527 158.237 155.411 158.339 155.329 158.467C155.247 158.594 155.203 158.743 155.203 158.894C155.2 158.99 155.221 159.085 155.262 159.172C155.304 159.258 155.365 159.334 155.441 159.392C155.626 159.53 155.835 159.633 156.058 159.692C156.31 159.768 156.636 159.852 157.037 159.944C157.572 160.057 158.1 160.199 158.619 160.371C159.033 160.512 159.405 160.752 159.704 161.071C160.017 161.417 160.18 161.872 160.159 162.338C160.174 162.815 160.023 163.283 159.732 163.661C159.439 164.026 159.049 164.301 158.605 164.452C158.115 164.624 157.599 164.709 157.079 164.704Z" fill="black"/>
<path d="M5.25879 164.578V156.29H3.8584V154.358H7.31641V164.578H5.25879Z" fill="black"/>
<path d="M8.94043 164.578V163.29L12.8184 159.679C13.1554 159.394 13.4544 159.066 13.708 158.705C13.9104 158.416 14.0201 158.072 14.0225 157.719C14.0269 157.447 13.9595 157.179 13.8271 156.941C13.7016 156.718 13.5144 156.536 13.2881 156.416C13.0524 156.293 12.7901 156.231 12.5244 156.234C12.1753 156.23 11.8349 156.343 11.5586 156.557C11.2908 156.756 11.0787 157.021 10.9424 157.326L9.03906 156.683C9.17119 156.203 9.41592 155.761 9.75293 155.395C10.0973 155.012 10.5164 154.705 10.9844 154.491C11.4631 154.272 11.9841 154.159 12.5107 154.162C13.1419 154.155 13.7649 154.304 14.3242 154.597C14.864 154.88 15.3109 155.312 15.6113 155.843C15.9338 156.419 16.0959 157.072 16.0811 157.732C16.0798 158.324 15.9072 158.903 15.584 159.398C15.1977 159.986 14.739 160.522 14.2188 160.994L12.2588 162.646H16.333V164.578H8.94043Z" fill="black"/>
<path d="M20.8408 164.718C20.0721 164.728 19.3182 164.506 18.6777 164.081C18.0551 163.678 17.577 163.087 17.3125 162.395L19.3008 161.666C19.4112 161.966 19.6244 162.216 19.9023 162.373C20.197 162.554 20.5368 162.649 20.8828 162.646C21.1762 162.65 21.4654 162.578 21.7227 162.437C21.9736 162.297 22.1838 162.094 22.332 161.849C22.4845 161.6 22.5644 161.314 22.5625 161.022C22.5656 160.727 22.4883 160.437 22.3389 160.183C22.1948 159.936 21.9866 159.733 21.7363 159.595C21.4838 159.454 21.1991 159.382 20.9102 159.385C20.6387 159.385 20.3708 159.447 20.127 159.566C19.8854 159.678 19.6776 159.852 19.5244 160.07H17.4521L17.8584 154.358H24.2568V156.29H19.791L19.6787 158.012C19.8947 157.843 20.1386 157.713 20.3994 157.627C20.667 157.532 20.9486 157.483 21.2324 157.48C21.8469 157.473 22.4518 157.632 22.9824 157.942C23.5008 158.246 23.925 158.687 24.208 159.217C24.5085 159.785 24.66 160.421 24.6484 161.064C24.6573 161.723 24.4803 162.371 24.1377 162.934C23.8006 163.485 23.3222 163.937 22.752 164.242C22.1655 164.56 21.5079 164.724 20.8408 164.718Z" fill="black"/>
<path d="M35.5742 215.995L39.3398 205.775H40.7959L44.5762 215.995H43.1201L42.0977 213.237H38.0518L37.0439 215.995H35.5742ZM38.458 211.991H41.7061L40.0684 207.581L38.458 211.991Z" fill="black"/>
<path d="M49.9941 216.093C49.3709 216.096 48.7592 215.924 48.2295 215.596C47.7249 215.305 47.3198 214.869 47.0674 214.344L46.998 215.995H45.8359V205.075H47.0957V209.934C47.353 209.414 47.757 208.98 48.2578 208.688C48.7788 208.364 49.3807 208.194 49.9941 208.197C50.6593 208.193 51.312 208.377 51.877 208.729C52.4562 209.091 52.9339 209.594 53.265 210.192C53.5962 210.789 53.7699 211.461 53.7699 212.145C53.7699 212.828 53.5962 213.5 53.265 214.097C52.9339 214.695 52.4562 215.198 51.877 215.561C51.3125 215.913 50.6595 216.097 49.9941 216.093ZM49.7979 214.833C50.2696 214.837 50.7338 214.714 51.1416 214.477C51.5491 214.242 51.8874 213.904 52.1221 213.496C52.36 213.086 52.4854 212.62 52.4854 212.145C52.4854 211.671 52.36 211.204 52.1221 210.794C51.886 210.386 51.5482 210.046 51.1416 209.807C50.7351 209.565 50.2705 209.44 49.7979 209.443C49.3231 209.44 48.8565 209.566 48.4473 209.807C48.0374 210.044 47.697 210.384 47.46 210.794C47.2817 211.1 47.1658 211.439 47.119 211.79C47.0722 212.141 47.0954 212.499 47.1871 212.841C47.2789 213.183 47.4375 213.504 47.6538 213.784C47.8701 214.065 48.1397 214.3 48.4473 214.477C48.8578 214.713 49.324 214.836 49.7979 214.833Z" fill="black"/>
<path d="M55.3701 215.995V208.309L56.5322 208.295L56.6162 209.583C56.8372 209.166 57.1784 208.824 57.5957 208.604C58.0575 208.362 58.5728 208.242 59.0938 208.253C59.2813 208.254 59.4686 208.268 59.6543 208.295L59.3877 209.514C59.2949 209.504 59.2017 209.499 59.1084 209.499C58.7794 209.482 58.4505 209.535 58.1431 209.653C57.8356 209.772 57.5564 209.953 57.3232 210.186C56.8095 210.802 56.5602 211.597 56.6299 212.396V215.995H55.3701Z" fill="black"/>
<path d="M64.0773 216.093C63.3809 216.099 62.6961 215.915 62.0968 215.561C61.5007 215.214 61.0058 214.717 60.6612 214.119C60.3077 213.517 60.1237 212.83 60.129 212.131C60.1244 211.439 60.3084 210.759 60.6612 210.164C61.0083 209.57 61.5027 209.076 62.0968 208.729C62.6977 208.381 63.3799 208.197 64.0743 208.197C64.7688 208.197 65.4509 208.381 66.0519 208.729C66.6433 209.079 67.1368 209.572 67.4864 210.164C67.8435 210.758 68.0301 211.438 68.0255 212.131C68.0308 212.83 67.8443 213.518 67.4864 214.119C67.1392 214.714 66.6453 215.21 66.0519 215.561C65.4549 215.916 64.7718 216.1 64.0773 216.093ZM64.0773 214.819C64.5455 214.821 65.0054 214.695 65.4073 214.455C65.812 214.219 66.1474 213.881 66.38 213.475C66.6177 213.067 66.7412 212.603 66.7374 212.131C66.7402 211.666 66.6167 211.209 66.38 210.809C66.1466 210.406 65.8111 210.073 65.4073 209.842C65.0017 209.608 64.5419 209.485 64.0738 209.485C63.6058 209.485 63.146 209.608 62.7403 209.842C62.3387 210.075 62.0038 210.408 61.7677 210.809C61.5267 211.207 61.4006 211.665 61.4034 212.131C61.3997 212.604 61.5257 213.068 61.7677 213.475C62.003 213.879 62.3378 214.217 62.7403 214.455C63.1441 214.697 63.6066 214.823 64.0773 214.819Z" fill="black"/>
<path d="M72.9262 216.093C72.2563 216.099 71.5985 215.914 71.0297 215.56C70.4566 215.208 69.984 214.714 69.6576 214.126C69.1503 213.222 69.0098 212.158 69.2652 211.153C69.5206 210.148 70.1523 209.28 71.0297 208.728C71.599 208.376 72.2565 208.192 72.9262 208.197C73.5456 208.195 74.1526 208.37 74.6762 208.701C75.1845 209.001 75.5934 209.444 75.852 209.974L75.9086 208.295H77.0844V215.995H75.9086L75.852 214.344C75.5915 214.867 75.1825 215.303 74.6762 215.596C74.1513 215.923 73.5447 216.095 72.9262 216.093ZM73.1088 214.833C73.5872 214.837 74.0581 214.714 74.4731 214.476C74.7806 214.3 75.0503 214.065 75.2665 213.784C75.4828 213.504 75.6413 213.183 75.7331 212.84C75.8248 212.498 75.848 212.141 75.8012 211.79C75.7544 211.439 75.6385 211.1 75.4604 210.794C75.2228 210.384 74.8825 210.044 74.4731 209.807C74.0594 209.565 73.588 209.439 73.1088 209.443C72.6383 209.442 72.1761 209.567 71.7709 209.807C71.3616 210.044 71.0215 210.384 70.7846 210.794C70.5471 211.202 70.4215 211.666 70.4205 212.139C70.4194 212.611 70.543 213.076 70.7787 213.485C71.0144 213.895 71.3539 214.235 71.763 214.472C72.1721 214.708 72.6363 214.833 73.1088 214.833Z" fill="black"/>
<path d="M82.4595 216.093C81.7896 216.099 81.1318 215.914 80.563 215.561C79.9899 215.208 79.5173 214.714 79.1909 214.126C78.6836 213.222 78.543 212.158 78.7984 211.153C79.0537 210.148 79.6856 209.28 80.563 208.729C81.1323 208.376 81.7898 208.192 82.4595 208.197C83.0705 208.196 83.6697 208.366 84.189 208.688C84.6926 208.979 85.0991 209.412 85.3579 209.934V205.075H86.6177V215.995H85.4419L85.3853 214.344C85.1247 214.867 84.7158 215.303 84.2095 215.596C83.6845 215.923 83.078 216.095 82.4595 216.093ZM82.6421 214.833C83.1205 214.838 83.5914 214.714 84.0064 214.477C84.3139 214.3 84.5835 214.065 84.7997 213.784C85.0159 213.504 85.1745 213.183 85.2663 212.841C85.358 212.498 85.3812 212.141 85.3344 211.79C85.2876 211.439 85.1718 211.1 84.9937 210.794C84.7561 210.385 84.4158 210.044 84.0064 209.807C83.5927 209.565 83.1213 209.439 82.6421 209.443C82.1716 209.442 81.7093 209.567 81.3042 209.807C80.8949 210.044 80.5548 210.384 80.3179 210.794C80.0804 211.202 79.9548 211.666 79.9538 212.139C79.9527 212.611 80.0762 213.076 80.3119 213.486C80.5476 213.895 80.8872 214.235 81.2963 214.472C81.7054 214.708 82.1695 214.833 82.6421 214.833Z" fill="black"/>
<path d="M92.6514 215.995V205.775H98.9375V207.021H93.9678V210.143H98.6572V211.361H93.9678V214.707H99.0771V215.995H92.6514Z" fill="black"/>
<path d="M100.1 215.995L103.054 212.145L100.1 208.295H101.64L103.921 211.165L106.203 208.295H107.729L104.789 212.145L107.729 215.995H106.203L103.921 213.111L101.64 215.995H100.1Z" fill="black"/>
<path d="M112.027 216.093C111.302 216.101 110.587 215.917 109.955 215.561C109.502 215.305 109.105 214.962 108.785 214.551C108.465 214.141 108.23 213.672 108.093 213.17C107.955 212.668 107.919 212.144 107.985 211.628C108.051 211.113 108.219 210.615 108.478 210.164C108.82 209.571 109.31 209.076 109.899 208.729C110.498 208.381 111.178 208.197 111.87 208.197C112.562 208.197 113.242 208.381 113.841 208.729C114.425 209.076 114.908 209.571 115.24 210.164C115.581 210.763 115.757 211.442 115.752 212.131C115.749 212.342 115.735 212.552 115.71 212.762H109.311C109.385 213.161 109.556 213.536 109.809 213.854C110.067 214.181 110.397 214.445 110.774 214.623C111.165 214.811 111.594 214.907 112.027 214.903C112.476 214.909 112.921 214.816 113.329 214.63C113.711 214.456 114.047 214.195 114.31 213.867L115.332 214.512C114.95 215.002 114.458 215.395 113.896 215.659C113.315 215.946 112.675 216.094 112.027 216.093ZM114.449 211.711C114.433 211.297 114.305 210.896 114.078 210.549C113.849 210.194 113.533 209.902 113.161 209.702C112.761 209.488 112.313 209.379 111.859 209.387C111.419 209.383 110.986 209.491 110.6 209.702C110.227 209.902 109.912 210.194 109.683 210.549C109.456 210.897 109.324 211.297 109.298 211.711H114.449Z" fill="black"/>
<path d="M120.819 216.093C120.123 216.099 119.438 215.915 118.839 215.561C118.243 215.214 117.748 214.717 117.403 214.119C117.05 213.517 116.866 212.83 116.871 212.131C116.867 211.439 117.051 210.759 117.403 210.164C117.75 209.57 118.245 209.076 118.839 208.729C119.415 208.394 120.067 208.211 120.733 208.198C121.399 208.185 122.058 208.341 122.647 208.652C123.201 208.946 123.678 209.365 124.039 209.877L122.989 210.577C122.746 210.24 122.424 209.966 122.052 209.779C121.671 209.584 121.248 209.483 120.819 209.485C120.35 209.481 119.888 209.604 119.483 209.842C119.081 210.076 118.746 210.408 118.51 210.809C118.269 211.207 118.143 211.665 118.146 212.131C118.142 212.604 118.268 213.068 118.51 213.475C118.745 213.879 119.08 214.217 119.483 214.455C119.886 214.697 120.349 214.823 120.819 214.819C121.255 214.818 121.683 214.712 122.068 214.51C122.453 214.307 122.784 214.015 123.031 213.657L124.081 214.357C123.722 214.885 123.242 215.319 122.682 215.624C122.111 215.937 121.47 216.099 120.819 216.093Z" fill="black"/>
<path d="M125.888 216.079C125.781 216.081 125.675 216.061 125.576 216.02C125.477 215.979 125.388 215.919 125.313 215.842C125.238 215.77 125.177 215.683 125.136 215.586C125.095 215.49 125.075 215.386 125.075 215.281C125.075 215.066 125.161 214.859 125.313 214.707C125.466 214.555 125.672 214.469 125.888 214.469C125.991 214.468 126.094 214.489 126.189 214.53C126.284 214.571 126.37 214.631 126.44 214.707C126.515 214.782 126.575 214.872 126.614 214.971C126.654 215.069 126.673 215.175 126.671 215.281C126.672 215.385 126.652 215.489 126.613 215.585C126.573 215.681 126.514 215.769 126.44 215.842C126.37 215.918 126.284 215.978 126.189 216.019C126.094 216.059 125.991 216.08 125.888 216.079Z" fill="black"/>
<path d="M132.131 215.995V205.775H138.417V207.021H133.447V210.143H138.137V211.361H133.447V214.707H138.557V215.995H132.131Z" fill="black"/>
<path d="M143.596 216.093C142.926 216.099 142.269 215.914 141.7 215.561C141.127 215.208 140.654 214.714 140.328 214.126C139.82 213.222 139.68 212.158 139.935 211.153C140.19 210.148 140.822 209.28 141.7 208.729C142.269 208.376 142.927 208.192 143.596 208.197C144.207 208.196 144.806 208.366 145.326 208.688C145.829 208.979 146.236 209.412 146.495 209.934V205.075H147.754V215.995H146.579L146.522 214.344C146.261 214.867 145.853 215.303 145.346 215.596C144.821 215.923 144.215 216.095 143.596 216.093ZM143.779 214.833C144.257 214.838 144.728 214.714 145.143 214.477C145.451 214.3 145.72 214.065 145.936 213.784C146.153 213.504 146.311 213.183 146.403 212.841C146.495 212.498 146.518 212.141 146.471 211.79C146.424 211.439 146.309 211.1 146.13 210.794C145.893 210.385 145.553 210.044 145.143 209.807C144.729 209.565 144.258 209.439 143.779 209.443C143.308 209.442 142.846 209.567 142.441 209.807C142.032 210.044 141.692 210.384 141.455 210.794C141.217 211.202 141.092 211.666 141.09 212.139C141.089 212.611 141.213 213.076 141.449 213.486C141.684 213.895 142.024 214.235 142.433 214.472C142.842 214.708 143.306 214.833 143.779 214.833Z" fill="black"/>
<path d="M152.808 216.093C152.236 216.104 151.671 215.957 151.177 215.666C150.683 215.355 150.296 214.901 150.065 214.364C149.774 213.681 149.636 212.943 149.659 212.201V208.295H150.919V212.201C150.902 212.709 151.002 213.215 151.212 213.678C151.379 214.042 151.65 214.349 151.99 214.561C152.326 214.749 152.704 214.848 153.089 214.848C153.474 214.848 153.852 214.749 154.188 214.561C154.528 214.348 154.797 214.042 154.964 213.678C155.174 213.215 155.275 212.709 155.258 212.201V208.295H156.518V215.995H155.357L155.287 214.596C155.062 215.034 154.727 215.405 154.314 215.674C153.865 215.96 153.341 216.106 152.808 216.093Z" fill="black"/>
<path d="M162.063 216.093C161.366 216.099 160.681 215.915 160.082 215.561C159.486 215.214 158.991 214.717 158.647 214.119C158.293 213.517 158.109 212.83 158.114 212.131C158.11 211.439 158.294 210.759 158.647 210.164C158.994 209.57 159.488 209.076 160.082 208.729C160.658 208.394 161.31 208.211 161.976 208.198C162.642 208.185 163.301 208.341 163.89 208.652C164.444 208.946 164.921 209.365 165.282 209.877L164.233 210.577C163.989 210.24 163.667 209.966 163.295 209.779C162.914 209.584 162.491 209.483 162.063 209.485C161.593 209.481 161.131 209.604 160.726 209.842C160.324 210.076 159.989 210.408 159.753 210.809C159.512 211.207 159.386 211.665 159.389 212.131C159.385 212.604 159.511 213.068 159.753 213.475C159.988 213.879 160.323 214.217 160.726 214.455C161.129 214.697 161.592 214.823 162.063 214.819C162.498 214.818 162.926 214.712 163.311 214.51C163.696 214.307 164.027 214.015 164.275 213.657L165.324 214.357C164.965 214.885 164.486 215.319 163.925 215.624C163.355 215.937 162.713 216.099 162.063 216.093Z" fill="black"/>
<path d="M170.098 216.093C169.428 216.099 168.771 215.914 168.202 215.56C167.629 215.208 167.156 214.714 166.83 214.126C166.322 213.222 166.182 212.158 166.437 211.153C166.692 210.148 167.324 209.28 168.202 208.728C168.771 208.376 169.429 208.192 170.098 208.197C170.718 208.195 171.325 208.37 171.848 208.701C172.356 209.001 172.765 209.444 173.024 209.974L173.081 208.295H174.256V215.995H173.081L173.024 214.344C172.763 214.867 172.354 215.303 171.848 215.596C171.323 215.923 170.717 216.095 170.098 216.093ZM170.281 214.833C170.759 214.837 171.23 214.714 171.645 214.476C171.953 214.3 172.222 214.065 172.438 213.784C172.655 213.504 172.813 213.183 172.905 212.84C172.997 212.498 173.02 212.141 172.973 211.79C172.926 211.439 172.81 211.1 172.632 210.794C172.395 210.384 172.054 210.044 171.645 209.807C171.231 209.565 170.76 209.439 170.281 209.443C169.81 209.442 169.348 209.567 168.943 209.807C168.534 210.044 168.193 210.384 167.957 210.794C167.719 211.202 167.593 211.666 167.592 212.139C167.591 212.611 167.715 213.076 167.951 213.485C168.186 213.895 168.526 214.235 168.935 214.472C169.344 214.708 169.808 214.833 170.281 214.833Z" fill="black"/>
<path d="M179.199 216.121C178.861 216.134 178.523 216.075 178.209 215.95C177.894 215.824 177.609 215.635 177.372 215.393C176.856 214.782 176.602 213.992 176.665 213.195V209.443H175.615V208.295H176.693L176.847 205.775H177.925V208.295H179.787V209.443H177.925V213.167C177.893 213.626 178.027 214.08 178.303 214.448C178.433 214.596 178.596 214.712 178.777 214.789C178.959 214.865 179.156 214.899 179.353 214.889C179.559 214.89 179.763 214.853 179.955 214.777L180.277 215.926C179.934 216.061 179.568 216.127 179.199 216.121Z" fill="black"/>
<path d="M182.404 207.483C182.297 207.484 182.19 207.463 182.092 207.421C181.993 207.379 181.904 207.317 181.83 207.238C181.678 207.085 181.592 206.877 181.592 206.661C181.592 206.444 181.678 206.237 181.83 206.083C181.905 206.006 181.994 205.946 182.093 205.905C182.192 205.864 182.298 205.844 182.404 205.846C182.512 205.844 182.618 205.865 182.717 205.907C182.816 205.949 182.905 206.012 182.979 206.09C183.055 206.166 183.115 206.257 183.156 206.357C183.197 206.456 183.217 206.563 183.216 206.671C183.216 206.777 183.195 206.881 183.155 206.979C183.114 207.076 183.054 207.164 182.979 207.238C182.905 207.317 182.816 207.379 182.717 207.421C182.618 207.463 182.512 207.484 182.404 207.483ZM181.775 215.995V208.295H183.034V215.995H181.775Z" fill="black"/>
<path d="M188.565 216.093C187.868 216.099 187.183 215.915 186.584 215.561C185.988 215.214 185.493 214.717 185.149 214.119C184.795 213.517 184.611 212.83 184.616 212.131C184.612 211.439 184.796 210.759 185.149 210.164C185.496 209.57 185.99 209.076 186.584 208.729C187.185 208.381 187.867 208.197 188.562 208.197C189.256 208.197 189.938 208.381 190.539 208.729C191.131 209.079 191.624 209.572 191.974 210.164C192.331 210.758 192.517 211.438 192.513 212.131C192.518 212.83 192.332 213.518 191.974 214.119C191.626 214.714 191.133 215.21 190.539 215.561C189.942 215.916 189.259 216.1 188.565 216.093ZM188.565 214.819C189.033 214.821 189.493 214.695 189.895 214.455C190.299 214.219 190.635 213.881 190.867 213.475C191.105 213.067 191.228 212.603 191.225 212.131C191.228 211.666 191.104 211.209 190.867 210.809C190.634 210.406 190.298 210.073 189.895 209.842C189.489 209.608 189.029 209.485 188.561 209.485C188.093 209.485 187.633 209.608 187.228 209.842C186.826 210.075 186.491 210.408 186.255 210.809C186.014 211.207 185.888 211.665 185.891 212.131C185.887 212.604 186.013 213.068 186.255 213.475C186.49 213.879 186.825 214.217 187.228 214.455C187.631 214.697 188.094 214.823 188.565 214.819Z" fill="black"/>
<path d="M194.108 215.995V208.295H195.271L195.34 209.695C195.564 209.256 195.9 208.885 196.313 208.617C196.757 208.331 197.277 208.185 197.805 208.197C198.382 208.185 198.951 208.333 199.449 208.624C199.944 208.935 200.332 209.389 200.562 209.926C200.853 210.609 200.991 211.348 200.969 212.09V215.995H199.708V212.09C199.725 211.581 199.624 211.076 199.414 210.612C199.248 210.248 198.978 209.942 198.638 209.73C198.304 209.536 197.924 209.437 197.538 209.443C197.15 209.437 196.768 209.537 196.433 209.73C196.091 209.937 195.82 210.242 195.655 210.605C195.449 211.072 195.35 211.58 195.368 212.09V215.995H194.108Z" fill="black"/>
<path d="M7.80696 216.331C7.13521 216.343 6.46954 216.202 5.86067 215.918C5.31377 215.662 4.85032 215.257 4.52376 214.749C4.19969 214.239 4.03168 213.645 4.04036 213.041C4.03487 212.52 4.17817 212.007 4.45344 211.564C4.72836 211.122 5.11768 210.761 5.5804 210.521C5.25683 210.291 4.99108 209.989 4.80403 209.639C4.61192 209.282 4.51316 208.882 4.51692 208.477C4.51115 207.946 4.66752 207.426 4.96516 206.986C5.26906 206.538 5.6839 206.176 6.16927 205.936C6.68555 205.682 7.25294 205.551 7.82796 205.551C8.40297 205.551 8.97036 205.682 9.48665 205.936C9.97165 206.176 10.3864 206.538 10.6907 206.986C10.9884 207.426 11.1448 207.946 11.139 208.477C11.1428 208.882 11.044 209.282 10.8519 209.639C10.66 209.994 10.3836 210.298 10.0472 210.521C10.5138 210.767 10.9091 211.128 11.1947 211.571C11.4748 212.01 11.6207 212.521 11.6146 213.041C11.6233 213.646 11.4527 214.241 11.1243 214.749C10.7911 215.259 10.3205 215.664 9.76692 215.918C9.15283 216.201 8.48301 216.342 7.80696 216.331ZM7.82063 214.329C8.11718 214.334 8.41044 214.267 8.67512 214.133C8.91518 214.012 9.12181 213.835 9.27669 213.615C9.42412 213.406 9.50233 213.156 9.50032 212.9C9.50061 212.649 9.4198 212.403 9.26985 212.201C9.11019 211.982 8.89839 211.806 8.65364 211.689C8.39227 211.565 8.10655 211.501 7.81721 211.501C7.52788 211.501 7.24216 211.565 6.98079 211.689C6.74008 211.806 6.53306 211.982 6.37923 212.201C6.23307 212.405 6.15451 212.65 6.15462 212.9C6.15251 213.155 6.22814 213.405 6.37141 213.615C6.52426 213.837 6.73184 214.015 6.97395 214.133C7.23643 214.265 7.52677 214.332 7.82063 214.329ZM7.82063 209.569C8.04321 209.572 8.26345 209.524 8.46516 209.43C8.65055 209.344 8.80995 209.211 8.92708 209.044C9.0365 208.884 9.09505 208.695 9.09505 208.501C9.09505 208.308 9.0365 208.119 8.92708 207.959C8.8084 207.795 8.64924 207.665 8.46516 207.581C8.26345 207.487 8.04322 207.439 7.82063 207.441C7.60051 207.439 7.38268 207.486 7.18391 207.581C7.00356 207.665 6.84884 207.795 6.73567 207.959C6.63051 208.12 6.57454 208.309 6.57454 208.501C6.57454 208.694 6.63051 208.883 6.73567 209.044C6.84729 209.211 7.00224 209.344 7.18391 209.43C7.38268 209.524 7.60051 209.572 7.82063 209.569Z" fill="black"/>
<path d="M17.1865 215.995V213.811H12.4404V211.991L16.7666 205.775H19.2578V211.781H20.0986V213.811H19.2578V215.995H17.1865ZM14.7637 211.781H17.1865V208.561L14.7637 211.781Z" fill="black"/>
</g>
<defs>
<clipPath id="clip0_1059_6491">
<rect width="206.238" height="240.775" fill="white"/>
</clipPath>
</defs>
</svg>
