<svg width="211" height="227" viewBox="0 0 211 227" fill="none" xmlns="http://www.w3.org/2000/svg">
<path d="M42.947 27.5307H27.3383C27.2473 27.5308 27.1572 27.5129 27.0731 27.4781C26.989 27.4433 26.9127 27.3923 26.8483 27.3279C26.784 27.2636 26.7329 27.1872 26.6981 27.1031C26.6633 27.019 26.6455 26.9289 26.6455 26.8379V23.3184C26.6457 21.7614 27.1163 20.2408 27.9957 18.9559C28.8751 17.6711 30.1223 16.6819 31.5737 16.1182C30.8907 15.4165 30.4297 14.5289 30.2484 13.5665C30.0671 12.6042 30.1735 11.6098 30.5544 10.7076C30.9352 9.80538 31.5737 9.03548 32.3898 8.49418C33.2058 7.95287 34.1634 7.66418 35.1427 7.66418C36.122 7.66418 37.0795 7.95287 37.8956 8.49418C38.7117 9.03548 39.35 9.80538 39.7309 10.7076C40.1118 11.6098 40.2182 12.6042 40.0369 13.5665C39.8556 14.5289 39.3947 15.4165 38.7116 16.1182C40.1631 16.6819 41.4102 17.671 42.2896 18.9558C43.1691 20.2407 43.6398 21.7614 43.6398 23.3184V26.8379C43.6399 26.9289 43.622 27.019 43.5872 27.1031C43.5524 27.1872 43.5014 27.2636 43.437 27.3279C43.3727 27.3923 43.2962 27.4433 43.2122 27.4781C43.1281 27.5129 43.038 27.5308 42.947 27.5307ZM28.0311 26.1451H42.2542V23.3184C42.2543 21.8387 41.7364 20.4056 40.7905 19.2677C39.8446 18.1298 38.5304 17.3588 37.0757 17.0884C36.9353 17.0624 36.8063 16.9937 36.7065 16.8916C36.6067 16.7894 36.5409 16.659 36.5181 16.518C36.4953 16.3771 36.5166 16.2326 36.5791 16.1042C36.6416 15.9758 36.7423 15.8699 36.8673 15.8009C37.5678 15.418 38.1209 14.8127 38.4392 14.0806C38.7576 13.3484 38.8232 12.5312 38.6255 11.7577C38.4279 10.9842 37.9784 10.2984 37.3478 9.80873C36.7173 9.31904 35.9417 9.05325 35.1434 9.05325C34.345 9.05325 33.5693 9.31904 32.9388 9.80873C32.3083 10.2984 31.8587 10.9842 31.6611 11.7577C31.4635 12.5312 31.529 13.3484 31.8474 14.0806C32.1658 14.8127 32.7189 15.418 33.4194 15.8009C33.5442 15.8702 33.6445 15.9762 33.7067 16.1046C33.769 16.2331 33.79 16.3776 33.7671 16.5184C33.7442 16.6593 33.6783 16.7896 33.5785 16.8916C33.4787 16.9936 33.35 17.0624 33.2097 17.0884C31.755 17.3589 30.4407 18.13 29.4948 19.2679C28.549 20.4058 28.0312 21.8387 28.0311 23.3184V26.1451Z" fill="black"/>
<path d="M46.8107 48H18.3159C18.2249 48 18.1347 47.9822 18.0506 47.9474C17.9666 47.9126 17.8902 47.8615 17.8259 47.7972C17.7615 47.7328 17.7105 47.6565 17.6757 47.5724C17.6409 47.4883 17.623 47.3982 17.623 47.3072V2.69282C17.623 2.60182 17.6409 2.51172 17.6757 2.42764C17.7105 2.34356 17.7615 2.26715 17.8259 2.2028C17.8902 2.13846 17.9666 2.08745 18.0506 2.05265C18.1347 2.01785 18.2249 1.99995 18.3159 2H51.9703C52.0613 1.99995 52.1514 2.01785 52.2354 2.05265C52.3195 2.08745 52.396 2.13846 52.4603 2.2028C52.5247 2.26715 52.5756 2.34356 52.6104 2.42764C52.6452 2.51172 52.6632 2.60182 52.6631 2.69282V40.7599C52.6629 40.9155 52.6105 41.0666 52.5143 41.1889L47.3546 47.7361C47.2898 47.8184 47.2072 47.8849 47.113 47.9306C47.0188 47.9763 46.9154 48 46.8107 48ZM19.0087 46.6144H46.4751L51.2775 40.5197V3.38564H19.0087V46.6144Z" fill="black"/>
<path d="M46.4253 33.2201H23.8627C23.679 33.2201 23.5027 33.1471 23.3728 33.0172C23.2429 32.8873 23.1699 32.711 23.1699 32.5273C23.1699 32.3435 23.2429 32.1673 23.3728 32.0374C23.5027 31.9074 23.679 31.8345 23.8627 31.8345H46.4253C46.6091 31.8345 46.7853 31.9074 46.9153 32.0374C47.0452 32.1673 47.1181 32.3435 47.1181 32.5273C47.1181 32.711 47.0452 32.8873 46.9153 33.0172C46.7853 33.1471 46.6091 33.2201 46.4253 33.2201Z" fill="black"/>
<path d="M42.2653 38.766H28.0219C27.8382 38.766 27.6619 38.693 27.532 38.5631C27.4021 38.4332 27.3291 38.2569 27.3291 38.0732C27.3291 37.8894 27.4021 37.7132 27.532 37.5833C27.6619 37.4533 27.8382 37.3804 28.0219 37.3804H42.2653C42.449 37.3804 42.6252 37.4533 42.7551 37.5833C42.8851 37.7132 42.9581 37.8894 42.9581 38.0732C42.9581 38.2569 42.8851 38.4332 42.7551 38.5631C42.6252 38.693 42.449 38.766 42.2653 38.766Z" fill="black"/>
<path d="M46.4252 48C46.3342 48.0001 46.2442 47.9822 46.1601 47.9474C46.076 47.9126 45.9996 47.8616 45.9352 47.7972C45.8709 47.7329 45.8199 47.6565 45.7851 47.5724C45.7503 47.4884 45.7324 47.3982 45.7324 47.3072V40.76C45.7324 40.669 45.7503 40.5788 45.7851 40.4947C45.8199 40.4107 45.8709 40.3343 45.9352 40.2699C45.9996 40.2056 46.076 40.1545 46.1601 40.1197C46.2442 40.0849 46.3342 40.0671 46.4252 40.0671H51.9705C52.1542 40.0671 52.3305 40.1401 52.4604 40.27C52.5903 40.4 52.6633 40.5762 52.6633 40.76C52.6633 40.9437 52.5903 41.12 52.4604 41.2499C52.3305 41.3798 52.1542 41.4528 51.9705 41.4528H47.1181V47.3072C47.1181 47.3982 47.1003 47.4884 47.0655 47.5724C47.0307 47.6565 46.9796 47.7329 46.9153 47.7972C46.8509 47.8616 46.7745 47.9126 46.6905 47.9474C46.6064 47.9822 46.5162 48.0001 46.4252 48Z" fill="black"/>
<path d="M23.8619 15.9561L13.8022 6.91345V11.4348H3.5V20.4788H13.8022V25.0002L23.8619 15.9561Z" fill="#F36D20"/>
<path d="M96.6 35H88.72L95.32 25.72C90.36 25.44 86.12 21.32 86.12 15.8C86.12 9.76 90.92 5.36 96.84 5.36C102.76 5.36 107.56 9.76 107.56 15.8C107.56 18.08 106.84 20.2 105.6 21.84L96.6 35ZM96.84 19.72C99.16 19.72 100.96 18 100.96 15.8C100.96 13.6 99.16 11.84 96.84 11.84C94.52 11.84 92.64 13.6 92.64 15.8C92.64 18 94.52 19.72 96.84 19.72Z" fill="#F36D20"/>
<path d="M87.59 55H86.148V44.78H90.026C92.098 44.78 93.47 46.222 93.47 47.986C93.47 49.764 92.098 51.206 90.026 51.206H87.59V55ZM87.59 46.194V49.792H89.998C91.23 49.792 91.986 48.966 91.986 47.986C91.986 47.034 91.23 46.194 89.998 46.194H87.59ZM96.3074 55H94.9494V47.3H96.2094L96.2934 48.56C96.7414 47.734 97.6094 47.244 98.7434 47.258C98.9394 47.258 99.1354 47.272 99.3174 47.3L99.0374 48.616C98.9534 48.602 98.8554 48.588 98.7714 48.588C97.4694 48.588 96.3074 49.316 96.3074 51.444V55ZM103.699 55.112C101.515 55.112 99.7511 53.32 99.7511 51.136C99.7511 48.966 101.515 47.202 103.699 47.202C105.869 47.202 107.647 48.966 107.647 51.136C107.647 53.32 105.869 55.112 103.699 55.112ZM103.699 53.712C105.113 53.712 106.261 52.564 106.261 51.136C106.261 49.736 105.113 48.588 103.699 48.588C102.271 48.588 101.137 49.736 101.137 51.136C101.137 52.564 102.271 53.712 103.699 53.712ZM110.458 58.08H109.1V47.3H110.36L110.43 48.896C110.892 47.944 112.026 47.202 113.286 47.202C115.358 47.202 117.038 48.966 117.038 51.136C117.038 53.32 115.358 55.112 113.286 55.112C112.04 55.112 110.92 54.37 110.458 53.418V58.08ZM113.076 53.754C114.504 53.754 115.666 52.578 115.666 51.136C115.666 49.708 114.504 48.546 113.076 48.546C111.62 48.546 110.458 49.708 110.458 51.136C110.458 52.578 111.62 53.754 113.076 53.754ZM118.704 55.098C118.242 55.098 117.864 54.706 117.864 54.244C117.864 53.782 118.242 53.404 118.704 53.404C119.166 53.404 119.544 53.782 119.544 54.244C119.544 54.706 119.166 55.098 118.704 55.098ZM126.404 55H124.962V44.78H128.84C130.912 44.78 132.284 46.222 132.284 47.986C132.284 49.414 131.346 50.618 129.946 50.954L132.452 55H130.772L128.448 51.206H126.404V55ZM126.404 46.194V49.792H128.812C130.044 49.792 130.8 48.966 130.8 47.986C130.8 47.034 130.044 46.194 128.812 46.194H126.404ZM137.144 55.112C134.806 55.112 133.056 53.32 133.056 51.136C133.056 48.966 134.806 47.202 136.962 47.202C139.202 47.202 140.868 48.966 140.868 51.136C140.868 51.318 140.84 51.584 140.826 51.78H134.526C134.736 52.942 135.814 53.824 137.144 53.824C138.096 53.824 138.852 53.432 139.342 52.83L140.448 53.516C139.72 54.482 138.446 55.112 137.144 55.112ZM134.512 50.66H139.454C139.384 49.47 138.39 48.476 136.976 48.476C135.618 48.476 134.596 49.47 134.512 50.66ZM145.89 55.112C143.706 55.112 141.942 53.32 141.942 51.136C141.942 48.966 143.706 47.202 145.89 47.202C147.22 47.202 148.396 47.86 149.124 48.868L147.99 49.624C147.514 48.994 146.744 48.588 145.89 48.588C144.462 48.588 143.328 49.736 143.328 51.136C143.328 52.564 144.462 53.712 145.89 53.712C146.772 53.712 147.556 53.278 148.018 52.606L149.152 53.362C148.452 54.412 147.248 55.112 145.89 55.112ZM154.193 55.112C151.855 55.112 150.105 53.32 150.105 51.136C150.105 48.966 151.855 47.202 154.011 47.202C156.251 47.202 157.917 48.966 157.917 51.136C157.917 51.318 157.889 51.584 157.875 51.78H151.575C151.785 52.942 152.863 53.824 154.193 53.824C155.145 53.824 155.901 53.432 156.391 52.83L157.497 53.516C156.769 54.482 155.495 55.112 154.193 55.112ZM151.561 50.66H156.503C156.433 49.47 155.439 48.476 154.025 48.476C152.667 48.476 151.645 49.47 151.561 50.66ZM160.139 46.516C159.663 46.516 159.271 46.124 159.271 45.648C159.271 45.172 159.663 44.78 160.139 44.78C160.601 44.78 160.993 45.172 160.993 45.648C160.993 46.124 160.601 46.516 160.139 46.516ZM160.811 55H159.453V47.3H160.811V55ZM166.373 55H165.015L161.991 47.3H163.461L165.701 52.956L167.927 47.3H169.397L166.373 55ZM173.798 55.112C171.46 55.112 169.71 53.32 169.71 51.136C169.71 48.966 171.46 47.202 173.616 47.202C175.856 47.202 177.522 48.966 177.522 51.136C177.522 51.318 177.494 51.584 177.48 51.78H171.18C171.39 52.942 172.468 53.824 173.798 53.824C174.75 53.824 175.506 53.432 175.996 52.83L177.102 53.516C176.374 54.482 175.1 55.112 173.798 55.112ZM171.166 50.66H176.108C176.038 49.47 175.044 48.476 173.63 48.476C172.272 48.476 171.25 49.47 171.166 50.66ZM182.349 55.098C180.277 55.098 178.597 53.32 178.597 51.15C178.597 48.966 180.277 47.188 182.349 47.188C183.595 47.188 184.715 47.916 185.177 48.882V44.08H186.549V55H185.289L185.219 53.39C184.743 54.356 183.609 55.098 182.349 55.098ZM182.573 53.74C184.015 53.74 185.177 52.578 185.177 51.15C185.177 49.708 184.015 48.532 182.573 48.532C181.145 48.532 179.983 49.708 179.983 51.15C179.983 52.578 181.145 53.74 182.573 53.74Z" fill="black"/>
<path d="M42.824 102.531H27.2153C27.1243 102.531 27.0341 102.513 26.9501 102.478C26.866 102.443 26.7896 102.392 26.7253 102.328C26.6609 102.264 26.6099 102.187 26.5751 102.103C26.5403 102.019 26.5224 101.929 26.5225 101.838V98.3191C26.5227 96.762 26.9934 95.2413 27.8728 93.9564C28.7522 92.6714 29.9993 91.6822 31.4507 91.1182C30.7676 90.4165 30.3066 89.5289 30.1253 88.5665C29.944 87.6041 30.0505 86.6097 30.4314 85.7075C30.8123 84.8053 31.4506 84.0355 32.2667 83.4942C33.0828 82.9529 34.0403 82.6642 35.0196 82.6642C35.9989 82.6642 36.9565 82.9529 37.7725 83.4942C38.5886 84.0355 39.2271 84.8053 39.6079 85.7075C39.9888 86.6097 40.0952 87.6041 39.9139 88.5665C39.7326 89.5289 39.2716 90.4165 38.5886 91.1182C40.0399 91.6822 41.2871 92.6714 42.1665 93.9564C43.0459 95.2413 43.5165 96.762 43.5168 98.3191V101.838C43.5168 101.929 43.499 102.019 43.4642 102.103C43.4294 102.187 43.3783 102.264 43.314 102.328C43.2496 102.392 43.1733 102.443 43.0892 102.478C43.0051 102.513 42.915 102.531 42.824 102.531ZM27.9081 101.145H42.1312V98.3191C42.1311 96.8393 41.6133 95.4062 40.6675 94.2682C39.7216 93.1302 38.4074 92.3591 36.9526 92.0884C36.8122 92.0624 36.6833 91.9937 36.5835 91.8916C36.4837 91.7894 36.4179 91.6589 36.3951 91.518C36.3723 91.3771 36.3936 91.2326 36.4561 91.1042C36.5186 90.9758 36.6192 90.8699 36.7442 90.8009C37.4448 90.418 37.9978 89.8127 38.3162 89.0805C38.6346 88.3484 38.7001 87.5312 38.5025 86.7577C38.3049 85.9842 37.8554 85.2984 37.2249 84.8087C36.5943 84.319 35.8187 84.0532 35.0203 84.0532C34.2219 84.0532 33.4463 84.319 32.8158 84.8087C32.1852 85.2984 31.7357 85.9842 31.5381 86.7577C31.3405 87.5312 31.4061 88.3484 31.7244 89.0805C32.0428 89.8127 32.5959 90.418 33.2964 90.8009C33.4211 90.8702 33.5215 90.9762 33.5838 91.1046C33.646 91.233 33.6671 91.3776 33.6441 91.5184C33.6212 91.6593 33.5553 91.7895 33.4555 91.8916C33.3558 91.9936 33.2269 92.0624 33.0866 92.0884C31.632 92.3593 30.3178 93.1305 29.372 94.2685C28.4262 95.4064 27.9083 96.8394 27.9081 98.3191V101.145Z" fill="black"/>
<path d="M46.6877 123H18.1928C18.1018 123 18.0117 122.982 17.9276 122.947C17.8435 122.913 17.7671 122.862 17.7028 122.797C17.6385 122.733 17.5874 122.656 17.5526 122.572C17.5178 122.488 17.4999 122.398 17.5 122.307V77.6928C17.4999 77.6018 17.5178 77.5117 17.5526 77.4276C17.5874 77.3435 17.6385 77.2671 17.7028 77.2028C17.7671 77.1385 17.8435 77.0874 17.9276 77.0526C18.0117 77.0178 18.1018 76.9999 18.1928 77H51.8473C51.9383 76.9999 52.0284 77.0178 52.1125 77.0526C52.1966 77.0874 52.2729 77.1385 52.3373 77.2028C52.4016 77.2671 52.4527 77.3435 52.4875 77.4276C52.5223 77.5117 52.5401 77.6018 52.5401 77.6928V115.761C52.5399 115.916 52.4875 116.067 52.3912 116.19L47.2316 122.736C47.1668 122.818 47.0841 122.885 46.9899 122.931C46.8957 122.976 46.7924 123 46.6877 123ZM18.8856 121.614H46.3522L51.1545 115.52V78.3856H18.8856V121.614Z" fill="black"/>
<path d="M46.3023 108.22H23.7397C23.5559 108.22 23.3797 108.147 23.2498 108.017C23.1198 107.887 23.0469 107.711 23.0469 107.527C23.0469 107.344 23.1198 107.167 23.2498 107.037C23.3797 106.908 23.5559 106.835 23.7397 106.835H46.3023C46.486 106.835 46.6623 106.908 46.7922 107.037C46.9221 107.167 46.9951 107.344 46.9951 107.527C46.9951 107.711 46.9221 107.887 46.7922 108.017C46.6623 108.147 46.486 108.22 46.3023 108.22Z" fill="black"/>
<path d="M42.1422 113.766H27.8989C27.7151 113.766 27.5389 113.693 27.4089 113.563C27.279 113.433 27.2061 113.257 27.2061 113.073C27.2061 112.889 27.279 112.713 27.4089 112.583C27.5389 112.453 27.7151 112.38 27.8989 112.38H42.1422C42.326 112.38 42.5022 112.453 42.6322 112.583C42.7621 112.713 42.8351 112.889 42.8351 113.073C42.8351 113.257 42.7621 113.433 42.6322 113.563C42.5022 113.693 42.326 113.766 42.1422 113.766Z" fill="black"/>
<path d="M46.3022 123C46.2112 123 46.1211 122.982 46.037 122.947C45.9529 122.913 45.8765 122.862 45.8122 122.797C45.7478 122.733 45.6968 122.656 45.662 122.572C45.6272 122.488 45.6093 122.398 45.6094 122.307V115.761C45.6093 115.67 45.6272 115.579 45.662 115.495C45.6968 115.411 45.7478 115.335 45.8122 115.271C45.8765 115.206 45.9529 115.155 46.037 115.12C46.1211 115.086 46.2112 115.068 46.3022 115.068H51.8475C52.0313 115.068 52.2074 115.141 52.3374 115.271C52.4673 115.401 52.5403 115.577 52.5403 115.761C52.5403 115.944 52.4673 116.121 52.3374 116.25C52.2074 116.38 52.0313 116.453 51.8475 116.453H46.995V122.307C46.9951 122.398 46.9772 122.488 46.9424 122.572C46.9076 122.656 46.8566 122.733 46.7922 122.797C46.7279 122.862 46.6515 122.913 46.5674 122.947C46.4833 122.982 46.3932 123 46.3022 123Z" fill="black"/>
<path d="M57.3219 101.627C63.2145 101.627 67.9914 96.8497 67.9914 90.9571C67.9914 85.0645 63.2145 80.2876 57.3219 80.2876C51.4292 80.2876 46.6523 85.0645 46.6523 90.9571C46.6523 96.8497 51.4292 101.627 57.3219 101.627Z" fill="#F36D20"/>
<path d="M56.1276 95.7917V95.7918L56.1333 95.7917L56.1658 95.791L56.1658 95.7911L56.1727 95.7908C56.3126 95.784 56.4491 95.7461 56.5725 95.6802L56.4546 95.4597L56.5725 95.6802C56.6959 95.6142 56.8032 95.5216 56.8865 95.409L56.8867 95.4088L62.6349 87.6254L62.7835 87.4242L62.5822 87.2757L61.4672 86.453L61.2661 86.3046L61.1177 86.5057L56.0583 93.3564L53.4702 90.4611L53.3036 90.2747L53.1172 90.4413L52.0834 91.3656L51.897 91.5322L52.0636 91.7186L55.4249 95.4777L55.4255 95.4783C55.5141 95.5767 55.6223 95.6555 55.7433 95.7095C55.8642 95.7635 55.9952 95.7915 56.1276 95.7917Z" fill="white" stroke="white" stroke-width="0.5"/>
<path d="M97.4 110.56C92.44 110.56 88.32 108.04 86.64 104.16L92.4 101.52C93.12 102.92 95.12 104.08 97.24 104.08C99.76 104.08 101.4 102.68 101.4 100.76C101.4 98.52 99.4 97.4 96.64 97.4H95V91.4H96.76C98.52 91.4 100.32 90.64 100.32 88.88C100.32 87.4 98.92 86.48 97.12 86.48C95.76 86.48 94.56 87.04 93.96 87.84L87.96 85.56C89.36 82.4 93.2 80.16 97.2 80.16C102.24 80.16 106.84 82.72 106.84 88.4C106.84 90.88 105.48 92.88 103.48 94.2C106.08 95.64 107.88 98.04 107.88 101.28C107.88 106.96 103.4 110.56 97.4 110.56Z" fill="#F36D20"/>
<path d="M88.59 130H87.148V119.78H91.026C93.098 119.78 94.47 121.222 94.47 122.986C94.47 124.764 93.098 126.206 91.026 126.206H88.59V130ZM88.59 121.194V124.792H90.998C92.23 124.792 92.986 123.966 92.986 122.986C92.986 122.034 92.23 121.194 90.998 121.194H88.59ZM97.3074 130H95.9494V122.3H97.2094L97.2934 123.56C97.7414 122.734 98.6094 122.244 99.7434 122.258C99.9394 122.258 100.135 122.272 100.317 122.3L100.037 123.616C99.9534 123.602 99.8554 123.588 99.7714 123.588C98.4694 123.588 97.3074 124.316 97.3074 126.444V130ZM104.699 130.112C102.515 130.112 100.751 128.32 100.751 126.136C100.751 123.966 102.515 122.202 104.699 122.202C106.869 122.202 108.647 123.966 108.647 126.136C108.647 128.32 106.869 130.112 104.699 130.112ZM104.699 128.712C106.113 128.712 107.261 127.564 107.261 126.136C107.261 124.736 106.113 123.588 104.699 123.588C103.271 123.588 102.137 124.736 102.137 126.136C102.137 127.564 103.271 128.712 104.699 128.712ZM111.458 133.08H110.1V122.3H111.36L111.43 123.896C111.892 122.944 113.026 122.202 114.286 122.202C116.358 122.202 118.038 123.966 118.038 126.136C118.038 128.32 116.358 130.112 114.286 130.112C113.04 130.112 111.92 129.37 111.458 128.418V133.08ZM114.076 128.754C115.504 128.754 116.666 127.578 116.666 126.136C116.666 124.708 115.504 123.546 114.076 123.546C112.62 123.546 111.458 124.708 111.458 126.136C111.458 127.578 112.62 128.754 114.076 128.754ZM119.704 130.098C119.242 130.098 118.864 129.706 118.864 129.244C118.864 128.782 119.242 128.404 119.704 128.404C120.166 128.404 120.544 128.782 120.544 129.244C120.544 129.706 120.166 130.098 119.704 130.098ZM126.62 130H125.024L128.762 119.78H130.33L134.068 130H132.5L131.52 127.34H127.586L126.62 130ZM129.546 121.726L128.006 125.982H131.1L129.546 121.726ZM136.641 133.08H135.283V122.3H136.543L136.613 123.896C137.075 122.944 138.209 122.202 139.469 122.202C141.541 122.202 143.221 123.966 143.221 126.136C143.221 128.32 141.541 130.112 139.469 130.112C138.223 130.112 137.103 129.37 136.641 128.418V133.08ZM139.259 128.754C140.687 128.754 141.849 127.578 141.849 126.136C141.849 124.708 140.687 123.546 139.259 123.546C137.803 123.546 136.641 124.708 136.641 126.136C136.641 127.578 137.803 128.754 139.259 128.754ZM146.034 133.08H144.676V122.3H145.936L146.006 123.896C146.468 122.944 147.602 122.202 148.862 122.202C150.934 122.202 152.614 123.966 152.614 126.136C152.614 128.32 150.934 130.112 148.862 130.112C147.616 130.112 146.496 129.37 146.034 128.418V133.08ZM148.652 128.754C150.08 128.754 151.242 127.578 151.242 126.136C151.242 124.708 150.08 123.546 148.652 123.546C147.196 123.546 146.034 124.708 146.034 126.136C146.034 127.578 147.196 128.754 148.652 128.754ZM155.522 130H154.164V122.3H155.424L155.508 123.56C155.956 122.734 156.824 122.244 157.958 122.258C158.154 122.258 158.35 122.272 158.532 122.3L158.252 123.616C158.168 123.602 158.07 123.588 157.986 123.588C156.684 123.588 155.522 124.316 155.522 126.444V130ZM162.914 130.112C160.73 130.112 158.966 128.32 158.966 126.136C158.966 123.966 160.73 122.202 162.914 122.202C165.084 122.202 166.862 123.966 166.862 126.136C166.862 128.32 165.084 130.112 162.914 130.112ZM162.914 128.712C164.328 128.712 165.476 127.564 165.476 126.136C165.476 124.736 164.328 123.588 162.914 123.588C161.486 123.588 160.352 124.736 160.352 126.136C160.352 127.564 161.486 128.712 162.914 128.712ZM171.57 130H170.212L167.188 122.3H168.658L170.898 127.956L173.124 122.3H174.594L171.57 130ZM178.995 130.112C176.657 130.112 174.907 128.32 174.907 126.136C174.907 123.966 176.657 122.202 178.813 122.202C181.053 122.202 182.719 123.966 182.719 126.136C182.719 126.318 182.691 126.584 182.677 126.78H176.377C176.587 127.942 177.665 128.824 178.995 128.824C179.947 128.824 180.703 128.432 181.193 127.83L182.299 128.516C181.571 129.482 180.297 130.112 178.995 130.112ZM176.363 125.66H181.305C181.235 124.47 180.241 123.476 178.827 123.476C177.469 123.476 176.447 124.47 176.363 125.66ZM187.546 130.098C185.474 130.098 183.794 128.32 183.794 126.15C183.794 123.966 185.474 122.188 187.546 122.188C188.792 122.188 189.912 122.916 190.374 123.882V119.08H191.746V130H190.486L190.416 128.39C189.94 129.356 188.806 130.098 187.546 130.098ZM187.77 128.74C189.212 128.74 190.374 127.578 190.374 126.15C190.374 124.708 189.212 123.532 187.77 123.532C186.342 123.532 185.18 124.708 185.18 126.15C185.18 127.578 186.342 128.74 187.77 128.74Z" fill="black"/>
<path d="M18.1955 198C18.0111 198 17.8342 197.927 17.7038 197.796C17.5734 197.666 17.5001 197.489 17.5 197.305V152.695C17.4999 152.604 17.5179 152.514 17.5528 152.429C17.5877 152.345 17.639 152.268 17.7036 152.204C17.7682 152.139 17.8448 152.088 17.9293 152.053C18.0137 152.018 18.1041 152 18.1955 152H51.9815C52.0728 152 52.1632 152.018 52.2477 152.053C52.3321 152.088 52.4088 152.139 52.4734 152.204C52.538 152.268 52.5892 152.345 52.6241 152.429C52.659 152.514 52.677 152.604 52.677 152.695V194.6C52.6771 194.724 52.6441 194.845 52.5815 194.952C52.5189 195.058 52.4291 195.146 52.3211 195.206L47.4961 197.911C47.3921 197.969 47.2749 198 47.1558 198C47.0367 198 46.9194 197.969 46.8154 197.911L42.3382 195.397L37.8542 197.911C37.7504 197.969 37.6335 198 37.5146 198C37.3957 198 37.2787 197.969 37.175 197.911L32.6896 195.397L28.2028 197.911C28.0991 197.969 27.9822 198 27.8633 198C27.7444 198 27.6274 197.97 27.5236 197.912L23.03 195.397L18.5351 197.912C18.4313 197.97 18.3144 198 18.1955 198ZM23.03 193.904C23.1489 193.904 23.2658 193.935 23.3696 193.993L27.8631 196.507L32.35 193.993C32.4537 193.935 32.5707 193.905 32.6896 193.905C32.8085 193.905 32.9254 193.935 33.0292 193.993L37.5146 196.507L41.9987 193.993C42.1026 193.935 42.2198 193.905 42.3389 193.905C42.4581 193.905 42.5752 193.935 42.6792 193.993L47.1565 196.507L51.286 194.192V153.391H18.891V196.119L22.6903 193.993C22.7941 193.935 22.9111 193.904 23.03 193.904Z" fill="black"/>
<path d="M34.6891 179.607H24.0705C23.886 179.607 23.7091 179.533 23.5787 179.403C23.4482 179.273 23.375 179.096 23.375 178.911C23.375 178.727 23.4482 178.55 23.5787 178.419C23.7091 178.289 23.886 178.216 24.0705 178.216H34.6891C34.8735 178.216 35.0504 178.289 35.1808 178.419C35.3112 178.55 35.3846 178.727 35.3846 178.911C35.3846 179.096 35.3112 179.273 35.1808 179.403C35.0504 179.533 34.8735 179.607 34.6891 179.607Z" fill="black"/>
<path d="M46.1061 179.607H40.9279C40.7435 179.607 40.5665 179.533 40.4361 179.403C40.3057 179.273 40.2324 179.096 40.2324 178.911C40.2324 178.727 40.3057 178.55 40.4361 178.419C40.5665 178.289 40.7435 178.216 40.9279 178.216H46.1061C46.2906 178.216 46.4674 178.289 46.5979 178.419C46.7283 178.55 46.8016 178.727 46.8016 178.911C46.8016 179.096 46.7283 179.273 46.5979 179.403C46.4674 179.533 46.2906 179.607 46.1061 179.607Z" fill="black"/>
<path d="M34.6891 184.211H24.0705C23.886 184.211 23.7091 184.138 23.5787 184.007C23.4482 183.877 23.375 183.7 23.375 183.515C23.375 183.331 23.4482 183.154 23.5787 183.024C23.7091 182.893 23.886 182.82 24.0705 182.82H34.6891C34.8735 182.82 35.0504 182.893 35.1808 183.024C35.3112 183.154 35.3846 183.331 35.3846 183.515C35.3846 183.7 35.3112 183.877 35.1808 184.007C35.0504 184.138 34.8735 184.211 34.6891 184.211Z" fill="black"/>
<path d="M46.1061 184.211H40.9279C40.7435 184.211 40.5665 184.138 40.4361 184.007C40.3057 183.877 40.2324 183.7 40.2324 183.515C40.2324 183.331 40.3057 183.154 40.4361 183.024C40.5665 182.893 40.7435 182.82 40.9279 182.82H46.1061C46.2906 182.82 46.4674 182.893 46.5979 183.024C46.7283 183.154 46.8016 183.331 46.8016 183.515C46.8016 183.7 46.7283 183.877 46.5979 184.007C46.4674 184.138 46.2906 184.211 46.1061 184.211Z" fill="black"/>
<path d="M34.6891 188.815H24.0705C23.886 188.815 23.7091 188.742 23.5787 188.612C23.4482 188.481 23.375 188.304 23.375 188.12C23.375 187.935 23.4482 187.758 23.5787 187.628C23.7091 187.498 23.886 187.424 24.0705 187.424H34.6891C34.8735 187.424 35.0504 187.498 35.1808 187.628C35.3112 187.758 35.3846 187.935 35.3846 188.12C35.3846 188.304 35.3112 188.481 35.1808 188.612C35.0504 188.742 34.8735 188.815 34.6891 188.815Z" fill="black"/>
<path d="M46.1061 188.815H40.9279C40.7435 188.815 40.5665 188.742 40.4361 188.612C40.3057 188.481 40.2324 188.304 40.2324 188.12C40.2324 187.935 40.3057 187.758 40.4361 187.628C40.5665 187.498 40.7435 187.424 40.9279 187.424H46.1061C46.2906 187.424 46.4674 187.498 46.5979 187.628C46.7283 187.758 46.8016 187.935 46.8016 188.12C46.8016 188.304 46.7283 188.481 46.5979 188.612C46.4674 188.742 46.2906 188.815 46.1061 188.815Z" fill="black"/>
<path d="M57.4754 176.722C63.3908 176.722 68.1862 171.926 68.1862 166.011C68.1862 160.095 63.3908 155.3 57.4754 155.3C51.56 155.3 46.7646 160.095 46.7646 166.011C46.7646 171.926 51.56 176.722 57.4754 176.722Z" fill="#F36D20"/>
<path d="M56.2761 170.863L56.2761 170.863L56.8362 170.33L57.0373 170.479L57.0374 170.479L62.8091 162.666L62.9578 162.465L62.7565 162.316L61.6372 161.49L61.4361 161.342L61.2877 161.543L56.2065 168.421L53.609 165.515L53.4425 165.328L53.2561 165.495L52.2183 166.421L52.0316 166.588L52.1984 166.774L55.5713 170.547L55.5715 170.547C55.6603 170.646 55.7689 170.726 55.8902 170.78C56.0117 170.834 56.1432 170.863 56.2761 170.863Z" fill="white" stroke="white" stroke-width="0.5"/>
<path d="M27.6701 170.996C27.5788 170.996 27.4883 170.978 27.4039 170.943C27.3195 170.908 27.2428 170.857 27.1782 170.792C27.1136 170.728 27.0624 170.651 27.0274 170.567C26.9925 170.482 26.9746 170.392 26.9746 170.3V159.508C26.9746 159.323 27.0479 159.146 27.1783 159.016C27.3087 158.886 27.4857 158.812 27.6701 158.812C27.8546 158.812 28.0314 158.886 28.1618 159.016C28.2923 159.146 28.3656 159.323 28.3656 159.508V170.3C28.3657 170.392 28.3476 170.482 28.3127 170.567C28.2778 170.651 28.2266 170.728 28.162 170.792C28.0974 170.857 28.0207 170.908 27.9363 170.943C27.8519 170.978 27.7615 170.996 27.6701 170.996Z" fill="black"/>
<path d="M30.2076 165.6H27.6701C27.4856 165.6 27.3087 165.526 27.1783 165.396C27.0479 165.266 26.9746 165.089 26.9746 164.904C26.9746 164.72 27.0479 164.543 27.1783 164.412C27.3087 164.282 27.4856 164.209 27.6701 164.209H30.2076C30.392 164.209 30.5689 164.282 30.6993 164.412C30.8298 164.543 30.9031 164.72 30.9031 164.904C30.9031 165.089 30.8298 165.266 30.6993 165.396C30.5689 165.526 30.392 165.6 30.2076 165.6Z" fill="black"/>
<path d="M30.2076 165.6H27.6701C27.4856 165.6 27.3087 165.526 27.1783 165.396C27.0479 165.266 26.9746 165.089 26.9746 164.904C26.9746 164.72 27.0479 164.543 27.1783 164.412C27.3087 164.282 27.4856 164.209 27.6701 164.209H30.2076C30.392 164.209 30.5689 164.282 30.6993 164.412C30.8298 164.543 30.9031 164.72 30.9031 164.904C30.9031 165.089 30.8298 165.266 30.6993 165.396C30.5689 165.526 30.392 165.6 30.2076 165.6Z" fill="black"/>
<path d="M30.208 165.6C30.0836 165.6 29.9615 165.566 29.8545 165.503C29.7474 165.44 29.6593 165.349 29.5992 165.24C29.5392 165.131 29.5094 165.008 29.513 164.884C29.5166 164.76 29.5535 164.638 29.6198 164.533L33.0199 159.137C33.1185 158.982 33.2746 158.872 33.4542 158.831C33.6338 158.791 33.822 158.823 33.9777 158.921C34.1334 159.02 34.2438 159.176 34.2848 159.355C34.3257 159.534 34.2939 159.723 34.1962 159.879L30.7962 165.275C30.7337 165.375 30.6469 165.457 30.544 165.513C30.4411 165.57 30.3255 165.6 30.208 165.6Z" fill="black"/>
<path d="M33.6081 170.996C33.4906 170.996 33.3749 170.966 33.272 170.91C33.1691 170.853 33.0824 170.771 33.0199 170.671L29.6199 165.275C29.5215 165.119 29.4891 164.93 29.5299 164.75C29.5706 164.571 29.6811 164.414 29.8371 164.316C29.9931 164.218 30.1819 164.185 30.3617 164.226C30.5416 164.267 30.6979 164.377 30.7962 164.533L34.1963 169.929C34.2626 170.035 34.2994 170.156 34.303 170.28C34.3066 170.404 34.2768 170.527 34.2168 170.636C34.1567 170.745 34.0686 170.836 33.9616 170.899C33.8545 170.962 33.7325 170.996 33.6081 170.996Z" fill="black"/>
<path d="M39.7241 170.996H36.5685C36.4772 170.996 36.3867 170.978 36.3023 170.943C36.2179 170.908 36.1412 170.857 36.0766 170.792C36.012 170.728 35.9608 170.651 35.9259 170.567C35.8909 170.482 35.873 170.392 35.873 170.3V159.279C35.873 159.188 35.8909 159.097 35.9259 159.013C35.9608 158.928 36.012 158.852 36.0766 158.787C36.1412 158.722 36.2179 158.671 36.3023 158.636C36.3867 158.601 36.4772 158.583 36.5685 158.583H39.7241C40.6461 158.584 41.53 158.951 42.1819 159.603C42.8339 160.255 43.2006 161.139 43.2016 162.061V167.518C43.2006 168.44 42.8339 169.324 42.1819 169.976C41.53 170.628 40.6461 170.995 39.7241 170.996ZM37.264 169.605H39.7241C40.2773 169.604 40.8076 169.384 41.1988 168.993C41.59 168.602 41.81 168.072 41.8106 167.518V162.061C41.81 161.508 41.59 160.977 41.1988 160.586C40.8076 160.195 40.2773 159.975 39.7241 159.974H37.264V169.605Z" fill="black"/>
<path d="M107.04 185H85.8V181.04L96.6 170.84C98.44 169.16 99.88 167.48 99.88 165.52C99.88 163.2 98.2 161.72 96.08 161.72C94.08 161.72 92.68 163.12 92.04 164.52L86.08 162.48C87.24 158.36 91.32 155.24 96.04 155.24C101.76 155.24 106.36 159.16 106.36 165.56C106.36 169.24 103.72 172.32 101 174.92L96.24 178.96H107.04V185ZM118.517 185H111.277L121.957 161.84H108.477V155.8H129.717V159.72L118.517 185ZM135.34 185.56C133.38 185.56 131.82 183.96 131.82 182.04C131.82 180.08 133.38 178.52 135.34 178.52C137.26 178.52 138.82 180.08 138.82 182.04C138.82 183.96 137.26 185.56 135.34 185.56ZM151.285 185H144.805V161.84H140.805V155.8H151.285V185ZM164.323 185H157.403V155.8H164.323V166.72L172.283 155.8H180.003L171.003 168.08L180.683 185H172.683L166.723 174.52L164.323 177.4V185Z" fill="#F36D20"/>
<path d="M87.59 205H86.148V194.78H87.59V199.708L91.916 194.78H93.582L89.998 198.994L93.932 205H92.238L89.088 200.296L87.59 201.92V205ZM98.4715 205H95.3355V194.78H98.4715C101.65 194.78 103.848 197.034 103.848 199.876C103.848 202.746 101.734 205 98.4715 205ZM96.7775 196.194V203.572H98.4715C100.908 203.572 102.35 201.906 102.35 199.862C102.35 197.888 100.824 196.194 98.4715 196.194H96.7775ZM110.171 205H108.575L112.313 194.78H113.881L117.619 205H116.051L115.071 202.34H111.137L110.171 205ZM113.097 196.726L111.557 200.982H114.651L113.097 196.726ZM120.192 205H118.834V197.3H120.094L120.164 198.574C120.556 197.678 121.424 197.188 122.264 197.188C123.496 197.188 124.294 197.902 124.616 198.826C124.938 197.916 125.736 197.188 126.856 197.188C128.494 197.188 129.712 198.238 129.712 200.912V205H128.34V200.912C128.34 199.148 127.556 198.532 126.646 198.532C125.792 198.532 124.952 199.148 124.952 200.912V205H123.58V200.912C123.58 199.148 122.796 198.532 121.886 198.532C120.976 198.532 120.192 199.316 120.192 201.08V205ZM135.049 205.112C132.865 205.112 131.101 203.32 131.101 201.136C131.101 198.966 132.865 197.202 135.049 197.202C137.219 197.202 138.997 198.966 138.997 201.136C138.997 203.32 137.219 205.112 135.049 205.112ZM135.049 203.712C136.463 203.712 137.611 202.564 137.611 201.136C137.611 199.736 136.463 198.588 135.049 198.588C133.621 198.588 132.487 199.736 132.487 201.136C132.487 202.564 133.621 203.712 135.049 203.712ZM143.527 205.112C141.735 205.112 140.377 203.866 140.377 201.206V197.3H141.749V201.206C141.749 202.97 142.701 203.754 143.835 203.754C144.955 203.754 145.921 202.97 145.921 201.206V197.3H147.279V205H146.019L145.949 203.628C145.529 204.44 144.689 205.112 143.527 205.112ZM150.639 205H149.281V197.3H150.541L150.611 198.658C151.031 197.846 151.857 197.188 153.033 197.188C154.825 197.188 156.183 198.42 156.183 201.08V205H154.811V201.08C154.811 199.33 153.859 198.532 152.725 198.532C151.605 198.532 150.639 199.316 150.639 201.08V205ZM160.78 205.126C159.366 205.126 158.19 204.272 158.19 202.13V198.532H157.154V197.3H158.232L158.4 194.78H159.548V197.3H161.396V198.532H159.548V202.116C159.548 203.222 160.094 203.796 160.962 203.796C161.158 203.796 161.368 203.768 161.55 203.698L161.9 204.916C161.578 205.056 161.186 205.126 160.78 205.126ZM86.806 223H85.21L88.948 212.78H90.516L94.254 223H92.686L91.706 220.34H87.772L86.806 223ZM89.732 214.726L88.192 218.982H91.286L89.732 214.726ZM96.8269 226.08H95.4689V215.3H96.7289L96.7989 216.896C97.2609 215.944 98.3949 215.202 99.6549 215.202C101.727 215.202 103.407 216.966 103.407 219.136C103.407 221.32 101.727 223.112 99.6549 223.112C98.4089 223.112 97.2889 222.37 96.8269 221.418V226.08ZM99.4449 221.754C100.873 221.754 102.035 220.578 102.035 219.136C102.035 217.708 100.873 216.546 99.4449 216.546C97.9889 216.546 96.8269 217.708 96.8269 219.136C96.8269 220.578 97.9889 221.754 99.4449 221.754ZM106.22 226.08H104.862V215.3H106.122L106.192 216.896C106.654 215.944 107.788 215.202 109.048 215.202C111.12 215.202 112.8 216.966 112.8 219.136C112.8 221.32 111.12 223.112 109.048 223.112C107.802 223.112 106.682 222.37 106.22 221.418V226.08ZM108.838 221.754C110.266 221.754 111.428 220.578 111.428 219.136C111.428 217.708 110.266 216.546 108.838 216.546C107.382 216.546 106.22 217.708 106.22 219.136C106.22 220.578 107.382 221.754 108.838 221.754ZM115.708 223H114.35V215.3H115.61L115.694 216.56C116.142 215.734 117.01 215.244 118.144 215.258C118.34 215.258 118.536 215.272 118.718 215.3L118.438 216.616C118.354 216.602 118.256 216.588 118.172 216.588C116.87 216.588 115.708 217.316 115.708 219.444V223ZM123.099 223.112C120.915 223.112 119.151 221.32 119.151 219.136C119.151 216.966 120.915 215.202 123.099 215.202C125.269 215.202 127.047 216.966 127.047 219.136C127.047 221.32 125.269 223.112 123.099 223.112ZM123.099 221.712C124.513 221.712 125.661 220.564 125.661 219.136C125.661 217.736 124.513 216.588 123.099 216.588C121.671 216.588 120.537 217.736 120.537 219.136C120.537 220.564 121.671 221.712 123.099 221.712ZM131.755 223H130.397L127.373 215.3H128.843L131.083 220.956L133.309 215.3H134.779L131.755 223ZM139.181 223.112C136.843 223.112 135.093 221.32 135.093 219.136C135.093 216.966 136.843 215.202 138.999 215.202C141.239 215.202 142.905 216.966 142.905 219.136C142.905 219.318 142.877 219.584 142.863 219.78H136.563C136.773 220.942 137.851 221.824 139.181 221.824C140.133 221.824 140.889 221.432 141.379 220.83L142.485 221.516C141.757 222.482 140.483 223.112 139.181 223.112ZM136.549 218.66H141.491C141.421 217.47 140.427 216.476 139.013 216.476C137.655 216.476 136.633 217.47 136.549 218.66ZM147.732 223.098C145.66 223.098 143.98 221.32 143.98 219.15C143.98 216.966 145.66 215.188 147.732 215.188C148.978 215.188 150.098 215.916 150.56 216.882V212.08H151.932V223H150.672L150.602 221.39C150.126 222.356 148.992 223.098 147.732 223.098ZM147.956 221.74C149.398 221.74 150.56 220.578 150.56 219.15C150.56 217.708 149.398 216.532 147.956 216.532C146.528 216.532 145.366 217.708 145.366 219.15C145.366 220.578 146.528 221.74 147.956 221.74Z" fill="black"/>
</svg>
