<svg width="29" height="30" viewBox="0 0 29 30" fill="none" xmlns="http://www.w3.org/2000/svg">
<mask id="mask0_1059_6728" style="mask-type:luminance" maskUnits="userSpaceOnUse" x="0" y="0" width="29" height="30">
<path d="M28.5442 0.913086H0.443359V29.0139H28.5442V0.913086Z" fill="white"/>
</mask>
<g mask="url(#mask0_1059_6728)">
<path d="M26.0127 14.9635C26.0127 18.7151 25.9984 19.1594 25.9309 20.641C25.9203 21.5319 25.7566 22.4144 25.4471 23.2499C25.2133 23.8559 24.8553 24.4063 24.396 24.8656C23.9367 25.3249 23.3864 25.6829 22.7804 25.9166C21.9449 26.2262 21.0625 26.3897 20.1715 26.4003C18.69 26.4678 18.2455 26.482 14.4939 26.4821C10.7422 26.4821 10.298 26.4678 8.81641 26.4003C7.92541 26.3897 7.04288 26.2262 6.20734 25.9166C5.60137 25.6829 5.05106 25.3246 4.5918 24.8654C4.13254 24.4061 3.7745 23.8558 3.54074 23.2499C3.23124 22.4144 3.06763 21.5319 3.05707 20.641C2.98946 19.1596 2.97507 18.7154 2.97507 14.9635C2.97507 11.2116 2.98945 10.7671 3.05707 9.28577C3.06762 8.39481 3.23124 7.51241 3.54074 6.67688C3.7745 6.07091 4.13254 5.52066 4.5918 5.0614C5.05106 4.60214 5.60137 4.24414 6.20734 4.01038C7.04289 3.70084 7.92542 3.53708 8.81641 3.52649C10.298 3.45888 10.7422 3.4447 14.4939 3.4447C18.2455 3.4447 18.6898 3.45888 20.1714 3.52649C21.0623 3.53707 21.9449 3.70085 22.7804 4.01038C23.3864 4.24412 23.9367 4.60214 24.396 5.0614C24.8553 5.52067 25.2133 6.0709 25.4471 6.67688C25.7566 7.51238 25.9203 8.39483 25.9309 9.28577C25.9985 10.7674 26.0127 11.2119 26.0127 14.9635ZM28.5443 14.9635C28.5443 11.1477 28.5281 10.669 28.4597 9.17029C28.4364 8.00468 28.2156 6.85168 27.8067 5.75989C27.4457 4.82654 26.8937 3.97873 26.1861 3.27112C25.4785 2.5635 24.6308 2.01149 23.6975 1.65051C22.6057 1.24156 21.4525 1.02075 20.2869 0.997437C18.7883 0.929087 18.3098 0.912964 14.4939 0.912964C10.678 0.912964 10.1995 0.929087 8.70087 0.997437C7.53528 1.02075 6.38209 1.24156 5.29034 1.65051C4.35699 2.01149 3.50932 2.56351 2.8017 3.27112C2.09407 3.97873 1.54208 4.82654 1.18109 5.75989C0.772115 6.85166 0.55127 8.00466 0.527924 9.17029C0.459574 10.669 0.443359 11.1476 0.443359 14.9635C0.443359 18.7794 0.459574 19.2579 0.527924 20.7565C0.551272 21.9221 0.772111 23.0753 1.18109 24.1671C1.54206 25.1005 2.09407 25.948 2.8017 26.6556C3.50933 27.3633 4.35698 27.9153 5.29034 28.2762C6.3821 28.6852 7.53528 28.906 8.70087 28.9293C10.1995 28.9977 10.678 29.014 14.4939 29.014C18.3098 29.014 18.7884 28.9977 20.287 28.9293C21.4525 28.9059 22.6057 28.6851 23.6975 28.2762C24.6308 27.9153 25.4785 27.3633 26.1861 26.6556C26.8938 25.948 27.4458 25.1005 27.8067 24.1671C28.2156 23.0753 28.4364 21.9221 28.4597 20.7565C28.5281 19.2579 28.5443 18.7793 28.5443 14.9635Z" fill="white"/>
<path d="M21.7083 14.9635C21.7083 13.2942 21.1295 11.6766 20.0705 10.3863C19.0115 9.09599 17.5379 8.2129 15.9008 7.88728C14.2636 7.56166 12.5642 7.81377 11.0921 8.60066C9.62 9.38755 8.46625 10.6605 7.82749 12.2027C7.18873 13.7449 7.10445 15.4608 7.58903 17.0582C8.0736 18.6555 9.09704 20.0354 10.485 20.9627C11.8729 21.8901 13.5394 22.3075 15.2006 22.1439C16.8618 21.9802 18.4149 21.2458 19.5952 20.0655C20.9482 18.7124 21.7083 16.877 21.7083 14.9635ZM9.8097 14.9635C9.80965 13.8799 10.1853 12.8299 10.8727 11.9923C11.5601 11.1546 12.5167 10.5811 13.5795 10.3697C14.6422 10.1583 15.7455 10.3218 16.7011 10.8326C17.6568 11.3434 18.4058 12.1696 18.8205 13.1707C19.2352 14.1718 19.29 15.2859 18.9754 16.3228C18.6609 17.3598 17.9966 18.2555 17.0956 18.8575C16.1947 19.4595 15.1128 19.7308 14.0344 19.6246C12.956 19.5184 11.9478 19.0414 11.1816 18.2752C10.7466 17.8403 10.4016 17.3242 10.1662 16.7559C9.93084 16.1877 9.8097 15.5785 9.8097 14.9635Z" fill="white"/>
<path d="M20.3076 22.4633C20.3076 22.7967 20.4065 23.1225 20.5918 23.3998C20.777 23.677 21.0403 23.8933 21.3484 24.0209C21.6565 24.1485 21.9955 24.1819 22.3225 24.1168C22.6496 24.0518 22.95 23.8912 23.1858 23.6554C23.4216 23.4196 23.5822 23.1192 23.6472 22.7921C23.7123 22.4651 23.6789 22.1261 23.5513 21.818C23.4237 21.5099 23.2076 21.2467 22.9303 21.0614C22.6531 20.8761 22.3271 20.7772 21.9937 20.7772C21.5465 20.7772 21.1176 20.9547 20.8015 21.2709C20.4853 21.5871 20.3076 22.0161 20.3076 22.4633Z" fill="white"/>
</g>
</svg>
