<svg width="451" height="181" viewBox="0 0 451 181" fill="none" xmlns="http://www.w3.org/2000/svg">
<g clip-path="url(#clip0_1059_6643)">
<mask id="mask0_1059_6643" style="mask-type:luminance" maskUnits="userSpaceOnUse" x="0" y="-1" width="451" height="182">
<path d="M450.85 -0.161865H0V180.989H450.85V-0.161865Z" fill="white"/>
</mask>
<g mask="url(#mask0_1059_6643)">
<path d="M49.7734 161.191C49.6972 161.19 49.6219 161.174 49.5526 161.142C49.4832 161.11 49.4213 161.064 49.3709 161.007C49.2625 160.885 49.2031 160.727 49.2041 160.564V4.07947C49.203 3.91602 49.2624 3.75789 49.3708 3.63562C49.4208 3.57792 49.4827 3.53159 49.5521 3.49988C49.6216 3.46816 49.697 3.45178 49.7734 3.45178C49.8497 3.45178 49.9252 3.46816 49.9947 3.49988C50.0641 3.53159 50.126 3.57792 50.176 3.63562C50.2845 3.75788 50.3439 3.91601 50.3428 4.07947V160.564C50.3438 160.727 50.2844 160.885 50.176 161.007C50.1256 161.064 50.0636 161.11 49.9943 161.142C49.9249 161.174 49.8496 161.19 49.7734 161.191Z" fill="black"/>
<path d="M450.281 161.447H49.7734C49.6224 161.447 49.4776 161.387 49.3708 161.28C49.2641 161.173 49.2041 161.028 49.2041 160.877C49.2041 160.726 49.2641 160.582 49.3708 160.475C49.4776 160.368 49.6224 160.308 49.7734 160.308H450.281C450.432 160.308 450.577 160.368 450.684 160.475C450.791 160.582 450.851 160.726 450.851 160.877C450.851 161.028 450.791 161.173 450.684 161.28C450.577 161.387 450.432 161.447 450.281 161.447Z" fill="#D3D3D3"/>
<path d="M450.281 161.447H49.7734C49.6224 161.447 49.4776 161.387 49.3708 161.28C49.2641 161.173 49.2041 161.028 49.2041 160.877C49.2041 160.726 49.2641 160.582 49.3708 160.475C49.4776 160.368 49.6224 160.308 49.7734 160.308H450.281C450.432 160.308 450.577 160.368 450.684 160.475C450.791 160.582 450.851 160.726 450.851 160.877C450.851 161.028 450.791 161.173 450.684 161.28C450.577 161.387 450.432 161.447 450.281 161.447Z" fill="black"/>
<path d="M66.6351 166.67C66.4842 166.67 66.3395 166.61 66.2327 166.503C66.1259 166.397 66.0657 166.252 66.0654 166.101V160.918C66.0654 160.767 66.1254 160.623 66.2322 160.516C66.339 160.409 66.4838 160.349 66.6348 160.349C66.7858 160.349 66.9306 160.409 67.0374 160.516C67.1442 160.623 67.2041 160.767 67.2041 160.918V166.101C67.2041 166.176 67.1895 166.25 67.1609 166.319C67.1323 166.388 67.0903 166.45 67.0375 166.503C66.9847 166.556 66.9219 166.598 66.8529 166.627C66.7839 166.655 66.7099 166.67 66.6351 166.67Z" fill="black"/>
<path d="M100.234 166.67C100.159 166.67 100.085 166.655 100.016 166.627C99.9472 166.598 99.8845 166.556 99.8317 166.503C99.7788 166.45 99.7369 166.388 99.7083 166.319C99.6798 166.25 99.665 166.176 99.665 166.101V160.918C99.6657 160.768 99.7259 160.623 99.8326 160.517C99.9393 160.411 100.084 160.351 100.234 160.351C100.385 160.351 100.529 160.411 100.636 160.517C100.743 160.623 100.803 160.768 100.804 160.918V166.101C100.804 166.176 100.789 166.25 100.76 166.319C100.732 166.388 100.69 166.451 100.637 166.504C100.584 166.556 100.521 166.598 100.452 166.627C100.383 166.655 100.309 166.67 100.234 166.67Z" fill="black"/>
<path d="M133.832 166.67C133.681 166.67 133.537 166.61 133.43 166.503C133.323 166.397 133.263 166.252 133.263 166.101V160.918C133.263 160.767 133.323 160.623 133.429 160.516C133.536 160.409 133.681 160.349 133.832 160.349C133.983 160.349 134.128 160.409 134.235 160.516C134.341 160.623 134.401 160.767 134.401 160.918V166.101C134.401 166.176 134.387 166.25 134.358 166.319C134.33 166.388 134.288 166.45 134.235 166.503C134.182 166.556 134.119 166.598 134.05 166.627C133.981 166.655 133.907 166.67 133.832 166.67Z" fill="black"/>
<path d="M167.433 166.67C167.359 166.67 167.285 166.655 167.215 166.627C167.146 166.598 167.084 166.556 167.031 166.503C166.978 166.45 166.936 166.388 166.908 166.319C166.879 166.25 166.864 166.176 166.864 166.101V160.918C166.864 160.767 166.924 160.623 167.031 160.516C167.138 160.409 167.283 160.349 167.434 160.349C167.585 160.349 167.729 160.409 167.836 160.516C167.943 160.623 168.003 160.767 168.003 160.918V166.101C168.003 166.176 167.988 166.25 167.96 166.319C167.931 166.388 167.889 166.451 167.836 166.504C167.783 166.556 167.72 166.598 167.651 166.627C167.582 166.655 167.508 166.67 167.433 166.67Z" fill="black"/>
<path d="M201.032 166.67C200.957 166.67 200.883 166.655 200.814 166.627C200.745 166.598 200.682 166.556 200.63 166.503C200.577 166.45 200.535 166.388 200.506 166.319C200.478 166.25 200.463 166.176 200.463 166.101V160.918C200.463 160.767 200.523 160.623 200.63 160.516C200.736 160.409 200.881 160.349 201.032 160.349C201.183 160.349 201.327 160.409 201.434 160.516C201.541 160.623 201.601 160.767 201.601 160.918V166.101C201.601 166.176 201.586 166.25 201.558 166.319C201.529 166.388 201.487 166.45 201.434 166.503C201.381 166.556 201.319 166.598 201.25 166.627C201.181 166.655 201.107 166.67 201.032 166.67Z" fill="black"/>
<path d="M234.632 166.67C234.557 166.67 234.483 166.655 234.414 166.627C234.345 166.598 234.282 166.556 234.229 166.504C234.176 166.451 234.135 166.388 234.106 166.319C234.077 166.25 234.062 166.176 234.063 166.101V160.918C234.063 160.767 234.122 160.623 234.229 160.516C234.336 160.409 234.481 160.349 234.632 160.349C234.783 160.349 234.928 160.409 235.034 160.516C235.141 160.623 235.201 160.767 235.201 160.918V166.101C235.201 166.176 235.186 166.25 235.158 166.319C235.129 166.388 235.087 166.45 235.035 166.503C234.982 166.556 234.919 166.598 234.85 166.627C234.781 166.655 234.707 166.67 234.632 166.67Z" fill="black"/>
<path d="M268.231 166.67C268.156 166.67 268.082 166.655 268.013 166.627C267.944 166.598 267.882 166.556 267.829 166.503C267.776 166.45 267.734 166.388 267.705 166.319C267.677 166.25 267.662 166.176 267.662 166.101V160.918C267.662 160.767 267.722 160.623 267.829 160.516C267.936 160.409 268.08 160.349 268.231 160.349C268.382 160.349 268.527 160.409 268.634 160.516C268.741 160.623 268.801 160.767 268.801 160.918V166.101C268.8 166.252 268.74 166.397 268.634 166.503C268.527 166.61 268.382 166.67 268.231 166.67Z" fill="black"/>
<path d="M301.829 166.67C301.679 166.67 301.534 166.61 301.427 166.503C301.32 166.397 301.26 166.252 301.26 166.101V160.918C301.26 160.768 301.321 160.623 301.427 160.517C301.534 160.411 301.679 160.351 301.829 160.351C301.98 160.351 302.124 160.411 302.231 160.517C302.338 160.623 302.398 160.768 302.398 160.918V166.101C302.399 166.176 302.384 166.25 302.355 166.319C302.327 166.388 302.285 166.45 302.232 166.503C302.179 166.556 302.116 166.598 302.047 166.627C301.978 166.655 301.904 166.67 301.829 166.67Z" fill="black"/>
<path d="M335.429 166.67C335.355 166.67 335.281 166.655 335.212 166.627C335.143 166.598 335.08 166.556 335.027 166.503C334.974 166.45 334.932 166.388 334.904 166.319C334.875 166.25 334.86 166.176 334.86 166.101V160.918C334.861 160.768 334.921 160.623 335.028 160.517C335.135 160.411 335.279 160.351 335.43 160.351C335.58 160.351 335.725 160.411 335.831 160.517C335.938 160.623 335.998 160.768 335.999 160.918V166.101C335.999 166.176 335.984 166.25 335.956 166.319C335.927 166.388 335.885 166.451 335.832 166.504C335.779 166.556 335.716 166.598 335.647 166.627C335.578 166.655 335.504 166.67 335.429 166.67Z" fill="black"/>
<path d="M369.03 166.67C368.879 166.67 368.734 166.61 368.627 166.503C368.52 166.397 368.46 166.252 368.46 166.101V160.918C368.461 160.768 368.521 160.623 368.628 160.517C368.734 160.411 368.879 160.351 369.029 160.351C369.18 160.351 369.324 160.411 369.431 160.517C369.538 160.623 369.598 160.768 369.599 160.918V166.101C369.599 166.176 369.584 166.25 369.555 166.319C369.527 166.388 369.485 166.45 369.432 166.503C369.379 166.556 369.316 166.598 369.247 166.627C369.178 166.655 369.104 166.67 369.03 166.67Z" fill="black"/>
<path d="M402.628 166.67C402.477 166.67 402.332 166.61 402.225 166.503C402.119 166.397 402.059 166.252 402.059 166.101V160.918C402.059 160.767 402.119 160.623 402.225 160.516C402.332 160.409 402.477 160.349 402.628 160.349C402.779 160.349 402.924 160.409 403.031 160.516C403.137 160.623 403.197 160.767 403.197 160.918V166.101C403.197 166.176 403.183 166.25 403.154 166.319C403.125 166.388 403.083 166.451 403.03 166.504C402.977 166.556 402.915 166.598 402.846 166.627C402.776 166.655 402.702 166.67 402.628 166.67Z" fill="black"/>
<path d="M436.228 166.67C436.153 166.67 436.079 166.655 436.01 166.627C435.941 166.598 435.879 166.556 435.826 166.503C435.773 166.45 435.731 166.388 435.702 166.319C435.674 166.25 435.659 166.176 435.659 166.101V160.918C435.659 160.767 435.719 160.623 435.826 160.516C435.933 160.409 436.077 160.349 436.228 160.349C436.379 160.349 436.524 160.409 436.631 160.516C436.737 160.623 436.797 160.767 436.797 160.918V166.101C436.797 166.252 436.737 166.397 436.631 166.503C436.524 166.61 436.379 166.67 436.228 166.67Z" fill="black"/>
<path d="M167.433 100.231H66.6352C66.4319 100.229 66.2312 100.184 66.0462 100.1C65.8613 100.015 65.6961 99.8927 65.5616 99.7402C65.2751 99.4126 65.1172 98.9921 65.1172 98.5568C65.1172 98.1216 65.2751 97.7011 65.5616 97.3735C65.6962 97.2211 65.8614 97.0989 66.0463 97.0144C66.2313 96.9298 66.4319 96.8851 66.6352 96.883H167.336L200.699 92.111L234.167 80.2163C234.292 80.1715 234.423 80.1449 234.556 80.1372L267.859 78.2956L301.189 61.1843C301.339 61.107 301.501 61.0574 301.668 61.0373L335.268 57.0561L368.91 54.133C368.95 54.1294 368.99 54.1276 369.03 54.1276H402.629L436.16 52.4487C436.36 52.4385 436.559 52.4717 436.745 52.5461C436.936 52.6227 437.109 52.7377 437.253 52.8837C437.403 53.0351 437.523 53.2139 437.605 53.4101C437.69 53.6114 437.738 53.8263 437.747 54.0446C437.756 54.2637 437.726 54.4825 437.658 54.6909C437.592 54.8949 437.488 55.0845 437.351 55.25C437.219 55.4099 437.057 55.5417 436.873 55.6372C436.694 55.7298 436.498 55.7828 436.297 55.7927L402.697 57.4733L369.09 57.4751L335.549 60.3889L302.243 64.3361L268.872 81.4687C268.697 81.5589 268.504 81.6113 268.307 81.6225L234.908 83.4699L201.498 95.3437C201.41 95.3753 201.32 95.398 201.228 95.4111L167.628 100.217C167.563 100.226 167.498 100.231 167.433 100.231Z" fill="#F47D39"/>
<path d="M59.6099 178.798C59.2961 178.799 58.9854 178.736 58.6974 178.611C58.4182 178.491 58.1701 178.308 57.9717 178.078L58.6432 177.495C58.9039 177.742 59.251 177.877 59.6099 177.871C59.7991 177.878 59.9874 177.842 60.1608 177.766C60.3342 177.69 60.4882 177.576 60.6114 177.432C60.8765 177.105 61.0119 176.692 60.9917 176.272V171.525H61.9389V176.272C61.9493 176.734 61.8476 177.191 61.6425 177.604C61.4578 177.973 61.1698 178.279 60.8137 178.487C60.4479 178.697 60.0319 178.805 59.6099 178.798Z" fill="black"/>
<path d="M65.7178 178.798C65.2456 178.802 64.782 178.673 64.3808 178.424C63.9733 178.168 63.6375 177.812 63.4047 177.391C63.1719 176.97 63.0498 176.497 63.0498 176.016C63.0498 175.535 63.1719 175.061 63.4047 174.64C63.6375 174.219 63.9733 173.864 64.3808 173.608C64.7819 173.359 65.2456 173.229 65.7178 173.233C66.1544 173.232 66.5822 173.355 66.9513 173.588C67.3096 173.8 67.5979 174.112 67.7805 174.487L67.8197 173.302H68.6482V178.73H67.8197L67.7805 177.565C67.5965 177.934 67.3082 178.241 66.9513 178.448C66.5812 178.678 66.1537 178.8 65.7178 178.798ZM65.8465 177.91C66.1811 177.913 66.5106 177.828 66.8015 177.663C67.0923 177.497 67.3343 177.258 67.5027 176.969C67.6711 176.68 67.7599 176.351 67.7601 176.016C67.7604 175.682 67.672 175.353 67.5041 175.064C67.3368 174.775 67.0969 174.535 66.8084 174.368C66.5168 174.197 66.1844 174.109 65.8465 174.111C65.5147 174.11 65.1888 174.199 64.9034 174.368C64.541 174.576 64.2573 174.898 64.0966 175.284C63.9358 175.669 63.907 176.097 64.0145 176.501C64.122 176.905 64.3599 177.262 64.6912 177.517C65.0224 177.772 65.4286 177.91 65.8465 177.91Z" fill="black"/>
<path d="M70.1094 178.729V173.302H70.9284L70.9785 174.289C71.1361 173.979 71.3726 173.717 71.664 173.529C71.9769 173.328 72.3428 173.224 72.7147 173.233C73.1216 173.224 73.5229 173.328 73.8744 173.533C74.2226 173.753 74.4961 174.073 74.6588 174.451C74.8634 174.933 74.9609 175.453 74.9446 175.976V178.729H74.0566V175.976C74.0687 175.618 73.9977 175.261 73.8493 174.935C73.7321 174.678 73.5417 174.462 73.3019 174.313C73.0672 174.176 72.7994 174.106 72.5277 174.111C72.2543 174.106 71.9847 174.176 71.748 174.313C71.5076 174.459 71.3166 174.674 71.2 174.93C71.0544 175.259 70.9851 175.617 70.9975 175.976V178.729H70.1094Z" fill="black"/>
<path d="M91.6836 178.73V171.526H96.3122V172.434H92.6116V174.644H96.1137V175.552H92.6116V178.73H91.6836Z" fill="black"/>
<path d="M99.9418 178.798C99.4305 178.804 98.9268 178.674 98.4814 178.423C98.0515 178.183 97.6938 177.833 97.4457 177.407C97.1975 176.982 97.0679 176.498 97.0704 176.006C97.067 175.519 97.195 175.04 97.4409 174.619C97.6215 174.304 97.8629 174.027 98.1511 173.805C98.4392 173.583 98.7684 173.42 99.1198 173.326C99.4711 173.232 99.8376 173.209 100.198 173.257C100.559 173.305 100.906 173.425 101.22 173.608C101.632 173.852 101.973 174.201 102.207 174.619C102.446 175.042 102.571 175.52 102.567 176.006C102.565 176.154 102.555 176.302 102.538 176.45H98.0282C98.0799 176.731 98.2 176.995 98.3778 177.22C98.56 177.451 98.7933 177.636 99.0592 177.762C99.3345 177.895 99.6365 177.962 99.9419 177.959C100.258 177.963 100.572 177.898 100.86 177.767C101.129 177.644 101.366 177.46 101.551 177.229L102.271 177.683C102.003 178.029 101.656 178.306 101.259 178.493C100.85 178.695 100.399 178.799 99.9418 178.798ZM101.65 175.71C101.638 175.418 101.547 175.135 101.387 174.89C101.226 174.64 101.004 174.435 100.742 174.294C100.46 174.142 100.144 174.066 99.8239 174.071C99.5135 174.068 99.2076 174.145 98.9352 174.294C98.6731 174.435 98.451 174.64 98.2897 174.89C98.13 175.136 98.0362 175.418 98.0174 175.71H101.65Z" fill="black"/>
<path d="M106.556 178.799C106.117 178.801 105.686 178.68 105.312 178.449C104.956 178.243 104.671 177.935 104.493 177.565L104.444 178.73H103.625V171.032H104.513V174.457C104.694 174.09 104.979 173.784 105.332 173.578C105.7 173.35 106.124 173.23 106.556 173.233C107.025 173.23 107.485 173.36 107.882 173.608C108.287 173.858 108.621 174.208 108.85 174.625C109.209 175.261 109.309 176.011 109.129 176.719C108.948 177.426 108.502 178.037 107.882 178.424C107.484 178.672 107.025 178.801 106.556 178.799ZM106.417 177.911C106.749 177.912 107.075 177.825 107.363 177.66C107.651 177.494 107.889 177.256 108.055 176.968C108.306 176.532 108.375 176.013 108.246 175.526C108.116 175.039 107.8 174.623 107.365 174.368C107.077 174.2 106.749 174.111 106.415 174.111C106.081 174.111 105.754 174.2 105.465 174.368C105.23 174.502 105.027 174.686 104.869 174.906C104.711 175.126 104.601 175.377 104.548 175.643C104.495 175.908 104.5 176.182 104.562 176.446C104.623 176.71 104.741 176.957 104.906 177.172C105.084 177.402 105.314 177.589 105.576 177.717C105.838 177.845 106.126 177.912 106.417 177.911Z" fill="black"/>
<path d="M124.409 178.729V171.525H125.406L128.189 176.272L130.982 171.525H131.978V178.729H131.041V173.094L128.476 177.456H127.913L125.347 173.094V178.729H124.409Z" fill="black"/>
<path d="M135.798 178.798C135.325 178.802 134.861 178.673 134.46 178.424C134.052 178.168 133.717 177.812 133.484 177.391C133.251 176.97 133.129 176.497 133.129 176.016C133.129 175.535 133.251 175.061 133.484 174.64C133.717 174.219 134.052 173.864 134.46 173.608C134.861 173.359 135.325 173.229 135.798 173.233C136.234 173.232 136.662 173.355 137.031 173.588C137.389 173.8 137.677 174.113 137.86 174.487L137.899 173.302H138.727V178.73H137.899L137.86 177.565C137.676 177.934 137.388 178.241 137.031 178.448C136.661 178.678 136.234 178.799 135.798 178.798ZM135.926 177.91C136.26 177.913 136.59 177.828 136.881 177.663C137.172 177.497 137.413 177.258 137.582 176.969C137.75 176.68 137.839 176.351 137.839 176.016C137.84 175.682 137.751 175.353 137.583 175.064C137.416 174.775 137.176 174.535 136.888 174.368C136.596 174.197 136.264 174.109 135.926 174.111C135.594 174.11 135.268 174.199 134.983 174.368C134.62 174.576 134.337 174.898 134.176 175.284C134.015 175.669 133.986 176.097 134.094 176.501C134.201 176.905 134.439 177.262 134.77 177.517C135.102 177.772 135.508 177.91 135.926 177.91Z" fill="black"/>
<path d="M140.188 178.729V173.311L141.007 173.302L141.067 174.209C141.223 173.915 141.464 173.675 141.758 173.519C142.083 173.349 142.446 173.264 142.813 173.272C142.946 173.273 143.078 173.283 143.208 173.302L143.021 174.16C142.955 174.154 142.889 174.151 142.823 174.151C142.591 174.139 142.359 174.176 142.143 174.259C141.926 174.342 141.729 174.47 141.565 174.634C141.203 175.069 141.028 175.63 141.077 176.194V178.729H140.188Z" fill="black"/>
<path d="M158.912 178.729L161.567 171.525H162.593L165.257 178.729H164.231L163.511 176.785H160.659L159.949 178.729H158.912ZM160.946 175.907H163.235L162.08 172.798L160.946 175.907Z" fill="black"/>
<path d="M166.146 180.9V173.302H166.965L167.015 174.466C167.192 174.096 167.477 173.788 167.833 173.583C168.206 173.352 168.637 173.231 169.077 173.233C169.545 173.23 170.006 173.36 170.404 173.608C171.02 173.998 171.463 174.608 171.643 175.315C171.823 176.021 171.726 176.77 171.371 177.407C171.142 177.823 170.808 178.174 170.404 178.424C170.006 178.672 169.545 178.801 169.077 178.798C168.644 178.801 168.22 178.681 167.853 178.453C167.5 178.247 167.215 177.941 167.034 177.575V180.9H166.146ZM168.938 177.92C169.272 177.923 169.599 177.834 169.885 177.663C170.172 177.496 170.41 177.256 170.576 176.968C170.747 176.676 170.836 176.344 170.833 176.006C170.836 175.672 170.747 175.345 170.576 175.058C170.409 174.773 170.171 174.535 169.885 174.368C169.599 174.197 169.272 174.109 168.938 174.111C168.604 174.109 168.275 174.198 167.987 174.368C167.699 174.534 167.459 174.772 167.29 175.058C167.12 175.345 167.031 175.672 167.034 176.006C167.031 176.344 167.12 176.676 167.29 176.968C167.457 177.257 167.697 177.497 167.987 177.663C168.275 177.834 168.604 177.922 168.938 177.92Z" fill="black"/>
<path d="M172.865 178.729V173.311L173.685 173.302L173.744 174.209C173.9 173.915 174.141 173.675 174.435 173.519C174.76 173.349 175.123 173.264 175.49 173.272C175.623 173.273 175.755 173.283 175.886 173.302L175.698 174.16C175.632 174.154 175.566 174.151 175.5 174.151C175.268 174.139 175.037 174.176 174.82 174.259C174.603 174.342 174.407 174.47 174.242 174.634C173.88 175.069 173.704 175.63 173.753 176.194V178.729H172.865Z" fill="black"/>
<path d="M191.139 178.729V171.525H192.136L194.919 176.272L197.711 171.525H198.708V178.729H197.77V173.094L195.204 177.456H194.642L192.076 173.094V178.729H191.139Z" fill="black"/>
<path d="M202.527 178.798C202.055 178.802 201.592 178.673 201.19 178.424C200.783 178.168 200.447 177.812 200.214 177.391C199.981 176.97 199.859 176.497 199.859 176.016C199.859 175.535 199.981 175.061 200.214 174.64C200.447 174.219 200.783 173.864 201.19 173.608C201.591 173.359 202.055 173.229 202.527 173.233C202.964 173.232 203.392 173.355 203.761 173.588C204.119 173.8 204.407 174.113 204.59 174.487L204.629 173.302H205.458V178.73H204.629L204.59 177.565C204.406 177.934 204.118 178.241 203.761 178.448C203.391 178.678 202.963 178.8 202.527 178.798ZM202.656 177.91C202.991 177.913 203.32 177.828 203.611 177.663C203.902 177.497 204.144 177.258 204.312 176.969C204.481 176.68 204.57 176.351 204.57 176.016C204.57 175.682 204.482 175.353 204.314 175.064C204.146 174.775 203.907 174.535 203.618 174.368C203.326 174.197 202.994 174.109 202.656 174.111C202.324 174.11 201.998 174.199 201.713 174.368C201.351 174.576 201.067 174.898 200.906 175.284C200.746 175.669 200.717 176.097 200.824 176.501C200.932 176.905 201.17 177.262 201.501 177.517C201.832 177.772 202.238 177.91 202.656 177.91Z" fill="black"/>
<path d="M207.302 180.949C207.132 180.951 206.961 180.934 206.794 180.9C206.631 180.865 206.471 180.815 206.315 180.752L206.592 179.953C206.695 180.003 206.805 180.039 206.918 180.061C207.034 180.087 207.153 180.1 207.273 180.101C207.466 180.103 207.654 180.042 207.81 179.929C207.979 179.805 208.122 179.649 208.23 179.469C208.377 179.221 208.502 178.96 208.605 178.69C208.605 178.68 208.606 178.67 208.61 178.661C208.614 178.653 208.619 178.646 208.625 178.64L206.434 173.302H207.391L209.039 177.436L210.668 173.302H211.615L209.522 178.73C209.355 179.182 209.143 179.616 208.891 180.027C208.718 180.309 208.481 180.547 208.201 180.723C207.927 180.878 207.617 180.957 207.302 180.949Z" fill="black"/>
<path d="M226.852 178.798C226.538 178.799 226.227 178.736 225.939 178.611C225.66 178.491 225.412 178.308 225.214 178.078L225.885 177.495C226.146 177.742 226.493 177.877 226.852 177.871C227.041 177.878 227.229 177.842 227.403 177.766C227.576 177.69 227.73 177.576 227.854 177.432C228.119 177.105 228.254 176.692 228.234 176.272V171.525H229.181V176.272C229.192 176.734 229.09 177.191 228.885 177.604C228.7 177.973 228.412 178.28 228.055 178.487C227.69 178.697 227.274 178.805 226.852 178.798Z" fill="black"/>
<path d="M232.735 178.798C232.331 178.806 231.933 178.702 231.585 178.497C231.236 178.278 230.962 177.957 230.8 177.579C230.595 177.097 230.498 176.577 230.513 176.055V173.302H231.401V176.055C231.39 176.413 231.461 176.769 231.609 177.096C231.727 177.352 231.918 177.569 232.157 177.718C232.394 177.85 232.661 177.92 232.932 177.92C233.203 177.92 233.47 177.85 233.707 177.718C233.946 177.568 234.136 177.352 234.254 177.096C234.402 176.769 234.473 176.413 234.461 176.055V173.302H235.349V178.729H234.53L234.481 177.742C234.323 178.051 234.086 178.313 233.795 178.502C233.479 178.704 233.11 178.807 232.735 178.798Z" fill="black"/>
<path d="M236.81 178.729V173.302H237.629L237.678 174.289C237.836 173.979 238.073 173.717 238.364 173.529C238.677 173.328 239.042 173.224 239.414 173.233C239.821 173.224 240.223 173.328 240.575 173.533C240.923 173.753 241.196 174.073 241.359 174.451C241.564 174.933 241.661 175.453 241.645 175.976V178.729H240.757V175.976C240.769 175.618 240.698 175.261 240.549 174.935C240.432 174.678 240.242 174.462 240.002 174.313C239.767 174.176 239.5 174.106 239.228 174.111C238.954 174.106 238.685 174.176 238.448 174.313C238.207 174.459 238.017 174.674 237.9 174.93C237.755 175.259 237.685 175.617 237.698 175.976V178.729H236.81Z" fill="black"/>
<path d="M263.401 178.798C263.087 178.799 262.776 178.736 262.488 178.611C262.209 178.491 261.961 178.308 261.763 178.078L262.434 177.495C262.695 177.742 263.042 177.877 263.401 177.871C263.59 177.878 263.778 177.842 263.952 177.766C264.125 177.69 264.279 177.576 264.402 177.432C264.667 177.105 264.803 176.692 264.783 176.272V171.525H265.73V176.272C265.74 176.734 265.639 177.191 265.433 177.604C265.249 177.973 264.961 178.279 264.605 178.487C264.239 178.697 263.823 178.805 263.401 178.798Z" fill="black"/>
<path d="M269.283 178.798C268.879 178.806 268.481 178.702 268.133 178.497C267.784 178.278 267.511 177.957 267.348 177.579C267.144 177.097 267.046 176.577 267.062 176.055V173.302H267.95V176.055C267.939 176.413 268.01 176.769 268.158 177.096C268.275 177.352 268.466 177.569 268.706 177.718C268.942 177.85 269.209 177.92 269.48 177.92C269.751 177.92 270.018 177.85 270.255 177.718C270.494 177.568 270.685 177.352 270.803 177.096C270.95 176.769 271.021 176.413 271.009 176.055V173.302H271.898V178.729H271.079L271.029 177.742C270.871 178.051 270.635 178.313 270.344 178.502C270.027 178.704 269.658 178.807 269.283 178.798Z" fill="black"/>
<path d="M273.357 178.729V171.032H274.245V178.729H273.357Z" fill="black"/>
<path d="M292.362 178.729L295.016 171.525H296.043L298.707 178.729H297.68L296.961 176.785H294.109L293.398 178.729H292.362ZM294.395 175.907H296.685L295.53 172.798L294.395 175.907Z" fill="black"/>
<path d="M301.403 178.798C300.999 178.806 300.601 178.702 300.253 178.497C299.904 178.278 299.631 177.957 299.468 177.579C299.264 177.097 299.166 176.577 299.182 176.055V173.302H300.07V176.055C300.059 176.413 300.13 176.769 300.278 177.096C300.395 177.352 300.586 177.569 300.826 177.718C301.062 177.85 301.329 177.92 301.6 177.92C301.872 177.92 302.138 177.85 302.375 177.718C302.614 177.568 302.805 177.352 302.923 177.096C303.071 176.769 303.141 176.413 303.13 176.055V173.302H304.018V178.729H303.199L303.149 177.742C302.991 178.051 302.755 178.313 302.464 178.502C302.147 178.704 301.778 178.807 301.403 178.798Z" fill="black"/>
<path d="M307.777 180.989C307.327 180.99 306.882 180.891 306.475 180.698C306.082 180.521 305.736 180.252 305.468 179.914L306.139 179.381C306.34 179.618 306.593 179.806 306.879 179.929C307.177 180.062 307.5 180.131 307.826 180.131C308.18 180.136 308.53 180.058 308.848 179.904C309.156 179.75 309.41 179.508 309.578 179.208C309.772 178.842 309.865 178.432 309.849 178.019V177.585C309.666 177.947 309.381 178.249 309.03 178.453C308.663 178.681 308.239 178.801 307.807 178.798C307.335 178.802 306.871 178.673 306.47 178.424C306.062 178.168 305.726 177.812 305.494 177.391C305.261 176.97 305.139 176.497 305.139 176.016C305.139 175.535 305.261 175.061 305.494 174.64C305.726 174.219 306.062 173.864 306.47 173.608C306.871 173.359 307.335 173.229 307.807 173.233C308.243 173.232 308.671 173.355 309.04 173.588C309.398 173.8 309.687 174.113 309.869 174.487L309.909 173.302H310.737V177.89C310.756 178.484 310.626 179.073 310.358 179.603C310.123 180.048 309.758 180.411 309.312 180.644C308.836 180.882 308.309 181 307.777 180.989ZM307.935 177.91C308.27 177.913 308.6 177.828 308.89 177.663C309.181 177.497 309.423 177.258 309.592 176.969C309.76 176.68 309.849 176.351 309.849 176.016C309.849 175.682 309.761 175.353 309.593 175.064C309.426 174.775 309.186 174.535 308.897 174.368C308.606 174.197 308.273 174.109 307.935 174.111C307.604 174.11 307.278 174.199 306.993 174.368C306.704 174.535 306.464 174.775 306.297 175.064C306.13 175.352 306.041 175.679 306.041 176.012C306.04 176.345 306.127 176.672 306.294 176.96C306.46 177.249 306.699 177.489 306.987 177.655C307.275 177.822 307.603 177.91 307.935 177.91Z" fill="black"/>
<path d="M329.016 178.828C328.54 178.83 328.069 178.738 327.629 178.556C327.172 178.362 326.764 178.071 326.431 177.703L327.022 177.101C327.286 177.362 327.593 177.576 327.93 177.733C328.274 177.887 328.648 177.964 329.026 177.959C329.423 177.984 329.818 177.875 330.145 177.649C330.284 177.55 330.395 177.418 330.47 177.266C330.545 177.113 330.581 176.945 330.575 176.775C330.583 176.535 330.5 176.301 330.343 176.119C330.182 175.94 329.983 175.8 329.76 175.709C329.527 175.611 329.21 175.499 328.808 175.374C328.411 175.252 328.022 175.104 327.644 174.93C327.342 174.786 327.079 174.573 326.874 174.308C326.654 174.009 326.543 173.643 326.559 173.272C326.553 172.933 326.651 172.601 326.84 172.32C327.043 172.027 327.325 171.798 327.653 171.658C328.049 171.489 328.477 171.407 328.907 171.417C329.356 171.42 329.799 171.515 330.209 171.698C330.644 171.885 331.019 172.187 331.295 172.571L330.635 173.094C330.44 172.843 330.187 172.641 329.899 172.507C329.602 172.362 329.277 172.282 328.946 172.276C328.684 172.271 328.423 172.314 328.177 172.404C327.977 172.473 327.798 172.594 327.659 172.754C327.532 172.907 327.466 173.102 327.473 173.301C327.479 173.499 327.557 173.689 327.693 173.834C327.847 173.992 328.032 174.117 328.236 174.2C328.453 174.291 328.753 174.397 329.134 174.516C329.552 174.64 329.961 174.793 330.357 174.974C330.67 175.125 330.944 175.346 331.157 175.621C331.393 175.943 331.512 176.336 331.493 176.736C331.502 177.131 331.392 177.519 331.177 177.851C330.959 178.172 330.655 178.426 330.299 178.582C329.895 178.758 329.456 178.842 329.016 178.828Z" fill="black"/>
<path d="M335.222 178.798C334.711 178.804 334.208 178.674 333.762 178.423C333.332 178.184 332.974 177.833 332.726 177.408C332.478 176.982 332.348 176.498 332.351 176.006C332.347 175.519 332.475 175.04 332.721 174.619C332.902 174.304 333.143 174.027 333.431 173.805C333.719 173.583 334.049 173.42 334.4 173.326C334.751 173.232 335.118 173.209 335.478 173.257C335.839 173.305 336.186 173.425 336.5 173.608C336.913 173.852 337.253 174.201 337.487 174.619C337.727 175.042 337.851 175.52 337.847 176.006C337.845 176.154 337.836 176.302 337.818 176.45H333.308C333.36 176.731 333.48 176.995 333.658 177.22C333.84 177.451 334.073 177.636 334.339 177.762C334.615 177.895 334.917 177.962 335.222 177.959C335.538 177.963 335.852 177.898 336.14 177.767C336.409 177.644 336.646 177.46 336.831 177.229L337.552 177.683C337.283 178.029 336.936 178.306 336.54 178.493C336.13 178.695 335.679 178.799 335.222 178.798ZM336.93 175.71C336.918 175.418 336.827 175.135 336.668 174.89C336.506 174.64 336.284 174.435 336.022 174.294C335.74 174.142 335.424 174.066 335.104 174.071C334.794 174.068 334.488 174.145 334.215 174.294C333.953 174.435 333.731 174.64 333.57 174.89C333.41 175.136 333.316 175.418 333.298 175.71H336.93Z" fill="black"/>
<path d="M338.903 180.9V173.302H339.722L339.772 174.466C339.95 174.097 340.235 173.789 340.59 173.583C340.964 173.352 341.395 173.23 341.834 173.233C342.303 173.23 342.763 173.36 343.161 173.608C343.777 173.998 344.22 174.609 344.4 175.315C344.58 176.021 344.483 176.77 344.129 177.407C343.899 177.823 343.566 178.173 343.161 178.424C342.763 178.671 342.303 178.801 341.834 178.798C341.402 178.801 340.978 178.681 340.61 178.453C340.258 178.247 339.973 177.941 339.791 177.575V180.9H338.903ZM341.696 177.92C342.029 177.923 342.357 177.834 342.643 177.663C342.93 177.495 343.168 177.256 343.333 176.968C343.505 176.676 343.594 176.344 343.59 176.006C343.593 175.672 343.504 175.345 343.333 175.058C343.167 174.773 342.929 174.535 342.643 174.368C342.357 174.197 342.029 174.109 341.696 174.111C341.361 174.109 341.032 174.198 340.744 174.368C340.456 174.534 340.216 174.772 340.047 175.058C339.877 175.345 339.789 175.672 339.791 176.006C339.788 176.344 339.877 176.676 340.047 176.968C340.215 177.257 340.455 177.497 340.744 177.663C341.032 177.833 341.361 177.922 341.696 177.92Z" fill="black"/>
<path d="M364.189 178.847C363.533 178.853 362.888 178.679 362.324 178.345C361.765 178.016 361.302 177.548 360.977 176.987C360.487 176.137 360.353 175.127 360.605 174.178C360.858 173.229 361.476 172.419 362.324 171.925C362.889 171.593 363.534 171.421 364.189 171.427C364.84 171.421 365.479 171.594 366.039 171.925C366.887 172.42 367.505 173.23 367.756 174.179C368.008 175.128 367.873 176.138 367.381 176.987C367.058 177.547 366.596 178.015 366.039 178.345C365.48 178.679 364.84 178.853 364.189 178.847ZM364.189 177.88C364.669 177.884 365.142 177.758 365.556 177.515C365.974 177.271 366.321 176.92 366.56 176.5C366.8 176.079 366.925 175.602 366.922 175.118C366.926 174.637 366.798 174.164 366.552 173.751C366.311 173.339 365.968 172.995 365.556 172.754C365.142 172.508 364.67 172.38 364.189 172.384C363.703 172.38 363.226 172.508 362.808 172.754C362.393 172.994 362.048 173.338 361.806 173.751C361.56 174.164 361.433 174.637 361.436 175.118C361.432 175.481 361.501 175.84 361.638 176.177C361.775 176.513 361.978 176.818 362.234 177.075C362.49 177.332 362.795 177.536 363.13 177.674C363.466 177.812 363.826 177.882 364.189 177.88Z" fill="black"/>
<path d="M371.559 178.798C371.069 178.802 370.586 178.673 370.164 178.424C369.744 178.178 369.395 177.828 369.152 177.407C368.903 176.982 368.773 176.498 368.776 176.006C368.774 175.518 368.903 175.039 369.152 174.619C369.396 174.201 369.745 173.852 370.164 173.608C370.57 173.372 371.029 173.243 371.499 173.233C371.968 173.224 372.432 173.334 372.848 173.554C373.238 173.76 373.574 174.056 373.829 174.417L373.089 174.911C372.917 174.673 372.69 174.48 372.428 174.348C372.159 174.21 371.861 174.139 371.559 174.14C371.228 174.138 370.903 174.225 370.618 174.392C370.334 174.557 370.098 174.791 369.931 175.073C369.762 175.355 369.673 175.678 369.675 176.006C369.673 176.339 369.761 176.666 369.931 176.953C370.098 177.238 370.334 177.476 370.618 177.644C370.902 177.815 371.228 177.903 371.559 177.901C371.866 177.901 372.168 177.826 372.44 177.683C372.712 177.541 372.945 177.334 373.119 177.081L373.859 177.575C373.606 177.946 373.268 178.253 372.873 178.467C372.47 178.688 372.018 178.802 371.559 178.798Z" fill="black"/>
<path d="M376.987 178.818C376.748 178.827 376.511 178.786 376.289 178.697C376.067 178.609 375.867 178.475 375.699 178.305C375.336 177.874 375.157 177.317 375.201 176.756V174.111H374.461V173.302H375.221L375.329 171.525H376.089V173.302H377.401V174.111H376.089V176.736C376.067 177.059 376.161 177.379 376.356 177.638C376.448 177.743 376.562 177.825 376.69 177.879C376.818 177.933 376.957 177.957 377.095 177.95C377.241 177.951 377.385 177.924 377.52 177.871L377.747 178.68C377.505 178.775 377.247 178.822 376.987 178.818Z" fill="black"/>
<path d="M393.87 178.729V171.525H394.808L398.972 177.081V171.525H399.919V178.729H398.972L394.808 173.163V178.729H393.87Z" fill="black"/>
<path d="M403.847 178.798C403.356 178.802 402.874 178.673 402.451 178.423C402.031 178.178 401.682 177.828 401.439 177.407C401.19 176.982 401.06 176.498 401.064 176.006C401.061 175.518 401.19 175.039 401.439 174.619C401.684 174.201 402.032 173.852 402.451 173.608C402.874 173.362 403.355 173.233 403.845 173.233C404.334 173.233 404.815 173.362 405.238 173.608C405.656 173.854 406.004 174.202 406.25 174.619C406.501 175.038 406.632 175.517 406.63 176.006C406.633 176.499 406.502 176.983 406.25 177.407C406.004 177.826 405.656 178.176 405.238 178.423C404.817 178.673 404.336 178.803 403.847 178.798ZM403.847 177.901C404.177 177.902 404.501 177.813 404.784 177.644C405.07 177.477 405.306 177.239 405.47 176.953C405.638 176.666 405.725 176.338 405.722 176.006C405.724 175.678 405.637 175.355 405.47 175.073C405.305 174.79 405.069 174.555 404.784 174.392C404.499 174.228 404.174 174.141 403.845 174.141C403.515 174.141 403.191 174.228 402.905 174.392C402.621 174.557 402.385 174.791 402.219 175.073C402.049 175.355 401.961 175.677 401.962 176.006C401.96 176.339 402.048 176.666 402.219 176.953C402.385 177.238 402.621 177.475 402.905 177.644C403.189 177.814 403.515 177.903 403.847 177.901Z" fill="black"/>
<path d="M409.039 178.73L406.888 173.302H407.855L409.492 177.407L411.121 173.302H412.088L409.937 178.73H409.039Z" fill="black"/>
<path d="M427.336 178.729V171.525H429.527C430.21 171.514 430.885 171.679 431.486 172.004C432.045 172.308 432.51 172.758 432.833 173.307C433.155 173.855 433.322 174.481 433.316 175.117C433.324 175.759 433.162 176.393 432.848 176.953C432.536 177.504 432.074 177.956 431.515 178.256C430.904 178.58 430.219 178.743 429.527 178.729H427.336ZM429.527 177.802C430.048 177.814 430.563 177.69 431.022 177.441C431.433 177.215 431.772 176.876 431.999 176.465C432.227 176.049 432.344 175.582 432.339 175.108C432.344 174.639 432.221 174.178 431.985 173.773C431.749 173.369 431.407 173.035 430.997 172.809C430.548 172.559 430.04 172.433 429.527 172.444L428.274 172.453V177.801L429.527 177.802Z" fill="black"/>
<path d="M437.076 178.798C436.565 178.804 436.061 178.675 435.616 178.423C435.186 178.184 434.828 177.833 434.58 177.408C434.331 176.982 434.202 176.498 434.204 176.006C434.201 175.519 434.329 175.04 434.575 174.619C434.755 174.304 434.997 174.027 435.285 173.805C435.573 173.583 435.902 173.42 436.254 173.326C436.605 173.232 436.971 173.209 437.332 173.257C437.692 173.305 438.04 173.425 438.354 173.608C438.766 173.852 439.107 174.201 439.341 174.619C439.58 175.042 439.705 175.52 439.701 176.006C439.699 176.154 439.689 176.302 439.671 176.45H435.162C435.214 176.731 435.334 176.995 435.512 177.22C435.694 177.451 435.927 177.636 436.193 177.762C436.469 177.895 436.771 177.962 437.076 177.959C437.392 177.963 437.706 177.898 437.993 177.767C438.263 177.645 438.5 177.46 438.685 177.229L439.405 177.683C439.136 178.029 438.79 178.306 438.393 178.493C437.984 178.695 437.533 178.799 437.076 178.798ZM438.783 175.71C438.772 175.418 438.681 175.135 438.522 174.89C438.36 174.64 438.138 174.435 437.876 174.294C437.594 174.142 437.278 174.066 436.958 174.071C436.648 174.068 436.342 174.145 436.07 174.294C435.807 174.435 435.585 174.64 435.423 174.89C435.264 175.135 435.17 175.418 435.152 175.71H438.783Z" fill="black"/>
<path d="M443.273 178.798C442.782 178.803 442.3 178.673 441.877 178.424C441.457 178.178 441.108 177.828 440.865 177.407C440.616 176.982 440.486 176.498 440.49 176.006C440.487 175.518 440.616 175.039 440.865 174.619C441.11 174.201 441.458 173.852 441.877 173.608C442.283 173.372 442.743 173.243 443.212 173.233C443.682 173.224 444.146 173.334 444.561 173.554C444.952 173.761 445.288 174.056 445.543 174.417L444.803 174.911C444.631 174.673 444.404 174.48 444.141 174.348C443.873 174.21 443.575 174.139 443.273 174.14C442.942 174.138 442.616 174.225 442.331 174.392C442.048 174.557 441.812 174.791 441.645 175.073C441.475 175.354 441.386 175.677 441.389 176.006C441.386 176.339 441.475 176.667 441.645 176.953C441.811 177.238 442.047 177.476 442.331 177.644C442.615 177.815 442.941 177.903 443.273 177.901C443.58 177.9 443.882 177.826 444.154 177.683C444.425 177.54 444.658 177.334 444.832 177.081L445.572 177.575C445.319 177.947 444.981 178.253 444.586 178.467C444.184 178.688 443.732 178.802 443.273 178.798Z" fill="black"/>
<path d="M7.89395 163.697V161.93H4.14453V161.131L7.77602 156.493H8.79237V161.052H9.38394V161.93H8.79237V163.697H7.89395ZM5.1808 161.052H7.89395V157.766L5.1808 161.052Z" fill="black"/>
<path d="M12.8477 163.825C12.3271 163.833 11.8173 163.676 11.3917 163.376C10.9446 163.047 10.5991 162.599 10.3947 162.083C9.91531 160.803 9.91531 159.392 10.3947 158.111C10.5991 157.598 10.9448 157.153 11.3917 156.828C11.8221 156.539 12.3288 156.384 12.8473 156.384C13.3658 156.384 13.8725 156.539 14.3028 156.828C14.7495 157.153 15.0952 157.598 15.2999 158.111C15.7793 159.392 15.7793 160.803 15.2999 162.083C15.0953 162.599 14.7498 163.047 14.3028 163.376C13.8776 163.676 13.368 163.833 12.8477 163.825ZM12.8574 162.927C13.2033 162.93 13.541 162.821 13.8195 162.616C14.1345 162.37 14.371 162.037 14.5 161.659C14.681 161.151 14.7665 160.614 14.752 160.075C14.7667 159.549 14.6812 159.025 14.5 158.53C14.367 158.16 14.1309 157.834 13.8195 157.593C13.5407 157.388 13.2032 157.279 12.8574 157.282C12.5068 157.279 12.1644 157.388 11.8803 157.593C11.5662 157.833 11.3281 158.158 11.1946 158.53C11.0134 159.025 10.9279 159.549 10.9426 160.075C10.9282 160.614 11.0136 161.151 11.1946 161.659C11.3243 162.038 11.5627 162.371 11.8803 162.616C12.1643 162.821 12.5068 162.931 12.8574 162.927Z" fill="black"/>
<path d="M22.1533 163.825C21.6327 163.833 21.123 163.676 20.6974 163.376C20.2503 163.047 19.9047 162.599 19.7004 162.083C19.221 160.803 19.221 159.392 19.7004 158.111C19.9047 157.598 20.2505 157.153 20.6974 156.828C21.1277 156.539 21.6345 156.384 22.153 156.384C22.6714 156.384 23.1782 156.539 23.6085 156.828C24.0552 157.153 24.4008 157.598 24.6055 158.111C25.0849 159.392 25.0849 160.803 24.6055 162.083C24.401 162.599 24.0555 163.047 23.6085 163.376C23.1832 163.676 22.6737 163.833 22.1533 163.825ZM22.163 162.927C22.509 162.93 22.8466 162.821 23.1252 162.616C23.4402 162.37 23.6766 162.037 23.8057 161.659C23.9867 161.151 24.0721 160.614 24.0577 160.075C24.0724 159.549 23.9869 159.025 23.8057 158.53C23.6727 158.16 23.4366 157.834 23.1252 157.593C22.8463 157.388 22.5089 157.279 22.163 157.282C21.8125 157.279 21.4701 157.388 21.186 157.593C20.8718 157.833 20.6337 158.158 20.5003 158.53C20.3191 159.025 20.2336 159.549 20.2482 160.075C20.2338 160.614 20.3193 161.151 20.5003 161.659C20.6299 162.038 20.8684 162.371 21.186 162.616C21.4699 162.821 21.8124 162.931 22.163 162.927Z" fill="black"/>
<path d="M28.7647 163.825C28.2441 163.833 27.7343 163.676 27.3087 163.376C26.8616 163.047 26.516 162.599 26.3116 162.083C25.8323 160.803 25.8323 159.392 26.3116 158.111C26.516 157.598 26.8617 157.153 27.3087 156.828C27.739 156.539 28.2458 156.384 28.7643 156.384C29.2828 156.384 29.7895 156.539 30.2199 156.828C30.6665 157.153 31.0122 157.598 31.2169 158.111C31.6962 159.392 31.6962 160.803 31.2169 162.083C31.0123 162.599 30.6668 163.047 30.2199 163.376C29.7946 163.676 29.2851 163.833 28.7647 163.825ZM28.7743 162.927C29.1203 162.93 29.4579 162.821 29.7365 162.616C30.0515 162.37 30.2879 162.037 30.417 161.659C30.598 161.151 30.6834 160.614 30.669 160.075C30.6838 159.549 30.5982 159.025 30.417 158.53C30.284 158.159 30.0479 157.834 29.7365 157.593C29.4576 157.388 29.1202 157.279 28.7743 157.282C28.4238 157.279 28.0814 157.388 27.7973 157.593C27.4832 157.833 27.2451 158.158 27.1116 158.53C26.9304 159.025 26.8449 159.549 26.8595 160.075C26.8451 160.614 26.9306 161.151 27.1116 161.659C27.2413 162.038 27.4798 162.371 27.7973 162.616C28.0813 162.821 28.4238 162.931 28.7743 162.927Z" fill="black"/>
<path d="M35.376 163.825C34.8554 163.833 34.3456 163.676 33.9201 163.376C33.4729 163.047 33.1274 162.599 32.923 162.083C32.4436 160.803 32.4436 159.392 32.923 158.111C33.1274 157.598 33.4731 157.153 33.9201 156.828C34.3504 156.539 34.8571 156.384 35.3756 156.384C35.8941 156.384 36.4008 156.539 36.8311 156.828C37.2778 157.153 37.6235 157.598 37.8282 158.111C38.3076 159.392 38.3076 160.803 37.8282 162.083C37.6237 162.599 37.2782 163.047 36.8311 163.376C36.4059 163.676 35.8964 163.833 35.376 163.825ZM35.3857 162.927C35.7316 162.93 36.0693 162.821 36.3478 162.616C36.6628 162.37 36.8992 162.037 37.0283 161.659C37.2093 161.151 37.2947 160.614 37.2803 160.075C37.295 159.549 37.2095 159.025 37.0283 158.53C36.8953 158.16 36.6593 157.834 36.3478 157.593C36.069 157.388 35.7315 157.279 35.3857 157.282C35.0351 157.279 34.6927 157.388 34.4086 157.593C34.0945 157.833 33.8564 158.158 33.7229 158.53C33.5417 159.025 33.4562 159.549 33.4709 160.075C33.4565 160.614 33.5419 161.151 33.7229 161.659C33.8526 162.038 34.091 162.371 34.4086 162.616C34.6926 162.821 35.0351 162.931 35.3857 162.927Z" fill="black"/>
<path d="M6.53263 110.929C6.07981 110.932 5.63427 110.815 5.24034 110.592C4.84641 110.369 4.5178 110.046 4.2872 109.657C4.05459 109.266 3.93334 108.818 3.93659 108.363C3.9355 108.061 3.98743 107.76 4.09001 107.475C4.18756 107.2 4.3365 106.945 4.5289 106.725L6.98627 103.626H8.09157L6.22644 105.926C6.69419 105.82 7.18368 105.866 7.62302 106.059C8.06916 106.25 8.451 106.565 8.7231 106.967C9.00537 107.378 9.1535 107.865 9.1471 108.363C9.15062 108.818 9.02963 109.266 8.79723 109.657C8.5682 110.046 8.23936 110.368 7.84461 110.589C7.44476 110.815 6.99228 110.933 6.53263 110.929ZM6.53263 110.041C6.83542 110.045 7.13349 109.966 7.39548 109.814C7.65166 109.667 7.86576 109.456 8.0174 109.202C8.17088 108.949 8.25122 108.659 8.24947 108.363C8.25195 108.064 8.17162 107.771 8.0174 107.515C7.86555 107.261 7.65148 107.051 7.39548 106.903C7.13349 106.751 6.83542 106.673 6.53263 106.676C6.23437 106.673 5.94099 106.752 5.68386 106.903C5.43001 107.052 5.21786 107.262 5.0671 107.515C4.91521 107.769 4.83501 108.06 4.83501 108.356C4.83501 108.652 4.91521 108.943 5.0671 109.197C5.21728 109.453 5.4313 109.666 5.68825 109.814C5.94433 109.964 6.23593 110.043 6.53263 110.041Z" fill="black"/>
<path d="M12.8486 110.958C12.328 110.967 11.8183 110.809 11.3927 110.509C10.9454 110.181 10.5999 109.733 10.3957 109.217C9.91629 107.936 9.91629 106.525 10.3957 105.245C10.6 104.732 10.9458 104.287 11.3927 103.962C11.8229 103.673 12.3297 103.518 12.8483 103.518C13.3669 103.518 13.8737 103.673 14.3038 103.962C14.7506 104.287 15.0963 104.732 15.3009 105.245C15.7802 106.525 15.7802 107.936 15.3009 109.217C15.0965 109.733 14.751 110.181 14.3038 110.509C13.8785 110.809 13.369 110.967 12.8486 110.958ZM12.8583 110.06C13.2041 110.063 13.5417 109.955 13.8205 109.75C14.1354 109.504 14.3718 109.171 14.501 108.792C14.6821 108.284 14.7675 107.747 14.753 107.208C14.7677 106.682 14.6821 106.158 14.501 105.664C14.368 105.293 14.1319 104.968 13.8205 104.727C13.5418 104.522 13.2043 104.413 12.8583 104.416C12.5076 104.412 12.1652 104.521 11.8813 104.727C11.5672 104.967 11.3291 105.292 11.1956 105.664C11.0144 106.158 10.9289 106.682 10.9435 107.208C10.9291 107.747 11.0145 108.284 11.1956 108.792C11.3252 109.172 11.5637 109.505 11.8813 109.75C12.1653 109.956 12.5078 110.064 12.8583 110.06Z" fill="black"/>
<path d="M22.1543 110.958C21.6337 110.967 21.1239 110.809 20.6984 110.509C20.2511 110.181 19.9055 109.733 19.7013 109.217C19.2219 107.936 19.2219 106.525 19.7013 105.245C19.9057 104.732 20.2514 104.287 20.6984 103.962C21.1286 103.673 21.6354 103.518 22.1539 103.518C22.6725 103.518 23.1793 103.673 23.6095 103.962C24.0563 104.287 24.402 104.732 24.6065 105.245C25.0859 106.525 25.0859 107.936 24.6065 109.217C24.4022 109.733 24.0566 110.181 23.6095 110.509C23.1842 110.809 22.6747 110.967 22.1543 110.958ZM22.1639 110.06C22.5097 110.063 22.8473 109.955 23.1261 109.75C23.441 109.504 23.6774 109.171 23.8067 108.792C23.9877 108.284 24.0732 107.747 24.0587 107.208C24.0733 106.682 23.9878 106.158 23.8067 105.664C23.6736 105.293 23.4375 104.968 23.1261 104.727C22.8475 104.522 22.5099 104.413 22.1639 104.416C21.8133 104.412 21.4708 104.521 21.1869 104.727C20.8728 104.967 20.6347 105.292 20.5013 105.664C20.3201 106.158 20.2346 106.682 20.2492 107.208C20.2347 107.747 20.3202 108.284 20.5013 108.792C20.6309 109.172 20.8693 109.505 21.1869 109.75C21.4709 109.956 21.8134 110.064 22.1639 110.06Z" fill="black"/>
<path d="M28.7657 110.958C28.245 110.967 27.7352 110.809 27.3097 110.509C26.8624 110.181 26.5168 109.733 26.3126 109.217C25.8333 107.936 25.8333 106.525 26.3126 105.245C26.517 104.732 26.8628 104.287 27.3097 103.962C27.7398 103.673 28.2466 103.518 28.7652 103.518C29.2838 103.518 29.7906 103.673 30.2208 103.962C30.6676 104.287 31.0133 104.732 31.2178 105.245C31.6972 106.525 31.6972 107.936 31.2178 109.217C31.0135 109.733 30.6679 110.181 30.2208 110.509C29.7955 110.809 29.286 110.967 28.7657 110.958ZM28.7753 110.06C29.1211 110.063 29.4587 109.955 29.7375 109.75C30.0523 109.504 30.2887 109.171 30.418 108.792C30.599 108.284 30.6845 107.747 30.67 107.208C30.6846 106.682 30.5991 106.158 30.418 105.664C30.285 105.293 30.0489 104.968 29.7375 104.727C29.4588 104.522 29.1212 104.413 28.7753 104.416C28.4246 104.412 28.0822 104.521 27.7983 104.727C27.4842 104.967 27.246 105.292 27.1126 105.664C26.9314 106.158 26.8459 106.682 26.8605 107.208C26.846 107.747 26.9315 108.284 27.1126 108.792C27.2422 109.172 27.4807 109.505 27.7983 109.75C28.0823 109.956 28.4248 110.064 28.7753 110.06Z" fill="black"/>
<path d="M35.377 110.958C34.8563 110.967 34.3466 110.809 33.921 110.509C33.4737 110.181 33.1282 109.733 32.924 109.217C32.4446 107.936 32.4446 106.525 32.924 105.245C33.1284 104.732 33.4741 104.287 33.921 103.962C34.3512 103.673 34.858 103.518 35.3766 103.518C35.8952 103.518 36.402 103.673 36.8321 103.962C37.2789 104.287 37.6246 104.732 37.8292 105.245C38.3086 106.525 38.3086 107.936 37.8292 109.217C37.6248 109.733 37.2793 110.181 36.8321 110.509C36.4069 110.809 35.8973 110.967 35.377 110.958ZM35.3867 110.06C35.7325 110.063 36.07 109.955 36.3488 109.75C36.6637 109.504 36.9001 109.171 37.0293 108.792C37.2104 108.284 37.2958 107.747 37.2813 107.208C37.296 106.682 37.2105 106.158 37.0293 105.664C36.8963 105.293 36.6602 104.968 36.3488 104.727C36.0702 104.522 35.7326 104.413 35.3867 104.416C35.036 104.412 34.6935 104.521 34.4096 104.727C34.0955 104.967 33.8574 105.292 33.7239 105.664C33.5428 106.158 33.4573 106.682 33.4719 107.208C33.4574 107.747 33.5429 108.284 33.7239 108.792C33.8535 109.172 34.092 109.505 34.4096 109.75C34.6936 109.956 35.0361 110.064 35.3867 110.06Z" fill="black"/>
<path d="M6.48357 59.4579C6.01982 59.4659 5.56055 59.3662 5.14187 59.1666C4.76557 58.9891 4.44732 58.7086 4.22406 58.3575C4.00555 58.0071 3.89259 57.6011 3.89867 57.1881C3.89605 56.7814 4.02588 56.3849 4.26857 56.0585C4.51838 55.7173 4.85825 55.4523 5.25011 55.2933C4.9628 55.1497 4.71932 54.9316 4.54511 54.6617C4.3721 54.398 4.28106 54.0892 4.28344 53.7738C4.27932 53.4256 4.38259 53.0846 4.57918 52.7972C4.78282 52.5023 5.06009 52.2656 5.38344 52.111C5.73007 51.9453 6.10937 51.8593 6.49355 51.8593C6.87773 51.8593 7.25705 51.9453 7.60367 52.111C7.92703 52.2656 8.20429 52.5023 8.40793 52.7972C8.60476 53.0846 8.70831 53.4255 8.7045 53.7738C8.70648 54.0891 8.61545 54.3979 8.44281 54.6617C8.26829 54.9316 8.02459 55.1497 7.73711 55.2933C8.12749 55.4574 8.46669 55.7233 8.71932 56.0631C8.96206 56.3877 9.09197 56.7828 9.08919 57.1881C9.09494 57.6017 8.98006 58.0081 8.75861 58.3575C8.53242 58.708 8.21275 58.9882 7.83568 59.1666C7.41356 59.3669 6.95073 59.4666 6.48357 59.4579ZM6.49401 58.5895C6.79442 58.5943 7.09175 58.5284 7.362 58.3971C7.60496 58.2807 7.81267 58.102 7.96393 57.879C8.10829 57.6631 8.18401 57.4085 8.18117 57.1488C8.18178 56.8941 8.10244 56.6456 7.95432 56.4384C7.79702 56.2164 7.58439 56.0393 7.33754 55.9249C7.07255 55.8014 6.78373 55.7374 6.49135 55.7374C6.19898 55.7374 5.91015 55.8014 5.64516 55.9249C5.40026 56.0404 5.18936 56.2174 5.03287 56.4384C4.8848 56.6456 4.80548 56.8941 4.80608 57.1488C4.8031 57.4079 4.87712 57.6621 5.01877 57.879C5.16823 58.1036 5.37647 58.2827 5.62078 58.3971C5.89298 58.5282 6.19193 58.594 6.49401 58.5895ZM6.48357 54.889C6.71664 54.8913 6.94739 54.8424 7.15958 54.746C7.35587 54.6597 7.52482 54.5215 7.64812 54.3461C7.76462 54.1818 7.82681 53.9852 7.82599 53.7838C7.82772 53.5853 7.76535 53.3913 7.64812 53.2311C7.52273 53.061 7.35651 52.9252 7.1648 52.8363C6.95357 52.7397 6.72413 52.6894 6.49186 52.6886C6.25958 52.6878 6.0298 52.7363 5.81788 52.8314C5.62737 52.9181 5.46374 53.0547 5.34418 53.2264C5.2317 53.3906 5.17151 53.5848 5.17151 53.7838C5.17151 53.9828 5.2317 54.177 5.34418 54.3412C5.4644 54.5135 5.62773 54.6514 5.81788 54.7408C6.02524 54.8413 6.25316 54.892 6.48357 54.889Z" fill="black"/>
<path d="M12.8487 59.3693C12.3281 59.3774 11.8183 59.2201 11.3927 58.9203C10.9455 58.5916 10.5999 58.1436 10.3957 57.6276C9.91629 56.347 9.91629 54.9362 10.3957 53.6556C10.5999 53.1423 10.9456 52.6975 11.3927 52.3729C11.8229 52.0835 12.3297 51.9288 12.8483 51.9288C13.3668 51.9288 13.8736 52.0835 14.3038 52.3729C14.7507 52.6978 15.0964 53.1425 15.3009 53.6556C15.7802 54.9362 15.7802 56.347 15.3009 57.6276C15.0964 58.1435 14.7509 58.5914 14.3038 58.9203C13.8784 59.22 13.369 59.3773 12.8487 59.3693ZM12.8583 58.4711C13.2042 58.4742 13.5417 58.3652 13.8205 58.1605C14.1353 57.914 14.3717 57.5813 14.501 57.203C14.682 56.6952 14.7675 56.1582 14.753 55.6193C14.7677 55.0931 14.6822 54.569 14.501 54.0748C14.3681 53.7039 14.132 53.3788 13.8205 53.1376C13.5418 52.9327 13.2042 52.8236 12.8583 52.8265C12.5077 52.8229 12.1653 52.932 11.8813 53.1376C11.5671 53.3774 11.329 53.7028 11.1956 54.0748C11.0144 54.569 10.9288 55.0931 10.9435 55.6193C10.9291 56.1582 11.0146 56.6952 11.1956 57.203C11.3253 57.5825 11.5638 57.9155 11.8813 58.1605C12.1653 58.366 12.5078 58.4748 12.8583 58.4711Z" fill="black"/>
<path d="M22.1543 59.3693C21.6337 59.3774 21.124 59.2201 20.6984 58.9203C20.2512 58.5916 19.9056 58.1436 19.7013 57.6276C19.222 56.347 19.222 54.9362 19.7013 53.6556C19.9056 53.1423 20.2513 52.6975 20.6984 52.3729C21.1286 52.0835 21.6354 51.9288 22.1539 51.9288C22.6725 51.9288 23.1792 52.0835 23.6095 52.3729C24.0563 52.6978 24.402 53.1425 24.6065 53.6556C25.0859 54.9362 25.0859 56.347 24.6065 57.6276C24.402 58.1435 24.0565 58.5914 23.6095 58.9203C23.1841 59.22 22.6746 59.3773 22.1543 59.3693ZM22.1639 58.4711C22.5098 58.4742 22.8473 58.3652 23.1261 58.1605C23.4409 57.914 23.6773 57.5813 23.8067 57.203C23.9877 56.6952 24.0731 56.1582 24.0587 55.6193C24.0734 55.0931 23.9879 54.569 23.8067 54.0748C23.6737 53.7039 23.4376 53.3788 23.1261 53.1376C22.8474 52.9327 22.5098 52.8236 22.1639 52.8265C21.8134 52.8229 21.4709 52.932 21.1869 53.1376C20.8728 53.3774 20.6346 53.7028 20.5012 54.0748C20.32 54.569 20.2345 55.0931 20.2492 55.6193C20.2348 56.1582 20.3202 56.6952 20.5012 57.203C20.631 57.5825 20.8694 57.9155 21.1869 58.1605C21.471 58.366 21.8134 58.4748 22.1639 58.4711Z" fill="black"/>
<path d="M28.7657 59.3693C28.2451 59.3774 27.7353 59.2201 27.3097 58.9203C26.8624 58.5916 26.5169 58.1436 26.3126 57.6276C25.8333 56.347 25.8333 54.9362 26.3126 53.6556C26.5169 53.1423 26.8626 52.6976 27.3097 52.3729C27.7399 52.0835 28.2467 51.9288 28.7652 51.9288C29.2838 51.9288 29.7905 52.0835 30.2208 52.3729C30.6676 52.6977 31.0133 53.1424 31.2178 53.6556C31.6972 54.9362 31.6972 56.347 31.2178 57.6276C31.0133 58.1435 30.6678 58.5914 30.2208 58.9203C29.7954 59.22 29.286 59.3773 28.7657 59.3693ZM28.7753 58.4711C29.1211 58.4742 29.4587 58.3652 29.7374 58.1605C30.0522 57.914 30.2886 57.5813 30.418 57.203C30.599 56.6952 30.6844 56.1582 30.67 55.6193C30.6847 55.0931 30.5992 54.569 30.418 54.0748C30.285 53.7039 30.0489 53.3788 29.7374 53.1376C29.4587 52.9327 29.1212 52.8236 28.7753 52.8265C28.4247 52.8229 28.0823 52.932 27.7983 53.1376C27.4841 53.3774 27.246 53.7028 27.1126 54.0748C26.9314 54.569 26.8458 55.0931 26.8605 55.6193C26.8461 56.1582 26.9315 56.6952 27.1126 57.203C27.2423 57.5825 27.4808 57.9155 27.7983 58.1605C28.0823 58.366 28.4247 58.4748 28.7753 58.4711Z" fill="black"/>
<path d="M35.378 59.3693C34.8574 59.3774 34.3477 59.2201 33.922 58.9203C33.4748 58.5916 33.1292 58.1436 32.925 57.6276C32.4456 56.347 32.4456 54.9362 32.925 53.6556C33.1292 53.1423 33.475 52.6975 33.922 52.3729C34.3523 52.0835 34.859 51.9288 35.3776 51.9288C35.8961 51.9288 36.4029 52.0835 36.8331 52.3729C37.28 52.6978 37.6256 53.1425 37.8302 53.6556C38.3095 54.9362 38.3095 56.347 37.8302 57.6276C37.6257 58.1435 37.2802 58.5914 36.8331 58.9203C36.4077 59.22 35.8983 59.3773 35.378 59.3693ZM35.3876 58.4711C35.7334 58.4742 36.071 58.3652 36.3498 58.1605C36.6646 57.914 36.901 57.5813 37.0303 57.203C37.2113 56.6952 37.2968 56.1582 37.2823 55.6193C37.297 55.0931 37.2115 54.569 37.0303 54.0748C36.8974 53.7039 36.6613 53.3788 36.3498 53.1376C36.0711 52.9327 35.7335 52.8236 35.3876 52.8265C35.037 52.8229 34.6945 52.932 34.4106 53.1376C34.0964 53.3774 33.8583 53.7028 33.7248 54.0748C33.5436 54.569 33.4581 55.0931 33.4728 55.6193C33.4584 56.1582 33.5438 56.6952 33.7248 57.203C33.8546 57.5825 34.0931 57.9155 34.4106 58.1605C34.6946 58.366 35.0371 58.4748 35.3876 58.4711Z" fill="black"/>
<path d="M0.98671 7.50696V1.14221H0V0.303101H1.88515V7.50696H0.98671Z" fill="black"/>
<path d="M6.23725 7.63489C5.71668 7.64307 5.20693 7.48603 4.78133 7.18616C4.33411 6.85748 3.98857 6.40926 3.78434 5.89319C3.30496 4.61263 3.30496 3.20206 3.78434 1.92151C3.9886 1.40819 4.33432 0.963204 4.78133 0.63855C5.21157 0.349108 5.71835 0.194702 6.23688 0.194702C6.75542 0.194702 7.26218 0.349108 7.69242 0.63855C8.13927 0.963385 8.48497 1.40831 8.68948 1.92151C9.16887 3.20206 9.16887 4.61263 8.68948 5.89319C8.48499 6.40913 8.13947 6.8573 7.69242 7.18616C7.26705 7.48592 6.75757 7.64296 6.23725 7.63489ZM6.24696 6.73694C6.5928 6.74 6.93034 6.63109 7.20911 6.42639C7.5239 6.17992 7.76031 5.84718 7.88963 5.46887C8.07062 4.96102 8.15606 4.42408 8.14162 3.88513C8.15637 3.35898 8.07085 2.83488 7.88963 2.3407C7.75664 1.96984 7.52055 1.64475 7.20911 1.40344C6.93039 1.19861 6.59284 1.08947 6.24696 1.09241C5.89638 1.08884 5.55389 1.19788 5.26987 1.40344C4.95576 1.64329 4.71766 1.96869 4.58422 2.3407C4.40301 2.83488 4.31747 3.35898 4.33216 3.88513C4.31775 4.42408 4.40321 4.96102 4.58422 5.46887C4.71394 5.84833 4.95238 6.18141 5.26987 6.42639C5.55393 6.63181 5.89642 6.74066 6.24696 6.73694Z" fill="black"/>
<path d="M12.8487 7.63489C12.3281 7.64307 11.8183 7.48603 11.3927 7.18616C10.9454 6.85749 10.5999 6.40926 10.3957 5.89319C9.91629 4.61263 9.91629 3.20206 10.3957 1.92151C10.5999 1.40818 10.9456 0.963188 11.3927 0.63855C11.8229 0.349107 12.3297 0.194702 12.8483 0.194702C13.3668 0.194702 13.8736 0.349107 14.3038 0.63855C14.7506 0.963422 15.0963 1.40834 15.3009 1.92151C15.7802 3.20208 15.7802 4.61262 15.3009 5.89319C15.0964 6.40911 14.7509 6.85728 14.3038 7.18616C13.8785 7.4859 13.369 7.64294 12.8487 7.63489ZM12.8583 6.73694C13.2042 6.74001 13.5417 6.6311 13.8205 6.42639C14.1353 6.17992 14.3717 5.84718 14.501 5.46887C14.682 4.96102 14.7675 4.42408 14.753 3.88513C14.7677 3.35898 14.6822 2.83489 14.501 2.3407C14.3681 1.96982 14.132 1.64473 13.8205 1.40344C13.5418 1.19861 13.2042 1.08947 12.8583 1.09241C12.5077 1.08882 12.1653 1.19787 11.8813 1.40344C11.5671 1.64326 11.329 1.96868 11.1956 2.3407C11.0144 2.83489 10.9288 3.35898 10.9435 3.88513C10.9291 4.42408 11.0146 4.96101 11.1956 5.46887C11.3253 5.84832 11.5638 6.18139 11.8813 6.42639C12.1653 6.63181 12.5078 6.74066 12.8583 6.73694Z" fill="black"/>
<path d="M22.1543 7.63489C21.6337 7.64308 21.124 7.48604 20.6984 7.18616C20.2511 6.85751 19.9056 6.40927 19.7013 5.89319C19.222 4.61263 19.222 3.20206 19.7013 1.92151C19.9056 1.40816 20.2513 0.963169 20.6984 0.63855C21.1286 0.349108 21.6354 0.194702 22.1539 0.194702C22.6725 0.194702 23.1792 0.349108 23.6095 0.63855C24.0563 0.963425 24.402 1.40834 24.6065 1.92151C25.0859 3.20208 25.0859 4.61262 24.6065 5.89319C24.402 6.40911 24.0565 6.85728 23.6095 7.18616C23.1841 7.4859 22.6746 7.64294 22.1543 7.63489ZM22.1639 6.73694C22.5098 6.74002 22.8473 6.63111 23.1261 6.42639C23.4409 6.17992 23.6773 5.84718 23.8067 5.46887C23.9877 4.96102 24.0731 4.42408 24.0587 3.88513C24.0734 3.35898 23.9879 2.83489 23.8067 2.3407C23.6737 1.96982 23.4376 1.64473 23.1261 1.40344C22.8474 1.19861 22.5098 1.08947 22.1639 1.09241C21.8134 1.08882 21.4709 1.19787 21.1869 1.40344C20.8728 1.64326 20.6346 1.96868 20.5012 2.3407C20.32 2.83488 20.2345 3.35898 20.2492 3.88513C20.2348 4.42408 20.3202 4.96102 20.5012 5.46887C20.631 5.84832 20.8694 6.18139 21.1869 6.42639C21.471 6.63181 21.8134 6.74066 22.1639 6.73694Z" fill="black"/>
<path d="M28.7657 7.63489C28.2451 7.64308 27.7353 7.48604 27.3097 7.18616C26.8624 6.85749 26.5169 6.40926 26.3126 5.89319C25.8333 4.61262 25.8333 3.20208 26.3126 1.92151C26.5169 1.40819 26.8626 0.963207 27.3097 0.63855C27.7399 0.349108 28.2467 0.194702 28.7652 0.194702C29.2838 0.194702 29.7905 0.349108 30.2208 0.63855C30.6676 0.963382 31.0133 1.40831 31.2178 1.92151C31.6972 3.20206 31.6972 4.61263 31.2178 5.89319C31.0133 6.40913 30.6678 6.8573 30.2208 7.18616C29.7954 7.48591 29.286 7.64295 28.7657 7.63489ZM28.7753 6.73694C29.1211 6.74002 29.4587 6.63111 29.7375 6.42639C30.0522 6.17992 30.2886 5.84718 30.418 5.46887C30.599 4.96102 30.6844 4.42408 30.67 3.88513C30.6847 3.35898 30.5992 2.83488 30.418 2.3407C30.285 1.96981 30.0489 1.64471 29.7375 1.40344C29.4587 1.19861 29.1212 1.08947 28.7753 1.09241C28.4247 1.08883 28.0823 1.19787 27.7983 1.40344C27.4841 1.64327 27.246 1.96868 27.1126 2.3407C26.9314 2.83489 26.8458 3.35898 26.8605 3.88513C26.8461 4.42409 26.9315 4.96102 27.1126 5.46887C27.2423 5.84833 27.4808 6.18141 27.7983 6.42639C28.0823 6.63182 28.4248 6.74067 28.7753 6.73694Z" fill="black"/>
<path d="M35.378 7.63489C34.8574 7.64308 34.3476 7.48604 33.922 7.18616C33.4748 6.85751 33.1292 6.40927 32.925 5.89319C32.4456 4.61263 32.4456 3.20206 32.925 1.92151C33.1292 1.40816 33.475 0.963167 33.922 0.63855C34.3523 0.349108 34.859 0.194702 35.3776 0.194702C35.8961 0.194702 36.4029 0.349108 36.8331 0.63855C37.2799 0.963424 37.6256 1.40834 37.8302 1.92151C38.3095 3.20207 38.3095 4.61262 37.8302 5.89319C37.6257 6.40911 37.2802 6.85728 36.8331 7.18616C36.4077 7.4859 35.8983 7.64294 35.378 7.63489ZM35.3876 6.73694C35.7334 6.74001 36.071 6.6311 36.3498 6.42639C36.6646 6.17992 36.901 5.84718 37.0303 5.46887C37.2113 4.96102 37.2968 4.42408 37.2823 3.88513C37.297 3.35898 37.2115 2.83489 37.0303 2.3407C36.8973 1.96982 36.6613 1.64473 36.3498 1.40344C36.071 1.1986 35.7335 1.08946 35.3876 1.09241C35.037 1.08884 34.6946 1.19789 34.4106 1.40344C34.0964 1.64326 33.8583 1.96868 33.7248 2.3407C33.5436 2.83488 33.4581 3.35898 33.4728 3.88513C33.4584 4.42408 33.5438 4.96102 33.7248 5.46887C33.8546 5.84832 34.0931 6.18139 34.4106 6.42639C34.6946 6.6318 35.0371 6.74065 35.3876 6.73694Z" fill="black"/>
<path d="M49.192 107.866H44.0088C43.9326 107.865 43.8573 107.848 43.788 107.817C43.7186 107.785 43.6567 107.739 43.6063 107.682C43.4988 107.559 43.4395 107.402 43.4395 107.238C43.4395 107.075 43.4988 106.918 43.6063 106.795C43.6567 106.738 43.7186 106.692 43.788 106.66C43.8573 106.628 43.9326 106.612 44.0088 106.611H49.192C49.2682 106.612 49.3434 106.628 49.4128 106.66C49.4822 106.692 49.5441 106.738 49.5945 106.795C49.702 106.918 49.7612 107.075 49.7612 107.238C49.7612 107.402 49.702 107.559 49.5945 107.682C49.5441 107.739 49.4822 107.785 49.4128 107.817C49.3434 107.848 49.2682 107.865 49.192 107.866Z" fill="black"/>
<path d="M49.192 56.2865H44.0088C43.9326 56.2858 43.8573 56.2691 43.788 56.2374C43.7187 56.2058 43.6568 56.1598 43.6063 56.1027C43.4988 55.9798 43.4395 55.8221 43.4395 55.6588C43.4395 55.4956 43.4988 55.338 43.6063 55.2152C43.6568 55.158 43.7187 55.1121 43.788 55.0804C43.8573 55.0488 43.9326 55.0321 44.0088 55.0314H49.192C49.2682 55.0321 49.3434 55.0488 49.4128 55.0804C49.4821 55.1121 49.5441 55.158 49.5945 55.2152C49.702 55.3381 49.7612 55.4956 49.7612 55.6588C49.7612 55.822 49.702 55.9798 49.5945 56.1027C49.5441 56.1598 49.4821 56.2058 49.4128 56.2374C49.3434 56.2691 49.2682 56.2858 49.192 56.2865Z" fill="black"/>
<path d="M49.192 4.70715H44.0088C43.9326 4.70644 43.8574 4.68951 43.788 4.65784C43.7187 4.62617 43.6568 4.58046 43.6063 4.52332C43.4988 4.40049 43.4395 4.24273 43.4395 4.07947C43.4395 3.9162 43.4988 3.75845 43.6063 3.63562C43.6568 3.57848 43.7187 3.53252 43.788 3.50085C43.8574 3.46919 43.9326 3.45249 44.0088 3.45178H49.192C49.2682 3.45249 49.3434 3.46919 49.4128 3.50085C49.4821 3.53252 49.544 3.57847 49.5945 3.63562C49.702 3.75849 49.7612 3.91623 49.7612 4.07947C49.7612 4.24271 49.702 4.40045 49.5945 4.52332C49.544 4.58046 49.4821 4.62617 49.4128 4.65784C49.3434 4.68951 49.2682 4.70644 49.192 4.70715Z" fill="black"/>
</g>
</g>
<defs>
<clipPath id="clip0_1059_6643">
<rect width="450.85" height="180.795" fill="white" transform="translate(0 0.19458)"/>
</clipPath>
</defs>
</svg>
