<svg width="208" height="259" viewBox="0 0 208 259" fill="none" xmlns="http://www.w3.org/2000/svg">
<g clip-path="url(#clip0_3001_2112)">
<path d="M89.7248 3.84865C85.2005 5.38406 80.9714 7.68031 77.2196 10.6384C73.6148 13.3792 70.5041 16.715 68.0215 20.5022L103.759 44.6077V1.50002C98.9816 1.47883 94.2353 2.27313 89.7248 3.84865Z" fill="#569FD6" stroke="#FFE4C1" stroke-width="3" stroke-miterlimit="10"/>
<path d="M103.759 44.6076L67.6063 68.0857C62.9027 61.0247 60.4276 52.714 60.5016 44.2301C60.5757 35.7462 63.1954 27.48 68.0215 20.5022L103.759 44.6076Z" fill="#FFAA4D" stroke="#FFE4C1" stroke-width="3" stroke-miterlimit="10"/>
<path d="M103.759 44.6076L111.245 87.0603C102.907 88.631 94.2904 87.6621 86.5099 84.279C78.7293 80.896 72.1439 75.2546 67.6064 68.0857L103.759 44.6076Z" fill="#FFAA4D" stroke="#FFE4C1" stroke-width="3" stroke-miterlimit="10"/>
<path d="M103.76 44.6076V1.49997C115.193 1.49997 126.157 6.04171 134.241 14.1259C142.326 22.2102 146.867 33.1748 146.867 44.6076C146.996 54.7765 143.471 64.6538 136.934 72.4442C130.397 80.2346 121.282 85.4209 111.245 87.0603L103.76 44.6076Z" fill="#F36D20" stroke="#FFE4C1" stroke-width="3" stroke-miterlimit="10"/>
<path d="M103.759 69.0769C117.273 69.0769 128.229 58.1216 128.229 44.6076C128.229 31.0936 117.273 20.1384 103.759 20.1384C90.2453 20.1384 79.29 31.0936 79.29 44.6076C79.29 58.1216 90.2453 69.0769 103.759 69.0769Z" fill="#FFE4C1"/>
</g>
<path d="M5.9 115.455C2.94 115.455 0.56 113.255 0.56 110.235C0.56 109.095 0.9 108.035 1.52 107.215L6.04 100.635H9.98L6.66 105.275C9.14 105.415 11.28 107.475 11.28 110.235C11.28 113.255 8.86 115.455 5.9 115.455ZM5.9 112.215C7.08 112.215 8 111.335 8 110.235C8 109.135 7.08 108.275 5.9 108.275C4.76 108.275 3.84 109.135 3.84 110.235C3.84 111.335 4.76 112.215 5.9 112.215ZM22.8364 115.255H12.2164V113.275L17.6164 108.175C18.5364 107.335 19.2564 106.495 19.2564 105.515C19.2564 104.355 18.4164 103.615 17.3564 103.615C16.3564 103.615 15.6564 104.315 15.3364 105.015L12.3564 103.995C12.9364 101.935 14.9764 100.375 17.3364 100.375C20.1964 100.375 22.4964 102.335 22.4964 105.535C22.4964 107.375 21.1764 108.915 19.8164 110.215L17.4364 112.235H22.8364V115.255Z" fill="#F36D20"/>
<path d="M42.956 108.409C40.73 108.409 39.008 106.855 39.008 104.363V98.0351H40.45V104.349C40.45 106.071 41.528 106.953 42.928 106.953C44.314 106.953 45.462 106.085 45.462 104.349V98.0351H46.918V104.363C46.918 106.855 45.168 108.409 42.956 108.409ZM52.1287 108.409C50.8127 108.409 49.5247 107.961 48.4467 106.799L49.3567 105.875C50.0847 106.603 50.9947 107.065 52.1427 107.079C53.3747 107.079 54.2427 106.491 54.2427 105.469C54.2427 102.991 48.6427 104.097 48.6427 100.541C48.6427 99.0291 49.8747 97.8671 51.9747 97.8671C53.0807 97.8671 54.4807 98.3151 55.3767 99.5191L54.3547 100.317C53.8507 99.6171 52.9267 99.2111 52.0447 99.1971C50.8267 99.1831 50.0427 99.7571 50.0427 100.527C50.0427 102.767 55.6567 101.703 55.6567 105.399C55.6567 107.247 54.1867 108.423 52.1287 108.409ZM61.9271 108.255H60.3311L64.0691 98.0351H65.6371L69.3751 108.255H67.8071L66.8271 105.595H62.8931L61.9271 108.255ZM64.8531 99.9811L63.3131 104.237H66.4071L64.8531 99.9811ZM73.8026 108.367C71.6186 108.367 69.8546 106.575 69.8546 104.391C69.8546 102.221 71.6186 100.457 73.8026 100.457C75.1326 100.457 76.3086 101.115 77.0366 102.123L75.9026 102.879C75.4266 102.249 74.6566 101.843 73.8026 101.843C72.3746 101.843 71.2406 102.991 71.2406 104.391C71.2406 105.819 72.3746 106.967 73.8026 106.967C74.6846 106.967 75.4686 106.533 75.9306 105.861L77.0646 106.617C76.3646 107.667 75.1606 108.367 73.8026 108.367ZM81.7687 108.353C79.6967 108.353 78.0167 106.575 78.0167 104.405C78.0167 102.221 79.6967 100.443 81.7687 100.443C83.0287 100.443 84.1627 101.199 84.6387 102.179L84.7087 100.555H85.9687V108.255H84.7087L84.6387 106.645C84.1627 107.611 83.0287 108.353 81.7687 108.353ZM81.9927 106.995C83.4347 106.995 84.5967 105.833 84.5967 104.405C84.5967 102.963 83.4347 101.787 81.9927 101.787C80.5647 101.787 79.4027 102.963 79.4027 104.405C79.4027 105.833 80.5647 106.995 81.9927 106.995ZM91.257 108.353C89.185 108.353 87.505 106.575 87.505 104.405C87.505 102.221 89.185 100.443 91.257 100.443C92.503 100.443 93.623 101.171 94.085 102.137V97.3351H95.457V108.255H94.197L94.127 106.645C93.651 107.611 92.517 108.353 91.257 108.353ZM91.481 106.995C92.923 106.995 94.085 105.833 94.085 104.405C94.085 102.963 92.923 101.787 91.481 101.787C90.053 101.787 88.891 102.963 88.891 104.405C88.891 105.833 90.053 106.995 91.481 106.995ZM101.081 108.367C98.7433 108.367 96.9933 106.575 96.9933 104.391C96.9933 102.221 98.7433 100.457 100.899 100.457C103.139 100.457 104.805 102.221 104.805 104.391C104.805 104.573 104.777 104.839 104.763 105.035H98.4633C98.6733 106.197 99.7513 107.079 101.081 107.079C102.033 107.079 102.789 106.687 103.279 106.085L104.385 106.771C103.657 107.737 102.383 108.367 101.081 108.367ZM98.4493 103.915H103.391C103.321 102.725 102.327 101.731 100.913 101.731C99.5553 101.731 98.5333 102.725 98.4493 103.915ZM107.7 108.255H106.342V100.555H107.602L107.672 101.829C108.064 100.933 108.932 100.443 109.772 100.443C111.004 100.443 111.802 101.157 112.124 102.081C112.446 101.171 113.244 100.443 114.364 100.443C116.002 100.443 117.22 101.493 117.22 104.167V108.255H115.848V104.167C115.848 102.403 115.064 101.787 114.154 101.787C113.3 101.787 112.46 102.403 112.46 104.167V108.255H111.088V104.167C111.088 102.403 110.304 101.787 109.394 101.787C108.484 101.787 107.7 102.571 107.7 104.335V108.255ZM119.262 111.419C118.702 111.419 118.282 111.321 117.848 111.139L118.254 109.921C118.492 110.019 118.884 110.117 119.206 110.117C120.074 110.117 120.634 109.291 121.082 108.101L118.002 100.555H119.472L121.712 106.253L123.938 100.555H125.394L122.454 108.255C121.614 110.467 120.732 111.419 119.262 111.419ZM131.986 108.255H130.544V98.0351H134.422C136.494 98.0351 137.866 99.4771 137.866 101.241C137.866 103.019 136.494 104.461 134.422 104.461H131.986V108.255ZM131.986 99.4491V103.047H134.394C135.626 103.047 136.382 102.221 136.382 101.241C136.382 100.289 135.626 99.4491 134.394 99.4491H131.986ZM140.704 108.255H139.346V100.555H140.606L140.69 101.815C141.138 100.989 142.006 100.499 143.14 100.513C143.336 100.513 143.532 100.527 143.714 100.555L143.434 101.871C143.35 101.857 143.252 101.843 143.168 101.843C141.866 101.843 140.704 102.571 140.704 104.699V108.255ZM148.096 108.367C145.912 108.367 144.148 106.575 144.148 104.391C144.148 102.221 145.912 100.457 148.096 100.457C150.266 100.457 152.044 102.221 152.044 104.391C152.044 106.575 150.266 108.367 148.096 108.367ZM148.096 106.967C149.51 106.967 150.658 105.819 150.658 104.391C150.658 102.991 149.51 101.843 148.096 101.843C146.668 101.843 145.534 102.991 145.534 104.391C145.534 105.819 146.668 106.967 148.096 106.967ZM156.868 111.475C155.566 111.475 154.306 110.887 153.578 109.935L154.614 109.137C155.146 109.767 156.028 110.159 156.938 110.159C158.422 110.159 159.71 109.305 159.71 107.275V106.687C159.248 107.625 158.128 108.353 156.882 108.353C154.81 108.353 153.13 106.575 153.13 104.405C153.13 102.221 154.81 100.443 156.882 100.443C158.142 100.443 159.276 101.199 159.752 102.179L159.822 100.555H161.082V107.051C161.082 110.033 159.29 111.475 156.868 111.475ZM157.106 106.995C158.548 106.995 159.71 105.833 159.71 104.405C159.71 102.963 158.548 101.787 157.106 101.787C155.678 101.787 154.516 102.963 154.516 104.405C154.516 105.833 155.678 106.995 157.106 106.995ZM164.438 108.255H163.08V100.555H164.34L164.424 101.815C164.872 100.989 165.74 100.499 166.874 100.513C167.07 100.513 167.266 100.527 167.448 100.555L167.168 101.871C167.084 101.857 166.986 101.843 166.902 101.843C165.6 101.843 164.438 102.571 164.438 104.699V108.255ZM171.634 108.353C169.562 108.353 167.882 106.575 167.882 104.405C167.882 102.221 169.562 100.443 171.634 100.443C172.894 100.443 174.028 101.199 174.504 102.179L174.574 100.555H175.834V108.255H174.574L174.504 106.645C174.028 107.611 172.894 108.353 171.634 108.353ZM171.858 106.995C173.3 106.995 174.462 105.833 174.462 104.405C174.462 102.963 173.3 101.787 171.858 101.787C170.43 101.787 169.268 102.963 169.268 104.405C169.268 105.833 170.43 106.995 171.858 106.995ZM179.19 108.255H177.832V100.555H179.092L179.162 101.829C179.554 100.933 180.422 100.443 181.262 100.443C182.494 100.443 183.292 101.157 183.614 102.081C183.936 101.171 184.734 100.443 185.854 100.443C187.492 100.443 188.71 101.493 188.71 104.167V108.255H187.338V104.167C187.338 102.403 186.554 101.787 185.644 101.787C184.79 101.787 183.95 102.403 183.95 104.167V108.255H182.578V104.167C182.578 102.403 181.794 101.787 180.884 101.787C179.974 101.787 179.19 102.571 179.19 104.335V108.255ZM42.27 126.795H40.94C39.61 125.563 38.742 123.323 38.742 120.565C38.742 117.793 39.61 115.581 40.94 114.335H42.27C40.772 115.693 39.974 117.989 39.974 120.565C39.974 123.127 40.772 125.451 42.27 126.795ZM47.748 125.255H43.646V115.035H47.3C49.19 115.035 50.45 116.127 50.45 117.681C50.45 118.619 49.974 119.347 49.218 119.781C50.31 120.145 51.066 121.041 51.066 122.315C51.066 124.009 49.736 125.255 47.748 125.255ZM45.088 116.365V119.319L47.356 119.305C48.35 119.291 49.036 118.689 49.036 117.877C49.036 117.051 48.448 116.365 47.272 116.365H45.088ZM45.088 120.593V123.855H47.706C48.882 123.855 49.582 123.169 49.582 122.217C49.582 121.251 48.812 120.593 47.79 120.593H45.088ZM56.1112 125.367C53.9272 125.367 52.1632 123.575 52.1632 121.391C52.1632 119.221 53.9272 117.457 56.1112 117.457C58.2812 117.457 60.0592 119.221 60.0592 121.391C60.0592 123.575 58.2812 125.367 56.1112 125.367ZM56.1112 123.967C57.5252 123.967 58.6732 122.819 58.6732 121.391C58.6732 119.991 57.5252 118.843 56.1112 118.843C54.6832 118.843 53.5492 119.991 53.5492 121.391C53.5492 122.819 54.6832 123.967 56.1112 123.967ZM64.3722 125.395C63.2662 125.395 61.8382 125.031 60.9422 124.051L61.8802 123.155C62.3982 123.729 63.4062 124.107 64.3722 124.107C65.3802 124.107 66.0802 123.715 66.0802 123.043C66.0802 121.461 61.2082 122.427 61.2082 119.571C61.2082 118.311 62.3562 117.429 64.1202 117.429C65.1142 117.429 66.3742 117.695 67.2142 118.703L66.3742 119.543C65.8422 118.899 64.8762 118.661 64.1622 118.661C63.2382 118.661 62.5802 118.997 62.5802 119.585C62.5802 120.985 67.4522 120.117 67.4522 123.001C67.4522 124.653 65.9822 125.395 64.3722 125.395ZM72.0125 125.381C70.5985 125.381 69.4225 124.527 69.4225 122.385V118.787H68.3865V117.555H69.4645L69.6325 115.035H70.7805V117.555H72.6285V118.787H70.7805V122.371C70.7805 123.477 71.3265 124.051 72.1945 124.051C72.3905 124.051 72.6005 124.023 72.7825 123.953L73.1325 125.171C72.8105 125.311 72.4185 125.381 72.0125 125.381ZM77.6717 125.367C75.4877 125.367 73.7237 123.575 73.7237 121.391C73.7237 119.221 75.4877 117.457 77.6717 117.457C79.8417 117.457 81.6197 119.221 81.6197 121.391C81.6197 123.575 79.8417 125.367 77.6717 125.367ZM77.6717 123.967C79.0857 123.967 80.2337 122.819 80.2337 121.391C80.2337 119.991 79.0857 118.843 77.6717 118.843C76.2437 118.843 75.1097 119.991 75.1097 121.391C75.1097 122.819 76.2437 123.967 77.6717 123.967ZM84.5262 125.255H83.1682V117.555H84.4282L84.4982 118.913C84.9182 118.101 85.7442 117.443 86.9202 117.443C88.7122 117.443 90.0702 118.675 90.0702 121.335V125.255H88.6982V121.335C88.6982 119.585 87.7462 118.787 86.6122 118.787C85.4922 118.787 84.5262 119.571 84.5262 121.335V125.255ZM99.6806 125.409C97.4546 125.409 95.7326 123.855 95.7326 121.363V115.035H97.1746V121.349C97.1746 123.071 98.2526 123.953 99.6526 123.953C101.039 123.953 102.187 123.085 102.187 121.349V115.035H103.643V121.363C103.643 123.855 101.893 125.409 99.6806 125.409ZM107.003 125.255H105.645V117.555H106.905L106.975 118.913C107.395 118.101 108.221 117.443 109.397 117.443C111.189 117.443 112.547 118.675 112.547 121.335V125.255H111.175V121.335C111.175 119.585 110.223 118.787 109.089 118.787C107.969 118.787 107.003 119.571 107.003 121.335V125.255ZM115.067 116.771C114.591 116.771 114.199 116.379 114.199 115.903C114.199 115.427 114.591 115.035 115.067 115.035C115.529 115.035 115.921 115.427 115.921 115.903C115.921 116.379 115.529 116.771 115.067 116.771ZM115.739 125.255H114.381V117.555H115.739V125.255ZM121.3 125.255H119.942L116.918 117.555H118.388L120.628 123.211L122.854 117.555H124.324L121.3 125.255ZM128.726 125.367C126.388 125.367 124.638 123.575 124.638 121.391C124.638 119.221 126.388 117.457 128.544 117.457C130.784 117.457 132.45 119.221 132.45 121.391C132.45 121.573 132.422 121.839 132.408 122.035H126.108C126.318 123.197 127.396 124.079 128.726 124.079C129.678 124.079 130.434 123.687 130.924 123.085L132.03 123.771C131.302 124.737 130.028 125.367 128.726 125.367ZM126.094 120.915H131.036C130.966 119.725 129.972 118.731 128.558 118.731C127.2 118.731 126.178 119.725 126.094 120.915ZM135.345 125.255H133.987V117.555H135.247L135.331 118.815C135.779 117.989 136.647 117.499 137.781 117.513C137.977 117.513 138.173 117.527 138.355 117.555L138.075 118.871C137.991 118.857 137.893 118.843 137.809 118.843C136.507 118.843 135.345 119.571 135.345 121.699V125.255ZM142.398 125.395C141.292 125.395 139.864 125.031 138.968 124.051L139.906 123.155C140.424 123.729 141.432 124.107 142.398 124.107C143.406 124.107 144.106 123.715 144.106 123.043C144.106 121.461 139.234 122.427 139.234 119.571C139.234 118.311 140.382 117.429 142.146 117.429C143.14 117.429 144.4 117.695 145.24 118.703L144.4 119.543C143.868 118.899 142.902 118.661 142.188 118.661C141.264 118.661 140.606 118.997 140.606 119.585C140.606 120.985 145.478 120.117 145.478 123.001C145.478 124.653 144.008 125.395 142.398 125.395ZM147.784 116.771C147.308 116.771 146.916 116.379 146.916 115.903C146.916 115.427 147.308 115.035 147.784 115.035C148.246 115.035 148.638 115.427 148.638 115.903C148.638 116.379 148.246 116.771 147.784 116.771ZM148.456 125.255H147.098V117.555H148.456V125.255ZM153.401 125.381C151.987 125.381 150.811 124.527 150.811 122.385V118.787H149.775V117.555H150.853L151.021 115.035H152.169V117.555H154.017V118.787H152.169V122.371C152.169 123.477 152.715 124.051 153.583 124.051C153.779 124.051 153.989 124.023 154.171 123.953L154.521 125.171C154.199 125.311 153.807 125.381 153.401 125.381ZM156.45 128.419C155.89 128.419 155.47 128.321 155.036 128.139L155.442 126.921C155.68 127.019 156.072 127.117 156.394 127.117C157.262 127.117 157.822 126.291 158.27 125.101L155.19 117.555H156.66L158.9 123.253L161.126 117.555H162.582L159.642 125.255C158.802 127.467 157.92 128.419 156.45 128.419ZM164.324 126.795H162.994C164.478 125.451 165.276 123.127 165.276 120.565C165.276 117.989 164.478 115.693 162.994 114.335H164.324C165.64 115.581 166.522 117.807 166.522 120.565C166.522 123.337 165.64 125.563 164.324 126.795Z" fill="black"/>
<path d="M11.02 156.255H0.4V154.275L5.8 149.175C6.72 148.335 7.44 147.495 7.44 146.515C7.44 145.355 6.6 144.615 5.54 144.615C4.54 144.615 3.84 145.315 3.52 146.015L0.54 144.995C1.12 142.935 3.16 141.375 5.52 141.375C8.38 141.375 10.68 143.335 10.68 146.535C10.68 148.375 9.36 149.915 8 151.215L5.62 153.235H11.02V156.255ZM17.4159 156.455C15.0759 156.455 13.0959 155.135 12.3359 153.135L15.4559 151.995C15.7359 152.715 16.5759 153.215 17.4759 153.215C18.6359 153.215 19.5959 152.335 19.5959 151.155C19.5959 149.975 18.6559 149.095 17.5159 149.095C16.8359 149.095 16.1759 149.415 15.7959 149.915H12.5559L13.1359 141.655H22.2959V144.675H16.1759L16.0359 146.775C16.5359 146.415 17.3359 146.135 18.0359 146.135C20.8359 146.135 22.8759 148.235 22.8759 151.235C22.8759 154.255 20.4159 156.455 17.4159 156.455Z" fill="#F39733"/>
<path d="M42.956 149.409C40.73 149.409 39.008 147.855 39.008 145.363V139.035H40.45V145.349C40.45 147.071 41.528 147.953 42.928 147.953C44.314 147.953 45.462 147.085 45.462 145.349V139.035H46.918V145.363C46.918 147.855 45.168 149.409 42.956 149.409ZM52.1287 149.409C50.8127 149.409 49.5247 148.961 48.4467 147.799L49.3567 146.875C50.0847 147.603 50.9947 148.065 52.1427 148.079C53.3747 148.079 54.2427 147.491 54.2427 146.469C54.2427 143.991 48.6427 145.097 48.6427 141.541C48.6427 140.029 49.8747 138.867 51.9747 138.867C53.0807 138.867 54.4807 139.315 55.3767 140.519L54.3547 141.317C53.8507 140.617 52.9267 140.211 52.0447 140.197C50.8267 140.183 50.0427 140.757 50.0427 141.527C50.0427 143.767 55.6567 142.703 55.6567 146.399C55.6567 148.247 54.1867 149.423 52.1287 149.409ZM61.9271 149.255H60.3311L64.0691 139.035H65.6371L69.3751 149.255H67.8071L66.8271 146.595H62.8931L61.9271 149.255ZM64.8531 140.981L63.3131 145.237H66.4071L64.8531 140.981ZM73.8026 149.367C71.6186 149.367 69.8546 147.575 69.8546 145.391C69.8546 143.221 71.6186 141.457 73.8026 141.457C75.1326 141.457 76.3086 142.115 77.0366 143.123L75.9026 143.879C75.4266 143.249 74.6566 142.843 73.8026 142.843C72.3746 142.843 71.2406 143.991 71.2406 145.391C71.2406 146.819 72.3746 147.967 73.8026 147.967C74.6846 147.967 75.4686 147.533 75.9306 146.861L77.0646 147.617C76.3646 148.667 75.1606 149.367 73.8026 149.367ZM81.7687 149.353C79.6967 149.353 78.0167 147.575 78.0167 145.405C78.0167 143.221 79.6967 141.443 81.7687 141.443C83.0287 141.443 84.1627 142.199 84.6387 143.179L84.7087 141.555H85.9687V149.255H84.7087L84.6387 147.645C84.1627 148.611 83.0287 149.353 81.7687 149.353ZM81.9927 147.995C83.4347 147.995 84.5967 146.833 84.5967 145.405C84.5967 143.963 83.4347 142.787 81.9927 142.787C80.5647 142.787 79.4027 143.963 79.4027 145.405C79.4027 146.833 80.5647 147.995 81.9927 147.995ZM91.257 149.353C89.185 149.353 87.505 147.575 87.505 145.405C87.505 143.221 89.185 141.443 91.257 141.443C92.503 141.443 93.623 142.171 94.085 143.137V138.335H95.457V149.255H94.197L94.127 147.645C93.651 148.611 92.517 149.353 91.257 149.353ZM91.481 147.995C92.923 147.995 94.085 146.833 94.085 145.405C94.085 143.963 92.923 142.787 91.481 142.787C90.053 142.787 88.891 143.963 88.891 145.405C88.891 146.833 90.053 147.995 91.481 147.995ZM101.081 149.367C98.7433 149.367 96.9933 147.575 96.9933 145.391C96.9933 143.221 98.7433 141.457 100.899 141.457C103.139 141.457 104.805 143.221 104.805 145.391C104.805 145.573 104.777 145.839 104.763 146.035H98.4633C98.6733 147.197 99.7513 148.079 101.081 148.079C102.033 148.079 102.789 147.687 103.279 147.085L104.385 147.771C103.657 148.737 102.383 149.367 101.081 149.367ZM98.4493 144.915H103.391C103.321 143.725 102.327 142.731 100.913 142.731C99.5553 142.731 98.5333 143.725 98.4493 144.915ZM107.7 149.255H106.342V141.555H107.602L107.672 142.829C108.064 141.933 108.932 141.443 109.772 141.443C111.004 141.443 111.802 142.157 112.124 143.081C112.446 142.171 113.244 141.443 114.364 141.443C116.002 141.443 117.22 142.493 117.22 145.167V149.255H115.848V145.167C115.848 143.403 115.064 142.787 114.154 142.787C113.3 142.787 112.46 143.403 112.46 145.167V149.255H111.088V145.167C111.088 143.403 110.304 142.787 109.394 142.787C108.484 142.787 107.7 143.571 107.7 145.335V149.255ZM119.262 152.419C118.702 152.419 118.282 152.321 117.848 152.139L118.254 150.921C118.492 151.019 118.884 151.117 119.206 151.117C120.074 151.117 120.634 150.291 121.082 149.101L118.002 141.555H119.472L121.712 147.253L123.938 141.555H125.394L122.454 149.255C121.614 151.467 120.732 152.419 119.262 152.419ZM131.986 149.255H130.544V139.035H134.422C136.494 139.035 137.866 140.477 137.866 142.241C137.866 144.019 136.494 145.461 134.422 145.461H131.986V149.255ZM131.986 140.449V144.047H134.394C135.626 144.047 136.382 143.221 136.382 142.241C136.382 141.289 135.626 140.449 134.394 140.449H131.986ZM140.704 149.255H139.346V141.555H140.606L140.69 142.815C141.138 141.989 142.006 141.499 143.14 141.513C143.336 141.513 143.532 141.527 143.714 141.555L143.434 142.871C143.35 142.857 143.252 142.843 143.168 142.843C141.866 142.843 140.704 143.571 140.704 145.699V149.255ZM148.096 149.367C145.912 149.367 144.148 147.575 144.148 145.391C144.148 143.221 145.912 141.457 148.096 141.457C150.266 141.457 152.044 143.221 152.044 145.391C152.044 147.575 150.266 149.367 148.096 149.367ZM148.096 147.967C149.51 147.967 150.658 146.819 150.658 145.391C150.658 143.991 149.51 142.843 148.096 142.843C146.668 142.843 145.534 143.991 145.534 145.391C145.534 146.819 146.668 147.967 148.096 147.967ZM156.868 152.475C155.566 152.475 154.306 151.887 153.578 150.935L154.614 150.137C155.146 150.767 156.028 151.159 156.938 151.159C158.422 151.159 159.71 150.305 159.71 148.275V147.687C159.248 148.625 158.128 149.353 156.882 149.353C154.81 149.353 153.13 147.575 153.13 145.405C153.13 143.221 154.81 141.443 156.882 141.443C158.142 141.443 159.276 142.199 159.752 143.179L159.822 141.555H161.082V148.051C161.082 151.033 159.29 152.475 156.868 152.475ZM157.106 147.995C158.548 147.995 159.71 146.833 159.71 145.405C159.71 143.963 158.548 142.787 157.106 142.787C155.678 142.787 154.516 143.963 154.516 145.405C154.516 146.833 155.678 147.995 157.106 147.995ZM164.438 149.255H163.08V141.555H164.34L164.424 142.815C164.872 141.989 165.74 141.499 166.874 141.513C167.07 141.513 167.266 141.527 167.448 141.555L167.168 142.871C167.084 142.857 166.986 142.843 166.902 142.843C165.6 142.843 164.438 143.571 164.438 145.699V149.255ZM171.634 149.353C169.562 149.353 167.882 147.575 167.882 145.405C167.882 143.221 169.562 141.443 171.634 141.443C172.894 141.443 174.028 142.199 174.504 143.179L174.574 141.555H175.834V149.255H174.574L174.504 147.645C174.028 148.611 172.894 149.353 171.634 149.353ZM171.858 147.995C173.3 147.995 174.462 146.833 174.462 145.405C174.462 143.963 173.3 142.787 171.858 142.787C170.43 142.787 169.268 143.963 169.268 145.405C169.268 146.833 170.43 147.995 171.858 147.995ZM179.19 149.255H177.832V141.555H179.092L179.162 142.829C179.554 141.933 180.422 141.443 181.262 141.443C182.494 141.443 183.292 142.157 183.614 143.081C183.936 142.171 184.734 141.443 185.854 141.443C187.492 141.443 188.71 142.493 188.71 145.167V149.255H187.338V145.167C187.338 143.403 186.554 142.787 185.644 142.787C184.79 142.787 183.95 143.403 183.95 145.167V149.255H182.578V145.167C182.578 143.403 181.794 142.787 180.884 142.787C179.974 142.787 179.19 143.571 179.19 145.335V149.255ZM42.27 167.795H40.94C39.61 166.563 38.742 164.323 38.742 161.565C38.742 158.793 39.61 156.581 40.94 155.335H42.27C40.772 156.693 39.974 158.989 39.974 161.565C39.974 164.127 40.772 166.451 42.27 167.795ZM50.1 166.255H43.646V156.035H49.96V157.365H45.074V160.347H49.68V161.677H45.074V164.855H50.1V166.255ZM53.1355 166.255H51.7775V158.555H53.0375L53.1075 159.829C53.4995 158.933 54.3675 158.443 55.2075 158.443C56.4395 158.443 57.2375 159.157 57.5595 160.081C57.8815 159.171 58.6795 158.443 59.7995 158.443C61.4375 158.443 62.6555 159.493 62.6555 162.167V166.255H61.2835V162.167C61.2835 160.403 60.4995 159.787 59.5895 159.787C58.7355 159.787 57.8955 160.403 57.8955 162.167V166.255H56.5235V162.167C56.5235 160.403 55.7395 159.787 54.8295 159.787C53.9195 159.787 53.1355 160.571 53.1355 162.335V166.255ZM68.692 166.353C67.432 166.353 66.298 165.611 65.836 164.645L65.766 166.255H64.506V155.335H65.864V160.137C66.326 159.171 67.446 158.443 68.692 158.443C70.764 158.443 72.444 160.221 72.444 162.405C72.444 164.575 70.764 166.353 68.692 166.353ZM68.482 164.995C69.91 164.995 71.072 163.833 71.072 162.405C71.072 160.963 69.91 159.787 68.482 159.787C67.026 159.787 65.864 160.963 65.864 162.405C65.864 163.833 67.026 164.995 68.482 164.995ZM75.3523 166.255H73.9943V158.555H75.2543L75.3383 159.815C75.7863 158.989 76.6543 158.499 77.7883 158.513C77.9843 158.513 78.1803 158.527 78.3623 158.555L78.0823 159.871C77.9983 159.857 77.9003 159.843 77.8163 159.843C76.5143 159.843 75.3523 160.571 75.3523 162.699V166.255ZM80.2972 169.419C79.7372 169.419 79.3172 169.321 78.8832 169.139L79.2892 167.921C79.5272 168.019 79.9192 168.117 80.2412 168.117C81.1092 168.117 81.6692 167.291 82.1172 166.101L79.0372 158.555H80.5072L82.7472 164.253L84.9732 158.555H86.4292L83.4892 166.255C82.6492 168.467 81.7672 169.419 80.2972 169.419ZM93.0216 166.255H91.5796V156.035H95.4576C97.5296 156.035 98.9016 157.477 98.9016 159.241C98.9016 160.669 97.9636 161.873 96.5636 162.209L99.0696 166.255H97.3896L95.0656 162.461H93.0216V166.255ZM93.0216 157.449V161.047H95.4296C96.6616 161.047 97.4176 160.221 97.4176 159.241C97.4176 158.289 96.6616 157.449 95.4296 157.449H93.0216ZM101.094 157.771C100.618 157.771 100.226 157.379 100.226 156.903C100.226 156.427 100.618 156.035 101.094 156.035C101.556 156.035 101.948 156.427 101.948 156.903C101.948 157.379 101.556 157.771 101.094 157.771ZM101.766 166.255H100.408V158.555H101.766V166.255ZM107.062 166.353C104.99 166.353 103.31 164.575 103.31 162.405C103.31 160.221 104.99 158.443 107.062 158.443C108.308 158.443 109.428 159.171 109.89 160.137V155.335H111.262V166.255H110.002L109.932 164.645C109.456 165.611 108.322 166.353 107.062 166.353ZM107.286 164.995C108.728 164.995 109.89 163.833 109.89 162.405C109.89 160.963 108.728 159.787 107.286 159.787C105.858 159.787 104.696 160.963 104.696 162.405C104.696 163.833 105.858 164.995 107.286 164.995ZM116.55 166.353C114.478 166.353 112.798 164.575 112.798 162.405C112.798 160.221 114.478 158.443 116.55 158.443C117.796 158.443 118.916 159.171 119.378 160.137V155.335H120.75V166.255H119.49L119.42 164.645C118.944 165.611 117.81 166.353 116.55 166.353ZM116.774 164.995C118.216 164.995 119.378 163.833 119.378 162.405C119.378 160.963 118.216 159.787 116.774 159.787C115.346 159.787 114.184 160.963 114.184 162.405C114.184 163.833 115.346 164.995 116.774 164.995ZM124.106 166.255H122.748V155.335H124.106V166.255ZM129.738 166.367C127.4 166.367 125.65 164.575 125.65 162.391C125.65 160.221 127.4 158.457 129.556 158.457C131.796 158.457 133.462 160.221 133.462 162.391C133.462 162.573 133.434 162.839 133.42 163.035H127.12C127.33 164.197 128.408 165.079 129.738 165.079C130.69 165.079 131.446 164.687 131.936 164.085L133.042 164.771C132.314 165.737 131.04 166.367 129.738 166.367ZM127.106 161.915H132.048C131.978 160.725 130.984 159.731 129.57 159.731C128.212 159.731 127.19 160.725 127.106 161.915ZM139.624 166.255H138.028L141.766 156.035H143.334L147.072 166.255H145.504L144.524 163.595H140.59L139.624 166.255ZM142.55 157.981L141.01 162.237H144.104L142.55 157.981ZM151.64 166.367C149.302 166.367 147.552 164.575 147.552 162.391C147.552 160.221 149.302 158.457 151.458 158.457C153.698 158.457 155.364 160.221 155.364 162.391C155.364 162.573 155.336 162.839 155.322 163.035H149.022C149.232 164.197 150.31 165.079 151.64 165.079C152.592 165.079 153.348 164.687 153.838 164.085L154.944 164.771C154.216 165.737 152.942 166.367 151.64 166.367ZM149.008 161.915H153.95C153.88 160.725 152.886 159.731 151.472 159.731C150.114 159.731 149.092 160.725 149.008 161.915ZM158.259 166.255H156.901V158.555H158.161L158.245 159.815C158.693 158.989 159.561 158.499 160.695 158.513C160.891 158.513 161.087 158.527 161.269 158.555L160.989 159.871C160.905 159.857 160.807 159.843 160.723 159.843C159.421 159.843 158.259 160.571 158.259 162.699V166.255ZM165.65 166.367C163.466 166.367 161.702 164.575 161.702 162.391C161.702 160.221 163.466 158.457 165.65 158.457C167.82 158.457 169.598 160.221 169.598 162.391C169.598 164.575 167.82 166.367 165.65 166.367ZM165.65 164.967C167.064 164.967 168.212 163.819 168.212 162.391C168.212 160.991 167.064 159.843 165.65 159.843C164.222 159.843 163.088 160.991 163.088 162.391C163.088 163.819 164.222 164.967 165.65 164.967ZM172.505 166.255H171.147V158.555H172.407L172.477 159.913C172.897 159.101 173.723 158.443 174.899 158.443C176.691 158.443 178.049 159.675 178.049 162.335V166.255H176.677V162.335C176.677 160.585 175.725 159.787 174.591 159.787C173.471 159.787 172.505 160.571 172.505 162.335V166.255ZM183.173 166.353C181.101 166.353 179.421 164.575 179.421 162.405C179.421 160.221 181.101 158.443 183.173 158.443C184.433 158.443 185.567 159.199 186.043 160.179L186.113 158.555H187.373V166.255H186.113L186.043 164.645C185.567 165.611 184.433 166.353 183.173 166.353ZM183.397 164.995C184.839 164.995 186.001 163.833 186.001 162.405C186.001 160.963 184.839 159.787 183.397 159.787C181.969 159.787 180.807 160.963 180.807 162.405C180.807 163.833 181.969 164.995 183.397 164.995ZM192.353 166.367C190.561 166.367 189.203 165.121 189.203 162.461V158.555H190.575V162.461C190.575 164.225 191.527 165.009 192.661 165.009C193.781 165.009 194.747 164.225 194.747 162.461V158.555H196.105V166.255H194.845L194.775 164.883C194.355 165.695 193.515 166.367 192.353 166.367ZM202.938 161.705H197.786V160.571H202.938V161.705ZM41.948 183.381C40.534 183.381 39.358 182.527 39.358 180.385V176.787H38.322V175.555H39.4L39.568 173.035H40.716V175.555H42.564V176.787H40.716V180.371C40.716 181.477 41.262 182.051 42.13 182.051C42.326 182.051 42.536 182.023 42.718 181.953L43.068 183.171C42.746 183.311 42.354 183.381 41.948 183.381ZM45.2038 174.771C44.7278 174.771 44.3358 174.379 44.3358 173.903C44.3358 173.427 44.7278 173.035 45.2038 173.035C45.6658 173.035 46.0578 173.427 46.0578 173.903C46.0578 174.379 45.6658 174.771 45.2038 174.771ZM45.8758 183.255H44.5178V175.555H45.8758V183.255ZM51.367 183.367C49.183 183.367 47.419 181.575 47.419 179.391C47.419 177.221 49.183 175.457 51.367 175.457C52.697 175.457 53.873 176.115 54.601 177.123L53.467 177.879C52.991 177.249 52.221 176.843 51.367 176.843C49.939 176.843 48.805 177.991 48.805 179.391C48.805 180.819 49.939 181.967 51.367 181.967C52.249 181.967 53.033 181.533 53.495 180.861L54.629 181.617C53.929 182.667 52.725 183.367 51.367 183.367ZM59.3332 183.353C57.2612 183.353 55.5812 181.575 55.5812 179.405C55.5812 177.221 57.2612 175.443 59.3332 175.443C60.5932 175.443 61.7272 176.199 62.2032 177.179L62.2732 175.555H63.5332V183.255H62.2732L62.2032 181.645C61.7272 182.611 60.5932 183.353 59.3332 183.353ZM59.5572 181.995C60.9992 181.995 62.1612 180.833 62.1612 179.405C62.1612 177.963 60.9992 176.787 59.5572 176.787C58.1292 176.787 56.9672 177.963 56.9672 179.405C56.9672 180.833 58.1292 181.995 59.5572 181.995ZM66.8894 183.255H65.5314V172.335H66.8894V183.255ZM76.6708 183.409C74.4448 183.409 72.7228 181.855 72.7228 179.363V173.035H74.1648V179.349C74.1648 181.071 75.2428 181.953 76.6428 181.953C78.0288 181.953 79.1768 181.085 79.1768 179.349V173.035H80.6328V179.363C80.6328 181.855 78.8828 183.409 76.6708 183.409ZM83.993 183.255H82.635V175.555H83.895L83.965 176.913C84.385 176.101 85.211 175.443 86.387 175.443C88.179 175.443 89.537 176.675 89.537 179.335V183.255H88.165V179.335C88.165 177.585 87.213 176.787 86.079 176.787C84.959 176.787 83.993 177.571 83.993 179.335V183.255ZM92.0573 174.771C91.5813 174.771 91.1893 174.379 91.1893 173.903C91.1893 173.427 91.5813 173.035 92.0573 173.035C92.5193 173.035 92.9113 173.427 92.9113 173.903C92.9113 174.379 92.5193 174.771 92.0573 174.771ZM92.7293 183.255H91.3713V175.555H92.7293V183.255ZM98.2906 183.255H96.9326L93.9086 175.555H95.3786L97.6186 181.211L99.8446 175.555H101.315L98.2906 183.255ZM105.716 183.367C103.378 183.367 101.628 181.575 101.628 179.391C101.628 177.221 103.378 175.457 105.534 175.457C107.774 175.457 109.44 177.221 109.44 179.391C109.44 179.573 109.412 179.839 109.398 180.035H103.098C103.308 181.197 104.386 182.079 105.716 182.079C106.668 182.079 107.424 181.687 107.914 181.085L109.02 181.771C108.292 182.737 107.018 183.367 105.716 183.367ZM103.084 178.915H108.026C107.956 177.725 106.962 176.731 105.548 176.731C104.19 176.731 103.168 177.725 103.084 178.915ZM112.335 183.255H110.977V175.555H112.237L112.321 176.815C112.769 175.989 113.637 175.499 114.771 175.513C114.967 175.513 115.163 175.527 115.345 175.555L115.065 176.871C114.981 176.857 114.883 176.843 114.799 176.843C113.497 176.843 112.335 177.571 112.335 179.699V183.255ZM119.388 183.395C118.282 183.395 116.854 183.031 115.958 182.051L116.896 181.155C117.414 181.729 118.422 182.107 119.388 182.107C120.396 182.107 121.096 181.715 121.096 181.043C121.096 179.461 116.224 180.427 116.224 177.571C116.224 176.311 117.372 175.429 119.136 175.429C120.13 175.429 121.39 175.695 122.23 176.703L121.39 177.543C120.858 176.899 119.892 176.661 119.178 176.661C118.254 176.661 117.596 176.997 117.596 177.585C117.596 178.985 122.468 178.117 122.468 181.001C122.468 182.653 120.998 183.395 119.388 183.395ZM124.774 174.771C124.298 174.771 123.906 174.379 123.906 173.903C123.906 173.427 124.298 173.035 124.774 173.035C125.236 173.035 125.628 173.427 125.628 173.903C125.628 174.379 125.236 174.771 124.774 174.771ZM125.446 183.255H124.088V175.555H125.446V183.255ZM130.391 183.381C128.977 183.381 127.801 182.527 127.801 180.385V176.787H126.765V175.555H127.843L128.011 173.035H129.159V175.555H131.007V176.787H129.159V180.371C129.159 181.477 129.705 182.051 130.573 182.051C130.769 182.051 130.979 182.023 131.161 181.953L131.511 183.171C131.189 183.311 130.797 183.381 130.391 183.381ZM133.44 186.419C132.88 186.419 132.46 186.321 132.026 186.139L132.432 184.921C132.67 185.019 133.062 185.117 133.384 185.117C134.252 185.117 134.812 184.291 135.26 183.101L132.18 175.555H133.65L135.89 181.253L138.116 175.555H139.572L136.632 183.255C135.792 185.467 134.91 186.419 133.44 186.419ZM141.314 184.795H139.984C141.468 183.451 142.266 181.127 142.266 178.565C142.266 175.989 141.468 173.693 139.984 172.335H141.314C142.63 173.581 143.512 175.807 143.512 178.565C143.512 181.337 142.63 183.563 141.314 184.795Z" fill="black"/>
<path d="M11.02 213.255H0.4V211.275L5.8 206.175C6.72 205.335 7.44 204.495 7.44 203.515C7.44 202.355 6.6 201.615 5.54 201.615C4.54 201.615 3.84 202.315 3.52 203.015L0.54 201.995C1.12 199.935 3.16 198.375 5.52 198.375C8.38 198.375 10.68 200.335 10.68 203.535C10.68 205.375 9.36 206.915 8 208.215L5.62 210.235H11.02V213.255ZM17.4159 213.455C15.0759 213.455 13.0959 212.135 12.3359 210.135L15.4559 208.995C15.7359 209.715 16.5759 210.215 17.4759 210.215C18.6359 210.215 19.5959 209.335 19.5959 208.155C19.5959 206.975 18.6559 206.095 17.5159 206.095C16.8359 206.095 16.1759 206.415 15.7959 206.915H12.5559L13.1359 198.655H22.2959V201.675H16.1759L16.0359 203.775C16.5359 203.415 17.3359 203.135 18.0359 203.135C20.8359 203.135 22.8759 205.235 22.8759 208.235C22.8759 211.255 20.4159 213.455 17.4159 213.455Z" fill="#F39733"/>
<path d="M42.956 207.409C40.73 207.409 39.008 205.855 39.008 203.363V197.035H40.45V203.349C40.45 205.071 41.528 205.953 42.928 205.953C44.314 205.953 45.462 205.085 45.462 203.349V197.035H46.918V203.363C46.918 205.855 45.168 207.409 42.956 207.409ZM52.1287 207.409C50.8127 207.409 49.5247 206.961 48.4467 205.799L49.3567 204.875C50.0847 205.603 50.9947 206.065 52.1427 206.079C53.3747 206.079 54.2427 205.491 54.2427 204.469C54.2427 201.991 48.6427 203.097 48.6427 199.541C48.6427 198.029 49.8747 196.867 51.9747 196.867C53.0807 196.867 54.4807 197.315 55.3767 198.519L54.3547 199.317C53.8507 198.617 52.9267 198.211 52.0447 198.197C50.8267 198.183 50.0427 198.757 50.0427 199.527C50.0427 201.767 55.6567 200.703 55.6567 204.399C55.6567 206.247 54.1867 207.423 52.1287 207.409ZM61.9271 207.255H60.3311L64.0691 197.035H65.6371L69.3751 207.255H67.8071L66.8271 204.595H62.8931L61.9271 207.255ZM64.8531 198.981L63.3131 203.237H66.4071L64.8531 198.981ZM73.8026 207.367C71.6186 207.367 69.8546 205.575 69.8546 203.391C69.8546 201.221 71.6186 199.457 73.8026 199.457C75.1326 199.457 76.3086 200.115 77.0366 201.123L75.9026 201.879C75.4266 201.249 74.6566 200.843 73.8026 200.843C72.3746 200.843 71.2406 201.991 71.2406 203.391C71.2406 204.819 72.3746 205.967 73.8026 205.967C74.6846 205.967 75.4686 205.533 75.9306 204.861L77.0646 205.617C76.3646 206.667 75.1606 207.367 73.8026 207.367ZM81.7687 207.353C79.6967 207.353 78.0167 205.575 78.0167 203.405C78.0167 201.221 79.6967 199.443 81.7687 199.443C83.0287 199.443 84.1627 200.199 84.6387 201.179L84.7087 199.555H85.9687V207.255H84.7087L84.6387 205.645C84.1627 206.611 83.0287 207.353 81.7687 207.353ZM81.9927 205.995C83.4347 205.995 84.5967 204.833 84.5967 203.405C84.5967 201.963 83.4347 200.787 81.9927 200.787C80.5647 200.787 79.4027 201.963 79.4027 203.405C79.4027 204.833 80.5647 205.995 81.9927 205.995ZM91.257 207.353C89.185 207.353 87.505 205.575 87.505 203.405C87.505 201.221 89.185 199.443 91.257 199.443C92.503 199.443 93.623 200.171 94.085 201.137V196.335H95.457V207.255H94.197L94.127 205.645C93.651 206.611 92.517 207.353 91.257 207.353ZM91.481 205.995C92.923 205.995 94.085 204.833 94.085 203.405C94.085 201.963 92.923 200.787 91.481 200.787C90.053 200.787 88.891 201.963 88.891 203.405C88.891 204.833 90.053 205.995 91.481 205.995ZM101.081 207.367C98.7433 207.367 96.9933 205.575 96.9933 203.391C96.9933 201.221 98.7433 199.457 100.899 199.457C103.139 199.457 104.805 201.221 104.805 203.391C104.805 203.573 104.777 203.839 104.763 204.035H98.4633C98.6733 205.197 99.7513 206.079 101.081 206.079C102.033 206.079 102.789 205.687 103.279 205.085L104.385 205.771C103.657 206.737 102.383 207.367 101.081 207.367ZM98.4493 202.915H103.391C103.321 201.725 102.327 200.731 100.913 200.731C99.5553 200.731 98.5333 201.725 98.4493 202.915ZM107.7 207.255H106.342V199.555H107.602L107.672 200.829C108.064 199.933 108.932 199.443 109.772 199.443C111.004 199.443 111.802 200.157 112.124 201.081C112.446 200.171 113.244 199.443 114.364 199.443C116.002 199.443 117.22 200.493 117.22 203.167V207.255H115.848V203.167C115.848 201.403 115.064 200.787 114.154 200.787C113.3 200.787 112.46 201.403 112.46 203.167V207.255H111.088V203.167C111.088 201.403 110.304 200.787 109.394 200.787C108.484 200.787 107.7 201.571 107.7 203.335V207.255ZM119.262 210.419C118.702 210.419 118.282 210.321 117.848 210.139L118.254 208.921C118.492 209.019 118.884 209.117 119.206 209.117C120.074 209.117 120.634 208.291 121.082 207.101L118.002 199.555H119.472L121.712 205.253L123.938 199.555H125.394L122.454 207.255C121.614 209.467 120.732 210.419 119.262 210.419ZM131.986 207.255H130.544V197.035H134.422C136.494 197.035 137.866 198.477 137.866 200.241C137.866 202.019 136.494 203.461 134.422 203.461H131.986V207.255ZM131.986 198.449V202.047H134.394C135.626 202.047 136.382 201.221 136.382 200.241C136.382 199.289 135.626 198.449 134.394 198.449H131.986ZM140.704 207.255H139.346V199.555H140.606L140.69 200.815C141.138 199.989 142.006 199.499 143.14 199.513C143.336 199.513 143.532 199.527 143.714 199.555L143.434 200.871C143.35 200.857 143.252 200.843 143.168 200.843C141.866 200.843 140.704 201.571 140.704 203.699V207.255ZM148.096 207.367C145.912 207.367 144.148 205.575 144.148 203.391C144.148 201.221 145.912 199.457 148.096 199.457C150.266 199.457 152.044 201.221 152.044 203.391C152.044 205.575 150.266 207.367 148.096 207.367ZM148.096 205.967C149.51 205.967 150.658 204.819 150.658 203.391C150.658 201.991 149.51 200.843 148.096 200.843C146.668 200.843 145.534 201.991 145.534 203.391C145.534 204.819 146.668 205.967 148.096 205.967ZM156.868 210.475C155.566 210.475 154.306 209.887 153.578 208.935L154.614 208.137C155.146 208.767 156.028 209.159 156.938 209.159C158.422 209.159 159.71 208.305 159.71 206.275V205.687C159.248 206.625 158.128 207.353 156.882 207.353C154.81 207.353 153.13 205.575 153.13 203.405C153.13 201.221 154.81 199.443 156.882 199.443C158.142 199.443 159.276 200.199 159.752 201.179L159.822 199.555H161.082V206.051C161.082 209.033 159.29 210.475 156.868 210.475ZM157.106 205.995C158.548 205.995 159.71 204.833 159.71 203.405C159.71 201.963 158.548 200.787 157.106 200.787C155.678 200.787 154.516 201.963 154.516 203.405C154.516 204.833 155.678 205.995 157.106 205.995ZM164.438 207.255H163.08V199.555H164.34L164.424 200.815C164.872 199.989 165.74 199.499 166.874 199.513C167.07 199.513 167.266 199.527 167.448 199.555L167.168 200.871C167.084 200.857 166.986 200.843 166.902 200.843C165.6 200.843 164.438 201.571 164.438 203.699V207.255ZM171.634 207.353C169.562 207.353 167.882 205.575 167.882 203.405C167.882 201.221 169.562 199.443 171.634 199.443C172.894 199.443 174.028 200.199 174.504 201.179L174.574 199.555H175.834V207.255H174.574L174.504 205.645C174.028 206.611 172.894 207.353 171.634 207.353ZM171.858 205.995C173.3 205.995 174.462 204.833 174.462 203.405C174.462 201.963 173.3 200.787 171.858 200.787C170.43 200.787 169.268 201.963 169.268 203.405C169.268 204.833 170.43 205.995 171.858 205.995ZM179.19 207.255H177.832V199.555H179.092L179.162 200.829C179.554 199.933 180.422 199.443 181.262 199.443C182.494 199.443 183.292 200.157 183.614 201.081C183.936 200.171 184.734 199.443 185.854 199.443C187.492 199.443 188.71 200.493 188.71 203.167V207.255H187.338V203.167C187.338 201.403 186.554 200.787 185.644 200.787C184.79 200.787 183.95 201.403 183.95 203.167V207.255H182.578V203.167C182.578 201.403 181.794 200.787 180.884 200.787C179.974 200.787 179.19 201.571 179.19 203.335V207.255ZM42.27 225.795H40.94C39.61 224.563 38.742 222.323 38.742 219.565C38.742 216.793 39.61 214.581 40.94 213.335H42.27C40.772 214.693 39.974 216.989 39.974 219.565C39.974 222.127 40.772 224.451 42.27 225.795ZM47.454 224.409C45.228 224.409 43.506 222.855 43.506 220.363V214.035H44.948V220.349C44.948 222.071 46.026 222.953 47.426 222.953C48.812 222.953 49.96 222.085 49.96 220.349V214.035H51.416V220.363C51.416 222.855 49.666 224.409 47.454 224.409ZM54.7762 224.255H53.4182V216.555H54.6782L54.7482 217.913C55.1682 217.101 55.9942 216.443 57.1702 216.443C58.9622 216.443 60.3202 217.675 60.3202 220.335V224.255H58.9482V220.335C58.9482 218.585 57.9962 217.787 56.8622 217.787C55.7422 217.787 54.7762 218.571 54.7762 220.335V224.255ZM62.8405 215.771C62.3645 215.771 61.9725 215.379 61.9725 214.903C61.9725 214.427 62.3645 214.035 62.8405 214.035C63.3025 214.035 63.6945 214.427 63.6945 214.903C63.6945 215.379 63.3025 215.771 62.8405 215.771ZM63.5125 224.255H62.1545V216.555H63.5125V224.255ZM69.0738 224.255H67.7158L64.6918 216.555H66.1618L68.4018 222.211L70.6278 216.555H72.0978L69.0738 224.255ZM76.4992 224.367C74.1612 224.367 72.4112 222.575 72.4112 220.391C72.4112 218.221 74.1612 216.457 76.3172 216.457C78.5572 216.457 80.2232 218.221 80.2232 220.391C80.2232 220.573 80.1952 220.839 80.1812 221.035H73.8812C74.0912 222.197 75.1692 223.079 76.4992 223.079C77.4512 223.079 78.2072 222.687 78.6972 222.085L79.8032 222.771C79.0752 223.737 77.8012 224.367 76.4992 224.367ZM73.8672 219.915H78.8092C78.7392 218.725 77.7452 217.731 76.3312 217.731C74.9732 217.731 73.9512 218.725 73.8672 219.915ZM83.118 224.255H81.76V216.555H83.02L83.104 217.815C83.552 216.989 84.42 216.499 85.554 216.513C85.75 216.513 85.946 216.527 86.128 216.555L85.848 217.871C85.764 217.857 85.666 217.843 85.582 217.843C84.28 217.843 83.118 218.571 83.118 220.699V224.255ZM90.171 224.395C89.065 224.395 87.637 224.031 86.741 223.051L87.679 222.155C88.197 222.729 89.205 223.107 90.171 223.107C91.179 223.107 91.879 222.715 91.879 222.043C91.879 220.461 87.007 221.427 87.007 218.571C87.007 217.311 88.155 216.429 89.919 216.429C90.913 216.429 92.173 216.695 93.013 217.703L92.173 218.543C91.641 217.899 90.675 217.661 89.961 217.661C89.037 217.661 88.379 217.997 88.379 218.585C88.379 219.985 93.251 219.117 93.251 222.001C93.251 223.653 91.781 224.395 90.171 224.395ZM95.5573 215.771C95.0813 215.771 94.6893 215.379 94.6893 214.903C94.6893 214.427 95.0813 214.035 95.5573 214.035C96.0193 214.035 96.4113 214.427 96.4113 214.903C96.4113 215.379 96.0193 215.771 95.5573 215.771ZM96.2293 224.255H94.8713V216.555H96.2293V224.255ZM101.175 224.381C99.7606 224.381 98.5846 223.527 98.5846 221.385V217.787H97.5486V216.555H98.6266L98.7946 214.035H99.9426V216.555H101.791V217.787H99.9426V221.371C99.9426 222.477 100.489 223.051 101.357 223.051C101.553 223.051 101.763 223.023 101.945 222.953L102.295 224.171C101.973 224.311 101.581 224.381 101.175 224.381ZM104.223 227.419C103.663 227.419 103.243 227.321 102.809 227.139L103.215 225.921C103.453 226.019 103.845 226.117 104.167 226.117C105.035 226.117 105.595 225.291 106.043 224.101L102.963 216.555H104.433L106.673 222.253L108.899 216.555H110.355L107.415 224.255C106.575 226.467 105.693 227.419 104.223 227.419ZM118.851 224.367C116.667 224.367 114.903 222.575 114.903 220.391C114.903 218.221 116.667 216.457 118.851 216.457C121.021 216.457 122.799 218.221 122.799 220.391C122.799 222.575 121.021 224.367 118.851 224.367ZM118.851 222.967C120.265 222.967 121.413 221.819 121.413 220.391C121.413 218.991 120.265 217.843 118.851 217.843C117.423 217.843 116.289 218.991 116.289 220.391C116.289 221.819 117.423 222.967 118.851 222.967ZM126 217.787V224.269L124.642 224.241V217.787H123.662V216.555H124.642V216.261C124.642 213.937 125.86 213.125 127.33 213.125C127.68 213.125 128.086 213.195 128.366 213.293L128.002 214.511C127.834 214.483 127.624 214.441 127.442 214.441C126.574 214.441 126 214.875 126 216.261V216.555H127.988V217.787H126ZM137.139 224.255H135.655L132.547 214.035H134.059L136.439 221.791L138.763 214.021H140.051L142.375 221.791L144.755 214.035H146.267L143.159 224.255H141.689L139.421 216.485L137.139 224.255ZM148.112 215.771C147.636 215.771 147.244 215.379 147.244 214.903C147.244 214.427 147.636 214.035 148.112 214.035C148.574 214.035 148.966 214.427 148.966 214.903C148.966 215.379 148.574 215.771 148.112 215.771ZM148.784 224.255H147.426V216.555H148.784V224.255ZM153.554 224.395C152.448 224.395 151.02 224.031 150.124 223.051L151.062 222.155C151.58 222.729 152.588 223.107 153.554 223.107C154.562 223.107 155.262 222.715 155.262 222.043C155.262 220.461 150.39 221.427 150.39 218.571C150.39 217.311 151.538 216.429 153.302 216.429C154.296 216.429 155.556 216.695 156.396 217.703L155.556 218.543C155.024 217.899 154.058 217.661 153.344 217.661C152.42 217.661 151.762 217.997 151.762 218.585C151.762 219.985 156.634 219.117 156.634 222.001C156.634 223.653 155.164 224.395 153.554 224.395ZM161.508 224.367C159.324 224.367 157.56 222.575 157.56 220.391C157.56 218.221 159.324 216.457 161.508 216.457C162.838 216.457 164.014 217.115 164.742 218.123L163.608 218.879C163.132 218.249 162.362 217.843 161.508 217.843C160.08 217.843 158.946 218.991 158.946 220.391C158.946 221.819 160.08 222.967 161.508 222.967C162.39 222.967 163.174 222.533 163.636 221.861L164.77 222.617C164.07 223.667 162.866 224.367 161.508 224.367ZM169.67 224.367C167.486 224.367 165.722 222.575 165.722 220.391C165.722 218.221 167.486 216.457 169.67 216.457C171.84 216.457 173.618 218.221 173.618 220.391C173.618 222.575 171.84 224.367 169.67 224.367ZM169.67 222.967C171.084 222.967 172.232 221.819 172.232 220.391C172.232 218.991 171.084 217.843 169.67 217.843C168.242 217.843 167.108 218.991 167.108 220.391C167.108 221.819 168.242 222.967 169.67 222.967ZM176.524 224.255H175.166V216.555H176.426L176.496 217.913C176.916 217.101 177.742 216.443 178.918 216.443C180.71 216.443 182.068 217.675 182.068 220.335V224.255H180.696V220.335C180.696 218.585 179.744 217.787 178.61 217.787C177.49 217.787 176.524 218.571 176.524 220.335V224.255ZM186.831 224.395C185.725 224.395 184.297 224.031 183.401 223.051L184.339 222.155C184.857 222.729 185.865 223.107 186.831 223.107C187.839 223.107 188.539 222.715 188.539 222.043C188.539 220.461 183.667 221.427 183.667 218.571C183.667 217.311 184.815 216.429 186.579 216.429C187.573 216.429 188.833 216.695 189.673 217.703L188.833 218.543C188.301 217.899 187.335 217.661 186.621 217.661C185.697 217.661 185.039 217.997 185.039 218.585C185.039 219.985 189.911 219.117 189.911 222.001C189.911 223.653 188.441 224.395 186.831 224.395ZM192.217 215.771C191.741 215.771 191.349 215.379 191.349 214.903C191.349 214.427 191.741 214.035 192.217 214.035C192.679 214.035 193.071 214.427 193.071 214.903C193.071 215.379 192.679 215.771 192.217 215.771ZM192.889 224.255H191.531V216.555H192.889V224.255ZM196.253 224.255H194.895V216.555H196.155L196.225 217.913C196.645 217.101 197.471 216.443 198.647 216.443C200.439 216.443 201.797 217.675 201.797 220.335V224.255H200.425V220.335C200.425 218.585 199.473 217.787 198.339 217.787C197.219 217.787 196.253 218.571 196.253 220.335V224.255ZM204.191 225.795H202.861C204.345 224.451 205.143 222.127 205.143 219.565C205.143 216.989 204.345 214.693 202.861 213.335H204.191C205.507 214.581 206.389 216.807 206.389 219.565C206.389 222.337 205.507 224.563 204.191 225.795Z" fill="black"/>
<path d="M11.02 255.255H0.4V253.275L5.8 248.175C6.72 247.335 7.44 246.495 7.44 245.515C7.44 244.355 6.6 243.615 5.54 243.615C4.54 243.615 3.84 244.315 3.52 245.015L0.54 243.995C1.12 241.935 3.16 240.375 5.52 240.375C8.38 240.375 10.68 242.335 10.68 245.535C10.68 247.375 9.36 248.915 8 250.215L5.62 252.235H11.02V255.255ZM17.5759 255.255H14.3359V243.675H12.3359V240.655H17.5759V255.255Z" fill="#569FD6"/>
<path d="M43.95 251.923C41.038 251.923 38.686 249.557 38.686 246.645C38.686 243.747 41.038 241.395 43.95 241.395C46.848 241.395 49.2 243.747 49.2 246.645C49.2 249.557 46.848 251.923 43.95 251.923ZM43.95 250.439C46.022 250.439 47.73 248.759 47.73 246.631C47.73 244.545 46.022 242.865 43.95 242.865C41.864 242.865 40.156 244.545 40.156 246.631C40.156 248.759 41.864 250.439 43.95 250.439ZM53.8289 251.881C52.4149 251.881 51.2389 251.027 51.2389 248.885V245.287H50.2029V244.055H51.2809L51.4489 241.535H52.5969V244.055H54.4449V245.287H52.5969V248.871C52.5969 249.977 53.1429 250.551 54.0109 250.551C54.2069 250.551 54.4169 250.523 54.5989 250.453L54.9489 251.671C54.6269 251.811 54.2349 251.881 53.8289 251.881ZM57.7566 251.755H56.3986V240.835H57.7566V245.385C58.1766 244.587 59.0026 243.943 60.1506 243.943C61.9426 243.943 63.3006 245.175 63.3006 247.835V251.755H61.9286V247.835C61.9286 246.085 60.9766 245.287 59.8426 245.287C58.7226 245.287 57.7566 246.071 57.7566 247.835V251.755ZM68.761 251.867C66.423 251.867 64.673 250.075 64.673 247.891C64.673 245.721 66.423 243.957 68.579 243.957C70.819 243.957 72.485 245.721 72.485 247.891C72.485 248.073 72.457 248.339 72.443 248.535H66.143C66.353 249.697 67.431 250.579 68.761 250.579C69.713 250.579 70.469 250.187 70.959 249.585L72.065 250.271C71.337 251.237 70.063 251.867 68.761 251.867ZM66.129 247.415H71.071C71.001 246.225 70.007 245.231 68.593 245.231C67.235 245.231 66.213 246.225 66.129 247.415ZM75.3797 251.755H74.0217V244.055H75.2817L75.3657 245.315C75.8137 244.489 76.6817 243.999 77.8157 244.013C78.0117 244.013 78.2077 244.027 78.3897 244.055L78.1097 245.371C78.0257 245.357 77.9277 245.343 77.8437 245.343C76.5417 245.343 75.3797 246.071 75.3797 248.199V251.755Z" fill="black"/>
<defs>
<clipPath id="clip0_3001_2112">
<rect width="89.3669" height="89.2551" fill="white" transform="translate(59)"/>
</clipPath>
</defs>
</svg>
