<svg width="314" height="272" viewBox="0 0 314 272" fill="none" xmlns="http://www.w3.org/2000/svg">
<g clip-path="url(#clip0_3009_1638)">
<path d="M78.5 52C71.928 52 59.5 50.8702 59.5 46.5943V19.4057C59.5 15.1298 71.928 14 78.5 14C85.0721 14 97.5 15.1298 97.5 19.4057V46.5943C97.5 50.8702 85.072 52 78.5 52ZM61.2491 46.7528L61.4664 47.0133C62.7926 48.6053 69.5256 50.2522 78.5 50.2522C87.4744 50.2522 94.2088 48.6052 95.5349 47.0133L95.7523 46.7528V40.1027L94.447 40.6552C89.213 42.8736 79.5814 42.9371 78.5 42.9371C77.4186 42.9371 67.7884 42.8736 62.5543 40.6552L61.2491 40.1027V46.7528ZM61.2491 37.6899L61.4664 37.9504C62.7926 39.5424 69.5256 41.1893 78.5 41.1893C87.4744 41.1893 94.2088 39.5423 95.5349 37.9504L95.7523 37.6899V31.0398L94.447 31.5923C89.213 33.8107 79.5814 33.8742 78.5 33.8742C77.4186 33.8742 67.7884 33.8107 62.5543 31.5923L61.2491 31.0398V37.6899ZM61.2491 28.627L61.4664 28.8882C62.7926 30.4795 69.5269 32.1257 78.5 32.1257C87.4744 32.1257 94.2088 30.4795 95.5349 28.8882L95.7523 28.627V21.9769L94.447 22.5294C89.2143 24.7472 79.5814 24.8107 78.5 24.8107C77.4186 24.8107 67.7871 24.7472 62.5543 22.5294L61.2491 21.9769V28.627ZM78.5 15.7478C70.014 15.7478 63.5532 17.2553 61.7819 18.6732L60.8668 19.4057L61.7819 20.1382C63.5545 21.556 70.0153 23.0629 78.5 23.0629C86.9834 23.0629 93.4455 21.556 95.2194 20.1388L96.1358 19.4057L95.2194 18.6725C93.4468 17.2547 86.9847 15.7478 78.5 15.7478Z" fill="black"/>
</g>
<path d="M43.4705 82H40.3345V71.78H43.4705C46.6485 71.78 48.8465 74.034 48.8465 76.876C48.8465 79.746 46.7325 82 43.4705 82ZM41.7765 73.194V80.572H43.4705C45.9065 80.572 47.3485 78.906 47.3485 76.862C47.3485 74.888 45.8225 73.194 43.4705 73.194H41.7765ZM53.8341 82.098C51.7621 82.098 50.0821 80.32 50.0821 78.15C50.0821 75.966 51.7621 74.188 53.8341 74.188C55.0941 74.188 56.2281 74.944 56.7041 75.924L56.7741 74.3H58.0341V82H56.7741L56.7041 80.39C56.2281 81.356 55.0941 82.098 53.8341 82.098ZM54.0581 80.74C55.5001 80.74 56.6621 79.578 56.6621 78.15C56.6621 76.708 55.5001 75.532 54.0581 75.532C52.6301 75.532 51.4681 76.708 51.4681 78.15C51.4681 79.578 52.6301 80.74 54.0581 80.74ZM62.9724 82.126C61.5584 82.126 60.3824 81.272 60.3824 79.13V75.532H59.3464V74.3H60.4244L60.5924 71.78H61.7404V74.3H63.5884V75.532H61.7404V79.116C61.7404 80.222 62.2864 80.796 63.1544 80.796C63.3504 80.796 63.5604 80.768 63.7424 80.698L64.0924 81.916C63.7704 82.056 63.3784 82.126 62.9724 82.126ZM68.4357 82.098C66.3637 82.098 64.6837 80.32 64.6837 78.15C64.6837 75.966 66.3637 74.188 68.4357 74.188C69.6957 74.188 70.8297 74.944 71.3057 75.924L71.3757 74.3H72.6357V82H71.3757L71.3057 80.39C70.8297 81.356 69.6957 82.098 68.4357 82.098ZM68.6597 80.74C70.1017 80.74 71.2637 79.578 71.2637 78.15C71.2637 76.708 70.1017 75.532 68.6597 75.532C67.2317 75.532 66.0697 76.708 66.0697 78.15C66.0697 79.578 67.2317 80.74 68.6597 80.74ZM78.82 82.098C77.56 82.098 76.426 81.356 75.964 80.39L75.894 82H74.634V71.08H75.992V75.882C76.454 74.916 77.574 74.188 78.82 74.188C80.892 74.188 82.572 75.966 82.572 78.15C82.572 80.32 80.892 82.098 78.82 82.098ZM78.61 80.74C80.038 80.74 81.2 79.578 81.2 78.15C81.2 76.708 80.038 75.532 78.61 75.532C77.154 75.532 75.992 76.708 75.992 78.15C75.992 79.578 77.154 80.74 78.61 80.74ZM87.4123 82.098C85.3403 82.098 83.6603 80.32 83.6603 78.15C83.6603 75.966 85.3403 74.188 87.4123 74.188C88.6723 74.188 89.8063 74.944 90.2823 75.924L90.3523 74.3H91.6123V82H90.3523L90.2823 80.39C89.8063 81.356 88.6723 82.098 87.4123 82.098ZM87.6363 80.74C89.0783 80.74 90.2403 79.578 90.2403 78.15C90.2403 76.708 89.0783 75.532 87.6363 75.532C86.2083 75.532 85.0463 76.708 85.0463 78.15C85.0463 79.578 86.2083 80.74 87.6363 80.74ZM94.9685 82H93.6105V74.3H94.8705L94.9405 75.658C95.3605 74.846 96.1865 74.188 97.3625 74.188C99.1545 74.188 100.513 75.42 100.513 78.08V82H99.1405V78.08C99.1405 76.33 98.1885 75.532 97.0545 75.532C95.9345 75.532 94.9685 76.316 94.9685 78.08V82ZM103.649 82H102.347V71.08H103.649V77.744L107.093 74.3H108.717L105.777 77.366L109.109 82H107.499L104.895 78.388L103.649 79.592V82ZM56.4259 102H54.9839V91.78H58.8619C60.9339 91.78 62.3059 93.222 62.3059 94.986C62.3059 96.764 60.9339 98.206 58.8619 98.206H56.4259V102ZM56.4259 93.194V96.792H58.8339C60.0659 96.792 60.8219 95.966 60.8219 94.986C60.8219 94.034 60.0659 93.194 58.8339 93.194H56.4259ZM65.1433 102H63.7853V94.3H65.0453L65.1293 95.56C65.5773 94.734 66.4453 94.244 67.5793 94.258C67.7753 94.258 67.9713 94.272 68.1533 94.3L67.8733 95.616C67.7893 95.602 67.6913 95.588 67.6073 95.588C66.3053 95.588 65.1433 96.316 65.1433 98.444V102ZM72.535 102.112C70.351 102.112 68.587 100.32 68.587 98.136C68.587 95.966 70.351 94.202 72.535 94.202C74.705 94.202 76.483 95.966 76.483 98.136C76.483 100.32 74.705 102.112 72.535 102.112ZM72.535 100.712C73.949 100.712 75.097 99.564 75.097 98.136C75.097 96.736 73.949 95.588 72.535 95.588C71.107 95.588 69.973 96.736 69.973 98.136C69.973 99.564 71.107 100.712 72.535 100.712ZM78.822 93.516C78.346 93.516 77.968 93.124 77.968 92.648C77.968 92.172 78.346 91.78 78.822 91.78C79.284 91.78 79.676 92.172 79.676 92.648C79.676 93.124 79.284 93.516 78.822 93.516ZM76.834 105.234C76.414 105.234 76.036 105.164 75.714 105.038L76.078 103.778C76.26 103.848 76.456 103.89 76.652 103.89C77.576 103.89 78.136 103.302 78.136 101.888V94.3H79.494V101.888C79.494 104.338 78.318 105.234 76.834 105.234ZM85.1301 102.112C82.7921 102.112 81.0421 100.32 81.0421 98.136C81.0421 95.966 82.7921 94.202 84.9481 94.202C87.1881 94.202 88.8541 95.966 88.8541 98.136C88.8541 98.318 88.8261 98.584 88.8121 98.78H82.5121C82.7221 99.942 83.8001 100.824 85.1301 100.824C86.0821 100.824 86.8381 100.432 87.3281 99.83L88.4341 100.516C87.7061 101.482 86.4321 102.112 85.1301 102.112ZM82.4981 97.66H87.4401C87.3701 96.47 86.3761 95.476 84.9621 95.476C83.6041 95.476 82.5821 96.47 82.4981 97.66ZM93.8768 102.112C91.6928 102.112 89.9288 100.32 89.9288 98.136C89.9288 95.966 91.6928 94.202 93.8768 94.202C95.2068 94.202 96.3828 94.86 97.1108 95.868L95.9768 96.624C95.5008 95.994 94.7308 95.588 93.8768 95.588C92.4488 95.588 91.3148 96.736 91.3148 98.136C91.3148 99.564 92.4488 100.712 93.8768 100.712C94.7588 100.712 95.5428 100.278 96.0048 99.606L97.1388 100.362C96.4388 101.412 95.2348 102.112 93.8768 102.112ZM101.602 102.126C100.188 102.126 99.0123 101.272 99.0123 99.13V95.532H97.9763V94.3H99.0543L99.2223 91.78H100.37V94.3H102.218V95.532H100.37V99.116C100.37 100.222 100.916 100.796 101.784 100.796C101.98 100.796 102.19 100.768 102.372 100.698L102.722 101.916C102.4 102.056 102.008 102.126 101.602 102.126Z" fill="black"/>
<g clip-path="url(#clip1_3009_1638)">
<path d="M78.5002 194C75.9994 194 74.404 192.778 71.5072 190.557C64.5687 185.239 56.2959 177.284 56.2959 169.585C56.2959 163.46 59.0119 158.686 63.5601 156.814C68.2317 154.893 73.7684 156.419 78.5002 160.891C83.2321 156.419 88.7674 154.894 93.4375 156.814C97.9871 158.685 100.703 163.459 100.703 169.585C100.703 177.283 92.4318 185.239 85.4932 190.557C82.595 192.778 80.9996 194 78.5002 194ZM67.7151 157.619C66.5014 157.614 65.2987 157.849 64.1756 158.309C60.253 159.922 57.9114 164.138 57.9114 169.585C57.9114 176.996 67.0466 185.102 72.4915 189.275C75.2763 191.41 76.5475 192.384 78.5002 192.384C80.4515 192.384 81.7227 191.41 84.509 189.275C89.9539 185.102 99.0876 176.995 99.0876 169.585C99.0876 164.138 96.7461 159.922 92.8234 158.308C88.5909 156.569 83.4516 158.166 79.0741 162.589C78.9196 162.736 78.7141 162.819 78.5004 162.819C78.2867 162.819 78.0811 162.737 77.9263 162.59C75.3155 159.645 71.643 157.858 67.7151 157.619Z" fill="black"/>
<path d="M80.4007 168.243V173.474H85.6307V177.277H80.4007V182.507H76.5978V177.277H71.3674V173.474H76.5978V168.243H80.4007ZM80.4007 166.627H76.5978C76.1692 166.627 75.758 166.798 75.4549 167.101C75.1518 167.404 74.9816 167.815 74.9816 168.243V171.858H71.3672C70.9386 171.858 70.5275 172.028 70.2244 172.331C69.9214 172.634 69.751 173.045 69.751 173.474V177.277C69.751 177.705 69.9214 178.116 70.2244 178.419C70.5275 178.722 70.9386 178.893 71.3672 178.893H74.9816V182.507C74.9816 182.936 75.1518 183.347 75.4549 183.65C75.758 183.953 76.1692 184.123 76.5978 184.123H80.4007C80.8293 184.123 81.2403 183.953 81.5434 183.65C81.8465 183.347 82.0169 182.936 82.0169 182.507V178.893H85.6307C86.0593 178.893 86.4704 178.722 86.7735 178.419C87.0766 178.116 87.2469 177.705 87.247 177.277V173.474C87.2469 173.045 87.0766 172.634 86.7735 172.331C86.4704 172.028 86.0593 171.858 85.6307 171.858H82.0169V168.243C82.0169 167.815 81.8465 167.404 81.5434 167.101C81.2403 166.798 80.8293 166.627 80.4007 166.627Z" fill="black"/>
</g>
<path d="M43.4705 224H40.3345V213.78H43.4705C46.6485 213.78 48.8465 216.034 48.8465 218.876C48.8465 221.746 46.7325 224 43.4705 224ZM41.7765 215.194V222.572H43.4705C45.9065 222.572 47.3485 220.906 47.3485 218.862C47.3485 216.888 45.8225 215.194 43.4705 215.194H41.7765ZM53.8341 224.098C51.7621 224.098 50.0821 222.32 50.0821 220.15C50.0821 217.966 51.7621 216.188 53.8341 216.188C55.0941 216.188 56.2281 216.944 56.7041 217.924L56.7741 216.3H58.0341V224H56.7741L56.7041 222.39C56.2281 223.356 55.0941 224.098 53.8341 224.098ZM54.0581 222.74C55.5001 222.74 56.6621 221.578 56.6621 220.15C56.6621 218.708 55.5001 217.532 54.0581 217.532C52.6301 217.532 51.4681 218.708 51.4681 220.15C51.4681 221.578 52.6301 222.74 54.0581 222.74ZM62.9724 224.126C61.5584 224.126 60.3824 223.272 60.3824 221.13V217.532H59.3464V216.3H60.4244L60.5924 213.78H61.7404V216.3H63.5884V217.532H61.7404V221.116C61.7404 222.222 62.2864 222.796 63.1544 222.796C63.3504 222.796 63.5604 222.768 63.7424 222.698L64.0924 223.916C63.7704 224.056 63.3784 224.126 62.9724 224.126ZM68.4357 224.098C66.3637 224.098 64.6837 222.32 64.6837 220.15C64.6837 217.966 66.3637 216.188 68.4357 216.188C69.6957 216.188 70.8297 216.944 71.3057 217.924L71.3757 216.3H72.6357V224H71.3757L71.3057 222.39C70.8297 223.356 69.6957 224.098 68.4357 224.098ZM68.6597 222.74C70.1017 222.74 71.2637 221.578 71.2637 220.15C71.2637 218.708 70.1017 217.532 68.6597 217.532C67.2317 217.532 66.0697 218.708 66.0697 220.15C66.0697 221.578 67.2317 222.74 68.6597 222.74ZM78.82 224.098C77.56 224.098 76.426 223.356 75.964 222.39L75.894 224H74.634V213.08H75.992V217.882C76.454 216.916 77.574 216.188 78.82 216.188C80.892 216.188 82.572 217.966 82.572 220.15C82.572 222.32 80.892 224.098 78.82 224.098ZM78.61 222.74C80.038 222.74 81.2 221.578 81.2 220.15C81.2 218.708 80.038 217.532 78.61 217.532C77.154 217.532 75.992 218.708 75.992 220.15C75.992 221.578 77.154 222.74 78.61 222.74ZM87.4123 224.098C85.3403 224.098 83.6603 222.32 83.6603 220.15C83.6603 217.966 85.3403 216.188 87.4123 216.188C88.6723 216.188 89.8063 216.944 90.2823 217.924L90.3523 216.3H91.6123V224H90.3523L90.2823 222.39C89.8063 223.356 88.6723 224.098 87.4123 224.098ZM87.6363 222.74C89.0783 222.74 90.2403 221.578 90.2403 220.15C90.2403 218.708 89.0783 217.532 87.6363 217.532C86.2083 217.532 85.0463 218.708 85.0463 220.15C85.0463 221.578 86.2083 222.74 87.6363 222.74ZM94.9685 224H93.6105V216.3H94.8705L94.9405 217.658C95.3605 216.846 96.1865 216.188 97.3625 216.188C99.1545 216.188 100.513 217.42 100.513 220.08V224H99.1405V220.08C99.1405 218.33 98.1885 217.532 97.0545 217.532C95.9345 217.532 94.9685 218.316 94.9685 220.08V224ZM103.649 224H102.347V213.08H103.649V219.744L107.093 216.3H108.717L105.777 219.366L109.109 224H107.499L104.895 220.388L103.649 221.592V224ZM56.4259 244H54.9839V233.78H58.8619C60.9339 233.78 62.3059 235.222 62.3059 236.986C62.3059 238.764 60.9339 240.206 58.8619 240.206H56.4259V244ZM56.4259 235.194V238.792H58.8339C60.0659 238.792 60.8219 237.966 60.8219 236.986C60.8219 236.034 60.0659 235.194 58.8339 235.194H56.4259ZM65.1433 244H63.7853V236.3H65.0453L65.1293 237.56C65.5773 236.734 66.4453 236.244 67.5793 236.258C67.7753 236.258 67.9713 236.272 68.1533 236.3L67.8733 237.616C67.7893 237.602 67.6913 237.588 67.6073 237.588C66.3053 237.588 65.1433 238.316 65.1433 240.444V244ZM72.535 244.112C70.351 244.112 68.587 242.32 68.587 240.136C68.587 237.966 70.351 236.202 72.535 236.202C74.705 236.202 76.483 237.966 76.483 240.136C76.483 242.32 74.705 244.112 72.535 244.112ZM72.535 242.712C73.949 242.712 75.097 241.564 75.097 240.136C75.097 238.736 73.949 237.588 72.535 237.588C71.107 237.588 69.973 238.736 69.973 240.136C69.973 241.564 71.107 242.712 72.535 242.712ZM78.822 235.516C78.346 235.516 77.968 235.124 77.968 234.648C77.968 234.172 78.346 233.78 78.822 233.78C79.284 233.78 79.676 234.172 79.676 234.648C79.676 235.124 79.284 235.516 78.822 235.516ZM76.834 247.234C76.414 247.234 76.036 247.164 75.714 247.038L76.078 245.778C76.26 245.848 76.456 245.89 76.652 245.89C77.576 245.89 78.136 245.302 78.136 243.888V236.3H79.494V243.888C79.494 246.338 78.318 247.234 76.834 247.234ZM85.1301 244.112C82.7921 244.112 81.0421 242.32 81.0421 240.136C81.0421 237.966 82.7921 236.202 84.9481 236.202C87.1881 236.202 88.8541 237.966 88.8541 240.136C88.8541 240.318 88.8261 240.584 88.8121 240.78H82.5121C82.7221 241.942 83.8001 242.824 85.1301 242.824C86.0821 242.824 86.8381 242.432 87.3281 241.83L88.4341 242.516C87.7061 243.482 86.4321 244.112 85.1301 244.112ZM82.4981 239.66H87.4401C87.3701 238.47 86.3761 237.476 84.9621 237.476C83.6041 237.476 82.5821 238.47 82.4981 239.66ZM93.8768 244.112C91.6928 244.112 89.9288 242.32 89.9288 240.136C89.9288 237.966 91.6928 236.202 93.8768 236.202C95.2068 236.202 96.3828 236.86 97.1108 237.868L95.9768 238.624C95.5008 237.994 94.7308 237.588 93.8768 237.588C92.4488 237.588 91.3148 238.736 91.3148 240.136C91.3148 241.564 92.4488 242.712 93.8768 242.712C94.7588 242.712 95.5428 242.278 96.0048 241.606L97.1388 242.362C96.4388 243.412 95.2348 244.112 93.8768 244.112ZM101.602 244.126C100.188 244.126 99.0123 243.272 99.0123 241.13V237.532H97.9763V236.3H99.0543L99.2223 233.78H100.37V236.3H102.218V237.532H100.37V241.116C100.37 242.222 100.916 242.796 101.784 242.796C101.98 242.796 102.19 242.768 102.372 242.698L102.722 243.916C102.4 244.056 102.008 244.126 101.602 244.126Z" fill="black"/>
<g clip-path="url(#clip2_3009_1638)">
<path d="M234.814 53C233.308 52.9747 231.832 52.574 230.52 51.8342L226.699 50.2891C226.7 50.4718 226.631 50.6481 226.506 50.7812C226.381 50.9142 226.209 50.9938 226.026 51.0034L215.728 51.5421C215.634 51.5473 215.54 51.5337 215.452 51.502C215.363 51.4704 215.282 51.4214 215.213 51.3579C215.144 51.2945 215.088 51.218 215.048 51.1329C215.009 51.0478 214.986 50.9557 214.982 50.8619L214.526 39.3597C214.519 39.1732 214.585 38.9913 214.711 38.8535C214.837 38.7156 215.012 38.6328 215.198 38.623L225.495 38.0814C225.589 38.0756 225.683 38.0889 225.772 38.1206C225.86 38.1523 225.941 38.2016 226.01 38.2656C226.08 38.329 226.135 38.4055 226.175 38.4906C226.215 38.5757 226.237 38.6678 226.241 38.7616L226.248 38.9325L230.621 38.7795C230.662 38.7776 230.702 38.7797 230.743 38.7858C232.758 39.1784 234.684 39.9397 236.423 41.0313L240.726 40.9043C241.136 40.897 241.542 40.9899 241.908 41.1749C242.275 41.36 242.591 41.6315 242.829 41.9661L247.085 39.7443C247.71 39.436 248.423 39.3545 249.101 39.5138C249.779 39.673 250.381 40.0632 250.803 40.6173C251.141 41.1749 251.274 41.8324 251.181 42.4775C251.087 43.1225 250.773 43.7151 250.291 44.1538C246.932 46.964 243.3 49.429 239.447 51.5116C238.087 52.4612 236.473 52.9798 234.814 53ZM226.637 48.7337L231.121 50.5513C232.274 51.2635 233.612 51.6186 234.967 51.5718C236.321 51.5249 237.632 51.0782 238.733 50.288C242.495 48.2535 246.046 45.8499 249.332 43.1127C249.566 42.9021 249.721 42.6191 249.774 42.3092C249.827 41.9994 249.774 41.6808 249.623 41.4048C249.387 41.1298 249.063 40.9437 248.707 40.8769C248.35 40.8102 247.981 40.8668 247.661 41.0376L243.084 43.4332C242.929 43.9861 242.585 44.4674 242.113 44.7935C241.116 45.5892 239.118 45.9264 236.21 45.7745C236.022 45.7649 235.846 45.681 235.72 45.5414C235.594 45.4017 235.528 45.2177 235.537 45.0297C235.56 44.8468 235.648 44.6782 235.784 44.5548C235.921 44.4313 236.098 44.3614 236.282 44.3576C238.696 44.4788 240.551 44.2242 241.246 43.6694C241.472 43.5014 241.803 43.1936 241.696 42.8599C241.607 42.684 241.468 42.5386 241.296 42.4428C241.124 42.347 240.928 42.3052 240.731 42.3229L236.265 42.4557C236.133 42.4621 236.003 42.4294 235.891 42.3616C234.273 41.331 232.484 40.5987 230.607 40.1998L226.305 40.35L226.637 48.7337ZM215.972 40.0029L216.371 50.0876L225.253 49.6228L224.852 39.5358L215.972 40.0029ZM255.36 36.9872H222.191C221.896 36.9868 221.613 36.8692 221.404 36.6602C221.196 36.4513 221.078 36.1681 221.078 35.8728V34.1072C221.078 33.8118 221.196 33.5287 221.404 33.3197C221.613 33.1108 221.896 32.9932 222.191 32.9928H222.73C222.523 29.4636 223.676 25.9893 225.95 23.2828C228.727 19.9501 232.69 17.8263 237.003 17.3593V16.7496H236.407C236.108 16.7491 235.821 16.6302 235.61 16.4188C235.399 16.2074 235.28 15.9208 235.28 15.6219V14.1271C235.28 13.8283 235.399 13.5418 235.61 13.3306C235.822 13.1193 236.108 13.0004 236.407 13H241.211C241.509 13.0004 241.796 13.1193 242.007 13.3306C242.218 13.5418 242.337 13.8283 242.338 14.1271V15.6219C242.337 15.9208 242.219 16.2073 242.007 16.4187C241.796 16.6301 241.51 16.7491 241.211 16.7496H240.651V17.3732C244.955 17.8697 248.899 20.0137 251.657 23.3555C253.901 26.048 255.035 29.4939 254.829 32.9928H255.36C255.656 32.9932 255.939 33.1107 256.148 33.3196C256.357 33.5285 256.474 33.8117 256.475 34.1072V35.8728C256.474 36.1683 256.357 36.4515 256.148 36.6604C255.939 36.8693 255.656 36.9868 255.36 36.9872ZM222.496 35.568H255.057V34.412H222.496V35.568ZM224.151 32.9928H253.406C253.615 29.821 252.594 26.6907 250.556 24.2511C249.241 22.6596 247.617 21.3499 245.784 20.4001C243.95 19.4503 241.944 18.8799 239.885 18.7231C239.707 18.7088 239.541 18.6281 239.42 18.4971C239.3 18.366 239.232 18.1941 239.233 18.0158V16.04C239.233 15.9468 239.251 15.8546 239.286 15.7685C239.322 15.6824 239.374 15.6042 239.44 15.5383C239.506 15.4724 239.584 15.4202 239.67 15.3845C239.756 15.3488 239.848 15.3304 239.942 15.3304H240.92V14.4192H236.698V15.3304H237.712C237.805 15.3304 237.897 15.3488 237.983 15.3845C238.069 15.4202 238.147 15.4724 238.213 15.5383C238.279 15.6042 238.331 15.6824 238.367 15.7685C238.403 15.8546 238.421 15.9468 238.421 16.04V18.006C238.421 18.1852 238.353 18.3577 238.231 18.4891C238.109 18.6204 237.942 18.7007 237.764 18.7139C235.701 18.8557 233.688 19.4134 231.846 20.3534C230.005 21.2934 228.372 22.5962 227.047 24.1835C224.982 26.6366 223.944 29.7928 224.151 32.9928Z" fill="black"/>
</g>
<path d="M189.657 82.154C188.341 82.154 187.053 81.706 185.975 80.544L186.885 79.62C187.613 80.348 188.523 80.81 189.671 80.824C190.903 80.824 191.771 80.236 191.771 79.214C191.771 76.736 186.171 77.842 186.171 74.286C186.171 72.774 187.403 71.612 189.503 71.612C190.609 71.612 192.009 72.06 192.905 73.264L191.883 74.062C191.379 73.362 190.455 72.956 189.573 72.942C188.355 72.928 187.571 73.502 187.571 74.272C187.571 76.512 193.185 75.448 193.185 79.144C193.185 80.992 191.715 82.168 189.657 82.154ZM197.769 82.126C196.355 82.126 195.179 81.272 195.179 79.13V75.532H194.143V74.3H195.221L195.389 71.78H196.537V74.3H198.385V75.532H196.537V79.116C196.537 80.222 197.083 80.796 197.951 80.796C198.147 80.796 198.357 80.768 198.539 80.698L198.889 81.916C198.567 82.056 198.175 82.126 197.769 82.126ZM203.212 82.112C201.42 82.112 200.062 80.866 200.062 78.206V74.3H201.434V78.206C201.434 79.97 202.386 80.754 203.52 80.754C204.64 80.754 205.606 79.97 205.606 78.206V74.3H206.964V82H205.704L205.634 80.628C205.214 81.44 204.374 82.112 203.212 82.112ZM212.256 82.098C210.184 82.098 208.504 80.32 208.504 78.15C208.504 75.966 210.184 74.188 212.256 74.188C213.502 74.188 214.622 74.916 215.084 75.882V71.08H216.456V82H215.196L215.126 80.39C214.65 81.356 213.516 82.098 212.256 82.098ZM212.48 80.74C213.922 80.74 215.084 79.578 215.084 78.15C215.084 76.708 213.922 75.532 212.48 75.532C211.052 75.532 209.89 76.708 209.89 78.15C209.89 79.578 211.052 80.74 212.48 80.74ZM219.14 73.516C218.664 73.516 218.272 73.124 218.272 72.648C218.272 72.172 218.664 71.78 219.14 71.78C219.602 71.78 219.994 72.172 219.994 72.648C219.994 73.124 219.602 73.516 219.14 73.516ZM219.812 82H218.454V74.3H219.812V82ZM225.444 82.112C223.106 82.112 221.356 80.32 221.356 78.136C221.356 75.966 223.106 74.202 225.262 74.202C227.502 74.202 229.168 75.966 229.168 78.136C229.168 78.318 229.14 78.584 229.126 78.78H222.826C223.036 79.942 224.114 80.824 225.444 80.824C226.396 80.824 227.152 80.432 227.642 79.83L228.748 80.516C228.02 81.482 226.746 82.112 225.444 82.112ZM222.812 77.66H227.754C227.684 76.47 226.69 75.476 225.276 75.476C223.918 75.476 222.896 76.47 222.812 77.66ZM233.469 82.14C232.363 82.14 230.935 81.776 230.039 80.796L230.977 79.9C231.495 80.474 232.503 80.852 233.469 80.852C234.477 80.852 235.177 80.46 235.177 79.788C235.177 78.206 230.305 79.172 230.305 76.316C230.305 75.056 231.453 74.174 233.217 74.174C234.211 74.174 235.471 74.44 236.311 75.448L235.471 76.288C234.939 75.644 233.973 75.406 233.259 75.406C232.335 75.406 231.677 75.742 231.677 76.33C231.677 77.73 236.549 76.862 236.549 79.746C236.549 81.398 235.079 82.14 233.469 82.14ZM245.483 82.112C243.299 82.112 241.535 80.32 241.535 78.136C241.535 75.966 243.299 74.202 245.483 74.202C247.653 74.202 249.431 75.966 249.431 78.136C249.431 80.32 247.653 82.112 245.483 82.112ZM245.483 80.712C246.897 80.712 248.045 79.564 248.045 78.136C248.045 76.736 246.897 75.588 245.483 75.588C244.055 75.588 242.921 76.736 242.921 78.136C242.921 79.564 244.055 80.712 245.483 80.712ZM252.338 82H250.98V74.3H252.24L252.31 75.658C252.73 74.846 253.556 74.188 254.732 74.188C256.524 74.188 257.882 75.42 257.882 78.08V82H256.51V78.08C256.51 76.33 255.558 75.532 254.424 75.532C253.304 75.532 252.338 76.316 252.338 78.08V82ZM266.484 82.126C265.07 82.126 263.894 81.272 263.894 79.13V75.532H262.858V74.3H263.936L264.104 71.78H265.252V74.3H267.1V75.532H265.252V79.116C265.252 80.222 265.798 80.796 266.666 80.796C266.862 80.796 267.072 80.768 267.254 80.698L267.604 81.916C267.282 82.056 266.89 82.126 266.484 82.126ZM270.412 82H269.054V71.08H270.412V75.63C270.832 74.832 271.658 74.188 272.806 74.188C274.598 74.188 275.956 75.42 275.956 78.08V82H274.584V78.08C274.584 76.33 273.632 75.532 272.498 75.532C271.378 75.532 270.412 76.316 270.412 78.08V82ZM281.416 82.112C279.078 82.112 277.328 80.32 277.328 78.136C277.328 75.966 279.078 74.202 281.234 74.202C283.474 74.202 285.14 75.966 285.14 78.136C285.14 78.318 285.112 78.584 285.098 78.78H278.798C279.008 79.942 280.086 80.824 281.416 80.824C282.368 80.824 283.124 80.432 283.614 79.83L284.72 80.516C283.992 81.482 282.718 82.112 281.416 82.112ZM278.784 77.66H283.726C283.656 76.47 282.662 75.476 281.248 75.476C279.89 75.476 278.868 76.47 278.784 77.66ZM199.61 93.516C199.134 93.516 198.742 93.124 198.742 92.648C198.742 92.172 199.134 91.78 199.61 91.78C200.072 91.78 200.464 92.172 200.464 92.648C200.464 93.124 200.072 93.516 199.61 93.516ZM200.282 102H198.924V94.3H200.282V102ZM203.645 102H202.287V94.3H203.547L203.617 95.574C204.009 94.678 204.877 94.188 205.717 94.188C206.949 94.188 207.747 94.902 208.069 95.826C208.391 94.916 209.189 94.188 210.309 94.188C211.947 94.188 213.165 95.238 213.165 97.912V102H211.793V97.912C211.793 96.148 211.009 95.532 210.099 95.532C209.245 95.532 208.405 96.148 208.405 97.912V102H207.033V97.912C207.033 96.148 206.249 95.532 205.339 95.532C204.429 95.532 203.645 96.316 203.645 98.08V102ZM216.374 105.08H215.016V94.3H216.276L216.346 95.896C216.808 94.944 217.942 94.202 219.202 94.202C221.274 94.202 222.954 95.966 222.954 98.136C222.954 100.32 221.274 102.112 219.202 102.112C217.956 102.112 216.836 101.37 216.374 100.418V105.08ZM218.992 100.754C220.42 100.754 221.582 99.578 221.582 98.136C221.582 96.708 220.42 95.546 218.992 95.546C217.536 95.546 216.374 96.708 216.374 98.136C216.374 99.578 217.536 100.754 218.992 100.754ZM227.794 102.098C225.722 102.098 224.042 100.32 224.042 98.15C224.042 95.966 225.722 94.188 227.794 94.188C229.054 94.188 230.188 94.944 230.664 95.924L230.734 94.3H231.994V102H230.734L230.664 100.39C230.188 101.356 229.054 102.098 227.794 102.098ZM228.018 100.74C229.46 100.74 230.622 99.578 230.622 98.15C230.622 96.708 229.46 95.532 228.018 95.532C226.59 95.532 225.428 96.708 225.428 98.15C225.428 99.578 226.59 100.74 228.018 100.74ZM237.478 102.112C235.294 102.112 233.53 100.32 233.53 98.136C233.53 95.966 235.294 94.202 237.478 94.202C238.808 94.202 239.984 94.86 240.712 95.868L239.578 96.624C239.102 95.994 238.332 95.588 237.478 95.588C236.05 95.588 234.916 96.736 234.916 98.136C234.916 99.564 236.05 100.712 237.478 100.712C238.36 100.712 239.144 100.278 239.606 99.606L240.74 100.362C240.04 101.412 238.836 102.112 237.478 102.112ZM245.204 102.126C243.79 102.126 242.614 101.272 242.614 99.13V95.532H241.578V94.3H242.656L242.824 91.78H243.972V94.3H245.82V95.532H243.972V99.116C243.972 100.222 244.518 100.796 245.386 100.796C245.582 100.796 245.792 100.768 245.974 100.698L246.324 101.916C246.002 102.056 245.61 102.126 245.204 102.126ZM255.088 102.112C252.904 102.112 251.14 100.32 251.14 98.136C251.14 95.966 252.904 94.202 255.088 94.202C257.258 94.202 259.036 95.966 259.036 98.136C259.036 100.32 257.258 102.112 255.088 102.112ZM255.088 100.712C256.502 100.712 257.65 99.564 257.65 98.136C257.65 96.736 256.502 95.588 255.088 95.588C253.66 95.588 252.526 96.736 252.526 98.136C252.526 99.564 253.66 100.712 255.088 100.712ZM262.236 95.532V102.014L260.878 101.986V95.532H259.898V94.3H260.878V94.006C260.878 91.682 262.096 90.87 263.566 90.87C263.916 90.87 264.322 90.94 264.602 91.038L264.238 92.256C264.07 92.228 263.86 92.186 263.678 92.186C262.81 92.186 262.236 92.62 262.236 94.006V94.3H264.224V95.532H262.236ZM191.006 125.08H189.648V114.3H190.908L190.978 115.896C191.44 114.944 192.574 114.202 193.834 114.202C195.906 114.202 197.586 115.966 197.586 118.136C197.586 120.32 195.906 122.112 193.834 122.112C192.588 122.112 191.468 121.37 191.006 120.418V125.08ZM193.624 120.754C195.052 120.754 196.214 119.578 196.214 118.136C196.214 116.708 195.052 115.546 193.624 115.546C192.168 115.546 191.006 116.708 191.006 118.136C191.006 119.578 192.168 120.754 193.624 120.754ZM200.398 122H199.04V111.08H200.398V122ZM205.694 122.098C203.622 122.098 201.942 120.32 201.942 118.15C201.942 115.966 203.622 114.188 205.694 114.188C206.954 114.188 208.088 114.944 208.564 115.924L208.634 114.3H209.894V122H208.634L208.564 120.39C208.088 121.356 206.954 122.098 205.694 122.098ZM205.918 120.74C207.36 120.74 208.522 119.578 208.522 118.15C208.522 116.708 207.36 115.532 205.918 115.532C204.49 115.532 203.328 116.708 203.328 118.15C203.328 119.578 204.49 120.74 205.918 120.74ZM214.656 122.14C213.55 122.14 212.122 121.776 211.226 120.796L212.164 119.9C212.682 120.474 213.69 120.852 214.656 120.852C215.664 120.852 216.364 120.46 216.364 119.788C216.364 118.206 211.492 119.172 211.492 116.316C211.492 115.056 212.64 114.174 214.404 114.174C215.398 114.174 216.658 114.44 217.498 115.448L216.658 116.288C216.126 115.644 215.16 115.406 214.446 115.406C213.522 115.406 212.864 115.742 212.864 116.33C212.864 117.73 217.736 116.862 217.736 119.746C217.736 121.398 216.266 122.14 214.656 122.14ZM222.297 122.126C220.883 122.126 219.707 121.272 219.707 119.13V115.532H218.671V114.3H219.749L219.917 111.78H221.065V114.3H222.913V115.532H221.065V119.116C221.065 120.222 221.611 120.796 222.479 120.796C222.675 120.796 222.885 120.768 223.067 120.698L223.417 121.916C223.095 122.056 222.703 122.126 222.297 122.126ZM225.552 113.516C225.076 113.516 224.684 113.124 224.684 112.648C224.684 112.172 225.076 111.78 225.552 111.78C226.014 111.78 226.406 112.172 226.406 112.648C226.406 113.124 226.014 113.516 225.552 113.516ZM226.224 122H224.866V114.3H226.224V122ZM231.716 122.112C229.532 122.112 227.768 120.32 227.768 118.136C227.768 115.966 229.532 114.202 231.716 114.202C233.046 114.202 234.222 114.86 234.95 115.868L233.816 116.624C233.34 115.994 232.57 115.588 231.716 115.588C230.288 115.588 229.154 116.736 229.154 118.136C229.154 119.564 230.288 120.712 231.716 120.712C232.598 120.712 233.382 120.278 233.844 119.606L234.978 120.362C234.278 121.412 233.074 122.112 231.716 122.112ZM243.619 122H242.261L239.573 114.3H241.029L242.947 119.9L244.809 114.3H246.195L248.071 119.9L249.989 114.3H251.445L248.743 122H247.399L245.509 116.47L243.619 122ZM255.705 122.098C253.633 122.098 251.953 120.32 251.953 118.15C251.953 115.966 253.633 114.188 255.705 114.188C256.965 114.188 258.099 114.944 258.575 115.924L258.645 114.3H259.905V122H258.645L258.575 120.39C258.099 121.356 256.965 122.098 255.705 122.098ZM255.929 120.74C257.371 120.74 258.533 119.578 258.533 118.15C258.533 116.708 257.371 115.532 255.929 115.532C254.501 115.532 253.339 116.708 253.339 118.15C253.339 119.578 254.501 120.74 255.929 120.74ZM264.668 122.14C263.562 122.14 262.134 121.776 261.238 120.796L262.176 119.9C262.694 120.474 263.702 120.852 264.668 120.852C265.676 120.852 266.376 120.46 266.376 119.788C266.376 118.206 261.504 119.172 261.504 116.316C261.504 115.056 262.652 114.174 264.416 114.174C265.41 114.174 266.67 114.44 267.51 115.448L266.67 116.288C266.138 115.644 265.172 115.406 264.458 115.406C263.534 115.406 262.876 115.742 262.876 116.33C262.876 117.73 267.748 116.862 267.748 119.746C267.748 121.398 266.278 122.14 264.668 122.14ZM272.308 122.126C270.894 122.126 269.718 121.272 269.718 119.13V115.532H268.682V114.3H269.76L269.928 111.78H271.076V114.3H272.924V115.532H271.076V119.116C271.076 120.222 271.622 120.796 272.49 120.796C272.686 120.796 272.896 120.768 273.078 120.698L273.428 121.916C273.106 122.056 272.714 122.126 272.308 122.126ZM278.108 122.112C275.77 122.112 274.02 120.32 274.02 118.136C274.02 115.966 275.77 114.202 277.926 114.202C280.166 114.202 281.832 115.966 281.832 118.136C281.832 118.318 281.804 118.584 281.79 118.78H275.49C275.7 119.942 276.778 120.824 278.108 120.824C279.06 120.824 279.816 120.432 280.306 119.83L281.412 120.516C280.684 121.482 279.41 122.112 278.108 122.112ZM275.476 117.66H280.418C280.348 116.47 279.354 115.476 277.94 115.476C276.582 115.476 275.56 116.47 275.476 117.66Z" fill="black"/>
<g clip-path="url(#clip3_3009_1638)">
<path d="M235.504 194C231.913 194.005 228.396 192.987 225.363 191.065L218.708 193.191C218.572 193.235 218.426 193.24 218.287 193.205C218.148 193.171 218.021 193.099 217.921 192.998C217.82 192.896 217.75 192.768 217.718 192.628C217.685 192.489 217.692 192.343 217.738 192.208L219.884 185.809C217.671 182.64 216.489 178.865 216.5 175C216.505 169.963 218.507 165.134 222.068 161.572C225.629 158.011 230.457 156.007 235.493 156H235.504C240.543 156 245.375 158.002 248.939 161.565C252.502 165.128 254.504 169.961 254.504 175C254.504 180.039 252.502 184.872 248.939 188.435C245.375 191.998 240.543 194 235.504 194ZM225.477 189.442C225.628 189.442 225.777 189.487 225.904 189.57C228.175 191.067 230.765 192.011 233.466 192.329C236.168 192.646 238.906 192.328 241.462 191.399C244.019 190.47 246.322 188.956 248.19 186.979C250.057 185.001 251.437 182.614 252.218 180.009C252.999 177.403 253.16 174.652 252.688 171.973C252.217 169.294 251.126 166.763 249.502 164.58C247.878 162.398 245.767 160.626 243.336 159.405C240.906 158.184 238.224 157.548 235.504 157.548H235.493C230.867 157.554 226.432 159.395 223.161 162.666C219.891 165.938 218.051 170.373 218.047 175C218.036 178.675 219.2 182.258 221.369 185.226C221.442 185.326 221.49 185.442 221.509 185.564C221.527 185.686 221.517 185.811 221.478 185.928L219.692 191.252L225.241 189.478C225.317 189.454 225.397 189.442 225.477 189.442ZM241.482 185.978C239.523 185.822 237.612 185.295 235.85 184.425C231.224 182.508 224.136 175.373 224.136 170.199C224.136 167.379 225.857 164.335 228.638 164.335C229.885 164.335 230.562 164.397 231.119 165.734L231.584 166.86C232.064 168.023 232.651 169.45 232.743 169.643C233.379 170.971 232.492 171.911 231.845 172.597C231.677 172.776 231.501 172.961 231.341 173.16C231.271 173.235 231.208 173.315 231.153 173.402C231.937 174.694 232.893 175.873 233.995 176.907C235.128 177.949 236.444 178.773 237.876 179.336L238.053 179.407C238.118 179.443 238.192 179.46 238.266 179.457C238.34 179.454 238.413 179.431 238.475 179.39C238.886 178.906 239.27 178.4 239.627 177.874L239.835 177.582C240.063 177.225 240.411 176.961 240.816 176.839C241.222 176.716 241.658 176.742 242.045 176.912C242.068 176.92 246.694 178.902 247.091 179.6C247.366 180.655 247.277 181.772 246.838 182.769C246.431 183.566 245.845 184.257 245.126 184.79C244.408 185.323 243.576 185.682 242.695 185.84C242.297 185.93 241.891 185.976 241.482 185.978ZM228.638 165.883C226.711 165.883 225.683 168.389 225.683 170.199C225.683 174.415 231.845 181.09 236.442 182.996C240.574 184.707 241.657 184.479 242.372 184.327C242.991 184.213 243.579 183.969 244.097 183.611C244.615 183.254 245.052 182.791 245.379 182.253C245.597 181.665 245.712 181.045 245.719 180.418C244.921 179.929 241.897 178.508 241.514 178.366C241.276 178.277 241.217 178.308 241.097 178.478L240.888 178.772C240.493 179.353 240.065 179.912 239.607 180.445C239.332 180.722 238.979 180.908 238.595 180.978C238.211 181.048 237.815 180.999 237.46 180.837L237.296 180.77C235.699 180.138 234.231 179.221 232.964 178.062C231.742 176.938 230.695 175.637 229.857 174.204C229.663 173.887 229.586 173.512 229.637 173.144C229.688 172.776 229.865 172.438 230.138 172.185C230.322 171.958 230.523 171.743 230.719 171.535C231.404 170.809 231.497 170.626 231.346 170.309C231.25 170.109 230.645 168.645 230.153 167.45L229.689 166.329C229.645 166.185 229.574 166.05 229.479 165.933C229.202 165.884 228.919 165.867 228.638 165.883Z" fill="black"/>
</g>
<path d="M189.657 224.154C188.341 224.154 187.053 223.706 185.975 222.544L186.885 221.62C187.613 222.348 188.523 222.81 189.671 222.824C190.903 222.824 191.771 222.236 191.771 221.214C191.771 218.736 186.171 219.842 186.171 216.286C186.171 214.774 187.403 213.612 189.503 213.612C190.609 213.612 192.009 214.06 192.905 215.264L191.883 216.062C191.379 215.362 190.455 214.956 189.573 214.942C188.355 214.928 187.571 215.502 187.571 216.272C187.571 218.512 193.185 217.448 193.185 221.144C193.185 222.992 191.715 224.168 189.657 224.154ZM197.769 224.126C196.355 224.126 195.179 223.272 195.179 221.13V217.532H194.143V216.3H195.221L195.389 213.78H196.537V216.3H198.385V217.532H196.537V221.116C196.537 222.222 197.083 222.796 197.951 222.796C198.147 222.796 198.357 222.768 198.539 222.698L198.889 223.916C198.567 224.056 198.175 224.126 197.769 224.126ZM203.212 224.112C201.42 224.112 200.062 222.866 200.062 220.206V216.3H201.434V220.206C201.434 221.97 202.386 222.754 203.52 222.754C204.64 222.754 205.606 221.97 205.606 220.206V216.3H206.964V224H205.704L205.634 222.628C205.214 223.44 204.374 224.112 203.212 224.112ZM212.256 224.098C210.184 224.098 208.504 222.32 208.504 220.15C208.504 217.966 210.184 216.188 212.256 216.188C213.502 216.188 214.622 216.916 215.084 217.882V213.08H216.456V224H215.196L215.126 222.39C214.65 223.356 213.516 224.098 212.256 224.098ZM212.48 222.74C213.922 222.74 215.084 221.578 215.084 220.15C215.084 218.708 213.922 217.532 212.48 217.532C211.052 217.532 209.89 218.708 209.89 220.15C209.89 221.578 211.052 222.74 212.48 222.74ZM219.14 215.516C218.664 215.516 218.272 215.124 218.272 214.648C218.272 214.172 218.664 213.78 219.14 213.78C219.602 213.78 219.994 214.172 219.994 214.648C219.994 215.124 219.602 215.516 219.14 215.516ZM219.812 224H218.454V216.3H219.812V224ZM225.444 224.112C223.106 224.112 221.356 222.32 221.356 220.136C221.356 217.966 223.106 216.202 225.262 216.202C227.502 216.202 229.168 217.966 229.168 220.136C229.168 220.318 229.14 220.584 229.126 220.78H222.826C223.036 221.942 224.114 222.824 225.444 222.824C226.396 222.824 227.152 222.432 227.642 221.83L228.748 222.516C228.02 223.482 226.746 224.112 225.444 224.112ZM222.812 219.66H227.754C227.684 218.47 226.69 217.476 225.276 217.476C223.918 217.476 222.896 218.47 222.812 219.66ZM233.469 224.14C232.363 224.14 230.935 223.776 230.039 222.796L230.977 221.9C231.495 222.474 232.503 222.852 233.469 222.852C234.477 222.852 235.177 222.46 235.177 221.788C235.177 220.206 230.305 221.172 230.305 218.316C230.305 217.056 231.453 216.174 233.217 216.174C234.211 216.174 235.471 216.44 236.311 217.448L235.471 218.288C234.939 217.644 233.973 217.406 233.259 217.406C232.335 217.406 231.677 217.742 231.677 218.33C231.677 219.73 236.549 218.862 236.549 221.746C236.549 223.398 235.079 224.14 233.469 224.14ZM245.483 224.112C243.299 224.112 241.535 222.32 241.535 220.136C241.535 217.966 243.299 216.202 245.483 216.202C247.653 216.202 249.431 217.966 249.431 220.136C249.431 222.32 247.653 224.112 245.483 224.112ZM245.483 222.712C246.897 222.712 248.045 221.564 248.045 220.136C248.045 218.736 246.897 217.588 245.483 217.588C244.055 217.588 242.921 218.736 242.921 220.136C242.921 221.564 244.055 222.712 245.483 222.712ZM252.338 224H250.98V216.3H252.24L252.31 217.658C252.73 216.846 253.556 216.188 254.732 216.188C256.524 216.188 257.882 217.42 257.882 220.08V224H256.51V220.08C256.51 218.33 255.558 217.532 254.424 217.532C253.304 217.532 252.338 218.316 252.338 220.08V224ZM266.484 224.126C265.07 224.126 263.894 223.272 263.894 221.13V217.532H262.858V216.3H263.936L264.104 213.78H265.252V216.3H267.1V217.532H265.252V221.116C265.252 222.222 265.798 222.796 266.666 222.796C266.862 222.796 267.072 222.768 267.254 222.698L267.604 223.916C267.282 224.056 266.89 224.126 266.484 224.126ZM270.412 224H269.054V213.08H270.412V217.63C270.832 216.832 271.658 216.188 272.806 216.188C274.598 216.188 275.956 217.42 275.956 220.08V224H274.584V220.08C274.584 218.33 273.632 217.532 272.498 217.532C271.378 217.532 270.412 218.316 270.412 220.08V224ZM281.416 224.112C279.078 224.112 277.328 222.32 277.328 220.136C277.328 217.966 279.078 216.202 281.234 216.202C283.474 216.202 285.14 217.966 285.14 220.136C285.14 220.318 285.112 220.584 285.098 220.78H278.798C279.008 221.942 280.086 222.824 281.416 222.824C282.368 222.824 283.124 222.432 283.614 221.83L284.72 222.516C283.992 223.482 282.718 224.112 281.416 224.112ZM278.784 219.66H283.726C283.656 218.47 282.662 217.476 281.248 217.476C279.89 217.476 278.868 218.47 278.784 219.66ZM199.61 235.516C199.134 235.516 198.742 235.124 198.742 234.648C198.742 234.172 199.134 233.78 199.61 233.78C200.072 233.78 200.464 234.172 200.464 234.648C200.464 235.124 200.072 235.516 199.61 235.516ZM200.282 244H198.924V236.3H200.282V244ZM203.645 244H202.287V236.3H203.547L203.617 237.574C204.009 236.678 204.877 236.188 205.717 236.188C206.949 236.188 207.747 236.902 208.069 237.826C208.391 236.916 209.189 236.188 210.309 236.188C211.947 236.188 213.165 237.238 213.165 239.912V244H211.793V239.912C211.793 238.148 211.009 237.532 210.099 237.532C209.245 237.532 208.405 238.148 208.405 239.912V244H207.033V239.912C207.033 238.148 206.249 237.532 205.339 237.532C204.429 237.532 203.645 238.316 203.645 240.08V244ZM216.374 247.08H215.016V236.3H216.276L216.346 237.896C216.808 236.944 217.942 236.202 219.202 236.202C221.274 236.202 222.954 237.966 222.954 240.136C222.954 242.32 221.274 244.112 219.202 244.112C217.956 244.112 216.836 243.37 216.374 242.418V247.08ZM218.992 242.754C220.42 242.754 221.582 241.578 221.582 240.136C221.582 238.708 220.42 237.546 218.992 237.546C217.536 237.546 216.374 238.708 216.374 240.136C216.374 241.578 217.536 242.754 218.992 242.754ZM227.794 244.098C225.722 244.098 224.042 242.32 224.042 240.15C224.042 237.966 225.722 236.188 227.794 236.188C229.054 236.188 230.188 236.944 230.664 237.924L230.734 236.3H231.994V244H230.734L230.664 242.39C230.188 243.356 229.054 244.098 227.794 244.098ZM228.018 242.74C229.46 242.74 230.622 241.578 230.622 240.15C230.622 238.708 229.46 237.532 228.018 237.532C226.59 237.532 225.428 238.708 225.428 240.15C225.428 241.578 226.59 242.74 228.018 242.74ZM237.478 244.112C235.294 244.112 233.53 242.32 233.53 240.136C233.53 237.966 235.294 236.202 237.478 236.202C238.808 236.202 239.984 236.86 240.712 237.868L239.578 238.624C239.102 237.994 238.332 237.588 237.478 237.588C236.05 237.588 234.916 238.736 234.916 240.136C234.916 241.564 236.05 242.712 237.478 242.712C238.36 242.712 239.144 242.278 239.606 241.606L240.74 242.362C240.04 243.412 238.836 244.112 237.478 244.112ZM245.204 244.126C243.79 244.126 242.614 243.272 242.614 241.13V237.532H241.578V236.3H242.656L242.824 233.78H243.972V236.3H245.82V237.532H243.972V241.116C243.972 242.222 244.518 242.796 245.386 242.796C245.582 242.796 245.792 242.768 245.974 242.698L246.324 243.916C246.002 244.056 245.61 244.126 245.204 244.126ZM255.088 244.112C252.904 244.112 251.14 242.32 251.14 240.136C251.14 237.966 252.904 236.202 255.088 236.202C257.258 236.202 259.036 237.966 259.036 240.136C259.036 242.32 257.258 244.112 255.088 244.112ZM255.088 242.712C256.502 242.712 257.65 241.564 257.65 240.136C257.65 238.736 256.502 237.588 255.088 237.588C253.66 237.588 252.526 238.736 252.526 240.136C252.526 241.564 253.66 242.712 255.088 242.712ZM262.236 237.532V244.014L260.878 243.986V237.532H259.898V236.3H260.878V236.006C260.878 233.682 262.096 232.87 263.566 232.87C263.916 232.87 264.322 232.94 264.602 233.038L264.238 234.256C264.07 234.228 263.86 234.186 263.678 234.186C262.81 234.186 262.236 234.62 262.236 236.006V236.3H264.224V237.532H262.236ZM191.006 267.08H189.648V256.3H190.908L190.978 257.896C191.44 256.944 192.574 256.202 193.834 256.202C195.906 256.202 197.586 257.966 197.586 260.136C197.586 262.32 195.906 264.112 193.834 264.112C192.588 264.112 191.468 263.37 191.006 262.418V267.08ZM193.624 262.754C195.052 262.754 196.214 261.578 196.214 260.136C196.214 258.708 195.052 257.546 193.624 257.546C192.168 257.546 191.006 258.708 191.006 260.136C191.006 261.578 192.168 262.754 193.624 262.754ZM200.398 264H199.04V253.08H200.398V264ZM205.694 264.098C203.622 264.098 201.942 262.32 201.942 260.15C201.942 257.966 203.622 256.188 205.694 256.188C206.954 256.188 208.088 256.944 208.564 257.924L208.634 256.3H209.894V264H208.634L208.564 262.39C208.088 263.356 206.954 264.098 205.694 264.098ZM205.918 262.74C207.36 262.74 208.522 261.578 208.522 260.15C208.522 258.708 207.36 257.532 205.918 257.532C204.49 257.532 203.328 258.708 203.328 260.15C203.328 261.578 204.49 262.74 205.918 262.74ZM214.656 264.14C213.55 264.14 212.122 263.776 211.226 262.796L212.164 261.9C212.682 262.474 213.69 262.852 214.656 262.852C215.664 262.852 216.364 262.46 216.364 261.788C216.364 260.206 211.492 261.172 211.492 258.316C211.492 257.056 212.64 256.174 214.404 256.174C215.398 256.174 216.658 256.44 217.498 257.448L216.658 258.288C216.126 257.644 215.16 257.406 214.446 257.406C213.522 257.406 212.864 257.742 212.864 258.33C212.864 259.73 217.736 258.862 217.736 261.746C217.736 263.398 216.266 264.14 214.656 264.14ZM222.297 264.126C220.883 264.126 219.707 263.272 219.707 261.13V257.532H218.671V256.3H219.749L219.917 253.78H221.065V256.3H222.913V257.532H221.065V261.116C221.065 262.222 221.611 262.796 222.479 262.796C222.675 262.796 222.885 262.768 223.067 262.698L223.417 263.916C223.095 264.056 222.703 264.126 222.297 264.126ZM225.552 255.516C225.076 255.516 224.684 255.124 224.684 254.648C224.684 254.172 225.076 253.78 225.552 253.78C226.014 253.78 226.406 254.172 226.406 254.648C226.406 255.124 226.014 255.516 225.552 255.516ZM226.224 264H224.866V256.3H226.224V264ZM231.716 264.112C229.532 264.112 227.768 262.32 227.768 260.136C227.768 257.966 229.532 256.202 231.716 256.202C233.046 256.202 234.222 256.86 234.95 257.868L233.816 258.624C233.34 257.994 232.57 257.588 231.716 257.588C230.288 257.588 229.154 258.736 229.154 260.136C229.154 261.564 230.288 262.712 231.716 262.712C232.598 262.712 233.382 262.278 233.844 261.606L234.978 262.362C234.278 263.412 233.074 264.112 231.716 264.112ZM243.619 264H242.261L239.573 256.3H241.029L242.947 261.9L244.809 256.3H246.195L248.071 261.9L249.989 256.3H251.445L248.743 264H247.399L245.509 258.47L243.619 264ZM255.705 264.098C253.633 264.098 251.953 262.32 251.953 260.15C251.953 257.966 253.633 256.188 255.705 256.188C256.965 256.188 258.099 256.944 258.575 257.924L258.645 256.3H259.905V264H258.645L258.575 262.39C258.099 263.356 256.965 264.098 255.705 264.098ZM255.929 262.74C257.371 262.74 258.533 261.578 258.533 260.15C258.533 258.708 257.371 257.532 255.929 257.532C254.501 257.532 253.339 258.708 253.339 260.15C253.339 261.578 254.501 262.74 255.929 262.74ZM264.668 264.14C263.562 264.14 262.134 263.776 261.238 262.796L262.176 261.9C262.694 262.474 263.702 262.852 264.668 262.852C265.676 262.852 266.376 262.46 266.376 261.788C266.376 260.206 261.504 261.172 261.504 258.316C261.504 257.056 262.652 256.174 264.416 256.174C265.41 256.174 266.67 256.44 267.51 257.448L266.67 258.288C266.138 257.644 265.172 257.406 264.458 257.406C263.534 257.406 262.876 257.742 262.876 258.33C262.876 259.73 267.748 258.862 267.748 261.746C267.748 263.398 266.278 264.14 264.668 264.14ZM272.308 264.126C270.894 264.126 269.718 263.272 269.718 261.13V257.532H268.682V256.3H269.76L269.928 253.78H271.076V256.3H272.924V257.532H271.076V261.116C271.076 262.222 271.622 262.796 272.49 262.796C272.686 262.796 272.896 262.768 273.078 262.698L273.428 263.916C273.106 264.056 272.714 264.126 272.308 264.126ZM278.108 264.112C275.77 264.112 274.02 262.32 274.02 260.136C274.02 257.966 275.77 256.202 277.926 256.202C280.166 256.202 281.832 257.966 281.832 260.136C281.832 260.318 281.804 260.584 281.79 260.78H275.49C275.7 261.942 276.778 262.824 278.108 262.824C279.06 262.824 279.816 262.432 280.306 261.83L281.412 262.516C280.684 263.482 279.41 264.112 278.108 264.112ZM275.476 259.66H280.418C280.348 258.47 279.354 257.476 277.94 257.476C276.582 257.476 275.56 258.47 275.476 259.66Z" fill="black"/>
<defs>
<clipPath id="clip0_3009_1638">
<rect width="38" height="38" fill="white" transform="translate(59.5 14)"/>
</clipPath>
<clipPath id="clip1_3009_1638">
<rect width="44.4072" height="38" fill="white" transform="translate(56.2959 156)"/>
</clipPath>
<clipPath id="clip2_3009_1638">
<rect width="41.9492" height="40" fill="white" transform="translate(214.525 13)"/>
</clipPath>
<clipPath id="clip3_3009_1638">
<rect width="37.9994" height="38" fill="white" transform="translate(216.5 156)"/>
</clipPath>
</defs>
</svg>
