<svg width="158" height="130" viewBox="0 0 158 130" fill="none" xmlns="http://www.w3.org/2000/svg">
<g clip-path="url(#clip0_1059_6766)">
<path d="M79 31.6552C78.9077 31.6552 78.8162 31.6371 78.7308 31.6017C78.6455 31.5663 78.5681 31.5144 78.5029 31.449L70.379 23.3252C70.3137 23.2598 70.2619 23.1823 70.2265 23.0969C70.1912 23.0115 70.1729 22.9199 70.1729 22.8275C70.1729 22.735 70.1912 22.6436 70.2265 22.5582C70.2619 22.4728 70.3137 22.3951 70.379 22.3298L78.5027 14.2061C78.568 14.1407 78.6455 14.0889 78.7308 14.0535C78.8161 14.0181 78.9075 13.9999 78.9999 13.9999C79.0922 13.9999 79.1838 14.0181 79.2691 14.0535C79.3544 14.0889 79.4318 14.1407 79.497 14.2061L87.6207 22.3298C87.6861 22.3951 87.738 22.4728 87.7734 22.5582C87.8087 22.6436 87.8269 22.735 87.8269 22.8275C87.8269 22.9199 87.8087 23.0115 87.7734 23.0969C87.738 23.1823 87.6861 23.2598 87.6207 23.3252L79.497 31.4489C79.4318 31.5143 79.3544 31.5663 79.2691 31.6017C79.1838 31.6371 79.0924 31.6552 79 31.6552ZM71.8717 22.8276L79 29.9558L86.1283 22.8276L79 15.6993L71.8717 22.8276Z" fill="black"/>
<path d="M84.2246 52H73.7756C73.6832 52 73.5916 51.9817 73.5063 51.9463C73.4209 51.9109 73.3435 51.8591 73.2782 51.7937C73.2129 51.7284 73.161 51.6507 73.1257 51.5654C73.0903 51.48 73.0722 51.3885 73.0723 51.2961V40.7503C73.0722 40.6579 73.0903 40.5664 73.1257 40.481C73.161 40.3956 73.2129 40.318 73.2782 40.2526C73.3435 40.1873 73.4209 40.1355 73.5063 40.1001C73.5916 40.0647 73.6832 40.0464 73.7756 40.0464H84.2246C84.317 40.0464 84.4084 40.0647 84.4938 40.1001C84.5792 40.1355 84.6567 40.1873 84.722 40.2526C84.7873 40.318 84.8392 40.3956 84.8745 40.481C84.9099 40.5664 84.928 40.6579 84.9279 40.7503V51.2961C84.928 51.3885 84.9099 51.48 84.8745 51.5654C84.8392 51.6507 84.7873 51.7284 84.722 51.7937C84.6567 51.8591 84.5792 51.9109 84.4938 51.9463C84.4084 51.9817 84.317 52 84.2246 52ZM74.4789 50.5922H83.5213V41.4542H74.4789V50.5922Z" fill="black"/>
<path d="M100.421 52H89.9709C89.8785 52 89.7869 51.9817 89.7016 51.9463C89.6162 51.9109 89.5388 51.8591 89.4735 51.7937C89.4082 51.7284 89.3563 51.6507 89.321 51.5654C89.2857 51.48 89.2675 51.3885 89.2676 51.2961V40.7503C89.2675 40.6579 89.2857 40.5664 89.321 40.481C89.3563 40.3956 89.4082 40.318 89.4735 40.2526C89.5388 40.1873 89.6162 40.1355 89.7016 40.1001C89.7869 40.0647 89.8785 40.0464 89.9709 40.0464H100.421C100.513 40.0464 100.605 40.0647 100.69 40.1001C100.776 40.1355 100.853 40.1873 100.918 40.2526C100.984 40.318 101.036 40.3956 101.071 40.481C101.106 40.5664 101.124 40.6579 101.124 40.7503V51.2961C101.124 51.3885 101.106 51.48 101.071 51.5654C101.036 51.6507 100.984 51.7284 100.918 51.7937C100.853 51.8591 100.776 51.9109 100.69 51.9463C100.605 51.9817 100.513 52 100.421 52ZM90.6742 50.5922H99.7178V41.4542H90.6742V50.5922Z" fill="black"/>
<path d="M68.0285 52H57.5783C57.4859 52 57.3945 51.9817 57.3091 51.9463C57.2238 51.9109 57.1462 51.8591 57.0809 51.7937C57.0156 51.7284 56.9637 51.6507 56.9284 51.5654C56.8931 51.48 56.875 51.3885 56.875 51.2961V40.7503C56.875 40.6579 56.8931 40.5664 56.9284 40.481C56.9637 40.3956 57.0156 40.318 57.0809 40.2526C57.1462 40.1873 57.2238 40.1355 57.3091 40.1001C57.3945 40.0647 57.4859 40.0464 57.5783 40.0464H68.0285C68.1209 40.0464 68.2123 40.0647 68.2977 40.1001C68.383 40.1355 68.4606 40.1873 68.5259 40.2526C68.5912 40.318 68.6431 40.3956 68.6784 40.481C68.7137 40.5664 68.7319 40.6579 68.7318 40.7503V51.2961C68.7319 51.3885 68.7137 51.48 68.6784 51.5654C68.6431 51.6507 68.5912 51.7284 68.5259 51.7937C68.4606 51.8591 68.383 51.911 68.2977 51.9464C68.2123 51.9818 68.1209 52 68.0285 52ZM58.2816 50.5922H67.3252V41.4542H58.2816V50.5922Z" fill="black"/>
<path d="M62.8029 41.4541C62.7105 41.4541 62.619 41.4358 62.5336 41.4004C62.4482 41.365 62.3708 41.3132 62.3055 41.2479C62.2402 41.1825 62.1883 41.1049 62.153 41.0195C62.1177 40.9341 62.0996 40.8426 62.0996 40.7502V22.8276C62.0996 22.7352 62.1177 22.6437 62.153 22.5583C62.1883 22.4729 62.2402 22.3953 62.3055 22.3299C62.3708 22.2646 62.4482 22.2127 62.5336 22.1774C62.619 22.142 62.7105 22.1237 62.8029 22.1237H70.8762C71.0624 22.1244 71.2407 22.1989 71.3721 22.3308C71.5035 22.4628 71.5773 22.6414 71.5773 22.8276C71.5773 23.0137 71.5035 23.1923 71.3721 23.3243C71.2407 23.4562 71.0624 23.5307 70.8762 23.5314H63.5063V40.7502C63.5063 40.8426 63.4882 40.9341 63.4528 41.0195C63.4175 41.1049 63.3657 41.1825 63.3004 41.2479C63.235 41.3132 63.1575 41.365 63.0721 41.4004C62.9868 41.4358 62.8953 41.4541 62.8029 41.4541Z" fill="black"/>
<path d="M95.1972 41.4541C95.1048 41.4541 95.0132 41.4358 94.9279 41.4004C94.8425 41.365 94.7651 41.3132 94.6998 41.2479C94.6345 41.1825 94.5826 41.1049 94.5473 41.0195C94.512 40.9341 94.4938 40.8426 94.4939 40.7502V23.5314H87.1239C86.9377 23.5307 86.7594 23.4562 86.628 23.3243C86.4966 23.1923 86.4229 23.0137 86.4229 22.8276C86.4229 22.6414 86.4966 22.4628 86.628 22.3308C86.7594 22.1989 86.9377 22.1244 87.1239 22.1237H95.1972C95.2896 22.1237 95.381 22.142 95.4664 22.1774C95.5517 22.2127 95.6293 22.2646 95.6946 22.3299C95.7599 22.3953 95.8118 22.4729 95.8471 22.5583C95.8824 22.6437 95.9006 22.7352 95.9005 22.8276V40.7502C95.9006 40.8426 95.8824 40.9341 95.8471 41.0195C95.8118 41.1049 95.7599 41.1825 95.6946 41.2479C95.6293 41.3132 95.5517 41.365 95.4664 41.4004C95.381 41.4358 95.2896 41.4541 95.1972 41.4541Z" fill="black"/>
<path d="M79.0002 41.4542C78.9078 41.4542 78.8162 41.4359 78.7309 41.4005C78.6455 41.3651 78.5681 41.3133 78.5028 41.248C78.4375 41.1826 78.3856 41.105 78.3503 41.0196C78.315 40.9342 78.2968 40.8427 78.2969 40.7503V30.9514C78.2969 30.7648 78.3709 30.5859 78.5028 30.454C78.6347 30.3221 78.8137 30.248 79.0002 30.248C79.1867 30.248 79.3656 30.3221 79.4975 30.454C79.6294 30.5859 79.7035 30.7648 79.7035 30.9514V40.7503C79.7036 40.8427 79.6854 40.9342 79.6501 41.0196C79.6148 41.105 79.5629 41.1826 79.4976 41.248C79.4323 41.3133 79.3547 41.3651 79.2694 41.4005C79.184 41.4359 79.0926 41.4542 79.0002 41.4542Z" fill="black"/>
</g>
<path d="M40.2771 82.168C37.3651 82.168 35.0131 79.802 35.0131 76.89C35.0131 73.992 37.3651 71.64 40.2771 71.64C41.9431 71.64 43.4411 72.41 44.4071 73.628L43.2171 74.51C42.5171 73.656 41.4531 73.11 40.2771 73.11C38.1911 73.11 36.4831 74.79 36.4831 76.876C36.4831 79.004 38.1911 80.684 40.2771 80.684C41.4811 80.684 42.5591 80.124 43.2451 79.228L44.5051 80.012C43.5531 81.314 42.0131 82.168 40.2771 82.168ZM49.5022 82.112C47.1642 82.112 45.4142 80.32 45.4142 78.136C45.4142 75.966 47.1642 74.202 49.3202 74.202C51.5602 74.202 53.2262 75.966 53.2262 78.136C53.2262 78.318 53.1982 78.584 53.1842 78.78H46.8842C47.0942 79.942 48.1722 80.824 49.5022 80.824C50.4542 80.824 51.2102 80.432 51.7002 79.83L52.8062 80.516C52.0782 81.482 50.8042 82.112 49.5022 82.112ZM46.8702 77.66H51.8122C51.7422 76.47 50.7482 75.476 49.3342 75.476C47.9762 75.476 46.9542 76.47 46.8702 77.66ZM56.1209 82H54.7629V74.3H56.0229L56.0929 75.658C56.5129 74.846 57.3389 74.188 58.5149 74.188C60.3069 74.188 61.6649 75.42 61.6649 78.08V82H60.2929V78.08C60.2929 76.33 59.3409 75.532 58.2069 75.532C57.0869 75.532 56.1209 76.316 56.1209 78.08V82ZM66.2615 82.126C64.8475 82.126 63.6715 81.272 63.6715 79.13V75.532H62.6355V74.3H63.7135L63.8815 71.78H65.0295V74.3H66.8775V75.532H65.0295V79.116C65.0295 80.222 65.5755 80.796 66.4435 80.796C66.6395 80.796 66.8495 80.768 67.0315 80.698L67.3815 81.916C67.0595 82.056 66.6675 82.126 66.2615 82.126ZM70.1892 82H68.8312V74.3H70.0912L70.1752 75.56C70.6232 74.734 71.4912 74.244 72.6252 74.258C72.8212 74.258 73.0172 74.272 73.1992 74.3L72.9192 75.616C72.8352 75.602 72.7372 75.588 72.6532 75.588C71.3512 75.588 70.1892 76.316 70.1892 78.444V82ZM77.3849 82.098C75.3129 82.098 73.6329 80.32 73.6329 78.15C73.6329 75.966 75.3129 74.188 77.3849 74.188C78.6449 74.188 79.7789 74.944 80.2549 75.924L80.3249 74.3H81.5849V82H80.3249L80.2549 80.39C79.7789 81.356 78.6449 82.098 77.3849 82.098ZM77.6089 80.74C79.0509 80.74 80.2129 79.578 80.2129 78.15C80.2129 76.708 79.0509 75.532 77.6089 75.532C76.1809 75.532 75.0189 76.708 75.0189 78.15C75.0189 79.578 76.1809 80.74 77.6089 80.74ZM84.9412 82H83.5832V71.08H84.9412V82ZM87.6325 73.516C87.1565 73.516 86.7645 73.124 86.7645 72.648C86.7645 72.172 87.1565 71.78 87.6325 71.78C88.0945 71.78 88.4865 72.172 88.4865 72.648C88.4865 73.124 88.0945 73.516 87.6325 73.516ZM88.3045 82H86.9465V74.3H88.3045V82ZM96.5958 82H90.0158V80.978L94.5378 75.532H90.0158V74.3H96.3998V75.378L91.9758 80.712H96.5958V82ZM101.537 82.112C99.1993 82.112 97.4493 80.32 97.4493 78.136C97.4493 75.966 99.1993 74.202 101.355 74.202C103.595 74.202 105.261 75.966 105.261 78.136C105.261 78.318 105.233 78.584 105.219 78.78H98.9193C99.1293 79.942 100.207 80.824 101.537 80.824C102.489 80.824 103.245 80.432 103.735 79.83L104.841 80.516C104.113 81.482 102.839 82.112 101.537 82.112ZM98.9053 77.66H103.847C103.777 76.47 102.783 75.476 101.369 75.476C100.011 75.476 98.9893 76.47 98.9053 77.66ZM110.088 82.098C108.016 82.098 106.336 80.32 106.336 78.15C106.336 75.966 108.016 74.188 110.088 74.188C111.334 74.188 112.454 74.916 112.916 75.882V71.08H114.288V82H113.028L112.958 80.39C112.482 81.356 111.348 82.098 110.088 82.098ZM110.312 80.74C111.754 80.74 112.916 79.578 112.916 78.15C112.916 76.708 111.754 75.532 110.312 75.532C108.884 75.532 107.722 76.708 107.722 78.15C107.722 79.578 108.884 80.74 110.312 80.74ZM38.5363 102.098C36.4643 102.098 34.7843 100.32 34.7843 98.15C34.7843 95.966 36.4643 94.188 38.5363 94.188C39.7963 94.188 40.9303 94.944 41.4063 95.924L41.4763 94.3H42.7363V102H41.4763L41.4063 100.39C40.9303 101.356 39.7963 102.098 38.5363 102.098ZM38.7603 100.74C40.2023 100.74 41.3643 99.578 41.3643 98.15C41.3643 96.708 40.2023 95.532 38.7603 95.532C37.3323 95.532 36.1703 96.708 36.1703 98.15C36.1703 99.578 37.3323 100.74 38.7603 100.74ZM47.7166 102.112C45.9246 102.112 44.5666 100.866 44.5666 98.206V94.3H45.9386V98.206C45.9386 99.97 46.8906 100.754 48.0246 100.754C49.1446 100.754 50.1106 99.97 50.1106 98.206V94.3H51.4686V102H50.2086L50.1386 100.628C49.7186 101.44 48.8786 102.112 47.7166 102.112ZM56.4109 102.126C54.9969 102.126 53.8209 101.272 53.8209 99.13V95.532H52.7849V94.3H53.8629L54.0309 91.78H55.1789V94.3H57.0269V95.532H55.1789V99.116C55.1789 100.222 55.7249 100.796 56.5929 100.796C56.7889 100.796 56.9989 100.768 57.1809 100.698L57.5309 101.916C57.2089 102.056 56.8169 102.126 56.4109 102.126ZM62.0702 102.112C59.8862 102.112 58.1222 100.32 58.1222 98.136C58.1222 95.966 59.8862 94.202 62.0702 94.202C64.2402 94.202 66.0182 95.966 66.0182 98.136C66.0182 100.32 64.2402 102.112 62.0702 102.112ZM62.0702 100.712C63.4842 100.712 64.6322 99.564 64.6322 98.136C64.6322 96.736 63.4842 95.588 62.0702 95.588C60.6422 95.588 59.5082 96.736 59.5082 98.136C59.5082 99.564 60.6422 100.712 62.0702 100.712ZM68.9246 102H67.5666V94.3H68.8266L68.8966 95.574C69.2886 94.678 70.1566 94.188 70.9966 94.188C72.2286 94.188 73.0266 94.902 73.3486 95.826C73.6706 94.916 74.4686 94.188 75.5886 94.188C77.2266 94.188 78.4446 95.238 78.4446 97.912V102H77.0726V97.912C77.0726 96.148 76.2886 95.532 75.3786 95.532C74.5246 95.532 73.6846 96.148 73.6846 97.912V102H72.3126V97.912C72.3126 96.148 71.5286 95.532 70.6186 95.532C69.7086 95.532 68.9246 96.316 68.9246 98.08V102ZM83.5851 102.098C81.5131 102.098 79.8331 100.32 79.8331 98.15C79.8331 95.966 81.5131 94.188 83.5851 94.188C84.8451 94.188 85.9791 94.944 86.4551 95.924L86.5251 94.3H87.7851V102H86.5251L86.4551 100.39C85.9791 101.356 84.8451 102.098 83.5851 102.098ZM83.8091 100.74C85.2511 100.74 86.4131 99.578 86.4131 98.15C86.4131 96.708 85.2511 95.532 83.8091 95.532C82.3811 95.532 81.2191 96.708 81.2191 98.15C81.2191 99.578 82.3811 100.74 83.8091 100.74ZM92.7234 102.126C91.3094 102.126 90.1334 101.272 90.1334 99.13V95.532H89.0974V94.3H90.1754L90.3434 91.78H91.4914V94.3H93.3394V95.532H91.4914V99.116C91.4914 100.222 92.0374 100.796 92.9054 100.796C93.1014 100.796 93.3114 100.768 93.4934 100.698L93.8434 101.916C93.5214 102.056 93.1294 102.126 92.7234 102.126ZM95.9792 93.516C95.5032 93.516 95.1112 93.124 95.1112 92.648C95.1112 92.172 95.5032 91.78 95.9792 91.78C96.4412 91.78 96.8332 92.172 96.8332 92.648C96.8332 93.124 96.4412 93.516 95.9792 93.516ZM96.6512 102H95.2932V94.3H96.6512V102ZM102.142 102.112C99.9584 102.112 98.1944 100.32 98.1944 98.136C98.1944 95.966 99.9584 94.202 102.142 94.202C104.312 94.202 106.09 95.966 106.09 98.136C106.09 100.32 104.312 102.112 102.142 102.112ZM102.142 100.712C103.556 100.712 104.704 99.564 104.704 98.136C104.704 96.736 103.556 95.588 102.142 95.588C100.714 95.588 99.5804 96.736 99.5804 98.136C99.5804 99.564 100.714 100.712 102.142 100.712ZM108.997 102H107.639V94.3H108.899L108.969 95.658C109.389 94.846 110.215 94.188 111.391 94.188C113.183 94.188 114.541 95.42 114.541 98.08V102H113.169V98.08C113.169 96.33 112.217 95.532 111.083 95.532C109.963 95.532 108.997 96.316 108.997 98.08V102ZM24.3729 122.154C23.0569 122.154 21.7689 121.706 20.6909 120.544L21.6009 119.62C22.3289 120.348 23.2389 120.81 24.3869 120.824C25.6189 120.824 26.4869 120.236 26.4869 119.214C26.4869 116.736 20.8869 117.842 20.8869 114.286C20.8869 112.774 22.1189 111.612 24.2189 111.612C25.3249 111.612 26.7249 112.06 27.6209 113.264L26.5989 114.062C26.0949 113.362 25.1709 112.956 24.2889 112.942C23.0709 112.928 22.2869 113.502 22.2869 114.272C22.2869 116.512 27.9009 115.448 27.9009 119.144C27.9009 120.992 26.4309 122.168 24.3729 122.154ZM33.0311 122.112C30.8471 122.112 29.0831 120.32 29.0831 118.136C29.0831 115.966 30.8471 114.202 33.0311 114.202C35.2011 114.202 36.9791 115.966 36.9791 118.136C36.9791 120.32 35.2011 122.112 33.0311 122.112ZM33.0311 120.712C34.4451 120.712 35.5931 119.564 35.5931 118.136C35.5931 116.736 34.4451 115.588 33.0311 115.588C31.6031 115.588 30.4691 116.736 30.4691 118.136C30.4691 119.564 31.6031 120.712 33.0311 120.712ZM39.7898 122H38.4318V111.08H39.7898V122ZM44.7771 122.112C42.9851 122.112 41.6271 120.866 41.6271 118.206V114.3H42.9991V118.206C42.9991 119.97 43.9511 120.754 45.0851 120.754C46.2051 120.754 47.1711 119.97 47.1711 118.206V114.3H48.5291V122H47.2691L47.1991 120.628C46.7791 121.44 45.9391 122.112 44.7771 122.112ZM53.4714 122.126C52.0574 122.126 50.8814 121.272 50.8814 119.13V115.532H49.8454V114.3H50.9234L51.0914 111.78H52.2394V114.3H54.0874V115.532H52.2394V119.116C52.2394 120.222 52.7854 120.796 53.6534 120.796C53.8494 120.796 54.0594 120.768 54.2414 120.698L54.5914 121.916C54.2694 122.056 53.8774 122.126 53.4714 122.126ZM56.7272 113.516C56.2512 113.516 55.8592 113.124 55.8592 112.648C55.8592 112.172 56.2512 111.78 56.7272 111.78C57.1892 111.78 57.5812 112.172 57.5812 112.648C57.5812 113.124 57.1892 113.516 56.7272 113.516ZM57.3992 122H56.0412V114.3H57.3992V122ZM62.8905 122.112C60.7065 122.112 58.9425 120.32 58.9425 118.136C58.9425 115.966 60.7065 114.202 62.8905 114.202C65.0605 114.202 66.8385 115.966 66.8385 118.136C66.8385 120.32 65.0605 122.112 62.8905 122.112ZM62.8905 120.712C64.3045 120.712 65.4525 119.564 65.4525 118.136C65.4525 116.736 64.3045 115.588 62.8905 115.588C61.4625 115.588 60.3285 116.736 60.3285 118.136C60.3285 119.564 61.4625 120.712 62.8905 120.712ZM69.7449 122H68.3869V114.3H69.6469L69.7169 115.658C70.1369 114.846 70.9629 114.188 72.1389 114.188C73.9309 114.188 75.2889 115.42 75.2889 118.08V122H73.9169V118.08C73.9169 116.33 72.9649 115.532 71.8309 115.532C70.7109 115.532 69.7449 116.316 69.7449 118.08V122ZM82.6034 115.532V122.014L81.2454 121.986V115.532H80.2654V114.3H81.2454V114.006C81.2454 111.682 82.4634 110.87 83.9334 110.87C84.2834 110.87 84.6894 110.94 84.9694 111.038L84.6054 112.256C84.4374 112.228 84.2274 112.186 84.0454 112.186C83.1774 112.186 82.6034 112.62 82.6034 114.006V114.3H84.5914V115.532H82.6034ZM89.1542 122.112C86.9702 122.112 85.2062 120.32 85.2062 118.136C85.2062 115.966 86.9702 114.202 89.1542 114.202C91.3242 114.202 93.1022 115.966 93.1022 118.136C93.1022 120.32 91.3242 122.112 89.1542 122.112ZM89.1542 120.712C90.5682 120.712 91.7162 119.564 91.7162 118.136C91.7162 116.736 90.5682 115.588 89.1542 115.588C87.7262 115.588 86.5922 116.736 86.5922 118.136C86.5922 119.564 87.7262 120.712 89.1542 120.712ZM96.0086 122H94.6506V114.3H95.9106L95.9946 115.56C96.4426 114.734 97.3106 114.244 98.4446 114.258C98.6406 114.258 98.8366 114.272 99.0186 114.3L98.7386 115.616C98.6546 115.602 98.5566 115.588 98.4726 115.588C97.1706 115.588 96.0086 116.316 96.0086 118.444V122ZM105.776 122H104.334V111.78H105.776V116.708L110.102 111.78H111.768L108.184 115.994L112.118 122H110.424L107.274 117.296L105.776 118.92V122ZM114.949 122H113.521V111.78H120.115V113.166H114.949V116.162H119.835V117.548H114.949V122ZM121.917 122H120.321L124.059 111.78H125.627L129.365 122H127.797L126.817 119.34H122.883L121.917 122ZM124.843 113.726L123.303 117.982H126.397L124.843 113.726ZM133.789 122.154C132.473 122.154 131.185 121.706 130.107 120.544L131.017 119.62C131.745 120.348 132.655 120.81 133.803 120.824C135.035 120.824 135.903 120.236 135.903 119.214C135.903 116.736 130.303 117.842 130.303 114.286C130.303 112.774 131.535 111.612 133.635 111.612C134.741 111.612 136.141 112.06 137.037 113.264L136.015 114.062C135.511 113.362 134.587 112.956 133.705 112.942C132.487 112.928 131.703 113.502 131.703 114.272C131.703 116.512 137.317 115.448 137.317 119.144C137.317 120.992 135.847 122.168 133.789 122.154Z" fill="black"/>
<defs>
<clipPath id="clip0_1059_6766">
<rect width="44.2497" height="38" fill="white" transform="translate(56.875 14)"/>
</clipPath>
</defs>
</svg>
