<svg width="80" height="56" viewBox="0 0 80 56" fill="none" xmlns="http://www.w3.org/2000/svg">
<mask id="mask0_1134_2195" style="mask-type:luminance" maskUnits="userSpaceOnUse" x="0" y="0" width="80" height="56">
<path d="M80 0.503418H0V55.9897H80V0.503418Z" fill="white"/>
</mask>
<g mask="url(#mask0_1134_2195)">
<path d="M38.3479 32.3145C36.8095 29.471 34.3452 27.2387 31.3639 25.9883L20.5789 24.0935L9.79489 25.9883C6.81354 27.2387 4.34926 29.471 2.81088 32.3145C0.976883 36.0065 0.587891 43.6045 0.587891 43.6045H40.5719C40.5719 43.6045 40.1829 36.0065 38.3479 32.3145Z" fill="#D6EDFF"/>
<path d="M40.5716 44.1924H0.587661C0.507846 44.1921 0.428876 44.1757 0.355514 44.1443C0.282152 44.1128 0.215899 44.0669 0.160659 44.0093C0.105862 43.9514 0.0633424 43.8831 0.0356589 43.8083C0.0082623 43.7335 -0.00398585 43.6541 -0.000351833 43.5744C0.0156482 43.2594 0.416652 35.8115 2.28465 32.0525C3.88177 29.0703 6.46232 26.7332 9.58766 25.4385C9.6216 25.4253 9.65676 25.4155 9.69264 25.4094L20.4776 23.5144C20.5448 23.5024 20.6135 23.5024 20.6806 23.5144L31.4657 25.4094C31.5018 25.4157 31.5373 25.4254 31.5716 25.4385C34.6966 26.7338 37.277 29.0707 38.8746 32.0525C40.7416 35.8115 41.1426 43.2594 41.1586 43.5744C41.1628 43.6541 41.1505 43.7336 41.1226 43.8083C41.095 43.8831 41.0524 43.9514 40.9976 44.0093C40.9427 44.067 40.8766 44.1131 40.8034 44.1445C40.7302 44.176 40.6513 44.1922 40.5716 44.1924ZM1.21565 43.0163H39.9436C39.8056 41.1483 39.2816 35.5154 37.8216 32.5764C36.3535 29.884 34.022 27.7638 31.2027 26.5573L20.5787 24.6904L9.95564 26.5573C7.13678 27.7643 4.80582 29.8843 3.33766 32.5764C1.87669 35.5154 1.35264 41.1483 1.21565 43.0163Z" fill="black"/>
<path d="M28.1086 23.3174C27.5549 22.93 27.1767 22.3396 27.0566 21.6746C26.9366 21.0095 27.0843 20.3239 27.4676 19.7673C29.079 17.299 29.9043 14.4003 29.8346 11.4534C29.8346 1.60537 22.8236 1.09131 20.5786 1.09131C18.3346 1.09131 11.3226 1.60537 11.3226 11.4534C11.2538 14.4003 12.0793 17.2989 13.6906 19.7673C14.0739 20.3239 14.2217 21.0095 14.1016 21.6746C13.9815 22.3396 13.6034 22.93 13.0496 23.3174L9.18262 25.9883C13.4276 30.1333 20.5786 30.0415 20.5786 30.0415C20.5786 30.0415 27.7306 30.1333 31.9756 25.9883L28.1086 23.3174Z" fill="#D6EDFF"/>
<path d="M20.6399 30.6304H20.5059C19.7199 30.6304 12.9669 30.5054 8.77289 26.4094C8.67874 26.3183 8.6179 26.1982 8.60013 26.0684C8.58237 25.9385 8.60867 25.8064 8.67487 25.6934C8.7181 25.6182 8.77756 25.5537 8.84888 25.5044L12.7149 22.8335C12.9277 22.6866 13.1089 22.4986 13.2479 22.2805C13.4579 21.9531 13.5658 21.5706 13.5577 21.1816C13.5497 20.7927 13.4262 20.4149 13.2029 20.0964C11.5275 17.5302 10.6672 14.5173 10.7349 11.4534C10.7349 1.57037 17.6199 0.503418 20.5799 0.503418C23.5399 0.503418 30.4239 1.57037 30.4239 11.4534C30.4911 14.5173 29.6308 17.53 27.9559 20.0964C27.8074 20.3079 27.7023 20.5465 27.6464 20.7988C27.5906 21.0511 27.5852 21.312 27.6306 21.5664C27.6759 21.8208 27.7711 22.0636 27.9107 22.281C28.0503 22.4984 28.2315 22.6863 28.4439 22.8335L32.3099 25.5044C32.3812 25.5538 32.4408 25.6183 32.4843 25.6934C32.5278 25.7684 32.5541 25.8523 32.5615 25.9387C32.5688 26.0252 32.557 26.1122 32.5268 26.1936C32.4966 26.275 32.4488 26.3487 32.3869 26.4094C28.1918 30.5054 21.4399 30.6304 20.6399 30.6304ZM20.5729 29.4534C20.6509 29.4514 26.9679 29.4875 31.0319 26.0515L27.7749 23.8015C27.4357 23.5679 27.1459 23.2694 26.9223 22.9236C26.6986 22.5777 26.5455 22.1913 26.4716 21.7861C26.3978 21.3809 26.4046 20.965 26.4919 20.5625C26.5791 20.16 26.7449 19.7787 26.9799 19.4404C28.5237 17.0676 29.314 14.2834 29.2469 11.4534C29.2469 2.94937 23.8169 1.67944 20.5799 1.67944C17.3419 1.67944 11.9119 2.94937 11.9119 11.4534C11.8446 14.2831 12.6349 17.0671 14.1789 19.4395C14.4136 19.7779 14.5793 20.1592 14.6664 20.5618C14.7535 20.9643 14.7603 21.3802 14.6865 21.7854C14.6126 22.1906 14.4596 22.5771 14.236 22.9231C14.0125 23.269 13.7229 23.5677 13.3839 23.8015L10.1269 26.0515C14.1879 29.4855 20.5039 29.4484 20.5729 29.4534Z" fill="black"/>
<path d="M20.5792 21.7793C19.4772 21.7793 13.4902 19.9145 13.4902 11.6675C13.4902 3.87948 18.4472 3.03833 20.5792 3.03833C22.7102 3.03833 27.6682 3.87948 27.6682 11.6675C27.6683 19.9145 21.6812 21.7793 20.5792 21.7793ZM20.5792 4.21436C18.3712 4.21436 14.6662 5.18348 14.6662 11.6675C14.6662 18.9375 19.8042 20.6035 20.5792 20.6035C21.3542 20.6035 26.4922 18.9375 26.4922 11.6675C26.4923 5.18347 22.7872 4.21436 20.5792 4.21436Z" fill="black"/>
<path d="M26.649 8.76822C26.5666 8.76812 26.4851 8.75079 26.4098 8.7172C26.3345 8.68361 26.2671 8.63468 26.212 8.5734C24.49 6.6594 21.75 6.65934 20.579 6.65934C18.5811 6.54655 16.6132 7.18508 15.062 8.44938C15.0065 8.50308 14.9408 8.54517 14.8689 8.5734C14.797 8.60163 14.7202 8.61526 14.643 8.61368C14.5657 8.6121 14.4896 8.59527 14.4189 8.56412C14.3482 8.53297 14.2843 8.48822 14.231 8.43229C14.177 8.377 14.1348 8.31147 14.107 8.23941C14.0644 8.1311 14.0551 8.01248 14.0802 7.89884C14.1053 7.7852 14.1637 7.68151 14.248 7.60123C16.0056 6.10409 18.2743 5.34518 20.579 5.48331C21.792 5.48331 25.014 5.48329 27.086 7.78629C27.1619 7.87112 27.2119 7.97593 27.23 8.08829C27.2481 8.20055 27.2328 8.31571 27.186 8.41935C27.14 8.52336 27.0648 8.61177 26.9694 8.67374C26.8741 8.73571 26.7627 8.76845 26.649 8.76822Z" fill="black"/>
<path d="M15.2535 29.2705C15.6606 34.0511 15.4984 38.8631 14.7705 43.6055L15.2535 29.2705Z" fill="white"/>
<path d="M14.7718 44.1925C14.7386 44.1923 14.7055 44.1896 14.6728 44.1844C14.519 44.1583 14.3819 44.0723 14.2915 43.9452C14.2012 43.818 14.1649 43.6602 14.1908 43.5064C14.9055 38.8159 15.066 34.0575 14.6688 29.3294C14.6609 29.2526 14.6684 29.1751 14.6905 29.1012C14.7127 29.0272 14.7492 28.9581 14.798 28.8983C14.8468 28.8384 14.907 28.7889 14.9749 28.7523C15.0429 28.7157 15.1174 28.6927 15.1943 28.6849C15.2711 28.6771 15.3487 28.6845 15.4227 28.7066C15.4966 28.7288 15.5655 28.7655 15.6254 28.8143C15.6852 28.8631 15.7349 28.9231 15.7715 28.9911C15.8081 29.059 15.831 29.1337 15.8388 29.2105C16.2457 34.0436 16.0819 38.9077 15.3508 43.7025C15.3277 43.8394 15.2568 43.9636 15.1509 44.0533C15.0449 44.143 14.9106 44.1923 14.7718 44.1925Z" fill="black"/>
<path d="M25.9284 29.2705C25.5214 34.0511 25.6835 38.8631 26.4114 43.6055L25.9284 29.2705Z" fill="white"/>
<path d="M26.4107 44.1923C26.2719 44.1922 26.1376 44.1428 26.0316 44.0532C25.9256 43.9635 25.8548 43.8392 25.8317 43.7023C25.1006 38.9076 24.9368 34.0435 25.3437 29.2104C25.3517 29.1334 25.3745 29.0588 25.4107 28.9904C25.4474 28.9225 25.497 28.8624 25.5567 28.8134C25.6469 28.7394 25.7571 28.6938 25.8732 28.6828C25.9894 28.6718 26.1062 28.6957 26.2087 28.7514C26.2768 28.7878 26.337 28.8374 26.3857 28.8974C26.4341 28.9576 26.4704 29.0264 26.4927 29.1003C26.5146 29.1745 26.5218 29.2523 26.5137 29.3293C26.1165 34.0573 26.2769 38.8157 26.9917 43.5063C27.0175 43.6601 26.9813 43.8179 26.8909 43.945C26.8005 44.0721 26.6634 44.1581 26.5097 44.1843C26.4769 44.1894 26.4438 44.1922 26.4107 44.1923Z" fill="black"/>
<path d="M47.1442 35.4224H48.9851C49.7395 35.4304 50.4686 35.1508 51.0241 34.6404C53.9981 31.8344 56.4591 25.2953 55.2661 20.9753H40.7671C39.7581 25.2663 42.2251 31.9255 45.1121 34.6475C45.6665 35.1544 46.393 35.4314 47.1442 35.4224Z" fill="#D6EDFF"/>
<path d="M48.9851 36.0115H47.1441C46.2426 36.0226 45.3711 35.6875 44.7091 35.0754C41.7331 32.2704 39.1131 25.4413 40.1951 20.8403C40.2251 20.7113 40.2981 20.5964 40.4021 20.5144C40.5061 20.4324 40.6346 20.3877 40.7671 20.3875H55.2661C55.3947 20.3873 55.5198 20.4293 55.6221 20.5073C55.7243 20.5858 55.7983 20.6953 55.8331 20.8193C57.0991 25.4013 54.5521 32.1214 51.4281 35.0684C50.7644 35.6837 49.8901 36.0213 48.9851 36.0115ZM41.2481 21.5635C40.5371 25.7225 42.9211 31.7735 45.5161 34.2195C45.9619 34.6225 46.5432 34.8424 47.1441 34.8355H48.9851C49.5895 34.8417 50.1739 34.6191 50.6211 34.2124C53.3461 31.6414 55.6741 25.6835 54.8041 21.5635H41.2481Z" fill="black"/>
<path d="M57.434 38.3154C55.691 39.9534 52.151 41.0754 48.066 41.0754C43.98 41.0754 40.441 39.9534 38.697 38.3154C33.204 38.9754 27.46 43.6484 27.46 49.3184V55.4023H68.672V49.3184C68.672 43.6483 62.927 38.9754 57.434 38.3154Z" fill="#D6EDFF"/>
<path d="M68.6721 55.9905H27.4601C27.3829 55.9901 27.3065 55.9747 27.2351 55.9453C27.0912 55.8851 26.9767 55.7711 26.9161 55.6274C26.887 55.5556 26.8721 55.4788 26.8721 55.4014V49.3183C26.8721 43.2323 32.9501 38.4135 38.6271 37.7305C38.7125 37.7199 38.7993 37.7284 38.881 37.7554C38.9628 37.7823 39.0376 37.8272 39.1001 37.8865C40.7821 39.4665 44.3011 40.4873 48.0661 40.4873C51.8311 40.4873 55.3501 39.4665 57.0321 37.8865C57.0945 37.8272 57.1693 37.7823 57.2511 37.7554C57.3328 37.7284 57.4196 37.7199 57.5051 37.7305C63.1821 38.4135 69.2601 43.2323 69.2601 49.3183V55.4014C69.2602 55.5573 69.1982 55.707 69.088 55.8174C69.0335 55.8721 68.9687 55.9156 68.8973 55.9453C68.8259 55.975 68.7494 55.9904 68.6721 55.9905ZM28.0481 54.8135H68.0841V49.3183C68.0841 44.0293 62.6261 39.6603 57.6261 38.9333C55.6531 40.6223 52.0301 41.6633 48.0661 41.6633C44.1021 41.6633 40.4791 40.6223 38.5061 38.9333C33.5051 39.6603 28.0481 44.0293 28.0481 49.3183V54.8135Z" fill="black"/>
<path d="M56.7812 19.1575C57.2412 13.3425 51.8452 11.9234 48.0652 11.9554C44.2862 11.9234 38.8901 13.3425 39.3501 19.1575C31.6721 29.9225 37.1172 32.5905 32.5352 41.0755C32.5352 41.0755 43.0001 43.5695 41.6671 31.3145L41.2311 22.5503C45.6868 21.1983 50.4434 21.1983 54.8991 22.5503L54.4641 31.3145C53.5231 44.0165 63.5962 41.0755 63.5962 41.0755C59.0142 32.5905 64.4592 29.9225 56.7812 19.1575Z" fill="#D6EDFF"/>
<path d="M61.2337 41.9624C59.5653 42.0112 57.9309 41.4848 56.6047 40.4714C54.4707 38.7444 53.5527 35.6495 53.8767 31.2715L54.2887 22.9883C50.2197 21.8364 45.9109 21.8361 41.8417 22.9873L42.2537 31.2854C42.6977 35.3554 41.9047 38.3364 39.8927 40.1094C36.9587 42.6964 32.5827 41.6904 32.3987 41.6474C32.311 41.6261 32.2294 41.5851 32.1599 41.5276C32.0905 41.47 32.035 41.3975 31.9977 41.3154C31.9609 41.2331 31.9434 41.1435 31.9467 41.0534C31.9508 40.9633 31.9747 40.8752 32.0167 40.7954C33.4694 38.1542 34.2012 35.177 34.1387 32.1633C34.2757 28.7023 34.4167 25.1243 38.7487 18.9883C38.6583 18.0926 38.7563 17.1882 39.0365 16.3327C39.3168 15.4773 39.7729 14.69 40.3757 14.0215C42.6447 11.5865 46.5187 11.3514 48.0697 11.3674C49.6207 11.3544 53.4857 11.5865 55.7547 14.0215C56.3574 14.69 56.8136 15.4773 57.0938 16.3327C57.374 17.1882 57.4721 18.0926 57.3817 18.9883C61.7137 25.1243 61.8547 28.7023 61.9917 32.1633C61.9292 35.1769 62.6607 38.1539 64.1127 40.7954C64.1546 40.8724 64.1785 40.9578 64.1827 41.0454C64.1878 41.133 64.1727 41.2207 64.1387 41.3015C64.105 41.3827 64.0534 41.4551 63.9877 41.5134C63.9227 41.5723 63.845 41.6154 63.7607 41.6394C62.936 41.8565 62.0865 41.9651 61.2337 41.9624ZM48.0647 20.9485C50.4384 20.9731 52.7974 21.3237 55.0757 21.9905C55.1998 22.0294 55.3075 22.1084 55.3817 22.2153C55.4559 22.3221 55.4928 22.4504 55.4867 22.5803L55.0506 31.3445C54.7556 35.3285 55.5276 38.0864 57.3446 39.5564C58.1183 40.0961 58.9939 40.4723 59.9179 40.6621C60.8419 40.8519 61.7949 40.8514 62.7187 40.6604C61.4246 38.034 60.7724 35.138 60.8157 32.2104C60.6847 28.8894 60.5497 25.4555 56.3017 19.4995C56.2213 19.3868 56.1831 19.2493 56.1936 19.1113C56.2968 18.3452 56.2342 17.566 56.0099 16.8262C55.7856 16.0863 55.4049 15.4033 54.8937 14.8235C52.9427 12.7295 49.4577 12.5264 48.0697 12.5434C46.6497 12.5324 43.1857 12.7305 41.2357 14.8235C40.7244 15.4033 40.3438 16.0863 40.1195 16.8262C39.8952 17.566 39.8325 18.3452 39.9357 19.1113C39.9466 19.2492 39.9087 19.3867 39.8287 19.4995C35.5807 25.4545 35.4457 28.8884 35.3137 32.2104C35.3572 35.1243 34.7117 38.0074 33.4297 40.6245C34.7027 40.7715 37.3067 40.8264 39.1207 39.2224C40.8247 37.7154 41.4847 35.0774 41.0827 31.3784L40.6437 22.5803C40.6374 22.4504 40.6743 22.322 40.7487 22.2153C40.823 22.1086 40.9306 22.0296 41.0547 21.9905C43.3326 21.3238 45.6913 20.9732 48.0647 20.9485Z" fill="black"/>
<path d="M56.3753 17.9143H39.7003C39.5444 17.9143 39.3948 17.8525 39.2845 17.7422C39.1743 17.6319 39.1123 17.4824 39.1123 17.3264C39.1123 17.1705 39.1743 17.0209 39.2845 16.9106C39.3948 16.8004 39.5444 16.7383 39.7003 16.7383H56.3753C56.5313 16.7383 56.6808 16.8004 56.7911 16.9106C56.9013 17.0209 56.9633 17.1705 56.9633 17.3264C56.9633 17.4824 56.9013 17.6319 56.7911 17.7422C56.6808 17.8525 56.5313 17.9143 56.3753 17.9143Z" fill="black"/>
<path d="M56.3753 19.8594H39.7003C39.5444 19.8594 39.3948 19.7975 39.2845 19.6873C39.1743 19.577 39.1123 19.4274 39.1123 19.2715C39.1123 19.1155 39.1743 18.966 39.2845 18.8557C39.3948 18.7454 39.5444 18.6833 39.7003 18.6833H56.3753C56.5313 18.6833 56.6808 18.7454 56.7911 18.8557C56.9013 18.966 56.9633 19.1155 56.9633 19.2715C56.9633 19.4274 56.9013 19.577 56.7911 19.6873C56.6808 19.7975 56.5313 19.8594 56.3753 19.8594Z" fill="black"/>
<path d="M52.0567 33.7793C50.7005 33.7172 49.4061 33.1941 48.3877 32.2964C48.2894 32.2149 48.1658 32.1704 48.0381 32.1704C47.9105 32.1704 47.7869 32.2149 47.6887 32.2964C46.6697 33.1933 45.3757 33.7163 44.0197 33.7793C43.8637 33.7793 43.7142 33.7174 43.6039 33.6072C43.4936 33.4969 43.4316 33.3474 43.4316 33.1914C43.4316 33.0355 43.4936 32.8859 43.6039 32.7756C43.7142 32.6654 43.8637 32.6035 44.0197 32.6035C45.1031 32.539 46.1331 32.1104 46.9427 31.3875C47.252 31.1352 47.639 30.9973 48.0381 30.9973C48.4373 30.9973 48.8243 31.1352 49.1337 31.3875C49.9432 32.1104 50.9732 32.539 52.0567 32.6035C52.2126 32.6035 52.3622 32.6654 52.4724 32.7756C52.5827 32.8859 52.6447 33.0355 52.6447 33.1914C52.6447 33.3474 52.5827 33.4969 52.4724 33.6072C52.3622 33.7174 52.2126 33.7793 52.0567 33.7793Z" fill="black"/>
<path d="M34.9786 55.9905C34.9014 55.9905 34.8249 55.9751 34.7536 55.9453C34.6824 55.9157 34.6175 55.8726 34.5626 55.8184C34.5087 55.7632 34.4656 55.6985 34.4356 55.6274C34.4058 55.5562 34.3905 55.4796 34.3906 55.4023V48.2344C34.3906 48.0784 34.4526 47.9289 34.5628 47.8186C34.6731 47.7083 34.8227 47.6465 34.9786 47.6465C35.1346 47.6465 35.2841 47.7083 35.3944 47.8186C35.5047 47.9289 35.5666 48.0784 35.5666 48.2344V55.4023C35.567 55.4796 35.5521 55.5563 35.5225 55.6277C35.493 55.6991 35.4495 55.7639 35.3946 55.8184C35.284 55.9282 35.1345 55.9901 34.9786 55.9905Z" fill="black"/>
<path d="M61.1515 55.9905C61.0742 55.9906 60.9978 55.9752 60.9265 55.9453C60.855 55.9161 60.7901 55.873 60.7355 55.8184C60.6809 55.7638 60.6377 55.6989 60.6085 55.6274C60.5787 55.5562 60.5633 55.4796 60.5635 55.4023V48.2344C60.5635 48.0784 60.6254 47.9289 60.7357 47.8186C60.846 47.7083 60.9955 47.6465 61.1515 47.6465C61.3074 47.6465 61.457 47.7083 61.5673 47.8186C61.6775 47.9289 61.7395 48.0784 61.7395 48.2344V55.4023C61.7391 55.5582 61.6773 55.7077 61.5675 55.8184C61.5128 55.8729 61.4479 55.916 61.3765 55.9453C61.3053 55.9752 61.2287 55.9906 61.1515 55.9905Z" fill="black"/>
<path d="M79.4103 1.09131H62.9893V17.5125H79.4103V1.09131Z" fill="#D6EDFF"/>
<path d="M79.4104 18.1013H62.9894C62.8335 18.1011 62.6841 18.0392 62.5739 17.929C62.4637 17.8187 62.4016 17.6693 62.4014 17.5134V1.09131C62.4013 1.01406 62.4164 0.937595 62.4459 0.866211C62.4754 0.794827 62.5187 0.729914 62.5734 0.675293C62.628 0.620673 62.6928 0.577367 62.7642 0.547852C62.8356 0.518337 62.9121 0.50332 62.9894 0.503418H79.4104C79.4876 0.50332 79.5641 0.518337 79.6355 0.547852C79.7069 0.577367 79.7717 0.620673 79.8264 0.675293C79.881 0.729914 79.9243 0.794827 79.9538 0.866211C79.9833 0.937595 79.9985 1.01406 79.9984 1.09131V17.5134C79.9981 17.6693 79.9361 17.8187 79.8259 17.929C79.7157 18.0392 79.5663 18.1011 79.4104 18.1013ZM63.5774 16.9253H78.8224V1.67944H63.5774V16.9253Z" fill="black"/>
<path d="M70.0125 14.0263C69.9246 14.0261 69.8379 14.0068 69.7584 13.9694C69.6791 13.9314 69.6094 13.876 69.5545 13.8073L66.6035 10.1513C66.5547 10.0914 66.5183 10.0225 66.4965 9.94841C66.4744 9.87422 66.4675 9.79631 66.4765 9.71941C66.4844 9.64263 66.5075 9.5682 66.5444 9.50042C66.5815 9.43274 66.6314 9.37293 66.6914 9.32439C66.7514 9.27594 66.8204 9.23994 66.8944 9.21843C66.9686 9.19648 67.0465 9.18935 67.1234 9.19744C67.2002 9.20543 67.2746 9.22841 67.3424 9.26531C67.4102 9.30221 67.4701 9.35215 67.5184 9.41228L69.9624 12.4404L74.8485 4.96843C74.8904 4.90369 74.9447 4.84788 75.0084 4.80437C75.0722 4.76082 75.1439 4.73015 75.2194 4.71428C75.2952 4.69812 75.3734 4.69749 75.4494 4.71233C75.5253 4.72642 75.5977 4.75526 75.6624 4.79729C75.7268 4.84013 75.7824 4.89489 75.8264 4.95842C75.8697 5.02223 75.8999 5.09387 75.9154 5.16936C75.9314 5.2451 75.9325 5.32321 75.9185 5.39934C75.9036 5.47484 75.8744 5.54671 75.8325 5.61126L70.5045 13.7604C70.4536 13.8379 70.3851 13.9021 70.3046 13.9482C70.2242 13.9942 70.134 14.0207 70.0415 14.0253L70.0125 14.0263Z" fill="black"/>
</g>
</svg>
