<svg width="80" height="61" viewBox="0 0 80 61" fill="none" xmlns="http://www.w3.org/2000/svg">
<path d="M68.4548 50.563H33.3262C33.2494 50.5631 33.1734 50.5479 33.1027 50.5181C33.0318 50.489 32.9674 50.4462 32.9132 50.3921C32.8037 50.2821 32.7423 50.1332 32.7422 49.978V38.8301C32.7437 35.2627 34.1602 31.8413 36.6808 29.3169C39.2015 26.7924 42.6205 25.3709 46.1879 25.364H55.5931C59.1605 25.3709 62.5795 26.7924 65.1001 29.3169C67.6208 31.8413 69.0372 35.2627 69.0388 38.8301V49.978C69.0388 50.0549 69.0237 50.1309 68.9943 50.2019C68.9649 50.2728 68.9219 50.3376 68.8679 50.3921C68.8136 50.4461 68.7492 50.4889 68.6784 50.5181C68.6076 50.5479 68.5316 50.5631 68.4548 50.563ZM33.9103 49.3931H67.8707V38.8301C67.8692 35.5726 66.5758 32.4487 64.2741 30.1436C61.9725 27.8385 58.8505 26.5403 55.5931 26.5339H46.1879C42.9304 26.5403 39.8085 27.8385 37.5068 30.1436C35.2052 32.4487 33.9117 35.5726 33.9103 38.8301L33.9103 49.3931Z" fill="black"/>
<path d="M50.891 24.554C49.0957 24.5576 47.3548 23.9382 45.965 22.8018C44.5752 21.6654 43.6226 20.082 43.2696 18.3218C42.9166 16.5616 43.1851 14.7334 44.0292 13.149C44.8733 11.5645 46.2408 10.3221 47.8986 9.6331C49.5565 8.94415 51.4019 8.8514 53.1204 9.37089C54.8389 9.89038 56.3239 10.99 57.3225 12.482C58.321 13.9739 58.7711 15.7661 58.5962 17.5528C58.4212 19.3395 57.6319 21.0102 56.3629 22.2801C55.6451 23.0002 54.7923 23.5718 53.8534 23.962C52.9145 24.3522 51.9078 24.5533 50.891 24.554ZM50.891 10.2171C49.367 10.2144 47.8892 10.7404 46.7096 11.7054C45.53 12.6704 44.7216 14.0145 44.4222 15.5088C44.1229 17.0032 44.351 18.555 45.0679 19.8999C45.7847 21.2449 46.9458 22.2997 48.3532 22.8843C49.7606 23.4689 51.3273 23.5472 52.786 23.106C54.2448 22.6648 55.5054 21.7313 56.3529 20.4646C57.2004 19.198 57.5823 17.6767 57.4336 16.16C57.2849 14.6432 56.6147 13.2249 55.5373 12.147C54.9276 11.5358 54.2035 11.0507 53.4062 10.7195C52.609 10.3884 51.7543 10.2177 50.891 10.2171Z" fill="black"/>
<path d="M50.8909 46.2409C50.8035 46.2408 50.7172 46.2209 50.6385 46.1828C50.5594 46.1455 50.49 46.0905 50.4357 46.0219L47.451 42.3039C47.3585 42.1885 47.3131 42.0425 47.3238 41.895L48.4925 25.9059C48.5006 25.7904 48.5428 25.6798 48.6138 25.5883C48.6848 25.4968 48.7814 25.4283 48.8913 25.3918C48.9642 25.3676 49.0412 25.3583 49.1178 25.364C49.1943 25.3696 49.2691 25.3904 49.3376 25.425C49.4066 25.4593 49.4678 25.5071 49.5176 25.5659C49.6187 25.6838 49.6688 25.837 49.6572 25.9919L48.5056 41.7509L50.8909 44.7219L53.2761 41.7509L52.1245 25.9919C52.1128 25.837 52.1631 25.6837 52.2643 25.5659C52.314 25.5071 52.3752 25.4593 52.4441 25.425C52.5301 25.3816 52.6254 25.3601 52.7216 25.3625C52.8179 25.3649 52.912 25.3913 52.9956 25.4389C53.0793 25.4865 53.1499 25.5539 53.2011 25.6354C53.2523 25.7169 53.2826 25.8099 53.2892 25.9059L54.4579 41.895C54.4687 42.0425 54.4232 42.1885 54.3307 42.3039L51.346 46.0219C51.2918 46.0905 51.2223 46.1455 51.1432 46.1828C51.0645 46.2209 50.9783 46.2408 50.8909 46.2409Z" fill="black"/>
<path d="M39.7559 50.562C39.6792 50.562 39.6032 50.5471 39.5323 50.5181C39.4616 50.4882 39.3973 50.4449 39.3428 50.3909C39.2332 50.281 39.1717 50.1322 39.1719 49.9771V37.085C39.1719 36.9301 39.2334 36.7814 39.3429 36.6719C39.4525 36.5623 39.601 36.501 39.7559 36.501C39.9108 36.501 40.0594 36.5623 40.1689 36.6719C40.2784 36.7814 40.34 36.9301 40.34 37.085V49.9771C40.3399 50.1322 40.2784 50.2809 40.169 50.3909C40.1145 50.445 40.0502 50.4883 39.9795 50.5181C39.9085 50.5471 39.8326 50.562 39.7559 50.562Z" fill="black"/>
<path d="M62.0264 50.562C61.9497 50.562 61.8738 50.5471 61.8029 50.5181C61.7321 50.4882 61.6678 50.4449 61.6133 50.3909C61.5039 50.2808 61.4425 50.1322 61.4424 49.9771V37.085C61.4424 37.0083 61.4575 36.9324 61.4868 36.8616C61.5162 36.7907 61.5592 36.7261 61.6134 36.6719C61.6677 36.6176 61.7321 36.5748 61.8029 36.5454C61.8738 36.5161 61.9497 36.501 62.0264 36.501C62.1031 36.501 62.1791 36.5161 62.2499 36.5454C62.3208 36.5748 62.3852 36.6176 62.4394 36.6719C62.4936 36.7261 62.5367 36.7907 62.566 36.8616C62.5954 36.9324 62.6105 37.0083 62.6105 37.085V49.9771C62.6105 50.1322 62.549 50.281 62.4395 50.3909C62.385 50.445 62.3207 50.4883 62.25 50.5181C62.179 50.5471 62.103 50.562 62.0264 50.562Z" fill="black"/>
<path d="M79.4159 47.637H13.8779V54.5879H79.4158L79.4159 47.637Z" fill="#D6EDFF"/>
<path d="M79.4159 55.1729H13.8781C13.8014 55.1728 13.7254 55.1579 13.6544 55.1289C13.5837 55.0991 13.5194 55.056 13.465 55.002C13.4108 54.9474 13.3678 54.883 13.3383 54.812C13.309 54.741 13.2939 54.6647 13.2939 54.5879V47.637C13.2939 47.4818 13.3554 47.3328 13.465 47.2229C13.5194 47.1688 13.5837 47.1258 13.6544 47.0959C13.7254 47.0669 13.8014 47.052 13.8781 47.052H79.4159C79.4926 47.052 79.5686 47.0669 79.6395 47.0959C79.7103 47.1258 79.7746 47.1688 79.8291 47.2229C79.9385 47.3329 80 47.4818 80 47.637V54.5879C80 54.6648 79.9849 54.741 79.9556 54.812C79.9117 54.919 79.837 55.0106 79.7409 55.075C79.6447 55.1393 79.5316 55.1732 79.4159 55.1729ZM14.4621 54.0029H78.832V48.2219H14.4621V54.0029Z" fill="black"/>
<path d="M18.6789 35.646H28.0845C29.7747 35.6471 31.4482 35.981 33.0093 36.6289C34.5705 37.2768 35.9887 38.2261 37.183 39.4221C38.3774 40.6182 39.3244 42.0375 39.9701 43.5996C40.6157 45.1617 40.9474 46.8356 40.9461 48.5259V59.6741H5.81739V48.5259C5.81606 46.8356 6.1477 45.1617 6.79335 43.5996C7.43901 42.0375 8.38603 40.6182 9.58036 39.4221C10.7747 38.2261 12.1929 37.2768 13.754 36.6289C15.3152 35.981 16.9886 35.6471 18.6789 35.646Z" fill="#D6EDFF"/>
<path d="M40.946 60.259H5.8174C5.74078 60.259 5.6649 60.2441 5.59399 60.2151C5.52328 60.1853 5.45895 60.142 5.4045 60.0879C5.29497 59.9779 5.23345 59.8293 5.2334 59.6741V48.5259C5.23475 44.9585 6.65116 41.5375 9.17188 39.0132C11.6926 36.4889 15.1117 35.0675 18.6791 35.061H28.0844C31.6518 35.0675 35.0709 36.4889 37.5916 39.0132C40.1122 41.5375 41.5286 44.9585 41.53 48.5259V59.6741C41.5301 59.8293 41.4687 59.978 41.3591 60.0879C41.3046 60.1419 41.2403 60.1852 41.1696 60.2151C41.0986 60.2441 41.0227 60.259 40.946 60.259ZM6.4015 59.0889H40.3619V48.5259C40.3604 45.2684 39.067 42.1447 36.7654 39.8396C34.4637 37.5345 31.3418 36.2364 28.0844 36.23H18.6791C15.4216 36.2363 12.2997 37.5345 9.99802 39.8396C7.69637 42.1447 6.40296 45.2684 6.40147 48.5259L6.4015 59.0889Z" fill="black"/>
<path d="M23.3818 34.25C21.5866 34.2536 19.8458 33.6344 18.4561 32.4981C17.0664 31.3617 16.1139 29.7784 15.7608 28.0183C15.4078 26.2582 15.6762 24.4303 16.5203 22.846C17.3643 21.2616 18.7317 20.019 20.3894 19.3301C22.0471 18.6412 23.8924 18.5485 25.6108 19.0679C27.3291 19.5873 28.8142 20.6866 29.8126 22.1785C30.8111 23.6703 31.2613 25.4622 31.0864 27.2488C30.9115 29.0354 30.1223 30.7062 28.8534 31.9761C28.1356 32.6962 27.2829 33.2675 26.344 33.6577C25.4051 34.0479 24.3985 34.2492 23.3818 34.25ZM23.3818 19.9128C21.8575 19.9098 20.3792 20.4355 19.1992 21.4004C18.0191 22.3653 17.2102 23.7098 16.9104 25.2044C16.6106 26.6989 16.8385 28.2511 17.5551 29.5964C18.2718 30.9418 19.4329 31.997 20.8405 32.582C22.2481 33.1671 23.815 33.2457 25.2742 32.8047C26.7333 32.3637 27.9943 31.4301 28.8422 30.1633C29.6901 28.8966 30.0724 27.375 29.9238 25.8579C29.7753 24.3408 29.1052 22.9223 28.0278 21.844C27.4182 21.2327 26.6942 20.7474 25.897 20.416C25.0998 20.0847 24.2451 19.9137 23.3818 19.9128Z" fill="black"/>
<path d="M12.2462 60.259C12.1695 60.2587 12.0935 60.2432 12.0226 60.2139C11.9515 60.1848 11.887 60.1416 11.8331 60.0869C11.7239 59.9772 11.6624 59.8289 11.6621 59.6741V46.781C11.6621 46.6261 11.7236 46.4775 11.8332 46.3679C11.9427 46.2584 12.0913 46.197 12.2462 46.197C12.4011 46.197 12.5496 46.2584 12.6591 46.3679C12.7687 46.4775 12.8302 46.6261 12.8302 46.781V59.6741C12.8301 59.8289 12.7686 59.9773 12.6592 60.0869C12.6053 60.1416 12.5408 60.1848 12.4697 60.2139C12.3988 60.2432 12.3229 60.2587 12.2462 60.259Z" fill="black"/>
<path d="M34.5176 60.259C34.4409 60.2587 34.365 60.2432 34.2941 60.2139C34.223 60.1848 34.1585 60.1416 34.1046 60.0869C33.9954 59.9772 33.9339 59.8289 33.9336 59.6741V46.781C33.9336 46.6261 33.9951 46.4775 34.1047 46.3679C34.2142 46.2584 34.3628 46.197 34.5177 46.197C34.6726 46.197 34.8211 46.2584 34.9306 46.3679C35.0402 46.4775 35.1017 46.6261 35.1017 46.781V59.6741C35.1014 59.8289 35.0399 59.9772 34.9307 60.0869C34.8768 60.1416 34.8123 60.1848 34.7412 60.2139C34.6703 60.2432 34.5944 60.2587 34.5176 60.259Z" fill="black"/>
<path d="M65.5506 18.158C65.4738 18.1581 65.3978 18.1429 65.327 18.113C65.2559 18.084 65.1914 18.0408 65.1375 17.9861C65.0832 17.9321 65.0402 17.8676 65.0109 17.7969C64.9816 17.7258 64.9665 17.6498 64.9665 17.573V12.854H61.5215C61.4449 12.854 61.3689 12.8391 61.298 12.8101C61.1912 12.7655 61.1 12.6903 61.0359 12.594C60.9717 12.4977 60.9375 12.3847 60.9375 12.269V0.584961C60.9376 0.429788 60.999 0.280883 61.1085 0.170898C61.1629 0.116814 61.2273 0.0737451 61.298 0.0439453C61.3689 0.0148953 61.4449 4.62552e-06 61.5215 0H79.4161C79.4928 4.62552e-06 79.5687 0.0148953 79.6396 0.0439453C79.7103 0.0737451 79.7747 0.116814 79.8291 0.170898C79.9386 0.280883 80 0.429788 80.0001 0.584961V12.269C80.0004 12.3459 79.9855 12.4219 79.9563 12.4929C79.9271 12.564 79.8841 12.6285 79.8298 12.6829C79.7755 12.7372 79.711 12.7805 79.64 12.8098C79.569 12.8392 79.4929 12.8542 79.4161 12.854H69.9623L66.0114 17.9319C65.9567 18.002 65.8868 18.0588 65.807 18.0979C65.7272 18.137 65.6395 18.1576 65.5506 18.158ZM62.1056 11.6851H65.5506C65.6273 11.6851 65.7032 11.7 65.7742 11.729C65.8809 11.7734 65.972 11.8482 66.0361 11.9443C66.1003 12.0404 66.1345 12.1535 66.1346 12.269V15.8699L69.2163 11.9099C69.2709 11.8398 69.3408 11.7831 69.4206 11.7441C69.5005 11.7051 69.5882 11.6849 69.6771 11.6851H78.832V1.16992H62.1056V11.6851Z" fill="black"/>
<path d="M14.4495 18.158C14.3606 18.1577 14.2729 18.1371 14.1931 18.0979C14.1133 18.0588 14.0434 18.002 13.9887 17.9319L10.0378 12.854H0.584C0.507349 12.854 0.431438 12.8391 0.360505 12.8101C0.253661 12.7656 0.162387 12.6905 0.0982212 12.5942C0.034055 12.4979 -0.000127178 12.3848 3.55572e-07 12.269V0.584961C-4.36926e-05 0.508114 0.0150042 0.432129 0.0442966 0.361084C0.0738171 0.290138 0.116858 0.225422 0.171006 0.170898C0.225451 0.116814 0.289784 0.0737451 0.360505 0.0439453C0.431438 0.0148953 0.507349 4.62552e-06 0.584 0H18.4786C18.5553 4.62552e-06 18.6312 0.0148953 18.7021 0.0439453C18.7728 0.0737451 18.8372 0.116814 18.8916 0.170898C18.9457 0.225422 18.9888 0.290138 19.0183 0.361084C19.0476 0.432129 19.0627 0.508114 19.0626 0.584961V12.269C19.0629 12.3459 19.048 12.4219 19.0188 12.4929C18.9896 12.564 18.9466 12.6285 18.8923 12.6829C18.838 12.7372 18.7735 12.7805 18.7025 12.8098C18.6315 12.8392 18.5554 12.8542 18.4786 12.854H15.0336V17.573C15.0336 17.6498 15.0185 17.7258 14.9892 17.7969C14.96 17.8677 14.9169 17.9321 14.8626 17.9861C14.8087 18.0408 14.7442 18.084 14.6731 18.113C14.6023 18.1429 14.5263 18.1581 14.4495 18.158ZM1.16811 11.6851H10.323C10.4119 11.6849 10.4996 11.7051 10.5795 11.7441C10.6594 11.7831 10.7292 11.8398 10.7838 11.9099L13.8655 15.8699V12.269C13.8658 12.1142 13.9273 11.9657 14.0364 11.856C14.0904 11.8013 14.1548 11.7581 14.2259 11.729C14.2969 11.7 14.3728 11.6851 14.4495 11.6851H17.8945V1.16992H1.16811V11.6851Z" fill="black"/>
</svg>
