<svg width="240" height="276" viewBox="0 0 240 276" fill="none" xmlns="http://www.w3.org/2000/svg">
<path d="M78.7415 51.4936L73.5079 46.2591C74.5343 44.934 75.0432 43.2806 74.94 41.6076C74.8367 39.9347 74.1284 38.3565 72.9469 37.1675L57.862 22.0826L58.4709 21.4737C58.5528 21.3918 58.6178 21.2946 58.6622 21.1875C58.7065 21.0805 58.7294 20.9657 58.7294 20.8498C58.7294 20.734 58.7065 20.6192 58.6622 20.5122C58.6178 20.4051 58.5528 20.3079 58.4709 20.226L51.5026 13.2585C51.4207 13.1766 51.3233 13.1116 51.2163 13.0672C51.1092 13.0229 50.9945 13 50.8787 13C50.7628 13 50.6481 13.0229 50.5411 13.0672C50.434 13.1116 50.3367 13.1766 50.2547 13.2585L39.2585 24.2557C39.1766 24.3376 39.1116 24.4349 39.0672 24.5419C39.0229 24.649 39 24.7637 39 24.8796C39 24.9955 39.0229 25.1102 39.0672 25.2172C39.1116 25.3243 39.1766 25.4216 39.2585 25.5035L46.2251 32.4709C46.307 32.5529 46.4044 32.6179 46.5114 32.6622C46.6185 32.7066 46.7331 32.7294 46.849 32.7294C46.9649 32.7294 47.0796 32.7066 47.1866 32.6622C47.2937 32.6179 47.391 32.5529 47.4729 32.4709L48.0826 31.8612L63.1675 46.9461C64.3513 48.1372 65.9311 48.8523 67.6072 48.9557C69.2832 49.0591 70.9389 48.5436 72.2601 47.507L77.4936 52.7415C77.5753 52.8248 77.6725 52.8911 77.7799 52.9366C77.8874 52.982 78.0027 53.0057 78.1193 53.0063C78.2359 53.0068 78.3516 52.9843 78.4595 52.9399C78.5673 52.8956 78.6653 52.8303 78.7477 52.7478C78.8302 52.6654 78.8955 52.5674 78.9399 52.4595C78.9843 52.3517 79.0068 52.2361 79.0063 52.1194C79.0057 52.0028 78.9819 51.8875 78.9364 51.7801C78.891 51.6727 78.8248 51.5753 78.7415 51.4936ZM46.849 30.5991L41.1303 24.8795L50.8787 15.1303L56.5991 20.8499L46.849 30.5991ZM71.6991 45.6982C70.7324 46.6626 69.4227 47.2042 68.0572 47.2042C66.6917 47.2042 65.3818 46.6626 64.4152 45.6982L49.3307 30.6138L56.6146 23.3309L59.6446 26.3607L57.8039 28.1999C57.7206 28.2816 57.6541 28.3789 57.6087 28.4863C57.5632 28.5937 57.5397 28.7091 57.5391 28.8257C57.5385 28.9423 57.5609 29.0579 57.6052 29.1658C57.6496 29.2736 57.7149 29.3716 57.7974 29.4541C57.8799 29.5365 57.9778 29.6018 58.0857 29.6462C58.1935 29.6906 58.3092 29.7131 58.4258 29.7125C58.5425 29.7119 58.6578 29.6882 58.7652 29.6428C58.8726 29.5973 58.9699 29.531 59.0515 29.4477L60.8925 27.6085L64.3258 31.0419L62.4848 32.8819C62.4015 32.9635 62.3353 33.0609 62.2898 33.1683C62.2444 33.2757 62.2206 33.391 62.22 33.5076C62.2194 33.6243 62.242 33.7399 62.2864 33.8477C62.3307 33.9556 62.3961 34.0536 62.4785 34.136C62.561 34.2185 62.6589 34.2838 62.7668 34.3282C62.8747 34.3725 62.9904 34.395 63.107 34.3945C63.2236 34.3939 63.3389 34.3702 63.4463 34.3247C63.5537 34.2793 63.651 34.213 63.7326 34.1297L65.5734 32.2897L69.0067 35.723L67.1659 37.563C67.0826 37.6446 67.0164 37.7419 66.971 37.8494C66.9255 37.9568 66.9017 38.0721 66.9012 38.1887C66.9006 38.3054 66.9232 38.4209 66.9675 38.5288C67.0119 38.6366 67.0772 38.7347 67.1597 38.8171C67.2422 38.8996 67.3401 38.9649 67.448 39.0092C67.5558 39.0536 67.6713 39.0761 67.7879 39.0755C67.9045 39.075 68.0201 39.0512 68.1275 39.0058C68.2349 38.9604 68.3322 38.8941 68.4138 38.8108L70.2545 36.9708L71.6989 38.4152C72.6625 39.3821 73.2037 40.6916 73.2037 42.0567C73.2038 43.4218 72.6627 44.7313 71.6991 45.6982Z" fill="black"/>
<path d="M13.2137 82.0063H10.0777V71.7863H13.2137C16.3917 71.7863 18.5897 74.0403 18.5897 76.8823C18.5897 79.7523 16.4757 82.0063 13.2137 82.0063ZM11.5197 73.2003V80.5783H13.2137C15.6497 80.5783 17.0917 78.9123 17.0917 76.8683C17.0917 74.8943 15.5657 73.2003 13.2137 73.2003H11.5197ZM23.9133 82.1183C21.5753 82.1183 19.8253 80.3263 19.8253 78.1423C19.8253 75.9723 21.5753 74.2083 23.7313 74.2083C25.9713 74.2083 27.6373 75.9723 27.6373 78.1423C27.6373 78.3243 27.6093 78.5903 27.5953 78.7863H21.2953C21.5053 79.9483 22.5833 80.8303 23.9133 80.8303C24.8653 80.8303 25.6213 80.4383 26.1113 79.8363L27.2173 80.5223C26.4893 81.4883 25.2153 82.1183 23.9133 82.1183ZM21.2813 77.6663H26.2233C26.1533 76.4763 25.1593 75.4823 23.7453 75.4823C22.3873 75.4823 21.3653 76.4763 21.2813 77.6663ZM32.3335 82.0063H30.9755L27.9515 74.3063H29.4215L31.6615 79.9623L33.8875 74.3063H35.3575L32.3335 82.0063ZM39.759 82.1183C37.421 82.1183 35.671 80.3263 35.671 78.1423C35.671 75.9723 37.421 74.2083 39.577 74.2083C41.817 74.2083 43.483 75.9723 43.483 78.1423C43.483 78.3243 43.455 78.5903 43.441 78.7863H37.141C37.351 79.9483 38.429 80.8303 39.759 80.8303C40.711 80.8303 41.467 80.4383 41.957 79.8363L43.063 80.5223C42.335 81.4883 41.061 82.1183 39.759 82.1183ZM37.127 77.6663H42.069C41.999 76.4763 41.005 75.4823 39.591 75.4823C38.233 75.4823 37.211 76.4763 37.127 77.6663ZM46.282 82.0063H44.924V71.0863H46.282V82.0063ZM51.7733 82.1183C49.5893 82.1183 47.8253 80.3263 47.8253 78.1423C47.8253 75.9723 49.5893 74.2083 51.7733 74.2083C53.9433 74.2083 55.7213 75.9723 55.7213 78.1423C55.7213 80.3263 53.9433 82.1183 51.7733 82.1183ZM51.7733 80.7183C53.1873 80.7183 54.3353 79.5703 54.3353 78.1423C54.3353 76.7423 53.1873 75.5943 51.7733 75.5943C50.3453 75.5943 49.2113 76.7423 49.2113 78.1423C49.2113 79.5703 50.3453 80.7183 51.7733 80.7183ZM58.532 85.0863H57.174V74.3063H58.434L58.504 75.9023C58.966 74.9503 60.1 74.2083 61.36 74.2083C63.432 74.2083 65.112 75.9723 65.112 78.1423C65.112 80.3263 63.432 82.1183 61.36 82.1183C60.114 82.1183 58.994 81.3763 58.532 80.4243V85.0863ZM61.15 80.7603C62.578 80.7603 63.74 79.5843 63.74 78.1423C63.74 76.7143 62.578 75.5523 61.15 75.5523C59.694 75.5523 58.532 76.7143 58.532 78.1423C58.532 79.5843 59.694 80.7603 61.15 80.7603ZM68.0203 82.0063H66.6623V74.3063H67.9223L67.9923 75.5803C68.3843 74.6843 69.2523 74.1943 70.0923 74.1943C71.3243 74.1943 72.1223 74.9083 72.4443 75.8323C72.7663 74.9223 73.5643 74.1943 74.6843 74.1943C76.3223 74.1943 77.5403 75.2443 77.5403 77.9183V82.0063H76.1683V77.9183C76.1683 76.1543 75.3843 75.5383 74.4743 75.5383C73.6203 75.5383 72.7803 76.1543 72.7803 77.9183V82.0063H71.4083V77.9183C71.4083 76.1543 70.6243 75.5383 69.7143 75.5383C68.8043 75.5383 68.0203 76.3223 68.0203 78.0863V82.0063ZM83.0168 82.1183C80.6788 82.1183 78.9288 80.3263 78.9288 78.1423C78.9288 75.9723 80.6788 74.2083 82.8348 74.2083C85.0748 74.2083 86.7408 75.9723 86.7408 78.1423C86.7408 78.3243 86.7128 78.5903 86.6988 78.7863H80.3988C80.6088 79.9483 81.6868 80.8303 83.0168 80.8303C83.9688 80.8303 84.7248 80.4383 85.2148 79.8363L86.3208 80.5223C85.5928 81.4883 84.3188 82.1183 83.0168 82.1183ZM80.3848 77.6663H85.3268C85.2568 76.4763 84.2628 75.4823 82.8488 75.4823C81.4908 75.4823 80.4688 76.4763 80.3848 77.6663ZM89.6355 82.0063H88.2775V74.3063H89.5375L89.6075 75.6643C90.0275 74.8523 90.8535 74.1943 92.0295 74.1943C93.8215 74.1943 95.1795 75.4263 95.1795 78.0863V82.0063H93.8075V78.0863C93.8075 76.3363 92.8555 75.5383 91.7215 75.5383C90.6015 75.5383 89.6355 76.3223 89.6355 78.0863V82.0063ZM99.7761 82.1323C98.3621 82.1323 97.1861 81.2783 97.1861 79.1363V75.5383H96.1501V74.3063H97.2281L97.3961 71.7863H98.5441V74.3063H100.392V75.5383H98.5441V79.1223C98.5441 80.2283 99.0901 80.8023 99.9581 80.8023C100.154 80.8023 100.364 80.7743 100.546 80.7043L100.896 81.9223C100.574 82.0623 100.182 82.1323 99.7761 82.1323ZM105.384 82.1463C104.278 82.1463 102.85 81.7823 101.954 80.8023L102.892 79.9063C103.41 80.4803 104.418 80.8583 105.384 80.8583C106.392 80.8583 107.092 80.4663 107.092 79.7943C107.092 78.2123 102.22 79.1783 102.22 76.3223C102.22 75.0623 103.368 74.1803 105.132 74.1803C106.126 74.1803 107.386 74.4463 108.226 75.4543L107.386 76.2943C106.854 75.6503 105.888 75.4123 105.174 75.4123C104.25 75.4123 103.592 75.7483 103.592 76.3363C103.592 77.7363 108.464 76.8683 108.464 79.7523C108.464 81.4043 106.994 82.1463 105.384 82.1463ZM25.2411 95.5383V102.02L23.8831 101.992V95.5383H22.9031V94.3063H23.8831V94.0123C23.8831 91.6883 25.1011 90.8763 26.5711 90.8763C26.9211 90.8763 27.3271 90.9463 27.6071 91.0443L27.2431 92.2623C27.0751 92.2343 26.8651 92.1923 26.6831 92.1923C25.8151 92.1923 25.2411 92.6263 25.2411 94.0123V94.3063H27.2291V95.5383H25.2411ZM31.7919 102.118C29.6079 102.118 27.8439 100.326 27.8439 98.1423C27.8439 95.9723 29.6079 94.2083 31.7919 94.2083C33.9619 94.2083 35.7399 95.9723 35.7399 98.1423C35.7399 100.326 33.9619 102.118 31.7919 102.118ZM31.7919 100.718C33.2059 100.718 34.3539 99.5703 34.3539 98.1423C34.3539 96.7423 33.2059 95.5943 31.7919 95.5943C30.3639 95.5943 29.2299 96.7423 29.2299 98.1423C29.2299 99.5703 30.3639 100.718 31.7919 100.718ZM38.6463 102.006H37.2883V94.3063H38.5483L38.6323 95.5663C39.0803 94.7403 39.9483 94.2503 41.0823 94.2643C41.2783 94.2643 41.4743 94.2783 41.6563 94.3063L41.3763 95.6223C41.2923 95.6083 41.1943 95.5943 41.1103 95.5943C39.8083 95.5943 38.6463 96.3223 38.6463 98.4503V102.006ZM48.1332 102.006H46.8312V91.0863H48.1332V97.7503L51.5772 94.3063H53.2012L50.2612 97.3723L53.5932 102.006H51.9832L49.3792 98.3943L48.1332 99.5983V102.006ZM55.4993 105.17C54.9393 105.17 54.5193 105.072 54.0853 104.89L54.4913 103.672C54.7293 103.77 55.1213 103.868 55.4433 103.868C56.3113 103.868 56.8713 103.042 57.3193 101.852L54.2393 94.3063H55.7093L57.9493 100.004L60.1753 94.3063H61.6313L58.6913 102.006C57.8513 104.218 56.9693 105.17 55.4993 105.17ZM64.1717 105.086H62.8137V94.3063H64.0737L64.1437 95.9023C64.6057 94.9503 65.7397 94.2083 66.9997 94.2083C69.0717 94.2083 70.7517 95.9723 70.7517 98.1423C70.7517 100.326 69.0717 102.118 66.9997 102.118C65.7537 102.118 64.6337 101.376 64.1717 100.424V105.086ZM66.7897 100.76C68.2177 100.76 69.3797 99.5843 69.3797 98.1423C69.3797 96.7143 68.2177 95.5523 66.7897 95.5523C65.3337 95.5523 64.1717 96.7143 64.1717 98.1423C64.1717 99.5843 65.3337 100.76 66.7897 100.76ZM73.5642 102.006H72.2062V91.0863H73.5642V95.6363C73.9842 94.8383 74.8102 94.1943 75.9582 94.1943C77.7502 94.1943 79.1082 95.4263 79.1082 98.0863V102.006H77.7362V98.0863C77.7362 96.3363 76.7842 95.5383 75.6502 95.5383C74.5302 95.5383 73.5642 96.3223 73.5642 98.0863V102.006ZM84.4286 102.118C82.2446 102.118 80.4806 100.326 80.4806 98.1423C80.4806 95.9723 82.2446 94.2083 84.4286 94.2083C86.5986 94.2083 88.3766 95.9723 88.3766 98.1423C88.3766 100.326 86.5986 102.118 84.4286 102.118ZM84.4286 100.718C85.8426 100.718 86.9906 99.5703 86.9906 98.1423C86.9906 96.7423 85.8426 95.5943 84.4286 95.5943C83.0006 95.5943 81.8666 96.7423 81.8666 98.1423C81.8666 99.5703 83.0006 100.718 84.4286 100.718ZM94.755 97.4563H89.603V96.3223H94.755V97.4563ZM39.8631 125.086H38.5051V114.306H39.7651L39.8351 115.902C40.2971 114.95 41.4311 114.208 42.6911 114.208C44.7631 114.208 46.4431 115.972 46.4431 118.142C46.4431 120.326 44.7631 122.118 42.6911 122.118C41.4451 122.118 40.3251 121.376 39.8631 120.424V125.086ZM42.4811 120.76C43.9091 120.76 45.0711 119.584 45.0711 118.142C45.0711 116.714 43.9091 115.552 42.4811 115.552C41.0251 115.552 39.8631 116.714 39.8631 118.142C39.8631 119.584 41.0251 120.76 42.4811 120.76ZM49.2556 122.006H47.8976V111.086H49.2556V122.006ZM54.5509 122.104C52.4789 122.104 50.7989 120.326 50.7989 118.156C50.7989 115.972 52.4789 114.194 54.5509 114.194C55.8109 114.194 56.9449 114.95 57.4209 115.93L57.4909 114.306H58.7509V122.006H57.4909L57.4209 120.396C56.9449 121.362 55.8109 122.104 54.5509 122.104ZM54.7749 120.746C56.2169 120.746 57.3789 119.584 57.3789 118.156C57.3789 116.714 56.2169 115.538 54.7749 115.538C53.3469 115.538 52.1849 116.714 52.1849 118.156C52.1849 119.584 53.3469 120.746 54.7749 120.746ZM63.5138 122.146C62.4078 122.146 60.9798 121.782 60.0838 120.802L61.0218 119.906C61.5398 120.48 62.5478 120.858 63.5138 120.858C64.5218 120.858 65.2218 120.466 65.2218 119.794C65.2218 118.212 60.3498 119.178 60.3498 116.322C60.3498 115.062 61.4978 114.18 63.2618 114.18C64.2558 114.18 65.5158 114.446 66.3558 115.454L65.5158 116.294C64.9838 115.65 64.0178 115.412 63.3038 115.412C62.3798 115.412 61.7218 115.748 61.7218 116.336C61.7218 117.736 66.5938 116.868 66.5938 119.752C66.5938 121.404 65.1238 122.146 63.5138 122.146ZM71.1541 122.132C69.7401 122.132 68.5641 121.278 68.5641 119.136V115.538H67.5281V114.306H68.6061L68.7741 111.786H69.9221V114.306H71.7701V115.538H69.9221V119.122C69.9221 120.228 70.4681 120.802 71.3361 120.802C71.5321 120.802 71.7421 120.774 71.9241 120.704L72.2741 121.922C71.9521 122.062 71.5601 122.132 71.1541 122.132ZM74.2024 125.17C73.6424 125.17 73.2224 125.072 72.7884 124.89L73.1944 123.672C73.4324 123.77 73.8244 123.868 74.1464 123.868C75.0144 123.868 75.5744 123.042 76.0224 121.852L72.9424 114.306H74.4124L76.6524 120.004L78.8784 114.306H80.3344L77.3944 122.006C76.5544 124.218 75.6724 125.17 74.2024 125.17Z" fill="black"/>
<path d="M66.3549 172.503C65.5085 172.464 64.6651 172.631 63.8972 172.991C63.1293 173.35 62.4597 173.891 61.9457 174.568C61.0786 175.913 60.6173 177.48 60.6176 179.082C60.6178 180.684 61.0795 182.252 61.947 183.597C62.483 184.246 63.1551 184.769 63.9154 185.128C64.6758 185.487 65.5055 185.674 66.3457 185.674C67.186 185.674 68.016 185.488 68.7765 185.13C69.5371 184.771 70.2094 184.249 70.7458 183.6C71.6341 182.261 72.1081 180.689 72.1081 179.081C72.1081 177.472 71.6341 175.9 70.7458 174.562C70.2341 173.888 69.5674 173.349 68.8027 172.99C68.038 172.632 67.1981 172.465 66.3549 172.503ZM69.2664 182.478C68.9129 182.91 68.4686 183.257 67.9655 183.496C67.4624 183.735 66.9129 183.859 66.3564 183.859C65.7999 183.859 65.2502 183.736 64.7469 183.498C64.2435 183.26 63.7988 182.913 63.4448 182.482C62.8486 181.45 62.5346 180.279 62.5348 179.086C62.5351 177.894 62.8495 176.723 63.4461 175.691C63.8002 175.261 64.2449 174.914 64.7483 174.676C65.2517 174.438 65.8014 174.314 66.3579 174.315C66.9144 174.315 67.4637 174.439 67.9668 174.678C68.4699 174.917 68.9142 175.264 69.2677 175.695C69.8731 176.722 70.1924 177.894 70.1922 179.087C70.1919 180.28 69.8722 181.452 69.2664 182.478ZM58.1703 180.428L57.9034 180.396C57.7352 180.396 57.5699 180.44 57.4234 180.523C57.3028 180.595 57.1992 180.692 57.12 180.808C57.0407 180.924 56.9876 181.057 56.9645 181.195C56.8413 182.008 56.4322 182.749 55.8112 183.285C55.2284 183.683 54.5322 183.88 53.8282 183.844C53.3428 183.867 52.8588 183.777 52.4134 183.582C51.9679 183.388 51.573 183.093 51.2586 182.721C50.5652 181.643 50.1963 180.387 50.1961 179.104C50.1959 177.82 50.5643 176.564 51.2573 175.486C51.5695 175.109 51.9635 174.809 52.4091 174.608C52.8547 174.408 53.3402 174.313 53.8282 174.33C54.5387 174.3 55.2409 174.493 55.8375 174.882C56.125 175.091 56.3681 175.355 56.5525 175.659C56.737 175.964 56.8592 176.302 56.9119 176.654C56.9281 176.798 56.9748 176.937 57.0489 177.061C57.1231 177.186 57.223 177.293 57.3419 177.375C57.48 177.476 57.6446 177.534 57.8153 177.542L58.0638 177.514C58.3101 177.461 58.5265 177.315 58.6674 177.106C58.8177 176.884 58.8769 176.613 58.8329 176.349C58.6659 175.306 58.1473 174.353 57.3641 173.648C56.3631 172.849 55.1069 172.442 53.8293 172.503C53.0655 172.48 52.3066 172.633 51.611 172.951C50.9155 173.268 50.3018 173.742 49.8172 174.335C48.8199 175.723 48.2831 177.391 48.2826 179.102C48.2821 180.813 48.8181 182.481 49.8146 183.87C50.7623 184.913 52.0714 185.553 53.4739 185.659C54.8765 185.765 56.2663 185.329 57.3588 184.44C58.1369 183.7 58.6721 182.74 58.8934 181.687C58.9311 181.546 58.9393 181.399 58.9176 181.255C58.8958 181.111 58.8446 180.973 58.7672 180.85C58.6306 180.637 58.4165 180.485 58.1703 180.428ZM79.6405 173.088L79.5116 173.043L79.4722 172.912C78.3605 169.253 76.1301 166.038 73.097 163.722C70.0639 161.406 66.3817 160.106 62.5718 160.006C58.7619 159.907 55.0173 161.012 51.8683 163.167C48.7192 165.322 46.3254 168.416 45.0255 172.012L44.9952 172.095L44.9229 172.145C42.5508 173.723 40.7487 176.026 39.7838 178.713C38.819 181.4 38.7428 184.328 39.5667 187.062C40.3906 189.796 42.0706 192.191 44.3574 193.891C46.6443 195.591 49.4162 196.506 52.262 196.499C53.7659 196.495 55.2577 196.229 56.6712 195.714L56.7554 195.684L56.8408 195.71C61.0129 196.988 65.5049 196.704 69.4847 194.912L69.6096 194.856L69.728 194.924C71.5559 195.968 73.6248 196.511 75.7277 196.499C77.8305 196.488 79.8933 195.922 81.7098 194.859C83.5263 193.795 85.0327 192.272 86.078 190.44C87.1233 188.609 87.6709 186.534 87.666 184.423C87.6827 181.927 86.9164 179.49 85.476 177.455C84.0356 175.421 81.9941 173.893 79.6405 173.088ZM75.6337 194.571C73.7009 194.567 71.8103 194.004 70.1882 192.949L69.7319 192.655L69.2427 192.893C65.4401 194.776 61.0525 195.084 57.0263 193.749L56.7001 193.639L56.3793 193.766C53.7499 194.808 50.8271 194.823 48.1871 193.809C45.547 192.795 43.3812 190.825 42.1163 188.288C40.8515 185.75 40.5795 182.83 41.3538 180.101C42.1281 177.372 43.8927 175.034 46.2997 173.546L46.593 173.363L46.7034 173.036C47.8162 169.713 49.9662 166.839 52.8347 164.84C55.7031 162.84 59.1373 161.822 62.6277 161.936C66.1182 162.05 69.4791 163.29 72.212 165.473C74.9449 167.655 76.9043 170.663 77.7995 174.051L77.9376 174.577L78.4596 174.729C80.5606 175.327 82.4093 176.598 83.7244 178.348C85.0396 180.098 85.7491 182.231 85.7448 184.423C85.7417 187.114 84.6753 189.693 82.7798 191.596C80.8842 193.498 78.3143 194.568 75.6337 194.571ZM78.8686 187.89H75.2865L75.6652 187.444C76.0877 187.002 76.5703 186.623 77.0986 186.318L77.3064 186.17C77.9053 185.824 78.4554 185.4 78.9422 184.908C79.4409 184.315 79.7007 183.556 79.6707 182.781C79.6784 182.401 79.6109 182.024 79.4723 181.67C79.3338 181.317 79.1268 180.994 78.8633 180.722C78.5522 180.418 78.1841 180.18 77.7804 180.021C77.3768 179.862 76.9456 179.786 76.5121 179.796C76.0792 179.784 75.6484 179.861 75.2459 180.021C74.8434 180.181 74.4774 180.422 74.1701 180.728C73.9093 181.001 73.7048 181.323 73.5683 181.675C73.4318 182.028 73.3659 182.404 73.3745 182.782V183.083C73.3687 183.371 73.4743 183.65 73.669 183.861C73.8666 184.044 74.1272 184.143 74.3961 184.137C74.6484 184.145 74.894 184.055 75.0812 183.885C75.1866 183.787 75.2706 183.669 75.3274 183.537C75.3843 183.405 75.4128 183.263 75.4113 183.119V182.782C75.4043 182.651 75.4243 182.52 75.4698 182.397C75.5152 182.274 75.5852 182.161 75.6756 182.066C75.7836 181.955 75.9151 181.868 76.0604 181.814C76.2057 181.759 76.3613 181.738 76.5159 181.751C76.6746 181.738 76.8341 181.761 76.9834 181.816C77.1326 181.872 77.2679 181.96 77.3798 182.073C77.468 182.168 77.5364 182.279 77.5807 182.401C77.625 182.523 77.6443 182.652 77.6376 182.782C77.6514 183.146 77.5263 183.502 77.2878 183.776C76.8595 184.182 76.383 184.533 75.8689 184.822C75.0823 185.265 74.4026 185.876 73.878 186.613C73.3814 187.382 73.1296 188.284 73.156 189.2L73.1613 189.851H78.8697C79.1299 189.852 79.3796 189.749 79.5644 189.565C79.7492 189.381 79.8541 189.132 79.856 188.871C79.8571 188.742 79.8328 188.614 79.7845 188.495C79.7362 188.376 79.6649 188.268 79.5746 188.177C79.4817 188.085 79.3715 188.012 79.2503 187.962C79.1291 187.913 78.9994 187.888 78.8686 187.89Z" fill="black"/>
<path d="M17.5438 225.499H14.4078V215.279H17.5438C20.7218 215.279 22.9198 217.533 22.9198 220.375C22.9198 223.245 20.8058 225.499 17.5438 225.499ZM15.8498 216.693V224.071H17.5438C19.9798 224.071 21.4218 222.405 21.4218 220.361C21.4218 218.387 19.8958 216.693 17.5438 216.693H15.8498ZM28.2434 225.611C25.9054 225.611 24.1554 223.819 24.1554 221.635C24.1554 219.465 25.9054 217.701 28.0614 217.701C30.3014 217.701 31.9674 219.465 31.9674 221.635C31.9674 221.817 31.9394 222.083 31.9254 222.279H25.6254C25.8354 223.441 26.9134 224.323 28.2434 224.323C29.1954 224.323 29.9514 223.931 30.4414 223.329L31.5474 224.015C30.8194 224.981 29.5454 225.611 28.2434 225.611ZM25.6114 221.159H30.5534C30.4834 219.969 29.4894 218.975 28.0754 218.975C26.7174 218.975 25.6954 219.969 25.6114 221.159ZM36.6636 225.499H35.3056L32.2816 217.799H33.7516L35.9916 223.455L38.2176 217.799H39.6876L36.6636 225.499ZM44.0891 225.611C41.7511 225.611 40.0011 223.819 40.0011 221.635C40.0011 219.465 41.7511 217.701 43.9071 217.701C46.1471 217.701 47.8131 219.465 47.8131 221.635C47.8131 221.817 47.7851 222.083 47.7711 222.279H41.4711C41.6811 223.441 42.7591 224.323 44.0891 224.323C45.0411 224.323 45.7971 223.931 46.2871 223.329L47.3931 224.015C46.6651 224.981 45.3911 225.611 44.0891 225.611ZM41.4571 221.159H46.3991C46.3291 219.969 45.3351 218.975 43.9211 218.975C42.5631 218.975 41.5411 219.969 41.4571 221.159ZM50.6121 225.499H49.2541V214.579H50.6121V225.499ZM56.1034 225.611C53.9194 225.611 52.1554 223.819 52.1554 221.635C52.1554 219.465 53.9194 217.701 56.1034 217.701C58.2734 217.701 60.0514 219.465 60.0514 221.635C60.0514 223.819 58.2734 225.611 56.1034 225.611ZM56.1034 224.211C57.5174 224.211 58.6654 223.063 58.6654 221.635C58.6654 220.235 57.5174 219.087 56.1034 219.087C54.6754 219.087 53.5414 220.235 53.5414 221.635C53.5414 223.063 54.6754 224.211 56.1034 224.211ZM62.8621 228.579H61.5041V217.799H62.7641L62.8341 219.395C63.2961 218.443 64.4301 217.701 65.6901 217.701C67.7621 217.701 69.4421 219.465 69.4421 221.635C69.4421 223.819 67.7621 225.611 65.6901 225.611C64.4441 225.611 63.3241 224.869 62.8621 223.917V228.579ZM65.4801 224.253C66.9081 224.253 68.0701 223.077 68.0701 221.635C68.0701 220.207 66.9081 219.045 65.4801 219.045C64.0241 219.045 62.8621 220.207 62.8621 221.635C62.8621 223.077 64.0241 224.253 65.4801 224.253ZM72.3504 225.499H70.9924V217.799H72.2524L72.3224 219.073C72.7144 218.177 73.5824 217.687 74.4224 217.687C75.6544 217.687 76.4524 218.401 76.7744 219.325C77.0964 218.415 77.8944 217.687 79.0144 217.687C80.6524 217.687 81.8704 218.737 81.8704 221.411V225.499H80.4984V221.411C80.4984 219.647 79.7144 219.031 78.8044 219.031C77.9504 219.031 77.1104 219.647 77.1104 221.411V225.499H75.7384V221.411C75.7384 219.647 74.9544 219.031 74.0444 219.031C73.1344 219.031 72.3504 219.815 72.3504 221.579V225.499ZM87.3469 225.611C85.0089 225.611 83.2589 223.819 83.2589 221.635C83.2589 219.465 85.0089 217.701 87.1649 217.701C89.4049 217.701 91.0709 219.465 91.0709 221.635C91.0709 221.817 91.0429 222.083 91.0289 222.279H84.7289C84.9389 223.441 86.0169 224.323 87.3469 224.323C88.2989 224.323 89.0549 223.931 89.5449 223.329L90.6509 224.015C89.9229 224.981 88.6489 225.611 87.3469 225.611ZM84.7149 221.159H89.6569C89.5869 219.969 88.5929 218.975 87.1789 218.975C85.8209 218.975 84.7989 219.969 84.7149 221.159ZM93.9656 225.499H92.6076V217.799H93.8676L93.9376 219.157C94.3576 218.345 95.1836 217.687 96.3596 217.687C98.1516 217.687 99.5096 218.919 99.5096 221.579V225.499H98.1376V221.579C98.1376 219.829 97.1856 219.031 96.0516 219.031C94.9316 219.031 93.9656 219.815 93.9656 221.579V225.499ZM104.106 225.625C102.692 225.625 101.516 224.771 101.516 222.629V219.031H100.48V217.799H101.558L101.726 215.279H102.874V217.799H104.722V219.031H102.874V222.615C102.874 223.721 103.42 224.295 104.288 224.295C104.484 224.295 104.694 224.267 104.876 224.197L105.226 225.415C104.904 225.555 104.512 225.625 104.106 225.625ZM109.714 225.639C108.608 225.639 107.18 225.275 106.284 224.295L107.222 223.399C107.74 223.973 108.748 224.351 109.714 224.351C110.722 224.351 111.422 223.959 111.422 223.287C111.422 221.705 106.55 222.671 106.55 219.815C106.55 218.555 107.698 217.673 109.462 217.673C110.456 217.673 111.716 217.939 112.556 218.947L111.716 219.787C111.184 219.143 110.218 218.905 109.504 218.905C108.58 218.905 107.922 219.241 107.922 219.829C107.922 221.229 112.794 220.361 112.794 223.245C112.794 224.897 111.324 225.639 109.714 225.639ZM29.5711 239.031V245.513L28.2131 245.485V239.031H27.2331V237.799H28.2131V237.505C28.2131 235.181 29.4311 234.369 30.9011 234.369C31.2511 234.369 31.6571 234.439 31.9371 234.537L31.5731 235.755C31.4051 235.727 31.1951 235.685 31.0131 235.685C30.1451 235.685 29.5711 236.119 29.5711 237.505V237.799H31.5591V239.031H29.5711ZM36.1219 245.611C33.9379 245.611 32.1739 243.819 32.1739 241.635C32.1739 239.465 33.9379 237.701 36.1219 237.701C38.2919 237.701 40.0699 239.465 40.0699 241.635C40.0699 243.819 38.2919 245.611 36.1219 245.611ZM36.1219 244.211C37.5359 244.211 38.6839 243.063 38.6839 241.635C38.6839 240.235 37.5359 239.087 36.1219 239.087C34.6939 239.087 33.5599 240.235 33.5599 241.635C33.5599 243.063 34.6939 244.211 36.1219 244.211ZM42.9764 245.499H41.6184V237.799H42.8784L42.9624 239.059C43.4104 238.233 44.2784 237.743 45.4124 237.757C45.6084 237.757 45.8044 237.771 45.9864 237.799L45.7064 239.115C45.6224 239.101 45.5244 239.087 45.4404 239.087C44.1384 239.087 42.9764 239.815 42.9764 241.943V245.499ZM52.4633 245.499H51.1613V234.579H52.4633V241.243L55.9073 237.799H57.5313L54.5913 240.865L57.9233 245.499H56.3133L53.7093 241.887L52.4633 243.091V245.499ZM59.8294 248.663C59.2694 248.663 58.8494 248.565 58.4154 248.383L58.8214 247.165C59.0594 247.263 59.4514 247.361 59.7734 247.361C60.6414 247.361 61.2014 246.535 61.6494 245.345L58.5694 237.799H60.0394L62.2794 243.497L64.5054 237.799H65.9614L63.0214 245.499C62.1814 247.711 61.2994 248.663 59.8294 248.663ZM68.5017 248.579H67.1437V237.799H68.4037L68.4737 239.395C68.9357 238.443 70.0697 237.701 71.3297 237.701C73.4017 237.701 75.0817 239.465 75.0817 241.635C75.0817 243.819 73.4017 245.611 71.3297 245.611C70.0837 245.611 68.9637 244.869 68.5017 243.917V248.579ZM71.1197 244.253C72.5477 244.253 73.7097 243.077 73.7097 241.635C73.7097 240.207 72.5477 239.045 71.1197 239.045C69.6637 239.045 68.5017 240.207 68.5017 241.635C68.5017 243.077 69.6637 244.253 71.1197 244.253ZM77.8943 245.499H76.5363V234.579H77.8943V239.129C78.3143 238.331 79.1403 237.687 80.2883 237.687C82.0803 237.687 83.4383 238.919 83.4383 241.579V245.499H82.0663V241.579C82.0663 239.829 81.1143 239.031 79.9803 239.031C78.8603 239.031 77.8943 239.815 77.8943 241.579V245.499ZM88.7586 245.611C86.5746 245.611 84.8106 243.819 84.8106 241.635C84.8106 239.465 86.5746 237.701 88.7586 237.701C90.9286 237.701 92.7066 239.465 92.7066 241.635C92.7066 243.819 90.9286 245.611 88.7586 245.611ZM88.7586 244.211C90.1726 244.211 91.3206 243.063 91.3206 241.635C91.3206 240.235 90.1726 239.087 88.7586 239.087C87.3306 239.087 86.1966 240.235 86.1966 241.635C86.1966 243.063 87.3306 244.211 88.7586 244.211ZM99.0851 240.949H93.9331V239.815H99.0851V240.949ZM44.1931 268.579H42.8351V257.799H44.0951L44.1651 259.395C44.6271 258.443 45.7611 257.701 47.0211 257.701C49.0931 257.701 50.7731 259.465 50.7731 261.635C50.7731 263.819 49.0931 265.611 47.0211 265.611C45.7751 265.611 44.6551 264.869 44.1931 263.917V268.579ZM46.8111 264.253C48.2391 264.253 49.4011 263.077 49.4011 261.635C49.4011 260.207 48.2391 259.045 46.8111 259.045C45.3551 259.045 44.1931 260.207 44.1931 261.635C44.1931 263.077 45.3551 264.253 46.8111 264.253ZM53.5857 265.499H52.2277V254.579H53.5857V265.499ZM58.881 265.597C56.809 265.597 55.129 263.819 55.129 261.649C55.129 259.465 56.809 257.687 58.881 257.687C60.141 257.687 61.275 258.443 61.751 259.423L61.821 257.799H63.081V265.499H61.821L61.751 263.889C61.275 264.855 60.141 265.597 58.881 265.597ZM59.105 264.239C60.547 264.239 61.709 263.077 61.709 261.649C61.709 260.207 60.547 259.031 59.105 259.031C57.677 259.031 56.515 260.207 56.515 261.649C56.515 263.077 57.677 264.239 59.105 264.239ZM67.8439 265.639C66.7379 265.639 65.3099 265.275 64.4139 264.295L65.3519 263.399C65.8699 263.973 66.8779 264.351 67.8439 264.351C68.8519 264.351 69.5519 263.959 69.5519 263.287C69.5519 261.705 64.6799 262.671 64.6799 259.815C64.6799 258.555 65.8279 257.673 67.5919 257.673C68.5859 257.673 69.8459 257.939 70.6859 258.947L69.8459 259.787C69.3139 259.143 68.3479 258.905 67.6339 258.905C66.7099 258.905 66.0519 259.241 66.0519 259.829C66.0519 261.229 70.9239 260.361 70.9239 263.245C70.9239 264.897 69.4539 265.639 67.8439 265.639ZM75.4841 265.625C74.0701 265.625 72.8941 264.771 72.8941 262.629V259.031H71.8581V257.799H72.9361L73.1041 255.279H74.2521V257.799H76.1001V259.031H74.2521V262.615C74.2521 263.721 74.7981 264.295 75.6661 264.295C75.8621 264.295 76.0721 264.267 76.2541 264.197L76.6041 265.415C76.2821 265.555 75.8901 265.625 75.4841 265.625ZM78.5325 268.663C77.9725 268.663 77.5525 268.565 77.1185 268.383L77.5245 267.165C77.7625 267.263 78.1545 267.361 78.4765 267.361C79.3445 267.361 79.9045 266.535 80.3525 265.345L77.2725 257.799H78.7425L80.9825 263.497L83.2085 257.799H84.6645L81.7245 265.499C80.8845 267.711 80.0025 268.663 78.5325 268.663Z" fill="black"/>
<path d="M181.558 53C181.43 53.0004 181.303 52.9714 181.188 52.9153C181.072 52.8592 180.971 52.7775 180.892 52.6763L175.334 45.7161C175.212 45.565 175.146 45.3766 175.146 45.1822C175.146 44.9879 175.212 44.7994 175.334 44.6484L180.892 37.6864C180.971 37.5859 181.072 37.5048 181.187 37.4492C181.303 37.3936 181.429 37.3648 181.557 37.3653H181.619L181.843 37.4145C182.009 37.4735 182.153 37.5827 182.255 37.7271C182.357 37.8715 182.411 38.0439 182.411 38.2207V40.1506H187.212L183.179 32.858C183.124 32.7595 183.09 32.6509 183.077 32.5387C183.065 32.4265 183.075 32.3129 183.107 32.2046C183.17 31.99 183.314 31.8083 183.509 31.698L190.81 27.643C190.936 27.5729 191.078 27.536 191.223 27.536H191.273L191.457 27.5688C191.566 27.6 191.667 27.6524 191.755 27.7229C191.843 27.7934 191.916 27.8807 191.971 27.9796L196.534 36.2398C196.845 36.8013 197.005 37.4338 197 38.0759C196.994 38.7179 196.823 39.3476 196.503 39.9038L191.728 48.3616C191.408 48.9252 190.944 49.3939 190.385 49.72C189.825 50.0461 189.19 50.2179 188.543 50.2182H182.411V52.1447C182.411 52.3214 182.356 52.4937 182.254 52.6381C182.152 52.7825 182.009 52.892 181.843 52.9517L181.786 52.9724L181.558 53ZM180.704 49.708V49.3602C180.705 49.1334 180.795 48.916 180.955 48.7557C181.115 48.5954 181.332 48.5052 181.558 48.5048H188.534C188.881 48.5093 189.223 48.4199 189.524 48.2462C189.825 48.0724 190.074 47.8207 190.244 47.5174L193.438 41.857C193.38 41.8606 181.558 41.8622 181.558 41.8622C181.332 41.8619 181.115 41.7717 180.955 41.6114C180.795 41.451 180.705 41.2337 180.704 41.0068V40.659L177.091 45.1827L180.704 49.708ZM193.242 40.1506C193.609 40.1445 193.967 40.0399 194.279 39.8477C194.591 39.6554 194.847 39.3827 195.018 39.0579C195.196 38.7573 195.291 38.4151 195.295 38.0657C195.299 37.7163 195.211 37.372 195.04 37.0675L190.89 29.5505L185.085 32.7751L189.164 40.1506L193.242 40.1506ZM163.787 50.2095C163.146 50.2092 162.517 50.0432 161.959 49.7274C161.401 49.4117 160.934 48.957 160.603 48.4073L155.537 40.1221C155.198 39.5664 155.013 38.9305 155.001 38.2795C154.988 37.6285 155.149 36.9858 155.466 36.4176L158.434 31.0558L156.751 30.1202C156.596 30.0346 156.472 29.903 156.395 29.7434C156.318 29.5839 156.293 29.4044 156.322 29.2297C156.352 29.0551 156.435 28.8939 156.56 28.7686C156.685 28.6433 156.846 28.56 157.02 28.5303L165.79 27.0336H165.832C166.016 27.015 166.201 27.0551 166.361 27.1481C166.521 27.2411 166.647 27.3823 166.722 27.5516L170.104 35.797C170.172 35.9612 170.187 36.1425 170.147 36.3156C170.106 36.4886 170.013 36.6448 169.88 36.762C169.725 36.9015 169.525 36.9784 169.317 36.9778C169.171 36.9774 169.029 36.94 168.902 36.8691L167.218 35.9334L164.889 40.142H173.21C173.436 40.1424 173.653 40.2326 173.813 40.3929C173.974 40.5532 174.064 40.7706 174.065 40.9974V49.3604C174.065 49.4726 174.043 49.5838 174 49.6876C173.957 49.7914 173.894 49.8857 173.815 49.9651C173.736 50.0445 173.642 50.1076 173.538 50.1506C173.435 50.1936 173.324 50.2157 173.212 50.2157L163.787 50.2095ZM161.968 45.4286C161.795 45.753 161.712 46.118 161.728 46.4854C161.745 46.8528 161.86 47.209 162.061 47.5166C162.237 47.8179 162.489 48.0674 162.792 48.24C163.095 48.4126 163.438 48.5022 163.787 48.4997L172.357 48.5048V41.8553H163.945L161.968 45.4286ZM160.007 29.9752C160.106 30.0297 160.192 30.1032 160.263 30.1915C160.333 30.2797 160.385 30.3811 160.415 30.4896C160.446 30.5969 160.456 30.7093 160.443 30.8202C160.43 30.9312 160.396 31.0385 160.341 31.136L156.96 37.2505C156.786 37.5526 156.697 37.8963 156.703 38.2448C156.709 38.5934 156.81 38.9338 156.994 39.2297L160.384 44.7744C160.414 44.714 166.142 34.3582 166.142 34.3582C166.196 34.26 166.269 34.1736 166.357 34.1038C166.445 34.034 166.545 33.9823 166.653 33.9516L166.701 33.9378L166.889 33.9188C167.034 33.9186 167.177 33.956 167.303 34.0275L167.604 34.1941L165.406 28.8341L159.705 29.8068L160.007 29.9752ZM186.449 29.1259L177.665 27.706C177.491 27.6777 177.33 27.5959 177.204 27.472C177.078 27.3481 176.994 27.1881 176.962 27.0141C176.931 26.8401 176.954 26.6607 177.029 26.5005C177.103 26.3403 177.226 26.2072 177.379 26.1196L179.059 25.1676L176.692 20.9797L172.345 28.0893C172.269 28.2143 172.162 28.3175 172.034 28.3889C171.907 28.4603 171.763 28.4974 171.617 28.4967C171.46 28.4966 171.306 28.4536 171.172 28.3724L164.057 24.0024C163.962 23.9438 163.879 23.867 163.813 23.7763C163.747 23.6856 163.699 23.5828 163.673 23.4737C163.647 23.3646 163.642 23.2513 163.66 23.1405C163.677 23.0297 163.716 22.9233 163.775 22.8276L168.705 14.7781C169.039 14.2315 169.508 13.7805 170.067 13.469C170.626 13.1575 171.256 12.996 171.895 13.0001H181.598C182.248 13.0008 182.885 13.175 183.446 13.5048C184.006 13.8346 184.468 14.3081 184.785 14.8765L187.798 20.2124L189.474 19.2612C189.628 19.1739 189.805 19.1364 189.981 19.1541C190.156 19.1718 190.322 19.2437 190.456 19.3599C190.589 19.4761 190.683 19.6309 190.725 19.8029C190.766 19.9749 190.754 20.1557 190.689 20.3203L187.376 28.5968C187.313 28.7558 187.204 28.8922 187.063 28.9883C186.922 29.0843 186.756 29.1356 186.585 29.1354L186.449 29.1259ZM186.048 27.328L188.2 21.9507L187.898 22.1207C187.77 22.1927 187.625 22.2304 187.478 22.2303H187.431L187.252 22.2001C187.143 22.1707 187.041 22.1196 186.952 22.0499C186.863 21.9802 186.788 21.8933 186.733 21.7944L183.3 15.7128C183.131 15.4098 182.885 15.1571 182.587 14.9807C182.289 14.8044 181.949 14.7105 181.603 14.709H175.109C175.143 14.7642 180.962 25.0682 180.962 25.0682C181.074 25.2654 181.103 25.4988 181.042 25.7173C180.982 25.9357 180.838 26.1213 180.642 26.2335L180.339 26.4061L186.048 27.328ZM171.334 26.4666L175.732 19.2776L173.723 15.7206C173.538 15.4031 173.27 15.1416 172.949 14.9635C172.628 14.7855 172.264 14.6976 171.897 14.709C171.549 14.7035 171.204 14.7894 170.899 14.9582C170.594 15.1271 170.338 15.3729 170.157 15.6714L165.677 22.9916L171.334 26.4666Z" fill="black"/>
<path d="M131.455 82H130.013V73.166H126.891V71.78H134.577V73.166H131.455V82ZM139.242 82.112C136.904 82.112 135.154 80.32 135.154 78.136C135.154 75.966 136.904 74.202 139.06 74.202C141.3 74.202 142.966 75.966 142.966 78.136C142.966 78.318 142.938 78.584 142.924 78.78H136.624C136.834 79.942 137.912 80.824 139.242 80.824C140.194 80.824 140.95 80.432 141.44 79.83L142.546 80.516C141.818 81.482 140.544 82.112 139.242 82.112ZM136.61 77.66H141.552C141.482 76.47 140.488 75.476 139.074 75.476C137.716 75.476 136.694 76.47 136.61 77.66ZM145.861 82H144.503V74.3H145.763L145.847 75.56C146.295 74.734 147.163 74.244 148.297 74.258C148.493 74.258 148.689 74.272 148.871 74.3L148.591 75.616C148.507 75.602 148.409 75.588 148.325 75.588C147.023 75.588 145.861 76.316 145.861 78.444V82ZM151.576 82H150.218V74.3H151.478L151.562 75.56C152.01 74.734 152.878 74.244 154.012 74.258C154.208 74.258 154.404 74.272 154.586 74.3L154.306 75.616C154.222 75.602 154.124 75.588 154.04 75.588C152.738 75.588 151.576 76.316 151.576 78.444V82ZM158.772 82.098C156.7 82.098 155.02 80.32 155.02 78.15C155.02 75.966 156.7 74.188 158.772 74.188C160.032 74.188 161.166 74.944 161.642 75.924L161.712 74.3H162.972V82H161.712L161.642 80.39C161.166 81.356 160.032 82.098 158.772 82.098ZM158.996 80.74C160.438 80.74 161.6 79.578 161.6 78.15C161.6 76.708 160.438 75.532 158.996 75.532C157.568 75.532 156.406 76.708 156.406 78.15C156.406 79.578 157.568 80.74 158.996 80.74ZM168.456 82.112C166.272 82.112 164.508 80.32 164.508 78.136C164.508 75.966 166.272 74.202 168.456 74.202C169.786 74.202 170.962 74.86 171.69 75.868L170.556 76.624C170.08 75.994 169.31 75.588 168.456 75.588C167.028 75.588 165.894 76.736 165.894 78.136C165.894 79.564 167.028 80.712 168.456 80.712C169.338 80.712 170.122 80.278 170.584 79.606L171.718 80.362C171.018 81.412 169.814 82.112 168.456 82.112ZM176.758 82.112C174.42 82.112 172.67 80.32 172.67 78.136C172.67 75.966 174.42 74.202 176.576 74.202C178.816 74.202 180.482 75.966 180.482 78.136C180.482 78.318 180.454 78.584 180.44 78.78H174.14C174.35 79.942 175.428 80.824 176.758 80.824C177.71 80.824 178.466 80.432 178.956 79.83L180.062 80.516C179.334 81.482 178.06 82.112 176.758 82.112ZM174.126 77.66H179.068C178.998 76.47 178.004 75.476 176.59 75.476C175.232 75.476 174.21 76.47 174.126 77.66ZM187.205 82H185.847V74.3H187.107L187.177 75.574C187.569 74.678 188.437 74.188 189.277 74.188C190.509 74.188 191.307 74.902 191.629 75.826C191.951 74.916 192.749 74.188 193.869 74.188C195.507 74.188 196.725 75.238 196.725 77.912V82H195.353V77.912C195.353 76.148 194.569 75.532 193.659 75.532C192.805 75.532 191.965 76.148 191.965 77.912V82H190.593V77.912C190.593 76.148 189.809 75.532 188.899 75.532C187.989 75.532 187.205 76.316 187.205 78.08V82ZM201.865 82.098C199.793 82.098 198.113 80.32 198.113 78.15C198.113 75.966 199.793 74.188 201.865 74.188C203.125 74.188 204.259 74.944 204.735 75.924L204.805 74.3H206.065V82H204.805L204.735 80.39C204.259 81.356 203.125 82.098 201.865 82.098ZM202.089 80.74C203.531 80.74 204.693 79.578 204.693 78.15C204.693 76.708 203.531 75.532 202.089 75.532C200.661 75.532 199.499 76.708 199.499 78.15C199.499 79.578 200.661 80.74 202.089 80.74ZM211.354 82.098C209.282 82.098 207.602 80.32 207.602 78.15C207.602 75.966 209.282 74.188 211.354 74.188C212.6 74.188 213.72 74.916 214.182 75.882V71.08H215.554V82H214.294L214.224 80.39C213.748 81.356 212.614 82.098 211.354 82.098ZM211.578 80.74C213.02 80.74 214.182 79.578 214.182 78.15C214.182 76.708 213.02 75.532 211.578 75.532C210.15 75.532 208.988 76.708 208.988 78.15C208.988 79.578 210.15 80.74 211.578 80.74ZM221.178 82.112C218.84 82.112 217.09 80.32 217.09 78.136C217.09 75.966 218.84 74.202 220.996 74.202C223.236 74.202 224.902 75.966 224.902 78.136C224.902 78.318 224.874 78.584 224.86 78.78H218.56C218.77 79.942 219.848 80.824 221.178 80.824C222.13 80.824 222.886 80.432 223.376 79.83L224.482 80.516C223.754 81.482 222.48 82.112 221.178 82.112ZM218.546 77.66H223.488C223.418 76.47 222.424 75.476 221.01 75.476C219.652 75.476 218.63 76.47 218.546 77.66ZM141.618 102.112C139.434 102.112 137.67 100.32 137.67 98.136C137.67 95.966 139.434 94.202 141.618 94.202C143.788 94.202 145.566 95.966 145.566 98.136C145.566 100.32 143.788 102.112 141.618 102.112ZM141.618 100.712C143.032 100.712 144.18 99.564 144.18 98.136C144.18 96.736 143.032 95.588 141.618 95.588C140.19 95.588 139.056 96.736 139.056 98.136C139.056 99.564 140.19 100.712 141.618 100.712ZM148.766 95.532V102.014L147.408 101.986V95.532H146.428V94.3H147.408V94.006C147.408 91.682 148.626 90.87 150.096 90.87C150.446 90.87 150.852 90.94 151.132 91.038L150.768 92.256C150.6 92.228 150.39 92.186 150.208 92.186C149.34 92.186 148.766 92.62 148.766 94.006V94.3H150.754V95.532H148.766ZM157.414 102H156.056V94.3H157.316L157.4 95.56C157.848 94.734 158.716 94.244 159.85 94.258C160.046 94.258 160.242 94.272 160.424 94.3L160.144 95.616C160.06 95.602 159.962 95.588 159.878 95.588C158.576 95.588 157.414 96.316 157.414 98.444V102ZM164.946 102.112C162.608 102.112 160.858 100.32 160.858 98.136C160.858 95.966 162.608 94.202 164.764 94.202C167.004 94.202 168.67 95.966 168.67 98.136C168.67 98.318 168.642 98.584 168.628 98.78H162.328C162.538 99.942 163.616 100.824 164.946 100.824C165.898 100.824 166.654 100.432 167.144 99.83L168.25 100.516C167.522 101.482 166.248 102.112 164.946 102.112ZM162.314 97.66H167.256C167.186 96.47 166.192 95.476 164.778 95.476C163.42 95.476 162.398 96.47 162.314 97.66ZM173.692 102.112C171.508 102.112 169.744 100.32 169.744 98.136C169.744 95.966 171.508 94.202 173.692 94.202C175.022 94.202 176.198 94.86 176.926 95.868L175.792 96.624C175.316 95.994 174.546 95.588 173.692 95.588C172.264 95.588 171.13 96.736 171.13 98.136C171.13 99.564 172.264 100.712 173.692 100.712C174.574 100.712 175.358 100.278 175.82 99.606L176.954 100.362C176.254 101.412 175.05 102.112 173.692 102.112ZM179.011 105.164C178.451 105.164 178.031 105.066 177.597 104.884L178.003 103.666C178.241 103.764 178.633 103.862 178.955 103.862C179.823 103.862 180.383 103.036 180.831 101.846L177.751 94.3H179.221L181.461 99.998L183.687 94.3H185.143L182.203 102C181.363 104.212 180.481 105.164 179.011 105.164ZM189.415 102.112C187.231 102.112 185.467 100.32 185.467 98.136C185.467 95.966 187.231 94.202 189.415 94.202C190.745 94.202 191.921 94.86 192.649 95.868L191.515 96.624C191.039 95.994 190.269 95.588 189.415 95.588C187.987 95.588 186.853 96.736 186.853 98.136C186.853 99.564 187.987 100.712 189.415 100.712C190.297 100.712 191.081 100.278 191.543 99.606L192.677 100.362C191.977 101.412 190.773 102.112 189.415 102.112ZM195.504 102H194.146V91.08H195.504V102ZM201.135 102.112C198.797 102.112 197.047 100.32 197.047 98.136C197.047 95.966 198.797 94.202 200.953 94.202C203.193 94.202 204.859 95.966 204.859 98.136C204.859 98.318 204.831 98.584 204.817 98.78H198.517C198.727 99.942 199.805 100.824 201.135 100.824C202.087 100.824 202.843 100.432 203.333 99.83L204.439 100.516C203.711 101.482 202.437 102.112 201.135 102.112ZM198.503 97.66H203.445C203.375 96.47 202.381 95.476 200.967 95.476C199.609 95.476 198.587 96.47 198.503 97.66ZM209.686 102.098C207.614 102.098 205.934 100.32 205.934 98.15C205.934 95.966 207.614 94.188 209.686 94.188C210.932 94.188 212.052 94.916 212.514 95.882V91.08H213.886V102H212.626L212.556 100.39C212.08 101.356 210.946 102.098 209.686 102.098ZM209.91 100.74C211.352 100.74 212.514 99.578 212.514 98.15C212.514 96.708 211.352 95.532 209.91 95.532C208.482 95.532 207.32 96.708 207.32 98.15C207.32 99.578 208.482 100.74 209.91 100.74ZM164.704 122.126C163.29 122.126 162.114 121.272 162.114 119.13V115.532H161.078V114.3H162.156L162.324 111.78H163.472V114.3H165.32V115.532H163.472V119.116C163.472 120.222 164.018 120.796 164.886 120.796C165.082 120.796 165.292 120.768 165.474 120.698L165.824 121.916C165.502 122.056 165.11 122.126 164.704 122.126ZM167.96 113.516C167.484 113.516 167.092 113.124 167.092 112.648C167.092 112.172 167.484 111.78 167.96 111.78C168.422 111.78 168.814 112.172 168.814 112.648C168.814 113.124 168.422 113.516 167.96 113.516ZM168.632 122H167.274V114.3H168.632V122ZM171.995 122H170.637V114.3H171.897L171.981 115.56C172.429 114.734 173.297 114.244 174.431 114.258C174.627 114.258 174.823 114.272 175.005 114.3L174.725 115.616C174.641 115.602 174.543 115.588 174.459 115.588C173.157 115.588 171.995 116.316 171.995 118.444V122ZM179.527 122.112C177.189 122.112 175.439 120.32 175.439 118.136C175.439 115.966 177.189 114.202 179.345 114.202C181.585 114.202 183.251 115.966 183.251 118.136C183.251 118.318 183.223 118.584 183.209 118.78H176.909C177.119 119.942 178.197 120.824 179.527 120.824C180.479 120.824 181.235 120.432 181.725 119.83L182.831 120.516C182.103 121.482 180.829 122.112 179.527 122.112ZM176.895 117.66H181.837C181.767 116.47 180.773 115.476 179.359 115.476C178.001 115.476 176.979 116.47 176.895 117.66ZM187.552 122.14C186.446 122.14 185.018 121.776 184.122 120.796L185.06 119.9C185.578 120.474 186.586 120.852 187.552 120.852C188.56 120.852 189.26 120.46 189.26 119.788C189.26 118.206 184.388 119.172 184.388 116.316C184.388 115.056 185.536 114.174 187.3 114.174C188.294 114.174 189.554 114.44 190.394 115.448L189.554 116.288C189.022 115.644 188.056 115.406 187.342 115.406C186.418 115.406 185.76 115.742 185.76 116.33C185.76 117.73 190.632 116.862 190.632 119.746C190.632 121.398 189.162 122.14 187.552 122.14Z" fill="black"/>
<path d="M155.81 199C155.676 199 155.544 198.967 155.426 198.903C155.308 198.839 155.207 198.747 155.134 198.635C155.06 198.523 155.015 198.395 155.003 198.261C154.991 198.128 155.013 197.993 155.066 197.87L160.795 183.694L160.807 180.057C160.807 179.842 160.893 179.636 161.045 179.484C161.197 179.332 161.403 179.247 161.619 179.247H168.509V160.81C168.509 160.596 168.595 160.39 168.747 160.238C168.899 160.086 169.105 160 169.32 160H181.835C182.05 160 182.256 160.086 182.408 160.238C182.56 160.39 182.646 160.596 182.646 160.81V167.699H189.537C189.752 167.699 189.958 167.784 190.11 167.936C190.262 168.088 190.348 168.294 190.348 168.509V175.397H196.276C196.491 175.398 196.697 175.483 196.849 175.635C197.001 175.787 197.087 175.993 197.087 176.208V184.504L202.922 197.846C202.98 197.97 203.006 198.106 202.998 198.242C202.99 198.379 202.947 198.511 202.874 198.626C202.8 198.741 202.699 198.836 202.579 198.901C202.459 198.967 202.324 199.001 202.188 199L155.81 199ZM157.041 197.379H200.915L197.351 188.935L197.087 188.994V193.53C197.087 193.745 197.001 193.951 196.849 194.103C196.697 194.255 196.491 194.34 196.276 194.34H161.619C161.403 194.34 161.197 194.255 161.045 194.103C160.893 193.951 160.807 193.745 160.807 193.53V188.461L160.54 188.406L157.041 197.379ZM185.535 192.719H195.465V177.018H185.535V192.719ZM177.833 192.719H183.912V176.208C183.913 175.993 183.998 175.787 184.15 175.635C184.302 175.483 184.508 175.398 184.723 175.397H188.726V169.319H177.833V192.719ZM162.43 192.719H176.21V180.868H162.43V192.719ZM170.132 179.247H176.21V168.509C176.211 168.294 176.296 168.088 176.449 167.936C176.601 167.784 176.807 167.699 177.022 167.699H181.024V161.621H170.132V179.247ZM191.613 188.566V186.946H193.236V188.566H191.613ZM187.763 188.566V186.946H189.385V188.566H187.763ZM180.061 188.566V186.946H181.684V188.566H180.061ZM172.359 188.566V186.946H173.982V188.566H172.359ZM168.509 188.566V186.946H170.132V188.566H168.509ZM164.658 188.566V186.946H166.281V188.566H164.658ZM191.613 184.717V183.096H193.236V184.717H191.613ZM187.763 184.717V183.096H189.385V184.717H187.763ZM180.061 184.717V183.096H181.684V184.717H180.061ZM172.359 184.717V183.096H173.982V184.717H172.359ZM168.509 184.717V183.096H170.132V184.717H168.509ZM164.658 184.717V183.096H166.281V184.717H164.658ZM191.613 180.868V179.247H193.236V180.868H191.613ZM187.763 180.868V179.247H189.385V180.868H187.763ZM180.061 180.868V179.247H181.684V180.868H180.061ZM180.061 177.018V175.397H181.684V177.018H180.061ZM172.359 177.018V175.397H173.982V177.018H172.359ZM184.875 173.169V171.548H186.497V173.169H184.875ZM180.061 173.169V171.548H181.684V173.169H180.061ZM172.359 173.169V171.548H173.982V173.169H172.359ZM172.359 169.319V167.699H173.982V169.319L172.359 169.319ZM177.173 165.47V163.849H178.796V165.47H177.173ZM172.359 165.47V163.849H173.982V165.47H172.359Z" fill="black"/>
<path d="M134.455 228H133.013V219.166H129.891V217.78H137.577V219.166H134.455V228ZM142.242 228.112C139.904 228.112 138.154 226.32 138.154 224.136C138.154 221.966 139.904 220.202 142.06 220.202C144.3 220.202 145.966 221.966 145.966 224.136C145.966 224.318 145.938 224.584 145.924 224.78H139.624C139.834 225.942 140.912 226.824 142.242 226.824C143.194 226.824 143.95 226.432 144.44 225.83L145.546 226.516C144.818 227.482 143.544 228.112 142.242 228.112ZM139.61 223.66H144.552C144.482 222.47 143.488 221.476 142.074 221.476C140.716 221.476 139.694 222.47 139.61 223.66ZM148.861 228H147.503V220.3H148.763L148.847 221.56C149.295 220.734 150.163 220.244 151.297 220.258C151.493 220.258 151.689 220.272 151.871 220.3L151.591 221.616C151.507 221.602 151.409 221.588 151.325 221.588C150.023 221.588 148.861 222.316 148.861 224.444V228ZM154.576 228H153.218V220.3H154.478L154.562 221.56C155.01 220.734 155.878 220.244 157.012 220.258C157.208 220.258 157.404 220.272 157.586 220.3L157.306 221.616C157.222 221.602 157.124 221.588 157.04 221.588C155.738 221.588 154.576 222.316 154.576 224.444V228ZM161.772 228.098C159.7 228.098 158.02 226.32 158.02 224.15C158.02 221.966 159.7 220.188 161.772 220.188C163.032 220.188 164.166 220.944 164.642 221.924L164.712 220.3H165.972V228H164.712L164.642 226.39C164.166 227.356 163.032 228.098 161.772 228.098ZM161.996 226.74C163.438 226.74 164.6 225.578 164.6 224.15C164.6 222.708 163.438 221.532 161.996 221.532C160.568 221.532 159.406 222.708 159.406 224.15C159.406 225.578 160.568 226.74 161.996 226.74ZM171.456 228.112C169.272 228.112 167.508 226.32 167.508 224.136C167.508 221.966 169.272 220.202 171.456 220.202C172.786 220.202 173.962 220.86 174.69 221.868L173.556 222.624C173.08 221.994 172.31 221.588 171.456 221.588C170.028 221.588 168.894 222.736 168.894 224.136C168.894 225.564 170.028 226.712 171.456 226.712C172.338 226.712 173.122 226.278 173.584 225.606L174.718 226.362C174.018 227.412 172.814 228.112 171.456 228.112ZM179.758 228.112C177.42 228.112 175.67 226.32 175.67 224.136C175.67 221.966 177.42 220.202 179.576 220.202C181.816 220.202 183.482 221.966 183.482 224.136C183.482 224.318 183.454 224.584 183.44 224.78H177.14C177.35 225.942 178.428 226.824 179.758 226.824C180.71 226.824 181.466 226.432 181.956 225.83L183.062 226.516C182.334 227.482 181.06 228.112 179.758 228.112ZM177.126 223.66H182.068C181.998 222.47 181.004 221.476 179.59 221.476C178.232 221.476 177.21 222.47 177.126 223.66ZM190.205 228H188.847V220.3H190.107L190.177 221.574C190.569 220.678 191.437 220.188 192.277 220.188C193.509 220.188 194.307 220.902 194.629 221.826C194.951 220.916 195.749 220.188 196.869 220.188C198.507 220.188 199.725 221.238 199.725 223.912V228H198.353V223.912C198.353 222.148 197.569 221.532 196.659 221.532C195.805 221.532 194.965 222.148 194.965 223.912V228H193.593V223.912C193.593 222.148 192.809 221.532 191.899 221.532C190.989 221.532 190.205 222.316 190.205 224.08V228ZM204.865 228.098C202.793 228.098 201.113 226.32 201.113 224.15C201.113 221.966 202.793 220.188 204.865 220.188C206.125 220.188 207.259 220.944 207.735 221.924L207.805 220.3H209.065V228H207.805L207.735 226.39C207.259 227.356 206.125 228.098 204.865 228.098ZM205.089 226.74C206.531 226.74 207.693 225.578 207.693 224.15C207.693 222.708 206.531 221.532 205.089 221.532C203.661 221.532 202.499 222.708 202.499 224.15C202.499 225.578 203.661 226.74 205.089 226.74ZM214.354 228.098C212.282 228.098 210.602 226.32 210.602 224.15C210.602 221.966 212.282 220.188 214.354 220.188C215.6 220.188 216.72 220.916 217.182 221.882V217.08H218.554V228H217.294L217.224 226.39C216.748 227.356 215.614 228.098 214.354 228.098ZM214.578 226.74C216.02 226.74 217.182 225.578 217.182 224.15C217.182 222.708 216.02 221.532 214.578 221.532C213.15 221.532 211.988 222.708 211.988 224.15C211.988 225.578 213.15 226.74 214.578 226.74ZM224.178 228.112C221.84 228.112 220.09 226.32 220.09 224.136C220.09 221.966 221.84 220.202 223.996 220.202C226.236 220.202 227.902 221.966 227.902 224.136C227.902 224.318 227.874 224.584 227.86 224.78H221.56C221.77 225.942 222.848 226.824 224.178 226.824C225.13 226.824 225.886 226.432 226.376 225.83L227.482 226.516C226.754 227.482 225.48 228.112 224.178 228.112ZM221.546 223.66H226.488C226.418 222.47 225.424 221.476 224.01 221.476C222.652 221.476 221.63 222.47 221.546 223.66ZM144.618 248.112C142.434 248.112 140.67 246.32 140.67 244.136C140.67 241.966 142.434 240.202 144.618 240.202C146.788 240.202 148.566 241.966 148.566 244.136C148.566 246.32 146.788 248.112 144.618 248.112ZM144.618 246.712C146.032 246.712 147.18 245.564 147.18 244.136C147.18 242.736 146.032 241.588 144.618 241.588C143.19 241.588 142.056 242.736 142.056 244.136C142.056 245.564 143.19 246.712 144.618 246.712ZM151.766 241.532V248.014L150.408 247.986V241.532H149.428V240.3H150.408V240.006C150.408 237.682 151.626 236.87 153.096 236.87C153.446 236.87 153.852 236.94 154.132 237.038L153.768 238.256C153.6 238.228 153.39 238.186 153.208 238.186C152.34 238.186 151.766 238.62 151.766 240.006V240.3H153.754V241.532H151.766ZM160.414 248H159.056V240.3H160.316L160.4 241.56C160.848 240.734 161.716 240.244 162.85 240.258C163.046 240.258 163.242 240.272 163.424 240.3L163.144 241.616C163.06 241.602 162.962 241.588 162.878 241.588C161.576 241.588 160.414 242.316 160.414 244.444V248ZM167.946 248.112C165.608 248.112 163.858 246.32 163.858 244.136C163.858 241.966 165.608 240.202 167.764 240.202C170.004 240.202 171.67 241.966 171.67 244.136C171.67 244.318 171.642 244.584 171.628 244.78H165.328C165.538 245.942 166.616 246.824 167.946 246.824C168.898 246.824 169.654 246.432 170.144 245.83L171.25 246.516C170.522 247.482 169.248 248.112 167.946 248.112ZM165.314 243.66H170.256C170.186 242.47 169.192 241.476 167.778 241.476C166.42 241.476 165.398 242.47 165.314 243.66ZM176.692 248.112C174.508 248.112 172.744 246.32 172.744 244.136C172.744 241.966 174.508 240.202 176.692 240.202C178.022 240.202 179.198 240.86 179.926 241.868L178.792 242.624C178.316 241.994 177.546 241.588 176.692 241.588C175.264 241.588 174.13 242.736 174.13 244.136C174.13 245.564 175.264 246.712 176.692 246.712C177.574 246.712 178.358 246.278 178.82 245.606L179.954 246.362C179.254 247.412 178.05 248.112 176.692 248.112ZM182.011 251.164C181.451 251.164 181.031 251.066 180.597 250.884L181.003 249.666C181.241 249.764 181.633 249.862 181.955 249.862C182.823 249.862 183.383 249.036 183.831 247.846L180.751 240.3H182.221L184.461 245.998L186.687 240.3H188.143L185.203 248C184.363 250.212 183.481 251.164 182.011 251.164ZM192.415 248.112C190.231 248.112 188.467 246.32 188.467 244.136C188.467 241.966 190.231 240.202 192.415 240.202C193.745 240.202 194.921 240.86 195.649 241.868L194.515 242.624C194.039 241.994 193.269 241.588 192.415 241.588C190.987 241.588 189.853 242.736 189.853 244.136C189.853 245.564 190.987 246.712 192.415 246.712C193.297 246.712 194.081 246.278 194.543 245.606L195.677 246.362C194.977 247.412 193.773 248.112 192.415 248.112ZM198.504 248H197.146V237.08H198.504V248ZM204.135 248.112C201.797 248.112 200.047 246.32 200.047 244.136C200.047 241.966 201.797 240.202 203.953 240.202C206.193 240.202 207.859 241.966 207.859 244.136C207.859 244.318 207.831 244.584 207.817 244.78H201.517C201.727 245.942 202.805 246.824 204.135 246.824C205.087 246.824 205.843 246.432 206.333 245.83L207.439 246.516C206.711 247.482 205.437 248.112 204.135 248.112ZM201.503 243.66H206.445C206.375 242.47 205.381 241.476 203.967 241.476C202.609 241.476 201.587 242.47 201.503 243.66ZM212.686 248.098C210.614 248.098 208.934 246.32 208.934 244.15C208.934 241.966 210.614 240.188 212.686 240.188C213.932 240.188 215.052 240.916 215.514 241.882V237.08H216.886V248H215.626L215.556 246.39C215.08 247.356 213.946 248.098 212.686 248.098ZM212.91 246.74C214.352 246.74 215.514 245.578 215.514 244.15C215.514 242.708 214.352 241.532 212.91 241.532C211.482 241.532 210.32 242.708 210.32 244.15C210.32 245.578 211.482 246.74 212.91 246.74ZM167.704 268.126C166.29 268.126 165.114 267.272 165.114 265.13V261.532H164.078V260.3H165.156L165.324 257.78H166.472V260.3H168.32V261.532H166.472V265.116C166.472 266.222 167.018 266.796 167.886 266.796C168.082 266.796 168.292 266.768 168.474 266.698L168.824 267.916C168.502 268.056 168.11 268.126 167.704 268.126ZM170.96 259.516C170.484 259.516 170.092 259.124 170.092 258.648C170.092 258.172 170.484 257.78 170.96 257.78C171.422 257.78 171.814 258.172 171.814 258.648C171.814 259.124 171.422 259.516 170.96 259.516ZM171.632 268H170.274V260.3H171.632V268ZM174.995 268H173.637V260.3H174.897L174.981 261.56C175.429 260.734 176.297 260.244 177.431 260.258C177.627 260.258 177.823 260.272 178.005 260.3L177.725 261.616C177.641 261.602 177.543 261.588 177.459 261.588C176.157 261.588 174.995 262.316 174.995 264.444V268ZM182.527 268.112C180.189 268.112 178.439 266.32 178.439 264.136C178.439 261.966 180.189 260.202 182.345 260.202C184.585 260.202 186.251 261.966 186.251 264.136C186.251 264.318 186.223 264.584 186.209 264.78H179.909C180.119 265.942 181.197 266.824 182.527 266.824C183.479 266.824 184.235 266.432 184.725 265.83L185.831 266.516C185.103 267.482 183.829 268.112 182.527 268.112ZM179.895 263.66H184.837C184.767 262.47 183.773 261.476 182.359 261.476C181.001 261.476 179.979 262.47 179.895 263.66ZM190.552 268.14C189.446 268.14 188.018 267.776 187.122 266.796L188.06 265.9C188.578 266.474 189.586 266.852 190.552 266.852C191.56 266.852 192.26 266.46 192.26 265.788C192.26 264.206 187.388 265.172 187.388 262.316C187.388 261.056 188.536 260.174 190.3 260.174C191.294 260.174 192.554 260.44 193.394 261.448L192.554 262.288C192.022 261.644 191.056 261.406 190.342 261.406C189.418 261.406 188.76 261.742 188.76 262.33C188.76 263.73 193.632 262.862 193.632 265.746C193.632 267.398 192.162 268.14 190.552 268.14Z" fill="black"/>
</svg>
