<svg width="236" height="277" viewBox="0 0 236 277" fill="none" xmlns="http://www.w3.org/2000/svg">
<path d="M71.7579 13.0008C71.0068 13.0076 70.2889 13.3132 69.7614 13.8509L66.825 16.8028C66.5239 17.1055 66.2625 17.6466 66.2625 18.1439V18.715H47.3155C40.5463 18.715 35 24.2906 35 31.0957V41.5717C35.0037 42.3283 35.3043 43.0528 35.8365 43.5879C36.3687 44.1229 37.0894 44.4251 37.842 44.4287H38.7894V46.3335C38.7932 47.09 39.0939 47.8145 39.626 48.3495C40.1582 48.8845 40.8789 49.1867 41.6314 49.1906H42.7823C43.4052 51.3822 45.4157 53 47.7892 53C50.1627 53 52.1732 51.3822 52.7961 49.1906H67.4134C68.0363 51.3822 70.0468 53 72.4203 53C74.7938 53 76.8043 51.3822 77.4272 49.1906H79.5254C80.278 49.1867 80.9987 48.8845 81.5308 48.3495C82.063 47.8145 82.3636 47.09 82.3675 46.3335V41.7372C82.3653 40.723 82.0064 39.7423 81.3542 38.9685C80.702 38.1948 79.7986 37.6779 78.8038 37.5092L78.8464 37.5167L71.5562 35.9561L68.1665 31.185C67.7282 30.5683 67.1499 30.0657 66.4795 29.7189C65.8092 29.372 65.0662 29.1911 64.3123 29.191H51.6212C51.018 29.191 50.4235 29.3357 49.8871 29.6129C49.3507 29.8901 48.8878 30.292 48.5367 30.785L44.8658 35.9542L42.3864 36.4732H42.3845C40.0177 36.9693 38.7894 38.9769 38.7894 40.969V42.524H37.842C37.7175 42.5244 37.5942 42.5 37.4791 42.4523C37.364 42.4045 37.2594 42.3344 37.1714 42.2459C37.0833 42.1574 37.0136 42.0522 36.9661 41.9365C36.9186 41.8208 36.8943 41.6968 36.8947 41.5717V31.0957C36.8947 25.3296 41.5798 20.6197 47.3155 20.6197H66.2625V21.1907C66.2625 21.6881 66.5239 22.2292 66.825 22.5319L69.7614 25.4838C70.2889 26.0214 71.0068 26.3271 71.7579 26.3339H75.736C75.9868 26.3413 76.2365 26.2972 76.4698 26.2041C76.703 26.111 76.9148 25.971 77.0923 25.7926C77.2697 25.6142 77.409 25.4012 77.5016 25.1668C77.5942 24.9323 77.6381 24.6813 77.6307 24.4291H82.3675V22.5244H77.6307V16.8103H82.3675V14.9055H77.6307C77.6381 14.6534 77.5942 14.4024 77.5016 14.1679C77.409 13.9334 77.2697 13.7205 77.0923 13.5421C76.9148 13.3637 76.703 13.2237 76.4698 13.1306C76.2365 13.0375 75.9868 12.9934 75.736 13.0008H71.7579ZM71.7579 14.9055H75.736V24.4291H71.7579C71.6344 24.4282 71.5123 24.4018 71.3994 24.3516C71.2864 24.3013 71.1848 24.2284 71.101 24.1371L68.1646 21.1852C68.1601 21.1807 68.1608 21.1826 68.1572 21.1796V18.1551C68.1608 18.1521 68.1601 18.154 68.1646 18.1495L71.101 15.1976C71.1848 15.1063 71.2864 15.0333 71.3994 14.9831C71.5123 14.9329 71.6344 14.9065 71.7579 14.9055ZM51.6212 31.0957H56.789V35.8575H47.26L50.078 31.8937C50.2535 31.6467 50.485 31.4455 50.7534 31.3067C51.0218 31.1679 51.3193 31.0956 51.6212 31.0957ZM58.6837 31.0957H64.3123C64.7647 31.0956 65.2106 31.204 65.6129 31.4121C66.0152 31.6201 66.3622 31.9217 66.6252 32.2917L69.1582 35.8575H58.6837V31.0957ZM45.5152 37.7622H70.9031L78.4726 39.3842L78.493 39.3879C79.047 39.4787 79.5507 39.7652 79.9136 40.1958C80.2764 40.6263 80.4747 41.1729 80.4728 41.7372V46.3335C80.4748 46.4591 80.4517 46.5839 80.4048 46.7003C80.3579 46.8168 80.2882 46.9226 80.1998 47.0114C80.1114 47.1003 80.0062 47.1704 79.8903 47.2175C79.7745 47.2646 79.6504 47.2879 79.5254 47.2858H77.6067C77.3652 44.6255 75.1269 42.524 72.4203 42.524C69.7137 42.524 67.4753 44.6255 67.2339 47.2858H52.9756C52.7342 44.6255 50.4958 42.524 47.7892 42.524C45.0826 42.524 42.8443 44.6255 42.6028 47.2858H41.6314C41.5065 47.2879 41.3824 47.2646 41.2665 47.2175C41.1507 47.1704 41.0454 47.1003 40.957 47.0114C40.8687 46.9226 40.799 46.8168 40.7521 46.7003C40.7052 46.5839 40.6821 46.4591 40.6841 46.3335V40.969C40.6841 39.6437 41.1873 38.6698 42.7712 38.337L45.5152 37.7622ZM47.7892 44.4287C48.445 44.4287 49.0861 44.6242 49.6313 44.9905C50.1766 45.3568 50.6016 45.8773 50.8525 46.4864C51.1035 47.0955 51.1692 47.7657 51.0412 48.4123C50.9133 49.0589 50.5975 49.6528 50.1338 50.119C49.6701 50.5851 49.0793 50.9026 48.4361 51.0312C47.7929 51.1598 47.1262 51.0938 46.5203 50.8415C45.9145 50.5893 45.3966 50.162 45.0323 49.6139C44.668 49.0657 44.4735 48.4213 44.4735 47.762C44.4716 47.3237 44.5561 46.8895 44.722 46.4842C44.888 46.0789 45.1322 45.7107 45.4404 45.4008C45.7487 45.0909 46.115 44.8454 46.5181 44.6786C46.9212 44.5118 47.3533 44.4268 47.7892 44.4287ZM72.4203 44.4287C73.0761 44.4287 73.7171 44.6242 74.2624 44.9905C74.8077 45.3568 75.2327 45.8773 75.4836 46.4864C75.7346 47.0955 75.8002 47.7657 75.6723 48.4123C75.5444 49.0589 75.2286 49.6528 74.7649 50.119C74.3012 50.5851 73.7103 50.9026 73.0672 51.0312C72.424 51.1598 71.7573 51.0938 71.1514 50.8415C70.5456 50.5893 70.0277 50.162 69.6634 49.6139C69.299 49.0657 69.1046 48.4213 69.1046 47.762C69.1027 47.3237 69.1872 46.8895 69.3531 46.4842C69.5191 46.0789 69.7633 45.7107 70.0715 45.4008C70.3798 45.0909 70.7461 44.8454 71.1492 44.6786C71.5523 44.5118 71.9843 44.4268 72.4203 44.4287Z" fill="black"/>
<path d="M16.0946 82H14.6666V71.78H21.2606V73.166H16.0946V76.162H20.9806V77.548H16.0946V82ZM26.0607 82.098C23.9887 82.098 22.3087 80.32 22.3087 78.15C22.3087 75.966 23.9887 74.188 26.0607 74.188C27.3207 74.188 28.4547 74.944 28.9307 75.924L29.0007 74.3H30.2607V82H29.0007L28.9307 80.39C28.4547 81.356 27.3207 82.098 26.0607 82.098ZM26.2847 80.74C27.7267 80.74 28.8887 79.578 28.8887 78.15C28.8887 76.708 27.7267 75.532 26.2847 75.532C24.8567 75.532 23.6947 76.708 23.6947 78.15C23.6947 79.578 24.8567 80.74 26.2847 80.74ZM35.0235 82.14C33.9175 82.14 32.4895 81.776 31.5935 80.796L32.5315 79.9C33.0495 80.474 34.0575 80.852 35.0235 80.852C36.0315 80.852 36.7315 80.46 36.7315 79.788C36.7315 78.206 31.8595 79.172 31.8595 76.316C31.8595 75.056 33.0075 74.174 34.7715 74.174C35.7655 74.174 37.0255 74.44 37.8655 75.448L37.0255 76.288C36.4935 75.644 35.5275 75.406 34.8135 75.406C33.8895 75.406 33.2315 75.742 33.2315 76.33C33.2315 77.73 38.1035 76.862 38.1035 79.746C38.1035 81.398 36.6335 82.14 35.0235 82.14ZM42.6638 82.126C41.2498 82.126 40.0738 81.272 40.0738 79.13V75.532H39.0378V74.3H40.1158L40.2838 71.78H41.4318V74.3H43.2798V75.532H41.4318V79.116C41.4318 80.222 41.9778 80.796 42.8458 80.796C43.0418 80.796 43.2518 80.768 43.4338 80.698L43.7838 81.916C43.4618 82.056 43.0698 82.126 42.6638 82.126ZM52.5477 82.112C50.3637 82.112 48.5997 80.32 48.5997 78.136C48.5997 75.966 50.3637 74.202 52.5477 74.202C53.8777 74.202 55.0537 74.86 55.7817 75.868L54.6477 76.624C54.1717 75.994 53.4017 75.588 52.5477 75.588C51.1197 75.588 49.9857 76.736 49.9857 78.136C49.9857 79.564 51.1197 80.712 52.5477 80.712C53.4297 80.712 54.2137 80.278 54.6757 79.606L55.8097 80.362C55.1097 81.412 53.9057 82.112 52.5477 82.112ZM58.6365 82H57.2785V71.08H58.6365V75.63C59.0565 74.832 59.8825 74.188 61.0305 74.188C62.8225 74.188 64.1805 75.42 64.1805 78.08V82H62.8085V78.08C62.8085 76.33 61.8565 75.532 60.7225 75.532C59.6025 75.532 58.6365 76.316 58.6365 78.08V82ZM69.3048 82.098C67.2328 82.098 65.5528 80.32 65.5528 78.15C65.5528 75.966 67.2328 74.188 69.3048 74.188C70.5648 74.188 71.6988 74.944 72.1748 75.924L72.2448 74.3H73.5048V82H72.2448L72.1748 80.39C71.6988 81.356 70.5648 82.098 69.3048 82.098ZM69.5288 80.74C70.9708 80.74 72.1328 79.578 72.1328 78.15C72.1328 76.708 70.9708 75.532 69.5288 75.532C68.1008 75.532 66.9388 76.708 66.9388 78.15C66.9388 79.578 68.1008 80.74 69.5288 80.74ZM76.8611 82H75.5031V74.3H76.7631L76.8471 75.56C77.2951 74.734 78.1631 74.244 79.2971 74.258C79.4931 74.258 79.6891 74.272 79.8711 74.3L79.5911 75.616C79.5071 75.602 79.4091 75.588 79.3251 75.588C78.0231 75.588 76.8611 76.316 76.8611 78.444V82ZM84.0428 85.22C82.7408 85.22 81.4808 84.632 80.7528 83.68L81.7888 82.882C82.3208 83.512 83.2028 83.904 84.1128 83.904C85.5968 83.904 86.8848 83.05 86.8848 81.02V80.432C86.4228 81.37 85.3028 82.098 84.0568 82.098C81.9848 82.098 80.3048 80.32 80.3048 78.15C80.3048 75.966 81.9848 74.188 84.0568 74.188C85.3168 74.188 86.4508 74.944 86.9268 75.924L86.9968 74.3H88.2568V80.796C88.2568 83.778 86.4648 85.22 84.0428 85.22ZM84.2808 80.74C85.7228 80.74 86.8848 79.578 86.8848 78.15C86.8848 76.708 85.7228 75.532 84.2808 75.532C82.8528 75.532 81.6908 76.708 81.6908 78.15C81.6908 79.578 82.8528 80.74 84.2808 80.74ZM93.8811 82.112C91.5431 82.112 89.7931 80.32 89.7931 78.136C89.7931 75.966 91.5431 74.202 93.6991 74.202C95.9391 74.202 97.6051 75.966 97.6051 78.136C97.6051 78.318 97.5771 78.584 97.5631 78.78H91.2631C91.4731 79.942 92.5511 80.824 93.8811 80.824C94.8331 80.824 95.5891 80.432 96.0791 79.83L97.1851 80.516C96.4571 81.482 95.1831 82.112 93.8811 82.112ZM91.2491 77.66H96.1911C96.1211 76.47 95.1271 75.476 93.7131 75.476C92.3551 75.476 91.3331 76.47 91.2491 77.66ZM100.5 82H99.1418V74.3H100.402L100.486 75.56C100.934 74.734 101.802 74.244 102.936 74.258C103.132 74.258 103.328 74.272 103.51 74.3L103.23 75.616C103.146 75.602 103.048 75.588 102.964 75.588C101.662 75.588 100.5 76.316 100.5 78.444V82ZM23.6366 95.532V102.014L22.2786 101.986V95.532H21.2986V94.3H22.2786V94.006C22.2786 91.682 23.4966 90.87 24.9666 90.87C25.3166 90.87 25.7226 90.94 26.0026 91.038L25.6386 92.256C25.4706 92.228 25.2606 92.186 25.0786 92.186C24.2106 92.186 23.6366 92.62 23.6366 94.006V94.3H25.6246V95.532H23.6366ZM30.1874 102.112C28.0034 102.112 26.2394 100.32 26.2394 98.136C26.2394 95.966 28.0034 94.202 30.1874 94.202C32.3574 94.202 34.1354 95.966 34.1354 98.136C34.1354 100.32 32.3574 102.112 30.1874 102.112ZM30.1874 100.712C31.6014 100.712 32.7494 99.564 32.7494 98.136C32.7494 96.736 31.6014 95.588 30.1874 95.588C28.7594 95.588 27.6254 96.736 27.6254 98.136C27.6254 99.564 28.7594 100.712 30.1874 100.712ZM37.0418 102H35.6838V94.3H36.9438L37.0278 95.56C37.4758 94.734 38.3438 94.244 39.4778 94.258C39.6738 94.258 39.8698 94.272 40.0518 94.3L39.7718 95.616C39.6878 95.602 39.5898 95.588 39.5058 95.588C38.2038 95.588 37.0418 96.316 37.0418 98.444V102ZM48.8528 102.112C46.5148 102.112 44.7648 100.32 44.7648 98.136C44.7648 95.966 46.5148 94.202 48.6708 94.202C50.9108 94.202 52.5768 95.966 52.5768 98.136C52.5768 98.318 52.5488 98.584 52.5348 98.78H46.2348C46.4448 99.942 47.5228 100.824 48.8528 100.824C49.8048 100.824 50.5608 100.432 51.0508 99.83L52.1568 100.516C51.4288 101.482 50.1548 102.112 48.8528 102.112ZM46.2208 97.66H51.1628C51.0928 96.47 50.0988 95.476 48.6848 95.476C47.3268 95.476 46.3048 96.47 46.2208 97.66ZM55.3758 102H54.0178V91.08H55.3758V102ZM61.007 102.112C58.669 102.112 56.919 100.32 56.919 98.136C56.919 95.966 58.669 94.202 60.825 94.202C63.065 94.202 64.731 95.966 64.731 98.136C64.731 98.318 64.703 98.584 64.689 98.78H58.389C58.599 99.942 59.677 100.824 61.007 100.824C61.959 100.824 62.715 100.432 63.205 99.83L64.311 100.516C63.583 101.482 62.309 102.112 61.007 102.112ZM58.375 97.66H63.317C63.247 96.47 62.253 95.476 60.839 95.476C59.481 95.476 58.459 96.47 58.375 97.66ZM69.7538 102.112C67.5698 102.112 65.8058 100.32 65.8058 98.136C65.8058 95.966 67.5698 94.202 69.7538 94.202C71.0838 94.202 72.2598 94.86 72.9878 95.868L71.8538 96.624C71.3778 95.994 70.6078 95.588 69.7538 95.588C68.3258 95.588 67.1918 96.736 67.1918 98.136C67.1918 99.564 68.3258 100.712 69.7538 100.712C70.6358 100.712 71.4198 100.278 71.8818 99.606L73.0158 100.362C72.3158 101.412 71.1118 102.112 69.7538 102.112ZM77.4793 102.126C76.0653 102.126 74.8893 101.272 74.8893 99.13V95.532H73.8533V94.3H74.9313L75.0993 91.78H76.2473V94.3H78.0953V95.532H76.2473V99.116C76.2473 100.222 76.7933 100.796 77.6613 100.796C77.8573 100.796 78.0673 100.768 78.2493 100.698L78.5993 101.916C78.2773 102.056 77.8853 102.126 77.4793 102.126ZM81.407 102H80.049V94.3H81.309L81.393 95.56C81.841 94.734 82.709 94.244 83.843 94.258C84.039 94.258 84.235 94.272 84.417 94.3L84.137 95.616C84.053 95.602 83.955 95.588 83.871 95.588C82.569 95.588 81.407 96.316 81.407 98.444V102ZM86.4499 93.516C85.9739 93.516 85.5819 93.124 85.5819 92.648C85.5819 92.172 85.9739 91.78 86.4499 91.78C86.9119 91.78 87.3039 92.172 87.3039 92.648C87.3039 93.124 86.9119 93.516 86.4499 93.516ZM87.1219 102H85.7639V94.3H87.1219V102ZM92.6131 102.112C90.4291 102.112 88.6651 100.32 88.6651 98.136C88.6651 95.966 90.4291 94.202 92.6131 94.202C93.9431 94.202 95.1191 94.86 95.8471 95.868L94.7131 96.624C94.2371 95.994 93.4671 95.588 92.6131 95.588C91.1851 95.588 90.0511 96.736 90.0511 98.136C90.0511 99.564 91.1851 100.712 92.6131 100.712C93.4951 100.712 94.2791 100.278 94.7411 99.606L95.8751 100.362C95.1751 101.412 93.9711 102.112 92.6131 102.112ZM35.1587 122H33.8007L30.7767 114.3H32.2467L34.4867 119.956L36.7127 114.3H38.1827L35.1587 122ZM42.5842 122.112C40.2462 122.112 38.4962 120.32 38.4962 118.136C38.4962 115.966 40.2462 114.202 42.4022 114.202C44.6422 114.202 46.3082 115.966 46.3082 118.136C46.3082 118.318 46.2802 118.584 46.2662 118.78H39.9662C40.1762 119.942 41.2542 120.824 42.5842 120.824C43.5362 120.824 44.2922 120.432 44.7822 119.83L45.8882 120.516C45.1602 121.482 43.8862 122.112 42.5842 122.112ZM39.9522 117.66H44.8942C44.8242 116.47 43.8302 115.476 42.4162 115.476C41.0582 115.476 40.0362 116.47 39.9522 117.66ZM49.1072 122H47.7492V111.08H49.1072V115.63C49.5272 114.832 50.3532 114.188 51.5012 114.188C53.2932 114.188 54.6512 115.42 54.6512 118.08V122H53.2792V118.08C53.2792 116.33 52.3272 115.532 51.1932 115.532C50.0732 115.532 49.1072 116.316 49.1072 118.08V122ZM57.1715 113.516C56.6955 113.516 56.3035 113.124 56.3035 112.648C56.3035 112.172 56.6955 111.78 57.1715 111.78C57.6335 111.78 58.0255 112.172 58.0255 112.648C58.0255 113.124 57.6335 113.516 57.1715 113.516ZM57.8435 122H56.4855V114.3H57.8435V122ZM63.3348 122.112C61.1508 122.112 59.3868 120.32 59.3868 118.136C59.3868 115.966 61.1508 114.202 63.3348 114.202C64.6648 114.202 65.8408 114.86 66.5688 115.868L65.4348 116.624C64.9588 115.994 64.1888 115.588 63.3348 115.588C61.9068 115.588 60.7728 116.736 60.7728 118.136C60.7728 119.564 61.9068 120.712 63.3348 120.712C64.2168 120.712 65.0008 120.278 65.4628 119.606L66.5968 120.362C65.8968 121.412 64.6928 122.112 63.3348 122.112ZM69.4236 122H68.0656V111.08H69.4236V122ZM75.0549 122.112C72.7169 122.112 70.9669 120.32 70.9669 118.136C70.9669 115.966 72.7169 114.202 74.8729 114.202C77.1129 114.202 78.7789 115.966 78.7789 118.136C78.7789 118.318 78.7509 118.584 78.7369 118.78H72.4369C72.6469 119.942 73.7249 120.824 75.0549 120.824C76.0069 120.824 76.7629 120.432 77.2529 119.83L78.3589 120.516C77.6309 121.482 76.3569 122.112 75.0549 122.112ZM72.4229 117.66H77.3649C77.2949 116.47 76.3009 115.476 74.8869 115.476C73.5289 115.476 72.5069 116.47 72.4229 117.66ZM83.0802 122.14C81.9742 122.14 80.5462 121.776 79.6502 120.796L80.5882 119.9C81.1062 120.474 82.1142 120.852 83.0802 120.852C84.0882 120.852 84.7882 120.46 84.7882 119.788C84.7882 118.206 79.9162 119.172 79.9162 116.316C79.9162 115.056 81.0642 114.174 82.8282 114.174C83.8222 114.174 85.0822 114.44 85.9222 115.448L85.0822 116.288C84.5502 115.644 83.5842 115.406 82.8702 115.406C81.9462 115.406 81.2882 115.742 81.2882 116.33C81.2882 117.73 86.1602 116.862 86.1602 119.746C86.1602 121.398 84.6902 122.14 83.0802 122.14Z" fill="black"/>
<path d="M75.9498 185.605C75.9419 185.544 75.9259 185.484 75.9023 185.428C75.8943 185.367 75.8786 185.308 75.8556 185.251C75.8127 185.191 75.7611 185.139 75.7026 185.095C75.6668 185.062 75.6442 185.017 75.6015 184.991L75.5998 184.99L75.5988 184.989L75.5974 184.989L68.0841 180.537L68.0746 176.976C68.0743 176.852 68.0419 176.729 67.9808 176.622C67.9197 176.514 67.832 176.424 67.7263 176.362L64.0844 174.205L64.1096 165.29L64.1093 165.288L64.1096 165.287C64.102 165.223 64.0854 165.16 64.0605 165.101C64.0526 165.043 64.0375 164.986 64.0157 164.931C63.9543 164.823 63.8661 164.733 63.76 164.67L55.9872 160.095C55.8806 160.033 55.7595 160 55.6365 160C55.5135 160 55.3927 160.034 55.2863 160.097L47.336 164.807L47.3346 164.807L47.3336 164.808L47.3319 164.809C47.2892 164.835 47.2667 164.88 47.2308 164.913C47.1723 164.957 47.1207 165.009 47.0778 165.069C47.0548 165.126 47.0391 165.185 47.0311 165.245C47.0075 165.302 46.9916 165.362 46.9836 165.423L46.9587 174.165L43.2508 176.362C43.1452 176.424 43.0574 176.514 42.9963 176.622C42.9352 176.729 42.9028 176.852 42.9026 176.976L42.8923 180.537L35.3783 184.989L35.377 184.989L35.3759 184.99L35.3742 184.991C35.3316 185.017 35.309 185.062 35.2732 185.095C35.2147 185.139 35.1631 185.191 35.1202 185.251C35.0972 185.308 35.0815 185.367 35.0734 185.427C35.0499 185.484 35.0339 185.544 35.026 185.605L35 194.71C34.9995 194.836 35.0316 194.959 35.0931 195.068C35.1545 195.177 35.243 195.267 35.3497 195.33L43.1225 199.905C43.2286 199.967 43.349 200 43.4714 200C43.5939 200 43.7142 199.967 43.8204 199.905L43.8221 199.903L51.2552 195.5L54.9804 197.707C55.0869 197.771 55.2082 197.804 55.3316 197.804C55.4549 197.804 55.5761 197.771 55.6826 197.707L59.5646 195.408L67.1526 199.903L67.1554 199.905C67.2616 199.968 67.3819 200 67.5043 200C67.6268 200 67.7472 199.967 67.8533 199.905L75.6261 195.33C75.7328 195.267 75.8213 195.177 75.8827 195.068C75.9441 194.959 75.9763 194.836 75.9758 194.71L75.9498 185.605ZM59.0684 172.882L61.8062 174.503L56.1333 177.864L56.1483 172.392L56.1538 170.411L59.0845 168.674L62.7069 166.528L62.6882 173.378L59.7705 171.65C59.6102 171.555 59.4194 171.528 59.2402 171.577C59.061 171.625 58.9082 171.744 58.8151 171.908C58.722 172.071 58.6962 172.266 58.7437 172.448C58.7912 172.631 58.9081 172.787 59.0684 172.882ZM55.6389 161.537L62.0145 165.29L55.4548 169.176L51.4786 166.836L49.0789 165.424L55.6389 161.537ZM48.3783 166.659L53.0421 169.403L54.7552 170.411L54.7504 172.224L54.734 177.872L49.0905 174.551L51.9075 172.882C51.9873 172.835 52.0573 172.773 52.1134 172.698C52.1695 172.624 52.2106 172.539 52.2344 172.448C52.2582 172.358 52.2642 172.263 52.252 172.17C52.2399 172.077 52.2098 171.987 52.1636 171.906C52.1174 171.825 52.0559 171.754 51.9826 171.697C51.9094 171.64 51.8258 171.599 51.7368 171.575C51.6477 171.551 51.555 171.545 51.4638 171.558C51.3726 171.571 51.2849 171.602 51.2055 171.65L48.3598 173.335L48.3783 166.659ZM42.7928 192.406L42.7764 198.054L36.4001 194.302L36.4206 186.841L41.0845 189.585L42.7976 190.593L42.7928 192.406ZM43.4972 189.358L37.1203 185.605L42.8877 182.188L42.8768 186.081C42.8765 186.175 42.8944 186.268 42.9294 186.354C42.9643 186.441 43.0157 186.52 43.0805 186.586C43.1453 186.652 43.2222 186.705 43.307 186.741C43.3918 186.777 43.4828 186.796 43.5747 186.796C43.7598 186.796 43.9386 186.721 44.0696 186.588C44.2007 186.455 44.2747 186.274 44.2754 186.085L44.2866 182.074L50.0582 185.471L43.4972 189.358ZM50.7305 193.541L47.7281 191.762C47.5678 191.667 47.377 191.641 47.1979 191.689C47.0187 191.738 46.8659 191.857 46.7728 192.02C46.6796 192.184 46.6539 192.378 46.7014 192.561C46.7489 192.743 46.8656 192.899 47.0259 192.994L49.8641 194.676L44.1755 198.047L44.1905 192.574L44.196 190.593L50.7491 186.71L50.7305 193.541ZM59.175 184.852C59.0688 184.914 58.9806 185.004 58.9192 185.113C58.8974 185.167 58.8824 185.224 58.8745 185.283C58.8495 185.342 58.833 185.404 58.8253 185.468L58.8257 185.47L58.8253 185.471L58.8489 194.184L55.3316 196.267L52.1267 194.368L52.152 185.471L52.1516 185.47L52.152 185.468C52.1443 185.404 52.1278 185.342 52.1028 185.283C52.0949 185.224 52.0797 185.167 52.0579 185.113C51.9965 185.004 51.9083 184.914 51.8022 184.852L44.2913 180.431L44.2998 177.389L47.6962 175.377L55.0801 179.723C55.1862 179.785 55.3066 179.818 55.4291 179.818C55.5515 179.818 55.6718 179.786 55.778 179.723L55.7797 179.722L63.1971 175.328L66.6772 177.389L66.6854 180.43L59.175 184.852ZM60.9556 194.584L63.6384 192.994C63.7178 192.947 63.7873 192.885 63.843 192.81C63.8986 192.736 63.9394 192.651 63.963 192.561C63.9865 192.47 63.9923 192.376 63.98 192.283C63.9678 192.191 63.9379 192.101 63.8918 192.02C63.8457 191.939 63.7843 191.868 63.7113 191.812C63.6384 191.755 63.5552 191.713 63.4665 191.689C63.3778 191.665 63.2853 191.66 63.1944 191.672C63.1034 191.684 63.0156 191.715 62.9362 191.762L60.2449 193.356L60.2265 186.71L66.7806 190.593L66.8008 198.046L60.9556 194.584ZM67.4799 189.358L60.9189 185.471L66.6898 182.074L66.7004 186.085C66.7011 186.274 66.7751 186.455 66.9061 186.588C67.0372 186.721 67.2146 186.796 67.3997 186.796H67.4012C67.4931 186.796 67.5839 186.777 67.6688 186.741C67.7536 186.705 67.8307 186.652 67.8955 186.586C67.9603 186.52 68.0116 186.441 68.0466 186.354C68.0815 186.268 68.0992 186.175 68.099 186.081L68.0884 182.188L73.8555 185.605L67.4799 189.358ZM68.2 198.054L68.1796 190.593L69.9223 189.567L74.5551 186.841L74.5756 194.302L68.2 198.054Z" fill="black"/>
<path d="M12.8992 229H11.4712V218.78H18.0652V220.166H12.8992V223.162H17.7852V224.548H12.8992V229ZM22.8654 229.098C20.7934 229.098 19.1134 227.32 19.1134 225.15C19.1134 222.966 20.7934 221.188 22.8654 221.188C24.1254 221.188 25.2594 221.944 25.7354 222.924L25.8054 221.3H27.0654V229H25.8054L25.7354 227.39C25.2594 228.356 24.1254 229.098 22.8654 229.098ZM23.0894 227.74C24.5314 227.74 25.6934 226.578 25.6934 225.15C25.6934 223.708 24.5314 222.532 23.0894 222.532C21.6614 222.532 20.4994 223.708 20.4994 225.15C20.4994 226.578 21.6614 227.74 23.0894 227.74ZM31.8282 229.14C30.7222 229.14 29.2942 228.776 28.3982 227.796L29.3362 226.9C29.8542 227.474 30.8622 227.852 31.8282 227.852C32.8362 227.852 33.5362 227.46 33.5362 226.788C33.5362 225.206 28.6642 226.172 28.6642 223.316C28.6642 222.056 29.8122 221.174 31.5762 221.174C32.5702 221.174 33.8302 221.44 34.6702 222.448L33.8302 223.288C33.2982 222.644 32.3322 222.406 31.6182 222.406C30.6942 222.406 30.0362 222.742 30.0362 223.33C30.0362 224.73 34.9082 223.862 34.9082 226.746C34.9082 228.398 33.4382 229.14 31.8282 229.14ZM39.4685 229.126C38.0545 229.126 36.8785 228.272 36.8785 226.13V222.532H35.8425V221.3H36.9205L37.0885 218.78H38.2365V221.3H40.0845V222.532H38.2365V226.116C38.2365 227.222 38.7825 227.796 39.6505 227.796C39.8465 227.796 40.0565 227.768 40.2385 227.698L40.5885 228.916C40.2665 229.056 39.8745 229.126 39.4685 229.126ZM49.3524 229.112C47.1684 229.112 45.4044 227.32 45.4044 225.136C45.4044 222.966 47.1684 221.202 49.3524 221.202C50.6824 221.202 51.8584 221.86 52.5864 222.868L51.4524 223.624C50.9764 222.994 50.2064 222.588 49.3524 222.588C47.9244 222.588 46.7904 223.736 46.7904 225.136C46.7904 226.564 47.9244 227.712 49.3524 227.712C50.2344 227.712 51.0184 227.278 51.4804 226.606L52.6144 227.362C51.9144 228.412 50.7104 229.112 49.3524 229.112ZM55.4412 229H54.0832V218.08H55.4412V222.63C55.8612 221.832 56.6872 221.188 57.8352 221.188C59.6272 221.188 60.9852 222.42 60.9852 225.08V229H59.6132V225.08C59.6132 223.33 58.6612 222.532 57.5272 222.532C56.4072 222.532 55.4412 223.316 55.4412 225.08V229ZM66.1095 229.098C64.0375 229.098 62.3575 227.32 62.3575 225.15C62.3575 222.966 64.0375 221.188 66.1095 221.188C67.3695 221.188 68.5035 221.944 68.9795 222.924L69.0495 221.3H70.3095V229H69.0495L68.9795 227.39C68.5035 228.356 67.3695 229.098 66.1095 229.098ZM66.3335 227.74C67.7755 227.74 68.9375 226.578 68.9375 225.15C68.9375 223.708 67.7755 222.532 66.3335 222.532C64.9055 222.532 63.7435 223.708 63.7435 225.15C63.7435 226.578 64.9055 227.74 66.3335 227.74ZM73.6658 229H72.3078V221.3H73.5678L73.6518 222.56C74.0998 221.734 74.9678 221.244 76.1018 221.258C76.2978 221.258 76.4938 221.272 76.6758 221.3L76.3958 222.616C76.3118 222.602 76.2138 222.588 76.1298 222.588C74.8278 222.588 73.6658 223.316 73.6658 225.444V229ZM80.8475 232.22C79.5455 232.22 78.2855 231.632 77.5575 230.68L78.5935 229.882C79.1255 230.512 80.0075 230.904 80.9175 230.904C82.4015 230.904 83.6895 230.05 83.6895 228.02V227.432C83.2275 228.37 82.1075 229.098 80.8615 229.098C78.7895 229.098 77.1095 227.32 77.1095 225.15C77.1095 222.966 78.7895 221.188 80.8615 221.188C82.1215 221.188 83.2555 221.944 83.7315 222.924L83.8015 221.3H85.0615V227.796C85.0615 230.778 83.2695 232.22 80.8475 232.22ZM81.0855 227.74C82.5275 227.74 83.6895 226.578 83.6895 225.15C83.6895 223.708 82.5275 222.532 81.0855 222.532C79.6575 222.532 78.4955 223.708 78.4955 225.15C78.4955 226.578 79.6575 227.74 81.0855 227.74ZM90.6858 229.112C88.3478 229.112 86.5978 227.32 86.5978 225.136C86.5978 222.966 88.3478 221.202 90.5038 221.202C92.7438 221.202 94.4098 222.966 94.4098 225.136C94.4098 225.318 94.3818 225.584 94.3678 225.78H88.0678C88.2778 226.942 89.3558 227.824 90.6858 227.824C91.6378 227.824 92.3938 227.432 92.8838 226.83L93.9898 227.516C93.2618 228.482 91.9878 229.112 90.6858 229.112ZM88.0538 224.66H92.9958C92.9258 223.47 91.9318 222.476 90.5178 222.476C89.1598 222.476 88.1378 223.47 88.0538 224.66ZM97.3045 229H95.9465V221.3H97.2065L97.2905 222.56C97.7385 221.734 98.6065 221.244 99.7405 221.258C99.9365 221.258 100.132 221.272 100.314 221.3L100.034 222.616C99.9505 222.602 99.8525 222.588 99.7685 222.588C98.4665 222.588 97.3045 223.316 97.3045 225.444V229ZM20.4413 242.532V249.014L19.0833 248.986V242.532H18.1033V241.3H19.0833V241.006C19.0833 238.682 20.3013 237.87 21.7713 237.87C22.1213 237.87 22.5273 237.94 22.8073 238.038L22.4433 239.256C22.2753 239.228 22.0653 239.186 21.8833 239.186C21.0153 239.186 20.4413 239.62 20.4413 241.006V241.3H22.4293V242.532H20.4413ZM26.992 249.112C24.808 249.112 23.044 247.32 23.044 245.136C23.044 242.966 24.808 241.202 26.992 241.202C29.162 241.202 30.94 242.966 30.94 245.136C30.94 247.32 29.162 249.112 26.992 249.112ZM26.992 247.712C28.406 247.712 29.554 246.564 29.554 245.136C29.554 243.736 28.406 242.588 26.992 242.588C25.564 242.588 24.43 243.736 24.43 245.136C24.43 246.564 25.564 247.712 26.992 247.712ZM33.8465 249H32.4885V241.3H33.7485L33.8325 242.56C34.2805 241.734 35.1485 241.244 36.2825 241.258C36.4785 241.258 36.6745 241.272 36.8565 241.3L36.5765 242.616C36.4925 242.602 36.3945 242.588 36.3105 242.588C35.0085 242.588 33.8465 243.316 33.8465 245.444V249ZM45.6574 249.112C43.3194 249.112 41.5694 247.32 41.5694 245.136C41.5694 242.966 43.3194 241.202 45.4754 241.202C47.7154 241.202 49.3814 242.966 49.3814 245.136C49.3814 245.318 49.3534 245.584 49.3394 245.78H43.0394C43.2494 246.942 44.3274 247.824 45.6574 247.824C46.6094 247.824 47.3654 247.432 47.8554 246.83L48.9614 247.516C48.2334 248.482 46.9594 249.112 45.6574 249.112ZM43.0254 244.66H47.9674C47.8974 243.47 46.9034 242.476 45.4894 242.476C44.1314 242.476 43.1094 243.47 43.0254 244.66ZM52.1805 249H50.8225V238.08H52.1805V249ZM57.8117 249.112C55.4737 249.112 53.7237 247.32 53.7237 245.136C53.7237 242.966 55.4737 241.202 57.6297 241.202C59.8697 241.202 61.5357 242.966 61.5357 245.136C61.5357 245.318 61.5077 245.584 61.4937 245.78H55.1937C55.4037 246.942 56.4817 247.824 57.8117 247.824C58.7637 247.824 59.5197 247.432 60.0097 246.83L61.1157 247.516C60.3877 248.482 59.1137 249.112 57.8117 249.112ZM55.1797 244.66H60.1217C60.0517 243.47 59.0577 242.476 57.6437 242.476C56.2857 242.476 55.2637 243.47 55.1797 244.66ZM66.5585 249.112C64.3745 249.112 62.6105 247.32 62.6105 245.136C62.6105 242.966 64.3745 241.202 66.5585 241.202C67.8885 241.202 69.0645 241.86 69.7925 242.868L68.6585 243.624C68.1825 242.994 67.4125 242.588 66.5585 242.588C65.1305 242.588 63.9965 243.736 63.9965 245.136C63.9965 246.564 65.1305 247.712 66.5585 247.712C67.4405 247.712 68.2245 247.278 68.6865 246.606L69.8205 247.362C69.1205 248.412 67.9165 249.112 66.5585 249.112ZM74.2839 249.126C72.8699 249.126 71.6939 248.272 71.6939 246.13V242.532H70.6579V241.3H71.7359L71.9039 238.78H73.0519V241.3H74.8999V242.532H73.0519V246.116C73.0519 247.222 73.5979 247.796 74.4659 247.796C74.6619 247.796 74.8719 247.768 75.0539 247.698L75.4039 248.916C75.0819 249.056 74.6899 249.126 74.2839 249.126ZM78.2117 249H76.8537V241.3H78.1137L78.1977 242.56C78.6457 241.734 79.5137 241.244 80.6477 241.258C80.8437 241.258 81.0397 241.272 81.2217 241.3L80.9417 242.616C80.8577 242.602 80.7597 242.588 80.6757 242.588C79.3737 242.588 78.2117 243.316 78.2117 245.444V249ZM83.2545 240.516C82.7785 240.516 82.3865 240.124 82.3865 239.648C82.3865 239.172 82.7785 238.78 83.2545 238.78C83.7165 238.78 84.1085 239.172 84.1085 239.648C84.1085 240.124 83.7165 240.516 83.2545 240.516ZM83.9265 249H82.5685V241.3H83.9265V249ZM89.4178 249.112C87.2338 249.112 85.4698 247.32 85.4698 245.136C85.4698 242.966 87.2338 241.202 89.4178 241.202C90.7478 241.202 91.9238 241.86 92.6518 242.868L91.5178 243.624C91.0418 242.994 90.2718 242.588 89.4178 242.588C87.9898 242.588 86.8558 243.736 86.8558 245.136C86.8558 246.564 87.9898 247.712 89.4178 247.712C90.2998 247.712 91.0838 247.278 91.5458 246.606L92.6798 247.362C91.9798 248.412 90.7758 249.112 89.4178 249.112ZM31.9634 269H30.6054L27.5814 261.3H29.0514L31.2914 266.956L33.5174 261.3H34.9874L31.9634 269ZM39.3889 269.112C37.0509 269.112 35.3009 267.32 35.3009 265.136C35.3009 262.966 37.0509 261.202 39.2069 261.202C41.4469 261.202 43.1129 262.966 43.1129 265.136C43.1129 265.318 43.0849 265.584 43.0709 265.78H36.7709C36.9809 266.942 38.0589 267.824 39.3889 267.824C40.3409 267.824 41.0969 267.432 41.5869 266.83L42.6929 267.516C41.9649 268.482 40.6909 269.112 39.3889 269.112ZM36.7569 264.66H41.6989C41.6289 263.47 40.6349 262.476 39.2209 262.476C37.8629 262.476 36.8409 263.47 36.7569 264.66ZM45.9119 269H44.5539V258.08H45.9119V262.63C46.3319 261.832 47.1579 261.188 48.3059 261.188C50.0979 261.188 51.4559 262.42 51.4559 265.08V269H50.0839V265.08C50.0839 263.33 49.1319 262.532 47.9979 262.532C46.8779 262.532 45.9119 263.316 45.9119 265.08V269ZM53.9762 260.516C53.5002 260.516 53.1082 260.124 53.1082 259.648C53.1082 259.172 53.5002 258.78 53.9762 258.78C54.4382 258.78 54.8302 259.172 54.8302 259.648C54.8302 260.124 54.4382 260.516 53.9762 260.516ZM54.6482 269H53.2902V261.3H54.6482V269ZM60.1395 269.112C57.9555 269.112 56.1915 267.32 56.1915 265.136C56.1915 262.966 57.9555 261.202 60.1395 261.202C61.4695 261.202 62.6455 261.86 63.3735 262.868L62.2395 263.624C61.7635 262.994 60.9935 262.588 60.1395 262.588C58.7115 262.588 57.5775 263.736 57.5775 265.136C57.5775 266.564 58.7115 267.712 60.1395 267.712C61.0215 267.712 61.8055 267.278 62.2675 266.606L63.4015 267.362C62.7015 268.412 61.4975 269.112 60.1395 269.112ZM66.2283 269H64.8703V258.08H66.2283V269ZM71.8596 269.112C69.5216 269.112 67.7716 267.32 67.7716 265.136C67.7716 262.966 69.5216 261.202 71.6776 261.202C73.9176 261.202 75.5836 262.966 75.5836 265.136C75.5836 265.318 75.5556 265.584 75.5416 265.78H69.2416C69.4516 266.942 70.5296 267.824 71.8596 267.824C72.8116 267.824 73.5676 267.432 74.0576 266.83L75.1636 267.516C74.4356 268.482 73.1616 269.112 71.8596 269.112ZM69.2276 264.66H74.1696C74.0996 263.47 73.1056 262.476 71.6916 262.476C70.3336 262.476 69.3116 263.47 69.2276 264.66ZM79.8849 269.14C78.7789 269.14 77.3509 268.776 76.4549 267.796L77.3929 266.9C77.9109 267.474 78.9189 267.852 79.8849 267.852C80.8929 267.852 81.5929 267.46 81.5929 266.788C81.5929 265.206 76.7209 266.172 76.7209 263.316C76.7209 262.056 77.8689 261.174 79.6329 261.174C80.6269 261.174 81.8869 261.44 82.7269 262.448L81.8869 263.288C81.3549 262.644 80.3889 262.406 79.6749 262.406C78.7509 262.406 78.0929 262.742 78.0929 263.33C78.0929 264.73 82.9649 263.862 82.9649 266.746C82.9649 268.398 81.4949 269.14 79.8849 269.14Z" fill="black"/>
<path d="M164.297 19.3472C164.181 17.414 163.209 14.2835 158.351 13.0256C158.137 12.9709 157.909 13.0046 157.719 13.1195C157.529 13.2344 157.392 13.4211 157.337 13.6386C157.282 13.8562 157.314 14.0869 157.427 14.2804C157.539 14.4739 157.722 14.6143 157.936 14.671C161.842 15.6825 162.588 18.0071 162.659 19.4302C160.47 18.3171 157.989 17.9365 155.574 18.3431C153.158 18.7498 150.931 19.9227 149.213 21.6936C149.114 21.8068 149.046 21.945 149.016 22.0938C148.987 22.2427 148.997 22.3969 149.047 22.5402C149.096 22.6836 149.182 22.811 149.296 22.9092C149.41 23.0073 149.548 23.0727 149.695 23.0985C150.114 23.1707 159.931 24.9844 159.931 34.412C159.931 43.9068 152.71 46.2679 152.403 46.3632C152.281 46.4013 152.168 46.4674 152.075 46.5564C151.981 46.6455 151.909 46.7551 151.864 46.8769C151.819 46.9986 151.802 47.1293 151.814 47.2588C151.827 47.3883 151.868 47.5132 151.936 47.6238C152.05 47.8104 154.779 52.2066 158.709 52.904C159.523 53.0448 160.357 53.0188 161.162 52.8277C161.966 52.6366 162.724 52.2841 163.392 51.7911C164.454 52.5601 165.721 52.9814 167.025 52.9986C167.377 52.9978 167.729 52.9661 168.076 52.904C172.006 52.2066 174.733 47.8104 174.847 47.6238C174.915 47.5132 174.957 47.3883 174.969 47.2588C174.981 47.1293 174.964 46.9986 174.919 46.8769C174.874 46.7551 174.802 46.6455 174.709 46.5564C174.615 46.4674 174.503 46.4013 174.38 46.3632C174.073 46.2679 166.852 43.9068 166.852 34.412C166.852 24.9844 176.671 23.1707 177.09 23.0985C177.237 23.0727 177.375 23.0073 177.489 22.9092C177.603 22.811 177.689 22.6836 177.738 22.5402C177.788 22.3969 177.798 22.2427 177.769 22.0938C177.739 21.945 177.671 21.8068 177.572 21.6936C175.876 19.9473 173.685 18.7824 171.305 18.3617C168.924 17.941 166.475 18.2856 164.297 19.3472ZM165.178 34.4119C165.042 37.1247 165.696 39.8182 167.061 42.1553C168.425 44.4923 170.438 46.3691 172.847 47.5507C171.629 49.3329 169.842 50.6331 167.788 51.2312C167.098 51.3419 166.392 51.2953 165.721 51.0948C165.051 50.8943 164.433 50.5448 163.912 50.0718C163.764 49.9531 163.581 49.8886 163.392 49.8886C163.204 49.8886 163.021 49.9531 162.873 50.0718C162.352 50.5428 161.734 50.891 161.065 51.0916C160.396 51.2921 159.691 51.3401 159.002 51.232C156.947 50.6322 155.158 49.3318 153.938 47.5498C156.347 46.3678 158.359 44.491 159.723 42.1542C161.086 39.8174 161.741 37.1243 161.605 34.4118C161.605 26.0184 154.745 22.8562 151.561 21.8403C153.186 20.575 155.162 19.8609 157.209 19.7991C159.256 19.7373 161.27 20.331 162.966 21.4961C162.989 21.5096 163.015 21.5051 163.039 21.5163C163.088 21.5469 163.141 21.5718 163.196 21.5907C163.26 21.6067 163.326 21.6148 163.392 21.6147C163.526 21.6112 163.657 21.5748 163.774 21.5087C163.788 21.5012 163.805 21.5045 163.819 21.4961C165.515 20.3321 167.529 19.7391 169.576 19.8008C171.622 19.8626 173.598 20.5761 175.223 21.8403C172.038 22.8562 165.178 26.0184 165.178 34.4119ZM204.057 29.8789C203.99 29.7319 203.883 29.6075 203.749 29.5203C203.614 29.4331 203.458 29.3869 203.299 29.3871H194.965L200.768 19.0829C200.84 18.9536 200.878 18.8073 200.877 18.6586C200.877 18.5098 200.838 18.3638 200.764 18.2352C200.69 18.1066 200.585 17.9998 200.458 17.9256C200.331 17.8514 200.187 17.8123 200.04 17.8124H188.638C188.482 17.8124 188.33 17.8563 188.198 17.9392C188.065 18.0221 187.959 18.1407 187.889 18.2817L179.743 34.8174C179.679 34.9469 179.649 35.0908 179.655 35.2355C179.662 35.3801 179.704 35.5208 179.779 35.6439C179.854 35.7671 179.959 35.8688 180.084 35.9392C180.209 36.0097 180.349 36.0466 180.492 36.0465H189.143L184.578 51.4883C184.523 51.6752 184.533 51.8757 184.606 52.0561C184.68 52.2365 184.812 52.3858 184.981 52.4788C185.15 52.5718 185.345 52.6028 185.534 52.5667C185.723 52.5305 185.894 52.4294 186.018 52.2803L203.938 30.7845C204.041 30.6609 204.107 30.5099 204.128 30.3494C204.149 30.1889 204.124 30.0256 204.057 29.8789ZM187.335 48.0715L191.068 35.4411C191.105 35.3143 191.113 35.1804 191.091 35.05C191.068 34.9196 191.016 34.7963 190.938 34.6901C190.86 34.5838 190.759 34.4976 190.642 34.4382C190.526 34.3788 190.397 34.3479 190.267 34.348H181.845L189.154 19.5108H198.599L192.796 29.815C192.724 29.9442 192.686 30.0906 192.686 30.2393C192.687 30.3881 192.726 30.534 192.8 30.6626C192.873 30.7912 192.979 30.898 193.106 30.9722C193.233 31.0464 193.377 31.0855 193.524 31.0855H201.495L187.335 48.0715Z" fill="black"/>
<path d="M131.368 81.9986H127.266V71.7786H130.92C132.81 71.7786 134.07 72.8706 134.07 74.4246C134.07 75.3626 133.594 76.0906 132.838 76.5246C133.93 76.8886 134.686 77.7846 134.686 79.0586C134.686 80.7526 133.356 81.9986 131.368 81.9986ZM128.708 73.1086V76.0626L130.976 76.0486C131.97 76.0346 132.656 75.4326 132.656 74.6206C132.656 73.7946 132.068 73.1086 130.892 73.1086H128.708ZM128.708 77.3366V80.5986H131.326C132.502 80.5986 133.202 79.9126 133.202 78.9606C133.202 77.9946 132.432 77.3366 131.41 77.3366H128.708ZM136.931 73.5146C136.455 73.5146 136.063 73.1226 136.063 72.6466C136.063 72.1706 136.455 71.7786 136.931 71.7786C137.393 71.7786 137.785 72.1706 137.785 72.6466C137.785 73.1226 137.393 73.5146 136.931 73.5146ZM137.603 81.9986H136.245V74.2986H137.603V81.9986ZM143.095 82.1106C140.911 82.1106 139.147 80.3186 139.147 78.1346C139.147 75.9646 140.911 74.2006 143.095 74.2006C145.265 74.2006 147.043 75.9646 147.043 78.1346C147.043 80.3186 145.265 82.1106 143.095 82.1106ZM143.095 80.7106C144.509 80.7106 145.657 79.5626 145.657 78.1346C145.657 76.7346 144.509 75.5866 143.095 75.5866C141.667 75.5866 140.533 76.7346 140.533 78.1346C140.533 79.5626 141.667 80.7106 143.095 80.7106ZM151.867 85.2186C150.565 85.2186 149.305 84.6306 148.577 83.6786L149.613 82.8806C150.145 83.5106 151.027 83.9026 151.937 83.9026C153.421 83.9026 154.709 83.0486 154.709 81.0186V80.4306C154.247 81.3686 153.127 82.0966 151.881 82.0966C149.809 82.0966 148.129 80.3186 148.129 78.1486C148.129 75.9646 149.809 74.1866 151.881 74.1866C153.141 74.1866 154.275 74.9426 154.751 75.9226L154.821 74.2986H156.081V80.7946C156.081 83.7766 154.289 85.2186 151.867 85.2186ZM152.105 80.7386C153.547 80.7386 154.709 79.5766 154.709 78.1486C154.709 76.7066 153.547 75.5306 152.105 75.5306C150.677 75.5306 149.515 76.7066 149.515 78.1486C149.515 79.5766 150.677 80.7386 152.105 80.7386ZM161.369 82.0966C159.297 82.0966 157.617 80.3186 157.617 78.1486C157.617 75.9646 159.297 74.1866 161.369 74.1866C162.629 74.1866 163.763 74.9426 164.239 75.9226L164.309 74.2986H165.569V81.9986H164.309L164.239 80.3886C163.763 81.3546 162.629 82.0966 161.369 82.0966ZM161.593 80.7386C163.035 80.7386 164.197 79.5766 164.197 78.1486C164.197 76.7066 163.035 75.5306 161.593 75.5306C160.165 75.5306 159.003 76.7066 159.003 78.1486C159.003 79.5766 160.165 80.7386 161.593 80.7386ZM170.332 82.1386C169.226 82.1386 167.798 81.7746 166.902 80.7946L167.84 79.8986C168.358 80.4726 169.366 80.8506 170.332 80.8506C171.34 80.8506 172.04 80.4586 172.04 79.7866C172.04 78.2046 167.168 79.1706 167.168 76.3146C167.168 75.0546 168.316 74.1726 170.08 74.1726C171.074 74.1726 172.334 74.4386 173.174 75.4466L172.334 76.2866C171.802 75.6426 170.836 75.4046 170.122 75.4046C169.198 75.4046 168.54 75.7406 168.54 76.3286C168.54 77.7286 173.412 76.8606 173.412 79.7446C173.412 81.3966 171.942 82.1386 170.332 82.1386ZM182.487 82.1106C180.149 82.1106 178.399 80.3186 178.399 78.1346C178.399 75.9646 180.149 74.2006 182.305 74.2006C184.545 74.2006 186.211 75.9646 186.211 78.1346C186.211 78.3166 186.183 78.5826 186.169 78.7786H179.869C180.079 79.9406 181.157 80.8226 182.487 80.8226C183.439 80.8226 184.195 80.4306 184.685 79.8286L185.791 80.5146C185.063 81.4806 183.789 82.1106 182.487 82.1106ZM179.855 77.6586H184.797C184.727 76.4686 183.733 75.4746 182.319 75.4746C180.961 75.4746 179.939 76.4686 179.855 77.6586ZM189.105 81.9986H187.747V74.2986H189.007L189.077 75.6566C189.497 74.8446 190.323 74.1866 191.499 74.1866C193.291 74.1866 194.649 75.4186 194.649 78.0786V81.9986H193.277V78.0786C193.277 76.3286 192.325 75.5306 191.191 75.5306C190.071 75.5306 189.105 76.3146 189.105 78.0786V81.9986ZM200.11 82.1106C197.772 82.1106 196.022 80.3186 196.022 78.1346C196.022 75.9646 197.772 74.2006 199.928 74.2006C202.168 74.2006 203.834 75.9646 203.834 78.1346C203.834 78.3166 203.806 78.5826 203.792 78.7786H197.492C197.702 79.9406 198.78 80.8226 200.11 80.8226C201.062 80.8226 201.818 80.4306 202.308 79.8286L203.414 80.5146C202.686 81.4806 201.412 82.1106 200.11 82.1106ZM197.478 77.6586H202.42C202.35 76.4686 201.356 75.4746 199.942 75.4746C198.584 75.4746 197.562 76.4686 197.478 77.6586ZM206.728 81.9986H205.37V74.2986H206.63L206.714 75.5586C207.162 74.7326 208.03 74.2426 209.164 74.2566C209.36 74.2566 209.556 74.2706 209.738 74.2986L209.458 75.6146C209.374 75.6006 209.276 75.5866 209.192 75.5866C207.89 75.5866 206.728 76.3146 206.728 78.4426V81.9986ZM213.91 85.2186C212.608 85.2186 211.348 84.6306 210.62 83.6786L211.656 82.8806C212.188 83.5106 213.07 83.9026 213.98 83.9026C215.464 83.9026 216.752 83.0486 216.752 81.0186V80.4306C216.29 81.3686 215.17 82.0966 213.924 82.0966C211.852 82.0966 210.172 80.3186 210.172 78.1486C210.172 75.9646 211.852 74.1866 213.924 74.1866C215.184 74.1866 216.318 74.9426 216.794 75.9226L216.864 74.2986H218.124V80.7946C218.124 83.7766 216.332 85.2186 213.91 85.2186ZM214.148 80.7386C215.59 80.7386 216.752 79.5766 216.752 78.1486C216.752 76.7066 215.59 75.5306 214.148 75.5306C212.72 75.5306 211.558 76.7066 211.558 78.1486C211.558 79.5766 212.72 80.7386 214.148 80.7386ZM220.71 85.1626C220.15 85.1626 219.73 85.0646 219.296 84.8826L219.702 83.6646C219.94 83.7626 220.332 83.8606 220.654 83.8606C221.522 83.8606 222.082 83.0346 222.53 81.8446L219.45 74.2986H220.92L223.16 79.9966L225.386 74.2986H226.842L223.902 81.9986C223.062 84.2106 222.18 85.1626 220.71 85.1626ZM145.239 95.5306V102.013L143.881 101.985V95.5306H142.901V94.2986H143.881V94.0046C143.881 91.6806 145.099 90.8686 146.569 90.8686C146.919 90.8686 147.325 90.9386 147.605 91.0366L147.241 92.2546C147.073 92.2266 146.863 92.1846 146.681 92.1846C145.813 92.1846 145.239 92.6186 145.239 94.0046V94.2986H147.227V95.5306H145.239ZM149.949 101.999H148.591V94.2986H149.851L149.935 95.5586C150.383 94.7326 151.251 94.2426 152.385 94.2566C152.581 94.2566 152.777 94.2706 152.959 94.2986L152.679 95.6146C152.595 95.6006 152.497 95.5866 152.413 95.5866C151.111 95.5866 149.949 96.3146 149.949 98.4426V101.999ZM157.341 102.111C155.157 102.111 153.393 100.319 153.393 98.1346C153.393 95.9646 155.157 94.2006 157.341 94.2006C159.511 94.2006 161.289 95.9646 161.289 98.1346C161.289 100.319 159.511 102.111 157.341 102.111ZM157.341 100.711C158.755 100.711 159.903 99.5626 159.903 98.1346C159.903 96.7346 158.755 95.5866 157.341 95.5866C155.913 95.5866 154.779 96.7346 154.779 98.1346C154.779 99.5626 155.913 100.711 157.341 100.711ZM164.195 101.999H162.837V94.2986H164.097L164.167 95.5726C164.559 94.6766 165.427 94.1866 166.267 94.1866C167.499 94.1866 168.297 94.9006 168.619 95.8246C168.941 94.9146 169.739 94.1866 170.859 94.1866C172.497 94.1866 173.715 95.2366 173.715 97.9106V101.999H172.343V97.9106C172.343 96.1466 171.559 95.5306 170.649 95.5306C169.795 95.5306 168.955 96.1466 168.955 97.9106V101.999H167.583V97.9106C167.583 96.1466 166.799 95.5306 165.889 95.5306C164.979 95.5306 164.195 96.3146 164.195 98.0786V101.999ZM181.046 95.5306V102.013L179.688 101.985V95.5306H178.708V94.2986H179.688V94.0046C179.688 91.6806 180.906 90.8686 182.376 90.8686C182.726 90.8686 183.132 90.9386 183.412 91.0366L183.048 92.2546C182.88 92.2266 182.67 92.1846 182.488 92.1846C181.62 92.1846 181.046 92.6186 181.046 94.0046V94.2986H183.034V95.5306H181.046ZM187.597 102.111C185.413 102.111 183.649 100.319 183.649 98.1346C183.649 95.9646 185.413 94.2006 187.597 94.2006C189.767 94.2006 191.545 95.9646 191.545 98.1346C191.545 100.319 189.767 102.111 187.597 102.111ZM187.597 100.711C189.011 100.711 190.159 99.5626 190.159 98.1346C190.159 96.7346 189.011 95.5866 187.597 95.5866C186.169 95.5866 185.035 96.7346 185.035 98.1346C185.035 99.5626 186.169 100.711 187.597 100.711ZM196.579 102.111C194.395 102.111 192.631 100.319 192.631 98.1346C192.631 95.9646 194.395 94.2006 196.579 94.2006C198.749 94.2006 200.527 95.9646 200.527 98.1346C200.527 100.319 198.749 102.111 196.579 102.111ZM196.579 100.711C197.993 100.711 199.141 99.5626 199.141 98.1346C199.141 96.7346 197.993 95.5866 196.579 95.5866C195.151 95.5866 194.017 96.7346 194.017 98.1346C194.017 99.5626 195.151 100.711 196.579 100.711ZM205.365 102.097C203.293 102.097 201.613 100.319 201.613 98.1486C201.613 95.9646 203.293 94.1866 205.365 94.1866C206.611 94.1866 207.731 94.9146 208.193 95.8806V91.0786H209.565V101.999H208.305L208.235 100.389C207.759 101.355 206.625 102.097 205.365 102.097ZM205.589 100.739C207.031 100.739 208.193 99.5766 208.193 98.1486C208.193 96.7066 207.031 95.5306 205.589 95.5306C204.161 95.5306 202.999 96.7066 202.999 98.1486C202.999 99.5766 204.161 100.739 205.589 100.739ZM159.346 121.999H157.988L155.3 114.299H156.756L158.674 119.899L160.536 114.299H161.922L163.798 119.899L165.716 114.299H167.172L164.47 121.999H163.126L161.236 116.469L159.346 121.999ZM171.432 122.097C169.36 122.097 167.68 120.319 167.68 118.149C167.68 115.965 169.36 114.187 171.432 114.187C172.692 114.187 173.826 114.943 174.302 115.923L174.372 114.299H175.632V121.999H174.372L174.302 120.389C173.826 121.355 172.692 122.097 171.432 122.097ZM171.656 120.739C173.098 120.739 174.26 119.577 174.26 118.149C174.26 116.707 173.098 115.531 171.656 115.531C170.228 115.531 169.066 116.707 169.066 118.149C169.066 119.577 170.228 120.739 171.656 120.739ZM180.395 122.139C179.289 122.139 177.861 121.775 176.965 120.795L177.903 119.899C178.421 120.473 179.429 120.851 180.395 120.851C181.403 120.851 182.103 120.459 182.103 119.787C182.103 118.205 177.231 119.171 177.231 116.315C177.231 115.055 178.379 114.173 180.143 114.173C181.137 114.173 182.397 114.439 183.237 115.447L182.397 116.287C181.865 115.643 180.899 115.405 180.185 115.405C179.261 115.405 178.603 115.741 178.603 116.329C178.603 117.729 183.475 116.861 183.475 119.745C183.475 121.397 182.005 122.139 180.395 122.139ZM188.035 122.125C186.621 122.125 185.445 121.271 185.445 119.129V115.531H184.409V114.299H185.487L185.655 111.779H186.803V114.299H188.651V115.531H186.803V119.115C186.803 120.221 187.349 120.795 188.217 120.795C188.413 120.795 188.623 120.767 188.805 120.697L189.155 121.915C188.833 122.055 188.441 122.125 188.035 122.125ZM193.834 122.111C191.496 122.111 189.746 120.319 189.746 118.135C189.746 115.965 191.496 114.201 193.652 114.201C195.892 114.201 197.558 115.965 197.558 118.135C197.558 118.317 197.53 118.583 197.516 118.779H191.216C191.426 119.941 192.504 120.823 193.834 120.823C194.786 120.823 195.542 120.431 196.032 119.829L197.138 120.515C196.41 121.481 195.136 122.111 193.834 122.111ZM191.202 117.659H196.144C196.074 116.469 195.08 115.475 193.666 115.475C192.308 115.475 191.286 116.469 191.202 117.659Z" fill="black"/>
<path d="M193.739 194.872L187.335 178.089C187.292 177.983 187.216 177.893 187.118 177.834C187.02 177.775 186.906 177.75 186.792 177.762H155.959C155.843 177.767 155.73 177.804 155.632 177.867C155.534 177.931 155.456 178.021 155.404 178.125L149.017 194.859C148.981 195.053 149.002 195.252 149.076 195.434C149.13 195.513 149.203 195.577 149.29 195.619C149.376 195.66 149.472 195.678 149.567 195.67H154.58V199.37C154.572 199.455 154.583 199.54 154.611 199.62C154.64 199.699 154.686 199.772 154.746 199.832C154.806 199.892 154.879 199.938 154.958 199.966C155.038 199.995 155.123 200.006 155.208 199.998H188.673C188.758 200.006 188.843 199.995 188.922 199.966C189.002 199.937 189.074 199.891 189.134 199.831C189.194 199.771 189.24 199.699 189.268 199.619C189.297 199.54 189.308 199.455 189.3 199.37V195.67H192.997C193.202 195.643 193.391 195.542 193.527 195.386C193.814 195.099 193.756 194.925 193.739 194.872ZM189.879 188.487H178.627L177.876 183.44H187.947L189.879 188.487ZM178.22 194.509H164.344L164.993 189.744H177.57L178.22 194.509ZM186.251 179.019L187.539 182.184H177.686L177.218 179.019H186.251ZM166.5 179.019H175.97L176.438 182.184H166.033L166.5 179.019ZM176.721 183.44L177.473 188.487H165.185L165.935 183.44H176.721ZM156.402 179.019H165.251L164.783 182.184H155.229L156.402 179.019ZM154.711 183.44H164.594L163.844 188.487H152.779L154.711 183.44ZM150.521 194.509L152.361 189.744H163.743L163.094 194.509H150.521ZM188.14 198.742H155.929V195.67H188.14V198.742ZM179.47 194.415L178.82 189.649H190.39L192.23 194.415H179.47Z" fill="black"/>
<path d="M178.765 167.464H176.968L176.958 167.381C176.839 166.319 176.419 165.314 175.747 164.484L175.691 164.417L176.984 163.122C177.039 163.068 177.084 163.004 177.114 162.934C177.145 162.863 177.162 162.787 177.162 162.709C177.163 162.632 177.149 162.555 177.12 162.484C177.091 162.412 177.048 162.347 176.993 162.293C176.939 162.238 176.874 162.195 176.803 162.165C176.731 162.136 176.655 162.121 176.578 162.122C176.5 162.122 176.424 162.138 176.353 162.169C176.282 162.199 176.218 162.244 176.165 162.299L174.87 163.594L174.803 163.538C173.973 162.865 172.968 162.445 171.907 162.326L171.822 162.315V160.587C171.822 160.431 171.76 160.282 171.65 160.172C171.54 160.062 171.391 160 171.235 160C171.08 160 170.931 160.062 170.821 160.172C170.711 160.282 170.649 160.431 170.649 160.587V162.384L170.562 162.395C169.502 162.513 168.498 162.934 167.669 163.607L167.603 163.663L166.309 162.368C166.256 162.312 166.192 162.267 166.122 162.237C166.051 162.206 165.975 162.191 165.898 162.19C165.821 162.19 165.745 162.206 165.674 162.237C165.604 162.267 165.54 162.312 165.487 162.368C165.431 162.42 165.386 162.484 165.356 162.555C165.325 162.625 165.309 162.702 165.309 162.779C165.309 162.856 165.325 162.932 165.356 163.003C165.386 163.073 165.431 163.137 165.487 163.19L166.78 164.485L166.723 164.553C166.052 165.383 165.633 166.388 165.513 167.449L165.502 167.533H163.707C163.629 167.527 163.55 167.539 163.476 167.566C163.402 167.594 163.335 167.637 163.279 167.693C163.224 167.749 163.181 167.816 163.153 167.89C163.125 167.963 163.114 168.042 163.12 168.121C163.12 168.277 163.182 168.427 163.292 168.537C163.402 168.647 163.551 168.709 163.707 168.71H165.502L165.513 168.795C165.646 169.854 166.066 170.856 166.726 171.693L166.779 171.762L165.487 172.984C165.431 173.037 165.386 173.101 165.356 173.171C165.325 173.242 165.31 173.318 165.309 173.395C165.309 173.472 165.325 173.548 165.355 173.619C165.385 173.69 165.43 173.754 165.486 173.807C165.539 173.863 165.602 173.907 165.673 173.938C165.743 173.968 165.82 173.984 165.896 173.984C165.973 173.984 166.049 173.968 166.12 173.938C166.191 173.907 166.254 173.863 166.307 173.807L167.603 172.512L167.669 172.568C168.498 173.24 169.503 173.661 170.563 173.779L170.649 173.79V175.587C170.649 175.743 170.711 175.892 170.821 176.003C170.931 176.113 171.08 176.174 171.235 176.174C171.391 176.174 171.54 176.113 171.65 176.003C171.76 175.892 171.822 175.743 171.822 175.587V173.79L171.909 173.779C172.966 173.647 173.968 173.227 174.804 172.566L174.872 172.514L176.163 173.806C176.216 173.862 176.28 173.907 176.35 173.937C176.42 173.968 176.496 173.984 176.573 173.984C176.65 173.984 176.726 173.968 176.797 173.938C176.867 173.908 176.931 173.863 176.984 173.807C177.039 173.754 177.083 173.691 177.114 173.62C177.144 173.55 177.16 173.474 177.161 173.397C177.161 173.32 177.146 173.243 177.115 173.172C177.085 173.101 177.04 173.038 176.984 172.985L175.691 171.689L175.748 171.622C176.419 170.792 176.839 169.787 176.958 168.725L176.968 168.641H178.765C178.921 168.641 179.07 168.579 179.18 168.469C179.29 168.358 179.352 168.209 179.352 168.053C179.352 167.897 179.29 167.747 179.18 167.637C179.07 167.526 178.921 167.464 178.765 167.464ZM174.521 171.272C173.886 171.909 173.076 172.343 172.194 172.519C171.311 172.695 170.397 172.605 169.566 172.261C168.734 171.917 168.024 171.333 167.524 170.585C167.025 169.836 166.758 168.956 166.758 168.056C166.743 167.468 166.846 166.882 167.062 166.335C167.278 165.788 167.602 165.29 168.016 164.872C168.432 164.438 168.932 164.094 169.486 163.859C170.039 163.624 170.634 163.503 171.235 163.504C172.14 163.492 173.028 163.749 173.785 164.244C174.543 164.738 175.136 165.448 175.489 166.282C175.842 167.116 175.938 168.036 175.766 168.924C175.593 169.813 175.16 170.631 174.521 171.272Z" fill="black"/>
<path d="M126.179 229.001H122.077V218.781H125.731C127.621 218.781 128.881 219.873 128.881 221.427C128.881 222.365 128.405 223.093 127.649 223.527C128.741 223.891 129.497 224.787 129.497 226.061C129.497 227.755 128.167 229.001 126.179 229.001ZM123.519 220.111V223.065L125.787 223.051C126.781 223.037 127.467 222.435 127.467 221.623C127.467 220.797 126.879 220.111 125.703 220.111H123.519ZM123.519 224.339V227.601H126.137C127.313 227.601 128.013 226.915 128.013 225.963C128.013 224.997 127.243 224.339 126.221 224.339H123.519ZM131.742 220.517C131.266 220.517 130.874 220.125 130.874 219.649C130.874 219.173 131.266 218.781 131.742 218.781C132.204 218.781 132.596 219.173 132.596 219.649C132.596 220.125 132.204 220.517 131.742 220.517ZM132.414 229.001H131.056V221.301H132.414V229.001ZM137.905 229.113C135.721 229.113 133.957 227.321 133.957 225.137C133.957 222.967 135.721 221.203 137.905 221.203C140.075 221.203 141.853 222.967 141.853 225.137C141.853 227.321 140.075 229.113 137.905 229.113ZM137.905 227.713C139.319 227.713 140.467 226.565 140.467 225.137C140.467 223.737 139.319 222.589 137.905 222.589C136.477 222.589 135.343 223.737 135.343 225.137C135.343 226.565 136.477 227.713 137.905 227.713ZM146.678 232.221C145.376 232.221 144.116 231.633 143.388 230.681L144.424 229.883C144.956 230.513 145.838 230.905 146.748 230.905C148.232 230.905 149.52 230.051 149.52 228.021V227.433C149.058 228.371 147.938 229.099 146.692 229.099C144.62 229.099 142.94 227.321 142.94 225.151C142.94 222.967 144.62 221.189 146.692 221.189C147.952 221.189 149.086 221.945 149.562 222.925L149.632 221.301H150.892V227.797C150.892 230.779 149.1 232.221 146.678 232.221ZM146.916 227.741C148.358 227.741 149.52 226.579 149.52 225.151C149.52 223.709 148.358 222.533 146.916 222.533C145.488 222.533 144.326 223.709 144.326 225.151C144.326 226.579 145.488 227.741 146.916 227.741ZM156.18 229.099C154.108 229.099 152.428 227.321 152.428 225.151C152.428 222.967 154.108 221.189 156.18 221.189C157.44 221.189 158.574 221.945 159.05 222.925L159.12 221.301H160.38V229.001H159.12L159.05 227.391C158.574 228.357 157.44 229.099 156.18 229.099ZM156.404 227.741C157.846 227.741 159.008 226.579 159.008 225.151C159.008 223.709 157.846 222.533 156.404 222.533C154.976 222.533 153.814 223.709 153.814 225.151C153.814 226.579 154.976 227.741 156.404 227.741ZM165.143 229.141C164.037 229.141 162.609 228.777 161.713 227.797L162.651 226.901C163.169 227.475 164.177 227.853 165.143 227.853C166.151 227.853 166.851 227.461 166.851 226.789C166.851 225.207 161.979 226.173 161.979 223.317C161.979 222.057 163.127 221.175 164.891 221.175C165.885 221.175 167.145 221.441 167.985 222.449L167.145 223.289C166.613 222.645 165.647 222.407 164.933 222.407C164.009 222.407 163.351 222.743 163.351 223.331C163.351 224.731 168.223 223.863 168.223 226.747C168.223 228.399 166.753 229.141 165.143 229.141ZM177.297 229.113C174.959 229.113 173.209 227.321 173.209 225.137C173.209 222.967 174.959 221.203 177.115 221.203C179.355 221.203 181.021 222.967 181.021 225.137C181.021 225.319 180.993 225.585 180.979 225.781H174.679C174.889 226.943 175.967 227.825 177.297 227.825C178.249 227.825 179.005 227.433 179.495 226.831L180.601 227.517C179.873 228.483 178.599 229.113 177.297 229.113ZM174.665 224.661H179.607C179.537 223.471 178.543 222.477 177.129 222.477C175.771 222.477 174.749 223.471 174.665 224.661ZM183.916 229.001H182.558V221.301H183.818L183.888 222.659C184.308 221.847 185.134 221.189 186.31 221.189C188.102 221.189 189.46 222.421 189.46 225.081V229.001H188.088V225.081C188.088 223.331 187.136 222.533 186.002 222.533C184.882 222.533 183.916 223.317 183.916 225.081V229.001ZM194.92 229.113C192.582 229.113 190.832 227.321 190.832 225.137C190.832 222.967 192.582 221.203 194.738 221.203C196.978 221.203 198.644 222.967 198.644 225.137C198.644 225.319 198.616 225.585 198.602 225.781H192.302C192.512 226.943 193.59 227.825 194.92 227.825C195.872 227.825 196.628 227.433 197.118 226.831L198.224 227.517C197.496 228.483 196.222 229.113 194.92 229.113ZM192.288 224.661H197.23C197.16 223.471 196.166 222.477 194.752 222.477C193.394 222.477 192.372 223.471 192.288 224.661ZM201.539 229.001H200.181V221.301H201.441L201.525 222.561C201.973 221.735 202.841 221.245 203.975 221.259C204.171 221.259 204.367 221.273 204.549 221.301L204.269 222.617C204.185 222.603 204.087 222.589 204.003 222.589C202.701 222.589 201.539 223.317 201.539 225.445V229.001ZM208.721 232.221C207.419 232.221 206.159 231.633 205.431 230.681L206.467 229.883C206.999 230.513 207.881 230.905 208.791 230.905C210.275 230.905 211.563 230.051 211.563 228.021V227.433C211.101 228.371 209.981 229.099 208.735 229.099C206.663 229.099 204.983 227.321 204.983 225.151C204.983 222.967 206.663 221.189 208.735 221.189C209.995 221.189 211.129 221.945 211.605 222.925L211.675 221.301H212.935V227.797C212.935 230.779 211.143 232.221 208.721 232.221ZM208.959 227.741C210.401 227.741 211.563 226.579 211.563 225.151C211.563 223.709 210.401 222.533 208.959 222.533C207.531 222.533 206.369 223.709 206.369 225.151C206.369 226.579 207.531 227.741 208.959 227.741ZM215.521 232.165C214.961 232.165 214.541 232.067 214.107 231.885L214.513 230.667C214.751 230.765 215.143 230.863 215.465 230.863C216.333 230.863 216.893 230.037 217.341 228.847L214.261 221.301H215.731L217.971 226.999L220.197 221.301H221.653L218.713 229.001C217.873 231.213 216.991 232.165 215.521 232.165ZM140.05 242.533V249.015L138.692 248.987V242.533H137.712V241.301H138.692V241.007C138.692 238.683 139.91 237.871 141.38 237.871C141.73 237.871 142.136 237.941 142.416 238.039L142.052 239.257C141.884 239.229 141.674 239.187 141.492 239.187C140.624 239.187 140.05 239.621 140.05 241.007V241.301H142.038V242.533H140.05ZM144.76 249.001H143.402V241.301H144.662L144.746 242.561C145.194 241.735 146.062 241.245 147.196 241.259C147.392 241.259 147.588 241.273 147.77 241.301L147.49 242.617C147.406 242.603 147.308 242.589 147.224 242.589C145.922 242.589 144.76 243.317 144.76 245.445V249.001ZM152.151 249.113C149.967 249.113 148.203 247.321 148.203 245.137C148.203 242.967 149.967 241.203 152.151 241.203C154.321 241.203 156.099 242.967 156.099 245.137C156.099 247.321 154.321 249.113 152.151 249.113ZM152.151 247.713C153.565 247.713 154.713 246.565 154.713 245.137C154.713 243.737 153.565 242.589 152.151 242.589C150.723 242.589 149.589 243.737 149.589 245.137C149.589 246.565 150.723 247.713 152.151 247.713ZM159.006 249.001H157.648V241.301H158.908L158.978 242.575C159.37 241.679 160.238 241.189 161.078 241.189C162.31 241.189 163.108 241.903 163.43 242.827C163.752 241.917 164.55 241.189 165.67 241.189C167.308 241.189 168.526 242.239 168.526 244.913V249.001H167.154V244.913C167.154 243.149 166.37 242.533 165.46 242.533C164.606 242.533 163.766 243.149 163.766 244.913V249.001H162.394V244.913C162.394 243.149 161.61 242.533 160.7 242.533C159.79 242.533 159.006 243.317 159.006 245.081V249.001ZM175.856 242.533V249.015L174.498 248.987V242.533H173.518V241.301H174.498V241.007C174.498 238.683 175.716 237.871 177.186 237.871C177.536 237.871 177.942 237.941 178.222 238.039L177.858 239.257C177.69 239.229 177.48 239.187 177.298 239.187C176.43 239.187 175.856 239.621 175.856 241.007V241.301H177.844V242.533H175.856ZM182.407 249.113C180.223 249.113 178.459 247.321 178.459 245.137C178.459 242.967 180.223 241.203 182.407 241.203C184.577 241.203 186.355 242.967 186.355 245.137C186.355 247.321 184.577 249.113 182.407 249.113ZM182.407 247.713C183.821 247.713 184.969 246.565 184.969 245.137C184.969 243.737 183.821 242.589 182.407 242.589C180.979 242.589 179.845 243.737 179.845 245.137C179.845 246.565 180.979 247.713 182.407 247.713ZM191.39 249.113C189.206 249.113 187.442 247.321 187.442 245.137C187.442 242.967 189.206 241.203 191.39 241.203C193.56 241.203 195.338 242.967 195.338 245.137C195.338 247.321 193.56 249.113 191.39 249.113ZM191.39 247.713C192.804 247.713 193.952 246.565 193.952 245.137C193.952 243.737 192.804 242.589 191.39 242.589C189.962 242.589 188.828 243.737 188.828 245.137C188.828 246.565 189.962 247.713 191.39 247.713ZM200.176 249.099C198.104 249.099 196.424 247.321 196.424 245.151C196.424 242.967 198.104 241.189 200.176 241.189C201.422 241.189 202.542 241.917 203.004 242.883V238.081H204.376V249.001H203.116L203.046 247.391C202.57 248.357 201.436 249.099 200.176 249.099ZM200.4 247.741C201.842 247.741 203.004 246.579 203.004 245.151C203.004 243.709 201.842 242.533 200.4 242.533C198.972 242.533 197.81 243.709 197.81 245.151C197.81 246.579 198.972 247.741 200.4 247.741ZM154.156 269.001H152.798L150.11 261.301H151.566L153.484 266.901L155.346 261.301H156.732L158.608 266.901L160.526 261.301H161.982L159.28 269.001H157.936L156.046 263.471L154.156 269.001ZM166.242 269.099C164.17 269.099 162.49 267.321 162.49 265.151C162.49 262.967 164.17 261.189 166.242 261.189C167.502 261.189 168.636 261.945 169.112 262.925L169.182 261.301H170.442V269.001H169.182L169.112 267.391C168.636 268.357 167.502 269.099 166.242 269.099ZM166.466 267.741C167.908 267.741 169.07 266.579 169.07 265.151C169.07 263.709 167.908 262.533 166.466 262.533C165.038 262.533 163.876 263.709 163.876 265.151C163.876 266.579 165.038 267.741 166.466 267.741ZM175.205 269.141C174.099 269.141 172.671 268.777 171.775 267.797L172.713 266.901C173.231 267.475 174.239 267.853 175.205 267.853C176.213 267.853 176.913 267.461 176.913 266.789C176.913 265.207 172.041 266.173 172.041 263.317C172.041 262.057 173.189 261.175 174.953 261.175C175.947 261.175 177.207 261.441 178.047 262.449L177.207 263.289C176.675 262.645 175.709 262.407 174.995 262.407C174.071 262.407 173.413 262.743 173.413 263.331C173.413 264.731 178.285 263.863 178.285 266.747C178.285 268.399 176.815 269.141 175.205 269.141ZM182.845 269.127C181.431 269.127 180.255 268.273 180.255 266.131V262.533H179.219V261.301H180.297L180.465 258.781H181.613V261.301H183.461V262.533H181.613V266.117C181.613 267.223 182.159 267.797 183.027 267.797C183.223 267.797 183.433 267.769 183.615 267.699L183.965 268.917C183.643 269.057 183.251 269.127 182.845 269.127ZM188.645 269.113C186.307 269.113 184.557 267.321 184.557 265.137C184.557 262.967 186.307 261.203 188.463 261.203C190.703 261.203 192.369 262.967 192.369 265.137C192.369 265.319 192.341 265.585 192.327 265.781H186.027C186.237 266.943 187.315 267.825 188.645 267.825C189.597 267.825 190.353 267.433 190.843 266.831L191.949 267.517C191.221 268.483 189.947 269.113 188.645 269.113ZM186.013 264.661H190.955C190.885 263.471 189.891 262.477 188.477 262.477C187.119 262.477 186.097 263.471 186.013 264.661Z" fill="black"/>
</svg>
