<svg width="194" height="245" viewBox="0 0 194 245" fill="none" xmlns="http://www.w3.org/2000/svg">
<mask id="mask0_3004_2121" style="mask-type:luminance" maskUnits="userSpaceOnUse" x="77" y="13" width="40" height="41">
<path d="M117 13H77V53.0005H117V13Z" fill="white"/>
</mask>
<g mask="url(#mask0_3004_2121)">
<path d="M97.0009 53.0006C92.3673 53.006 87.8754 51.4045 84.2907 48.4687C80.7059 45.5328 78.2502 41.4445 77.3423 36.9008C76.4344 32.3571 77.1304 27.6392 79.3116 23.5512C81.4929 19.4632 85.0245 16.2582 89.3043 14.4826C93.5841 12.7069 98.3473 12.4705 102.782 13.8136C107.216 15.1568 111.048 17.9964 113.623 21.8483C116.199 25.7002 117.358 30.3261 116.905 34.9374C116.451 39.5487 114.412 43.86 111.136 47.1364C107.388 50.8876 102.304 52.9969 97.0009 53.0006ZM97.0009 14.3534C92.6812 14.3485 88.4936 15.8417 85.1517 18.5788C81.8099 21.3158 79.5206 25.1273 78.6742 29.3632C77.8278 33.5991 78.4768 37.9974 80.5103 41.8085C82.5438 45.6196 85.8359 48.6074 89.8258 50.2628C93.8157 51.9182 98.2562 52.1387 102.39 50.8866C106.525 49.6346 110.097 46.9875 112.498 43.3966C114.899 39.8057 115.98 35.4932 115.557 31.1942C115.135 26.8953 113.234 22.876 110.18 19.8214C106.686 16.3237 101.945 14.3568 97.0009 14.3534Z" fill="black"/>
<path d="M110.579 47.2567C110.49 47.2568 110.402 47.2394 110.32 47.2054C110.238 47.1714 110.163 47.1214 110.101 47.0584L103.252 40.2088C103.188 40.1464 103.137 40.0717 103.102 39.9893C103.067 39.9069 103.049 39.8183 103.049 39.7288C103.048 39.6394 103.065 39.5507 103.1 39.4681C103.134 39.3854 103.184 39.3102 103.247 39.2469C103.31 39.1836 103.385 39.1336 103.468 39.0997C103.55 39.0656 103.639 39.0482 103.729 39.0487C103.818 39.0491 103.906 39.0674 103.989 39.1024C104.071 39.1373 104.146 39.1881 104.209 39.2518L111.058 46.1016C111.152 46.1964 111.217 46.3169 111.243 46.4481C111.262 46.5462 111.26 46.6474 111.235 46.7445C111.211 46.8415 111.165 46.932 111.102 47.0093C111.038 47.0867 110.959 47.149 110.868 47.1917C110.778 47.2345 110.679 47.2567 110.579 47.2567Z" fill="black"/>
<path d="M90.2705 26.9471C90.1816 26.9471 90.0935 26.9296 90.0114 26.8956C89.9292 26.8616 89.8544 26.8117 89.7915 26.7489L82.8585 19.8153C82.7337 19.688 82.6642 19.5167 82.665 19.3385C82.6659 19.1602 82.737 18.9897 82.8629 18.8636C82.9889 18.7375 83.1595 18.6663 83.3377 18.6654C83.5159 18.6644 83.6873 18.7338 83.8146 18.8585L90.7485 25.7921C90.843 25.8867 90.9073 26.0073 90.9334 26.1385C90.9594 26.2697 90.946 26.4056 90.8949 26.5291C90.8438 26.6527 90.7572 26.7584 90.6461 26.8328C90.535 26.9072 90.4042 26.9469 90.2705 26.9471Z" fill="black"/>
<path d="M96.9999 44.2806C96.8816 44.2806 96.7654 44.2496 96.6628 44.1907L87.429 38.8763C87.3256 38.8171 87.2396 38.7315 87.1799 38.6285C87.1202 38.5254 87.0888 38.4085 87.0889 38.2894V27.7125C87.0891 27.5334 87.1602 27.3617 87.2867 27.2349C87.4132 27.1082 87.5848 27.0365 87.7639 27.036C87.8828 27.0357 87.9997 27.0665 88.1029 27.1256L97.3369 32.4402C97.4403 32.4995 97.5262 32.5849 97.5859 32.6881C97.6453 32.7912 97.6766 32.9082 97.6769 33.0272V43.6038C97.6763 43.7832 97.6049 43.9551 97.478 44.0819C97.3512 44.2086 97.1792 44.2801 96.9999 44.2806ZM88.4419 37.8983L96.3239 42.4337V33.4183L88.4419 28.8829V37.8983Z" fill="black"/>
<path d="M97.0002 44.2806C96.8209 44.2801 96.6491 44.2086 96.5222 44.0818C96.3954 43.955 96.3238 43.7834 96.3232 43.6041V33.0272C96.3232 32.9081 96.3546 32.7909 96.4143 32.6878C96.474 32.5847 96.5599 32.4995 96.6632 32.4402L105.898 27.1256C106.001 27.0664 106.118 27.0355 106.236 27.0357C106.355 27.0359 106.471 27.0673 106.574 27.1268C106.677 27.1862 106.762 27.2715 106.821 27.3743C106.88 27.4771 106.911 27.5938 106.911 27.7125V38.2894C106.911 38.4083 106.88 38.5252 106.82 38.6282C106.761 38.7313 106.675 38.8168 106.572 38.8763L97.3373 44.1907C97.2347 44.2496 97.1185 44.2806 97.0002 44.2806ZM97.6772 33.4183V42.4337L105.558 37.8983V28.8829L97.6772 33.4183Z" fill="black"/>
<path d="M106.235 28.389C106.116 28.389 106 28.358 105.898 28.2991L96.9998 23.178L88.1028 28.2991C88.0257 28.3438 87.9406 28.3727 87.8523 28.3843C87.764 28.396 87.6742 28.3901 87.5881 28.367C87.5021 28.3439 87.4216 28.3041 87.351 28.2498C87.2804 28.1955 87.2212 28.1276 87.1769 28.0504C87.1325 27.9731 87.1038 27.888 87.0924 27.7996C87.0811 27.7113 87.0873 27.6216 87.1107 27.5357C87.1341 27.4498 87.1743 27.3693 87.2289 27.2989C87.2835 27.2285 87.3514 27.1696 87.4288 27.1255L96.6627 21.8109C96.7652 21.7518 96.8815 21.7205 96.9998 21.7205C97.1181 21.7205 97.2343 21.7518 97.3368 21.8109L106.572 27.1255C106.701 27.1997 106.803 27.3145 106.86 27.4522C106.918 27.5899 106.928 27.7426 106.889 27.8868C106.851 28.031 106.766 28.1585 106.647 28.2493C106.529 28.3401 106.384 28.3892 106.235 28.389Z" fill="black"/>
</g>
<path d="M22.6912 82.0007H19.5552V71.7807H22.6912C25.8692 71.7807 28.0672 74.0347 28.0672 76.8767C28.0672 79.7467 25.9532 82.0007 22.6912 82.0007ZM20.9972 73.1947V80.5727H22.6912C25.1272 80.5727 26.5692 78.9067 26.5692 76.8627C26.5692 74.8887 25.0432 73.1947 22.6912 73.1947H20.9972ZM33.3908 82.1127C31.0528 82.1127 29.3028 80.3207 29.3028 78.1367C29.3028 75.9667 31.0528 74.2027 33.2088 74.2027C35.4488 74.2027 37.1148 75.9667 37.1148 78.1367C37.1148 78.3187 37.0868 78.5847 37.0728 78.7807H30.7728C30.9828 79.9427 32.0608 80.8247 33.3908 80.8247C34.3428 80.8247 35.0988 80.4327 35.5888 79.8307L36.6948 80.5167C35.9668 81.4827 34.6928 82.1127 33.3908 82.1127ZM30.7588 77.6607H35.7008C35.6308 76.4707 34.6368 75.4767 33.2228 75.4767C31.8648 75.4767 30.8428 76.4707 30.7588 77.6607ZM41.8111 82.0007H40.4531L37.4291 74.3007H38.8991L41.1391 79.9567L43.3651 74.3007H44.8351L41.8111 82.0007ZM49.2365 82.1127C46.8985 82.1127 45.1485 80.3207 45.1485 78.1367C45.1485 75.9667 46.8985 74.2027 49.0545 74.2027C51.2945 74.2027 52.9605 75.9667 52.9605 78.1367C52.9605 78.3187 52.9325 78.5847 52.9185 78.7807H46.6185C46.8285 79.9427 47.9065 80.8247 49.2365 80.8247C50.1885 80.8247 50.9445 80.4327 51.4345 79.8307L52.5405 80.5167C51.8125 81.4827 50.5385 82.1127 49.2365 82.1127ZM46.6045 77.6607H51.5465C51.4765 76.4707 50.4825 75.4767 49.0685 75.4767C47.7105 75.4767 46.6885 76.4707 46.6045 77.6607ZM55.7596 82.0007H54.4016V71.0807H55.7596V82.0007ZM61.2508 82.1127C59.0668 82.1127 57.3028 80.3207 57.3028 78.1367C57.3028 75.9667 59.0668 74.2027 61.2508 74.2027C63.4208 74.2027 65.1988 75.9667 65.1988 78.1367C65.1988 80.3207 63.4208 82.1127 61.2508 82.1127ZM61.2508 80.7127C62.6648 80.7127 63.8128 79.5647 63.8128 78.1367C63.8128 76.7367 62.6648 75.5887 61.2508 75.5887C59.8228 75.5887 58.6888 76.7367 58.6888 78.1367C58.6888 79.5647 59.8228 80.7127 61.2508 80.7127ZM68.0096 85.0807H66.6516V74.3007H67.9116L67.9816 75.8967C68.4436 74.9447 69.5776 74.2027 70.8376 74.2027C72.9096 74.2027 74.5896 75.9667 74.5896 78.1367C74.5896 80.3207 72.9096 82.1127 70.8376 82.1127C69.5916 82.1127 68.4716 81.3707 68.0096 80.4187V85.0807ZM70.6276 80.7547C72.0556 80.7547 73.2176 79.5787 73.2176 78.1367C73.2176 76.7087 72.0556 75.5467 70.6276 75.5467C69.1716 75.5467 68.0096 76.7087 68.0096 78.1367C68.0096 79.5787 69.1716 80.7547 70.6276 80.7547ZM77.4978 82.0007H76.1398V74.3007H77.3998L77.4698 75.5747C77.8618 74.6787 78.7298 74.1887 79.5698 74.1887C80.8018 74.1887 81.5998 74.9027 81.9218 75.8267C82.2438 74.9167 83.0418 74.1887 84.1618 74.1887C85.7998 74.1887 87.0178 75.2387 87.0178 77.9127V82.0007H85.6458V77.9127C85.6458 76.1487 84.8618 75.5327 83.9518 75.5327C83.0978 75.5327 82.2578 76.1487 82.2578 77.9127V82.0007H80.8858V77.9127C80.8858 76.1487 80.1018 75.5327 79.1918 75.5327C78.2818 75.5327 77.4978 76.3167 77.4978 78.0807V82.0007ZM92.4944 82.1127C90.1564 82.1127 88.4064 80.3207 88.4064 78.1367C88.4064 75.9667 90.1564 74.2027 92.3124 74.2027C94.5524 74.2027 96.2184 75.9667 96.2184 78.1367C96.2184 78.3187 96.1904 78.5847 96.1764 78.7807H89.8764C90.0864 79.9427 91.1644 80.8247 92.4944 80.8247C93.4464 80.8247 94.2024 80.4327 94.6924 79.8307L95.7984 80.5167C95.0704 81.4827 93.7964 82.1127 92.4944 82.1127ZM89.8624 77.6607H94.8044C94.7344 76.4707 93.7404 75.4767 92.3264 75.4767C90.9684 75.4767 89.9464 76.4707 89.8624 77.6607ZM99.1131 82.0007H97.7551V74.3007H99.0151L99.0851 75.6587C99.5051 74.8467 100.331 74.1887 101.507 74.1887C103.299 74.1887 104.657 75.4207 104.657 78.0807V82.0007H103.285V78.0807C103.285 76.3307 102.333 75.5327 101.199 75.5327C100.079 75.5327 99.1131 76.3167 99.1131 78.0807V82.0007ZM109.254 82.1267C107.84 82.1267 106.664 81.2727 106.664 79.1307V75.5327H105.628V74.3007H106.706L106.874 71.7807H108.022V74.3007H109.87V75.5327H108.022V79.1167C108.022 80.2227 108.568 80.7967 109.436 80.7967C109.632 80.7967 109.842 80.7687 110.024 80.6987L110.374 81.9167C110.052 82.0567 109.66 82.1267 109.254 82.1267ZM119.138 82.1127C116.954 82.1127 115.19 80.3207 115.19 78.1367C115.19 75.9667 116.954 74.2027 119.138 74.2027C121.308 74.2027 123.086 75.9667 123.086 78.1367C123.086 80.3207 121.308 82.1127 119.138 82.1127ZM119.138 80.7127C120.552 80.7127 121.7 79.5647 121.7 78.1367C121.7 76.7367 120.552 75.5887 119.138 75.5887C117.71 75.5887 116.576 76.7367 116.576 78.1367C116.576 79.5647 117.71 80.7127 119.138 80.7127ZM126.286 75.5327V82.0147L124.928 81.9867V75.5327H123.948V74.3007H124.928V74.0067C124.928 71.6827 126.146 70.8707 127.616 70.8707C127.966 70.8707 128.372 70.9407 128.652 71.0387L128.288 72.2567C128.12 72.2287 127.91 72.1867 127.728 72.1867C126.86 72.1867 126.286 72.6207 126.286 74.0067V74.3007H128.274V75.5327H126.286ZM136.865 82.0987C134.793 82.0987 133.113 80.3207 133.113 78.1507C133.113 75.9667 134.793 74.1887 136.865 74.1887C138.125 74.1887 139.259 74.9447 139.735 75.9247L139.805 74.3007H141.065V82.0007H139.805L139.735 80.3907C139.259 81.3567 138.125 82.0987 136.865 82.0987ZM137.089 80.7407C138.531 80.7407 139.693 79.5787 139.693 78.1507C139.693 76.7087 138.531 75.5327 137.089 75.5327C135.661 75.5327 134.499 76.7087 134.499 78.1507C134.499 79.5787 135.661 80.7407 137.089 80.7407ZM148.25 82.0007H146.892V74.3007H148.152L148.222 75.6587C148.642 74.8467 149.468 74.1887 150.644 74.1887C152.436 74.1887 153.794 75.4207 153.794 78.0807V82.0007H152.422V78.0807C152.422 76.3307 151.47 75.5327 150.336 75.5327C149.216 75.5327 148.25 76.3167 148.25 78.0807V82.0007ZM159.254 82.1127C156.916 82.1127 155.166 80.3207 155.166 78.1367C155.166 75.9667 156.916 74.2027 159.072 74.2027C161.312 74.2027 162.978 75.9667 162.978 78.1367C162.978 78.3187 162.95 78.5847 162.936 78.7807H156.636C156.846 79.9427 157.924 80.8247 159.254 80.8247C160.206 80.8247 160.962 80.4327 161.452 79.8307L162.558 80.5167C161.83 81.4827 160.556 82.1127 159.254 82.1127ZM156.622 77.6607H161.564C161.494 76.4707 160.5 75.4767 159.086 75.4767C157.728 75.4767 156.706 76.4707 156.622 77.6607ZM167.531 82.0007H166.173L163.485 74.3007H164.941L166.859 79.9007L168.721 74.3007H170.107L171.983 79.9007L173.901 74.3007H175.357L172.655 82.0007H171.311L169.421 76.4707L167.531 82.0007ZM9.61014 102.001H8.25214V94.3007H9.51214L9.59614 95.5607C10.0441 94.7347 10.9121 94.2447 12.0461 94.2587C12.2421 94.2587 12.4381 94.2727 12.6201 94.3007L12.3401 95.6167C12.2561 95.6027 12.1581 95.5887 12.0741 95.5887C10.7721 95.5887 9.61014 96.3167 9.61014 98.4447V102.001ZM16.8058 102.099C14.7338 102.099 13.0538 100.321 13.0538 98.1507C13.0538 95.9667 14.7338 94.1887 16.8058 94.1887C18.0658 94.1887 19.1998 94.9447 19.6758 95.9247L19.7458 94.3007H21.0058V102.001H19.7458L19.6758 100.391C19.1998 101.357 18.0658 102.099 16.8058 102.099ZM17.0298 100.741C18.4718 100.741 19.6338 99.5787 19.6338 98.1507C19.6338 96.7087 18.4718 95.5327 17.0298 95.5327C15.6018 95.5327 14.4398 96.7087 14.4398 98.1507C14.4398 99.5787 15.6018 100.741 17.0298 100.741ZM24.3621 102.001H23.0041V94.3007H24.2641L24.3341 95.6587C24.7541 94.8467 25.5801 94.1887 26.7561 94.1887C28.5481 94.1887 29.9061 95.4207 29.9061 98.0807V102.001H28.5341V98.0807C28.5341 96.3307 27.5821 95.5327 26.4481 95.5327C25.3281 95.5327 24.3621 96.3167 24.3621 98.0807V102.001ZM35.0164 105.221C33.7144 105.221 32.4544 104.633 31.7264 103.681L32.7624 102.883C33.2944 103.513 34.1764 103.905 35.0864 103.905C36.5704 103.905 37.8584 103.051 37.8584 101.021V100.433C37.3964 101.371 36.2764 102.099 35.0304 102.099C32.9584 102.099 31.2784 100.321 31.2784 98.1507C31.2784 95.9667 32.9584 94.1887 35.0304 94.1887C36.2904 94.1887 37.4244 94.9447 37.9004 95.9247L37.9704 94.3007H39.2304V100.797C39.2304 103.779 37.4384 105.221 35.0164 105.221ZM35.2544 100.741C36.6964 100.741 37.8584 99.5787 37.8584 98.1507C37.8584 96.7087 36.6964 95.5327 35.2544 95.5327C33.8264 95.5327 32.6644 96.7087 32.6644 98.1507C32.6644 99.5787 33.8264 100.741 35.2544 100.741ZM44.8547 102.113C42.5167 102.113 40.7667 100.321 40.7667 98.1367C40.7667 95.9667 42.5167 94.2027 44.6727 94.2027C46.9127 94.2027 48.5787 95.9667 48.5787 98.1367C48.5787 98.3187 48.5507 98.5847 48.5367 98.7807H42.2367C42.4467 99.9427 43.5247 100.825 44.8547 100.825C45.8067 100.825 46.5627 100.433 47.0527 99.8307L48.1587 100.517C47.4307 101.483 46.1567 102.113 44.8547 102.113ZM42.2227 97.6607H47.1647C47.0947 96.4707 46.1007 95.4767 44.6867 95.4767C43.3287 95.4767 42.3067 96.4707 42.2227 97.6607ZM57.4295 102.113C55.2455 102.113 53.4815 100.321 53.4815 98.1367C53.4815 95.9667 55.2455 94.2027 57.4295 94.2027C59.5995 94.2027 61.3775 95.9667 61.3775 98.1367C61.3775 100.321 59.5995 102.113 57.4295 102.113ZM57.4295 100.713C58.8435 100.713 59.9915 99.5647 59.9915 98.1367C59.9915 96.7367 58.8435 95.5887 57.4295 95.5887C56.0015 95.5887 54.8675 96.7367 54.8675 98.1367C54.8675 99.5647 56.0015 100.713 57.4295 100.713ZM64.578 95.5327V102.015L63.22 101.987V95.5327H62.24V94.3007H63.22V94.0067C63.22 91.6827 64.438 90.8707 65.908 90.8707C66.258 90.8707 66.664 90.9407 66.944 91.0387L66.58 92.2567C66.412 92.2287 66.202 92.1867 66.02 92.1867C65.152 92.1867 64.578 92.6207 64.578 94.0067V94.3007H66.566V95.5327H64.578ZM73.4494 102.001H72.0074V91.7807H73.4494L79.1614 99.4667V91.7807H80.6174V102.001H79.1614L73.4494 94.3007V102.001ZM86.1542 102.113C83.9702 102.113 82.2062 100.321 82.2062 98.1367C82.2062 95.9667 83.9702 94.2027 86.1542 94.2027C88.3242 94.2027 90.1022 95.9667 90.1022 98.1367C90.1022 100.321 88.3242 102.113 86.1542 102.113ZM86.1542 100.713C87.5682 100.713 88.7162 99.5647 88.7162 98.1367C88.7162 96.7367 87.5682 95.5887 86.1542 95.5887C84.7262 95.5887 83.5922 96.7367 83.5922 98.1367C83.5922 99.5647 84.7262 100.713 86.1542 100.713ZM96.2767 102.001H94.6807L98.4187 91.7807H99.9867L103.725 102.001H102.157L101.177 99.3407H97.2427L96.2767 102.001ZM99.2027 93.7267L97.6627 97.9827H100.757L99.2027 93.7267ZM107.956 102.099C105.884 102.099 104.204 100.321 104.204 98.1507C104.204 95.9667 105.884 94.1887 107.956 94.1887C109.202 94.1887 110.322 94.9167 110.784 95.8827V91.0807H112.156V102.001H110.896L110.826 100.391C110.35 101.357 109.216 102.099 107.956 102.099ZM108.18 100.741C109.622 100.741 110.784 99.5787 110.784 98.1507C110.784 96.7087 109.622 95.5327 108.18 95.5327C106.752 95.5327 105.59 96.7087 105.59 98.1507C105.59 99.5787 106.752 100.741 108.18 100.741ZM117.444 102.099C115.372 102.099 113.692 100.321 113.692 98.1507C113.692 95.9667 115.372 94.1887 117.444 94.1887C118.69 94.1887 119.81 94.9167 120.272 95.8827V91.0807H121.644V102.001H120.384L120.314 100.391C119.838 101.357 118.704 102.099 117.444 102.099ZM117.668 100.741C119.11 100.741 120.272 99.5787 120.272 98.1507C120.272 96.7087 119.11 95.5327 117.668 95.5327C116.24 95.5327 115.078 96.7087 115.078 98.1507C115.078 99.5787 116.24 100.741 117.668 100.741ZM127.269 102.113C124.931 102.113 123.181 100.321 123.181 98.1367C123.181 95.9667 124.931 94.2027 127.087 94.2027C129.327 94.2027 130.993 95.9667 130.993 98.1367C130.993 98.3187 130.965 98.5847 130.951 98.7807H124.651C124.861 99.9427 125.939 100.825 127.269 100.825C128.221 100.825 128.977 100.433 129.467 99.8307L130.573 100.517C129.845 101.483 128.571 102.113 127.269 102.113ZM124.637 97.6607H129.579C129.509 96.4707 128.515 95.4767 127.101 95.4767C125.743 95.4767 124.721 96.4707 124.637 97.6607ZM135.819 102.099C133.747 102.099 132.067 100.321 132.067 98.1507C132.067 95.9667 133.747 94.1887 135.819 94.1887C137.065 94.1887 138.185 94.9167 138.647 95.8827V91.0807H140.019V102.001H138.759L138.689 100.391C138.213 101.357 137.079 102.099 135.819 102.099ZM136.043 100.741C137.485 100.741 138.647 99.5787 138.647 98.1507C138.647 96.7087 137.485 95.5327 136.043 95.5327C134.615 95.5327 133.453 96.7087 133.453 98.1507C133.453 99.5787 134.615 100.741 136.043 100.741ZM149.164 102.155C147.848 102.155 146.56 101.707 145.482 100.545L146.392 99.6207C147.12 100.349 148.03 100.811 149.178 100.825C150.41 100.825 151.278 100.237 151.278 99.2147C151.278 96.7367 145.678 97.8427 145.678 94.2867C145.678 92.7747 146.91 91.6127 149.01 91.6127C150.116 91.6127 151.516 92.0607 152.412 93.2647L151.39 94.0627C150.886 93.3627 149.962 92.9567 149.08 92.9427C147.862 92.9287 147.078 93.5027 147.078 94.2727C147.078 96.5127 152.692 95.4487 152.692 99.1447C152.692 100.993 151.222 102.169 149.164 102.155ZM157.318 102.113C155.526 102.113 154.168 100.867 154.168 98.2067V94.3007H155.54V98.2067C155.54 99.9707 156.492 100.755 157.626 100.755C158.746 100.755 159.712 99.9707 159.712 98.2067V94.3007H161.07V102.001H159.81L159.74 100.629C159.32 101.441 158.48 102.113 157.318 102.113ZM166.348 105.221C165.046 105.221 163.786 104.633 163.058 103.681L164.094 102.883C164.626 103.513 165.508 103.905 166.418 103.905C167.902 103.905 169.19 103.051 169.19 101.021V100.433C168.728 101.371 167.608 102.099 166.362 102.099C164.29 102.099 162.61 100.321 162.61 98.1507C162.61 95.9667 164.29 94.1887 166.362 94.1887C167.622 94.1887 168.756 94.9447 169.232 95.9247L169.302 94.3007H170.562V100.797C170.562 103.779 168.77 105.221 166.348 105.221ZM166.586 100.741C168.028 100.741 169.19 99.5787 169.19 98.1507C169.19 96.7087 168.028 95.5327 166.586 95.5327C165.158 95.5327 163.996 96.7087 163.996 98.1507C163.996 99.5787 165.158 100.741 166.586 100.741ZM175.851 102.099C173.779 102.099 172.099 100.321 172.099 98.1507C172.099 95.9667 173.779 94.1887 175.851 94.1887C177.111 94.1887 178.245 94.9447 178.721 95.9247L178.791 94.3007H180.051V102.001H178.791L178.721 100.391C178.245 101.357 177.111 102.099 175.851 102.099ZM176.075 100.741C177.517 100.741 178.679 99.5787 178.679 98.1507C178.679 96.7087 177.517 95.5327 176.075 95.5327C174.647 95.5327 173.485 96.7087 173.485 98.1507C173.485 99.5787 174.647 100.741 176.075 100.741ZM183.407 102.001H182.049V94.3007H183.309L183.393 95.5607C183.841 94.7347 184.709 94.2447 185.843 94.2587C186.039 94.2587 186.235 94.2727 186.417 94.3007L186.137 95.6167C186.053 95.6027 185.955 95.5887 185.871 95.5887C184.569 95.5887 183.407 96.3167 183.407 98.4447V102.001ZM67.6267 125.081H66.2687V114.301H67.5287L67.5987 115.897C68.0607 114.945 69.1947 114.203 70.4547 114.203C72.5267 114.203 74.2067 115.967 74.2067 118.137C74.2067 120.321 72.5267 122.113 70.4547 122.113C69.2087 122.113 68.0887 121.371 67.6267 120.419V125.081ZM70.2447 120.755C71.6727 120.755 72.8347 119.579 72.8347 118.137C72.8347 116.709 71.6727 115.547 70.2447 115.547C68.7887 115.547 67.6267 116.709 67.6267 118.137C67.6267 119.579 68.7887 120.755 70.2447 120.755ZM77.115 122.001H75.757V114.301H77.017L77.101 115.561C77.549 114.735 78.417 114.245 79.551 114.259C79.747 114.259 79.943 114.273 80.125 114.301L79.845 115.617C79.761 115.603 79.663 115.589 79.579 115.589C78.277 115.589 77.115 116.317 77.115 118.445V122.001ZM84.5067 122.113C82.3227 122.113 80.5587 120.321 80.5587 118.137C80.5587 115.967 82.3227 114.203 84.5067 114.203C86.6767 114.203 88.4547 115.967 88.4547 118.137C88.4547 120.321 86.6767 122.113 84.5067 122.113ZM84.5067 120.713C85.9207 120.713 87.0687 119.565 87.0687 118.137C87.0687 116.737 85.9207 115.589 84.5067 115.589C83.0787 115.589 81.9447 116.737 81.9447 118.137C81.9447 119.565 83.0787 120.713 84.5067 120.713ZM93.2931 122.099C91.2211 122.099 89.5411 120.321 89.5411 118.151C89.5411 115.967 91.2211 114.189 93.2931 114.189C94.5391 114.189 95.6591 114.917 96.1211 115.883V111.081H97.4931V122.001H96.2331L96.1631 120.391C95.6871 121.357 94.5531 122.099 93.2931 122.099ZM93.5171 120.741C94.9591 120.741 96.1211 119.579 96.1211 118.151C96.1211 116.709 94.9591 115.533 93.5171 115.533C92.0891 115.533 90.9271 116.709 90.9271 118.151C90.9271 119.579 92.0891 120.741 93.5171 120.741ZM102.473 122.113C100.681 122.113 99.3234 120.867 99.3234 118.207V114.301H100.695V118.207C100.695 119.971 101.647 120.755 102.781 120.755C103.901 120.755 104.867 119.971 104.867 118.207V114.301H106.225V122.001H104.965L104.895 120.629C104.475 121.441 103.635 122.113 102.473 122.113ZM111.714 122.113C109.53 122.113 107.766 120.321 107.766 118.137C107.766 115.967 109.53 114.203 111.714 114.203C113.044 114.203 114.22 114.861 114.948 115.869L113.814 116.625C113.338 115.995 112.568 115.589 111.714 115.589C110.286 115.589 109.152 116.737 109.152 118.137C109.152 119.565 110.286 120.713 111.714 120.713C112.596 120.713 113.38 120.279 113.842 119.607L114.976 120.363C114.276 121.413 113.072 122.113 111.714 122.113ZM119.439 122.127C118.025 122.127 116.849 121.273 116.849 119.131V115.533H115.813V114.301H116.891L117.059 111.781H118.207V114.301H120.055V115.533H118.207V119.117C118.207 120.223 118.753 120.797 119.621 120.797C119.817 120.797 120.027 120.769 120.209 120.699L120.559 121.917C120.237 122.057 119.845 122.127 119.439 122.127ZM125.047 122.141C123.941 122.141 122.513 121.777 121.617 120.797L122.555 119.901C123.073 120.475 124.081 120.853 125.047 120.853C126.055 120.853 126.755 120.461 126.755 119.789C126.755 118.207 121.883 119.173 121.883 116.317C121.883 115.057 123.031 114.175 124.795 114.175C125.789 114.175 127.049 114.441 127.889 115.449L127.049 116.289C126.517 115.645 125.551 115.407 124.837 115.407C123.913 115.407 123.255 115.743 123.255 116.331C123.255 117.731 128.127 116.863 128.127 119.747C128.127 121.399 126.657 122.141 125.047 122.141Z" fill="black"/>
<g clip-path="url(#clip0_3004_2121)">
<path d="M107.687 167.751C107.131 167.81 106.568 167.737 106.044 167.538C105.521 167.34 105.051 167.021 104.674 166.607C104.297 166.193 104.022 165.696 103.872 165.157C103.723 164.617 103.702 164.05 103.812 163.501C103.821 163.371 103.877 163.249 103.969 163.157C104.061 163.065 104.183 163.009 104.312 163.001C104.894 162.926 105.485 162.977 106.046 163.149C106.606 163.322 107.123 163.612 107.562 164.001C107.946 164.443 108.233 164.96 108.406 165.52C108.578 166.08 108.631 166.669 108.562 167.251C108.554 167.38 108.498 167.502 108.406 167.594C108.314 167.686 108.192 167.742 108.062 167.751H107.687ZM105.062 164.126C104.572 164.174 104.113 164.389 103.76 164.734C103.408 165.078 103.183 165.532 103.124 166.022C103.064 166.511 103.172 167.006 103.431 167.425C103.69 167.845 104.084 168.163 104.548 168.329C105.012 168.495 105.519 168.498 105.985 168.337C106.451 168.177 106.848 167.862 107.112 167.446C107.375 167.029 107.489 166.536 107.435 166.046C107.381 165.556 107.161 165.099 106.812 164.751C106.33 164.327 105.704 164.104 105.062 164.126Z" fill="black"/>
<path d="M108.312 167.751H107.937C107.808 167.742 107.686 167.687 107.594 167.595C107.502 167.503 107.446 167.381 107.437 167.251C107.363 166.669 107.414 166.078 107.586 165.518C107.758 164.957 108.049 164.44 108.437 164.001C109.371 163.298 110.521 162.944 111.687 163.001C111.817 163.01 111.939 163.065 112.031 163.157C112.123 163.249 112.179 163.371 112.187 163.501C112.262 164.083 112.212 164.673 112.039 165.234C111.867 165.795 111.576 166.312 111.187 166.751C110.801 167.103 110.346 167.373 109.852 167.545C109.358 167.717 108.834 167.787 108.312 167.751ZM111.062 164.126C111.014 163.635 110.799 163.176 110.455 162.824C110.11 162.471 109.656 162.247 109.167 162.187C108.677 162.127 108.182 162.235 107.763 162.494C107.343 162.753 107.025 163.147 106.859 163.611C106.693 164.075 106.69 164.582 106.851 165.048C107.011 165.514 107.326 165.912 107.742 166.175C108.159 166.439 108.652 166.553 109.142 166.498C109.632 166.444 110.089 166.224 110.437 165.876C110.755 165.337 110.967 164.744 111.062 164.126Z" fill="black"/>
<path d="M108.063 171.501C107.979 171.506 107.896 171.493 107.818 171.463C107.739 171.434 107.669 171.388 107.609 171.329C107.55 171.27 107.505 171.199 107.475 171.121C107.445 171.043 107.433 170.959 107.438 170.876V167.126C107.438 166.96 107.503 166.801 107.621 166.684C107.738 166.567 107.897 166.501 108.063 166.501C108.228 166.501 108.387 166.567 108.505 166.684C108.622 166.801 108.688 166.96 108.688 167.126V170.876C108.693 170.959 108.68 171.043 108.65 171.121C108.621 171.199 108.575 171.27 108.516 171.329C108.457 171.388 108.386 171.434 108.308 171.463C108.23 171.493 108.146 171.506 108.063 171.501Z" fill="black"/>
<path d="M96.5625 167.751C95.5132 167.786 94.4883 167.43 93.6875 166.751C93.3087 166.305 93.0247 165.787 92.8528 165.229C92.6808 164.67 92.6246 164.082 92.6875 163.501C92.6963 163.371 92.7518 163.249 92.8437 163.157C92.9357 163.065 93.0578 163.009 93.1875 163.001C93.7692 162.926 94.3601 162.977 94.9206 163.149C95.4812 163.322 95.9983 163.612 96.4375 164.001C96.8163 164.446 97.1004 164.964 97.2723 165.523C97.4443 166.081 97.5004 166.669 97.4375 167.251C97.4287 167.38 97.3732 167.502 97.2812 167.594C97.1893 167.686 97.0672 167.742 96.9375 167.751H96.5625ZM93.9375 164.126C93.447 164.174 92.9879 164.389 92.6355 164.734C92.2831 165.078 92.0584 165.532 91.9985 166.022C91.9386 166.511 92.047 167.006 92.3059 167.425C92.5648 167.845 92.9587 168.163 93.4228 168.329C93.887 168.495 94.3937 168.498 94.8597 168.337C95.3257 168.177 95.7232 167.862 95.9868 167.446C96.2504 167.029 96.3643 166.536 96.3099 166.046C96.2555 165.556 96.036 165.099 95.6875 164.751C95.2049 164.327 94.5791 164.104 93.9375 164.126Z" fill="black"/>
<path d="M97.3125 167.751H96.9375C96.8078 167.742 96.6856 167.686 96.5937 167.594C96.5018 167.502 96.4463 167.38 96.4375 167.251C96.3629 166.669 96.4136 166.078 96.586 165.517C96.7585 164.957 97.0487 164.44 97.4375 164.001C97.8828 163.622 98.4008 163.338 98.9596 163.166C99.5184 162.994 100.106 162.938 100.687 163.001C100.817 163.009 100.939 163.065 101.031 163.157C101.123 163.249 101.179 163.371 101.187 163.501C101.262 164.082 101.212 164.673 101.039 165.234C100.867 165.794 100.576 166.311 100.187 166.751C99.3867 167.43 98.3618 167.786 97.3125 167.751ZM99.9375 164.126C99.8886 163.635 99.6743 163.176 99.3297 162.823C98.9851 162.471 98.5308 162.246 98.0416 162.186C97.5524 162.126 97.0573 162.235 96.6379 162.494C96.2185 162.753 95.8996 163.147 95.7339 163.611C95.5681 164.075 95.5653 164.582 95.7258 165.048C95.8863 165.514 96.2007 165.911 96.6172 166.175C97.0337 166.438 97.5274 166.552 98.0173 166.498C98.5072 166.444 98.9639 166.224 99.3125 165.876C99.6833 165.364 99.9001 164.757 99.9375 164.126Z" fill="black"/>
<path d="M96.9376 171.501C96.8542 171.506 96.7707 171.493 96.6926 171.463C96.6145 171.434 96.5435 171.388 96.4845 171.329C96.4254 171.27 96.3796 171.199 96.3499 171.121C96.3203 171.043 96.3076 170.959 96.3126 170.876V167.126C96.3126 166.96 96.3785 166.801 96.4957 166.684C96.6129 166.567 96.7718 166.501 96.9376 166.501C97.1034 166.501 97.2624 166.567 97.3796 166.684C97.4968 166.801 97.5626 166.96 97.5626 167.126V170.876C97.5676 170.959 97.555 171.043 97.5254 171.121C97.4957 171.199 97.4498 171.27 97.3907 171.329C97.3316 171.388 97.2608 171.434 97.1827 171.463C97.1046 171.493 97.021 171.506 96.9376 171.501Z" fill="black"/>
<path d="M85.4375 167.751C84.8806 167.81 84.3177 167.737 83.7942 167.538C83.2706 167.34 82.8011 167.021 82.4238 166.607C82.0465 166.193 81.7719 165.696 81.6223 165.157C81.4727 164.617 81.4522 164.05 81.5625 163.501C81.5713 163.371 81.6268 163.249 81.7187 163.157C81.8107 163.065 81.9328 163.009 82.0625 163.001C82.6442 162.926 83.2351 162.977 83.7956 163.149C84.3562 163.322 84.8733 163.612 85.3125 164.001C85.6962 164.443 85.9834 164.96 86.1556 165.52C86.3278 166.08 86.3812 166.669 86.3125 167.251C86.3037 167.38 86.2482 167.502 86.1562 167.594C86.0643 167.686 85.9422 167.742 85.8125 167.751H85.4375ZM82.8125 164.126C82.322 164.174 81.8629 164.389 81.5105 164.734C81.1581 165.078 80.9334 165.532 80.8735 166.022C80.8136 166.511 80.922 167.006 81.1809 167.425C81.4398 167.845 81.8337 168.163 82.2978 168.329C82.762 168.495 83.2687 168.498 83.7347 168.337C84.2007 168.177 84.5982 167.862 84.8618 167.446C85.1254 167.029 85.2393 166.536 85.1849 166.046C85.1305 165.556 84.911 165.099 84.5625 164.751C84.0799 164.327 83.4541 164.104 82.8125 164.126Z" fill="black"/>
<path d="M86.1875 167.751H85.8125C85.6828 167.742 85.5606 167.686 85.4687 167.594C85.3768 167.502 85.3213 167.38 85.3125 167.251C85.2379 166.669 85.2886 166.078 85.461 165.517C85.6335 164.957 85.9237 164.44 86.3125 164.001C86.7548 163.617 87.2724 163.33 87.832 163.158C88.3916 162.985 88.981 162.932 89.5625 163.001C89.6922 163.009 89.8143 163.065 89.9062 163.157C89.9981 163.249 90.0537 163.371 90.0625 163.501C90.1371 164.082 90.0865 164.673 89.914 165.234C89.7416 165.794 89.4512 166.311 89.0625 166.751C88.2617 167.43 87.2368 167.786 86.1875 167.751ZM88.8125 164.126C88.7636 163.635 88.5493 163.176 88.2047 162.823C87.8601 162.471 87.4058 162.246 86.9166 162.186C86.4274 162.126 85.9323 162.235 85.5129 162.494C85.0935 162.753 84.7746 163.147 84.6089 163.611C84.4431 164.075 84.4403 164.582 84.6008 165.048C84.7613 165.514 85.0757 165.911 85.4922 166.175C85.9087 166.438 86.4024 166.552 86.8923 166.498C87.3822 166.444 87.8389 166.224 88.1875 165.876C88.6109 165.393 88.8344 164.767 88.8125 164.126Z" fill="black"/>
<path d="M85.8126 171.501C85.7292 171.506 85.6457 171.493 85.5676 171.463C85.4895 171.434 85.4185 171.388 85.3595 171.329C85.3004 171.27 85.2546 171.199 85.2249 171.121C85.1953 171.043 85.1826 170.959 85.1876 170.876V167.126C85.1876 166.96 85.2535 166.801 85.3707 166.684C85.4879 166.567 85.6468 166.501 85.8126 166.501C85.9784 166.501 86.1374 166.567 86.2546 166.684C86.3718 166.801 86.4376 166.96 86.4376 167.126V170.876C86.4426 170.959 86.43 171.043 86.4004 171.121C86.3707 171.199 86.3248 171.27 86.2657 171.329C86.2066 171.388 86.1358 171.434 86.0577 171.463C85.9796 171.493 85.896 171.506 85.8126 171.501Z" fill="black"/>
<path d="M115.563 159.251H78.3126C78.1503 159.24 77.9974 159.171 77.8824 159.056C77.7674 158.941 77.6981 158.788 77.6876 158.626V154.626C77.6826 154.542 77.6953 154.459 77.7249 154.381C77.7546 154.303 77.8004 154.232 77.8595 154.173C77.9185 154.114 77.9895 154.068 78.0676 154.038C78.1457 154.008 78.2292 153.996 78.3126 154.001H115.688C115.771 153.996 115.855 154.008 115.933 154.038C116.011 154.068 116.082 154.114 116.141 154.173C116.2 154.232 116.246 154.303 116.275 154.381C116.305 154.459 116.318 154.542 116.313 154.626V158.626C116.188 158.876 115.938 159.251 115.563 159.251ZM78.9376 158.001H115.063V155.251H78.9376V158.001Z" fill="black"/>
<path d="M115.563 175.751H78.3126C78.2292 175.756 78.1457 175.743 78.0676 175.713C77.9895 175.684 77.9185 175.638 77.8595 175.579C77.8004 175.52 77.7546 175.449 77.7249 175.371C77.6953 175.293 77.6826 175.209 77.6876 175.126V171.126C77.6826 171.042 77.6953 170.959 77.7249 170.881C77.7546 170.803 77.8004 170.732 77.8595 170.673C77.9185 170.614 77.9895 170.568 78.0676 170.538C78.1457 170.508 78.2292 170.496 78.3126 170.501H115.688C115.771 170.496 115.855 170.508 115.933 170.538C116.011 170.568 116.082 170.614 116.141 170.673C116.2 170.732 116.246 170.803 116.275 170.881C116.305 170.959 116.318 171.042 116.313 171.126V175.126C116.275 175.299 116.181 175.454 116.045 175.568C115.909 175.681 115.739 175.745 115.563 175.751ZM78.9376 174.501H115.063V171.751H78.9376V174.501Z" fill="black"/>
<path d="M114.313 171.501C114.229 171.506 114.146 171.493 114.068 171.463C113.989 171.434 113.919 171.388 113.859 171.329C113.8 171.27 113.755 171.199 113.725 171.121C113.695 171.043 113.683 170.959 113.688 170.876V159.376H80.1876V170.876C80.1876 171.041 80.1218 171.2 80.0046 171.318C79.8874 171.435 79.7284 171.501 79.5626 171.501C79.3968 171.501 79.2379 171.435 79.1207 171.318C79.0035 171.2 78.9376 171.041 78.9376 170.876V158.751C78.9326 158.667 78.9453 158.584 78.9749 158.506C79.0046 158.428 79.0504 158.357 79.1095 158.298C79.1685 158.239 79.2395 158.193 79.3176 158.163C79.3957 158.133 79.4792 158.121 79.5626 158.126H114.188C114.271 158.121 114.355 158.133 114.433 158.163C114.511 158.193 114.582 158.239 114.641 158.298C114.7 158.357 114.746 158.428 114.775 158.506C114.805 158.584 114.818 158.667 114.813 158.751V170.876C114.831 170.951 114.833 171.029 114.816 171.105C114.799 171.181 114.766 171.252 114.717 171.312C114.669 171.372 114.607 171.421 114.537 171.454C114.467 171.487 114.39 171.503 114.313 171.501Z" fill="black"/>
<path d="M107.687 184.001C107.131 184.06 106.568 183.987 106.044 183.788C105.521 183.59 105.051 183.271 104.674 182.857C104.297 182.443 104.022 181.946 103.872 181.407C103.723 180.867 103.702 180.3 103.812 179.751C103.821 179.621 103.877 179.499 103.969 179.407C104.061 179.315 104.183 179.259 104.312 179.251C104.894 179.176 105.485 179.227 106.046 179.399C106.606 179.572 107.123 179.862 107.562 180.251C107.946 180.693 108.233 181.21 108.406 181.77C108.578 182.33 108.631 182.919 108.562 183.501C108.554 183.63 108.498 183.752 108.406 183.844C108.314 183.936 108.192 183.992 108.062 184.001H107.687ZM105.062 180.501C104.572 180.549 104.113 180.764 103.76 181.109C103.408 181.453 103.183 181.907 103.124 182.397C103.064 182.886 103.172 183.381 103.431 183.8C103.69 184.22 104.084 184.538 104.548 184.704C105.012 184.87 105.519 184.873 105.985 184.712C106.451 184.552 106.848 184.237 107.112 183.821C107.375 183.404 107.489 182.911 107.435 182.421C107.381 181.931 107.161 181.474 106.812 181.126C106.33 180.702 105.704 180.479 105.062 180.501Z" fill="black"/>
<path d="M108.312 184.001H107.937C107.808 183.992 107.686 183.936 107.594 183.844C107.502 183.752 107.446 183.63 107.437 183.501C107.363 182.919 107.414 182.328 107.586 181.767C107.758 181.207 108.049 180.69 108.437 180.251C108.883 179.872 109.401 179.588 109.96 179.416C110.518 179.244 111.106 179.188 111.687 179.251C111.817 179.259 111.939 179.315 112.031 179.407C112.123 179.499 112.179 179.621 112.187 179.751C112.262 180.332 112.212 180.923 112.039 181.484C111.867 182.044 111.576 182.561 111.187 183.001C110.801 183.353 110.346 183.623 109.852 183.795C109.358 183.967 108.834 184.037 108.312 184.001ZM111.062 180.501C111.014 180.01 110.799 179.551 110.455 179.198C110.11 178.846 109.656 178.621 109.167 178.561C108.677 178.501 108.182 178.61 107.763 178.869C107.343 179.128 107.025 179.522 106.859 179.986C106.693 180.45 106.69 180.957 106.851 181.423C107.011 181.889 107.326 182.286 107.742 182.55C108.159 182.813 108.652 182.927 109.142 182.873C109.632 182.819 110.089 182.599 110.437 182.251C110.755 181.712 110.967 181.118 111.062 180.501Z" fill="black"/>
<path d="M108.063 187.876C107.979 187.881 107.896 187.868 107.818 187.838C107.739 187.809 107.669 187.763 107.609 187.704C107.55 187.645 107.505 187.574 107.475 187.496C107.445 187.418 107.433 187.334 107.438 187.251V183.501C107.438 183.335 107.503 183.176 107.621 183.059C107.738 182.942 107.897 182.876 108.063 182.876C108.228 182.876 108.387 182.942 108.505 183.059C108.622 183.176 108.688 183.335 108.688 183.501V187.251C108.677 187.413 108.608 187.566 108.493 187.681C108.378 187.796 108.225 187.865 108.063 187.876Z" fill="black"/>
<path d="M96.5625 184.001C95.5132 184.036 94.4883 183.68 93.6875 183.001C93.3087 182.555 93.0247 182.037 92.8528 181.479C92.6808 180.92 92.6246 180.332 92.6875 179.751C92.6963 179.621 92.7518 179.499 92.8437 179.407C92.9357 179.315 93.0578 179.259 93.1875 179.251C93.7692 179.176 94.3601 179.227 94.9206 179.399C95.4812 179.572 95.9983 179.862 96.4375 180.251C96.8163 180.696 97.1004 181.214 97.2723 181.773C97.4443 182.331 97.5004 182.919 97.4375 183.501C97.4287 183.63 97.3732 183.752 97.2812 183.844C97.1893 183.936 97.0672 183.992 96.9375 184.001H96.5625ZM93.9375 180.501C93.447 180.549 92.9879 180.764 92.6355 181.109C92.2831 181.453 92.0584 181.907 91.9985 182.397C91.9386 182.886 92.047 183.381 92.3059 183.8C92.5648 184.22 92.9587 184.538 93.4228 184.704C93.887 184.87 94.3937 184.873 94.8597 184.712C95.3257 184.552 95.7232 184.237 95.9868 183.821C96.2504 183.404 96.3643 182.911 96.3099 182.421C96.2555 181.931 96.036 181.474 95.6875 181.126C95.2049 180.702 94.5791 180.479 93.9375 180.501Z" fill="black"/>
<path d="M97.3125 184.001H96.9375C96.8078 183.992 96.6856 183.936 96.5937 183.844C96.5018 183.752 96.4463 183.63 96.4375 183.501C96.3629 182.919 96.4136 182.328 96.586 181.767C96.7585 181.207 97.0487 180.69 97.4375 180.251C97.8828 179.872 98.4008 179.588 98.9596 179.416C99.5184 179.244 100.106 179.188 100.687 179.251C100.817 179.259 100.939 179.315 101.031 179.407C101.123 179.499 101.179 179.621 101.187 179.751C101.262 180.332 101.212 180.923 101.039 181.484C100.867 182.044 100.576 182.561 100.187 183.001C99.3867 183.68 98.3618 184.036 97.3125 184.001ZM99.9375 180.501C99.8886 180.01 99.6743 179.551 99.3297 179.198C98.9851 178.846 98.5308 178.621 98.0416 178.561C97.5524 178.501 97.0573 178.61 96.6379 178.869C96.2185 179.128 95.8996 179.522 95.7339 179.986C95.5681 180.45 95.5653 180.957 95.7258 181.423C95.8863 181.889 96.2007 182.286 96.6172 182.55C97.0337 182.813 97.5274 182.927 98.0173 182.873C98.5072 182.819 98.9639 182.599 99.3125 182.251C99.6299 181.712 99.842 181.118 99.9375 180.501Z" fill="black"/>
<path d="M96.9376 187.876C96.8542 187.881 96.7707 187.868 96.6926 187.838C96.6145 187.809 96.5435 187.763 96.4845 187.704C96.4254 187.645 96.3796 187.574 96.3499 187.496C96.3203 187.418 96.3076 187.334 96.3126 187.251V183.501C96.3126 183.335 96.3785 183.176 96.4957 183.059C96.6129 182.942 96.7718 182.876 96.9376 182.876C97.1034 182.876 97.2624 182.942 97.3796 183.059C97.4968 183.176 97.5626 183.335 97.5626 183.501V187.251C97.5521 187.413 97.4829 187.566 97.3679 187.681C97.2529 187.796 97.0999 187.865 96.9376 187.876Z" fill="black"/>
<path d="M85.4375 184.001C84.8806 184.06 84.3177 183.987 83.7942 183.788C83.2706 183.59 82.8011 183.271 82.4238 182.857C82.0465 182.443 81.7719 181.946 81.6223 181.407C81.4727 180.867 81.4522 180.3 81.5625 179.751C81.5713 179.621 81.6268 179.499 81.7187 179.407C81.8107 179.315 81.9328 179.259 82.0625 179.251C82.6442 179.176 83.2351 179.227 83.7956 179.399C84.3562 179.572 84.8733 179.862 85.3125 180.251C85.6962 180.693 85.9834 181.21 86.1556 181.77C86.3278 182.33 86.3812 182.919 86.3125 183.501C86.3037 183.63 86.2482 183.752 86.1562 183.844C86.0643 183.936 85.9422 183.992 85.8125 184.001H85.4375ZM82.8125 180.501C82.322 180.549 81.8629 180.764 81.5105 181.109C81.1581 181.453 80.9334 181.907 80.8735 182.397C80.8136 182.886 80.922 183.381 81.1809 183.8C81.4398 184.22 81.8337 184.538 82.2978 184.704C82.762 184.87 83.2687 184.873 83.7347 184.712C84.2007 184.552 84.5982 184.237 84.8618 183.821C85.1254 183.404 85.2393 182.911 85.1849 182.421C85.1305 181.931 84.911 181.474 84.5625 181.126C84.0799 180.702 83.4541 180.479 82.8125 180.501Z" fill="black"/>
<path d="M86.1875 184.001H85.8125C85.6828 183.992 85.5606 183.937 85.4687 183.845C85.3768 183.753 85.3213 183.631 85.3125 183.501C85.2379 182.919 85.2886 182.328 85.461 181.768C85.6335 181.207 85.9237 180.69 86.3125 180.251C87.2012 179.555 88.3098 179.2 89.4375 179.251C89.5672 179.26 89.6893 179.315 89.7812 179.407C89.8731 179.499 89.9287 179.621 89.9375 179.751C90.0121 180.333 89.9615 180.923 89.789 181.484C89.6166 182.045 89.3262 182.562 88.9375 183.001C88.5689 183.342 88.1358 183.607 87.6635 183.779C87.1913 183.95 86.6894 184.026 86.1875 184.001ZM88.8125 180.501C88.7636 180.01 88.5493 179.551 88.2047 179.199C87.8601 178.846 87.4058 178.622 86.9166 178.562C86.4274 178.502 85.9323 178.61 85.5129 178.869C85.0935 179.128 84.7746 179.522 84.6089 179.986C84.4431 180.45 84.4403 180.957 84.6008 181.423C84.7613 181.889 85.0757 182.287 85.4922 182.55C85.9087 182.814 86.4024 182.928 86.8923 182.873C87.3822 182.819 87.8389 182.599 88.1875 182.251C88.6109 181.768 88.8344 181.142 88.8125 180.501Z" fill="black"/>
<path d="M85.8126 187.876C85.7292 187.881 85.6457 187.868 85.5676 187.838C85.4895 187.809 85.4185 187.763 85.3595 187.704C85.3004 187.645 85.2546 187.574 85.2249 187.496C85.1953 187.418 85.1826 187.334 85.1876 187.251V183.501C85.1876 183.335 85.2535 183.176 85.3707 183.059C85.4879 182.942 85.6468 182.876 85.8126 182.876C85.9784 182.876 86.1374 182.942 86.2546 183.059C86.3718 183.176 86.4376 183.335 86.4376 183.501V187.251C86.4271 187.413 86.3579 187.566 86.2429 187.681C86.1279 187.796 85.9749 187.865 85.8126 187.876Z" fill="black"/>
<path d="M115.563 192.001H78.3126C78.2292 192.006 78.1457 191.993 78.0676 191.963C77.9895 191.934 77.9185 191.888 77.8595 191.829C77.8004 191.77 77.7546 191.699 77.7249 191.621C77.6953 191.543 77.6826 191.459 77.6876 191.376V187.376C77.6826 187.292 77.6953 187.209 77.7249 187.131C77.7546 187.053 77.8004 186.982 77.8595 186.923C77.9185 186.864 77.9895 186.818 78.0676 186.788C78.1457 186.758 78.2292 186.746 78.3126 186.751H115.688C115.771 186.746 115.855 186.758 115.933 186.788C116.011 186.818 116.082 186.864 116.141 186.923C116.2 186.982 116.246 187.053 116.275 187.131C116.305 187.209 116.318 187.292 116.313 187.376V191.376C116.275 191.549 116.181 191.704 116.045 191.818C115.909 191.931 115.739 191.995 115.563 192.001ZM78.9376 190.751H115.063V188.001H78.9376V190.751Z" fill="black"/>
<path d="M114.313 187.876C114.229 187.881 114.146 187.868 114.068 187.838C113.989 187.809 113.919 187.763 113.859 187.704C113.8 187.645 113.755 187.574 113.725 187.496C113.695 187.418 113.683 187.334 113.688 187.251V175.751H80.1876V187.251C80.1876 187.416 80.1218 187.575 80.0046 187.693C79.8874 187.81 79.7284 187.876 79.5626 187.876C79.3968 187.876 79.2379 187.81 79.1207 187.693C79.0035 187.575 78.9376 187.416 78.9376 187.251V175.126C78.9326 175.042 78.9453 174.959 78.9749 174.881C79.0046 174.803 79.0504 174.732 79.1095 174.673C79.1685 174.614 79.2395 174.568 79.3176 174.538C79.3957 174.508 79.4792 174.496 79.5626 174.501H114.188C114.271 174.496 114.355 174.508 114.433 174.538C114.511 174.568 114.582 174.614 114.641 174.673C114.7 174.732 114.746 174.803 114.775 174.881C114.805 174.959 114.818 175.042 114.813 175.126V187.251C114.938 187.501 114.563 187.876 114.313 187.876Z" fill="black"/>
</g>
<path d="M41.7314 221.001H37.6294V210.781H41.2834C43.1734 210.781 44.4334 211.873 44.4334 213.427C44.4334 214.365 43.9574 215.093 43.2014 215.527C44.2934 215.891 45.0494 216.787 45.0494 218.061C45.0494 219.755 43.7194 221.001 41.7314 221.001ZM39.0714 212.111V215.065L41.3394 215.051C42.3334 215.037 43.0194 214.435 43.0194 213.623C43.0194 212.797 42.4314 212.111 41.2554 212.111H39.0714ZM39.0714 216.339V219.601H41.6894C42.8654 219.601 43.5654 218.915 43.5654 217.963C43.5654 216.997 42.7954 216.339 41.7734 216.339H39.0714ZM50.2346 221.113C47.8966 221.113 46.1466 219.321 46.1466 217.137C46.1466 214.967 47.8966 213.203 50.0526 213.203C52.2926 213.203 53.9586 214.967 53.9586 217.137C53.9586 217.319 53.9306 217.585 53.9166 217.781H47.6166C47.8266 218.943 48.9046 219.825 50.2346 219.825C51.1866 219.825 51.9426 219.433 52.4326 218.831L53.5386 219.517C52.8106 220.483 51.5366 221.113 50.2346 221.113ZM47.6026 216.661H52.5446C52.4746 215.471 51.4806 214.477 50.0666 214.477C48.7086 214.477 47.6866 215.471 47.6026 216.661ZM55.6868 224.165C55.1268 224.165 54.7068 224.067 54.2728 223.885L54.6788 222.667C54.9168 222.765 55.3088 222.863 55.6308 222.863C56.4988 222.863 57.0588 222.037 57.5068 220.847L54.4268 213.301H55.8968L58.1368 218.999L60.3628 213.301H61.8188L58.8788 221.001C58.0388 223.213 57.1568 224.165 55.6868 224.165ZM66.0907 221.113C63.9067 221.113 62.1427 219.321 62.1427 217.137C62.1427 214.967 63.9067 213.203 66.0907 213.203C68.2607 213.203 70.0387 214.967 70.0387 217.137C70.0387 219.321 68.2607 221.113 66.0907 221.113ZM66.0907 219.713C67.5047 219.713 68.6527 218.565 68.6527 217.137C68.6527 215.737 67.5047 214.589 66.0907 214.589C64.6627 214.589 63.5287 215.737 63.5287 217.137C63.5287 218.565 64.6627 219.713 66.0907 219.713ZM72.9451 221.001H71.5871V213.301H72.8471L72.9171 214.659C73.3371 213.847 74.1631 213.189 75.3391 213.189C77.1311 213.189 78.4891 214.421 78.4891 217.081V221.001H77.1171V217.081C77.1171 215.331 76.1651 214.533 75.0311 214.533C73.9111 214.533 72.9451 215.317 72.9451 217.081V221.001ZM83.6134 221.099C81.5414 221.099 79.8614 219.321 79.8614 217.151C79.8614 214.967 81.5414 213.189 83.6134 213.189C84.8594 213.189 85.9794 213.917 86.4414 214.883V210.081H87.8134V221.001H86.5534L86.4834 219.391C86.0074 220.357 84.8734 221.099 83.6134 221.099ZM83.8374 219.741C85.2794 219.741 86.4414 218.579 86.4414 217.151C86.4414 215.709 85.2794 214.533 83.8374 214.533C82.4094 214.533 81.2474 215.709 81.2474 217.151C81.2474 218.579 82.4094 219.741 83.8374 219.741ZM98.5818 221.169C95.6698 221.169 93.3178 218.803 93.3178 215.891C93.3178 212.993 95.6698 210.641 98.5818 210.641C101.48 210.641 103.832 212.993 103.832 215.891C103.832 218.803 101.48 221.169 98.5818 221.169ZM98.5818 219.685C100.654 219.685 102.362 218.005 102.362 215.877C102.362 213.791 100.654 212.111 98.5818 212.111C96.4958 212.111 94.7878 213.791 94.7878 215.877C94.7878 218.005 96.4958 219.685 98.5818 219.685ZM106.879 221.001H105.521V213.301H106.781L106.865 214.561C107.313 213.735 108.181 213.245 109.315 213.259C109.511 213.259 109.707 213.273 109.889 213.301L109.609 214.617C109.525 214.603 109.427 214.589 109.343 214.589C108.041 214.589 106.879 215.317 106.879 217.445V221.001ZM114.06 224.221C112.758 224.221 111.498 223.633 110.77 222.681L111.806 221.883C112.338 222.513 113.22 222.905 114.13 222.905C115.614 222.905 116.902 222.051 116.902 220.021V219.433C116.44 220.371 115.32 221.099 114.074 221.099C112.002 221.099 110.322 219.321 110.322 217.151C110.322 214.967 112.002 213.189 114.074 213.189C115.334 213.189 116.468 213.945 116.944 214.925L117.014 213.301H118.274V219.797C118.274 222.779 116.482 224.221 114.06 224.221ZM114.298 219.741C115.74 219.741 116.902 218.579 116.902 217.151C116.902 215.709 115.74 214.533 114.298 214.533C112.87 214.533 111.708 215.709 111.708 217.151C111.708 218.579 112.87 219.741 114.298 219.741ZM123.563 221.099C121.491 221.099 119.811 219.321 119.811 217.151C119.811 214.967 121.491 213.189 123.563 213.189C124.823 213.189 125.957 213.945 126.433 214.925L126.503 213.301H127.763V221.001H126.503L126.433 219.391C125.957 220.357 124.823 221.099 123.563 221.099ZM123.787 219.741C125.229 219.741 126.391 218.579 126.391 217.151C126.391 215.709 125.229 214.533 123.787 214.533C122.359 214.533 121.197 215.709 121.197 217.151C121.197 218.579 122.359 219.741 123.787 219.741ZM131.119 221.001H129.761V213.301H131.021L131.091 214.659C131.511 213.847 132.337 213.189 133.513 213.189C135.305 213.189 136.663 214.421 136.663 217.081V221.001H135.291V217.081C135.291 215.331 134.339 214.533 133.205 214.533C132.085 214.533 131.119 215.317 131.119 217.081V221.001ZM139.183 212.517C138.707 212.517 138.315 212.125 138.315 211.649C138.315 211.173 138.707 210.781 139.183 210.781C139.645 210.781 140.037 211.173 140.037 211.649C140.037 212.125 139.645 212.517 139.183 212.517ZM139.855 221.001H138.497V213.301H139.855V221.001ZM145.347 221.113C143.163 221.113 141.399 219.321 141.399 217.137C141.399 214.967 143.163 213.203 145.347 213.203C146.677 213.203 147.853 213.861 148.581 214.869L147.447 215.625C146.971 214.995 146.201 214.589 145.347 214.589C143.919 214.589 142.785 215.737 142.785 217.137C142.785 218.565 143.919 219.713 145.347 219.713C146.229 219.713 147.013 219.279 147.475 218.607L148.609 219.363C147.909 220.413 146.705 221.113 145.347 221.113ZM55.8233 241.001H54.3673L50.5733 230.781H52.1553L55.0953 238.859L58.0353 230.781H59.6173L55.8233 241.001ZM63.6945 241.113C61.3565 241.113 59.6065 239.321 59.6065 237.137C59.6065 234.967 61.3565 233.203 63.5125 233.203C65.7525 233.203 67.4185 234.967 67.4185 237.137C67.4185 237.319 67.3905 237.585 67.3765 237.781H61.0765C61.2865 238.943 62.3645 239.825 63.6945 239.825C64.6465 239.825 65.4025 239.433 65.8925 238.831L66.9985 239.517C66.2705 240.483 64.9965 241.113 63.6945 241.113ZM61.0625 236.661H66.0045C65.9345 235.471 64.9405 234.477 63.5265 234.477C62.1685 234.477 61.1465 235.471 61.0625 236.661ZM70.3133 241.001H68.9553V233.301H70.2153L70.2993 234.561C70.7473 233.735 71.6153 233.245 72.7493 233.259C72.9453 233.259 73.1413 233.273 73.3233 233.301L73.0433 234.617C72.9593 234.603 72.8613 234.589 72.7773 234.589C71.4753 234.589 70.3133 235.317 70.3133 237.445V241.001ZM77.6101 241.127C76.1961 241.127 75.0201 240.273 75.0201 238.131V234.533H73.9841V233.301H75.0621L75.2301 230.781H76.3781V233.301H78.2261V234.533H76.3781V238.117C76.3781 239.223 76.9241 239.797 77.7921 239.797C77.9881 239.797 78.1981 239.769 78.3801 239.699L78.7301 240.917C78.4081 241.057 78.0161 241.127 77.6101 241.127ZM80.8659 232.517C80.3899 232.517 79.9979 232.125 79.9979 231.649C79.9979 231.173 80.3899 230.781 80.8659 230.781C81.3279 230.781 81.7199 231.173 81.7199 231.649C81.7199 232.125 81.3279 232.517 80.8659 232.517ZM81.5379 241.001H80.1799V233.301H81.5379V241.001ZM87.0292 241.113C84.8452 241.113 83.0812 239.321 83.0812 237.137C83.0812 234.967 84.8452 233.203 87.0292 233.203C88.3592 233.203 89.5352 233.861 90.2632 234.869L89.1292 235.625C88.6532 234.995 87.8832 234.589 87.0292 234.589C85.6012 234.589 84.4672 235.737 84.4672 237.137C84.4672 238.565 85.6012 239.713 87.0292 239.713C87.9112 239.713 88.6952 239.279 89.1572 238.607L90.2912 239.363C89.5912 240.413 88.3872 241.113 87.0292 241.113ZM94.9953 241.099C92.9233 241.099 91.2433 239.321 91.2433 237.151C91.2433 234.967 92.9233 233.189 94.9953 233.189C96.2553 233.189 97.3893 233.945 97.8653 234.925L97.9353 233.301H99.1953V241.001H97.9353L97.8653 239.391C97.3893 240.357 96.2553 241.099 94.9953 241.099ZM95.2193 239.741C96.6613 239.741 97.8233 238.579 97.8233 237.151C97.8233 235.709 96.6613 234.533 95.2193 234.533C93.7913 234.533 92.6293 235.709 92.6293 237.151C92.6293 238.579 93.7913 239.741 95.2193 239.741ZM102.552 241.001H101.194V230.081H102.552V241.001ZM109.953 241.001H108.525V230.781H115.119V232.167H109.953V235.163H114.839V236.549H109.953V241.001ZM119.919 241.099C117.847 241.099 116.167 239.321 116.167 237.151C116.167 234.967 117.847 233.189 119.919 233.189C121.179 233.189 122.313 233.945 122.789 234.925L122.859 233.301H124.119V241.001H122.859L122.789 239.391C122.313 240.357 121.179 241.099 119.919 241.099ZM120.143 239.741C121.585 239.741 122.747 238.579 122.747 237.151C122.747 235.709 121.585 234.533 120.143 234.533C118.715 234.533 117.553 235.709 117.553 237.151C117.553 238.579 118.715 239.741 120.143 239.741ZM127.475 241.001H126.117V233.301H127.377L127.461 234.561C127.909 233.735 128.777 233.245 129.911 233.259C130.107 233.259 130.303 233.273 130.485 233.301L130.205 234.617C130.121 234.603 130.023 234.589 129.939 234.589C128.637 234.589 127.475 235.317 127.475 237.445V241.001ZM133.19 241.001H131.832V233.301H133.092L133.162 234.575C133.554 233.679 134.422 233.189 135.262 233.189C136.494 233.189 137.292 233.903 137.614 234.827C137.936 233.917 138.734 233.189 139.854 233.189C141.492 233.189 142.71 234.239 142.71 236.913V241.001H141.338V236.913C141.338 235.149 140.554 234.533 139.644 234.533C138.79 234.533 137.95 235.149 137.95 236.913V241.001H136.578V236.913C136.578 235.149 135.794 234.533 134.884 234.533C133.974 234.533 133.19 235.317 133.19 237.081V241.001Z" fill="black"/>
<defs>
<clipPath id="clip0_3004_2121">
<rect width="38.625" height="38" fill="white" transform="translate(77.6875 154.001)"/>
</clipPath>
</defs>
</svg>
