<svg width="41" height="53" fill="none" xmlns="http://www.w3.org/2000/svg"><g clip-path="url(#a)"><path d="m37.322 48.177-5.412-.343-3.217 4.384a.621.621 0 0 1-1.064-.106l-7.386-15.91 10.295-4.822 7.386 15.91a.626.626 0 0 1-.602.887Z" fill="#D6EDFF"/><path d="M28.196 53a1.136 1.136 0 0 1-1.043-.666l-7.608-16.387 11.247-5.268L38.4 47.068a1.144 1.144 0 0 1-.092 1.135 1.157 1.157 0 0 1-1.02.5l-5.125-.324-3.047 4.153a1.137 1.137 0 0 1-.92.468Zm-7.255-16.542 7.165 15.43.587.33-.423-.313 3.386-4.617 5.698.362a.082.082 0 0 0 .086-.042l-7.158-15.526-9.341 4.376Z" fill="#2B2B2B"/><path d="m3.164 48.177 5.412-.343 3.217 4.384a.621.621 0 0 0 1.063-.106l7.387-15.91L9.948 31.38 2.562 47.29a.626.626 0 0 0 .29.825.62.62 0 0 0 .312.062Z" fill="#D6EDFF"/><path d="M12.29 53a1.13 1.13 0 0 1-.92-.469l-3.047-4.152-5.126.325a1.142 1.142 0 0 1-1.019-.5 1.155 1.155 0 0 1-.092-1.136l7.607-16.389 11.247 5.268-7.608 16.387A1.14 1.14 0 0 1 12.29 53Zm-3.462-5.712 3.388 4.617.164-.016 7.164-15.431-9.341-4.377-7.165 15.432.094.137 5.696-.362Z" fill="#2B2B2B"/><path d="m21.508.976 1.041.85a2.003 2.003 0 0 0 1.922.34l1.267-.441a1.999 1.999 0 0 1 2.378.87l.69 1.155a2.011 2.011 0 0 0 1.69.98l1.34.022c.461.007.905.174 1.258.471.353.298.594.708.681 1.163l.254 1.322a2.02 2.02 0 0 0 1.254 1.502l1.253.48a2.024 2.024 0 0 1 1.265 2.201l-.211 1.331a2.024 2.024 0 0 0 .667 1.842l1.014.883a2.018 2.018 0 0 1 .439 2.503l-.652 1.177a2.022 2.022 0 0 0 0 1.96l.652 1.177a2.024 2.024 0 0 1-.44 2.503l-1.013.883a2.016 2.016 0 0 0-.667 1.841l.211 1.331c.073.457-.013.925-.243 1.326-.23.401-.591.71-1.022.875l-1.253.481a2.007 2.007 0 0 0-1.254 1.502l-.254 1.322a2.018 2.018 0 0 1-.68 1.163 2.002 2.002 0 0 1-1.258.471l-1.342.022a2 2 0 0 0-1.69.98l-.689 1.156a1.999 1.999 0 0 1-2.378.87l-1.267-.441a1.998 1.998 0 0 0-1.922.34l-1.04.85a2.003 2.003 0 0 1-2.532 0l-1.04-.85a2.002 2.002 0 0 0-1.922-.34l-1.268.44a1.999 1.999 0 0 1-2.378-.87l-.69-1.155a2.012 2.012 0 0 0-1.689-.98l-1.341-.022a2.002 2.002 0 0 1-1.258-.471 2.018 2.018 0 0 1-.68-1.163l-.255-1.323a2.02 2.02 0 0 0-1.254-1.5l-1.253-.482a2.01 2.01 0 0 1-1.021-.875c-.23-.4-.317-.869-.244-1.326l.212-1.33a2.024 2.024 0 0 0-.668-1.842l-1.013-.883a2.018 2.018 0 0 1-.44-2.503l.652-1.177a2.023 2.023 0 0 0 0-1.96L.775 18.45a2.023 2.023 0 0 1 .44-2.503l1.013-.883a2.017 2.017 0 0 0 .668-1.842l-.212-1.33a2.024 2.024 0 0 1 .244-1.326c.23-.401.59-.71 1.021-.875l1.253-.481a2.008 2.008 0 0 0 1.254-1.502l.254-1.322c.088-.455.328-.865.681-1.163a2.002 2.002 0 0 1 1.258-.471L9.99 4.73a2 2 0 0 0 1.69-.98l.69-1.156a1.999 1.999 0 0 1 2.378-.87l1.267.441a1.999 1.999 0 0 0 1.921-.34l1.041-.85a2.001 2.001 0 0 1 2.531 0Z" fill="#D6EDFF"/><path d="M20.244 41.214a2.52 2.52 0 0 1-1.598-.567l-1.041-.847a1.467 1.467 0 0 0-1.42-.253l-1.266.441a2.54 2.54 0 0 1-3-1.097l-.69-1.156a1.496 1.496 0 0 0-1.247-.724l-1.341-.021a2.536 2.536 0 0 1-1.586-.597 2.556 2.556 0 0 1-.86-1.465l-.255-1.322a1.48 1.48 0 0 0-.925-1.108l-1.253-.482c-.542-.21-.996-.6-1.286-1.106a2.565 2.565 0 0 1-.31-1.672l.21-1.33a1.482 1.482 0 0 0-.491-1.36L.87 25.667a2.556 2.556 0 0 1-.554-3.158l.65-1.178a1.483 1.483 0 0 0 .001-1.446l-.651-1.178a2.563 2.563 0 0 1 .554-3.158l1.014-.883a1.476 1.476 0 0 0 .492-1.359l-.212-1.33c-.09-.577.02-1.167.31-1.672.291-.505.745-.895 1.287-1.106l1.252-.481a1.47 1.47 0 0 0 .926-1.108l.254-1.324c.112-.572.416-1.089.861-1.464a2.538 2.538 0 0 1 1.586-.597l1.341-.022a1.466 1.466 0 0 0 1.247-.723l.69-1.156a2.539 2.539 0 0 1 3-1.097l1.267.44a1.46 1.46 0 0 0 1.419-.25l1.04-.85a2.536 2.536 0 0 1 3.194 0l1.042.849a1.468 1.468 0 0 0 1.418.251l1.268-.44a2.535 2.535 0 0 1 3 1.097l.689 1.156a1.477 1.477 0 0 0 1.248.723l1.34.022c.581.011 1.14.222 1.586.597.445.375.749.892.86 1.464l.255 1.324a1.48 1.48 0 0 0 .925 1.108l1.254.481c.542.21.996.6 1.286 1.106.29.505.4 1.095.31 1.671l-.21 1.331a1.483 1.483 0 0 0 .491 1.359l1.014.883a2.566 2.566 0 0 1 .555 3.157l-.654 1.179a1.49 1.49 0 0 0 .002 1.447l.651 1.177a2.564 2.564 0 0 1-.555 3.158l-1.013.883a1.476 1.476 0 0 0-.492 1.36l.212 1.33c.09.576-.02 1.166-.31 1.671-.291.505-.745.896-1.287 1.106l-1.253.482a1.47 1.47 0 0 0-.926 1.108l-.254 1.322a2.557 2.557 0 0 1-.861 1.465 2.536 2.536 0 0 1-1.586.597l-1.34.021a1.471 1.471 0 0 0-1.248.724l-.69 1.156a2.535 2.535 0 0 1-3 1.098l-1.268-.442a1.463 1.463 0 0 0-1.417.252l-1.043.849a2.516 2.516 0 0 1-1.595.566Zm-3.569-2.806c.581 0 1.144.203 1.593.572l1.04.847a1.48 1.48 0 0 0 1.868.001l1.043-.849a2.506 2.506 0 0 1 2.423-.43l1.268.441a1.485 1.485 0 0 0 1.755-.642l.69-1.155a2.524 2.524 0 0 1 2.132-1.237l1.34-.022a1.482 1.482 0 0 0 1.431-1.206l.255-1.322a2.53 2.53 0 0 1 1.583-1.894l1.252-.481a1.49 1.49 0 0 0 .934-1.626l-.211-1.33a2.538 2.538 0 0 1 .842-2.324l1.013-.882a1.497 1.497 0 0 0 .325-1.849l-.652-1.177a2.542 2.542 0 0 1-.001-2.472l.654-1.178a1.501 1.501 0 0 0-.326-1.847l-1.014-.883a2.531 2.531 0 0 1-.841-2.324l.211-1.33a1.498 1.498 0 0 0-.934-1.625l-1.253-.482a2.517 2.517 0 0 1-1.582-1.893l-.255-1.324a1.496 1.496 0 0 0-.503-.856 1.483 1.483 0 0 0-.927-.35l-1.34-.021a2.511 2.511 0 0 1-2.133-1.236l-.69-1.157a1.489 1.489 0 0 0-1.756-.641l-1.267.44a2.507 2.507 0 0 1-2.424-.43l-1.042-.85a1.49 1.49 0 0 0-1.869.002l-1.04.848a2.512 2.512 0 0 1-2.424.43l-1.268-.44a1.482 1.482 0 0 0-1.755.642l-.69 1.156a2.519 2.519 0 0 1-2.132 1.236l-1.341.021a1.495 1.495 0 0 0-1.43 1.206L6.971 7.81a2.531 2.531 0 0 1-1.584 1.893l-1.25.482c-.318.122-.584.35-.753.646-.17.296-.234.641-.181.978l.21 1.331a2.54 2.54 0 0 1-.842 2.324l-1.014.883a1.496 1.496 0 0 0-.324 1.847l.652 1.177a2.536 2.536 0 0 1 0 2.473l-.65 1.178a1.499 1.499 0 0 0 .322 1.848l1.014.882a2.529 2.529 0 0 1 .843 2.324l-.211 1.33a1.5 1.5 0 0 0 .933 1.626l1.252.481a2.516 2.516 0 0 1 1.583 1.894l.254 1.322c.066.335.243.638.503.857.26.22.588.343.928.35l1.341.02a2.508 2.508 0 0 1 2.132 1.238l.69 1.155a1.492 1.492 0 0 0 1.755.642l1.267-.44c.268-.094.55-.142.833-.142Z" fill="#2B2B2B"/><path d="M20.243 34.828c7.82 0 14.158-6.367 14.158-14.22 0-7.855-6.339-14.222-14.158-14.222-7.82 0-14.159 6.367-14.159 14.221s6.339 14.221 14.159 14.221Z" fill="#D6EDFF"/><path d="M20.242 35.356c-2.904 0-5.743-.865-8.158-2.486a14.735 14.735 0 0 1-5.408-6.62 14.81 14.81 0 0 1-.835-8.521 14.77 14.77 0 0 1 4.019-7.552 14.664 14.664 0 0 1 7.518-4.036c2.849-.57 5.801-.277 8.485.84a14.699 14.699 0 0 1 6.59 5.432 14.796 14.796 0 0 1 2.474 8.194 14.8 14.8 0 0 1-4.306 10.424 14.668 14.668 0 0 1-10.379 4.325Zm0-28.443c-2.696 0-5.332.803-7.574 2.308a13.68 13.68 0 0 0-5.02 6.146 13.75 13.75 0 0 0-.777 7.911 13.712 13.712 0 0 0 3.731 7.012 13.614 13.614 0 0 0 6.98 3.747c2.645.529 5.386.257 7.878-.779a13.646 13.646 0 0 0 6.118-5.043 13.737 13.737 0 0 0 2.298-7.608 13.74 13.74 0 0 0-3.998-9.679 13.618 13.618 0 0 0-9.636-4.015Z" fill="#2B2B2B"/><path d="m20.738 11.968 2.24 4.699a.552.552 0 0 0 .422.308l5.142.688a.548.548 0 0 1 .45.376.554.554 0 0 1-.144.57l-3.757 3.592a.553.553 0 0 0-.162.5l.938 5.123a.554.554 0 0 1-.504.65.548.548 0 0 1-.298-.064l-4.561-2.48a.547.547 0 0 0-.523 0l-4.562 2.48a.548.548 0 0 1-.802-.586l.938-5.123a.553.553 0 0 0-.162-.5l-3.757-3.591a.551.551 0 0 1 .307-.947l5.141-.688a.548.548 0 0 0 .423-.308l2.24-4.7a.551.551 0 0 1 .788-.228.55.55 0 0 1 .203.229Z" fill="#569FD6"/></g><defs><clipPath id="a"><path fill="#fff" d="M0 0h40.486v53H0z"/></clipPath></defs></svg>