<svg width="41" height="53" viewBox="0 0 41 53" fill="none" xmlns="http://www.w3.org/2000/svg">
<g clip-path="url(#clip0_1077_3306)">
<path d="M37.3215 48.177L31.9098 47.834L28.6929 52.2184C28.629 52.3056 28.5435 52.3745 28.4449 52.4185C28.3464 52.4625 28.2382 52.48 28.1309 52.4693C28.0236 52.4585 27.921 52.4198 27.833 52.3572C27.7451 52.2945 27.6749 52.21 27.6293 52.1118L20.2432 36.2018L30.5375 31.3802L37.9238 47.2903C37.9693 47.3884 37.9886 47.4967 37.9798 47.6047C37.9711 47.7126 37.9346 47.8163 37.8739 47.9058C37.8131 47.9952 37.7302 48.0672 37.6333 48.1148C37.5365 48.1623 37.4291 48.1838 37.3215 48.177Z" fill="#D6EDFF"/>
<path d="M28.1962 53C28.1572 53 28.1182 52.9979 28.0782 52.9949C27.88 52.9756 27.6902 52.9045 27.528 52.7886C27.3657 52.6726 27.2366 52.5159 27.1535 52.3341L19.5449 35.9465L30.7916 30.6791L38.4002 47.0678C38.4852 47.2485 38.5213 47.4484 38.5051 47.6476C38.4889 47.8468 38.4209 48.0382 38.3078 48.2027C38.1953 48.3672 38.0422 48.4998 37.8637 48.5876C37.6852 48.6753 37.4872 48.7153 37.2888 48.7036L32.1626 48.3789L29.1157 52.532C29.01 52.6773 28.8716 52.7954 28.7118 52.8767C28.552 52.958 28.3753 53.0003 28.1962 53ZM20.9406 36.4577L28.1059 51.8888L28.6929 52.2187L28.2701 51.9053L31.6557 47.2884L37.3544 47.6502C37.3712 47.6529 37.3884 47.6503 37.4037 47.6427C37.419 47.6351 37.4315 47.6231 37.4396 47.608L30.2815 32.0821L20.9406 36.4577Z" fill="#2B2B2B"/>
<path d="M3.16442 48.177L8.57596 47.834L11.793 52.2184C11.8569 52.3056 11.9423 52.3745 12.0408 52.4185C12.1393 52.4625 12.2476 52.48 12.3549 52.4693C12.4621 52.4585 12.5648 52.4198 12.6527 52.3572C12.7407 52.2945 12.8109 52.21 12.8564 52.1118L20.2426 36.2018L9.94831 31.3802L2.56214 47.2903C2.51658 47.3884 2.49721 47.4967 2.50595 47.6047C2.51469 47.7126 2.55116 47.8163 2.61191 47.9058C2.67267 47.9952 2.75559 48.0672 2.85244 48.1148C2.94929 48.1623 3.05683 48.1838 3.16442 48.177Z" fill="#D6EDFF"/>
<path d="M12.2899 53C12.1105 53.0005 11.9335 52.9582 11.7735 52.8767C11.6135 52.7952 11.4749 52.6767 11.3693 52.531L8.32337 48.3789L3.19726 48.7036C2.99877 48.7162 2.80049 48.6768 2.62179 48.5891C2.44309 48.5014 2.29017 48.3685 2.17807 48.2035C2.06596 48.0384 1.99847 47.847 1.98231 47.6479C1.96615 47.4487 2.00181 47.2488 2.08583 47.0678L9.69341 30.6791L20.9401 35.9465L13.3325 52.3341C13.2495 52.5161 13.1203 52.6731 12.9578 52.7891C12.7953 52.9051 12.6053 52.976 12.4068 52.9949C12.3668 52.9979 12.3279 53 12.2899 53ZM8.82841 47.2884L12.2161 51.9053L12.3803 51.8888L19.5445 36.4577L10.2026 32.081L3.03832 47.5131L3.13171 47.6502L8.82841 47.2884Z" fill="#2B2B2B"/>
<path d="M21.5081 0.975755L22.5493 1.82513C22.8143 2.04131 23.1299 2.18603 23.4661 2.24557C23.8024 2.30512 24.1481 2.27752 24.4707 2.16543L25.7384 1.72502C26.1739 1.57372 26.648 1.57754 27.081 1.73584C27.514 1.89415 27.8795 2.1973 28.1163 2.59437L28.8056 3.75015C28.981 4.04433 29.2283 4.28866 29.524 4.46012C29.8196 4.63157 30.154 4.72455 30.4953 4.73006L31.8365 4.75171C32.2972 4.75914 32.7414 4.92552 33.0944 5.22304C33.4474 5.52056 33.6878 5.93105 33.7751 6.38552L34.0292 7.70843C34.0939 8.04513 34.243 8.35967 34.4624 8.62236C34.6818 8.88505 34.9644 9.08721 35.2833 9.20966L36.5362 9.69078C36.9666 9.85607 37.3273 10.1651 37.5577 10.5659C37.7881 10.9668 37.8741 11.435 37.8014 11.8921L37.5898 13.2224C37.5359 13.5611 37.5689 13.9079 37.6857 14.2302C37.8025 14.5524 37.9991 14.8393 38.2571 15.064L39.2706 15.9465C39.6188 16.2496 39.8525 16.6639 39.9326 17.1198C40.0126 17.5756 39.934 18.0451 39.71 18.4496L39.0581 19.6272C38.8921 19.9269 38.8051 20.264 38.8051 20.607C38.8051 20.9499 38.8921 21.2872 39.0581 21.5869L39.71 22.7643C39.934 23.1688 40.0126 23.6385 39.9326 24.0943C39.8525 24.5501 39.6188 24.9643 39.2706 25.2675L38.2571 26.15C37.9991 26.3746 37.8025 26.6616 37.6857 26.9839C37.5689 27.3061 37.5359 27.6529 37.5898 27.9915L37.8014 29.322C37.8741 29.779 37.7881 30.2473 37.5577 30.6481C37.3273 31.049 36.9666 31.358 36.5362 31.5233L35.2833 32.0043C34.9644 32.1267 34.6818 32.3289 34.4624 32.5916C34.243 32.8542 34.0939 33.1688 34.0292 33.5055L33.7751 34.8284C33.6878 35.2829 33.4474 35.6934 33.0944 35.9909C32.7414 36.2884 32.2972 36.4549 31.8365 36.4623L30.4953 36.484C30.154 36.4895 29.8196 36.5823 29.524 36.7538C29.2283 36.9253 28.981 37.1696 28.8056 37.4638L28.1163 38.6195C27.8795 39.0166 27.514 39.3198 27.081 39.4781C26.648 39.6364 26.1739 39.6402 25.7384 39.4889L24.4707 39.0486C24.1481 38.9365 23.8024 38.9089 23.4661 38.9685C23.1299 39.028 22.8143 39.1727 22.5493 39.3889L21.5081 40.2382C21.1503 40.5299 20.7035 40.6893 20.2427 40.6893C19.7819 40.6893 19.3352 40.5299 18.9775 40.2382L17.9362 39.3889C17.6712 39.1727 17.3556 39.028 17.0194 38.9685C16.6832 38.9089 16.3375 38.9365 16.0148 39.0486L14.7471 39.4889C14.3116 39.6402 13.8376 39.6364 13.4046 39.4781C12.9715 39.3198 12.606 39.0166 12.3692 38.6195L11.6799 37.4638C11.5045 37.1696 11.2572 36.9253 10.9616 36.7538C10.6659 36.5823 10.3316 36.4895 9.99022 36.484L8.64904 36.4623C8.18829 36.4549 7.74412 36.2884 7.39112 35.9909C7.03812 35.6934 6.79776 35.2829 6.71046 34.8284L6.45634 33.5055C6.39166 33.1688 6.24258 32.8542 6.02313 32.5916C5.80368 32.3289 5.52115 32.1267 5.20226 32.0043L3.94934 31.5233C3.51891 31.358 3.15824 31.049 2.92784 30.6481C2.69743 30.2473 2.61139 29.779 2.6841 29.322L2.89577 27.9915C2.94964 27.6529 2.91658 27.3061 2.79981 26.9839C2.68305 26.6616 2.48642 26.3746 2.22845 26.15L1.2149 25.2675C0.866702 24.9643 0.632989 24.5501 0.55297 24.0943C0.472951 23.6385 0.551445 23.1688 0.775409 22.7643L1.42733 21.5869C1.59326 21.2872 1.68043 20.9499 1.68043 20.607C1.68043 20.264 1.59326 19.9269 1.42733 19.6272L0.775409 18.4496C0.551445 18.0451 0.472951 17.5756 0.55297 17.1198C0.632989 16.6639 0.866702 16.2496 1.2149 15.9465L2.22845 15.064C2.48642 14.8393 2.68304 14.5524 2.79981 14.2302C2.91658 13.9079 2.94964 13.5611 2.89577 13.2224L2.6841 11.8921C2.61139 11.435 2.69743 10.9666 2.92784 10.5658C3.15824 10.165 3.51891 9.85606 3.94934 9.69078L5.20226 9.20966C5.52115 9.08721 5.80368 8.88505 6.02313 8.62236C6.24258 8.35967 6.39166 8.04513 6.45634 7.70843L6.71046 6.38552C6.79776 5.93105 7.03812 5.52056 7.39112 5.22304C7.74412 4.92552 8.18829 4.75914 8.64904 4.75171L9.99022 4.73006C10.3316 4.72455 10.6659 4.63157 10.9616 4.46012C11.2572 4.28866 11.5045 4.04433 11.6799 3.75015L12.3692 2.59437C12.606 2.1973 12.9715 1.89415 13.4046 1.73584C13.8376 1.57754 14.3116 1.57372 14.7471 1.72502L16.0148 2.16543C16.3375 2.27752 16.6832 2.30512 17.0194 2.24557C17.3556 2.18603 17.6712 2.0413 17.9362 1.82513L18.9775 0.975755C19.3352 0.683974 19.7819 0.52478 20.2427 0.52478C20.7035 0.52478 21.1503 0.683974 21.5081 0.975755Z" fill="#D6EDFF"/>
<path d="M20.2435 41.2138C19.6618 41.2152 19.0974 41.0149 18.6456 40.6469L17.605 39.7996C17.4099 39.6387 17.1768 39.5311 16.9282 39.4869C16.6796 39.4426 16.424 39.4633 16.1857 39.547L14.9193 39.9882C14.3694 40.1755 13.7724 40.1689 13.2268 39.9693C12.6812 39.7697 12.2197 39.3892 11.9186 38.8905L11.2289 37.735C11.0987 37.5185 10.9161 37.3387 10.6981 37.2121C10.4801 37.0856 10.2338 37.0166 9.98203 37.0114L8.64072 36.9897C8.05979 36.9786 7.50018 36.7679 7.05504 36.3928C6.6099 36.0177 6.30609 35.5008 6.19415 34.9281L5.93964 33.6056C5.89299 33.3568 5.78342 33.1241 5.6215 32.9301C5.45958 32.736 5.25075 32.5871 5.01499 32.4975L3.76194 32.0161C3.22 31.8058 2.76604 31.4155 2.47554 30.9101C2.18504 30.4047 2.0755 29.8147 2.1651 29.2381L2.3765 27.9084C2.41759 27.6584 2.39383 27.4021 2.30774 27.164C2.22165 26.9259 2.07612 26.714 1.88493 26.5488L0.870996 25.6664C0.433204 25.2828 0.139412 24.7602 0.0385805 24.1855C-0.0622511 23.6109 0.0359584 23.0188 0.316822 22.508L0.967464 21.3298C1.09101 21.1091 1.15598 20.8601 1.15617 20.6068C1.15635 20.3536 1.09172 20.1046 0.96849 19.8836L0.316822 18.7064C0.0359584 18.1956 -0.0622511 17.6036 0.0385805 17.0289C0.139412 16.4543 0.433204 15.9316 0.870996 15.5481L1.88493 14.6647C2.07603 14.4996 2.22165 14.288 2.30774 14.0501C2.39383 13.8121 2.4175 13.5559 2.3765 13.3061L2.1651 11.9753C2.0756 11.3989 2.18516 10.8091 2.47566 10.3039C2.76617 9.79868 3.22011 9.40853 3.76194 9.19834L5.01396 8.71696C5.24995 8.62755 5.459 8.47873 5.62112 8.28466C5.78323 8.0906 5.89297 7.8578 5.93964 7.60884L6.19415 6.2853C6.30629 5.71271 6.61007 5.19597 7.05517 4.82092C7.50027 4.44586 8.05985 4.23508 8.64072 4.2237L9.98203 4.20205C10.2341 4.19901 10.4812 4.13093 10.6995 4.00439C10.9178 3.87786 11.1001 3.69712 11.2289 3.47946L11.9186 2.3229C12.2195 1.82435 12.6808 1.44399 13.2263 1.24456C13.7717 1.04512 14.3687 1.03857 14.9183 1.22613L16.1857 1.66628C16.4237 1.75071 16.6794 1.77201 16.9281 1.72813C17.1767 1.68425 17.4099 1.57668 17.605 1.4158L18.6456 0.566418C19.0979 0.199973 19.6614 0.00012207 20.2425 0.00012207C20.8235 0.00012207 21.3871 0.199973 21.8393 0.566418L22.8809 1.41477C23.076 1.57536 23.3089 1.68292 23.5572 1.72697C23.8056 1.77102 24.0612 1.75007 24.2992 1.66628L25.5666 1.22613C26.1162 1.03797 26.7133 1.04417 27.2589 1.24365C27.8045 1.44314 28.2658 1.82392 28.5664 2.3229L29.256 3.47946C29.3851 3.69707 29.5676 3.87775 29.7861 4.00427C30.0045 4.13078 30.2517 4.1989 30.5039 4.20205L31.8442 4.2237C32.4251 4.23508 32.9845 4.44586 33.4296 4.82092C33.8747 5.19597 34.1786 5.71272 34.2908 6.2853L34.5453 7.60884C34.5919 7.85766 34.7014 8.09023 34.8633 8.28428C35.0252 8.47832 35.2342 8.62734 35.4699 8.71696L36.724 9.19834C37.2658 9.40852 37.7197 9.79868 38.0102 10.3039C38.3007 10.8091 38.4104 11.3989 38.3209 11.9753L38.1094 13.3061C38.0685 13.5559 38.0921 13.8121 38.1782 14.0501C38.2643 14.288 38.4099 14.4996 38.601 14.6647L39.615 15.5481C40.0523 15.9317 40.3457 16.4541 40.4467 17.0284C40.5477 17.6027 40.4502 18.1945 40.1702 18.7054L39.5164 19.8836C39.3937 20.1049 39.3293 20.354 39.3295 20.6074C39.3297 20.8607 39.3944 21.1097 39.5175 21.3309L40.1691 22.508C40.4497 23.019 40.5476 23.611 40.4466 24.1857C40.3456 24.7603 40.0517 25.2828 39.6139 25.6664L38.601 26.5488C38.4098 26.714 38.2642 26.9259 38.1781 27.164C38.092 27.4021 38.0684 27.6584 38.1094 27.9084L38.3209 29.2381C38.4103 29.8147 38.3006 30.4047 38.0102 30.9101C37.7197 31.4154 37.2659 31.8057 36.724 32.0161L35.471 32.4975C35.235 32.5869 35.0258 32.7357 34.8637 32.9298C34.7016 33.1239 34.592 33.3567 34.5453 33.6056L34.2908 34.9281C34.1788 35.5008 33.875 36.0177 33.4299 36.3928C32.9847 36.7679 32.4251 36.9786 31.8442 36.9897L30.5039 37.0114C30.2517 37.0149 30.0045 37.0831 29.7861 37.2098C29.5676 37.3365 29.3851 37.5174 29.256 37.735L28.5664 38.8905C28.266 39.3897 27.8047 39.7706 27.2591 39.9703C26.7134 40.17 26.1163 40.1763 25.5666 39.9882L24.2982 39.547C24.0603 39.4632 23.805 39.4423 23.5567 39.4863C23.3085 39.5304 23.0758 39.6379 22.8809 39.7985L21.8383 40.6479C21.3873 41.0152 20.8241 41.2151 20.2435 41.2138ZM16.6752 38.408C17.256 38.4084 17.8187 38.6105 18.268 38.9801L19.3086 39.8274C19.5727 40.0424 19.9022 40.1598 20.2422 40.16C20.5822 40.1602 20.912 40.0431 21.1763 39.8284L22.219 38.9792C22.5522 38.7047 22.9501 38.5209 23.3744 38.4456C23.7988 38.3703 24.2353 38.4061 24.642 38.5493L25.9103 38.9905C26.2319 39.1003 26.5812 39.0965 26.9004 38.9797C27.2195 38.8629 27.4893 38.6402 27.6652 38.3483L28.3548 37.1928C28.5751 36.8205 28.887 36.5112 29.2604 36.2946C29.6338 36.078 30.0562 35.9614 30.4874 35.9558L31.8277 35.9342C32.1675 35.9279 32.495 35.8048 32.7554 35.5853C33.0157 35.3658 33.1932 35.0633 33.2582 34.7282L33.5128 33.4057C33.593 32.9802 33.7809 32.5826 34.0582 32.251C34.3355 31.9194 34.6929 31.665 35.0963 31.5121L36.3483 31.0307C36.6654 30.9076 36.931 30.6792 37.1009 30.3835C37.2708 30.0877 37.3347 29.7425 37.2822 29.4051L37.0708 28.0754C37.0011 27.6479 37.042 27.2096 37.1895 26.8026C37.3371 26.3956 37.5863 26.0334 37.9133 25.7509L38.9262 24.8686C39.1822 24.644 39.354 24.3381 39.413 24.0019C39.472 23.6657 39.4146 23.3193 39.2505 23.0203L38.5988 21.8432C38.3885 21.4655 38.2779 21.0401 38.2778 20.6074C38.2776 20.1746 38.3878 19.7491 38.5978 19.3713L39.2515 18.1931C39.4152 17.8941 39.4722 17.5479 39.413 17.2119C39.3539 16.8759 39.182 16.5704 38.9262 16.3459L37.9123 15.4625C37.5859 15.1798 37.3371 14.8177 37.1898 14.411C37.0425 14.0042 37.0015 13.5663 37.0708 13.1391L37.2822 11.8083C37.3349 11.4711 37.271 11.126 37.101 10.8304C36.9311 10.5347 36.6654 10.3065 36.3483 10.1838L35.0952 9.7024C34.6921 9.5493 34.3349 9.29476 34.0578 8.96319C33.7807 8.63162 33.593 8.23415 33.5128 7.80882L33.2582 6.48527C33.1928 6.15035 33.0151 5.84797 32.7549 5.62855C32.4946 5.40912 32.1674 5.28588 31.8277 5.27924L30.4874 5.25759C30.0563 5.25202 29.634 5.13549 29.2606 4.9191C28.8872 4.70271 28.5753 4.3937 28.3548 4.02166L27.6652 2.8651C27.4895 2.57284 27.2195 2.34987 26.9 2.23322C26.5805 2.11657 26.2308 2.11327 25.9093 2.22394L24.6419 2.6641C24.235 2.80693 23.7984 2.84244 23.3739 2.76718C22.9495 2.69191 22.5514 2.50839 22.2179 2.23425L21.1762 1.38487C20.911 1.1716 20.5814 1.05547 20.2417 1.05566C19.902 1.05585 19.5724 1.17233 19.3074 1.3859L18.2678 2.23425C17.9341 2.50852 17.5359 2.69204 17.1112 2.76731C16.6866 2.84257 16.2498 2.80707 15.8428 2.6641L14.5754 2.22394C14.2537 2.11352 13.9041 2.11704 13.5847 2.23387C13.2652 2.3507 12.9952 2.5738 12.8195 2.86613L12.1298 4.02166C11.9098 4.39392 11.5982 4.70305 11.2249 4.91949C10.8517 5.13592 10.4293 5.25239 9.99832 5.25759L8.65701 5.27924C8.31728 5.28588 7.99008 5.40912 7.7298 5.62855C7.46952 5.84797 7.29185 6.15035 7.22642 6.48527L6.97192 7.80882C6.89163 8.23429 6.70388 8.63186 6.42659 8.96344C6.1493 9.29503 5.79178 9.54951 5.38841 9.7024L4.13742 10.1838C3.82023 10.3064 3.55449 10.5346 3.38454 10.8302C3.21458 11.1259 3.1507 11.4711 3.20353 11.8083L3.41494 13.1391C3.48424 13.5664 3.44316 14.0044 3.29564 14.4112C3.14811 14.818 2.89908 15.1801 2.57239 15.4625L1.55845 16.3459C1.3026 16.5704 1.13088 16.876 1.07188 17.212C1.01289 17.5481 1.07017 17.8943 1.23416 18.1931L1.88583 19.3703C2.09677 19.7479 2.20756 20.1737 2.20756 20.6067C2.20756 21.0397 2.09677 21.4655 1.88583 21.8432L1.23519 23.0214C1.0708 23.32 1.01319 23.6662 1.07201 24.0023C1.13083 24.3384 1.30253 24.6441 1.55845 24.8686L2.57239 25.7509C2.89937 26.0334 3.14861 26.3956 3.29615 26.8026C3.44369 27.2096 3.48458 27.6479 3.41494 28.0754L3.20353 29.4051C3.15082 29.7425 3.21474 30.0877 3.38466 30.3835C3.55458 30.6792 3.82025 30.9077 4.13742 31.0307L5.38944 31.5121C5.79257 31.6652 6.14976 31.9197 6.42685 32.2513C6.70394 32.5828 6.89166 32.9803 6.97192 33.4057L7.22642 34.7282C7.2915 35.0633 7.46906 35.3658 7.72941 35.5853C7.98977 35.8048 8.31717 35.9279 8.65701 35.9342L9.99832 35.9558C10.4293 35.9614 10.8517 36.078 11.2249 36.2946C11.5982 36.5112 11.9098 36.8205 12.1298 37.1928L12.8195 38.3483C12.9956 38.6403 13.2656 38.8631 13.5849 38.9798C13.9042 39.0966 14.2537 39.1004 14.5754 38.9905L15.8418 38.5492C16.1098 38.456 16.3916 38.4083 16.6752 38.408Z" fill="#2B2B2B"/>
<path d="M20.2426 34.8285C28.0622 34.8285 34.4013 28.4613 34.4013 20.6071C34.4013 12.7528 28.0622 6.38562 20.2426 6.38562C12.423 6.38562 6.08398 12.7528 6.08398 20.6071C6.08398 28.4613 12.423 34.8285 20.2426 34.8285Z" fill="#D6EDFF"/>
<path d="M20.2422 35.3558C17.338 35.3557 14.4989 34.4906 12.0842 32.8699C9.66945 31.2491 7.78742 28.9456 6.67611 26.2505C5.5648 23.5554 5.27418 20.5898 5.84087 17.7287C6.40756 14.8677 7.80611 12.2396 9.85979 10.177C11.9135 8.11432 14.53 6.70974 17.3785 6.14074C20.2269 5.57173 23.1793 5.8639 25.8625 6.98032C28.5456 8.09675 30.8388 9.98722 32.4523 12.4128C34.0657 14.8383 34.9269 17.69 34.9268 20.6071C34.9222 24.5175 33.3736 28.2664 30.6207 31.0313C27.8677 33.7963 24.1353 35.3515 20.2422 35.3558ZM20.2422 6.91293C17.5459 6.91304 14.91 7.71631 12.6681 9.22103C10.4262 10.7257 8.679 12.8644 7.6472 15.3665C6.61539 17.8687 6.34542 20.622 6.87148 23.2783C7.39754 25.9346 8.69593 28.3745 10.6025 30.2895C12.5091 32.2046 14.9383 33.5088 17.5828 34.0371C20.2274 34.5655 22.9685 34.2944 25.4597 33.258C27.9508 32.2216 30.08 30.4665 31.578 28.2147C33.0761 25.9628 33.8758 23.3154 33.8759 20.6071C33.8719 16.9764 32.4341 13.4956 29.8782 10.9283C27.3222 8.361 23.8569 6.91695 20.2422 6.91293Z" fill="#2B2B2B"/>
<path d="M20.7378 11.9678L22.9774 16.6667C23.0168 16.7494 23.0762 16.821 23.15 16.8749C23.2239 16.9288 23.3099 16.9633 23.4004 16.9754L28.5417 17.6628C28.6444 17.6766 28.7412 17.7191 28.8208 17.7858C28.9005 17.8524 28.9597 17.9403 28.9917 18.0393C29.0237 18.1383 29.0273 18.2444 29.0018 18.3453C28.9764 18.4463 28.9231 18.538 28.848 18.6097L25.0909 22.2011C25.0248 22.2643 24.9753 22.3432 24.9471 22.4304C24.9189 22.5176 24.9128 22.6105 24.9293 22.7007L25.8671 27.8243C25.8859 27.9267 25.8755 28.0324 25.837 28.1291C25.7985 28.2257 25.7336 28.3095 25.6497 28.3707C25.5659 28.4318 25.4666 28.468 25.3631 28.4749C25.2597 28.4818 25.1564 28.4591 25.0653 28.4096L20.5037 25.9304C20.4234 25.8867 20.3336 25.8639 20.2423 25.8639C20.151 25.8639 20.061 25.8867 19.9807 25.9304L15.4192 28.4096C15.328 28.4591 15.2247 28.4818 15.1213 28.4749C15.0179 28.468 14.9186 28.4318 14.8347 28.3707C14.7509 28.3095 14.6859 28.2257 14.6474 28.1291C14.609 28.0324 14.5985 27.9267 14.6173 27.8243L15.5551 22.7007C15.5717 22.6105 15.5655 22.5176 15.5373 22.4304C15.5091 22.3432 15.4597 22.2643 15.3935 22.2011L11.6364 18.6097C11.5613 18.538 11.508 18.4463 11.4826 18.3453C11.4572 18.2444 11.4607 18.1383 11.4927 18.0393C11.5248 17.9403 11.584 17.8525 11.6636 17.7859C11.7433 17.7193 11.84 17.6766 11.9428 17.6628L17.084 16.9754C17.1745 16.9633 17.2605 16.9288 17.3344 16.8749C17.4083 16.821 17.4676 16.7494 17.5071 16.6667L19.7466 11.9678C19.7914 11.8739 19.8616 11.7947 19.9493 11.7392C20.037 11.6837 20.1386 11.6543 20.2423 11.6543C20.3459 11.6543 20.4475 11.6837 20.5351 11.7392C20.6228 11.7947 20.6931 11.8739 20.7378 11.9678Z" fill="#FFAA4D"/>
</g>
<defs>
<clipPath id="clip0_1077_3306">
<rect width="40.4861" height="53" fill="white"/>
</clipPath>
</defs>
</svg>
