<svg width="186" height="321" viewBox="0 0 186 321" fill="none" xmlns="http://www.w3.org/2000/svg">
<path d="M42.947 27.5307H27.3383C27.2473 27.5308 27.1572 27.5129 27.0731 27.4781C26.989 27.4433 26.9127 27.3923 26.8483 27.3279C26.784 27.2636 26.7329 27.1872 26.6981 27.1031C26.6633 27.019 26.6455 26.9289 26.6455 26.8379V23.3184C26.6457 21.7614 27.1163 20.2408 27.9957 18.9559C28.8751 17.6711 30.1223 16.6819 31.5737 16.1182C30.8907 15.4165 30.4297 14.5289 30.2484 13.5666C30.0671 12.6042 30.1735 11.6098 30.5544 10.7076C30.9352 9.80539 31.5737 9.0355 32.3898 8.49419C33.2058 7.95289 34.1634 7.6642 35.1427 7.6642C36.122 7.6642 37.0795 7.95289 37.8956 8.49419C38.7117 9.0355 39.35 9.80539 39.7309 10.7076C40.1118 11.6098 40.2182 12.6042 40.0369 13.5666C39.8556 14.5289 39.3947 15.4165 38.7116 16.1182C40.1631 16.6819 41.4102 17.671 42.2896 18.9559C43.1691 20.2407 43.6398 21.7614 43.6398 23.3184V26.8379C43.6399 26.9289 43.622 27.019 43.5872 27.1031C43.5524 27.1872 43.5014 27.2636 43.437 27.3279C43.3727 27.3923 43.2962 27.4433 43.2122 27.4781C43.1281 27.5129 43.038 27.5308 42.947 27.5307ZM28.0311 26.1451H42.2542V23.3184C42.2543 21.8387 41.7364 20.4057 40.7905 19.2678C39.8446 18.1299 38.5304 17.3588 37.0757 17.0884C36.9353 17.0624 36.8063 16.9937 36.7065 16.8916C36.6067 16.7895 36.5409 16.659 36.5181 16.5181C36.4953 16.3771 36.5166 16.2326 36.5791 16.1042C36.6416 15.9758 36.7423 15.8699 36.8673 15.8009C37.5678 15.418 38.1209 14.8127 38.4392 14.0806C38.7576 13.3485 38.8232 12.5312 38.6255 11.7577C38.4279 10.9842 37.9784 10.2984 37.3478 9.80874C36.7173 9.31905 35.9417 9.05326 35.1434 9.05326C34.345 9.05326 33.5693 9.31905 32.9388 9.80874C32.3083 10.2984 31.8587 10.9842 31.6611 11.7577C31.4635 12.5312 31.529 13.3485 31.8474 14.0806C32.1658 14.8127 32.7189 15.418 33.4194 15.8009C33.5442 15.8702 33.6445 15.9762 33.7067 16.1047C33.769 16.2331 33.79 16.3776 33.7671 16.5184C33.7442 16.6593 33.6783 16.7896 33.5785 16.8916C33.4787 16.9936 33.35 17.0624 33.2097 17.0884C31.755 17.3589 30.4407 18.13 29.4948 19.2679C28.549 20.4058 28.0312 21.8387 28.0311 23.3184V26.1451Z" fill="black"/>
<path d="M46.8107 48H18.3159C18.2249 48 18.1347 47.9822 18.0506 47.9474C17.9666 47.9126 17.8902 47.8615 17.8259 47.7972C17.7615 47.7328 17.7105 47.6565 17.6757 47.5724C17.6409 47.4883 17.623 47.3982 17.623 47.3072V2.69282C17.623 2.60182 17.6409 2.51172 17.6757 2.42764C17.7105 2.34356 17.7615 2.26715 17.8259 2.2028C17.8902 2.13846 17.9666 2.08745 18.0506 2.05265C18.1347 2.01785 18.2249 1.99995 18.3159 2H51.9703C52.0613 1.99995 52.1514 2.01785 52.2354 2.05265C52.3195 2.08745 52.396 2.13846 52.4603 2.2028C52.5247 2.26715 52.5756 2.34356 52.6104 2.42764C52.6452 2.51172 52.6632 2.60182 52.6631 2.69282V40.7599C52.6629 40.9155 52.6105 41.0666 52.5143 41.1889L47.3546 47.7361C47.2898 47.8184 47.2072 47.8849 47.113 47.9306C47.0188 47.9763 46.9154 48 46.8107 48ZM19.0087 46.6144H46.4751L51.2775 40.5197V3.38564H19.0087V46.6144Z" fill="black"/>
<path d="M46.4253 33.2202H23.8627C23.679 33.2202 23.5027 33.1472 23.3728 33.0173C23.2429 32.8873 23.1699 32.7111 23.1699 32.5273C23.1699 32.3436 23.2429 32.1673 23.3728 32.0374C23.5027 31.9075 23.679 31.8345 23.8627 31.8345H46.4253C46.6091 31.8345 46.7853 31.9075 46.9153 32.0374C47.0452 32.1673 47.1181 32.3436 47.1181 32.5273C47.1181 32.7111 47.0452 32.8873 46.9153 33.0173C46.7853 33.1472 46.6091 33.2202 46.4253 33.2202Z" fill="black"/>
<path d="M42.2653 38.766H28.0219C27.8382 38.766 27.6619 38.693 27.532 38.5631C27.4021 38.4332 27.3291 38.2569 27.3291 38.0732C27.3291 37.8894 27.4021 37.7132 27.532 37.5832C27.6619 37.4533 27.8382 37.3804 28.0219 37.3804H42.2653C42.449 37.3804 42.6252 37.4533 42.7551 37.5832C42.8851 37.7132 42.9581 37.8894 42.9581 38.0732C42.9581 38.2569 42.8851 38.4332 42.7551 38.5631C42.6252 38.693 42.449 38.766 42.2653 38.766Z" fill="black"/>
<path d="M46.4252 48C46.3342 48.0001 46.2442 47.9822 46.1601 47.9474C46.076 47.9126 45.9996 47.8616 45.9352 47.7972C45.8709 47.7329 45.8199 47.6565 45.7851 47.5724C45.7503 47.4883 45.7324 47.3982 45.7324 47.3072V40.7599C45.7324 40.6689 45.7503 40.5788 45.7851 40.4947C45.8199 40.4106 45.8709 40.3343 45.9352 40.2699C45.9996 40.2056 46.076 40.1545 46.1601 40.1197C46.2442 40.0849 46.3342 40.0671 46.4252 40.0671H51.9705C52.1542 40.0671 52.3305 40.1401 52.4604 40.27C52.5903 40.3999 52.6633 40.5762 52.6633 40.7599C52.6633 40.9437 52.5903 41.1199 52.4604 41.2499C52.3305 41.3798 52.1542 41.4528 51.9705 41.4528H47.1181V47.3072C47.1181 47.3982 47.1003 47.4883 47.0655 47.5724C47.0307 47.6565 46.9796 47.7329 46.9153 47.7972C46.8509 47.8616 46.7745 47.9126 46.6905 47.9474C46.6064 47.9822 46.5162 48.0001 46.4252 48Z" fill="black"/>
<path d="M23.8619 15.9561L13.8022 6.91342V11.4347H3.5V20.4788H13.8022V25.0001L23.8619 15.9561Z" fill="#F36D20"/>
<path d="M107.04 35H85.8V31.04L96.6 20.84C98.44 19.16 99.88 17.48 99.88 15.52C99.88 13.2 98.2 11.72 96.08 11.72C94.08 11.72 92.68 13.12 92.04 14.52L86.08 12.48C87.24 8.36 91.32 5.24 96.04 5.24C101.76 5.24 106.36 9.16 106.36 15.56C106.36 19.24 103.72 22.32 101 24.92L96.24 28.96H107.04V35ZM121.752 35.52C115.032 35.52 110.192 29.92 110.192 20.4C110.192 10.92 115.032 5.36 121.752 5.36C128.472 5.36 133.312 10.92 133.312 20.4C133.312 29.92 128.472 35.52 121.752 35.52ZM121.752 29C124.472 29 126.712 26.6 126.712 20.36C126.712 14.28 124.472 11.88 121.752 11.88C118.992 11.88 116.792 14.28 116.792 20.36C116.792 26.6 118.992 29 121.752 29ZM146.285 35H139.805V11.84H135.805V5.8H146.285V35Z" fill="#F36D20"/>
<path d="M87.59 55H86.148V44.78H90.026C92.098 44.78 93.47 46.222 93.47 47.986C93.47 49.764 92.098 51.206 90.026 51.206H87.59V55ZM87.59 46.194V49.792H89.998C91.23 49.792 91.986 48.966 91.986 47.986C91.986 47.034 91.23 46.194 89.998 46.194H87.59ZM96.3074 55H94.9494V47.3H96.2094L96.2934 48.56C96.7414 47.734 97.6094 47.244 98.7434 47.258C98.9394 47.258 99.1354 47.272 99.3174 47.3L99.0374 48.616C98.9534 48.602 98.8554 48.588 98.7714 48.588C97.4694 48.588 96.3074 49.316 96.3074 51.444V55ZM103.699 55.112C101.515 55.112 99.7511 53.32 99.7511 51.136C99.7511 48.966 101.515 47.202 103.699 47.202C105.869 47.202 107.647 48.966 107.647 51.136C107.647 53.32 105.869 55.112 103.699 55.112ZM103.699 53.712C105.113 53.712 106.261 52.564 106.261 51.136C106.261 49.736 105.113 48.588 103.699 48.588C102.271 48.588 101.137 49.736 101.137 51.136C101.137 52.564 102.271 53.712 103.699 53.712ZM110.458 58.08H109.1V47.3H110.36L110.43 48.896C110.892 47.944 112.026 47.202 113.286 47.202C115.358 47.202 117.038 48.966 117.038 51.136C117.038 53.32 115.358 55.112 113.286 55.112C112.04 55.112 110.92 54.37 110.458 53.418V58.08ZM113.076 53.754C114.504 53.754 115.666 52.578 115.666 51.136C115.666 49.708 114.504 48.546 113.076 48.546C111.62 48.546 110.458 49.708 110.458 51.136C110.458 52.578 111.62 53.754 113.076 53.754ZM122.074 55.112C119.89 55.112 118.126 53.32 118.126 51.136C118.126 48.966 119.89 47.202 122.074 47.202C124.244 47.202 126.022 48.966 126.022 51.136C126.022 53.32 124.244 55.112 122.074 55.112ZM122.074 53.712C123.488 53.712 124.636 52.564 124.636 51.136C124.636 49.736 123.488 48.588 122.074 48.588C120.646 48.588 119.512 49.736 119.512 51.136C119.512 52.564 120.646 53.712 122.074 53.712ZM130.335 55.14C129.229 55.14 127.801 54.776 126.905 53.796L127.843 52.9C128.361 53.474 129.369 53.852 130.335 53.852C131.343 53.852 132.043 53.46 132.043 52.788C132.043 51.206 127.171 52.172 127.171 49.316C127.171 48.056 128.319 47.174 130.083 47.174C131.077 47.174 132.337 47.44 133.177 48.448L132.337 49.288C131.805 48.644 130.839 48.406 130.125 48.406C129.201 48.406 128.543 48.742 128.543 49.33C128.543 50.73 133.415 49.862 133.415 52.746C133.415 54.398 131.945 55.14 130.335 55.14ZM138.093 55.098C136.021 55.098 134.341 53.32 134.341 51.15C134.341 48.966 136.021 47.188 138.093 47.188C139.353 47.188 140.487 47.944 140.963 48.924L141.033 47.3H142.293V55H141.033L140.963 53.39C140.487 54.356 139.353 55.098 138.093 55.098ZM138.317 53.74C139.759 53.74 140.921 52.578 140.921 51.15C140.921 49.708 139.759 48.532 138.317 48.532C136.889 48.532 135.727 49.708 135.727 51.15C135.727 52.578 136.889 53.74 138.317 53.74ZM145.649 55H144.291V44.08H145.649V55ZM150.692 55.14C149.586 55.14 148.158 54.776 147.262 53.796L148.2 52.9C148.718 53.474 149.726 53.852 150.692 53.852C151.7 53.852 152.4 53.46 152.4 52.788C152.4 51.206 147.528 52.172 147.528 49.316C147.528 48.056 148.676 47.174 150.44 47.174C151.434 47.174 152.694 47.44 153.534 48.448L152.694 49.288C152.162 48.644 151.196 48.406 150.482 48.406C149.558 48.406 148.9 48.742 148.9 49.33C148.9 50.73 153.772 49.862 153.772 52.746C153.772 54.398 152.302 55.14 150.692 55.14ZM87.59 73H86.148V62.78H90.026C92.098 62.78 93.47 64.222 93.47 65.986C93.47 67.414 92.532 68.618 91.132 68.954L93.638 73H91.958L89.634 69.206H87.59V73ZM87.59 64.194V67.792H89.998C91.23 67.792 91.986 66.966 91.986 65.986C91.986 65.034 91.23 64.194 89.998 64.194H87.59ZM98.3293 73.112C95.9913 73.112 94.2413 71.32 94.2413 69.136C94.2413 66.966 95.9913 65.202 98.1473 65.202C100.387 65.202 102.053 66.966 102.053 69.136C102.053 69.318 102.025 69.584 102.011 69.78H95.7113C95.9213 70.942 96.9993 71.824 98.3293 71.824C99.2813 71.824 100.037 71.432 100.527 70.83L101.633 71.516C100.905 72.482 99.6313 73.112 98.3293 73.112ZM95.6973 68.66H100.639C100.569 67.47 99.5753 66.476 98.1613 66.476C96.8033 66.476 95.7813 67.47 95.6973 68.66ZM107.076 73.112C104.892 73.112 103.128 71.32 103.128 69.136C103.128 66.966 104.892 65.202 107.076 65.202C108.406 65.202 109.582 65.86 110.31 66.868L109.176 67.624C108.7 66.994 107.93 66.588 107.076 66.588C105.648 66.588 104.514 67.736 104.514 69.136C104.514 70.564 105.648 71.712 107.076 71.712C107.958 71.712 108.742 71.278 109.204 70.606L110.338 71.362C109.638 72.412 108.434 73.112 107.076 73.112ZM115.378 73.112C113.04 73.112 111.29 71.32 111.29 69.136C111.29 66.966 113.04 65.202 115.196 65.202C117.436 65.202 119.102 66.966 119.102 69.136C119.102 69.318 119.074 69.584 119.06 69.78H112.76C112.97 70.942 114.048 71.824 115.378 71.824C116.33 71.824 117.086 71.432 117.576 70.83L118.682 71.516C117.954 72.482 116.68 73.112 115.378 73.112ZM112.746 68.66H117.688C117.618 67.47 116.624 66.476 115.21 66.476C113.852 66.476 112.83 67.47 112.746 68.66ZM121.325 64.516C120.849 64.516 120.457 64.124 120.457 63.648C120.457 63.172 120.849 62.78 121.325 62.78C121.787 62.78 122.179 63.172 122.179 63.648C122.179 64.124 121.787 64.516 121.325 64.516ZM121.997 73H120.639V65.3H121.997V73ZM127.558 73H126.2L123.176 65.3H124.646L126.886 70.956L129.112 65.3H130.582L127.558 73ZM134.984 73.112C132.646 73.112 130.896 71.32 130.896 69.136C130.896 66.966 132.646 65.202 134.802 65.202C137.042 65.202 138.708 66.966 138.708 69.136C138.708 69.318 138.68 69.584 138.666 69.78H132.366C132.576 70.942 133.654 71.824 134.984 71.824C135.936 71.824 136.692 71.432 137.182 70.83L138.288 71.516C137.56 72.482 136.286 73.112 134.984 73.112ZM132.352 68.66H137.294C137.224 67.47 136.23 66.476 134.816 66.476C133.458 66.476 132.436 67.47 132.352 68.66ZM143.534 73.098C141.462 73.098 139.782 71.32 139.782 69.15C139.782 66.966 141.462 65.188 143.534 65.188C144.78 65.188 145.9 65.916 146.362 66.882V62.08H147.734V73H146.474L146.404 71.39C145.928 72.356 144.794 73.098 143.534 73.098ZM143.758 71.74C145.2 71.74 146.362 70.578 146.362 69.15C146.362 67.708 145.2 66.532 143.758 66.532C142.33 66.532 141.168 67.708 141.168 69.15C141.168 70.578 142.33 71.74 143.758 71.74Z" fill="black"/>
<path d="M42.824 114.531H27.2153C27.1243 114.531 27.0341 114.513 26.9501 114.478C26.866 114.443 26.7896 114.392 26.7253 114.328C26.6609 114.264 26.6099 114.187 26.5751 114.103C26.5403 114.019 26.5224 113.929 26.5225 113.838V110.319C26.5227 108.762 26.9934 107.241 27.8728 105.956C28.7522 104.671 29.9993 103.682 31.4507 103.118C30.7676 102.416 30.3066 101.529 30.1253 100.566C29.944 99.6041 30.0505 98.6097 30.4314 97.7075C30.8123 96.8053 31.4506 96.0354 32.2667 95.4941C33.0828 94.9528 34.0403 94.6641 35.0196 94.6641C35.9989 94.6641 36.9565 94.9528 37.7725 95.4941C38.5886 96.0354 39.2271 96.8053 39.6079 97.7075C39.9888 98.6097 40.0952 99.6041 39.9139 100.566C39.7326 101.529 39.2716 102.416 38.5886 103.118C40.0399 103.682 41.2871 104.671 42.1665 105.956C43.0459 107.241 43.5165 108.762 43.5168 110.319V113.838C43.5168 113.929 43.499 114.019 43.4642 114.103C43.4294 114.187 43.3783 114.264 43.314 114.328C43.2496 114.392 43.1733 114.443 43.0892 114.478C43.0051 114.513 42.915 114.531 42.824 114.531ZM27.9081 113.145H42.1312V110.319C42.1311 108.839 41.6133 107.406 40.6675 106.268C39.7216 105.13 38.4074 104.359 36.9526 104.088C36.8122 104.062 36.6833 103.994 36.5835 103.892C36.4837 103.789 36.4179 103.659 36.3951 103.518C36.3723 103.377 36.3936 103.233 36.4561 103.104C36.5186 102.976 36.6192 102.87 36.7442 102.801C37.4448 102.418 37.9978 101.813 38.3162 101.08C38.6346 100.348 38.7001 99.5311 38.5025 98.7576C38.3049 97.9841 37.8554 97.2983 37.2249 96.8086C36.5943 96.3189 35.8187 96.0532 35.0203 96.0532C34.2219 96.0532 33.4463 96.3189 32.8158 96.8086C32.1852 97.2983 31.7357 97.9841 31.5381 98.7576C31.3405 99.5311 31.4061 100.348 31.7244 101.08C32.0428 101.813 32.5959 102.418 33.2964 102.801C33.4211 102.87 33.5215 102.976 33.5838 103.105C33.646 103.233 33.6671 103.378 33.6441 103.518C33.6212 103.659 33.5553 103.789 33.4555 103.892C33.3558 103.994 33.2269 104.062 33.0866 104.088C31.632 104.359 30.3178 105.13 29.372 106.268C28.4262 107.406 27.9083 108.839 27.9081 110.319V113.145Z" fill="black"/>
<path d="M46.6877 135H18.1928C18.1018 135 18.0117 134.982 17.9276 134.947C17.8435 134.913 17.7671 134.862 17.7028 134.797C17.6385 134.733 17.5874 134.656 17.5526 134.572C17.5178 134.488 17.4999 134.398 17.5 134.307V89.6928C17.4999 89.6018 17.5178 89.5117 17.5526 89.4276C17.5874 89.3435 17.6385 89.2671 17.7028 89.2028C17.7671 89.1385 17.8435 89.0874 17.9276 89.0526C18.0117 89.0178 18.1018 88.9999 18.1928 89H51.8473C51.9383 88.9999 52.0284 89.0178 52.1125 89.0526C52.1966 89.0874 52.2729 89.1385 52.3373 89.2028C52.4016 89.2671 52.4527 89.3435 52.4875 89.4276C52.5223 89.5117 52.5401 89.6018 52.5401 89.6928V127.761C52.5399 127.916 52.4875 128.067 52.3912 128.19L47.2316 134.736C47.1668 134.818 47.0841 134.885 46.9899 134.931C46.8957 134.976 46.7924 135 46.6877 135ZM18.8856 133.614H46.3522L51.1545 127.52V90.3856H18.8856V133.614Z" fill="black"/>
<path d="M46.3023 120.22H23.7397C23.5559 120.22 23.3797 120.147 23.2498 120.017C23.1198 119.887 23.0469 119.711 23.0469 119.527C23.0469 119.344 23.1198 119.167 23.2498 119.037C23.3797 118.908 23.5559 118.835 23.7397 118.835H46.3023C46.486 118.835 46.6623 118.908 46.7922 119.037C46.9221 119.167 46.9951 119.344 46.9951 119.527C46.9951 119.711 46.9221 119.887 46.7922 120.017C46.6623 120.147 46.486 120.22 46.3023 120.22Z" fill="black"/>
<path d="M42.1422 125.766H27.8989C27.7151 125.766 27.5389 125.693 27.4089 125.563C27.279 125.433 27.2061 125.257 27.2061 125.073C27.2061 124.889 27.279 124.713 27.4089 124.583C27.5389 124.453 27.7151 124.38 27.8989 124.38H42.1422C42.326 124.38 42.5022 124.453 42.6322 124.583C42.7621 124.713 42.8351 124.889 42.8351 125.073C42.8351 125.257 42.7621 125.433 42.6322 125.563C42.5022 125.693 42.326 125.766 42.1422 125.766Z" fill="black"/>
<path d="M46.3022 135C46.2112 135 46.1211 134.982 46.037 134.947C45.9529 134.913 45.8765 134.862 45.8122 134.797C45.7478 134.733 45.6968 134.657 45.662 134.572C45.6272 134.488 45.6093 134.398 45.6094 134.307V127.761C45.6093 127.67 45.6272 127.579 45.662 127.495C45.6968 127.411 45.7478 127.335 45.8122 127.271C45.8765 127.206 45.9529 127.155 46.037 127.12C46.1211 127.086 46.2112 127.068 46.3022 127.068H51.8475C52.0313 127.068 52.2074 127.141 52.3374 127.271C52.4673 127.401 52.5403 127.577 52.5403 127.761C52.5403 127.944 52.4673 128.121 52.3374 128.251C52.2074 128.38 52.0313 128.453 51.8475 128.453H46.995V134.307C46.9951 134.398 46.9772 134.488 46.9424 134.572C46.9076 134.657 46.8566 134.733 46.7922 134.797C46.7279 134.862 46.6515 134.913 46.5674 134.947C46.4833 134.982 46.3932 135 46.3022 135Z" fill="black"/>
<path d="M57.3219 113.627C63.2145 113.627 67.9914 108.85 67.9914 102.957C67.9914 97.0645 63.2145 92.2876 57.3219 92.2876C51.4292 92.2876 46.6523 97.0645 46.6523 102.957C46.6523 108.85 51.4292 113.627 57.3219 113.627Z" fill="#F36D20"/>
<path d="M56.1276 107.792V107.792L56.1333 107.792L56.1658 107.791L56.1658 107.791L56.1727 107.791C56.3126 107.784 56.4491 107.746 56.5725 107.68L56.4546 107.46L56.5725 107.68C56.6959 107.614 56.8032 107.522 56.8865 107.409L56.8867 107.409L62.6349 99.6254L62.7835 99.4242L62.5822 99.2757L61.4672 98.453L61.2661 98.3046L61.1177 98.5056L56.0583 105.356L53.4702 102.461L53.3036 102.275L53.1172 102.441L52.0834 103.366L51.897 103.532L52.0636 103.719L55.4249 107.478L55.4255 107.478C55.5141 107.577 55.6223 107.655 55.7433 107.709C55.8642 107.763 55.9952 107.791 56.1276 107.792Z" fill="white" stroke="white" stroke-width="0.5"/>
<path d="M97.16 122.4C92.48 122.4 88.52 119.76 87 115.76L93.24 113.48C93.8 114.92 95.48 115.92 97.28 115.92C99.6 115.92 101.52 114.16 101.52 111.8C101.52 109.44 99.64 107.68 97.36 107.68C96 107.68 94.68 108.32 93.92 109.32H87.44L88.6 92.8H106.92V98.84H94.68L94.4 103.04C95.4 102.32 97 101.76 98.4 101.76C104 101.76 108.08 105.96 108.08 111.96C108.08 118 103.16 122.4 97.16 122.4ZM120.761 122H114.281V98.84H110.281V92.8H120.761V122Z" fill="#F36D20"/>
<path d="M88.59 142H87.148V131.78H91.026C93.098 131.78 94.47 133.222 94.47 134.986C94.47 136.764 93.098 138.206 91.026 138.206H88.59V142ZM88.59 133.194V136.792H90.998C92.23 136.792 92.986 135.966 92.986 134.986C92.986 134.034 92.23 133.194 90.998 133.194H88.59ZM97.3074 142H95.9494V134.3H97.2094L97.2934 135.56C97.7414 134.734 98.6094 134.244 99.7434 134.258C99.9394 134.258 100.135 134.272 100.317 134.3L100.037 135.616C99.9534 135.602 99.8554 135.588 99.7714 135.588C98.4694 135.588 97.3074 136.316 97.3074 138.444V142ZM104.699 142.112C102.515 142.112 100.751 140.32 100.751 138.136C100.751 135.966 102.515 134.202 104.699 134.202C106.869 134.202 108.647 135.966 108.647 138.136C108.647 140.32 106.869 142.112 104.699 142.112ZM104.699 140.712C106.113 140.712 107.261 139.564 107.261 138.136C107.261 136.736 106.113 135.588 104.699 135.588C103.271 135.588 102.137 136.736 102.137 138.136C102.137 139.564 103.271 140.712 104.699 140.712ZM111.458 145.08H110.1V134.3H111.36L111.43 135.896C111.892 134.944 113.026 134.202 114.286 134.202C116.358 134.202 118.038 135.966 118.038 138.136C118.038 140.32 116.358 142.112 114.286 142.112C113.04 142.112 111.92 141.37 111.458 140.418V145.08ZM114.076 140.754C115.504 140.754 116.666 139.578 116.666 138.136C116.666 136.708 115.504 135.546 114.076 135.546C112.62 135.546 111.458 136.708 111.458 138.136C111.458 139.578 112.62 140.754 114.076 140.754ZM123.074 142.112C120.89 142.112 119.126 140.32 119.126 138.136C119.126 135.966 120.89 134.202 123.074 134.202C125.244 134.202 127.022 135.966 127.022 138.136C127.022 140.32 125.244 142.112 123.074 142.112ZM123.074 140.712C124.488 140.712 125.636 139.564 125.636 138.136C125.636 136.736 124.488 135.588 123.074 135.588C121.646 135.588 120.512 136.736 120.512 138.136C120.512 139.564 121.646 140.712 123.074 140.712ZM131.335 142.14C130.229 142.14 128.801 141.776 127.905 140.796L128.843 139.9C129.361 140.474 130.369 140.852 131.335 140.852C132.343 140.852 133.043 140.46 133.043 139.788C133.043 138.206 128.171 139.172 128.171 136.316C128.171 135.056 129.319 134.174 131.083 134.174C132.077 134.174 133.337 134.44 134.177 135.448L133.337 136.288C132.805 135.644 131.839 135.406 131.125 135.406C130.201 135.406 129.543 135.742 129.543 136.33C129.543 137.73 134.415 136.862 134.415 139.746C134.415 141.398 132.945 142.14 131.335 142.14ZM139.093 142.098C137.021 142.098 135.341 140.32 135.341 138.15C135.341 135.966 137.021 134.188 139.093 134.188C140.353 134.188 141.487 134.944 141.963 135.924L142.033 134.3H143.293V142H142.033L141.963 140.39C141.487 141.356 140.353 142.098 139.093 142.098ZM139.317 140.74C140.759 140.74 141.921 139.578 141.921 138.15C141.921 136.708 140.759 135.532 139.317 135.532C137.889 135.532 136.727 136.708 136.727 138.15C136.727 139.578 137.889 140.74 139.317 140.74ZM146.649 142H145.291V131.08H146.649V142ZM151.692 142.14C150.586 142.14 149.158 141.776 148.262 140.796L149.2 139.9C149.718 140.474 150.726 140.852 151.692 140.852C152.7 140.852 153.4 140.46 153.4 139.788C153.4 138.206 148.528 139.172 148.528 136.316C148.528 135.056 149.676 134.174 151.44 134.174C152.434 134.174 153.694 134.44 154.534 135.448L153.694 136.288C153.162 135.644 152.196 135.406 151.482 135.406C150.558 135.406 149.9 135.742 149.9 136.33C149.9 137.73 154.772 136.862 154.772 139.746C154.772 141.398 153.302 142.14 151.692 142.14ZM87.806 160H86.21L89.948 149.78H91.516L95.254 160H93.686L92.706 157.34H88.772L87.806 160ZM90.732 151.726L89.192 155.982H92.286L90.732 151.726ZM97.8269 163.08H96.4689V152.3H97.7289L97.7989 153.896C98.2609 152.944 99.3949 152.202 100.655 152.202C102.727 152.202 104.407 153.966 104.407 156.136C104.407 158.32 102.727 160.112 100.655 160.112C99.4089 160.112 98.2889 159.37 97.8269 158.418V163.08ZM100.445 158.754C101.873 158.754 103.035 157.578 103.035 156.136C103.035 154.708 101.873 153.546 100.445 153.546C98.9889 153.546 97.8269 154.708 97.8269 156.136C97.8269 157.578 98.9889 158.754 100.445 158.754ZM107.22 163.08H105.862V152.3H107.122L107.192 153.896C107.654 152.944 108.788 152.202 110.048 152.202C112.12 152.202 113.8 153.966 113.8 156.136C113.8 158.32 112.12 160.112 110.048 160.112C108.802 160.112 107.682 159.37 107.22 158.418V163.08ZM109.838 158.754C111.266 158.754 112.428 157.578 112.428 156.136C112.428 154.708 111.266 153.546 109.838 153.546C108.382 153.546 107.22 154.708 107.22 156.136C107.22 157.578 108.382 158.754 109.838 158.754ZM116.708 160H115.35V152.3H116.61L116.694 153.56C117.142 152.734 118.01 152.244 119.144 152.258C119.34 152.258 119.536 152.272 119.718 152.3L119.438 153.616C119.354 153.602 119.256 153.588 119.172 153.588C117.87 153.588 116.708 154.316 116.708 156.444V160ZM124.099 160.112C121.915 160.112 120.151 158.32 120.151 156.136C120.151 153.966 121.915 152.202 124.099 152.202C126.269 152.202 128.047 153.966 128.047 156.136C128.047 158.32 126.269 160.112 124.099 160.112ZM124.099 158.712C125.513 158.712 126.661 157.564 126.661 156.136C126.661 154.736 125.513 153.588 124.099 153.588C122.671 153.588 121.537 154.736 121.537 156.136C121.537 157.564 122.671 158.712 124.099 158.712ZM132.755 160H131.397L128.373 152.3H129.843L132.083 157.956L134.309 152.3H135.779L132.755 160ZM140.181 160.112C137.843 160.112 136.093 158.32 136.093 156.136C136.093 153.966 137.843 152.202 139.999 152.202C142.239 152.202 143.905 153.966 143.905 156.136C143.905 156.318 143.877 156.584 143.863 156.78H137.563C137.773 157.942 138.851 158.824 140.181 158.824C141.133 158.824 141.889 158.432 142.379 157.83L143.485 158.516C142.757 159.482 141.483 160.112 140.181 160.112ZM137.549 155.66H142.491C142.421 154.47 141.427 153.476 140.013 153.476C138.655 153.476 137.633 154.47 137.549 155.66ZM148.732 160.098C146.66 160.098 144.98 158.32 144.98 156.15C144.98 153.966 146.66 152.188 148.732 152.188C149.978 152.188 151.098 152.916 151.56 153.882V149.08H152.932V160H151.672L151.602 158.39C151.126 159.356 149.992 160.098 148.732 160.098ZM148.956 158.74C150.398 158.74 151.56 157.578 151.56 156.15C151.56 154.708 150.398 153.532 148.956 153.532C147.528 153.532 146.366 154.708 146.366 156.15C146.366 157.578 147.528 158.74 148.956 158.74Z" fill="black"/>
<path d="M18.1955 222C18.0111 222 17.8342 221.927 17.7038 221.796C17.5734 221.666 17.5001 221.489 17.5 221.305V176.695C17.4999 176.604 17.5179 176.514 17.5528 176.429C17.5877 176.345 17.639 176.268 17.7036 176.204C17.7682 176.139 17.8448 176.088 17.9293 176.053C18.0137 176.018 18.1041 176 18.1955 176H51.9815C52.0728 176 52.1632 176.018 52.2477 176.053C52.3321 176.088 52.4088 176.139 52.4734 176.204C52.538 176.268 52.5892 176.345 52.6241 176.429C52.659 176.514 52.677 176.604 52.677 176.695V218.6C52.6771 218.724 52.6441 218.845 52.5815 218.952C52.5189 219.058 52.4291 219.146 52.3211 219.206L47.4961 221.911C47.3921 221.969 47.2749 222 47.1558 222C47.0367 222 46.9194 221.969 46.8154 221.911L42.3382 219.397L37.8542 221.911C37.7504 221.969 37.6335 222 37.5146 222C37.3957 222 37.2787 221.969 37.175 221.911L32.6896 219.397L28.2028 221.911C28.0991 221.969 27.9822 222 27.8633 222C27.7444 222 27.6274 221.97 27.5236 221.912L23.03 219.397L18.5351 221.912C18.4313 221.97 18.3144 222 18.1955 222ZM23.03 217.904C23.1489 217.904 23.2658 217.935 23.3696 217.993L27.8631 220.507L32.35 217.993C32.4537 217.935 32.5707 217.905 32.6896 217.905C32.8085 217.905 32.9254 217.935 33.0292 217.993L37.5146 220.507L41.9987 217.993C42.1026 217.935 42.2198 217.905 42.3389 217.905C42.4581 217.905 42.5752 217.935 42.6792 217.993L47.1565 220.507L51.286 218.192V177.391H18.891V220.119L22.6903 217.993C22.7941 217.935 22.9111 217.904 23.03 217.904Z" fill="black"/>
<path d="M34.6891 203.607H24.0705C23.886 203.607 23.7091 203.533 23.5787 203.403C23.4482 203.273 23.375 203.096 23.375 202.911C23.375 202.727 23.4482 202.55 23.5787 202.419C23.7091 202.289 23.886 202.216 24.0705 202.216H34.6891C34.8735 202.216 35.0504 202.289 35.1808 202.419C35.3112 202.55 35.3846 202.727 35.3846 202.911C35.3846 203.096 35.3112 203.273 35.1808 203.403C35.0504 203.533 34.8735 203.607 34.6891 203.607Z" fill="black"/>
<path d="M46.1061 203.607H40.9279C40.7435 203.607 40.5665 203.533 40.4361 203.403C40.3057 203.273 40.2324 203.096 40.2324 202.911C40.2324 202.727 40.3057 202.55 40.4361 202.419C40.5665 202.289 40.7435 202.216 40.9279 202.216H46.1061C46.2906 202.216 46.4674 202.289 46.5979 202.419C46.7283 202.55 46.8016 202.727 46.8016 202.911C46.8016 203.096 46.7283 203.273 46.5979 203.403C46.4674 203.533 46.2906 203.607 46.1061 203.607Z" fill="black"/>
<path d="M34.6891 208.211H24.0705C23.886 208.211 23.7091 208.138 23.5787 208.007C23.4482 207.877 23.375 207.7 23.375 207.515C23.375 207.331 23.4482 207.154 23.5787 207.024C23.7091 206.893 23.886 206.82 24.0705 206.82H34.6891C34.8735 206.82 35.0504 206.893 35.1808 207.024C35.3112 207.154 35.3846 207.331 35.3846 207.515C35.3846 207.7 35.3112 207.877 35.1808 208.007C35.0504 208.138 34.8735 208.211 34.6891 208.211Z" fill="black"/>
<path d="M46.1061 208.211H40.9279C40.7435 208.211 40.5665 208.138 40.4361 208.007C40.3057 207.877 40.2324 207.7 40.2324 207.515C40.2324 207.331 40.3057 207.154 40.4361 207.024C40.5665 206.893 40.7435 206.82 40.9279 206.82H46.1061C46.2906 206.82 46.4674 206.893 46.5979 207.024C46.7283 207.154 46.8016 207.331 46.8016 207.515C46.8016 207.7 46.7283 207.877 46.5979 208.007C46.4674 208.138 46.2906 208.211 46.1061 208.211Z" fill="black"/>
<path d="M34.6891 212.815H24.0705C23.886 212.815 23.7091 212.742 23.5787 212.612C23.4482 212.481 23.375 212.304 23.375 212.12C23.375 211.935 23.4482 211.758 23.5787 211.628C23.7091 211.497 23.886 211.424 24.0705 211.424H34.6891C34.8735 211.424 35.0504 211.497 35.1808 211.628C35.3112 211.758 35.3846 211.935 35.3846 212.12C35.3846 212.304 35.3112 212.481 35.1808 212.612C35.0504 212.742 34.8735 212.815 34.6891 212.815Z" fill="black"/>
<path d="M46.1061 212.815H40.9279C40.7435 212.815 40.5665 212.742 40.4361 212.612C40.3057 212.481 40.2324 212.304 40.2324 212.12C40.2324 211.935 40.3057 211.758 40.4361 211.628C40.5665 211.497 40.7435 211.424 40.9279 211.424H46.1061C46.2906 211.424 46.4674 211.497 46.5979 211.628C46.7283 211.758 46.8016 211.935 46.8016 212.12C46.8016 212.304 46.7283 212.481 46.5979 212.612C46.4674 212.742 46.2906 212.815 46.1061 212.815Z" fill="black"/>
<path d="M57.4754 200.722C63.3908 200.722 68.1862 195.926 68.1862 190.011C68.1862 184.095 63.3908 179.3 57.4754 179.3C51.56 179.3 46.7646 184.095 46.7646 190.011C46.7646 195.926 51.56 200.722 57.4754 200.722Z" fill="#F36D20"/>
<path d="M56.2761 194.863L56.2761 194.863L56.8362 194.33L57.0373 194.479L57.0374 194.479L62.8091 186.666L62.9578 186.465L62.7565 186.316L61.6372 185.49L61.4361 185.342L61.2877 185.543L56.2065 192.42L53.609 189.514L53.4425 189.328L53.2561 189.495L52.2183 190.421L52.0316 190.588L52.1984 190.774L55.5713 194.547L55.5715 194.547C55.6603 194.646 55.7689 194.726 55.8902 194.78C56.0117 194.834 56.1432 194.862 56.2761 194.863Z" fill="white" stroke="white" stroke-width="0.5"/>
<path d="M27.6701 194.996C27.5788 194.996 27.4883 194.978 27.4039 194.943C27.3195 194.908 27.2428 194.857 27.1782 194.792C27.1136 194.728 27.0624 194.651 27.0274 194.567C26.9925 194.482 26.9746 194.392 26.9746 194.3V183.508C26.9746 183.323 27.0479 183.146 27.1783 183.016C27.3087 182.886 27.4857 182.812 27.6701 182.812C27.8546 182.812 28.0314 182.886 28.1618 183.016C28.2923 183.146 28.3656 183.323 28.3656 183.508V194.3C28.3657 194.392 28.3476 194.482 28.3127 194.567C28.2778 194.651 28.2266 194.728 28.162 194.792C28.0974 194.857 28.0207 194.908 27.9363 194.943C27.8519 194.978 27.7615 194.996 27.6701 194.996Z" fill="black"/>
<path d="M30.2076 189.6H27.6701C27.4856 189.6 27.3087 189.526 27.1783 189.396C27.0479 189.265 26.9746 189.089 26.9746 188.904C26.9746 188.72 27.0479 188.543 27.1783 188.412C27.3087 188.282 27.4856 188.209 27.6701 188.209H30.2076C30.392 188.209 30.5689 188.282 30.6993 188.412C30.8298 188.543 30.9031 188.72 30.9031 188.904C30.9031 189.089 30.8298 189.265 30.6993 189.396C30.5689 189.526 30.392 189.6 30.2076 189.6Z" fill="black"/>
<path d="M30.2076 189.6H27.6701C27.4856 189.6 27.3087 189.526 27.1783 189.396C27.0479 189.265 26.9746 189.089 26.9746 188.904C26.9746 188.72 27.0479 188.543 27.1783 188.412C27.3087 188.282 27.4856 188.209 27.6701 188.209H30.2076C30.392 188.209 30.5689 188.282 30.6993 188.412C30.8298 188.543 30.9031 188.72 30.9031 188.904C30.9031 189.089 30.8298 189.265 30.6993 189.396C30.5689 189.526 30.392 189.6 30.2076 189.6Z" fill="black"/>
<path d="M30.208 189.6C30.0836 189.6 29.9615 189.566 29.8545 189.503C29.7474 189.44 29.6593 189.349 29.5992 189.24C29.5392 189.131 29.5094 189.008 29.513 188.884C29.5166 188.759 29.5535 188.638 29.6198 188.533L33.0199 183.137C33.1185 182.982 33.2746 182.872 33.4542 182.831C33.6338 182.791 33.822 182.823 33.9777 182.921C34.1334 183.02 34.2438 183.176 34.2848 183.355C34.3257 183.534 34.2939 183.723 34.1962 183.879L30.7962 189.275C30.7337 189.374 30.6469 189.457 30.544 189.513C30.4411 189.57 30.3255 189.6 30.208 189.6Z" fill="black"/>
<path d="M33.6081 194.996C33.4906 194.996 33.3749 194.966 33.272 194.91C33.1691 194.853 33.0824 194.771 33.0199 194.671L29.6199 189.275C29.5215 189.119 29.4891 188.93 29.5299 188.75C29.5706 188.571 29.6811 188.414 29.8371 188.316C29.9931 188.218 30.1819 188.185 30.3617 188.226C30.5416 188.267 30.6979 188.377 30.7962 188.533L34.1963 193.93C34.2626 194.035 34.2994 194.156 34.303 194.28C34.3066 194.404 34.2768 194.527 34.2168 194.636C34.1567 194.745 34.0686 194.836 33.9616 194.899C33.8545 194.962 33.7325 194.996 33.6081 194.996Z" fill="black"/>
<path d="M39.7241 194.996H36.5685C36.4772 194.996 36.3867 194.978 36.3023 194.943C36.2179 194.908 36.1412 194.857 36.0766 194.792C36.012 194.728 35.9608 194.651 35.9259 194.567C35.8909 194.482 35.873 194.392 35.873 194.3V183.279C35.873 183.188 35.8909 183.097 35.9259 183.013C35.9608 182.928 36.012 182.852 36.0766 182.787C36.1412 182.722 36.2179 182.671 36.3023 182.636C36.3867 182.601 36.4772 182.583 36.5685 182.583H39.7241C40.6461 182.584 41.53 182.951 42.1819 183.603C42.8339 184.255 43.2006 185.139 43.2016 186.061V191.518C43.2006 192.44 42.8339 193.324 42.1819 193.976C41.53 194.628 40.6461 194.995 39.7241 194.996ZM37.264 193.605H39.7241C40.2773 193.604 40.8076 193.384 41.1988 192.993C41.59 192.602 41.81 192.071 41.8106 191.518V186.061C41.81 185.508 41.59 184.977 41.1988 184.586C40.8076 184.195 40.2773 183.975 39.7241 183.974H37.264V193.605Z" fill="black"/>
<path d="M96.48 209H90V185.84H86V179.8H96.48V209ZM104.598 209.56C102.638 209.56 101.078 207.96 101.078 206.04C101.078 204.08 102.638 202.52 104.598 202.52C106.518 202.52 108.078 204.08 108.078 206.04C108.078 207.96 106.518 209.56 104.598 209.56ZM120.543 209H114.062V185.84H110.063V179.8H120.543V209ZM134.181 209H126.941L137.621 185.84H124.141V179.8H145.381V183.72L134.181 209ZM155.924 209H149.004V179.8H156.004L164.804 194.92L173.604 179.8H180.604V209H173.684V191.64L166.604 203.84H163.004L155.924 191.64V209Z" fill="#F36D20"/>
<path d="M87.59 229H86.148V218.78H87.59V223.708L91.916 218.78H93.582L89.998 222.994L93.932 229H92.238L89.088 224.296L87.59 225.92V229ZM98.4715 229H95.3355V218.78H98.4715C101.65 218.78 103.848 221.034 103.848 223.876C103.848 226.746 101.734 229 98.4715 229ZM96.7775 220.194V227.572H98.4715C100.908 227.572 102.35 225.906 102.35 223.862C102.35 221.888 100.824 220.194 98.4715 220.194H96.7775ZM110.171 229H108.575L112.313 218.78H113.881L117.619 229H116.051L115.071 226.34H111.137L110.171 229ZM113.097 220.726L111.557 224.982H114.651L113.097 220.726ZM120.192 229H118.834V221.3H120.094L120.164 222.574C120.556 221.678 121.424 221.188 122.264 221.188C123.496 221.188 124.294 221.902 124.616 222.826C124.938 221.916 125.736 221.188 126.856 221.188C128.494 221.188 129.712 222.238 129.712 224.912V229H128.34V224.912C128.34 223.148 127.556 222.532 126.646 222.532C125.792 222.532 124.952 223.148 124.952 224.912V229H123.58V224.912C123.58 223.148 122.796 222.532 121.886 222.532C120.976 222.532 120.192 223.316 120.192 225.08V229ZM135.049 229.112C132.865 229.112 131.101 227.32 131.101 225.136C131.101 222.966 132.865 221.202 135.049 221.202C137.219 221.202 138.997 222.966 138.997 225.136C138.997 227.32 137.219 229.112 135.049 229.112ZM135.049 227.712C136.463 227.712 137.611 226.564 137.611 225.136C137.611 223.736 136.463 222.588 135.049 222.588C133.621 222.588 132.487 223.736 132.487 225.136C132.487 226.564 133.621 227.712 135.049 227.712ZM143.527 229.112C141.735 229.112 140.377 227.866 140.377 225.206V221.3H141.749V225.206C141.749 226.97 142.701 227.754 143.835 227.754C144.955 227.754 145.921 226.97 145.921 225.206V221.3H147.279V229H146.019L145.949 227.628C145.529 228.44 144.689 229.112 143.527 229.112ZM150.639 229H149.281V221.3H150.541L150.611 222.658C151.031 221.846 151.857 221.188 153.033 221.188C154.825 221.188 156.183 222.42 156.183 225.08V229H154.811V225.08C154.811 223.33 153.859 222.532 152.725 222.532C151.605 222.532 150.639 223.316 150.639 225.08V229ZM160.78 229.126C159.366 229.126 158.19 228.272 158.19 226.13V222.532H157.154V221.3H158.232L158.4 218.78H159.548V221.3H161.396V222.532H159.548V226.116C159.548 227.222 160.094 227.796 160.962 227.796C161.158 227.796 161.368 227.768 161.55 227.698L161.9 228.916C161.578 229.056 161.186 229.126 160.78 229.126ZM86.806 247H85.21L88.948 236.78H90.516L94.254 247H92.686L91.706 244.34H87.772L86.806 247ZM89.732 238.726L88.192 242.982H91.286L89.732 238.726ZM96.8269 250.08H95.4689V239.3H96.7289L96.7989 240.896C97.2609 239.944 98.3949 239.202 99.6549 239.202C101.727 239.202 103.407 240.966 103.407 243.136C103.407 245.32 101.727 247.112 99.6549 247.112C98.4089 247.112 97.2889 246.37 96.8269 245.418V250.08ZM99.4449 245.754C100.873 245.754 102.035 244.578 102.035 243.136C102.035 241.708 100.873 240.546 99.4449 240.546C97.9889 240.546 96.8269 241.708 96.8269 243.136C96.8269 244.578 97.9889 245.754 99.4449 245.754ZM106.22 250.08H104.862V239.3H106.122L106.192 240.896C106.654 239.944 107.788 239.202 109.048 239.202C111.12 239.202 112.8 240.966 112.8 243.136C112.8 245.32 111.12 247.112 109.048 247.112C107.802 247.112 106.682 246.37 106.22 245.418V250.08ZM108.838 245.754C110.266 245.754 111.428 244.578 111.428 243.136C111.428 241.708 110.266 240.546 108.838 240.546C107.382 240.546 106.22 241.708 106.22 243.136C106.22 244.578 107.382 245.754 108.838 245.754ZM115.708 247H114.35V239.3H115.61L115.694 240.56C116.142 239.734 117.01 239.244 118.144 239.258C118.34 239.258 118.536 239.272 118.718 239.3L118.438 240.616C118.354 240.602 118.256 240.588 118.172 240.588C116.87 240.588 115.708 241.316 115.708 243.444V247ZM123.099 247.112C120.915 247.112 119.151 245.32 119.151 243.136C119.151 240.966 120.915 239.202 123.099 239.202C125.269 239.202 127.047 240.966 127.047 243.136C127.047 245.32 125.269 247.112 123.099 247.112ZM123.099 245.712C124.513 245.712 125.661 244.564 125.661 243.136C125.661 241.736 124.513 240.588 123.099 240.588C121.671 240.588 120.537 241.736 120.537 243.136C120.537 244.564 121.671 245.712 123.099 245.712ZM131.755 247H130.397L127.373 239.3H128.843L131.083 244.956L133.309 239.3H134.779L131.755 247ZM139.181 247.112C136.843 247.112 135.093 245.32 135.093 243.136C135.093 240.966 136.843 239.202 138.999 239.202C141.239 239.202 142.905 240.966 142.905 243.136C142.905 243.318 142.877 243.584 142.863 243.78H136.563C136.773 244.942 137.851 245.824 139.181 245.824C140.133 245.824 140.889 245.432 141.379 244.83L142.485 245.516C141.757 246.482 140.483 247.112 139.181 247.112ZM136.549 242.66H141.491C141.421 241.47 140.427 240.476 139.013 240.476C137.655 240.476 136.633 241.47 136.549 242.66ZM147.732 247.098C145.66 247.098 143.98 245.32 143.98 243.15C143.98 240.966 145.66 239.188 147.732 239.188C148.978 239.188 150.098 239.916 150.56 240.882V236.08H151.932V247H150.672L150.602 245.39C150.126 246.356 148.992 247.098 147.732 247.098ZM147.956 245.74C149.398 245.74 150.56 244.578 150.56 243.15C150.56 241.708 149.398 240.532 147.956 240.532C146.528 240.532 145.366 241.708 145.366 243.15C145.366 244.578 146.528 245.74 147.956 245.74Z" fill="black"/>
<path d="M43.1896 309H14.6948C14.6038 309 14.5136 308.982 14.4296 308.947C14.3455 308.913 14.2691 308.862 14.2048 308.797C14.1404 308.733 14.0894 308.656 14.0546 308.572C14.0198 308.488 14.0019 308.398 14.002 308.307V263.693C14.0019 263.602 14.0198 263.512 14.0546 263.428C14.0894 263.344 14.1404 263.267 14.2048 263.203C14.2691 263.138 14.3455 263.087 14.4296 263.053C14.5136 263.018 14.6038 263 14.6948 263H48.3505C48.4415 263 48.5317 263.018 48.6158 263.053C48.6998 263.087 48.7762 263.138 48.8405 263.203C48.9049 263.267 48.956 263.344 48.9907 263.428C49.0256 263.512 49.0434 263.602 49.0434 263.693V301.761C49.0431 301.916 48.9907 302.067 48.8945 302.19L43.7336 308.736C43.6687 308.818 43.5861 308.885 43.4919 308.931C43.3976 308.976 43.2943 309 43.1896 309ZM15.3876 307.614H42.854L47.6577 301.52V264.386H15.3876V307.614Z" fill="black"/>
<path d="M42.8041 309C42.7131 309 42.6232 308.982 42.5391 308.947C42.455 308.913 42.3785 308.862 42.3141 308.797C42.2498 308.733 42.1989 308.656 42.1641 308.572C42.1293 308.488 42.1113 308.398 42.1113 308.307V301.761C42.1113 301.67 42.1293 301.579 42.1641 301.495C42.1989 301.411 42.2498 301.335 42.3141 301.271C42.3785 301.206 42.455 301.155 42.5391 301.12C42.6232 301.086 42.7131 301.068 42.8041 301.068H48.3507C48.5345 301.068 48.7108 301.141 48.8408 301.271C48.9707 301.401 49.0436 301.577 49.0436 301.761C49.0436 301.944 48.9707 302.121 48.8408 302.25C48.7108 302.38 48.5345 302.453 48.3507 302.453H43.497V308.307C43.497 308.398 43.4792 308.488 43.4444 308.572C43.4096 308.656 43.3585 308.733 43.2942 308.797C43.2298 308.862 43.1534 308.913 43.0694 308.947C42.9853 308.982 42.8951 309 42.8041 309Z" fill="black"/>
<path d="M29.8683 272.704H21.0375C20.8538 272.704 20.6776 272.631 20.5477 272.501C20.4178 272.371 20.3447 272.195 20.3447 272.011C20.3447 271.828 20.4178 271.651 20.5477 271.521C20.6776 271.392 20.8538 271.319 21.0375 271.319H29.8683C30.052 271.319 30.2282 271.392 30.3581 271.521C30.488 271.651 30.5611 271.828 30.5611 272.011C30.5611 272.195 30.488 272.371 30.3581 272.501C30.2282 272.631 30.052 272.704 29.8683 272.704Z" fill="black"/>
<path d="M29.8683 279.699H21.0375C20.8538 279.699 20.6776 279.626 20.5477 279.496C20.4178 279.366 20.3447 279.19 20.3447 279.006C20.3447 278.822 20.4178 278.646 20.5477 278.516C20.6776 278.386 20.8538 278.313 21.0375 278.313H29.8683C30.052 278.313 30.2282 278.386 30.3581 278.516C30.488 278.646 30.5611 278.822 30.5611 279.006C30.5611 279.19 30.488 279.366 30.3581 279.496C30.2282 279.626 30.052 279.699 29.8683 279.699Z" fill="black"/>
<path d="M34.0279 286.692H21.0375C20.8538 286.692 20.6776 286.619 20.5477 286.49C20.4178 286.36 20.3447 286.183 20.3447 286C20.3447 285.816 20.4178 285.64 20.5477 285.51C20.6776 285.38 20.8538 285.307 21.0375 285.307H34.0279C34.2116 285.307 34.3878 285.38 34.5177 285.51C34.6476 285.64 34.7207 285.816 34.7207 286C34.7207 286.183 34.6476 286.36 34.5177 286.49C34.3878 286.619 34.2116 286.692 34.0279 286.692Z" fill="black"/>
<path d="M36.3039 293.687H21.0375C20.8538 293.687 20.6776 293.614 20.5477 293.484C20.4178 293.354 20.3447 293.178 20.3447 292.994C20.3447 292.81 20.4178 292.634 20.5477 292.504C20.6776 292.374 20.8538 292.301 21.0375 292.301H36.3039C36.4876 292.301 36.6638 292.374 36.7937 292.504C36.9237 292.634 36.9967 292.81 36.9967 292.994C36.9967 293.178 36.9237 293.354 36.7937 293.484C36.6638 293.614 36.4876 293.687 36.3039 293.687Z" fill="black"/>
<path d="M36.3039 300.681H21.0375C20.8538 300.681 20.6776 300.608 20.5477 300.478C20.4178 300.348 20.3447 300.172 20.3447 299.988C20.3447 299.804 20.4178 299.628 20.5477 299.498C20.6776 299.368 20.8538 299.295 21.0375 299.295H36.3039C36.4876 299.295 36.6638 299.368 36.7937 299.498C36.9237 299.628 36.9967 299.804 36.9967 299.988C36.9967 300.172 36.9237 300.348 36.7937 300.478C36.6638 300.608 36.4876 300.681 36.3039 300.681Z" fill="black"/>
<path d="M59.781 280.931C61.7285 280.931 63.3072 279.352 63.3072 277.404C63.3072 275.457 61.7285 273.878 59.781 273.878C57.8336 273.878 56.2549 275.457 56.2549 277.404C56.2549 279.352 57.8336 280.931 59.781 280.931Z" fill="#F36D20"/>
<path d="M57.4118 288.727L43.5225 282.805V272.059L57.4118 266.136C57.6706 266.026 57.9527 265.982 58.2328 266.007C58.513 266.032 58.7824 266.127 59.0171 266.282C59.2518 266.437 59.4444 266.648 59.5777 266.896C59.7109 267.143 59.7808 267.42 59.7808 267.701V287.162C59.7808 287.443 59.7109 287.72 59.5777 287.968C59.4444 288.216 59.2518 288.427 59.0171 288.582C58.7824 288.737 58.513 288.831 58.2328 288.857C57.9527 288.882 57.6706 288.838 57.4118 288.727Z" fill="#F36D20"/>
<path d="M38.6074 272.059H43.5226V282.805H38.6074C37.1824 282.805 35.8157 282.239 34.8081 281.231C33.8005 280.224 33.2344 278.857 33.2344 277.432C33.2344 276.007 33.8005 274.64 34.8081 273.633C35.8157 272.625 37.1824 272.059 38.6074 272.059Z" fill="#F36D20"/>
<path d="M43.5226 282.805V293.153C42.643 293.153 41.7995 292.803 41.1775 292.181C40.5555 291.559 40.2061 290.716 40.2061 289.836V282.805H43.5226Z" fill="#F36D20"/>
<path d="M55.1977 287.274C55.1067 287.274 55.0166 287.256 54.9325 287.221C54.8484 287.186 54.772 287.135 54.7077 287.071C54.6433 287.007 54.5923 286.93 54.5575 286.846C54.5227 286.762 54.5048 286.672 54.5049 286.581V268.227C54.5049 268.044 54.5779 267.868 54.7079 267.738C54.8378 267.608 55.014 267.535 55.1977 267.535C55.3814 267.535 55.5576 267.608 55.6875 267.738C55.8175 267.868 55.8905 268.044 55.8905 268.227V286.581C55.8906 286.672 55.8727 286.762 55.8379 286.846C55.8031 286.93 55.7521 287.007 55.6877 287.071C55.6234 287.135 55.547 287.186 55.4629 287.221C55.3788 287.256 55.2887 287.274 55.1977 287.274Z" fill="white"/>
<path d="M89.9066 296H82.0266L88.6266 286.72C83.6666 286.44 79.4266 282.32 79.4266 276.8C79.4266 270.76 84.2266 266.36 90.1466 266.36C96.0666 266.36 100.867 270.76 100.867 276.8C100.867 279.08 100.147 281.2 98.9066 282.84L89.9066 296ZM90.1466 280.72C92.4666 280.72 94.2666 279 94.2666 276.8C94.2666 274.6 92.4666 272.84 90.1466 272.84C87.8266 272.84 85.9466 274.6 85.9466 276.8C85.9466 279 87.8266 280.72 90.1466 280.72ZM113.099 296.4C108.419 296.4 104.459 293.76 102.939 289.76L109.179 287.48C109.739 288.92 111.419 289.92 113.219 289.92C115.539 289.92 117.459 288.16 117.459 285.8C117.459 283.44 115.579 281.68 113.299 281.68C111.939 281.68 110.619 282.32 109.859 283.32H103.379L104.539 266.8H122.859V272.84H110.619L110.339 277.04C111.339 276.32 112.939 275.76 114.339 275.76C119.939 275.76 124.019 279.96 124.019 285.96C124.019 292 119.099 296.4 113.099 296.4Z" fill="#F36D20"/>
<path d="M80.8966 316H79.4546V305.78H83.3326C85.4046 305.78 86.7766 307.222 86.7766 308.986C86.7766 310.764 85.4046 312.206 83.3326 312.206H80.8966V316ZM80.8966 307.194V310.792H83.3046C84.5366 310.792 85.2926 309.966 85.2926 308.986C85.2926 308.034 84.5366 307.194 83.3046 307.194H80.8966ZM91.238 316.112C89.446 316.112 88.088 314.866 88.088 312.206V308.3H89.46V312.206C89.46 313.97 90.412 314.754 91.546 314.754C92.666 314.754 93.632 313.97 93.632 312.206V308.3H94.99V316H93.73L93.66 314.628C93.24 315.44 92.4 316.112 91.238 316.112ZM101.178 316.098C99.9184 316.098 98.7844 315.356 98.3224 314.39L98.2524 316H96.9924V305.08H98.3504V309.882C98.8124 308.916 99.9324 308.188 101.178 308.188C103.25 308.188 104.93 309.966 104.93 312.15C104.93 314.32 103.25 316.098 101.178 316.098ZM100.968 314.74C102.396 314.74 103.558 313.578 103.558 312.15C103.558 310.708 102.396 309.532 100.968 309.532C99.5124 309.532 98.3504 310.708 98.3504 312.15C98.3504 313.578 99.5124 314.74 100.968 314.74ZM107.743 316H106.385V305.08H107.743V316ZM110.434 307.516C109.958 307.516 109.566 307.124 109.566 306.648C109.566 306.172 109.958 305.78 110.434 305.78C110.896 305.78 111.288 306.172 111.288 306.648C111.288 307.124 110.896 307.516 110.434 307.516ZM111.106 316H109.748V308.3H111.106V316ZM116.598 316.112C114.414 316.112 112.65 314.32 112.65 312.136C112.65 309.966 114.414 308.202 116.598 308.202C117.928 308.202 119.104 308.86 119.832 309.868L118.698 310.624C118.222 309.994 117.452 309.588 116.598 309.588C115.17 309.588 114.036 310.736 114.036 312.136C114.036 313.564 115.17 314.712 116.598 314.712C117.48 314.712 118.264 314.278 118.726 313.606L119.86 314.362C119.16 315.412 117.956 316.112 116.598 316.112ZM124.564 316.098C122.492 316.098 120.812 314.32 120.812 312.15C120.812 309.966 122.492 308.188 124.564 308.188C125.824 308.188 126.958 308.944 127.434 309.924L127.504 308.3H128.764V316H127.504L127.434 314.39C126.958 315.356 125.824 316.098 124.564 316.098ZM124.788 314.74C126.23 314.74 127.392 313.578 127.392 312.15C127.392 310.708 126.23 309.532 124.788 309.532C123.36 309.532 122.198 310.708 122.198 312.15C122.198 313.578 123.36 314.74 124.788 314.74ZM133.702 316.126C132.288 316.126 131.112 315.272 131.112 313.13V309.532H130.076V308.3H131.154L131.322 305.78H132.47V308.3H134.318V309.532H132.47V313.116C132.47 314.222 133.016 314.796 133.884 314.796C134.08 314.796 134.29 314.768 134.472 314.698L134.822 315.916C134.5 316.056 134.108 316.126 133.702 316.126ZM136.958 307.516C136.482 307.516 136.09 307.124 136.09 306.648C136.09 306.172 136.482 305.78 136.958 305.78C137.42 305.78 137.812 306.172 137.812 306.648C137.812 307.124 137.42 307.516 136.958 307.516ZM137.63 316H136.272V308.3H137.63V316ZM143.121 316.112C140.937 316.112 139.173 314.32 139.173 312.136C139.173 309.966 140.937 308.202 143.121 308.202C145.291 308.202 147.069 309.966 147.069 312.136C147.069 314.32 145.291 316.112 143.121 316.112ZM143.121 314.712C144.535 314.712 145.683 313.564 145.683 312.136C145.683 310.736 144.535 309.588 143.121 309.588C141.693 309.588 140.559 310.736 140.559 312.136C140.559 313.564 141.693 314.712 143.121 314.712ZM149.975 316H148.617V308.3H149.877L149.947 309.658C150.367 308.846 151.193 308.188 152.369 308.188C154.161 308.188 155.519 309.42 155.519 312.08V316H154.147V312.08C154.147 310.33 153.195 309.532 152.061 309.532C150.941 309.532 149.975 310.316 149.975 312.08V316ZM160.282 316.14C159.176 316.14 157.748 315.776 156.852 314.796L157.79 313.9C158.308 314.474 159.316 314.852 160.282 314.852C161.29 314.852 161.99 314.46 161.99 313.788C161.99 312.206 157.118 313.172 157.118 310.316C157.118 309.056 158.266 308.174 160.03 308.174C161.024 308.174 162.284 308.44 163.124 309.448L162.284 310.288C161.752 309.644 160.786 309.406 160.072 309.406C159.148 309.406 158.49 309.742 158.49 310.33C158.49 311.73 163.362 310.862 163.362 313.746C163.362 315.398 161.892 316.14 160.282 316.14Z" fill="black"/>
</svg>
