<svg width="225" height="185" viewBox="0 0 225 185" fill="none" xmlns="http://www.w3.org/2000/svg">
<path d="M4.56 17.224C2.576 17.224 0.928 16.216 0.256 14.664L2.56 13.608C2.848 14.168 3.648 14.632 4.496 14.632C5.504 14.632 6.16 14.072 6.16 13.304C6.16 12.408 5.36 11.96 4.256 11.96H3.6V9.56H4.304C5.008 9.56 5.728 9.256 5.728 8.552C5.728 7.96 5.168 7.592 4.448 7.592C3.904 7.592 3.424 7.816 3.184 8.136L0.784 7.224C1.344 5.96 2.88 5.064 4.48 5.064C6.496 5.064 8.336 6.088 8.336 8.36C8.336 9.352 7.792 10.152 6.992 10.68C8.032 11.256 8.752 12.216 8.752 13.512C8.752 15.784 6.96 17.224 4.56 17.224ZM13.4223 17H10.5263L14.7983 7.736H9.40625V5.32H17.9023V6.888L13.4223 17ZM21.4158 10.664C19.8478 10.664 18.7438 9.4 18.7438 7.496C18.7438 5.624 19.8478 4.392 21.4158 4.392C22.9838 4.392 24.0718 5.624 24.0718 7.496C24.0718 9.4 22.9838 10.664 21.4158 10.664ZM22.4398 17H20.6798L27.1438 4.504H28.9038L22.4398 17ZM21.3998 9.128C22.0078 9.128 22.5358 8.696 22.5358 7.496C22.5358 6.36 22.0078 5.928 21.3998 5.928C20.8398 5.928 20.2798 6.36 20.2798 7.496C20.2798 8.696 20.8398 9.128 21.3998 9.128ZM28.1838 17.16C26.6158 17.16 25.5118 15.896 25.5118 13.992C25.5118 12.12 26.6158 10.888 28.1838 10.888C29.7358 10.888 30.8238 12.12 30.8238 13.992C30.8238 15.896 29.7358 17.16 28.1838 17.16ZM28.1678 15.624C28.7598 15.624 29.2878 15.192 29.2878 13.992C29.2878 12.856 28.7598 12.424 28.1678 12.424C27.5918 12.424 27.0478 12.856 27.0478 13.992C27.0478 15.192 27.5918 15.624 28.1678 15.624Z" fill="#F36D20"/>
<path d="M40.8849 12.45H35.7329V11.316H40.8849V12.45ZM47.1888 17H45.5928L49.3308 6.78H50.8988L54.6368 17H53.0688L52.0888 14.34H48.1548L47.1888 17ZM50.1148 8.726L48.5748 12.982H51.6688L50.1148 8.726ZM57.2098 17H55.8518V9.3H57.1118L57.1818 10.658C57.6018 9.846 58.4278 9.188 59.6038 9.188C61.3958 9.188 62.7537 10.42 62.7537 13.08V17H61.3818V13.08C61.3818 11.33 60.4298 10.532 59.2958 10.532C58.1758 10.532 57.2098 11.316 57.2098 13.08V17ZM65.9461 17H64.5881V9.3H65.8481L65.9181 10.658C66.3381 9.846 67.1641 9.188 68.3401 9.188C70.1321 9.188 71.4901 10.42 71.4901 13.08V17H70.1181V13.08C70.1181 11.33 69.1661 10.532 68.0321 10.532C66.9121 10.532 65.9461 11.316 65.9461 13.08V17ZM76.8104 17.112C74.6264 17.112 72.8624 15.32 72.8624 13.136C72.8624 10.966 74.6264 9.202 76.8104 9.202C78.9804 9.202 80.7584 10.966 80.7584 13.136C80.7584 15.32 78.9804 17.112 76.8104 17.112ZM76.8104 15.712C78.2244 15.712 79.3724 14.564 79.3724 13.136C79.3724 11.736 78.2244 10.588 76.8104 10.588C75.3824 10.588 74.2484 11.736 74.2484 13.136C74.2484 14.564 75.3824 15.712 76.8104 15.712ZM85.2888 17.112C83.4968 17.112 82.1388 15.866 82.1388 13.206V9.3H83.5108V13.206C83.5108 14.97 84.4628 15.754 85.5968 15.754C86.7168 15.754 87.6828 14.97 87.6828 13.206V9.3H89.0408V17H87.7808L87.7108 15.628C87.2908 16.44 86.4508 17.112 85.2888 17.112ZM92.4012 17H91.0432V9.3H92.3032L92.3732 10.658C92.7932 9.846 93.6192 9.188 94.7952 9.188C96.5872 9.188 97.9452 10.42 97.9452 13.08V17H96.5732V13.08C96.5732 11.33 95.6212 10.532 94.4872 10.532C93.3672 10.532 92.4012 11.316 92.4012 13.08V17ZM103.265 17.112C101.081 17.112 99.3175 15.32 99.3175 13.136C99.3175 10.966 101.081 9.202 103.265 9.202C104.595 9.202 105.771 9.86 106.499 10.868L105.365 11.624C104.889 10.994 104.119 10.588 103.265 10.588C101.837 10.588 100.703 11.736 100.703 13.136C100.703 14.564 101.837 15.712 103.265 15.712C104.147 15.712 104.931 15.278 105.393 14.606L106.527 15.362C105.827 16.412 104.623 17.112 103.265 17.112ZM111.568 17.112C109.23 17.112 107.48 15.32 107.48 13.136C107.48 10.966 109.23 9.202 111.386 9.202C113.626 9.202 115.292 10.966 115.292 13.136C115.292 13.318 115.264 13.584 115.25 13.78H108.95C109.16 14.942 110.238 15.824 111.568 15.824C112.52 15.824 113.276 15.432 113.766 14.83L114.872 15.516C114.144 16.482 112.87 17.112 111.568 17.112ZM108.936 12.66H113.878C113.808 11.47 112.814 10.476 111.4 10.476C110.042 10.476 109.02 11.47 108.936 12.66ZM118.186 17H116.828V9.3H118.088L118.158 10.574C118.55 9.678 119.418 9.188 120.258 9.188C121.49 9.188 122.288 9.902 122.61 10.826C122.932 9.916 123.73 9.188 124.85 9.188C126.488 9.188 127.706 10.238 127.706 12.912V17H126.334V12.912C126.334 11.148 125.55 10.532 124.64 10.532C123.786 10.532 122.946 11.148 122.946 12.912V17H121.574V12.912C121.574 11.148 120.79 10.532 119.88 10.532C118.97 10.532 118.186 11.316 118.186 13.08V17ZM133.183 17.112C130.845 17.112 129.095 15.32 129.095 13.136C129.095 10.966 130.845 9.202 133.001 9.202C135.241 9.202 136.907 10.966 136.907 13.136C136.907 13.318 136.879 13.584 136.865 13.78H130.565C130.775 14.942 131.853 15.824 133.183 15.824C134.135 15.824 134.891 15.432 135.381 14.83L136.487 15.516C135.759 16.482 134.485 17.112 133.183 17.112ZM130.551 12.66H135.493C135.423 11.47 134.429 10.476 133.015 10.476C131.657 10.476 130.635 11.47 130.551 12.66ZM139.802 17H138.444V9.3H139.704L139.774 10.658C140.194 9.846 141.02 9.188 142.196 9.188C143.988 9.188 145.346 10.42 145.346 13.08V17H143.974V13.08C143.974 11.33 143.022 10.532 141.888 10.532C140.768 10.532 139.802 11.316 139.802 13.08V17ZM149.942 17.126C148.528 17.126 147.352 16.272 147.352 14.13V10.532H146.316V9.3H147.394L147.562 6.78H148.71V9.3H150.558V10.532H148.71V14.116C148.71 15.222 149.256 15.796 150.124 15.796C150.32 15.796 150.53 15.768 150.712 15.698L151.062 16.916C150.74 17.056 150.348 17.126 149.942 17.126ZM159.826 17.112C157.642 17.112 155.878 15.32 155.878 13.136C155.878 10.966 157.642 9.202 159.826 9.202C161.996 9.202 163.774 10.966 163.774 13.136C163.774 15.32 161.996 17.112 159.826 17.112ZM159.826 15.712C161.24 15.712 162.388 14.564 162.388 13.136C162.388 11.736 161.24 10.588 159.826 10.588C158.398 10.588 157.264 11.736 157.264 13.136C157.264 14.564 158.398 15.712 159.826 15.712ZM166.974 10.532V17.014L165.616 16.986V10.532H164.636V9.3H165.616V9.006C165.616 6.682 166.834 5.87 168.304 5.87C168.654 5.87 169.06 5.94 169.34 6.038L168.976 7.256C168.808 7.228 168.598 7.186 168.416 7.186C167.548 7.186 166.974 7.62 166.974 9.006V9.3H168.962V10.532H166.974ZM180.886 17H173.648V16.062L177.89 12.324C178.66 11.652 179.262 10.896 179.262 10C179.262 8.726 178.352 7.942 177.218 7.942C176.126 7.942 175.328 8.684 175.034 9.468L173.774 9.02C174.194 7.648 175.594 6.584 177.19 6.584C179.108 6.584 180.62 7.9 180.62 10C180.62 11.26 179.808 12.324 178.828 13.192L175.832 15.712H180.886V17ZM183.948 17H182.59V9.3H183.85L183.92 10.658C184.34 9.846 185.166 9.188 186.342 9.188C188.134 9.188 189.492 10.42 189.492 13.08V17H188.12V13.08C188.12 11.33 187.168 10.532 186.034 10.532C184.914 10.532 183.948 11.316 183.948 13.08V17ZM194.616 17.098C192.544 17.098 190.864 15.32 190.864 13.15C190.864 10.966 192.544 9.188 194.616 9.188C195.862 9.188 196.982 9.916 197.444 10.882V6.08H198.816V17H197.556L197.486 15.39C197.01 16.356 195.876 17.098 194.616 17.098ZM194.84 15.74C196.282 15.74 197.444 14.578 197.444 13.15C197.444 11.708 196.282 10.532 194.84 10.532C193.412 10.532 192.25 11.708 192.25 13.15C192.25 14.578 193.412 15.74 194.84 15.74ZM5.95 35.168C3.038 35.168 0.686 32.802 0.686 29.89C0.686 26.992 3.038 24.64 5.95 24.64C7.616 24.64 9.114 25.41 10.08 26.628L8.89 27.51C8.19 26.656 7.126 26.11 5.95 26.11C3.864 26.11 2.156 27.79 2.156 29.876C2.156 32.004 3.864 33.684 5.95 33.684C7.154 33.684 8.232 33.124 8.918 32.228L10.178 33.012C9.226 34.314 7.686 35.168 5.95 35.168ZM12.137 38.164C11.577 38.164 11.157 38.066 10.723 37.884L11.129 36.666C11.367 36.764 11.759 36.862 12.081 36.862C12.949 36.862 13.509 36.036 13.957 34.846L10.877 27.3H12.347L14.587 32.998L16.813 27.3H18.269L15.329 35C14.489 37.212 13.607 38.164 12.137 38.164ZM22.5409 35.112C20.3569 35.112 18.5929 33.32 18.5929 31.136C18.5929 28.966 20.3569 27.202 22.5409 27.202C23.8709 27.202 25.0469 27.86 25.7749 28.868L24.6409 29.624C24.1649 28.994 23.3949 28.588 22.5409 28.588C21.1129 28.588 19.9789 29.736 19.9789 31.136C19.9789 32.564 21.1129 33.712 22.5409 33.712C23.4229 33.712 24.2069 33.278 24.6689 32.606L25.8029 33.362C25.1029 34.412 23.8989 35.112 22.5409 35.112ZM28.6297 35H27.2717V24.08H28.6297V35ZM34.261 35.112C31.923 35.112 30.173 33.32 30.173 31.136C30.173 28.966 31.923 27.202 34.079 27.202C36.319 27.202 37.985 28.966 37.985 31.136C37.985 31.318 37.957 31.584 37.943 31.78H31.643C31.853 32.942 32.931 33.824 34.261 33.824C35.213 33.824 35.969 33.432 36.459 32.83L37.565 33.516C36.837 34.482 35.563 35.112 34.261 35.112ZM31.629 30.66H36.571C36.501 29.47 35.507 28.476 34.093 28.476C32.735 28.476 31.713 29.47 31.629 30.66ZM49.9718 35H42.7338V34.062L46.9758 30.324C47.7458 29.652 48.3478 28.896 48.3478 28C48.3478 26.726 47.4378 25.942 46.3038 25.942C45.2118 25.942 44.4138 26.684 44.1198 27.468L42.8598 27.02C43.2798 25.648 44.6798 24.584 46.2758 24.584C48.1938 24.584 49.7058 25.9 49.7058 28C49.7058 29.26 48.8938 30.324 47.9138 31.192L44.9178 33.712H49.9718V35ZM55.358 35.182C53.034 35.182 51.354 33.194 51.354 29.89C51.354 26.572 53.034 24.626 55.358 24.626C57.668 24.626 59.348 26.572 59.348 29.89C59.348 33.194 57.668 35.182 55.358 35.182ZM55.358 33.81C56.772 33.81 57.962 32.564 57.962 29.862C57.962 27.23 56.772 25.998 55.358 25.998C53.916 25.998 52.74 27.23 52.74 29.862C52.74 32.564 53.916 33.81 55.358 33.81ZM67.6495 35H60.4115V34.062L64.6535 30.324C65.4235 29.652 66.0255 28.896 66.0255 28C66.0255 26.726 65.1155 25.942 63.9815 25.942C62.8895 25.942 62.0915 26.684 61.7975 27.468L60.5375 27.02C60.9575 25.648 62.3575 24.584 63.9535 24.584C65.8715 24.584 67.3835 25.9 67.3835 28C67.3835 29.26 66.5715 30.324 65.5915 31.192L62.5955 33.712H67.6495V35ZM72.3637 35.196C70.6557 35.196 69.2837 34.314 68.7097 33.096L69.9417 32.55C70.2777 33.25 71.2577 33.824 72.3357 33.824C73.6517 33.824 74.5617 33.054 74.5617 31.976C74.5617 30.828 73.4697 30.156 72.2097 30.156H71.6917V28.882H72.2237C73.2597 28.882 74.1697 28.308 74.1697 27.398C74.1697 26.502 73.3577 25.9 72.2797 25.9C71.4957 25.9 70.8237 26.236 70.5157 26.712L69.2557 26.208C69.7597 25.242 70.9777 24.556 72.2797 24.556C74.0297 24.556 75.5417 25.522 75.5417 27.3C75.5417 28.28 74.9537 29.05 74.0857 29.484C75.1777 29.946 75.9337 30.87 75.9337 32.074C75.9337 33.964 74.3797 35.196 72.3637 35.196ZM82.825 35H81.467V27.3H82.727L82.797 28.658C83.217 27.846 84.043 27.188 85.219 27.188C87.011 27.188 88.369 28.42 88.369 31.08V35H86.997V31.08C86.997 29.33 86.045 28.532 84.911 28.532C83.791 28.532 82.825 29.316 82.825 31.08V35ZM93.4933 35.098C91.4213 35.098 89.7413 33.32 89.7413 31.15C89.7413 28.966 91.4213 27.188 93.4933 27.188C94.7393 27.188 95.8593 27.916 96.3213 28.882V24.08H97.6933V35H96.4333L96.3633 33.39C95.8873 34.356 94.7533 35.098 93.4933 35.098ZM93.7173 33.74C95.1593 33.74 96.3213 32.578 96.3213 31.15C96.3213 29.708 95.1593 28.532 93.7173 28.532C92.2893 28.532 91.1273 29.708 91.1273 31.15C91.1273 32.578 92.2893 33.74 93.7173 33.74ZM113.46 34.566L112.55 35.378L111.528 34.146C110.674 34.79 109.61 35.168 108.462 35.168C105.55 35.168 103.198 32.802 103.198 29.89C103.198 26.992 105.55 24.64 108.462 24.64C111.36 24.64 113.712 26.992 113.712 29.89C113.712 31.22 113.222 32.438 112.396 33.348L113.46 34.566ZM108.462 33.684C109.246 33.684 109.974 33.432 110.548 32.984L109.484 31.724L110.324 31.01L111.36 32.186C111.892 31.584 112.242 30.772 112.242 29.876C112.242 27.79 110.534 26.11 108.462 26.11C106.376 26.11 104.668 27.79 104.668 29.876C104.668 32.004 106.376 33.684 108.462 33.684ZM119.04 35.126C116.59 35.126 115.05 33.978 115.05 32.158C115.05 30.8 115.988 30.058 117.108 29.512C116.604 28.896 116.058 28.168 116.058 27.09C116.058 25.564 117.444 24.57 119.096 24.57C120.776 24.57 122.036 25.592 122.036 27.104C122.036 28.63 120.608 29.372 119.222 30.002L121.826 32.718C122.47 32.032 122.638 31.038 122.456 30.212L123.716 29.904C123.968 31.43 123.59 32.788 122.68 33.74L123.814 35H122.078L121.588 34.482C120.916 34.888 120.048 35.126 119.04 35.126ZM118.354 28.966C119.544 28.476 120.692 28.07 120.692 27.132C120.692 26.208 119.796 25.83 119.082 25.83C118.284 25.83 117.444 26.236 117.444 27.132C117.444 27.902 117.934 28.476 118.354 28.966ZM119.04 33.838C119.74 33.838 120.272 33.684 120.692 33.418L117.99 30.59C117.122 30.982 116.408 31.416 116.408 32.186C116.408 33.348 117.626 33.838 119.04 33.838ZM126.015 35H124.419L128.157 24.78H129.725L133.463 35H131.895L130.915 32.34H126.981L126.015 35ZM128.941 26.726L127.401 30.982H130.495L128.941 26.726ZM142.356 35H140.872L137.764 24.78H139.276L141.656 32.536L143.98 24.766H145.268L147.592 32.536L149.972 24.78H151.484L148.376 35H146.906L144.638 27.23L142.356 35ZM155.708 35.112C153.37 35.112 151.62 33.32 151.62 31.136C151.62 28.966 153.37 27.202 155.526 27.202C157.766 27.202 159.432 28.966 159.432 31.136C159.432 31.318 159.404 31.584 159.39 31.78H153.09C153.3 32.942 154.378 33.824 155.708 33.824C156.66 33.824 157.416 33.432 157.906 32.83L159.012 33.516C158.284 34.482 157.01 35.112 155.708 35.112ZM153.076 30.66H158.018C157.948 29.47 156.954 28.476 155.54 28.476C154.182 28.476 153.16 29.47 153.076 30.66ZM165.059 35.098C163.799 35.098 162.665 34.356 162.203 33.39L162.133 35H160.873V24.08H162.231V28.882C162.693 27.916 163.813 27.188 165.059 27.188C167.131 27.188 168.811 28.966 168.811 31.15C168.811 33.32 167.131 35.098 165.059 35.098ZM164.849 33.74C166.277 33.74 167.439 32.578 167.439 31.15C167.439 29.708 166.277 28.532 164.849 28.532C163.393 28.532 162.231 29.708 162.231 31.15C162.231 32.578 163.393 33.74 164.849 33.74ZM171.048 26.516C170.572 26.516 170.18 26.124 170.18 25.648C170.18 25.172 170.572 24.78 171.048 24.78C171.51 24.78 171.902 25.172 171.902 25.648C171.902 26.124 171.51 26.516 171.048 26.516ZM171.72 35H170.362V27.3H171.72V35ZM175.083 35H173.725V27.3H174.985L175.055 28.658C175.475 27.846 176.301 27.188 177.477 27.188C179.269 27.188 180.627 28.42 180.627 31.08V35H179.255V31.08C179.255 29.33 178.303 28.532 177.169 28.532C176.049 28.532 175.083 29.316 175.083 31.08V35ZM185.751 35.098C183.679 35.098 181.999 33.32 181.999 31.15C181.999 28.966 183.679 27.188 185.751 27.188C187.011 27.188 188.145 27.944 188.621 28.924L188.691 27.3H189.951V35H188.691L188.621 33.39C188.145 34.356 187.011 35.098 185.751 35.098ZM185.975 33.74C187.417 33.74 188.579 32.578 188.579 31.15C188.579 29.708 187.417 28.532 185.975 28.532C184.547 28.532 183.385 29.708 183.385 31.15C183.385 32.578 184.547 33.74 185.975 33.74ZM193.307 35H191.949V27.3H193.209L193.293 28.56C193.741 27.734 194.609 27.244 195.743 27.258C195.939 27.258 196.135 27.272 196.317 27.3L196.037 28.616C195.953 28.602 195.855 28.588 195.771 28.588C194.469 28.588 193.307 29.316 193.307 31.444V35Z" fill="black"/>
<path d="M8.816 72H0.32V70.416L4.64 66.336C5.376 65.664 5.952 64.992 5.952 64.208C5.952 63.28 5.28 62.688 4.432 62.688C3.632 62.688 3.072 63.248 2.816 63.808L0.432 62.992C0.896 61.344 2.528 60.096 4.416 60.096C6.704 60.096 8.544 61.664 8.544 64.224C8.544 65.696 7.488 66.928 6.4 67.968L4.496 69.584H8.816V72ZM17.6288 72H15.0368V69.6H9.77275V67.328L14.4768 60.32H17.6288V67.056H18.5888V69.6H17.6288V72ZM15.0368 63.792L12.6688 67.056H15.0368V63.792ZM21.8689 65.664C20.3009 65.664 19.1969 64.4 19.1969 62.496C19.1969 60.624 20.3009 59.392 21.8689 59.392C23.4369 59.392 24.5249 60.624 24.5249 62.496C24.5249 64.4 23.4369 65.664 21.8689 65.664ZM22.8929 72H21.1329L27.5969 59.504H29.3569L22.8929 72ZM21.8529 64.128C22.4609 64.128 22.9889 63.696 22.9889 62.496C22.9889 61.36 22.4609 60.928 21.8529 60.928C21.2929 60.928 20.7329 61.36 20.7329 62.496C20.7329 63.696 21.2929 64.128 21.8529 64.128ZM28.6369 72.16C27.0689 72.16 25.9649 70.896 25.9649 68.992C25.9649 67.12 27.0689 65.888 28.6369 65.888C30.1889 65.888 31.2769 67.12 31.2769 68.992C31.2769 70.896 30.1889 72.16 28.6369 72.16ZM28.6209 70.624C29.2129 70.624 29.7409 70.192 29.7409 68.992C29.7409 67.856 29.2129 67.424 28.6209 67.424C28.0449 67.424 27.5009 67.856 27.5009 68.992C27.5009 70.192 28.0449 70.624 28.6209 70.624Z" fill="#F36D20"/>
<path d="M41.338 67.45H36.186V66.316H41.338V67.45ZM48.4259 72H46.9839V61.78H48.4259V66.708L52.7519 61.78H54.4179L50.8339 65.994L54.7679 72H53.0739L49.9239 67.296L48.4259 68.92V72ZM58.74 72.112C56.948 72.112 55.59 70.866 55.59 68.206V64.3H56.962V68.206C56.962 69.97 57.914 70.754 59.048 70.754C60.168 70.754 61.134 69.97 61.134 68.206V64.3H62.492V72H61.232L61.162 70.628C60.742 71.44 59.902 72.112 58.74 72.112ZM67.7843 72H66.4263L63.7383 64.3H65.1943L67.1123 69.9L68.9743 64.3H70.3603L72.2363 69.9L74.1543 64.3H75.6103L72.9083 72H71.5643L69.6743 66.47L67.7843 72ZM79.8703 72.098C77.7983 72.098 76.1183 70.32 76.1183 68.15C76.1183 65.966 77.7983 64.188 79.8703 64.188C81.1303 64.188 82.2643 64.944 82.7403 65.924L82.8103 64.3H84.0703V72H82.8103L82.7403 70.39C82.2643 71.356 81.1303 72.098 79.8703 72.098ZM80.0943 70.74C81.5363 70.74 82.6983 69.578 82.6983 68.15C82.6983 66.708 81.5363 65.532 80.0943 65.532C78.6663 65.532 77.5043 66.708 77.5043 68.15C77.5043 69.578 78.6663 70.74 80.0943 70.74ZM86.7545 63.516C86.2785 63.516 85.8865 63.124 85.8865 62.648C85.8865 62.172 86.2785 61.78 86.7545 61.78C87.2165 61.78 87.6085 62.172 87.6085 62.648C87.6085 63.124 87.2165 63.516 86.7545 63.516ZM87.4265 72H86.0685V64.3H87.4265V72ZM92.3718 72.126C90.9578 72.126 89.7818 71.272 89.7818 69.13V65.532H88.7458V64.3H89.8238L89.9918 61.78H91.1398V64.3H92.9878V65.532H91.1398V69.116C91.1398 70.222 91.6858 70.796 92.5538 70.796C92.7498 70.796 92.9598 70.768 93.1418 70.698L93.4918 71.916C93.1698 72.056 92.7778 72.126 92.3718 72.126ZM102.718 72.154C100.492 72.154 98.7697 70.6 98.7697 68.108V61.78H100.212V68.094C100.212 69.816 101.29 70.698 102.69 70.698C104.076 70.698 105.224 69.83 105.224 68.094V61.78H106.68V68.108C106.68 70.6 104.93 72.154 102.718 72.154ZM110.04 72H108.682V64.3H109.942L110.012 65.658C110.432 64.846 111.258 64.188 112.434 64.188C114.226 64.188 115.584 65.42 115.584 68.08V72H114.212V68.08C114.212 66.33 113.26 65.532 112.126 65.532C111.006 65.532 110.04 66.316 110.04 68.08V72ZM118.104 63.516C117.628 63.516 117.236 63.124 117.236 62.648C117.236 62.172 117.628 61.78 118.104 61.78C118.566 61.78 118.958 62.172 118.958 62.648C118.958 63.124 118.566 63.516 118.104 63.516ZM118.776 72H117.418V64.3H118.776V72ZM124.337 72H122.979L119.955 64.3H121.425L123.665 69.956L125.891 64.3H127.361L124.337 72ZM131.763 72.112C129.425 72.112 127.675 70.32 127.675 68.136C127.675 65.966 129.425 64.202 131.581 64.202C133.821 64.202 135.487 65.966 135.487 68.136C135.487 68.318 135.459 68.584 135.445 68.78H129.145C129.355 69.942 130.433 70.824 131.763 70.824C132.715 70.824 133.471 70.432 133.961 69.83L135.067 70.516C134.339 71.482 133.065 72.112 131.763 72.112ZM129.131 67.66H134.073C134.003 66.47 133.009 65.476 131.595 65.476C130.237 65.476 129.215 66.47 129.131 67.66ZM138.382 72H137.024V64.3H138.284L138.368 65.56C138.816 64.734 139.684 64.244 140.818 64.258C141.014 64.258 141.21 64.272 141.392 64.3L141.112 65.616C141.028 65.602 140.93 65.588 140.846 65.588C139.544 65.588 138.382 66.316 138.382 68.444V72ZM145.435 72.14C144.329 72.14 142.901 71.776 142.005 70.796L142.943 69.9C143.461 70.474 144.469 70.852 145.435 70.852C146.443 70.852 147.143 70.46 147.143 69.788C147.143 68.206 142.271 69.172 142.271 66.316C142.271 65.056 143.419 64.174 145.183 64.174C146.177 64.174 147.437 64.44 148.277 65.448L147.437 66.288C146.905 65.644 145.939 65.406 145.225 65.406C144.301 65.406 143.643 65.742 143.643 66.33C143.643 67.73 148.515 66.862 148.515 69.746C148.515 71.398 147.045 72.14 145.435 72.14ZM150.821 63.516C150.345 63.516 149.953 63.124 149.953 62.648C149.953 62.172 150.345 61.78 150.821 61.78C151.283 61.78 151.675 62.172 151.675 62.648C151.675 63.124 151.283 63.516 150.821 63.516ZM151.493 72H150.135V64.3H151.493V72ZM156.438 72.126C155.024 72.126 153.848 71.272 153.848 69.13V65.532H152.812V64.3H153.89L154.058 61.78H155.206V64.3H157.054V65.532H155.206V69.116C155.206 70.222 155.752 70.796 156.62 70.796C156.816 70.796 157.026 70.768 157.208 70.698L157.558 71.916C157.236 72.056 156.844 72.126 156.438 72.126ZM159.487 75.164C158.927 75.164 158.507 75.066 158.073 74.884L158.479 73.666C158.717 73.764 159.109 73.862 159.431 73.862C160.299 73.862 160.859 73.036 161.307 71.846L158.227 64.3H159.697L161.937 69.998L164.163 64.3H165.619L162.679 72C161.839 74.212 160.957 75.164 159.487 75.164ZM4.326 90.154C3.01 90.154 1.722 89.706 0.644 88.544L1.554 87.62C2.282 88.348 3.192 88.81 4.34 88.824C5.572 88.824 6.44 88.236 6.44 87.214C6.44 84.736 0.84 85.842 0.84 82.286C0.84 80.774 2.072 79.612 4.172 79.612C5.278 79.612 6.678 80.06 7.574 81.264L6.552 82.062C6.048 81.362 5.124 80.956 4.242 80.942C3.024 80.928 2.24 81.502 2.24 82.272C2.24 84.512 7.854 83.448 7.854 87.144C7.854 88.992 6.384 90.168 4.326 90.154ZM12.9842 90.112C10.8002 90.112 9.03623 88.32 9.03623 86.136C9.03623 83.966 10.8002 82.202 12.9842 82.202C14.3142 82.202 15.4902 82.86 16.2182 83.868L15.0842 84.624C14.6082 83.994 13.8382 83.588 12.9842 83.588C11.5562 83.588 10.4222 84.736 10.4222 86.136C10.4222 87.564 11.5562 88.712 12.9842 88.712C13.8662 88.712 14.6502 88.278 15.1122 87.606L16.2462 88.362C15.5462 89.412 14.3422 90.112 12.9842 90.112ZM18.4557 81.516C17.9797 81.516 17.5877 81.124 17.5877 80.648C17.5877 80.172 17.9797 79.78 18.4557 79.78C18.9177 79.78 19.3097 80.172 19.3097 80.648C19.3097 81.124 18.9177 81.516 18.4557 81.516ZM19.1277 90H17.7697V82.3H19.1277V90ZM24.759 90.112C22.421 90.112 20.671 88.32 20.671 86.136C20.671 83.966 22.421 82.202 24.577 82.202C26.817 82.202 28.483 83.966 28.483 86.136C28.483 86.318 28.455 86.584 28.441 86.78H22.141C22.351 87.942 23.429 88.824 24.759 88.824C25.711 88.824 26.467 88.432 26.957 87.83L28.063 88.516C27.335 89.482 26.061 90.112 24.759 90.112ZM22.127 85.66H27.069C26.999 84.47 26.005 83.476 24.591 83.476C23.233 83.476 22.211 84.47 22.127 85.66ZM31.3777 90H30.0197V82.3H31.2797L31.3497 83.658C31.7697 82.846 32.5957 82.188 33.7717 82.188C35.5637 82.188 36.9217 83.42 36.9217 86.08V90H35.5497V86.08C35.5497 84.33 34.5977 83.532 33.4637 83.532C32.3437 83.532 31.3777 84.316 31.3777 86.08V90ZM41.5183 90.126C40.1043 90.126 38.9283 89.272 38.9283 87.13V83.532H37.8923V82.3H38.9703L39.1383 79.78H40.2863V82.3H42.1343V83.532H40.2863V87.116C40.2863 88.222 40.8323 88.796 41.7003 88.796C41.8963 88.796 42.1063 88.768 42.2883 88.698L42.6383 89.916C42.3163 90.056 41.9243 90.126 41.5183 90.126ZM44.7741 81.516C44.2981 81.516 43.9061 81.124 43.9061 80.648C43.9061 80.172 44.2981 79.78 44.7741 79.78C45.2361 79.78 45.6281 80.172 45.6281 80.648C45.6281 81.124 45.2361 81.516 44.7741 81.516ZM45.4461 90H44.0881V82.3H45.4461V90ZM49.1034 83.532V90.014L47.7454 89.986V83.532H46.7654V82.3H47.7454V82.006C47.7454 79.682 48.9634 78.87 50.4334 78.87C50.7554 78.87 51.0634 78.94 51.3294 79.01L50.9094 80.242C50.7834 80.214 50.5874 80.186 50.4614 80.186C49.6914 80.186 49.1034 80.62 49.1034 82.006V82.3H52.9814V90.014L51.6094 90V83.532H49.1034ZM52.2814 81.516C51.8054 81.516 51.4274 81.124 51.4274 80.648C51.4274 80.172 51.8054 79.78 52.2814 79.78C52.7434 79.78 53.1354 80.172 53.1354 80.648C53.1354 81.124 52.7434 81.516 52.2814 81.516ZM58.4569 90.112C56.2729 90.112 54.5089 88.32 54.5089 86.136C54.5089 83.966 56.2729 82.202 58.4569 82.202C59.7869 82.202 60.9629 82.86 61.6909 83.868L60.5569 84.624C60.0809 83.994 59.3109 83.588 58.4569 83.588C57.0289 83.588 55.8949 84.736 55.8949 86.136C55.8949 87.564 57.0289 88.712 58.4569 88.712C59.3389 88.712 60.1229 88.278 60.5849 87.606L61.7189 88.362C61.0189 89.412 59.8149 90.112 58.4569 90.112ZM68.6525 90H67.2105V79.78H71.0885C73.1605 79.78 74.5325 81.222 74.5325 82.986C74.5325 84.414 73.5945 85.618 72.1945 85.954L74.7005 90H73.0205L70.6965 86.206H68.6525V90ZM68.6525 81.194V84.792H71.0605C72.2925 84.792 73.0485 83.966 73.0485 82.986C73.0485 82.034 72.2925 81.194 71.0605 81.194H68.6525ZM79.3918 90.112C77.0538 90.112 75.3038 88.32 75.3038 86.136C75.3038 83.966 77.0538 82.202 79.2098 82.202C81.4498 82.202 83.1158 83.966 83.1158 86.136C83.1158 86.318 83.0878 86.584 83.0738 86.78H76.7738C76.9838 87.942 78.0618 88.824 79.3918 88.824C80.3438 88.824 81.0998 88.432 81.5898 87.83L82.6958 88.516C81.9678 89.482 80.6938 90.112 79.3918 90.112ZM76.7598 85.66H81.7018C81.6318 84.47 80.6378 83.476 79.2238 83.476C77.8658 83.476 76.8438 84.47 76.7598 85.66ZM87.4171 90.14C86.3111 90.14 84.8831 89.776 83.9871 88.796L84.9251 87.9C85.4431 88.474 86.4511 88.852 87.4171 88.852C88.4251 88.852 89.1251 88.46 89.1251 87.788C89.1251 86.206 84.2531 87.172 84.2531 84.316C84.2531 83.056 85.4011 82.174 87.1651 82.174C88.1591 82.174 89.4191 82.44 90.2591 83.448L89.4191 84.288C88.8871 83.644 87.9211 83.406 87.2071 83.406C86.2831 83.406 85.6251 83.742 85.6251 84.33C85.6251 85.73 90.4971 84.862 90.4971 87.746C90.4971 89.398 89.0271 90.14 87.4171 90.14ZM95.511 90.112C93.173 90.112 91.423 88.32 91.423 86.136C91.423 83.966 93.173 82.202 95.329 82.202C97.569 82.202 99.235 83.966 99.235 86.136C99.235 86.318 99.207 86.584 99.193 86.78H92.893C93.103 87.942 94.181 88.824 95.511 88.824C96.463 88.824 97.219 88.432 97.709 87.83L98.815 88.516C98.087 89.482 96.813 90.112 95.511 90.112ZM92.879 85.66H97.821C97.751 84.47 96.757 83.476 95.343 83.476C93.985 83.476 92.963 84.47 92.879 85.66ZM104.062 90.098C101.99 90.098 100.31 88.32 100.31 86.15C100.31 83.966 101.99 82.188 104.062 82.188C105.322 82.188 106.456 82.944 106.932 83.924L107.002 82.3H108.262V90H107.002L106.932 88.39C106.456 89.356 105.322 90.098 104.062 90.098ZM104.286 88.74C105.728 88.74 106.89 87.578 106.89 86.15C106.89 84.708 105.728 83.532 104.286 83.532C102.858 83.532 101.696 84.708 101.696 86.15C101.696 87.578 102.858 88.74 104.286 88.74ZM111.618 90H110.26V82.3H111.52L111.604 83.56C112.052 82.734 112.92 82.244 114.054 82.258C114.25 82.258 114.446 82.272 114.628 82.3L114.348 83.616C114.264 83.602 114.166 83.588 114.082 83.588C112.78 83.588 111.618 84.316 111.618 86.444V90ZM119.01 90.112C116.826 90.112 115.062 88.32 115.062 86.136C115.062 83.966 116.826 82.202 119.01 82.202C120.34 82.202 121.516 82.86 122.244 83.868L121.11 84.624C120.634 83.994 119.864 83.588 119.01 83.588C117.582 83.588 116.448 84.736 116.448 86.136C116.448 87.564 117.582 88.712 119.01 88.712C119.892 88.712 120.676 88.278 121.138 87.606L122.272 88.362C121.572 89.412 120.368 90.112 119.01 90.112ZM125.098 90H123.74V79.08H125.098V83.63C125.518 82.832 126.344 82.188 127.492 82.188C129.284 82.188 130.642 83.42 130.642 86.08V90H129.27V86.08C129.27 84.33 128.318 83.532 127.184 83.532C126.064 83.532 125.098 84.316 125.098 86.08V90ZM141.247 90.168C138.335 90.168 135.983 87.802 135.983 84.89C135.983 81.992 138.335 79.64 141.247 79.64C142.913 79.64 144.411 80.41 145.377 81.628L144.187 82.51C143.487 81.656 142.423 81.11 141.247 81.11C139.161 81.11 137.453 82.79 137.453 84.876C137.453 87.004 139.161 88.684 141.247 88.684C142.451 88.684 143.529 88.124 144.215 87.228L145.475 88.012C144.523 89.314 142.983 90.168 141.247 90.168ZM150.332 90.112C148.148 90.112 146.384 88.32 146.384 86.136C146.384 83.966 148.148 82.202 150.332 82.202C152.502 82.202 154.28 83.966 154.28 86.136C154.28 88.32 152.502 90.112 150.332 90.112ZM150.332 88.712C151.746 88.712 152.894 87.564 152.894 86.136C152.894 84.736 151.746 83.588 150.332 83.588C148.904 83.588 147.77 84.736 147.77 86.136C147.77 87.564 148.904 88.712 150.332 88.712ZM157.186 90H155.828V82.3H157.088L157.158 83.658C157.578 82.846 158.404 82.188 159.58 82.188C161.372 82.188 162.73 83.42 162.73 86.08V90H161.358V86.08C161.358 84.33 160.406 83.532 159.272 83.532C158.152 83.532 157.186 84.316 157.186 86.08V90ZM166.217 83.532V90.014L164.859 89.986V83.532H163.879V82.3H164.859V82.006C164.859 79.682 166.077 78.87 167.547 78.87C167.897 78.87 168.303 78.94 168.583 79.038L168.219 80.256C168.051 80.228 167.841 80.186 167.659 80.186C166.791 80.186 166.217 80.62 166.217 82.006V82.3H168.205V83.532H166.217ZM172.907 90.112C170.569 90.112 168.819 88.32 168.819 86.136C168.819 83.966 170.569 82.202 172.725 82.202C174.965 82.202 176.631 83.966 176.631 86.136C176.631 86.318 176.603 86.584 176.589 86.78H170.289C170.499 87.942 171.577 88.824 172.907 88.824C173.859 88.824 174.615 88.432 175.105 87.83L176.211 88.516C175.483 89.482 174.209 90.112 172.907 90.112ZM170.275 85.66H175.217C175.147 84.47 174.153 83.476 172.739 83.476C171.381 83.476 170.359 84.47 170.275 85.66ZM179.526 90H178.168V82.3H179.428L179.512 83.56C179.96 82.734 180.828 82.244 181.962 82.258C182.158 82.258 182.354 82.272 182.536 82.3L182.256 83.616C182.172 83.602 182.074 83.588 181.99 83.588C180.688 83.588 179.526 84.316 179.526 86.444V90ZM187.058 90.112C184.72 90.112 182.97 88.32 182.97 86.136C182.97 83.966 184.72 82.202 186.876 82.202C189.116 82.202 190.782 83.966 190.782 86.136C190.782 86.318 190.754 86.584 190.74 86.78H184.44C184.65 87.942 185.728 88.824 187.058 88.824C188.01 88.824 188.766 88.432 189.256 87.83L190.362 88.516C189.634 89.482 188.36 90.112 187.058 90.112ZM184.426 85.66H189.368C189.298 84.47 188.304 83.476 186.89 83.476C185.532 83.476 184.51 84.47 184.426 85.66ZM193.677 90H192.319V82.3H193.579L193.649 83.658C194.069 82.846 194.895 82.188 196.071 82.188C197.863 82.188 199.221 83.42 199.221 86.08V90H197.849V86.08C197.849 84.33 196.897 83.532 195.763 83.532C194.643 83.532 193.677 84.316 193.677 86.08V90ZM204.541 90.112C202.357 90.112 200.593 88.32 200.593 86.136C200.593 83.966 202.357 82.202 204.541 82.202C205.871 82.202 207.047 82.86 207.775 83.868L206.641 84.624C206.165 83.994 205.395 83.588 204.541 83.588C203.113 83.588 201.979 84.736 201.979 86.136C201.979 87.564 203.113 88.712 204.541 88.712C205.423 88.712 206.207 88.278 206.669 87.606L207.803 88.362C207.103 89.412 205.899 90.112 204.541 90.112ZM212.843 90.112C210.505 90.112 208.755 88.32 208.755 86.136C208.755 83.966 210.505 82.202 212.661 82.202C214.901 82.202 216.567 83.966 216.567 86.136C216.567 86.318 216.539 86.584 216.525 86.78H210.225C210.435 87.942 211.513 88.824 212.843 88.824C213.795 88.824 214.551 88.432 215.041 87.83L216.147 88.516C215.419 89.482 214.145 90.112 212.843 90.112ZM210.211 85.66H215.153C215.083 84.47 214.089 83.476 212.675 83.476C211.317 83.476 210.295 84.47 210.211 85.66ZM5.838 103.45H0.686V102.316H5.838V103.45ZM17.9659 108H10.7279V107.062L14.9699 103.324C15.7399 102.652 16.3419 101.896 16.3419 101C16.3419 99.726 15.4319 98.942 14.2979 98.942C13.2059 98.942 12.4079 99.684 12.1139 100.468L10.8539 100.02C11.2739 98.648 12.6739 97.584 14.2699 97.584C16.1879 97.584 17.6999 98.9 17.6999 101C17.6999 102.26 16.8879 103.324 15.9079 104.192L12.9119 106.712H17.9659V108ZM23.3521 108.182C21.0281 108.182 19.3481 106.194 19.3481 102.89C19.3481 99.572 21.0281 97.626 23.3521 97.626C25.6621 97.626 27.3421 99.572 27.3421 102.89C27.3421 106.194 25.6621 108.182 23.3521 108.182ZM23.3521 106.81C24.7661 106.81 25.9561 105.564 25.9561 102.862C25.9561 100.23 24.7661 98.998 23.3521 98.998C21.9101 98.998 20.7341 100.23 20.7341 102.862C20.7341 105.564 21.9101 106.81 23.3521 106.81ZM35.6437 108H28.4057V107.062L32.6477 103.324C33.4177 102.652 34.0197 101.896 34.0197 101C34.0197 99.726 33.1097 98.942 31.9757 98.942C30.8837 98.942 30.0857 99.684 29.7917 100.468L28.5317 100.02C28.9517 98.648 30.3517 97.584 31.9477 97.584C33.8657 97.584 35.3777 98.9 35.3777 101C35.3777 102.26 34.5657 103.324 33.5857 104.192L30.5897 106.712H35.6437V108ZM40.3578 108.196C38.6498 108.196 37.2778 107.314 36.7038 106.096L37.9358 105.55C38.2718 106.25 39.2518 106.824 40.3298 106.824C41.6458 106.824 42.5558 106.054 42.5558 104.976C42.5558 103.828 41.4638 103.156 40.2038 103.156H39.6858V101.882H40.2178C41.2538 101.882 42.1638 101.308 42.1638 100.398C42.1638 99.502 41.3518 98.9 40.2738 98.9C39.4898 98.9 38.8178 99.236 38.5098 99.712L37.2498 99.208C37.7538 98.242 38.9718 97.556 40.2738 97.556C42.0238 97.556 43.5358 98.522 43.5358 100.3C43.5358 101.28 42.9478 102.05 42.0798 102.484C43.1718 102.946 43.9278 103.87 43.9278 105.074C43.9278 106.964 42.3738 108.196 40.3578 108.196ZM50.2451 100.762H49.2931L49.1391 97.78H50.3851L50.2451 100.762ZM52.4011 100.762H51.4491L51.2951 97.78H52.5551L52.4011 100.762ZM58.4746 108H54.3726V97.78H58.0266C59.9166 97.78 61.1766 98.872 61.1766 100.426C61.1766 101.364 60.7006 102.092 59.9446 102.526C61.0366 102.89 61.7926 103.786 61.7926 105.06C61.7926 106.754 60.4626 108 58.4746 108ZM55.8146 99.11V102.064L58.0826 102.05C59.0766 102.036 59.7626 101.434 59.7626 100.622C59.7626 99.796 59.1746 99.11 57.9986 99.11H55.8146ZM55.8146 103.338V106.6H58.4326C59.6086 106.6 60.3086 105.914 60.3086 104.962C60.3086 103.996 59.5386 103.338 58.5166 103.338H55.8146ZM64.7098 108H63.3518V100.3H64.6118L64.6958 101.56C65.1438 100.734 66.0118 100.244 67.1458 100.258C67.3418 100.258 67.5378 100.272 67.7198 100.3L67.4398 101.616C67.3558 101.602 67.2578 101.588 67.1738 101.588C65.8718 101.588 64.7098 102.316 64.7098 104.444V108ZM69.7526 99.516C69.2766 99.516 68.8846 99.124 68.8846 98.648C68.8846 98.172 69.2766 97.78 69.7526 97.78C70.2146 97.78 70.6066 98.172 70.6066 98.648C70.6066 99.124 70.2146 99.516 69.7526 99.516ZM70.4246 108H69.0666V100.3H70.4246V108ZM75.7199 108.098C73.6479 108.098 71.9679 106.32 71.9679 104.15C71.9679 101.966 73.6479 100.188 75.7199 100.188C76.9659 100.188 78.0859 100.916 78.5479 101.882V97.08H79.9199V108H78.6599L78.5899 106.39C78.1139 107.356 76.9799 108.098 75.7199 108.098ZM75.9439 106.74C77.3859 106.74 78.5479 105.578 78.5479 104.15C78.5479 102.708 77.3859 101.532 75.9439 101.532C74.5159 101.532 73.3539 102.708 73.3539 104.15C73.3539 105.578 74.5159 106.74 75.9439 106.74ZM85.1942 111.22C83.8922 111.22 82.6322 110.632 81.9042 109.68L82.9402 108.882C83.4722 109.512 84.3542 109.904 85.2642 109.904C86.7482 109.904 88.0362 109.05 88.0362 107.02V106.432C87.5742 107.37 86.4542 108.098 85.2082 108.098C83.1362 108.098 81.4562 106.32 81.4562 104.15C81.4562 101.966 83.1362 100.188 85.2082 100.188C86.4682 100.188 87.6022 100.944 88.0782 101.924L88.1482 100.3H89.4082V106.796C89.4082 109.778 87.6162 111.22 85.1942 111.22ZM85.4322 106.74C86.8742 106.74 88.0362 105.578 88.0362 104.15C88.0362 102.708 86.8742 101.532 85.4322 101.532C84.0042 101.532 82.8422 102.708 82.8422 104.15C82.8422 105.578 84.0042 106.74 85.4322 106.74ZM92.0924 99.516C91.6164 99.516 91.2244 99.124 91.2244 98.648C91.2244 98.172 91.6164 97.78 92.0924 97.78C92.5544 97.78 92.9464 98.172 92.9464 98.648C92.9464 99.124 92.5544 99.516 92.0924 99.516ZM92.7644 108H91.4064V100.3H92.7644V108ZM96.1277 108H94.7697V100.3H96.0297L96.0997 101.658C96.5197 100.846 97.3457 100.188 98.5217 100.188C100.314 100.188 101.672 101.42 101.672 104.08V108H100.3V104.08C100.3 102.33 99.3477 101.532 98.2137 101.532C97.0937 101.532 96.1277 102.316 96.1277 104.08V108ZM106.782 111.22C105.48 111.22 104.22 110.632 103.492 109.68L104.528 108.882C105.06 109.512 105.942 109.904 106.852 109.904C108.336 109.904 109.624 109.05 109.624 107.02V106.432C109.162 107.37 108.042 108.098 106.796 108.098C104.724 108.098 103.044 106.32 103.044 104.15C103.044 101.966 104.724 100.188 106.796 100.188C108.056 100.188 109.19 100.944 109.666 101.924L109.736 100.3H110.996V106.796C110.996 109.778 109.204 111.22 106.782 111.22ZM107.02 106.74C108.462 106.74 109.624 105.578 109.624 104.15C109.624 102.708 108.462 101.532 107.02 101.532C105.592 101.532 104.43 102.708 104.43 104.15C104.43 105.578 105.592 106.74 107.02 106.74ZM120.14 108.154C118.824 108.154 117.536 107.706 116.458 106.544L117.368 105.62C118.096 106.348 119.006 106.81 120.154 106.824C121.386 106.824 122.254 106.236 122.254 105.214C122.254 102.736 116.654 103.842 116.654 100.286C116.654 98.774 117.886 97.612 119.986 97.612C121.092 97.612 122.492 98.06 123.388 99.264L122.366 100.062C121.862 99.362 120.938 98.956 120.056 98.942C118.838 98.928 118.054 99.502 118.054 100.272C118.054 102.512 123.668 101.448 123.668 105.144C123.668 106.992 122.198 108.168 120.14 108.154ZM128.799 108.112C126.615 108.112 124.851 106.32 124.851 104.136C124.851 101.966 126.615 100.202 128.799 100.202C130.129 100.202 131.305 100.86 132.033 101.868L130.899 102.624C130.423 101.994 129.653 101.588 128.799 101.588C127.371 101.588 126.237 102.736 126.237 104.136C126.237 105.564 127.371 106.712 128.799 106.712C129.681 106.712 130.465 106.278 130.927 105.606L132.061 106.362C131.361 107.412 130.157 108.112 128.799 108.112ZM134.27 99.516C133.794 99.516 133.402 99.124 133.402 98.648C133.402 98.172 133.794 97.78 134.27 97.78C134.732 97.78 135.124 98.172 135.124 98.648C135.124 99.124 134.732 99.516 134.27 99.516ZM134.942 108H133.584V100.3H134.942V108ZM140.573 108.112C138.235 108.112 136.485 106.32 136.485 104.136C136.485 101.966 138.235 100.202 140.391 100.202C142.631 100.202 144.297 101.966 144.297 104.136C144.297 104.318 144.269 104.584 144.255 104.78H137.955C138.165 105.942 139.243 106.824 140.573 106.824C141.525 106.824 142.281 106.432 142.771 105.83L143.877 106.516C143.149 107.482 141.875 108.112 140.573 108.112ZM137.941 103.66H142.883C142.813 102.47 141.819 101.476 140.405 101.476C139.047 101.476 138.025 102.47 137.941 103.66ZM147.192 108H145.834V100.3H147.094L147.164 101.658C147.584 100.846 148.41 100.188 149.586 100.188C151.378 100.188 152.736 101.42 152.736 104.08V108H151.364V104.08C151.364 102.33 150.412 101.532 149.278 101.532C148.158 101.532 147.192 102.316 147.192 104.08V108ZM158.057 108.112C155.873 108.112 154.109 106.32 154.109 104.136C154.109 101.966 155.873 100.202 158.057 100.202C159.387 100.202 160.562 100.86 161.291 101.868L160.157 102.624C159.681 101.994 158.911 101.588 158.057 101.588C156.629 101.588 155.495 102.736 155.495 104.136C155.495 105.564 156.629 106.712 158.057 106.712C158.939 106.712 159.723 106.278 160.185 105.606L161.319 106.362C160.619 107.412 159.415 108.112 158.057 108.112ZM166.359 108.112C164.021 108.112 162.271 106.32 162.271 104.136C162.271 101.966 164.021 100.202 166.177 100.202C168.417 100.202 170.083 101.966 170.083 104.136C170.083 104.318 170.055 104.584 170.041 104.78H163.741C163.951 105.942 165.029 106.824 166.359 106.824C167.311 106.824 168.067 106.432 168.557 105.83L169.663 106.516C168.935 107.482 167.661 108.112 166.359 108.112ZM163.727 103.66H168.669C168.599 102.47 167.605 101.476 166.191 101.476C164.833 101.476 163.811 102.47 163.727 103.66ZM174.384 108.14C173.278 108.14 171.85 107.776 170.954 106.796L171.892 105.9C172.41 106.474 173.418 106.852 174.384 106.852C175.392 106.852 176.092 106.46 176.092 105.788C176.092 104.206 171.22 105.172 171.22 102.316C171.22 101.056 172.368 100.174 174.132 100.174C175.126 100.174 176.386 100.44 177.226 101.448L176.386 102.288C175.854 101.644 174.888 101.406 174.174 101.406C173.25 101.406 172.592 101.742 172.592 102.33C172.592 103.73 177.464 102.862 177.464 105.746C177.464 107.398 175.994 108.14 174.384 108.14ZM4.886 126H3.444V117.166H0.322V115.78H8.008V117.166H4.886V126ZM12.5331 126.112C10.3491 126.112 8.58506 124.32 8.58506 122.136C8.58506 119.966 10.3491 118.202 12.5331 118.202C14.7031 118.202 16.4811 119.966 16.4811 122.136C16.4811 124.32 14.7031 126.112 12.5331 126.112ZM12.5331 124.712C13.9471 124.712 15.0951 123.564 15.0951 122.136C15.0951 120.736 13.9471 119.588 12.5331 119.588C11.1051 119.588 9.97106 120.736 9.97106 122.136C9.97106 123.564 11.1051 124.712 12.5331 124.712ZM21.3055 129.22C20.0035 129.22 18.7435 128.632 18.0155 127.68L19.0515 126.882C19.5835 127.512 20.4655 127.904 21.3755 127.904C22.8595 127.904 24.1475 127.05 24.1475 125.02V124.432C23.6855 125.37 22.5655 126.098 21.3195 126.098C19.2475 126.098 17.5675 124.32 17.5675 122.15C17.5675 119.966 19.2475 118.188 21.3195 118.188C22.5795 118.188 23.7135 118.944 24.1895 119.924L24.2595 118.3H25.5195V124.796C25.5195 127.778 23.7275 129.22 21.3055 129.22ZM21.5435 124.74C22.9855 124.74 24.1475 123.578 24.1475 122.15C24.1475 120.708 22.9855 119.532 21.5435 119.532C20.1155 119.532 18.9535 120.708 18.9535 122.15C18.9535 123.578 20.1155 124.74 21.5435 124.74ZM31.1438 126.112C28.8058 126.112 27.0558 124.32 27.0558 122.136C27.0558 119.966 28.8058 118.202 30.9618 118.202C33.2018 118.202 34.8678 119.966 34.8678 122.136C34.8678 122.318 34.8398 122.584 34.8258 122.78H28.5258C28.7358 123.942 29.8138 124.824 31.1438 124.824C32.0958 124.824 32.8518 124.432 33.3418 123.83L34.4478 124.516C33.7198 125.482 32.4458 126.112 31.1438 126.112ZM28.5118 121.66H33.4538C33.3838 120.47 32.3898 119.476 30.9758 119.476C29.6178 119.476 28.5958 120.47 28.5118 121.66ZM39.1668 126.126C37.7528 126.126 36.5768 125.272 36.5768 123.13V119.532H35.5408V118.3H36.6188L36.7868 115.78H37.9348V118.3H39.7828V119.532H37.9348V123.116C37.9348 124.222 38.4808 124.796 39.3488 124.796C39.5448 124.796 39.7548 124.768 39.9368 124.698L40.2868 125.916C39.9648 126.056 39.5728 126.126 39.1668 126.126ZM43.0945 126H41.7365V115.08H43.0945V119.63C43.5145 118.832 44.3405 118.188 45.4885 118.188C47.2805 118.188 48.6385 119.42 48.6385 122.08V126H47.2665V122.08C47.2665 120.33 46.3145 119.532 45.1805 119.532C44.0605 119.532 43.0945 120.316 43.0945 122.08V126ZM54.0988 126.112C51.7608 126.112 50.0108 124.32 50.0108 122.136C50.0108 119.966 51.7608 118.202 53.9168 118.202C56.1568 118.202 57.8228 119.966 57.8228 122.136C57.8228 122.318 57.7948 122.584 57.7808 122.78H51.4808C51.6908 123.942 52.7688 124.824 54.0988 124.824C55.0508 124.824 55.8068 124.432 56.2968 123.83L57.4028 124.516C56.6748 125.482 55.4008 126.112 54.0988 126.112ZM51.4668 121.66H56.4088C56.3388 120.47 55.3448 119.476 53.9308 119.476C52.5728 119.476 51.5508 120.47 51.4668 121.66ZM60.7176 126H59.3596V118.3H60.6196L60.7036 119.56C61.1516 118.734 62.0196 118.244 63.1536 118.258C63.3496 118.258 63.5456 118.272 63.7276 118.3L63.4476 119.616C63.3636 119.602 63.2656 119.588 63.1816 119.588C61.8796 119.588 60.7176 120.316 60.7176 122.444V126ZM65.6484 120.162C65.1864 120.162 64.8084 119.784 64.8084 119.322C64.8084 118.846 65.1864 118.468 65.6484 118.468C66.1104 118.468 66.4884 118.846 66.4884 119.322C66.4884 119.784 66.1104 120.162 65.6484 120.162ZM65.6484 125.818C65.1864 125.818 64.8084 125.44 64.8084 124.978C64.8084 124.502 65.1864 124.124 65.6484 124.124C66.1104 124.124 66.4884 124.502 66.4884 124.978C66.4884 125.44 66.1104 125.818 65.6484 125.818ZM73.6291 126H72.1871V115.78H73.6291V126ZM77.1238 126H75.7658V118.3H77.0258L77.0958 119.658C77.5158 118.846 78.3418 118.188 79.5178 118.188C81.3098 118.188 82.6678 119.42 82.6678 122.08V126H81.2958V122.08C81.2958 120.33 80.3438 119.532 79.2098 119.532C78.0898 119.532 77.1238 120.316 77.1238 122.08V126ZM85.8601 126H84.5021V118.3H85.7621L85.8321 119.658C86.2521 118.846 87.0781 118.188 88.2541 118.188C90.0461 118.188 91.4041 119.42 91.4041 122.08V126H90.0321V122.08C90.0321 120.33 89.0801 119.532 87.9461 119.532C86.8261 119.532 85.8601 120.316 85.8601 122.08V126ZM96.7245 126.112C94.5405 126.112 92.7765 124.32 92.7765 122.136C92.7765 119.966 94.5405 118.202 96.7245 118.202C98.8945 118.202 100.672 119.966 100.672 122.136C100.672 124.32 98.8945 126.112 96.7245 126.112ZM96.7245 124.712C98.1385 124.712 99.2865 123.564 99.2865 122.136C99.2865 120.736 98.1385 119.588 96.7245 119.588C95.2965 119.588 94.1625 120.736 94.1625 122.136C94.1625 123.564 95.2965 124.712 96.7245 124.712ZM105.38 126H104.022L100.998 118.3H102.468L104.708 123.956L106.934 118.3H108.404L105.38 126ZM112.47 126.098C110.398 126.098 108.718 124.32 108.718 122.15C108.718 119.966 110.398 118.188 112.47 118.188C113.73 118.188 114.864 118.944 115.34 119.924L115.41 118.3H116.67V126H115.41L115.34 124.39C114.864 125.356 113.73 126.098 112.47 126.098ZM112.694 124.74C114.136 124.74 115.298 123.578 115.298 122.15C115.298 120.708 114.136 119.532 112.694 119.532C111.266 119.532 110.104 120.708 110.104 122.15C110.104 123.578 111.266 124.74 112.694 124.74ZM121.608 126.126C120.194 126.126 119.018 125.272 119.018 123.13V119.532H117.982V118.3H119.06L119.228 115.78H120.376V118.3H122.224V119.532H120.376V123.116C120.376 124.222 120.922 124.796 121.79 124.796C121.986 124.796 122.196 124.768 122.378 124.698L122.728 125.916C122.406 126.056 122.014 126.126 121.608 126.126ZM124.864 117.516C124.388 117.516 123.996 117.124 123.996 116.648C123.996 116.172 124.388 115.78 124.864 115.78C125.326 115.78 125.718 116.172 125.718 116.648C125.718 117.124 125.326 117.516 124.864 117.516ZM125.536 126H124.178V118.3H125.536V126ZM131.027 126.112C128.843 126.112 127.079 124.32 127.079 122.136C127.079 119.966 128.843 118.202 131.027 118.202C133.197 118.202 134.975 119.966 134.975 122.136C134.975 124.32 133.197 126.112 131.027 126.112ZM131.027 124.712C132.441 124.712 133.589 123.564 133.589 122.136C133.589 120.736 132.441 119.588 131.027 119.588C129.599 119.588 128.465 120.736 128.465 122.136C128.465 123.564 129.599 124.712 131.027 124.712ZM137.882 126H136.524V118.3H137.784L137.854 119.658C138.274 118.846 139.1 118.188 140.276 118.188C142.068 118.188 143.426 119.42 143.426 122.08V126H142.054V122.08C142.054 120.33 141.102 119.532 139.968 119.532C138.848 119.532 137.882 120.316 137.882 122.08V126ZM145.554 126.098C145.092 126.098 144.714 125.706 144.714 125.244C144.714 124.782 145.092 124.404 145.554 124.404C146.016 124.404 146.394 124.782 146.394 125.244C146.394 125.706 146.016 126.098 145.554 126.098ZM148.138 126.098C147.676 126.098 147.298 125.706 147.298 125.244C147.298 124.782 147.676 124.404 148.138 124.404C148.6 124.404 148.978 124.782 148.978 125.244C148.978 125.706 148.6 126.098 148.138 126.098ZM150.722 126.098C150.26 126.098 149.882 125.706 149.882 125.244C149.882 124.782 150.26 124.404 150.722 124.404C151.184 124.404 151.562 124.782 151.562 125.244C151.562 125.706 151.184 126.098 150.722 126.098Z" fill="black"/>
<path d="M4.592 163H2V153.736H0.4V151.32H4.592V163ZM10.7513 163.16C8.38325 163.16 6.47925 161.4 6.47925 158.984C6.47925 158.072 6.75125 157.224 7.24725 156.568L10.8633 151.304H14.0153L11.3593 155.016C13.3433 155.128 15.0553 156.776 15.0553 158.984C15.0553 161.4 13.1193 163.16 10.7513 163.16ZM10.7513 160.568C11.6953 160.568 12.4313 159.864 12.4313 158.984C12.4313 158.104 11.6953 157.416 10.7513 157.416C9.83925 157.416 9.10325 158.104 9.10325 158.984C9.10325 159.864 9.83925 160.568 10.7513 160.568ZM18.5564 156.664C16.9884 156.664 15.8844 155.4 15.8844 153.496C15.8844 151.624 16.9884 150.392 18.5564 150.392C20.1244 150.392 21.2124 151.624 21.2124 153.496C21.2124 155.4 20.1244 156.664 18.5564 156.664ZM19.5804 163H17.8204L24.2844 150.504H26.0444L19.5804 163ZM18.5404 155.128C19.1484 155.128 19.6764 154.696 19.6764 153.496C19.6764 152.36 19.1484 151.928 18.5404 151.928C17.9804 151.928 17.4204 152.36 17.4204 153.496C17.4204 154.696 17.9804 155.128 18.5404 155.128ZM25.3244 163.16C23.7564 163.16 22.6524 161.896 22.6524 159.992C22.6524 158.12 23.7564 156.888 25.3244 156.888C26.8764 156.888 27.9644 158.12 27.9644 159.992C27.9644 161.896 26.8764 163.16 25.3244 163.16ZM25.3084 161.624C25.9004 161.624 26.4284 161.192 26.4284 159.992C26.4284 158.856 25.9004 158.424 25.3084 158.424C24.7324 158.424 24.1884 158.856 24.1884 159.992C24.1884 161.192 24.7324 161.624 25.3084 161.624Z" fill="#F39733"/>
<path d="M38.0255 158.45H32.8735V157.316H38.0255V158.45ZM50.1534 163H42.9154V162.062L47.1574 158.324C47.9274 157.652 48.5294 156.896 48.5294 156C48.5294 154.726 47.6194 153.942 46.4854 153.942C45.3934 153.942 44.5954 154.684 44.3014 155.468L43.0414 155.02C43.4614 153.648 44.8614 152.584 46.4574 152.584C48.3754 152.584 49.8874 153.9 49.8874 156C49.8874 157.26 49.0754 158.324 48.0954 159.192L45.0994 161.712H50.1534V163ZM53.2156 163H51.8576V155.3H53.1176L53.1876 156.658C53.6076 155.846 54.4336 155.188 55.6096 155.188C57.4016 155.188 58.7596 156.42 58.7596 159.08V163H57.3876V159.08C57.3876 157.33 56.4356 156.532 55.3016 156.532C54.1816 156.532 53.2156 157.316 53.2156 159.08V163ZM63.8839 163.098C61.8119 163.098 60.1319 161.32 60.1319 159.15C60.1319 156.966 61.8119 155.188 63.8839 155.188C65.1299 155.188 66.2499 155.916 66.7119 156.882V152.08H68.0839V163H66.8239L66.7539 161.39C66.2779 162.356 65.1439 163.098 63.8839 163.098ZM64.1079 161.74C65.5499 161.74 66.7119 160.578 66.7119 159.15C66.7119 157.708 65.5499 156.532 64.1079 156.532C62.6799 156.532 61.5179 157.708 61.5179 159.15C61.5179 160.578 62.6799 161.74 64.1079 161.74ZM75.4923 163H74.0503V152.78H77.9283C80.0003 152.78 81.3723 154.222 81.3723 155.986C81.3723 157.414 80.4343 158.618 79.0343 158.954L81.5403 163H79.8603L77.5363 159.206H75.4923V163ZM75.4923 154.194V157.792H77.9003C79.1323 157.792 79.8883 156.966 79.8883 155.986C79.8883 155.034 79.1323 154.194 77.9003 154.194H75.4923ZM86.2317 163.112C83.8937 163.112 82.1437 161.32 82.1437 159.136C82.1437 156.966 83.8937 155.202 86.0497 155.202C88.2897 155.202 89.9557 156.966 89.9557 159.136C89.9557 159.318 89.9277 159.584 89.9137 159.78H83.6137C83.8237 160.942 84.9017 161.824 86.2317 161.824C87.1837 161.824 87.9397 161.432 88.4297 160.83L89.5357 161.516C88.8077 162.482 87.5337 163.112 86.2317 163.112ZM83.5997 158.66H88.5417C88.4717 157.47 87.4777 156.476 86.0637 156.476C84.7057 156.476 83.6837 157.47 83.5997 158.66ZM94.2569 163.14C93.1509 163.14 91.7229 162.776 90.8269 161.796L91.7649 160.9C92.2829 161.474 93.2909 161.852 94.2569 161.852C95.2649 161.852 95.9649 161.46 95.9649 160.788C95.9649 159.206 91.0929 160.172 91.0929 157.316C91.0929 156.056 92.2409 155.174 94.0049 155.174C94.9989 155.174 96.2589 155.44 97.0989 156.448L96.2589 157.288C95.7269 156.644 94.7609 156.406 94.0469 156.406C93.1229 156.406 92.4649 156.742 92.4649 157.33C92.4649 158.73 97.3369 157.862 97.3369 160.746C97.3369 162.398 95.8669 163.14 94.2569 163.14ZM102.351 163.112C100.013 163.112 98.2628 161.32 98.2628 159.136C98.2628 156.966 100.013 155.202 102.169 155.202C104.409 155.202 106.075 156.966 106.075 159.136C106.075 159.318 106.047 159.584 106.033 159.78H99.7328C99.9428 160.942 101.021 161.824 102.351 161.824C103.303 161.824 104.059 161.432 104.549 160.83L105.655 161.516C104.927 162.482 103.653 163.112 102.351 163.112ZM99.7188 158.66H104.661C104.591 157.47 103.597 156.476 102.183 156.476C100.825 156.476 99.8028 157.47 99.7188 158.66ZM110.902 163.098C108.83 163.098 107.15 161.32 107.15 159.15C107.15 156.966 108.83 155.188 110.902 155.188C112.162 155.188 113.296 155.944 113.772 156.924L113.842 155.3H115.102V163H113.842L113.772 161.39C113.296 162.356 112.162 163.098 110.902 163.098ZM111.126 161.74C112.568 161.74 113.73 160.578 113.73 159.15C113.73 157.708 112.568 156.532 111.126 156.532C109.698 156.532 108.536 157.708 108.536 159.15C108.536 160.578 109.698 161.74 111.126 161.74ZM118.458 163H117.1V155.3H118.36L118.444 156.56C118.892 155.734 119.76 155.244 120.894 155.258C121.09 155.258 121.286 155.272 121.468 155.3L121.188 156.616C121.104 156.602 121.006 156.588 120.922 156.588C119.62 156.588 118.458 157.316 118.458 159.444V163ZM125.849 163.112C123.665 163.112 121.901 161.32 121.901 159.136C121.901 156.966 123.665 155.202 125.849 155.202C127.179 155.202 128.355 155.86 129.083 156.868L127.949 157.624C127.473 156.994 126.703 156.588 125.849 156.588C124.421 156.588 123.287 157.736 123.287 159.136C123.287 160.564 124.421 161.712 125.849 161.712C126.731 161.712 127.515 161.278 127.977 160.606L129.111 161.362C128.411 162.412 127.207 163.112 125.849 163.112ZM131.938 163H130.58V152.08H131.938V156.63C132.358 155.832 133.184 155.188 134.332 155.188C136.124 155.188 137.482 156.42 137.482 159.08V163H136.11V159.08C136.11 157.33 135.158 156.532 134.024 156.532C132.904 156.532 131.938 157.316 131.938 159.08V163ZM146.435 163.098C144.363 163.098 142.683 161.32 142.683 159.15C142.683 156.966 144.363 155.188 146.435 155.188C147.695 155.188 148.829 155.944 149.305 156.924L149.375 155.3H150.635V163H149.375L149.305 161.39C148.829 162.356 147.695 163.098 146.435 163.098ZM146.659 161.74C148.101 161.74 149.263 160.578 149.263 159.15C149.263 157.708 148.101 156.532 146.659 156.532C145.231 156.532 144.069 157.708 144.069 159.15C144.069 160.578 145.231 161.74 146.659 161.74ZM153.991 163H152.633V155.3H153.893L153.963 156.658C154.383 155.846 155.209 155.188 156.385 155.188C158.177 155.188 159.535 156.42 159.535 159.08V163H158.163V159.08C158.163 157.33 157.211 156.532 156.077 156.532C154.957 156.532 153.991 157.316 153.991 159.08V163ZM164.659 163.098C162.587 163.098 160.907 161.32 160.907 159.15C160.907 156.966 162.587 155.188 164.659 155.188C165.905 155.188 167.025 155.916 167.487 156.882V152.08H168.859V163H167.599L167.529 161.39C167.053 162.356 165.919 163.098 164.659 163.098ZM164.883 161.74C166.325 161.74 167.487 160.578 167.487 159.15C167.487 157.708 166.325 156.532 164.883 156.532C163.455 156.532 162.293 157.708 162.293 159.15C162.293 160.578 163.455 161.74 164.883 161.74ZM176.268 163H174.826V152.78H178.704C180.776 152.78 182.148 154.222 182.148 155.986C182.148 157.764 180.776 159.206 178.704 159.206H176.268V163ZM176.268 154.194V157.792H178.676C179.908 157.792 180.664 156.966 180.664 155.986C180.664 155.034 179.908 154.194 178.676 154.194H176.268ZM186.84 163.112C184.656 163.112 182.892 161.32 182.892 159.136C182.892 156.966 184.656 155.202 186.84 155.202C189.01 155.202 190.788 156.966 190.788 159.136C190.788 161.32 189.01 163.112 186.84 163.112ZM186.84 161.712C188.254 161.712 189.402 160.564 189.402 159.136C189.402 157.736 188.254 156.588 186.84 156.588C185.412 156.588 184.278 157.736 184.278 159.136C184.278 160.564 185.412 161.712 186.84 161.712ZM195.101 163.14C193.995 163.14 192.567 162.776 191.671 161.796L192.609 160.9C193.127 161.474 194.135 161.852 195.101 161.852C196.109 161.852 196.809 161.46 196.809 160.788C196.809 159.206 191.937 160.172 191.937 157.316C191.937 156.056 193.085 155.174 194.849 155.174C195.843 155.174 197.103 155.44 197.943 156.448L197.103 157.288C196.571 156.644 195.605 156.406 194.891 156.406C193.967 156.406 193.309 156.742 193.309 157.33C193.309 158.73 198.181 157.862 198.181 160.746C198.181 162.398 196.711 163.14 195.101 163.14ZM202.741 163.126C201.327 163.126 200.151 162.272 200.151 160.13V156.532H199.115V155.3H200.193L200.361 152.78H201.509V155.3H203.357V156.532H201.509V160.116C201.509 161.222 202.055 161.796 202.923 161.796C203.119 161.796 203.329 161.768 203.511 161.698L203.861 162.916C203.539 163.056 203.147 163.126 202.741 163.126ZM208.54 163.112C206.202 163.112 204.452 161.32 204.452 159.136C204.452 156.966 206.202 155.202 208.358 155.202C210.598 155.202 212.264 156.966 212.264 159.136C212.264 159.318 212.236 159.584 212.222 159.78H205.922C206.132 160.942 207.21 161.824 208.54 161.824C209.492 161.824 210.248 161.432 210.738 160.83L211.844 161.516C211.116 162.482 209.842 163.112 208.54 163.112ZM205.908 158.66H210.85C210.78 157.47 209.786 156.476 208.372 156.476C207.014 156.476 205.992 157.47 205.908 158.66ZM215.159 163H213.801V155.3H215.061L215.145 156.56C215.593 155.734 216.461 155.244 217.595 155.258C217.791 155.258 217.987 155.272 218.169 155.3L217.889 156.616C217.805 156.602 217.707 156.588 217.623 156.588C216.321 156.588 215.159 157.316 215.159 159.444V163ZM5.95 181.168C3.038 181.168 0.686 178.802 0.686 175.89C0.686 172.992 3.038 170.64 5.95 170.64C7.616 170.64 9.114 171.41 10.08 172.628L8.89 173.51C8.19 172.656 7.126 172.11 5.95 172.11C3.864 172.11 2.156 173.79 2.156 175.876C2.156 178.004 3.864 179.684 5.95 179.684C7.154 179.684 8.232 179.124 8.918 178.228L10.178 179.012C9.226 180.314 7.686 181.168 5.95 181.168ZM15.035 181.112C12.851 181.112 11.087 179.32 11.087 177.136C11.087 174.966 12.851 173.202 15.035 173.202C17.205 173.202 18.983 174.966 18.983 177.136C18.983 179.32 17.205 181.112 15.035 181.112ZM15.035 179.712C16.449 179.712 17.597 178.564 17.597 177.136C17.597 175.736 16.449 174.588 15.035 174.588C13.607 174.588 12.473 175.736 12.473 177.136C12.473 178.564 13.607 179.712 15.035 179.712ZM21.8894 181H20.5314V173.3H21.7914L21.8614 174.658C22.2814 173.846 23.1074 173.188 24.2834 173.188C26.0754 173.188 27.4334 174.42 27.4334 177.08V181H26.0614V177.08C26.0614 175.33 25.1094 174.532 23.9754 174.532C22.8554 174.532 21.8894 175.316 21.8894 177.08V181ZM30.9198 174.532V181.014L29.5618 180.986V174.532H28.5818V173.3H29.5618V173.006C29.5618 170.682 30.7798 169.87 32.2498 169.87C32.5998 169.87 33.0058 169.94 33.2858 170.038L32.9218 171.256C32.7538 171.228 32.5438 171.186 32.3618 171.186C31.4938 171.186 30.9198 171.62 30.9198 173.006V173.3H32.9078V174.532H30.9198ZM37.6106 181.112C35.2726 181.112 33.5226 179.32 33.5226 177.136C33.5226 174.966 35.2726 173.202 37.4286 173.202C39.6686 173.202 41.3346 174.966 41.3346 177.136C41.3346 177.318 41.3066 177.584 41.2926 177.78H34.9926C35.2026 178.942 36.2806 179.824 37.6106 179.824C38.5626 179.824 39.3186 179.432 39.8086 178.83L40.9146 179.516C40.1866 180.482 38.9126 181.112 37.6106 181.112ZM34.9786 176.66H39.9206C39.8506 175.47 38.8566 174.476 37.4426 174.476C36.0846 174.476 35.0626 175.47 34.9786 176.66ZM44.2293 181H42.8713V173.3H44.1313L44.2153 174.56C44.6633 173.734 45.5313 173.244 46.6653 173.258C46.8613 173.258 47.0573 173.272 47.2393 173.3L46.9593 174.616C46.8753 174.602 46.7773 174.588 46.6933 174.588C45.3913 174.588 44.2293 175.316 44.2293 177.444V181ZM51.761 181.112C49.423 181.112 47.673 179.32 47.673 177.136C47.673 174.966 49.423 173.202 51.579 173.202C53.819 173.202 55.485 174.966 55.485 177.136C55.485 177.318 55.457 177.584 55.443 177.78H49.143C49.353 178.942 50.431 179.824 51.761 179.824C52.713 179.824 53.469 179.432 53.959 178.83L55.065 179.516C54.337 180.482 53.063 181.112 51.761 181.112ZM49.129 176.66H54.071C54.001 175.47 53.007 174.476 51.593 174.476C50.235 174.476 49.213 175.47 49.129 176.66ZM58.3797 181H57.0217V173.3H58.2817L58.3517 174.658C58.7717 173.846 59.5977 173.188 60.7737 173.188C62.5657 173.188 63.9237 174.42 63.9237 177.08V181H62.5517V177.08C62.5517 175.33 61.5997 174.532 60.4657 174.532C59.3457 174.532 58.3797 175.316 58.3797 177.08V181ZM69.244 181.112C67.06 181.112 65.296 179.32 65.296 177.136C65.296 174.966 67.06 173.202 69.244 173.202C70.574 173.202 71.75 173.86 72.478 174.868L71.344 175.624C70.868 174.994 70.098 174.588 69.244 174.588C67.816 174.588 66.682 175.736 66.682 177.136C66.682 178.564 67.816 179.712 69.244 179.712C70.126 179.712 70.91 179.278 71.372 178.606L72.506 179.362C71.806 180.412 70.602 181.112 69.244 181.112ZM77.5461 181.112C75.2081 181.112 73.4581 179.32 73.4581 177.136C73.4581 174.966 75.2081 173.202 77.3641 173.202C79.6041 173.202 81.2701 174.966 81.2701 177.136C81.2701 177.318 81.2421 177.584 81.2281 177.78H74.9281C75.1381 178.942 76.2161 179.824 77.5461 179.824C78.4981 179.824 79.2541 179.432 79.7441 178.83L80.8501 179.516C80.1221 180.482 78.8481 181.112 77.5461 181.112ZM74.9141 176.66H79.8561C79.7861 175.47 78.7921 174.476 77.3781 174.476C76.0201 174.476 74.9981 175.47 74.9141 176.66ZM89.897 182.54H88.567C87.237 181.308 86.369 179.068 86.369 176.31C86.369 173.538 87.237 171.326 88.567 170.08H89.897C88.399 171.438 87.601 173.734 87.601 176.31C87.601 178.872 88.399 181.196 89.897 182.54ZM92.715 181H91.273V170.78H92.785L96.663 177.36L100.527 170.78H102.053V181H100.611V173.188L97.083 179.194H96.229L92.715 173.188V181ZM108.995 181.168C106.083 181.168 103.731 178.802 103.731 175.89C103.731 172.992 106.083 170.64 108.995 170.64C111.893 170.64 114.245 172.992 114.245 175.89C114.245 178.802 111.893 181.168 108.995 181.168ZM108.995 179.684C111.067 179.684 112.775 178.004 112.775 175.876C112.775 173.79 111.067 172.11 108.995 172.11C106.909 172.11 105.201 173.79 105.201 175.876C105.201 178.004 106.909 179.684 108.995 179.684ZM117.379 181H115.937V170.78H117.379V175.19H122.447V170.78H123.889V181H122.447V176.632H117.379V181ZM126.597 182.54H125.267C126.751 181.196 127.549 178.872 127.549 176.31C127.549 173.734 126.751 171.438 125.267 170.08H126.597C127.913 171.326 128.795 173.552 128.795 176.31C128.795 179.082 127.913 181.308 126.597 182.54Z" fill="black"/>
</svg>
