<svg width="225" height="185" viewBox="0 0 225 185" fill="none" xmlns="http://www.w3.org/2000/svg">
<path d="M4.592 17H2V7.736H0.4V5.32H4.592V17ZM10.6233 17H8.03125V7.736H6.43125V5.32H10.6233V17ZM15.1345 10.664C13.5665 10.664 12.4625 9.4 12.4625 7.496C12.4625 5.624 13.5665 4.392 15.1345 4.392C16.7025 4.392 17.7905 5.624 17.7905 7.496C17.7905 9.4 16.7025 10.664 15.1345 10.664ZM16.1585 17H14.3985L20.8625 4.504H22.6225L16.1585 17ZM15.1185 9.128C15.7265 9.128 16.2545 8.696 16.2545 7.496C16.2545 6.36 15.7265 5.928 15.1185 5.928C14.5585 5.928 13.9985 6.36 13.9985 7.496C13.9985 8.696 14.5585 9.128 15.1185 9.128ZM21.9025 17.16C20.3345 17.16 19.2305 15.896 19.2305 13.992C19.2305 12.12 20.3345 10.888 21.9025 10.888C23.4545 10.888 24.5425 12.12 24.5425 13.992C24.5425 15.896 23.4545 17.16 21.9025 17.16ZM21.8865 15.624C22.4785 15.624 23.0065 15.192 23.0065 13.992C23.0065 12.856 22.4785 12.424 21.8865 12.424C21.3105 12.424 20.7665 12.856 20.7665 13.992C20.7665 15.192 21.3105 15.624 21.8865 15.624Z" fill="#F39733"/>
<path d="M34.6036 12.45H29.4516V11.316H34.6036V12.45ZM43.4276 17.154C42.1116 17.154 40.8236 16.706 39.7456 15.544L40.6556 14.62C41.3836 15.348 42.2936 15.81 43.4416 15.824C44.6736 15.824 45.5416 15.236 45.5416 14.214C45.5416 11.736 39.9416 12.842 39.9416 9.286C39.9416 7.774 41.1736 6.612 43.2736 6.612C44.3796 6.612 45.7796 7.06 46.6756 8.264L45.6536 9.062C45.1496 8.362 44.2256 7.956 43.3436 7.942C42.1256 7.928 41.3416 8.502 41.3416 9.272C41.3416 11.512 46.9556 10.448 46.9556 14.144C46.9556 15.992 45.4856 17.168 43.4276 17.154ZM52.2258 17.112C49.8878 17.112 48.1378 15.32 48.1378 13.136C48.1378 10.966 49.8878 9.202 52.0438 9.202C54.2838 9.202 55.9498 10.966 55.9498 13.136C55.9498 13.318 55.9218 13.584 55.9078 13.78H49.6078C49.8178 14.942 50.8958 15.824 52.2258 15.824C53.1778 15.824 53.9338 15.432 54.4238 14.83L55.5298 15.516C54.8018 16.482 53.5278 17.112 52.2258 17.112ZM49.5938 12.66H54.5358C54.4658 11.47 53.4718 10.476 52.0578 10.476C50.6998 10.476 49.6778 11.47 49.5938 12.66ZM58.8445 17H57.4865V9.3H58.7465L58.8165 10.574C59.2085 9.678 60.0765 9.188 60.9165 9.188C62.1485 9.188 62.9465 9.902 63.2685 10.826C63.5905 9.916 64.3885 9.188 65.5085 9.188C67.1465 9.188 68.3645 10.238 68.3645 12.912V17H66.9925V12.912C66.9925 11.148 66.2085 10.532 65.2985 10.532C64.4445 10.532 63.6045 11.148 63.6045 12.912V17H62.2325V12.912C62.2325 11.148 61.4485 10.532 60.5385 10.532C59.6285 10.532 58.8445 11.316 58.8445 13.08V17ZM70.901 8.516C70.425 8.516 70.033 8.124 70.033 7.648C70.033 7.172 70.425 6.78 70.901 6.78C71.363 6.78 71.755 7.172 71.755 7.648C71.755 8.124 71.363 8.516 70.901 8.516ZM71.573 17H70.215V9.3H71.573V17ZM74.9363 17H73.5783V9.3H74.8383L74.9083 10.658C75.3283 9.846 76.1543 9.188 77.3303 9.188C79.1223 9.188 80.4803 10.42 80.4803 13.08V17H79.1083V13.08C79.1083 11.33 78.1563 10.532 77.0223 10.532C75.9023 10.532 74.9363 11.316 74.9363 13.08V17ZM85.6046 17.098C83.5326 17.098 81.8526 15.32 81.8526 13.15C81.8526 10.966 83.5326 9.188 85.6046 9.188C86.8646 9.188 87.9986 9.944 88.4746 10.924L88.5446 9.3H89.8046V17H88.5446L88.4746 15.39C87.9986 16.356 86.8646 17.098 85.6046 17.098ZM85.8286 15.74C87.2706 15.74 88.4326 14.578 88.4326 13.15C88.4326 11.708 87.2706 10.532 85.8286 10.532C84.4006 10.532 83.2386 11.708 83.2386 13.15C83.2386 14.578 84.4006 15.74 85.8286 15.74ZM93.1609 17H91.8029V9.3H93.0629L93.1469 10.56C93.5949 9.734 94.4629 9.244 95.5969 9.258C95.7929 9.258 95.9889 9.272 96.1709 9.3L95.8909 10.616C95.8069 10.602 95.7089 10.588 95.6249 10.588C94.3229 10.588 93.1609 11.316 93.1609 13.444V17ZM104.832 17.112C102.648 17.112 100.884 15.32 100.884 13.136C100.884 10.966 102.648 9.202 104.832 9.202C106.162 9.202 107.338 9.86 108.066 10.868L106.932 11.624C106.456 10.994 105.686 10.588 104.832 10.588C103.404 10.588 102.27 11.736 102.27 13.136C102.27 14.564 103.404 15.712 104.832 15.712C105.714 15.712 106.498 15.278 106.96 14.606L108.094 15.362C107.394 16.412 106.19 17.112 104.832 17.112ZM112.798 17.098C110.726 17.098 109.046 15.32 109.046 13.15C109.046 10.966 110.726 9.188 112.798 9.188C114.058 9.188 115.192 9.944 115.668 10.924L115.738 9.3H116.998V17H115.738L115.668 15.39C115.192 16.356 114.058 17.098 112.798 17.098ZM113.022 15.74C114.464 15.74 115.626 14.578 115.626 13.15C115.626 11.708 114.464 10.532 113.022 10.532C111.594 10.532 110.432 11.708 110.432 13.15C110.432 14.578 111.594 15.74 113.022 15.74ZM120.354 17H118.996V6.08H120.354V17ZM123.718 17H122.36V6.08H123.718V17ZM131.203 10.532V17.014L129.845 16.986V10.532H128.865V9.3H129.845V9.006C129.845 6.682 131.063 5.87 132.533 5.87C132.883 5.87 133.289 5.94 133.569 6.038L133.205 7.256C133.037 7.228 132.827 7.186 132.645 7.186C131.777 7.186 131.203 7.62 131.203 9.006V9.3H133.191V10.532H131.203ZM137.754 17.112C135.57 17.112 133.806 15.32 133.806 13.136C133.806 10.966 135.57 9.202 137.754 9.202C139.924 9.202 141.702 10.966 141.702 13.136C141.702 15.32 139.924 17.112 137.754 17.112ZM137.754 15.712C139.168 15.712 140.316 14.564 140.316 13.136C140.316 11.736 139.168 10.588 137.754 10.588C136.326 10.588 135.192 11.736 135.192 13.136C135.192 14.564 136.326 15.712 137.754 15.712ZM144.608 17H143.25V9.3H144.51L144.594 10.56C145.042 9.734 145.91 9.244 147.044 9.258C147.24 9.258 147.436 9.272 147.618 9.3L147.338 10.616C147.254 10.602 147.156 10.588 147.072 10.588C145.77 10.588 144.608 11.316 144.608 13.444V17ZM154.151 20.08H152.793V9.3H154.053L154.123 10.896C154.585 9.944 155.719 9.202 156.979 9.202C159.051 9.202 160.731 10.966 160.731 13.136C160.731 15.32 159.051 17.112 156.979 17.112C155.733 17.112 154.613 16.37 154.151 15.418V20.08ZM156.769 15.754C158.197 15.754 159.359 14.578 159.359 13.136C159.359 11.708 158.197 10.546 156.769 10.546C155.313 10.546 154.151 11.708 154.151 13.136C154.151 14.578 155.313 15.754 156.769 15.754ZM163.639 17H162.281V9.3H163.541L163.625 10.56C164.073 9.734 164.941 9.244 166.075 9.258C166.271 9.258 166.467 9.272 166.649 9.3L166.369 10.616C166.285 10.602 166.187 10.588 166.103 10.588C164.801 10.588 163.639 11.316 163.639 13.444V17ZM171.031 17.112C168.847 17.112 167.083 15.32 167.083 13.136C167.083 10.966 168.847 9.202 171.031 9.202C173.201 9.202 174.979 10.966 174.979 13.136C174.979 15.32 173.201 17.112 171.031 17.112ZM171.031 15.712C172.445 15.712 173.593 14.564 173.593 13.136C173.593 11.736 172.445 10.588 171.031 10.588C169.603 10.588 168.469 11.736 168.469 13.136C168.469 14.564 169.603 15.712 171.031 15.712ZM177.79 20.08H176.432V9.3H177.692L177.762 10.896C178.224 9.944 179.358 9.202 180.618 9.202C182.69 9.202 184.37 10.966 184.37 13.136C184.37 15.32 182.69 17.112 180.618 17.112C179.372 17.112 178.252 16.37 177.79 15.418V20.08ZM180.408 15.754C181.836 15.754 182.998 14.578 182.998 13.136C182.998 11.708 181.836 10.546 180.408 10.546C178.952 10.546 177.79 11.708 177.79 13.136C177.79 14.578 178.952 15.754 180.408 15.754ZM189.406 17.112C187.222 17.112 185.458 15.32 185.458 13.136C185.458 10.966 187.222 9.202 189.406 9.202C191.576 9.202 193.354 10.966 193.354 13.136C193.354 15.32 191.576 17.112 189.406 17.112ZM189.406 15.712C190.82 15.712 191.968 14.564 191.968 13.136C191.968 11.736 190.82 10.588 189.406 10.588C187.978 10.588 186.844 11.736 186.844 13.136C186.844 14.564 187.978 15.712 189.406 15.712ZM197.667 17.14C196.561 17.14 195.133 16.776 194.237 15.796L195.175 14.9C195.693 15.474 196.701 15.852 197.667 15.852C198.675 15.852 199.375 15.46 199.375 14.788C199.375 13.206 194.503 14.172 194.503 11.316C194.503 10.056 195.651 9.174 197.415 9.174C198.409 9.174 199.669 9.44 200.509 10.448L199.669 11.288C199.137 10.644 198.171 10.406 197.457 10.406C196.533 10.406 195.875 10.742 195.875 11.33C195.875 12.73 200.747 11.862 200.747 14.746C200.747 16.398 199.277 17.14 197.667 17.14ZM205.425 17.098C203.353 17.098 201.673 15.32 201.673 13.15C201.673 10.966 203.353 9.188 205.425 9.188C206.685 9.188 207.819 9.944 208.295 10.924L208.365 9.3H209.625V17H208.365L208.295 15.39C207.819 16.356 206.685 17.098 205.425 17.098ZM205.649 15.74C207.091 15.74 208.253 14.578 208.253 13.15C208.253 11.708 207.091 10.532 205.649 10.532C204.221 10.532 203.059 11.708 203.059 13.15C203.059 14.578 204.221 15.74 205.649 15.74ZM212.981 17H211.623V6.08H212.981V17ZM4.298 35.098C2.226 35.098 0.546 33.32 0.546 31.15C0.546 28.966 2.226 27.188 4.298 27.188C5.558 27.188 6.692 27.944 7.168 28.924L7.238 27.3H8.498V35H7.238L7.168 33.39C6.692 34.356 5.558 35.098 4.298 35.098ZM4.522 33.74C5.964 33.74 7.126 32.578 7.126 31.15C7.126 29.708 5.964 28.532 4.522 28.532C3.094 28.532 1.932 29.708 1.932 31.15C1.932 32.578 3.094 33.74 4.522 33.74ZM11.8543 38.08H10.4963V27.3H11.7563L11.8263 28.896C12.2883 27.944 13.4223 27.202 14.6823 27.202C16.7543 27.202 18.4343 28.966 18.4343 31.136C18.4343 33.32 16.7543 35.112 14.6823 35.112C13.4363 35.112 12.3163 34.37 11.8543 33.418V38.08ZM14.4723 33.754C15.9003 33.754 17.0623 32.578 17.0623 31.136C17.0623 29.708 15.9003 28.546 14.4723 28.546C13.0163 28.546 11.8543 29.708 11.8543 31.136C11.8543 32.578 13.0163 33.754 14.4723 33.754ZM21.2469 38.08H19.8889V27.3H21.1489L21.2189 28.896C21.6809 27.944 22.8149 27.202 24.0749 27.202C26.1469 27.202 27.8269 28.966 27.8269 31.136C27.8269 33.32 26.1469 35.112 24.0749 35.112C22.8289 35.112 21.7089 34.37 21.2469 33.418V38.08ZM23.8649 33.754C25.2929 33.754 26.4549 32.578 26.4549 31.136C26.4549 29.708 25.2929 28.546 23.8649 28.546C22.4089 28.546 21.2469 29.708 21.2469 31.136C21.2469 32.578 22.4089 33.754 23.8649 33.754ZM30.6394 35H29.2814V24.08H30.6394V35ZM33.3307 26.516C32.8547 26.516 32.4627 26.124 32.4627 25.648C32.4627 25.172 32.8547 24.78 33.3307 24.78C33.7927 24.78 34.1847 25.172 34.1847 25.648C34.1847 26.124 33.7927 26.516 33.3307 26.516ZM34.0027 35H32.6447V27.3H34.0027V35ZM39.494 35.112C37.31 35.112 35.546 33.32 35.546 31.136C35.546 28.966 37.31 27.202 39.494 27.202C40.824 27.202 42 27.86 42.728 28.868L41.594 29.624C41.118 28.994 40.348 28.588 39.494 28.588C38.066 28.588 36.932 29.736 36.932 31.136C36.932 32.564 38.066 33.712 39.494 33.712C40.376 33.712 41.16 33.278 41.622 32.606L42.756 33.362C42.056 34.412 40.852 35.112 39.494 35.112ZM47.4601 35.098C45.3881 35.098 43.7081 33.32 43.7081 31.15C43.7081 28.966 45.3881 27.188 47.4601 27.188C48.7201 27.188 49.8541 27.944 50.3301 28.924L50.4001 27.3H51.6601V35H50.4001L50.3301 33.39C49.8541 34.356 48.7201 35.098 47.4601 35.098ZM47.6841 33.74C49.1261 33.74 50.2881 32.578 50.2881 31.15C50.2881 29.708 49.1261 28.532 47.6841 28.532C46.2561 28.532 45.0941 29.708 45.0941 31.15C45.0941 32.578 46.2561 33.74 47.6841 33.74ZM56.5984 35.126C55.1844 35.126 54.0084 34.272 54.0084 32.13V28.532H52.9724V27.3H54.0504L54.2184 24.78H55.3664V27.3H57.2144V28.532H55.3664V32.116C55.3664 33.222 55.9124 33.796 56.7804 33.796C56.9764 33.796 57.1864 33.768 57.3684 33.698L57.7184 34.916C57.3964 35.056 57.0044 35.126 56.5984 35.126ZM59.8542 26.516C59.3782 26.516 58.9862 26.124 58.9862 25.648C58.9862 25.172 59.3782 24.78 59.8542 24.78C60.3162 24.78 60.7082 25.172 60.7082 25.648C60.7082 26.124 60.3162 26.516 59.8542 26.516ZM60.5262 35H59.1682V27.3H60.5262V35ZM66.0174 35.112C63.8334 35.112 62.0694 33.32 62.0694 31.136C62.0694 28.966 63.8334 27.202 66.0174 27.202C68.1874 27.202 69.9654 28.966 69.9654 31.136C69.9654 33.32 68.1874 35.112 66.0174 35.112ZM66.0174 33.712C67.4314 33.712 68.5794 32.564 68.5794 31.136C68.5794 29.736 67.4314 28.588 66.0174 28.588C64.5894 28.588 63.4554 29.736 63.4554 31.136C63.4554 32.564 64.5894 33.712 66.0174 33.712ZM72.8719 35H71.5139V27.3H72.7739L72.8439 28.658C73.2639 27.846 74.0899 27.188 75.2659 27.188C77.0579 27.188 78.4159 28.42 78.4159 31.08V35H77.0439V31.08C77.0439 29.33 76.0919 28.532 74.9579 28.532C73.8379 28.532 72.8719 29.316 72.8719 31.08V35ZM83.1788 35.14C82.0728 35.14 80.6448 34.776 79.7488 33.796L80.6868 32.9C81.2048 33.474 82.2128 33.852 83.1788 33.852C84.1868 33.852 84.8868 33.46 84.8868 32.788C84.8868 31.206 80.0148 32.172 80.0148 29.316C80.0148 28.056 81.1628 27.174 82.9268 27.174C83.9208 27.174 85.1808 27.44 86.0208 28.448L85.1808 29.288C84.6488 28.644 83.6828 28.406 82.9688 28.406C82.0448 28.406 81.3868 28.742 81.3868 29.33C81.3868 30.73 86.2588 29.862 86.2588 32.746C86.2588 34.398 84.7888 35.14 83.1788 35.14Z" fill="black"/>
<path d="M4.592 72H2V62.736H0.4V60.32H4.592V72ZM11.2633 72.208C8.57525 72.208 6.63925 69.968 6.63925 66.16C6.63925 62.368 8.57525 60.144 11.2633 60.144C13.9513 60.144 15.8873 62.368 15.8873 66.16C15.8873 69.968 13.9513 72.208 11.2633 72.208ZM11.2633 69.6C12.3513 69.6 13.2473 68.64 13.2473 66.144C13.2473 63.712 12.3513 62.752 11.2633 62.752C10.1593 62.752 9.27925 63.712 9.27925 66.144C9.27925 68.64 10.1593 69.6 11.2633 69.6ZM19.5564 65.664C17.9884 65.664 16.8844 64.4 16.8844 62.496C16.8844 60.624 17.9884 59.392 19.5564 59.392C21.1244 59.392 22.2124 60.624 22.2124 62.496C22.2124 64.4 21.1244 65.664 19.5564 65.664ZM20.5804 72H18.8204L25.2844 59.504H27.0444L20.5804 72ZM19.5404 64.128C20.1484 64.128 20.6764 63.696 20.6764 62.496C20.6764 61.36 20.1484 60.928 19.5404 60.928C18.9804 60.928 18.4204 61.36 18.4204 62.496C18.4204 63.696 18.9804 64.128 19.5404 64.128ZM26.3244 72.16C24.7564 72.16 23.6524 70.896 23.6524 68.992C23.6524 67.12 24.7564 65.888 26.3244 65.888C27.8764 65.888 28.9644 67.12 28.9644 68.992C28.9644 70.896 27.8764 72.16 26.3244 72.16ZM26.3084 70.624C26.9004 70.624 27.4284 70.192 27.4284 68.992C27.4284 67.856 26.9004 67.424 26.3084 67.424C25.7324 67.424 25.1884 67.856 25.1884 68.992C25.1884 70.192 25.7324 70.624 26.3084 70.624Z" fill="#F39733"/>
<path d="M39.0255 67.45H33.8735V66.316H39.0255V67.45ZM46.1134 72H44.6714V61.78H48.5494C50.6214 61.78 51.9934 63.222 51.9934 64.986C51.9934 66.414 51.0554 67.618 49.6554 67.954L52.1614 72H50.4814L48.1574 68.206H46.1134V72ZM46.1134 63.194V66.792H48.5214C49.7534 66.792 50.5094 65.966 50.5094 64.986C50.5094 64.034 49.7534 63.194 48.5214 63.194H46.1134ZM56.8528 72.112C54.5148 72.112 52.7648 70.32 52.7648 68.136C52.7648 65.966 54.5148 64.202 56.6708 64.202C58.9108 64.202 60.5768 65.966 60.5768 68.136C60.5768 68.318 60.5488 68.584 60.5348 68.78H54.2348C54.4448 69.942 55.5228 70.824 56.8528 70.824C57.8048 70.824 58.5608 70.432 59.0508 69.83L60.1568 70.516C59.4288 71.482 58.1548 72.112 56.8528 72.112ZM54.2208 67.66H59.1628C59.0928 66.47 58.0988 65.476 56.6848 65.476C55.3268 65.476 54.3048 66.47 54.2208 67.66ZM64.878 72.14C63.772 72.14 62.344 71.776 61.448 70.796L62.386 69.9C62.904 70.474 63.912 70.852 64.878 70.852C65.886 70.852 66.586 70.46 66.586 69.788C66.586 68.206 61.714 69.172 61.714 66.316C61.714 65.056 62.862 64.174 64.626 64.174C65.62 64.174 66.88 64.44 67.72 65.448L66.88 66.288C66.348 65.644 65.382 65.406 64.668 65.406C63.744 65.406 63.086 65.742 63.086 66.33C63.086 67.73 67.958 66.862 67.958 69.746C67.958 71.398 66.488 72.14 64.878 72.14ZM72.4509 72.112C70.6589 72.112 69.3009 70.866 69.3009 68.206V64.3H70.6729V68.206C70.6729 69.97 71.6249 70.754 72.7589 70.754C73.8789 70.754 74.8449 69.97 74.8449 68.206V64.3H76.2029V72H74.9429L74.8729 70.628C74.4529 71.44 73.6129 72.112 72.4509 72.112ZM79.5633 72H78.2053V61.08H79.5633V72ZM84.5085 72.126C83.0945 72.126 81.9185 71.272 81.9185 69.13V65.532H80.8825V64.3H81.9605L82.1285 61.78H83.2765V64.3H85.1245V65.532H83.2765V69.116C83.2765 70.222 83.8225 70.796 84.6905 70.796C84.8865 70.796 85.0965 70.768 85.2785 70.698L85.6285 71.916C85.3065 72.056 84.9145 72.126 84.5085 72.126ZM90.1163 72.14C89.0103 72.14 87.5823 71.776 86.6863 70.796L87.6243 69.9C88.1423 70.474 89.1503 70.852 90.1163 70.852C91.1243 70.852 91.8243 70.46 91.8243 69.788C91.8243 68.206 86.9523 69.172 86.9523 66.316C86.9523 65.056 88.1003 64.174 89.8643 64.174C90.8583 64.174 92.1183 64.44 92.9583 65.448L92.1183 66.288C91.5863 65.644 90.6203 65.406 89.9063 65.406C88.9823 65.406 88.3243 65.742 88.3243 66.33C88.3243 67.73 93.1963 66.862 93.1963 69.746C93.1963 71.398 91.7263 72.14 90.1163 72.14ZM101.935 72.098C99.8627 72.098 98.1827 70.32 98.1827 68.15C98.1827 65.966 99.8627 64.188 101.935 64.188C103.195 64.188 104.329 64.944 104.805 65.924L104.875 64.3H106.135V72H104.875L104.805 70.39C104.329 71.356 103.195 72.098 101.935 72.098ZM102.159 70.74C103.601 70.74 104.763 69.578 104.763 68.15C104.763 66.708 103.601 65.532 102.159 65.532C100.731 65.532 99.5687 66.708 99.5687 68.15C99.5687 69.578 100.731 70.74 102.159 70.74ZM109.491 72H108.133V64.3H109.393L109.463 65.658C109.883 64.846 110.709 64.188 111.885 64.188C113.677 64.188 115.035 65.42 115.035 68.08V72H113.663V68.08C113.663 66.33 112.711 65.532 111.577 65.532C110.457 65.532 109.491 66.316 109.491 68.08V72ZM120.159 72.098C118.087 72.098 116.407 70.32 116.407 68.15C116.407 65.966 118.087 64.188 120.159 64.188C121.405 64.188 122.525 64.916 122.987 65.882V61.08H124.359V72H123.099L123.029 70.39C122.553 71.356 121.419 72.098 120.159 72.098ZM120.383 70.74C121.825 70.74 122.987 69.578 122.987 68.15C122.987 66.708 121.825 65.532 120.383 65.532C118.955 65.532 117.793 66.708 117.793 68.15C117.793 69.578 118.955 70.74 120.383 70.74ZM135.128 72.168C132.216 72.168 129.864 69.802 129.864 66.89C129.864 63.992 132.216 61.64 135.128 61.64C138.026 61.64 140.378 63.992 140.378 66.89C140.378 69.802 138.026 72.168 135.128 72.168ZM135.128 70.684C137.2 70.684 138.908 69.004 138.908 66.876C138.908 64.79 137.2 63.11 135.128 63.11C133.042 63.11 131.334 64.79 131.334 66.876C131.334 69.004 133.042 70.684 135.128 70.684ZM145.049 72.112C143.257 72.112 141.899 70.866 141.899 68.206V64.3H143.271V68.206C143.271 69.97 144.223 70.754 145.357 70.754C146.477 70.754 147.443 69.97 147.443 68.206V64.3H148.801V72H147.541L147.471 70.628C147.051 71.44 146.211 72.112 145.049 72.112ZM153.743 72.126C152.329 72.126 151.153 71.272 151.153 69.13V65.532H150.117V64.3H151.195L151.363 61.78H152.511V64.3H154.359V65.532H152.511V69.116C152.511 70.222 153.057 70.796 153.925 70.796C154.121 70.796 154.331 70.768 154.513 70.698L154.863 71.916C154.541 72.056 154.149 72.126 153.743 72.126ZM159.402 72.112C157.218 72.112 155.454 70.32 155.454 68.136C155.454 65.966 157.218 64.202 159.402 64.202C160.732 64.202 161.908 64.86 162.636 65.868L161.502 66.624C161.026 65.994 160.256 65.588 159.402 65.588C157.974 65.588 156.84 66.736 156.84 68.136C156.84 69.564 157.974 70.712 159.402 70.712C160.284 70.712 161.068 70.278 161.53 69.606L162.664 70.362C161.964 71.412 160.76 72.112 159.402 72.112ZM167.564 72.112C165.38 72.112 163.616 70.32 163.616 68.136C163.616 65.966 165.38 64.202 167.564 64.202C169.734 64.202 171.512 65.966 171.512 68.136C171.512 70.32 169.734 72.112 167.564 72.112ZM167.564 70.712C168.978 70.712 170.126 69.564 170.126 68.136C170.126 66.736 168.978 65.588 167.564 65.588C166.136 65.588 165.002 66.736 165.002 68.136C165.002 69.564 166.136 70.712 167.564 70.712ZM174.419 72H173.061V64.3H174.321L174.391 65.574C174.783 64.678 175.651 64.188 176.491 64.188C177.723 64.188 178.521 64.902 178.843 65.826C179.165 64.916 179.963 64.188 181.083 64.188C182.721 64.188 183.939 65.238 183.939 67.912V72H182.567V67.912C182.567 66.148 181.783 65.532 180.873 65.532C180.019 65.532 179.179 66.148 179.179 67.912V72H177.807V67.912C177.807 66.148 177.023 65.532 176.113 65.532C175.203 65.532 174.419 66.316 174.419 68.08V72ZM189.415 72.112C187.077 72.112 185.327 70.32 185.327 68.136C185.327 65.966 187.077 64.202 189.233 64.202C191.473 64.202 193.139 65.966 193.139 68.136C193.139 68.318 193.111 68.584 193.097 68.78H186.797C187.007 69.942 188.085 70.824 189.415 70.824C190.367 70.824 191.123 70.432 191.613 69.83L192.719 70.516C191.991 71.482 190.717 72.112 189.415 72.112ZM186.783 67.66H191.725C191.655 66.47 190.661 65.476 189.247 65.476C187.889 65.476 186.867 66.47 186.783 67.66ZM200.156 65.532V72.014L198.798 71.986V65.532H197.818V64.3H198.798V64.006C198.798 61.682 200.016 60.87 201.486 60.87C201.836 60.87 202.242 60.94 202.522 61.038L202.158 62.256C201.99 62.228 201.78 62.186 201.598 62.186C200.73 62.186 200.156 62.62 200.156 64.006V64.3H202.144V65.532H200.156ZM206.707 72.112C204.523 72.112 202.759 70.32 202.759 68.136C202.759 65.966 204.523 64.202 206.707 64.202C208.877 64.202 210.655 65.966 210.655 68.136C210.655 70.32 208.877 72.112 206.707 72.112ZM206.707 70.712C208.121 70.712 209.269 69.564 209.269 68.136C209.269 66.736 208.121 65.588 206.707 65.588C205.279 65.588 204.145 66.736 204.145 68.136C204.145 69.564 205.279 70.712 206.707 70.712ZM213.561 72H212.203V64.3H213.463L213.547 65.56C213.995 64.734 214.863 64.244 215.997 64.258C216.193 64.258 216.389 64.272 216.571 64.3L216.291 65.616C216.207 65.602 216.109 65.588 216.025 65.588C214.723 65.588 213.561 66.316 213.561 68.444V72ZM3.948 90.126C2.534 90.126 1.358 89.272 1.358 87.13V83.532H0.322V82.3H1.4L1.568 79.78H2.716V82.3H4.564V83.532H2.716V87.116C2.716 88.222 3.262 88.796 4.13 88.796C4.326 88.796 4.536 88.768 4.718 88.698L5.068 89.916C4.746 90.056 4.354 90.126 3.948 90.126ZM7.87577 90H6.51777V79.08H7.87577V83.63C8.29577 82.832 9.12177 82.188 10.2698 82.188C12.0618 82.188 13.4198 83.42 13.4198 86.08V90H12.0478V86.08C12.0478 84.33 11.0958 83.532 9.96177 83.532C8.84177 83.532 7.87577 84.316 7.87577 86.08V90ZM18.8801 90.112C16.5421 90.112 14.7921 88.32 14.7921 86.136C14.7921 83.966 16.5421 82.202 18.6981 82.202C20.9381 82.202 22.6041 83.966 22.6041 86.136C22.6041 86.318 22.5761 86.584 22.5621 86.78H16.2621C16.4721 87.942 17.5501 88.824 18.8801 88.824C19.8321 88.824 20.5881 88.432 21.0781 87.83L22.1841 88.516C21.4561 89.482 20.1821 90.112 18.8801 90.112ZM16.2481 85.66H21.1901C21.1201 84.47 20.1261 83.476 18.7121 83.476C17.3541 83.476 16.3321 84.47 16.2481 85.66ZM29.5509 90H28.1089V79.78H31.9869C34.0589 79.78 35.4309 81.222 35.4309 82.986C35.4309 84.764 34.0589 86.206 31.9869 86.206H29.5509V90ZM29.5509 81.194V84.792H31.9589C33.1909 84.792 33.9469 83.966 33.9469 82.986C33.9469 82.034 33.1909 81.194 31.9589 81.194H29.5509ZM38.2683 90H36.9103V82.3H38.1703L38.2543 83.56C38.7023 82.734 39.5703 82.244 40.7043 82.258C40.9003 82.258 41.0963 82.272 41.2783 82.3L40.9983 83.616C40.9143 83.602 40.8163 83.588 40.7323 83.588C39.4303 83.588 38.2683 84.316 38.2683 86.444V90ZM45.66 90.112C43.476 90.112 41.712 88.32 41.712 86.136C41.712 83.966 43.476 82.202 45.66 82.202C47.83 82.202 49.608 83.966 49.608 86.136C49.608 88.32 47.83 90.112 45.66 90.112ZM45.66 88.712C47.074 88.712 48.222 87.564 48.222 86.136C48.222 84.736 47.074 83.588 45.66 83.588C44.232 83.588 43.098 84.736 43.098 86.136C43.098 87.564 44.232 88.712 45.66 88.712ZM51.947 81.516C51.471 81.516 51.093 81.124 51.093 80.648C51.093 80.172 51.471 79.78 51.947 79.78C52.409 79.78 52.801 80.172 52.801 80.648C52.801 81.124 52.409 81.516 51.947 81.516ZM49.959 93.234C49.539 93.234 49.161 93.164 48.839 93.038L49.203 91.778C49.385 91.848 49.581 91.89 49.777 91.89C50.701 91.89 51.261 91.302 51.261 89.888V82.3H52.619V89.888C52.619 92.338 51.443 93.234 49.959 93.234ZM58.2551 90.112C55.9171 90.112 54.1671 88.32 54.1671 86.136C54.1671 83.966 55.9171 82.202 58.0731 82.202C60.3131 82.202 61.9791 83.966 61.9791 86.136C61.9791 86.318 61.9511 86.584 61.9371 86.78H55.6371C55.8471 87.942 56.9251 88.824 58.2551 88.824C59.2071 88.824 59.9631 88.432 60.4531 87.83L61.5591 88.516C60.8311 89.482 59.5571 90.112 58.2551 90.112ZM55.6231 85.66H60.5651C60.4951 84.47 59.5011 83.476 58.0871 83.476C56.7291 83.476 55.7071 84.47 55.6231 85.66ZM67.0018 90.112C64.8178 90.112 63.0538 88.32 63.0538 86.136C63.0538 83.966 64.8178 82.202 67.0018 82.202C68.3318 82.202 69.5078 82.86 70.2358 83.868L69.1018 84.624C68.6258 83.994 67.8558 83.588 67.0018 83.588C65.5738 83.588 64.4398 84.736 64.4398 86.136C64.4398 87.564 65.5738 88.712 67.0018 88.712C67.8838 88.712 68.6678 88.278 69.1298 87.606L70.2638 88.362C69.5638 89.412 68.3598 90.112 67.0018 90.112ZM74.7273 90.126C73.3133 90.126 72.1373 89.272 72.1373 87.13V83.532H71.1013V82.3H72.1793L72.3473 79.78H73.4953V82.3H75.3433V83.532H73.4953V87.116C73.4953 88.222 74.0413 88.796 74.9093 88.796C75.1053 88.796 75.3153 88.768 75.4973 88.698L75.8473 89.916C75.5253 90.056 75.1333 90.126 74.7273 90.126ZM77.8711 84.162C77.4091 84.162 77.0311 83.784 77.0311 83.322C77.0311 82.846 77.4091 82.468 77.8711 82.468C78.3331 82.468 78.7111 82.846 78.7111 83.322C78.7111 83.784 78.3331 84.162 77.8711 84.162ZM77.8711 89.818C77.4091 89.818 77.0311 89.44 77.0311 88.978C77.0311 88.502 77.4091 88.124 77.8711 88.124C78.3331 88.124 78.7111 88.502 78.7111 88.978C78.7111 89.44 78.3331 89.818 77.8711 89.818ZM90.8637 90H84.4097V79.78H90.7237V81.11H85.8377V84.092H90.4437V85.422H85.8377V88.6H90.8637V90ZM94.1932 83.532V90.014L92.8352 89.986V83.532H91.8552V82.3H92.8352V82.006C92.8352 79.682 94.0532 78.87 95.5232 78.87C95.8732 78.87 96.2792 78.94 96.5592 79.038L96.1952 80.256C96.0272 80.228 95.8172 80.186 95.6352 80.186C94.7672 80.186 94.1932 80.62 94.1932 82.006V82.3H96.6992V82.006C96.6992 79.682 97.9312 78.87 99.3872 78.87C99.7512 78.87 100.143 78.94 100.423 79.038L100.073 80.256C99.9052 80.228 99.6952 80.186 99.5132 80.186C98.6312 80.186 98.0712 80.62 98.0712 82.006V82.3H100.059V83.532H98.0712V90.014L96.6992 89.986V83.532H94.1932ZM104.753 90.112C102.415 90.112 100.665 88.32 100.665 86.136C100.665 83.966 102.415 82.202 104.571 82.202C106.811 82.202 108.477 83.966 108.477 86.136C108.477 86.318 108.449 86.584 108.435 86.78H102.135C102.345 87.942 103.423 88.824 104.753 88.824C105.705 88.824 106.461 88.432 106.951 87.83L108.057 88.516C107.329 89.482 106.055 90.112 104.753 90.112ZM102.121 85.66H107.063C106.993 84.47 105.999 83.476 104.585 83.476C103.227 83.476 102.205 84.47 102.121 85.66ZM113.5 90.112C111.316 90.112 109.552 88.32 109.552 86.136C109.552 83.966 111.316 82.202 113.5 82.202C114.83 82.202 116.006 82.86 116.734 83.868L115.6 84.624C115.124 83.994 114.354 83.588 113.5 83.588C112.072 83.588 110.938 84.736 110.938 86.136C110.938 87.564 112.072 88.712 113.5 88.712C114.382 88.712 115.166 88.278 115.628 87.606L116.762 88.362C116.062 89.412 114.858 90.112 113.5 90.112ZM121.225 90.126C119.811 90.126 118.635 89.272 118.635 87.13V83.532H117.599V82.3H118.677L118.845 79.78H119.993V82.3H121.841V83.532H119.993V87.116C119.993 88.222 120.539 88.796 121.407 88.796C121.603 88.796 121.813 88.768 121.995 88.698L122.345 89.916C122.023 90.056 121.631 90.126 121.225 90.126ZM131.109 90.112C128.925 90.112 127.161 88.32 127.161 86.136C127.161 83.966 128.925 82.202 131.109 82.202C133.279 82.202 135.057 83.966 135.057 86.136C135.057 88.32 133.279 90.112 131.109 90.112ZM131.109 88.712C132.523 88.712 133.671 87.564 133.671 86.136C133.671 84.736 132.523 83.588 131.109 83.588C129.681 83.588 128.547 84.736 128.547 86.136C128.547 87.564 129.681 88.712 131.109 88.712ZM138.258 83.532V90.014L136.9 89.986V83.532H135.92V82.3H136.9V82.006C136.9 79.682 138.118 78.87 139.588 78.87C139.938 78.87 140.344 78.94 140.624 79.038L140.26 80.256C140.092 80.228 139.882 80.186 139.7 80.186C138.832 80.186 138.258 80.62 138.258 82.006V82.3H140.246V83.532H138.258ZM147.129 90H145.687V79.78H149.565C151.637 79.78 153.009 81.222 153.009 82.986C153.009 84.414 152.071 85.618 150.671 85.954L153.177 90H151.497L149.173 86.206H147.129V90ZM147.129 81.194V84.792H149.537C150.769 84.792 151.525 83.966 151.525 82.986C151.525 82.034 150.769 81.194 149.537 81.194H147.129ZM157.868 90.112C155.53 90.112 153.78 88.32 153.78 86.136C153.78 83.966 155.53 82.202 157.686 82.202C159.926 82.202 161.592 83.966 161.592 86.136C161.592 86.318 161.564 86.584 161.55 86.78H155.25C155.46 87.942 156.538 88.824 157.868 88.824C158.82 88.824 159.576 88.432 160.066 87.83L161.172 88.516C160.444 89.482 159.17 90.112 157.868 90.112ZM155.236 85.66H160.178C160.108 84.47 159.114 83.476 157.7 83.476C156.342 83.476 155.32 84.47 155.236 85.66ZM166.289 90H164.931L161.907 82.3H163.377L165.617 87.956L167.843 82.3H169.313L166.289 90ZM173.714 90.112C171.376 90.112 169.626 88.32 169.626 86.136C169.626 83.966 171.376 82.202 173.532 82.202C175.772 82.202 177.438 83.966 177.438 86.136C177.438 86.318 177.41 86.584 177.396 86.78H171.096C171.306 87.942 172.384 88.824 173.714 88.824C174.666 88.824 175.422 88.432 175.912 87.83L177.018 88.516C176.29 89.482 175.016 90.112 173.714 90.112ZM171.082 85.66H176.024C175.954 84.47 174.96 83.476 173.546 83.476C172.188 83.476 171.166 84.47 171.082 85.66ZM180.333 90H178.975V82.3H180.235L180.319 83.56C180.767 82.734 181.635 82.244 182.769 82.258C182.965 82.258 183.161 82.272 183.343 82.3L183.063 83.616C182.979 83.602 182.881 83.588 182.797 83.588C181.495 83.588 180.333 84.316 180.333 86.444V90ZM187.386 90.14C186.28 90.14 184.852 89.776 183.956 88.796L184.894 87.9C185.412 88.474 186.42 88.852 187.386 88.852C188.394 88.852 189.094 88.46 189.094 87.788C189.094 86.206 184.222 87.172 184.222 84.316C184.222 83.056 185.37 82.174 187.134 82.174C188.128 82.174 189.388 82.44 190.228 83.448L189.388 84.288C188.856 83.644 187.89 83.406 187.176 83.406C186.252 83.406 185.594 83.742 185.594 84.33C185.594 85.73 190.466 84.862 190.466 87.746C190.466 89.398 188.996 90.14 187.386 90.14ZM195.48 90.112C193.142 90.112 191.392 88.32 191.392 86.136C191.392 83.966 193.142 82.202 195.298 82.202C197.538 82.202 199.204 83.966 199.204 86.136C199.204 86.318 199.176 86.584 199.162 86.78H192.862C193.072 87.942 194.15 88.824 195.48 88.824C196.432 88.824 197.188 88.432 197.678 87.83L198.784 88.516C198.056 89.482 196.782 90.112 195.48 90.112ZM192.848 85.66H197.79C197.72 84.47 196.726 83.476 195.312 83.476C193.954 83.476 192.932 84.47 192.848 85.66ZM5.95 108.168C3.038 108.168 0.686 105.802 0.686 102.89C0.686 99.992 3.038 97.64 5.95 97.64C8.848 97.64 11.2 99.992 11.2 102.89C11.2 105.802 8.848 108.168 5.95 108.168ZM5.95 106.684C8.022 106.684 9.73 105.004 9.73 102.876C9.73 100.79 8.022 99.11 5.95 99.11C3.864 99.11 2.156 100.79 2.156 102.876C2.156 105.004 3.864 106.684 5.95 106.684ZM15.7355 108.14C14.6295 108.14 13.2015 107.776 12.3055 106.796L13.2435 105.9C13.7615 106.474 14.7695 106.852 15.7355 106.852C16.7435 106.852 17.4435 106.46 17.4435 105.788C17.4435 104.206 12.5715 105.172 12.5715 102.316C12.5715 101.056 13.7195 100.174 15.4835 100.174C16.4775 100.174 17.7375 100.44 18.5775 101.448L17.7375 102.288C17.2055 101.644 16.2395 101.406 15.5255 101.406C14.6015 101.406 13.9435 101.742 13.9435 102.33C13.9435 103.73 18.8155 102.862 18.8155 105.746C18.8155 107.398 17.3455 108.14 15.7355 108.14ZM21.7937 108H20.4357V100.3H21.6957L21.7657 101.574C22.1577 100.678 23.0257 100.188 23.8657 100.188C25.0977 100.188 25.8957 100.902 26.2177 101.826C26.5397 100.916 27.3377 100.188 28.4577 100.188C30.0957 100.188 31.3137 101.238 31.3137 103.912V108H29.9417V103.912C29.9417 102.148 29.1577 101.532 28.2477 101.532C27.3937 101.532 26.5537 102.148 26.5537 103.912V108H25.1817V103.912C25.1817 102.148 24.3977 101.532 23.4877 101.532C22.5777 101.532 21.7937 102.316 21.7937 104.08V108ZM36.6503 108.112C34.4663 108.112 32.7023 106.32 32.7023 104.136C32.7023 101.966 34.4663 100.202 36.6503 100.202C38.8203 100.202 40.5983 101.966 40.5983 104.136C40.5983 106.32 38.8203 108.112 36.6503 108.112ZM36.6503 106.712C38.0643 106.712 39.2123 105.564 39.2123 104.136C39.2123 102.736 38.0643 101.588 36.6503 101.588C35.2223 101.588 34.0883 102.736 34.0883 104.136C34.0883 105.564 35.2223 106.712 36.6503 106.712ZM44.9112 108.14C43.8052 108.14 42.3772 107.776 41.4812 106.796L42.4192 105.9C42.9372 106.474 43.9452 106.852 44.9112 106.852C45.9192 106.852 46.6192 106.46 46.6192 105.788C46.6192 104.206 41.7472 105.172 41.7472 102.316C41.7472 101.056 42.8952 100.174 44.6592 100.174C45.6532 100.174 46.9132 100.44 47.7532 101.448L46.9132 102.288C46.3812 101.644 45.4152 101.406 44.7012 101.406C43.7772 101.406 43.1192 101.742 43.1192 102.33C43.1192 103.73 47.9912 102.862 47.9912 105.746C47.9912 107.398 46.5212 108.14 44.9112 108.14ZM50.2975 99.516C49.8215 99.516 49.4295 99.124 49.4295 98.648C49.4295 98.172 49.8215 97.78 50.2975 97.78C50.7595 97.78 51.1515 98.172 51.1515 98.648C51.1515 99.124 50.7595 99.516 50.2975 99.516ZM50.9695 108H49.6115V100.3H50.9695V108ZM55.7394 108.14C54.6334 108.14 53.2054 107.776 52.3094 106.796L53.2474 105.9C53.7654 106.474 54.7734 106.852 55.7394 106.852C56.7474 106.852 57.4474 106.46 57.4474 105.788C57.4474 104.206 52.5754 105.172 52.5754 102.316C52.5754 101.056 53.7234 100.174 55.4874 100.174C56.4814 100.174 57.7414 100.44 58.5814 101.448L57.7414 102.288C57.2094 101.644 56.2434 101.406 55.5294 101.406C54.6054 101.406 53.9474 101.742 53.9474 102.33C53.9474 103.73 58.8194 102.862 58.8194 105.746C58.8194 107.398 57.3494 108.14 55.7394 108.14ZM68.2158 108.154C65.9898 108.154 64.2678 106.6 64.2678 104.108V97.78H65.7098V104.094C65.7098 105.816 66.7878 106.698 68.1878 106.698C69.5738 106.698 70.7218 105.83 70.7218 104.094V97.78H72.1778V104.108C72.1778 106.6 70.4278 108.154 68.2158 108.154ZM75.5379 108H74.1799V100.3H75.4399L75.5099 101.658C75.9299 100.846 76.7559 100.188 77.9319 100.188C79.7239 100.188 81.0819 101.42 81.0819 104.08V108H79.7099V104.08C79.7099 102.33 78.7579 101.532 77.6239 101.532C76.5039 101.532 75.5379 102.316 75.5379 104.08V108ZM83.6022 99.516C83.1262 99.516 82.7342 99.124 82.7342 98.648C82.7342 98.172 83.1262 97.78 83.6022 97.78C84.0642 97.78 84.4562 98.172 84.4562 98.648C84.4562 99.124 84.0642 99.516 83.6022 99.516ZM84.2742 108H82.9162V100.3H84.2742V108ZM89.2195 108.126C87.8055 108.126 86.6295 107.272 86.6295 105.13V101.532H85.5935V100.3H86.6715L86.8395 97.78H87.9875V100.3H89.8355V101.532H87.9875V105.116C87.9875 106.222 88.5335 106.796 89.4015 106.796C89.5975 106.796 89.8075 106.768 89.9895 106.698L90.3395 107.916C90.0175 108.056 89.6255 108.126 89.2195 108.126ZM94.8273 108.14C93.7213 108.14 92.2933 107.776 91.3973 106.796L92.3353 105.9C92.8533 106.474 93.8613 106.852 94.8273 106.852C95.8353 106.852 96.5353 106.46 96.5353 105.788C96.5353 104.206 91.6633 105.172 91.6633 102.316C91.6633 101.056 92.8113 100.174 94.5753 100.174C95.5693 100.174 96.8293 100.44 97.6693 101.448L96.8293 102.288C96.2973 101.644 95.3313 101.406 94.6173 101.406C93.6933 101.406 93.0353 101.742 93.0353 102.33C93.0353 103.73 97.9073 102.862 97.9073 105.746C97.9073 107.398 96.4373 108.14 94.8273 108.14ZM100.312 100.762H99.3595L99.2055 97.78H100.452L100.312 100.762ZM110.209 108H106.107V97.78H109.761C111.651 97.78 112.911 98.872 112.911 100.426C112.911 101.364 112.435 102.092 111.679 102.526C112.771 102.89 113.527 103.786 113.527 105.06C113.527 106.754 112.197 108 110.209 108ZM107.549 99.11V102.064L109.817 102.05C110.811 102.036 111.497 101.434 111.497 100.622C111.497 99.796 110.909 99.11 109.733 99.11H107.549ZM107.549 103.338V106.6H110.167C111.343 106.6 112.043 105.914 112.043 104.962C112.043 103.996 111.273 103.338 110.251 103.338H107.549ZM116.444 108H115.086V100.3H116.346L116.43 101.56C116.878 100.734 117.746 100.244 118.88 100.258C119.076 100.258 119.272 100.272 119.454 100.3L119.174 101.616C119.09 101.602 118.992 101.588 118.908 101.588C117.606 101.588 116.444 102.316 116.444 104.444V108ZM121.487 99.516C121.011 99.516 120.619 99.124 120.619 98.648C120.619 98.172 121.011 97.78 121.487 97.78C121.949 97.78 122.341 98.172 122.341 98.648C122.341 99.124 121.949 99.516 121.487 99.516ZM122.159 108H120.801V100.3H122.159V108ZM125.522 108H124.164V100.3H125.424L125.494 101.658C125.914 100.846 126.74 100.188 127.916 100.188C129.708 100.188 131.066 101.42 131.066 104.08V108H129.694V104.08C129.694 102.33 128.742 101.532 127.608 101.532C126.488 101.532 125.522 102.316 125.522 104.08V108ZM136.527 108.112C134.189 108.112 132.439 106.32 132.439 104.136C132.439 101.966 134.189 100.202 136.345 100.202C138.585 100.202 140.251 101.966 140.251 104.136C140.251 104.318 140.223 104.584 140.209 104.78H133.909C134.119 105.942 135.197 106.824 136.527 106.824C137.479 106.824 138.235 106.432 138.725 105.83L139.831 106.516C139.103 107.482 137.829 108.112 136.527 108.112ZM133.895 103.66H138.837C138.767 102.47 137.773 101.476 136.359 101.476C135.001 101.476 133.979 102.47 133.895 103.66ZM147.197 108H145.755V97.78H149.633C151.705 97.78 153.077 99.222 153.077 100.986C153.077 102.414 152.139 103.618 150.739 103.954L153.245 108H151.565L149.241 104.206H147.197V108ZM147.197 99.194V102.792H149.605C150.837 102.792 151.593 101.966 151.593 100.986C151.593 100.034 150.837 99.194 149.605 99.194H147.197ZM157.937 108.112C155.599 108.112 153.849 106.32 153.849 104.136C153.849 101.966 155.599 100.202 157.755 100.202C159.995 100.202 161.661 101.966 161.661 104.136C161.661 104.318 161.633 104.584 161.619 104.78H155.319C155.529 105.942 156.607 106.824 157.937 106.824C158.889 106.824 159.645 106.432 160.135 105.83L161.241 106.516C160.513 107.482 159.239 108.112 157.937 108.112ZM155.305 103.66H160.247C160.177 102.47 159.183 101.476 157.769 101.476C156.411 101.476 155.389 102.47 155.305 103.66ZM163.988 99.516C163.512 99.516 163.134 99.124 163.134 98.648C163.134 98.172 163.512 97.78 163.988 97.78C164.45 97.78 164.842 98.172 164.842 98.648C164.842 99.124 164.45 99.516 163.988 99.516ZM162 111.234C161.58 111.234 161.202 111.164 160.88 111.038L161.244 109.778C161.426 109.848 161.622 109.89 161.818 109.89C162.742 109.89 163.302 109.302 163.302 107.888V100.3H164.66V107.888C164.66 110.338 163.484 111.234 162 111.234ZM170.296 108.112C167.958 108.112 166.208 106.32 166.208 104.136C166.208 101.966 167.958 100.202 170.114 100.202C172.354 100.202 174.02 101.966 174.02 104.136C174.02 104.318 173.992 104.584 173.978 104.78H167.678C167.888 105.942 168.966 106.824 170.296 106.824C171.248 106.824 172.004 106.432 172.494 105.83L173.6 106.516C172.872 107.482 171.598 108.112 170.296 108.112ZM167.664 103.66H172.606C172.536 102.47 171.542 101.476 170.128 101.476C168.77 101.476 167.748 102.47 167.664 103.66ZM179.043 108.112C176.859 108.112 175.095 106.32 175.095 104.136C175.095 101.966 176.859 100.202 179.043 100.202C180.373 100.202 181.549 100.86 182.277 101.868L181.143 102.624C180.667 101.994 179.897 101.588 179.043 101.588C177.615 101.588 176.481 102.736 176.481 104.136C176.481 105.564 177.615 106.712 179.043 106.712C179.925 106.712 180.709 106.278 181.171 105.606L182.305 106.362C181.605 107.412 180.401 108.112 179.043 108.112ZM186.768 108.126C185.354 108.126 184.178 107.272 184.178 105.13V101.532H183.142V100.3H184.22L184.388 97.78H185.536V100.3H187.384V101.532H185.536V105.116C185.536 106.222 186.082 106.796 186.95 106.796C187.146 106.796 187.356 106.768 187.538 106.698L187.888 107.916C187.566 108.056 187.174 108.126 186.768 108.126ZM194.818 101.532V108.014L193.46 107.986V101.532H192.48V100.3H193.46V100.006C193.46 97.682 194.678 96.87 196.148 96.87C196.498 96.87 196.904 96.94 197.184 97.038L196.82 98.256C196.652 98.228 196.442 98.186 196.26 98.186C195.392 98.186 194.818 98.62 194.818 100.006V100.3H196.806V101.532H194.818ZM199.528 108H198.17V100.3H199.43L199.514 101.56C199.962 100.734 200.83 100.244 201.964 100.258C202.16 100.258 202.356 100.272 202.538 100.3L202.258 101.616C202.174 101.602 202.076 101.588 201.992 101.588C200.69 101.588 199.528 102.316 199.528 104.444V108ZM206.92 108.112C204.736 108.112 202.972 106.32 202.972 104.136C202.972 101.966 204.736 100.202 206.92 100.202C209.09 100.202 210.868 101.966 210.868 104.136C210.868 106.32 209.09 108.112 206.92 108.112ZM206.92 106.712C208.334 106.712 209.482 105.564 209.482 104.136C209.482 102.736 208.334 101.588 206.92 101.588C205.492 101.588 204.358 102.736 204.358 104.136C204.358 105.564 205.492 106.712 206.92 106.712ZM213.774 108H212.416V100.3H213.676L213.746 101.574C214.138 100.678 215.006 100.188 215.846 100.188C217.078 100.188 217.876 100.902 218.198 101.826C218.52 100.916 219.318 100.188 220.438 100.188C222.076 100.188 223.294 101.238 223.294 103.912V108H221.922V103.912C221.922 102.148 221.138 101.532 220.228 101.532C219.374 101.532 218.534 102.148 218.534 103.912V108H217.162V103.912C217.162 102.148 216.378 101.532 215.468 101.532C214.558 101.532 213.774 102.316 213.774 104.08V108ZM1.806 126H0.21L3.948 115.78H5.516L9.254 126H7.686L6.706 123.34H2.772L1.806 126ZM4.732 117.726L3.192 121.982H6.286L4.732 117.726ZM13.4715 129.22C12.1695 129.22 10.9095 128.632 10.1815 127.68L11.2175 126.882C11.7495 127.512 12.6315 127.904 13.5415 127.904C15.0255 127.904 16.3135 127.05 16.3135 125.02V124.432C15.8515 125.37 14.7315 126.098 13.4855 126.098C11.4135 126.098 9.7335 124.32 9.7335 122.15C9.7335 119.966 11.4135 118.188 13.4855 118.188C14.7455 118.188 15.8795 118.944 16.3555 119.924L16.4255 118.3H17.6855V124.796C17.6855 127.778 15.8935 129.22 13.4715 129.22ZM13.7095 124.74C15.1515 124.74 16.3135 123.578 16.3135 122.15C16.3135 120.708 15.1515 119.532 13.7095 119.532C12.2815 119.532 11.1195 120.708 11.1195 122.15C11.1195 123.578 12.2815 124.74 13.7095 124.74ZM21.0418 126H19.6838V118.3H20.9438L21.0278 119.56C21.4758 118.734 22.3438 118.244 23.4778 118.258C23.6738 118.258 23.8698 118.272 24.0518 118.3L23.7718 119.616C23.6878 119.602 23.5898 119.588 23.5058 119.588C22.2038 119.588 21.0418 120.316 21.0418 122.444V126ZM26.0846 117.516C25.6086 117.516 25.2166 117.124 25.2166 116.648C25.2166 116.172 25.6086 115.78 26.0846 115.78C26.5466 115.78 26.9386 116.172 26.9386 116.648C26.9386 117.124 26.5466 117.516 26.0846 117.516ZM26.7566 126H25.3986V118.3H26.7566V126ZM32.2479 126.112C30.0639 126.112 28.2999 124.32 28.2999 122.136C28.2999 119.966 30.0639 118.202 32.2479 118.202C33.5779 118.202 34.7539 118.86 35.4819 119.868L34.3479 120.624C33.8719 119.994 33.1019 119.588 32.2479 119.588C30.8199 119.588 29.6859 120.736 29.6859 122.136C29.6859 123.564 30.8199 124.712 32.2479 124.712C33.1299 124.712 33.9139 124.278 34.3759 123.606L35.5099 124.362C34.8099 125.412 33.6059 126.112 32.2479 126.112ZM39.9607 126.112C38.1687 126.112 36.8107 124.866 36.8107 122.206V118.3H38.1827V122.206C38.1827 123.97 39.1347 124.754 40.2687 124.754C41.3887 124.754 42.3547 123.97 42.3547 122.206V118.3H43.7127V126H42.4527L42.3827 124.628C41.9627 125.44 41.1227 126.112 39.9607 126.112ZM47.073 126H45.715V115.08H47.073V126ZM52.0183 126.126C50.6043 126.126 49.4283 125.272 49.4283 123.13V119.532H48.3923V118.3H49.4703L49.6383 115.78H50.7863V118.3H52.6343V119.532H50.7863V123.116C50.7863 124.222 51.3323 124.796 52.2003 124.796C52.3963 124.796 52.6063 124.768 52.7883 124.698L53.1383 125.916C52.8163 126.056 52.4243 126.126 52.0183 126.126ZM57.4607 126.112C55.6687 126.112 54.3107 124.866 54.3107 122.206V118.3H55.6827V122.206C55.6827 123.97 56.6347 124.754 57.7687 124.754C58.8887 124.754 59.8547 123.97 59.8547 122.206V118.3H61.2127V126H59.9527L59.8827 124.628C59.4627 125.44 58.6227 126.112 57.4607 126.112ZM64.573 126H63.215V118.3H64.475L64.559 119.56C65.007 118.734 65.875 118.244 67.009 118.258C67.205 118.258 67.401 118.272 67.583 118.3L67.303 119.616C67.219 119.602 67.121 119.588 67.037 119.588C65.735 119.588 64.573 120.316 64.573 122.444V126ZM71.7687 126.098C69.6967 126.098 68.0167 124.32 68.0167 122.15C68.0167 119.966 69.6967 118.188 71.7687 118.188C73.0287 118.188 74.1627 118.944 74.6387 119.924L74.7087 118.3H75.9687V126H74.7087L74.6387 124.39C74.1627 125.356 73.0287 126.098 71.7687 126.098ZM71.9927 124.74C73.4347 124.74 74.5967 123.578 74.5967 122.15C74.5967 120.708 73.4347 119.532 71.9927 119.532C70.5647 119.532 69.4027 120.708 69.4027 122.15C69.4027 123.578 70.5647 124.74 71.9927 124.74ZM79.325 126H77.967V115.08H79.325V126ZM86.7264 126H85.2984V115.78H91.8924V117.166H86.7264V120.162H91.6124V121.548H86.7264V126ZM96.6925 126.098C94.6205 126.098 92.9405 124.32 92.9405 122.15C92.9405 119.966 94.6205 118.188 96.6925 118.188C97.9525 118.188 99.0865 118.944 99.5625 119.924L99.6325 118.3H100.893V126H99.6325L99.5625 124.39C99.0865 125.356 97.9525 126.098 96.6925 126.098ZM96.9165 124.74C98.3585 124.74 99.5205 123.578 99.5205 122.15C99.5205 120.708 98.3585 119.532 96.9165 119.532C95.4885 119.532 94.3265 120.708 94.3265 122.15C94.3265 123.578 95.4885 124.74 96.9165 124.74ZM104.249 126H102.891V118.3H104.151L104.235 119.56C104.683 118.734 105.551 118.244 106.685 118.258C106.881 118.258 107.077 118.272 107.259 118.3L106.979 119.616C106.895 119.602 106.797 119.588 106.713 119.588C105.411 119.588 104.249 120.316 104.249 122.444V126ZM109.964 126H108.606V118.3H109.866L109.936 119.574C110.328 118.678 111.196 118.188 112.036 118.188C113.268 118.188 114.066 118.902 114.388 119.826C114.71 118.916 115.508 118.188 116.628 118.188C118.266 118.188 119.484 119.238 119.484 121.912V126H118.112V121.912C118.112 120.148 117.328 119.532 116.418 119.532C115.564 119.532 114.724 120.148 114.724 121.912V126H113.352V121.912C113.352 120.148 112.568 119.532 111.658 119.532C110.748 119.532 109.964 120.316 109.964 122.08V126ZM124.263 126.14C123.157 126.14 121.729 125.776 120.833 124.796L121.771 123.9C122.289 124.474 123.297 124.852 124.263 124.852C125.271 124.852 125.971 124.46 125.971 123.788C125.971 122.206 121.099 123.172 121.099 120.316C121.099 119.056 122.247 118.174 124.011 118.174C125.005 118.174 126.265 118.44 127.105 119.448L126.265 120.288C125.733 119.644 124.767 119.406 124.053 119.406C123.129 119.406 122.471 119.742 122.471 120.33C122.471 121.73 127.343 120.862 127.343 123.746C127.343 125.398 125.873 126.14 124.263 126.14ZM129.257 126.098C128.795 126.098 128.417 125.706 128.417 125.244C128.417 124.782 128.795 124.404 129.257 124.404C129.719 124.404 130.097 124.782 130.097 125.244C130.097 125.706 129.719 126.098 129.257 126.098ZM131.841 126.098C131.379 126.098 131.001 125.706 131.001 125.244C131.001 124.782 131.379 124.404 131.841 124.404C132.303 124.404 132.681 124.782 132.681 125.244C132.681 125.706 132.303 126.098 131.841 126.098ZM134.425 126.098C133.963 126.098 133.585 125.706 133.585 125.244C133.585 124.782 133.963 124.404 134.425 124.404C134.887 124.404 135.265 124.782 135.265 125.244C135.265 125.706 134.887 126.098 134.425 126.098Z" fill="black"/>
<path d="M8.816 163H0.32V161.416L4.64 157.336C5.376 156.664 5.952 155.992 5.952 155.208C5.952 154.28 5.28 153.688 4.432 153.688C3.632 153.688 3.072 154.248 2.816 154.808L0.432 153.992C0.896 152.344 2.528 151.096 4.416 151.096C6.704 151.096 8.544 152.664 8.544 155.224C8.544 156.696 7.488 157.928 6.4 158.968L4.496 160.584H8.816V163ZM12.5408 156.664C10.9728 156.664 9.86875 155.4 9.86875 153.496C9.86875 151.624 10.9728 150.392 12.5408 150.392C14.1088 150.392 15.1968 151.624 15.1968 153.496C15.1968 155.4 14.1088 156.664 12.5408 156.664ZM13.5648 163H11.8048L18.2688 150.504H20.0288L13.5648 163ZM12.5248 155.128C13.1328 155.128 13.6608 154.696 13.6608 153.496C13.6608 152.36 13.1328 151.928 12.5248 151.928C11.9648 151.928 11.4048 152.36 11.4048 153.496C11.4048 154.696 11.9648 155.128 12.5248 155.128ZM19.3088 163.16C17.7408 163.16 16.6368 161.896 16.6368 159.992C16.6368 158.12 17.7408 156.888 19.3088 156.888C20.8608 156.888 21.9488 158.12 21.9488 159.992C21.9488 161.896 20.8608 163.16 19.3088 163.16ZM19.2928 161.624C19.8848 161.624 20.4128 161.192 20.4128 159.992C20.4128 158.856 19.8848 158.424 19.2928 158.424C18.7168 158.424 18.1728 158.856 18.1728 159.992C18.1728 161.192 18.7168 161.624 19.2928 161.624Z" fill="#569FD6"/>
<path d="M32.0099 158.45H26.8579V157.316H32.0099V158.45ZM39.0978 163H37.6558V152.78H39.1678L43.0458 159.36L46.9098 152.78H48.4358V163H46.9938V155.188L43.4658 161.194H42.6118L39.0978 155.188V163ZM54.1028 163.112C51.7648 163.112 50.0148 161.32 50.0148 159.136C50.0148 156.966 51.7648 155.202 53.9208 155.202C56.1608 155.202 57.8268 156.966 57.8268 159.136C57.8268 159.318 57.7988 159.584 57.7848 159.78H51.4848C51.6948 160.942 52.7728 161.824 54.1028 161.824C55.0548 161.824 55.8108 161.432 56.3008 160.83L57.4068 161.516C56.6788 162.482 55.4048 163.112 54.1028 163.112ZM51.4708 158.66H56.4128C56.3428 157.47 55.3488 156.476 53.9348 156.476C52.5768 156.476 51.5548 157.47 51.4708 158.66ZM62.6535 163.098C60.5815 163.098 58.9015 161.32 58.9015 159.15C58.9015 156.966 60.5815 155.188 62.6535 155.188C63.8995 155.188 65.0195 155.916 65.4815 156.882V152.08H66.8535V163H65.5935L65.5235 161.39C65.0475 162.356 63.9135 163.098 62.6535 163.098ZM62.8775 161.74C64.3195 161.74 65.4815 160.578 65.4815 159.15C65.4815 157.708 64.3195 156.532 62.8775 156.532C61.4495 156.532 60.2875 157.708 60.2875 159.15C60.2875 160.578 61.4495 161.74 62.8775 161.74ZM69.5378 154.516C69.0618 154.516 68.6698 154.124 68.6698 153.648C68.6698 153.172 69.0618 152.78 69.5378 152.78C69.9998 152.78 70.3918 153.172 70.3918 153.648C70.3918 154.124 69.9998 154.516 69.5378 154.516ZM70.2098 163H68.8518V155.3H70.2098V163ZM75.701 163.112C73.517 163.112 71.753 161.32 71.753 159.136C71.753 156.966 73.517 155.202 75.701 155.202C77.031 155.202 78.207 155.86 78.935 156.868L77.801 157.624C77.325 156.994 76.555 156.588 75.701 156.588C74.273 156.588 73.139 157.736 73.139 159.136C73.139 160.564 74.273 161.712 75.701 161.712C76.583 161.712 77.367 161.278 77.829 160.606L78.963 161.362C78.263 162.412 77.059 163.112 75.701 163.112ZM83.6671 163.098C81.5951 163.098 79.9151 161.32 79.9151 159.15C79.9151 156.966 81.5951 155.188 83.6671 155.188C84.9271 155.188 86.0611 155.944 86.5371 156.924L86.6071 155.3H87.8671V163H86.6071L86.5371 161.39C86.0611 162.356 84.9271 163.098 83.6671 163.098ZM83.8911 161.74C85.3331 161.74 86.4951 160.578 86.4951 159.15C86.4951 157.708 85.3331 156.532 83.8911 156.532C82.4631 156.532 81.3011 157.708 81.3011 159.15C81.3011 160.578 82.4631 161.74 83.8911 161.74ZM91.2234 163H89.8654V152.08H91.2234V163ZM100.347 163.098C98.2748 163.098 96.5948 161.32 96.5948 159.15C96.5948 156.966 98.2748 155.188 100.347 155.188C101.607 155.188 102.741 155.944 103.217 156.924L103.287 155.3H104.547V163H103.287L103.217 161.39C102.741 162.356 101.607 163.098 100.347 163.098ZM100.571 161.74C102.013 161.74 103.175 160.578 103.175 159.15C103.175 157.708 102.013 156.532 100.571 156.532C99.1428 156.532 97.9808 157.708 97.9808 159.15C97.9808 160.578 99.1428 161.74 100.571 161.74ZM107.903 163H106.545V155.3H107.805L107.875 156.658C108.295 155.846 109.121 155.188 110.297 155.188C112.089 155.188 113.447 156.42 113.447 159.08V163H112.075V159.08C112.075 157.33 111.123 156.532 109.989 156.532C108.869 156.532 107.903 157.316 107.903 159.08V163ZM118.571 163.098C116.499 163.098 114.819 161.32 114.819 159.15C114.819 156.966 116.499 155.188 118.571 155.188C119.817 155.188 120.937 155.916 121.399 156.882V152.08H122.771V163H121.511L121.441 161.39C120.965 162.356 119.831 163.098 118.571 163.098ZM118.795 161.74C120.237 161.74 121.399 160.578 121.399 159.15C121.399 157.708 120.237 156.532 118.795 156.532C117.367 156.532 116.205 157.708 116.205 159.15C116.205 160.578 117.367 161.74 118.795 161.74ZM131.874 163H128.738V152.78H131.874C135.052 152.78 137.25 155.034 137.25 157.876C137.25 160.746 135.136 163 131.874 163ZM130.18 154.194V161.572H131.874C134.31 161.572 135.752 159.906 135.752 157.862C135.752 155.888 134.226 154.194 131.874 154.194H130.18ZM142.573 163.112C140.235 163.112 138.485 161.32 138.485 159.136C138.485 156.966 140.235 155.202 142.391 155.202C144.631 155.202 146.297 156.966 146.297 159.136C146.297 159.318 146.269 159.584 146.255 159.78H139.955C140.165 160.942 141.243 161.824 142.573 161.824C143.525 161.824 144.281 161.432 144.771 160.83L145.877 161.516C145.149 162.482 143.875 163.112 142.573 163.112ZM139.941 158.66H144.883C144.813 157.47 143.819 156.476 142.405 156.476C141.047 156.476 140.025 157.47 139.941 158.66ZM149.192 163H147.834V155.3H149.094L149.164 156.658C149.584 155.846 150.41 155.188 151.586 155.188C153.378 155.188 154.736 156.42 154.736 159.08V163H153.364V159.08C153.364 157.33 152.412 156.532 151.278 156.532C150.158 156.532 149.192 157.316 149.192 159.08V163ZM159.333 163.126C157.919 163.126 156.743 162.272 156.743 160.13V156.532H155.707V155.3H156.785L156.953 152.78H158.101V155.3H159.949V156.532H158.101V160.116C158.101 161.222 158.647 161.796 159.515 161.796C159.711 161.796 159.921 161.768 160.103 161.698L160.453 162.916C160.131 163.056 159.739 163.126 159.333 163.126ZM164.796 163.098C162.724 163.098 161.044 161.32 161.044 159.15C161.044 156.966 162.724 155.188 164.796 155.188C166.056 155.188 167.19 155.944 167.666 156.924L167.736 155.3H168.996V163H167.736L167.666 161.39C167.19 162.356 166.056 163.098 164.796 163.098ZM165.02 161.74C166.462 161.74 167.624 160.578 167.624 159.15C167.624 157.708 166.462 156.532 165.02 156.532C163.592 156.532 162.43 157.708 162.43 159.15C162.43 160.578 163.592 161.74 165.02 161.74ZM172.352 163H170.994V152.08H172.352V163ZM2.59 181H1.148V170.78H5.026C7.098 170.78 8.47 172.222 8.47 173.986C8.47 175.414 7.532 176.618 6.132 176.954L8.638 181H6.958L4.634 177.206H2.59V181ZM2.59 172.194V175.792H4.998C6.23 175.792 6.986 174.966 6.986 173.986C6.986 173.034 6.23 172.194 4.998 172.194H2.59ZM13.3293 181.112C10.9913 181.112 9.24131 179.32 9.24131 177.136C9.24131 174.966 10.9913 173.202 13.1473 173.202C15.3873 173.202 17.0533 174.966 17.0533 177.136C17.0533 177.318 17.0253 177.584 17.0113 177.78H10.7113C10.9213 178.942 11.9993 179.824 13.3293 179.824C14.2813 179.824 15.0373 179.432 15.5273 178.83L16.6333 179.516C15.9053 180.482 14.6313 181.112 13.3293 181.112ZM10.6973 176.66H15.6393C15.5693 175.47 14.5753 174.476 13.1613 174.476C11.8033 174.476 10.7813 175.47 10.6973 176.66ZM21.3546 181.14C20.2486 181.14 18.8206 180.776 17.9246 179.796L18.8626 178.9C19.3806 179.474 20.3886 179.852 21.3546 179.852C22.3626 179.852 23.0626 179.46 23.0626 178.788C23.0626 177.206 18.1906 178.172 18.1906 175.316C18.1906 174.056 19.3386 173.174 21.1026 173.174C22.0966 173.174 23.3566 173.44 24.1966 174.448L23.3566 175.288C22.8246 174.644 21.8586 174.406 21.1446 174.406C20.2206 174.406 19.5626 174.742 19.5626 175.33C19.5626 176.73 24.4346 175.862 24.4346 178.746C24.4346 180.398 22.9646 181.14 21.3546 181.14ZM29.4485 181.112C27.1105 181.112 25.3605 179.32 25.3605 177.136C25.3605 174.966 27.1105 173.202 29.2665 173.202C31.5065 173.202 33.1725 174.966 33.1725 177.136C33.1725 177.318 33.1445 177.584 33.1305 177.78H26.8305C27.0405 178.942 28.1185 179.824 29.4485 179.824C30.4005 179.824 31.1565 179.432 31.6465 178.83L32.7525 179.516C32.0245 180.482 30.7505 181.112 29.4485 181.112ZM26.8165 176.66H31.7585C31.6885 175.47 30.6945 174.476 29.2805 174.476C27.9225 174.476 26.9005 175.47 26.8165 176.66ZM37.9992 181.098C35.9272 181.098 34.2472 179.32 34.2472 177.15C34.2472 174.966 35.9272 173.188 37.9992 173.188C39.2592 173.188 40.3932 173.944 40.8692 174.924L40.9392 173.3H42.1992V181H40.9392L40.8692 179.39C40.3932 180.356 39.2592 181.098 37.9992 181.098ZM38.2232 179.74C39.6652 179.74 40.8272 178.578 40.8272 177.15C40.8272 175.708 39.6652 174.532 38.2232 174.532C36.7952 174.532 35.6332 175.708 35.6332 177.15C35.6332 178.578 36.7952 179.74 38.2232 179.74ZM45.5555 181H44.1975V173.3H45.4575L45.5415 174.56C45.9895 173.734 46.8575 173.244 47.9915 173.258C48.1875 173.258 48.3835 173.272 48.5655 173.3L48.2855 174.616C48.2015 174.602 48.1035 174.588 48.0195 174.588C46.7175 174.588 45.5555 175.316 45.5555 177.444V181ZM52.9471 181.112C50.7631 181.112 48.9991 179.32 48.9991 177.136C48.9991 174.966 50.7631 173.202 52.9471 173.202C54.2771 173.202 55.4531 173.86 56.1811 174.868L55.0471 175.624C54.5711 174.994 53.8011 174.588 52.9471 174.588C51.5191 174.588 50.3851 175.736 50.3851 177.136C50.3851 178.564 51.5191 179.712 52.9471 179.712C53.8291 179.712 54.6131 179.278 55.0751 178.606L56.2091 179.362C55.5091 180.412 54.3051 181.112 52.9471 181.112ZM59.0359 181H57.6779V170.08H59.0359V174.63C59.4559 173.832 60.2819 173.188 61.4299 173.188C63.2219 173.188 64.5799 174.42 64.5799 177.08V181H63.2079V177.08C63.2079 175.33 62.2559 174.532 61.1219 174.532C60.0019 174.532 59.0359 175.316 59.0359 177.08V181ZM74.0924 181H72.6084L69.5004 170.78H71.0124L73.3924 178.536L75.7164 170.766H77.0044L79.3284 178.536L81.7084 170.78H83.2204L80.1124 181H78.6424L76.3744 173.23L74.0924 181ZM87.3045 181.112C85.1205 181.112 83.3565 179.32 83.3565 177.136C83.3565 174.966 85.1205 173.202 87.3045 173.202C89.4745 173.202 91.2525 174.966 91.2525 177.136C91.2525 179.32 89.4745 181.112 87.3045 181.112ZM87.3045 179.712C88.7185 179.712 89.8665 178.564 89.8665 177.136C89.8665 175.736 88.7185 174.588 87.3045 174.588C85.8765 174.588 84.7425 175.736 84.7425 177.136C84.7425 178.564 85.8765 179.712 87.3045 179.712ZM94.159 181H92.801V173.3H94.061L94.145 174.56C94.593 173.734 95.461 173.244 96.595 173.258C96.791 173.258 96.987 173.272 97.169 173.3L96.889 174.616C96.805 174.602 96.707 174.588 96.623 174.588C95.321 174.588 94.159 175.316 94.159 177.444V181ZM99.7084 181H98.4064V170.08H99.7084V176.744L103.152 173.3H104.776L101.836 176.366L105.168 181H103.558L100.954 177.388L99.7084 178.592V181ZM109.032 181.14C107.926 181.14 106.498 180.776 105.602 179.796L106.54 178.9C107.058 179.474 108.066 179.852 109.032 179.852C110.04 179.852 110.74 179.46 110.74 178.788C110.74 177.206 105.868 178.172 105.868 175.316C105.868 174.056 107.016 173.174 108.78 173.174C109.774 173.174 111.034 173.44 111.874 174.448L111.034 175.288C110.502 174.644 109.536 174.406 108.822 174.406C107.898 174.406 107.24 174.742 107.24 175.33C107.24 176.73 112.112 175.862 112.112 178.746C112.112 180.398 110.642 181.14 109.032 181.14ZM115.091 181H113.733V170.08H115.091V174.63C115.511 173.832 116.337 173.188 117.485 173.188C119.277 173.188 120.635 174.42 120.635 177.08V181H119.263V177.08C119.263 175.33 118.311 174.532 117.177 174.532C116.057 174.532 115.091 175.316 115.091 177.08V181ZM125.955 181.112C123.771 181.112 122.007 179.32 122.007 177.136C122.007 174.966 123.771 173.202 125.955 173.202C128.125 173.202 129.903 174.966 129.903 177.136C129.903 179.32 128.125 181.112 125.955 181.112ZM125.955 179.712C127.369 179.712 128.517 178.564 128.517 177.136C128.517 175.736 127.369 174.588 125.955 174.588C124.527 174.588 123.393 175.736 123.393 177.136C123.393 178.564 124.527 179.712 125.955 179.712ZM132.714 184.08H131.356V173.3H132.616L132.686 174.896C133.148 173.944 134.282 173.202 135.542 173.202C137.614 173.202 139.294 174.966 139.294 177.136C139.294 179.32 137.614 181.112 135.542 181.112C134.296 181.112 133.176 180.37 132.714 179.418V184.08ZM135.332 179.754C136.76 179.754 137.922 178.578 137.922 177.136C137.922 175.708 136.76 174.546 135.332 174.546C133.876 174.546 132.714 175.708 132.714 177.136C132.714 178.578 133.876 179.754 135.332 179.754Z" fill="black"/>
</svg>
