<svg width="207" height="255" viewBox="0 0 207 255" fill="none" xmlns="http://www.w3.org/2000/svg">
<path d="M27.59 16H26.148V5.78H30.026C32.098 5.78 33.47 7.222 33.47 8.986C33.47 10.414 32.532 11.618 31.132 11.954L33.638 16H31.958L29.634 12.206H27.59V16ZM27.59 7.194V10.792H29.998C31.23 10.792 31.986 9.966 31.986 8.986C31.986 8.034 31.23 7.194 29.998 7.194H27.59ZM38.3293 16.112C35.9913 16.112 34.2413 14.32 34.2413 12.136C34.2413 9.966 35.9913 8.202 38.1473 8.202C40.3873 8.202 42.0533 9.966 42.0533 12.136C42.0533 12.318 42.0253 12.584 42.0113 12.78H35.7113C35.9213 13.942 36.9993 14.824 38.3293 14.824C39.2813 14.824 40.0373 14.432 40.5273 13.83L41.6333 14.516C40.9053 15.482 39.6313 16.112 38.3293 16.112ZM35.6973 11.66H40.6393C40.5693 10.47 39.5753 9.476 38.1613 9.476C36.8033 9.476 35.7813 10.47 35.6973 11.66ZM47.076 16.112C44.892 16.112 43.128 14.32 43.128 12.136C43.128 9.966 44.892 8.202 47.076 8.202C48.406 8.202 49.582 8.86 50.31 9.868L49.176 10.624C48.7 9.994 47.93 9.588 47.076 9.588C45.648 9.588 44.514 10.736 44.514 12.136C44.514 13.564 45.648 14.712 47.076 14.712C47.958 14.712 48.742 14.278 49.204 13.606L50.338 14.362C49.638 15.412 48.434 16.112 47.076 16.112ZM55.3781 16.112C53.0401 16.112 51.2901 14.32 51.2901 12.136C51.2901 9.966 53.0401 8.202 55.1961 8.202C57.4361 8.202 59.1021 9.966 59.1021 12.136C59.1021 12.318 59.0741 12.584 59.0601 12.78H52.7601C52.9701 13.942 54.0481 14.824 55.3781 14.824C56.3301 14.824 57.0861 14.432 57.5761 13.83L58.6821 14.516C57.9541 15.482 56.6801 16.112 55.3781 16.112ZM52.7461 11.66H57.6881C57.6181 10.47 56.6241 9.476 55.2101 9.476C53.8521 9.476 52.8301 10.47 52.7461 11.66ZM61.3249 7.516C60.8489 7.516 60.4569 7.124 60.4569 6.648C60.4569 6.172 60.8489 5.78 61.3249 5.78C61.7869 5.78 62.1789 6.172 62.1789 6.648C62.1789 7.124 61.7869 7.516 61.3249 7.516ZM61.9969 16H60.6389V8.3H61.9969V16ZM67.5581 16H66.2001L63.1761 8.3H64.6461L66.8861 13.956L69.1121 8.3H70.5821L67.5581 16ZM74.9836 16.112C72.6456 16.112 70.8956 14.32 70.8956 12.136C70.8956 9.966 72.6456 8.202 74.8016 8.202C77.0416 8.202 78.7076 9.966 78.7076 12.136C78.7076 12.318 78.6796 12.584 78.6656 12.78H72.3656C72.5756 13.942 73.6536 14.824 74.9836 14.824C75.9356 14.824 76.6916 14.432 77.1816 13.83L78.2876 14.516C77.5596 15.482 76.2856 16.112 74.9836 16.112ZM72.3516 11.66H77.2936C77.2236 10.47 76.2296 9.476 74.8156 9.476C73.4576 9.476 72.4356 10.47 72.3516 11.66ZM83.5343 16.098C81.4623 16.098 79.7823 14.32 79.7823 12.15C79.7823 9.966 81.4623 8.188 83.5343 8.188C84.7803 8.188 85.9003 8.916 86.3623 9.882V5.08H87.7343V16H86.4743L86.4043 14.39C85.9283 15.356 84.7943 16.098 83.5343 16.098ZM83.7583 14.74C85.2003 14.74 86.3623 13.578 86.3623 12.15C86.3623 10.708 85.2003 9.532 83.7583 9.532C82.3303 9.532 81.1683 10.708 81.1683 12.15C81.1683 13.578 82.3303 14.74 83.7583 14.74Z" fill="black"/>
<rect y="2" width="15" height="15" fill="#F47D39"/>
<path d="M132.806 16H131.21L134.948 5.78H136.516L140.254 16H138.686L137.706 13.34H133.772L132.806 16ZM135.732 7.726L134.192 11.982H137.286L135.732 7.726ZM142.827 19.08H141.469V8.3H142.729L142.799 9.896C143.261 8.944 144.395 8.202 145.655 8.202C147.727 8.202 149.407 9.966 149.407 12.136C149.407 14.32 147.727 16.112 145.655 16.112C144.409 16.112 143.289 15.37 142.827 14.418V19.08ZM145.445 14.754C146.873 14.754 148.035 13.578 148.035 12.136C148.035 10.708 146.873 9.546 145.445 9.546C143.989 9.546 142.827 10.708 142.827 12.136C142.827 13.578 143.989 14.754 145.445 14.754ZM152.22 19.08H150.862V8.3H152.122L152.192 9.896C152.654 8.944 153.788 8.202 155.048 8.202C157.12 8.202 158.8 9.966 158.8 12.136C158.8 14.32 157.12 16.112 155.048 16.112C153.802 16.112 152.682 15.37 152.22 14.418V19.08ZM154.838 14.754C156.266 14.754 157.428 13.578 157.428 12.136C157.428 10.708 156.266 9.546 154.838 9.546C153.382 9.546 152.22 10.708 152.22 12.136C152.22 13.578 153.382 14.754 154.838 14.754ZM161.708 16H160.35V8.3H161.61L161.694 9.56C162.142 8.734 163.01 8.244 164.144 8.258C164.34 8.258 164.536 8.272 164.718 8.3L164.438 9.616C164.354 9.602 164.256 9.588 164.172 9.588C162.87 9.588 161.708 10.316 161.708 12.444V16ZM169.099 16.112C166.915 16.112 165.151 14.32 165.151 12.136C165.151 9.966 166.915 8.202 169.099 8.202C171.269 8.202 173.047 9.966 173.047 12.136C173.047 14.32 171.269 16.112 169.099 16.112ZM169.099 14.712C170.513 14.712 171.661 13.564 171.661 12.136C171.661 10.736 170.513 9.588 169.099 9.588C167.671 9.588 166.537 10.736 166.537 12.136C166.537 13.564 167.671 14.712 169.099 14.712ZM177.755 16H176.397L173.373 8.3H174.843L177.083 13.956L179.309 8.3H180.779L177.755 16ZM185.181 16.112C182.843 16.112 181.093 14.32 181.093 12.136C181.093 9.966 182.843 8.202 184.999 8.202C187.239 8.202 188.905 9.966 188.905 12.136C188.905 12.318 188.877 12.584 188.863 12.78H182.563C182.773 13.942 183.851 14.824 185.181 14.824C186.133 14.824 186.889 14.432 187.379 13.83L188.485 14.516C187.757 15.482 186.483 16.112 185.181 16.112ZM182.549 11.66H187.491C187.421 10.47 186.427 9.476 185.013 9.476C183.655 9.476 182.633 10.47 182.549 11.66ZM193.732 16.098C191.66 16.098 189.98 14.32 189.98 12.15C189.98 9.966 191.66 8.188 193.732 8.188C194.978 8.188 196.098 8.916 196.56 9.882V5.08H197.932V16H196.672L196.602 14.39C196.126 15.356 194.992 16.098 193.732 16.098ZM193.956 14.74C195.398 14.74 196.56 13.578 196.56 12.15C196.56 10.708 195.398 9.532 193.956 9.532C192.528 9.532 191.366 10.708 191.366 12.15C191.366 13.578 192.528 14.74 193.956 14.74Z" fill="black"/>
<rect x="106" y="2" width="15" height="15" fill="#569FD6"/>
<g clip-path="url(#clip0_3003_2120)">
<path d="M3.66797 46.2558C2.99335 46.2591 2.3248 46.1283 1.70117 45.871C1.05321 45.5951 0.47281 45.182 0 44.6601L0.839844 43.8066C1.21489 44.1769 1.65096 44.4798 2.12891 44.7021C2.61681 44.9214 3.14676 45.0314 3.68164 45.0243C4.24605 45.0592 4.80586 44.9038 5.27148 44.5829C5.46727 44.4425 5.62538 44.2559 5.73169 44.0397C5.838 43.8235 5.88921 43.5844 5.88086 43.3437C5.89189 43.003 5.77402 42.6706 5.55078 42.413C5.32273 42.1595 5.04029 41.9609 4.72461 41.832C4.39453 41.6923 3.94336 41.5331 3.375 41.3564C2.81095 41.183 2.25896 40.9726 1.72266 40.7265C1.29445 40.522 0.920425 40.2196 0.630859 39.8437C0.318129 39.4192 0.159653 38.9007 0.181641 38.3739C0.174339 37.8935 0.314041 37.4222 0.582031 37.0234C0.870695 36.608 1.27083 36.2827 1.73633 36.0849C2.29746 35.8449 2.90353 35.728 3.51367 35.7421C4.15054 35.7462 4.77964 35.8822 5.36133 36.1415C5.97786 36.4068 6.51059 36.8348 6.90234 37.3798L5.96484 38.122C5.68852 37.7652 5.33095 37.4796 4.92188 37.289C4.50058 37.0825 4.03938 36.9702 3.57031 36.9599C3.19828 36.9536 2.82824 37.0155 2.47852 37.1425C2.1942 37.2406 1.94087 37.4121 1.74414 37.6396C1.57379 37.8408 1.48157 38.0966 1.48438 38.3603C1.47909 38.5093 1.50364 38.6579 1.55664 38.7973C1.60964 38.9367 1.69001 39.0639 1.79297 39.1718C2.01109 39.3957 2.27306 39.5723 2.5625 39.6904C2.87109 39.8212 3.29492 39.9696 3.83594 40.1386C4.42912 40.3148 5.0093 40.5321 5.57227 40.789C6.01618 41.003 6.40456 41.3169 6.70703 41.706C7.04122 42.1637 7.2087 42.722 7.18164 43.288C7.19531 43.8484 7.03941 44.3998 6.73438 44.87C6.4256 45.3265 5.99345 45.6859 5.48828 45.9062C4.91516 46.1569 4.2932 46.2763 3.66797 46.2558Z" fill="black"/>
<path d="M12.3478 46.2139C11.6516 46.2202 10.9669 46.0365 10.3673 45.6827C9.77225 45.3339 9.27767 44.837 8.93175 44.2403C8.5789 43.6375 8.39536 42.9505 8.4005 42.252C8.39617 41.5604 8.57979 40.8806 8.93175 40.2852C9.27906 39.6916 9.77347 39.1976 10.3673 38.8507C10.9434 38.5156 11.5953 38.3327 12.2616 38.3192C12.9279 38.3057 13.5867 38.4621 14.1759 38.7735C14.7296 39.067 15.2066 39.4865 15.5685 39.9981L14.5177 40.6983C14.2737 40.361 13.9522 40.0874 13.5802 39.9005C13.199 39.7047 12.7762 39.6038 12.3478 39.6065C11.8784 39.6027 11.4168 39.7258 11.0118 39.963C10.6102 40.1967 10.2753 40.5295 10.0392 40.9298C9.79733 41.3282 9.67089 41.786 9.67393 42.252C9.67031 42.7252 9.79665 43.1904 10.0392 43.5968C10.2748 44.0007 10.6096 44.3378 11.0118 44.5762C11.4151 44.8184 11.8774 44.9445 12.3478 44.9405C12.7829 44.9394 13.2114 44.833 13.5967 44.6307C13.9819 44.4284 14.3127 44.136 14.5607 43.7784L15.6095 44.4786C15.2506 45.0059 14.7712 45.4401 14.211 45.7452C13.6401 46.0579 12.9987 46.2192 12.3478 46.2139Z" fill="black"/>
<path d="M17.8088 37.6045C17.7013 37.6059 17.5947 37.585 17.4958 37.5427C17.3969 37.5005 17.3079 37.438 17.2346 37.3594C17.159 37.2855 17.099 37.1973 17.0581 37.0999C17.0171 37.0024 16.9961 36.8977 16.9963 36.792C16.9939 36.683 17.0138 36.5745 17.0548 36.4734C17.0957 36.3723 17.1569 36.2807 17.2346 36.2041C17.3098 36.1281 17.3995 36.0678 17.4984 36.0269C17.5972 35.986 17.7033 35.9652 17.8103 35.9658C17.9172 35.9665 18.023 35.9884 18.1214 36.0305C18.2198 36.0726 18.3087 36.134 18.383 36.211C18.4592 36.2872 18.5193 36.3778 18.5599 36.4776C18.6005 36.5773 18.6207 36.6843 18.6193 36.792C18.6199 36.8976 18.5993 37.0022 18.5587 37.0996C18.5181 37.1971 18.4583 37.2854 18.383 37.3594C18.3094 37.4377 18.2204 37.5001 18.1215 37.5423C18.0227 37.5844 17.9162 37.6056 17.8088 37.6045ZM17.1779 46.1162V38.416H18.4377V46.1162H17.1779Z" fill="black"/>
<path d="M24.0938 46.2139C23.3684 46.2217 22.6537 46.0385 22.0216 45.6826C21.412 45.3416 20.9049 44.8435 20.5528 44.2402C20.2008 43.637 20.0167 42.9504 20.0196 42.252C20.0151 41.5611 20.1966 40.8818 20.545 40.2852C20.8866 39.6918 21.3766 39.1975 21.9669 38.8506C22.5651 38.502 23.2452 38.3184 23.9376 38.3184C24.63 38.3184 25.31 38.502 25.9083 38.8506C26.4926 39.1973 26.9751 39.6921 27.3067 40.2852C27.6474 40.8843 27.8239 41.5627 27.8184 42.252C27.8158 42.4625 27.8021 42.6727 27.7774 42.8818H21.379C21.4526 43.2812 21.6229 43.6564 21.8751 43.9746C22.1336 44.3023 22.4645 44.5657 22.8419 44.7441C23.2324 44.9316 23.6606 45.0275 24.0938 45.0244C24.5429 45.0303 24.9878 44.937 25.3966 44.751C25.7788 44.5773 26.1147 44.316 26.377 43.9883L27.3985 44.6318C27.0175 45.1227 26.5255 45.5163 25.963 45.7803C25.3817 46.0669 24.742 46.2153 24.0938 46.2139ZM26.5157 41.832C26.5003 41.4181 26.3719 41.0162 26.1446 40.6699C25.9158 40.3148 25.6006 40.0235 25.2286 39.8232C24.8284 39.6087 24.3799 39.5001 23.9259 39.5078C23.4859 39.5037 23.0522 39.6123 22.6661 39.8232C22.2941 40.0235 21.9789 40.3148 21.7501 40.6699C21.5237 41.0176 21.3912 41.418 21.3653 41.832H26.5157Z" fill="black"/>
<path d="M29.4141 46.1162V38.416H30.5762L30.6465 39.8164C30.8709 39.3781 31.2062 39.0064 31.6191 38.7383C32.0635 38.4526 32.5832 38.3063 33.1113 38.3183C33.6884 38.306 34.2576 38.4538 34.7559 38.7451C35.2498 39.0568 35.6379 39.5106 35.8691 40.0469C36.1589 40.7302 36.2975 41.4681 36.2754 42.2099V46.1162H35.0137V42.2099C35.0301 41.7018 34.9299 41.1967 34.7207 40.7334C34.554 40.3694 34.2836 40.0626 33.9434 39.8515C33.61 39.657 33.2297 39.5577 32.8438 39.5644C32.4561 39.5585 32.074 39.6577 31.7383 39.8515C31.3973 40.0587 31.1265 40.3635 30.9609 40.7265C30.7543 41.1929 30.6562 41.7001 30.6738 42.2099V46.1162H29.4141Z" fill="black"/>
<path d="M40.8672 46.2422C40.5286 46.2549 40.1911 46.1968 39.8763 46.0715C39.5615 45.9463 39.2763 45.7565 39.0391 45.5146C38.5241 44.903 38.2701 44.1135 38.332 43.3164V39.5645H37.2832V38.416H38.3613L38.5137 35.8965H39.5918V38.416H41.4551V39.5645H39.5918V43.2881C39.5603 43.7468 39.6948 44.2015 39.9707 44.5693C40.101 44.717 40.2631 44.8334 40.4447 44.9097C40.6263 44.9859 40.8228 45.0201 41.0195 45.0098C41.226 45.0113 41.4308 44.9735 41.623 44.8984L41.9453 46.0459C41.6023 46.1814 41.236 46.2481 40.8672 46.2422Z" fill="black"/>
<path d="M44.0725 37.6045C43.9649 37.6059 43.8584 37.585 43.7595 37.5427C43.6606 37.5005 43.5716 37.438 43.4982 37.3594C43.4227 37.2855 43.3626 37.1973 43.3217 37.0999C43.2808 37.0024 43.2598 36.8977 43.26 36.792C43.2576 36.683 43.2775 36.5745 43.3184 36.4734C43.3594 36.3723 43.4206 36.2807 43.4982 36.2041C43.5735 36.1281 43.6632 36.0678 43.762 36.0269C43.8609 35.986 43.9669 35.9652 44.0739 35.9658C44.1809 35.9665 44.2867 35.9884 44.3851 36.0305C44.4834 36.0726 44.5723 36.134 44.6467 36.211C44.7228 36.2872 44.783 36.3778 44.8236 36.4776C44.8641 36.5773 44.8843 36.6843 44.883 36.792C44.8835 36.8976 44.8629 37.0022 44.8223 37.0996C44.7817 37.1971 44.722 37.2854 44.6467 37.3594C44.5731 37.4377 44.4842 37.5001 44.3853 37.5423C44.2865 37.5844 44.1799 37.6056 44.0725 37.6045ZM43.4416 46.1162V38.416H44.7014V46.1162H43.4416Z" fill="black"/>
<path d="M48.3008 46.1298L47.0254 46.1161V39.5644H46.0469V38.4159H47.0254V38.1083C47.001 37.4895 47.1214 36.8736 47.377 36.3095C47.5745 35.8842 47.9031 35.5335 48.3145 35.3085C48.7348 35.096 49.2009 34.99 49.6719 34.9999C49.8152 35.0001 49.9582 35.0119 50.0996 35.0351C50.2491 35.0597 50.3966 35.095 50.541 35.1405L50.1484 36.2743C50.0011 36.2395 49.8506 36.2205 49.6992 36.2177C49.5063 36.2078 49.3136 36.2418 49.1356 36.317C48.9577 36.3923 48.7992 36.5069 48.6719 36.6522C48.3843 37.0804 48.2532 37.5947 48.3008 38.1083V38.4159H52.123V46.1298L50.8613 46.1161V39.5644H48.3008V46.1298ZM51.4785 37.6044C51.2649 37.5984 51.0617 37.5109 50.9106 37.3598C50.7596 37.2087 50.672 37.0055 50.666 36.7919C50.6653 36.5749 50.7503 36.3665 50.9025 36.2118C51.0546 36.0571 51.2616 35.9687 51.4785 35.9657C51.586 35.9647 51.6925 35.9858 51.7914 36.028C51.8902 36.0702 51.9792 36.1325 52.0527 36.2108C52.1291 36.2869 52.1895 36.3774 52.2305 36.4772C52.2714 36.577 52.292 36.6841 52.291 36.7919C52.2912 36.8976 52.2702 37.0023 52.2292 37.0998C52.1883 37.1972 52.1283 37.2854 52.0527 37.3593C51.9792 37.4376 51.8901 37.4999 51.7913 37.5421C51.6924 37.5843 51.586 37.6055 51.4785 37.6044Z" fill="black"/>
<path d="M57.6525 46.2139C56.9563 46.2202 56.2716 46.0365 55.672 45.6827C55.0761 45.335 54.5813 44.8379 54.2364 44.2403C53.8821 43.638 53.6978 42.9508 53.7032 42.252C53.6987 41.5601 53.883 40.8801 54.2364 40.2852C54.5827 39.6908 55.0773 39.1965 55.672 38.8507C56.2477 38.5156 56.8993 38.3327 57.5653 38.3192C58.2313 38.3057 58.8898 38.4621 59.4786 38.7735C60.0323 39.067 60.5094 39.4865 60.8712 39.9981L59.8224 40.6983C59.5784 40.361 59.2569 40.0874 58.8849 39.9005C58.5037 39.7049 58.0809 39.604 57.6525 39.6065C57.1825 39.6024 56.7202 39.7256 56.3146 39.963C55.9129 40.1967 55.578 40.5295 55.3419 40.9298C55.1015 41.3287 54.9758 41.7863 54.9786 42.252C54.9753 42.725 55.1009 43.1899 55.3419 43.5968C55.5776 44.0007 55.9123 44.3378 56.3146 44.5762C56.7184 44.8187 57.1814 44.9448 57.6525 44.9405C58.0874 44.9397 58.5157 44.8335 58.9008 44.6312C59.2858 44.4288 59.6161 44.1362 59.8634 43.7784L60.9142 44.4786C60.555 45.0064 60.0749 45.4407 59.5138 45.7452C58.9436 46.0581 58.3028 46.2195 57.6525 46.2139Z" fill="black"/>
<path d="M66.4434 46.1162V35.8965H67.8574L71.8066 42.6299L75.7676 35.8965H77.1816V46.1162H75.8516V38.1221L72.2129 44.3105H71.4141L67.7734 38.1221V46.1162H66.4434Z" fill="black"/>
<path d="M80.0236 37.6046C79.9162 37.6056 79.8097 37.5845 79.7109 37.5423C79.612 37.5001 79.523 37.4378 79.4494 37.3594C79.3738 37.2856 79.3138 37.1974 79.2729 37.0999C79.232 37.0025 79.211 36.8978 79.2111 36.7921C79.2087 36.683 79.2286 36.5745 79.2696 36.4735C79.3106 36.3724 79.3718 36.2808 79.4494 36.2042C79.524 36.1277 79.6134 36.0672 79.7121 36.0262C79.8108 35.9852 79.9168 35.9647 80.0236 35.9659C80.1311 35.9645 80.2377 35.9854 80.3366 36.0277C80.4355 36.0699 80.5245 36.1324 80.5978 36.211C80.6743 36.2871 80.7347 36.3776 80.7756 36.4774C80.8165 36.5771 80.8371 36.6842 80.8361 36.7921C80.8363 36.8978 80.8153 37.0025 80.7744 37.0999C80.7334 37.1974 80.6734 37.2856 80.5978 37.3594C80.5245 37.4381 80.4355 37.5006 80.3366 37.5428C80.2377 37.585 80.1311 37.606 80.0236 37.6046ZM79.3947 46.1163V38.4161H80.6545V46.1163H79.3947Z" fill="black"/>
<path d="M85.4414 46.2421C84.8099 46.2394 84.1833 46.1305 83.5879 45.9199C82.9877 45.7197 82.4495 45.3679 82.0254 44.8984L82.9082 44.0722C83.2066 44.3925 83.5787 44.6353 83.9922 44.7792C84.4542 44.9589 84.9456 45.0513 85.4414 45.0517C85.8959 45.0733 86.3473 44.9667 86.7441 44.7441C86.8927 44.6633 87.0167 44.5438 87.103 44.3984C87.1893 44.2529 87.2347 44.087 87.2344 43.9179C87.2387 43.8083 87.2183 43.6992 87.1747 43.5986C87.1311 43.498 87.0654 43.4086 86.9824 43.3368C86.7865 43.1778 86.5597 43.0611 86.3164 42.9941C86.041 42.9101 85.6992 42.8261 85.2871 42.7421C84.769 42.6317 84.2578 42.4915 83.7559 42.3222C83.3631 42.1855 83.0097 41.9549 82.7266 41.6503C82.4264 41.312 82.2707 40.8696 82.293 40.4179C82.2877 40.0234 82.4157 39.6387 82.6562 39.3261C82.9236 38.9896 83.2764 38.7309 83.6777 38.5771C84.1588 38.3877 84.6725 38.2951 85.1895 38.3046C85.7641 38.304 86.3346 38.4008 86.877 38.5907C87.4217 38.7814 87.9034 39.1182 88.2695 39.5644L87.4863 40.3486C87.217 40.0378 86.8688 39.8053 86.4785 39.6757C86.0789 39.5306 85.6575 39.455 85.2324 39.4521C84.8153 39.4347 84.4006 39.5238 84.0273 39.7109C83.8899 39.775 83.7735 39.8768 83.6919 40.0046C83.6103 40.1324 83.5668 40.2809 83.5664 40.4325C83.5637 40.5284 83.5838 40.6234 83.6252 40.7099C83.6667 40.7964 83.7282 40.8717 83.8047 40.9296C83.9887 41.0681 84.1976 41.1702 84.4199 41.2304C84.6719 41.3046 84.9987 41.3886 85.4004 41.4824C85.9353 41.5949 86.4635 41.7374 86.9824 41.9091C87.396 42.0495 87.7684 42.2901 88.0664 42.6093C88.3793 42.9549 88.5429 43.4102 88.5215 43.8759C88.5362 44.3529 88.3858 44.8203 88.0957 45.1991C87.8027 45.5644 87.4117 45.8387 86.9686 45.9902C86.478 46.1621 85.9612 46.2473 85.4414 46.2421Z" fill="black"/>
<path d="M92.918 46.2422C92.2858 46.2395 91.6586 46.1305 91.0625 45.9199C90.4629 45.7197 89.9253 45.3679 89.502 44.8984L90.3828 44.0722C90.682 44.3926 91.0547 44.6353 91.4688 44.7793C91.9307 44.9593 92.4222 45.0517 92.918 45.0517C93.3718 45.0734 93.8226 44.9668 94.2188 44.7441C94.3676 44.6637 94.4918 44.5444 94.5781 44.3989C94.6645 44.2534 94.7097 44.0871 94.709 43.9179C94.7133 43.8084 94.6929 43.6992 94.6493 43.5986C94.6057 43.498 94.54 43.4086 94.457 43.3369C94.2618 43.1779 94.0357 43.0611 93.793 42.9941C93.5176 42.9101 93.1745 42.8261 92.7637 42.7422C92.245 42.6317 91.7331 42.4915 91.2305 42.3222C90.838 42.1851 90.4847 41.9545 90.2012 41.6504C89.901 41.3121 89.7453 40.8697 89.7676 40.4179C89.7623 40.0235 89.8903 39.6388 90.1309 39.3262C90.3994 38.99 90.7527 38.7314 91.1543 38.5771C91.6353 38.3874 92.1491 38.2948 92.666 38.3047C93.2406 38.3042 93.8112 38.401 94.3535 38.5908C94.898 38.782 95.3796 39.1187 95.7461 39.5644L94.9609 40.3486C94.6916 40.0378 94.3434 39.8054 93.9531 39.6758C93.5536 39.5305 93.1321 39.4549 92.707 39.4521C92.2905 39.435 91.8765 39.5241 91.5039 39.7109C91.366 39.7746 91.2491 39.8763 91.1671 40.0041C91.0851 40.132 91.0414 40.2807 91.041 40.4326C91.0387 40.5284 91.0591 40.6233 91.1005 40.7097C91.1419 40.7961 91.2032 40.8715 91.2793 40.9297C91.4641 41.0682 91.6735 41.1703 91.8965 41.2304C92.1484 41.3047 92.4746 41.3886 92.875 41.4824C93.4099 41.595 93.938 41.7375 94.4569 41.9092C94.8708 42.05 95.2437 42.2905 95.5428 42.6094C95.8549 42.9554 96.0184 43.4104 95.9979 43.876C96.013 44.3533 95.8618 44.821 95.5702 45.1992C95.2771 45.5644 94.8863 45.8388 94.4432 45.9902C93.9533 46.1621 93.4372 46.2474 92.918 46.2422Z" fill="black"/>
<path d="M98.2932 37.6046C98.1857 37.6056 98.0793 37.5845 97.9804 37.5423C97.8816 37.5001 97.7925 37.4378 97.7189 37.3594C97.6434 37.2856 97.5834 37.1974 97.5424 37.0999C97.5015 37.0025 97.4805 36.8978 97.4807 36.7921C97.4783 36.683 97.4982 36.5745 97.5391 36.4735C97.5801 36.3724 97.6413 36.2808 97.7189 36.2042C97.7935 36.1277 97.8829 36.0672 97.9816 36.0262C98.0803 35.9852 98.1863 35.9647 98.2932 35.9659C98.4007 35.9645 98.5073 35.9854 98.6061 36.0277C98.705 36.0699 98.794 36.1324 98.8674 36.211C98.9438 36.2871 99.0042 36.3776 99.0451 36.4774C99.086 36.5771 99.1066 36.6842 99.1057 36.7921C99.1058 36.8978 99.0848 37.0025 99.0439 37.0999C99.003 37.1974 98.943 37.2856 98.8674 37.3594C98.794 37.4381 98.705 37.5006 98.6061 37.5428C98.5073 37.585 98.4007 37.606 98.2932 37.6046ZM97.6643 46.1163V38.4161H98.924V46.1163H97.6643Z" fill="black"/>
<path d="M104.453 46.2139C103.757 46.2201 103.072 46.0364 102.473 45.6826C101.878 45.3339 101.383 44.8369 101.037 44.2402C100.684 43.6374 100.501 42.9505 100.506 42.252C100.502 41.5603 100.685 40.8805 101.037 40.2852C101.385 39.6916 101.879 39.1975 102.473 38.8506C103.074 38.502 103.756 38.3184 104.45 38.3184C105.145 38.3184 105.827 38.502 106.428 38.8506C107.02 39.1997 107.514 39.6933 107.863 40.2852C108.22 40.8788 108.407 41.5593 108.402 42.252C108.408 42.9515 108.221 43.6391 107.863 44.2402C107.515 44.8352 107.021 45.3317 106.428 45.6826C105.831 46.0369 105.148 46.2206 104.453 46.2139ZM104.453 44.9404C104.922 44.9429 105.382 44.8169 105.783 44.5762C106.189 44.339 106.525 43.9997 106.759 43.5918C106.992 43.1839 107.114 42.7219 107.113 42.252C107.116 41.7869 106.993 41.3299 106.756 40.9297C106.4 40.3206 105.818 39.8772 105.136 39.696C104.454 39.5149 103.729 39.6108 103.117 39.9629C102.716 40.1966 102.381 40.5295 102.145 40.9297C101.903 41.3281 101.776 41.7859 101.779 42.252C101.776 42.7252 101.902 43.1903 102.145 43.5967C102.38 44.0006 102.715 44.3377 103.117 44.5762C103.521 44.8184 103.983 44.9444 104.453 44.9404Z" fill="black"/>
<path d="M109.998 46.1162V38.416H111.16L111.229 39.8164C111.453 39.3777 111.789 39.0058 112.203 38.7383C112.647 38.4524 113.166 38.3061 113.693 38.3184C114.27 38.3058 114.84 38.4535 115.338 38.7451C115.832 39.0562 116.221 39.5102 116.451 40.0469C116.742 40.7299 116.88 41.468 116.857 42.21V46.1162H115.598V42.21C115.615 41.7016 115.514 41.1963 115.303 40.7334C115.136 40.3699 114.867 40.0633 114.527 39.8516C114.194 39.6573 113.814 39.558 113.428 39.5645C113.04 39.5585 112.658 39.6577 112.322 39.8516C111.981 40.0581 111.71 40.3632 111.545 40.7266C111.338 41.193 111.24 41.7002 111.258 42.21V46.1162H109.998Z" fill="black"/>
<path d="M121.674 46.2422C121.042 46.2395 120.414 46.1305 119.818 45.9199C119.219 45.7198 118.681 45.3679 118.258 44.8984L119.139 44.0722C119.438 44.3926 119.811 44.6353 120.225 44.7793C120.687 44.9593 121.178 45.0517 121.674 45.0517C122.128 45.0734 122.579 44.9668 122.975 44.7441C123.123 44.6637 123.248 44.5444 123.334 44.3989C123.42 44.2534 123.466 44.0871 123.465 43.9179C123.469 43.8084 123.449 43.6992 123.405 43.5986C123.362 43.498 123.296 43.4086 123.213 43.3369C123.018 43.1779 122.792 43.0611 122.549 42.9941C122.273 42.9101 121.93 42.8261 121.52 42.7422C121.001 42.6317 120.489 42.4915 119.986 42.3222C119.594 42.1851 119.241 41.9545 118.957 41.6504C118.657 41.3121 118.501 40.8697 118.523 40.4179C118.518 40.0235 118.646 39.6388 118.887 39.3262C119.155 38.99 119.509 38.7314 119.91 38.5771C120.391 38.3874 120.905 38.2948 121.422 38.3047C121.996 38.3042 122.567 38.401 123.109 38.5908C123.654 38.782 124.135 39.1187 124.502 39.5644L123.717 40.3486C123.447 40.0378 123.099 39.8054 122.709 39.6758C122.309 39.5305 121.888 39.4549 121.463 39.4521C121.046 39.435 120.632 39.5241 120.26 39.7109C120.122 39.7746 120.005 39.8763 119.923 40.0041C119.841 40.132 119.797 40.2807 119.797 40.4326C119.795 40.5284 119.815 40.6233 119.856 40.7097C119.898 40.7961 119.959 40.8715 120.035 40.9297C120.22 41.0682 120.429 41.1703 120.652 41.2304C120.904 41.3047 121.23 41.3886 121.631 41.4824C122.166 41.595 122.694 41.7375 123.213 41.9092C123.627 42.05 124 42.2905 124.299 42.6094C124.611 42.9554 124.774 43.4104 124.754 43.876C124.769 44.3533 124.618 44.821 124.326 45.1992C124.033 45.5644 123.642 45.8388 123.199 45.9902C122.709 46.1621 122.193 46.2474 121.674 46.2422Z" fill="black"/>
<path d="M3.66797 103.803C2.99335 103.806 2.3248 103.675 1.70117 103.418C1.05321 103.142 0.472807 102.729 0 102.207L0.839844 101.354C1.2149 101.724 1.65096 102.027 2.12891 102.249C2.61681 102.468 3.14676 102.578 3.68164 102.571C4.24605 102.606 4.80586 102.451 5.27148 102.13C5.46726 101.99 5.62538 101.803 5.73169 101.587C5.838 101.371 5.88921 101.132 5.88086 100.891C5.89189 100.55 5.77402 100.218 5.55078 99.9601C5.32273 99.7066 5.04029 99.508 4.72461 99.3791C4.39453 99.2394 3.94336 99.0802 3.375 98.9035C2.81095 98.7301 2.25896 98.5197 1.72266 98.2736C1.29445 98.0691 0.920428 97.7667 0.630859 97.3908C0.318126 96.9663 0.15965 96.4478 0.181641 95.9211C0.174339 95.4406 0.314041 94.9693 0.582031 94.5705C0.870689 94.1551 1.27082 93.8298 1.73633 93.632C2.29746 93.392 2.90353 93.2751 3.51367 93.2892C4.15053 93.2933 4.77964 93.4293 5.36133 93.6886C5.97786 93.9539 6.51058 94.382 6.90234 94.9269L5.96484 95.6691C5.68853 95.3123 5.33095 95.0267 4.92188 94.8361C4.50058 94.6296 4.03938 94.5173 3.57031 94.507C3.19828 94.5007 2.82824 94.5626 2.47852 94.6896C2.1942 94.7877 1.94086 94.9592 1.74414 95.1867C1.57379 95.3879 1.48157 95.6438 1.48438 95.9074C1.47909 96.0564 1.50364 96.2048 1.55664 96.3442C1.60964 96.4835 1.69001 96.6111 1.79297 96.7189C2.01109 96.9428 2.27306 97.1194 2.5625 97.2375C2.87109 97.3683 3.29492 97.5168 3.83594 97.6857C4.42912 97.8619 5.0093 98.0792 5.57227 98.3361C6.01617 98.5502 6.40455 98.864 6.70703 99.2531C7.04122 99.7108 7.2087 100.269 7.18164 100.835C7.19531 101.395 7.03941 101.947 6.73438 102.417C6.4256 102.874 5.99345 103.233 5.48828 103.453C4.91516 103.704 4.2932 103.823 3.66797 103.803Z" fill="black"/>
<path d="M12.3478 103.761C11.6516 103.767 10.9669 103.584 10.3673 103.23C9.77224 102.881 9.27767 102.384 8.93175 101.787C8.5789 101.185 8.39536 100.498 8.4005 99.7991C8.39617 99.1075 8.57979 98.4277 8.93175 97.8323C9.27906 97.2388 9.77347 96.7447 10.3673 96.3978C10.9434 96.0627 11.5953 95.8798 12.2616 95.8663C12.9279 95.8528 13.5867 96.0092 14.1759 96.3206C14.7296 96.6141 15.2066 97.0336 15.5685 97.5452L14.5177 98.2454C14.2737 97.9081 13.9522 97.6345 13.5802 97.4476C13.1991 97.2518 12.7763 97.1509 12.3478 97.1536C11.8784 97.1498 11.4168 97.2729 11.0118 97.5101C10.6102 97.7438 10.2753 98.0767 10.0392 98.4769C9.79733 98.8753 9.67089 99.3331 9.67393 99.7991C9.67031 100.272 9.79665 100.738 10.0392 101.144C10.2748 101.548 10.6096 101.885 11.0118 102.123C11.4151 102.366 11.8774 102.492 12.3478 102.488C12.7829 102.486 13.2114 102.38 13.5967 102.178C13.9819 101.975 14.3127 101.683 14.5607 101.326L15.6095 102.026C15.2506 102.553 14.7712 102.987 14.211 103.292C13.6401 103.605 12.9987 103.766 12.3478 103.761Z" fill="black"/>
<path d="M17.416 103.747C17.3091 103.749 17.2029 103.729 17.1041 103.688C17.0053 103.647 16.916 103.586 16.8418 103.509C16.766 103.437 16.7058 103.35 16.6648 103.254C16.6238 103.158 16.603 103.054 16.6035 102.949C16.6038 102.734 16.6895 102.528 16.8418 102.375C16.9941 102.223 17.2006 102.137 17.416 102.137C17.5197 102.136 17.6224 102.157 17.7175 102.198C17.8127 102.239 17.8983 102.299 17.9688 102.375C18.0437 102.451 18.1028 102.54 18.1423 102.639C18.1819 102.738 18.2013 102.843 18.1992 102.949C18.2004 103.053 18.1806 103.157 18.141 103.253C18.1014 103.349 18.0428 103.436 17.9688 103.509C17.8984 103.585 17.8129 103.646 17.7177 103.687C17.6225 103.728 17.5197 103.748 17.416 103.747Z" fill="black"/>
<path d="M27.1167 103.789C26.396 103.805 25.6788 103.684 25.0034 103.432C24.4551 103.231 23.9763 102.877 23.6245 102.41C23.2975 101.951 23.1282 101.399 23.142 100.835C23.1217 100.266 23.3194 99.7102 23.6948 99.2816C24.1289 98.8236 24.6502 98.457 25.228 98.2034C24.9268 97.8357 24.6619 97.4396 24.437 97.0208C24.2379 96.6184 24.1394 96.1737 24.1499 95.7249C24.143 95.2609 24.2854 94.8069 24.5561 94.43C24.8355 94.0445 25.2123 93.7402 25.6479 93.5482C26.1229 93.3346 26.6388 93.2272 27.1596 93.2337C27.6768 93.2267 28.1889 93.3366 28.6577 93.555C29.0819 93.7504 29.4446 94.058 29.7065 94.4446C29.9617 94.8327 30.0938 95.2888 30.0854 95.7532C30.0946 96.1808 29.9674 96.6002 29.7221 96.9505C29.4765 97.2931 29.1675 97.5854 28.812 97.8118C28.3677 98.0872 27.9043 98.3303 27.4253 98.5394C27.3881 98.5579 27.3491 98.5765 27.3061 98.595C27.2651 98.6146 27.2241 98.6331 27.187 98.6517L29.9311 101.493C30.2495 101.147 30.4693 100.721 30.5678 100.261C30.6753 99.8015 30.6827 99.3243 30.5893 98.8616L31.7514 98.5677C31.8843 99.2807 31.8583 100.014 31.6753 100.716C31.5059 101.36 31.1759 101.95 30.7163 102.431L31.8354 103.663H30.226L29.7065 103.118C28.9244 103.583 28.0262 103.816 27.1167 103.789ZM27.1167 102.599C27.7329 102.622 28.3421 102.461 28.8667 102.137L26.0385 99.1976C25.6013 99.3792 25.1932 99.6243 24.8276 99.9251C24.6918 100.04 24.5831 100.184 24.5095 100.347C24.4359 100.509 24.3991 100.685 24.4018 100.864C24.3921 101.131 24.4584 101.395 24.5933 101.625C24.7282 101.856 24.9261 102.043 25.1635 102.165C25.7662 102.476 26.4391 102.626 27.1167 102.599ZM26.3901 97.6859C26.4475 97.6658 26.5035 97.6424 26.5581 97.6155C26.6121 97.5876 26.6682 97.5641 26.726 97.5452C27.2006 97.3489 27.5797 97.179 27.859 97.0345C28.1222 96.9034 28.3576 96.7227 28.5522 96.5023C28.7315 96.2996 28.8289 96.0375 28.8256 95.7669C28.8337 95.4931 28.7445 95.2252 28.5737 95.0111C28.4052 94.806 28.1856 94.649 27.937 94.556C27.6845 94.4593 27.4164 94.4097 27.146 94.4095C26.8633 94.4085 26.583 94.4608 26.3198 94.5638C26.0711 94.6566 25.8514 94.8136 25.6831 95.0189C25.515 95.2312 25.4278 95.4963 25.437 95.7669C25.4316 96.1104 25.5187 96.4491 25.689 96.7474C25.8915 97.0824 26.1263 97.3967 26.3901 97.6859Z" fill="black"/>
<path d="M37.2402 103.663V93.4437H40.8809C41.4428 93.4322 42.0001 93.547 42.5117 93.7796C42.9574 93.9819 43.3361 94.3071 43.6035 94.7171C43.8622 95.1274 43.9959 95.6042 43.9883 96.0892C43.9969 96.5251 43.8825 96.9546 43.6582 97.3284C43.4352 97.6921 43.1189 97.9895 42.7422 98.1897C43.2833 98.3572 43.7599 98.6868 44.1074 99.1341C44.4532 99.5959 44.6328 100.161 44.6172 100.738C44.6255 101.268 44.4826 101.79 44.2051 102.242C43.9231 102.692 43.5204 103.054 43.043 103.285C42.5092 103.545 41.9216 103.675 41.3281 103.663H37.2402ZM40.9219 97.7552C41.2388 97.7611 41.5528 97.6943 41.8398 97.5599C42.0911 97.4409 42.3062 97.2572 42.4629 97.0276C42.6127 96.7989 42.6903 96.5305 42.6855 96.2571C42.69 96.0465 42.65 95.8373 42.5682 95.6431C42.4865 95.4489 42.3647 95.2742 42.2109 95.1302C41.8348 94.8064 41.3468 94.6431 40.8516 94.6751H38.5703V97.7698L40.9219 97.7552ZM41.2852 102.375C41.6457 102.385 42.0032 102.308 42.3281 102.152C42.6099 102.014 42.848 101.801 43.0156 101.535C43.1754 101.268 43.2598 100.962 43.2598 100.65C43.2598 100.338 43.1754 100.032 43.0156 99.764C42.8484 99.505 42.6133 99.2969 42.3359 99.1624C42.0403 99.0165 41.7144 98.9422 41.3848 98.9456H38.5703V102.375H41.2852Z" fill="black"/>
<path d="M46.2285 103.663V95.9778L47.3906 95.9631L47.4746 97.2512C47.6955 96.8342 48.0363 96.493 48.4531 96.2717C48.915 96.0305 49.4303 95.9099 49.9512 95.9211C50.1388 95.9222 50.3261 95.9362 50.5117 95.9631L50.2461 97.1809C50.1523 97.1721 50.0586 97.1672 49.9668 97.1672C49.6378 97.1506 49.3089 97.203 49.0015 97.3213C48.694 97.4395 48.4147 97.6209 48.1816 97.8537C47.6673 98.4704 47.418 99.2657 47.4883 100.066V103.663H46.2285Z" fill="black"/>
<path d="M52.5139 95.1516C52.4063 95.1531 52.2998 95.1318 52.2009 95.0896C52.102 95.0474 52.013 94.9851 51.9396 94.9065C51.8641 94.8326 51.8041 94.7442 51.7631 94.6467C51.7222 94.5493 51.7012 94.4448 51.7014 94.3391C51.699 94.2301 51.7189 94.1216 51.7598 94.0205C51.8008 93.9194 51.862 93.8278 51.9396 93.7512C52.0149 93.6752 52.1046 93.6149 52.2034 93.574C52.3023 93.5331 52.4083 93.5123 52.5153 93.513C52.6223 93.5136 52.7281 93.5356 52.8265 93.5777C52.9248 93.6197 53.0138 93.6811 53.0881 93.7581C53.1642 93.8343 53.2244 93.9249 53.265 94.0247C53.3055 94.1245 53.3257 94.2314 53.3244 94.3391C53.3249 94.4447 53.3043 94.5493 53.2637 94.6467C53.2231 94.7442 53.1634 94.8325 53.0881 94.9065C53.0145 94.9849 52.9256 95.0469 52.8267 95.0891C52.7279 95.1313 52.6213 95.1527 52.5139 95.1516ZM51.883 103.663V95.9631H53.1428V103.663H51.883Z" fill="black"/>
<path d="M58.5059 103.761C57.8362 103.767 57.1784 103.583 56.6094 103.23C56.0294 102.869 55.5515 102.366 55.2215 101.768C54.8915 101.17 54.7205 100.497 54.7247 99.8137C54.7207 99.1222 54.897 98.4416 55.2364 97.8391C55.5621 97.2482 56.0351 96.7517 56.6094 96.3977C57.1784 96.0441 57.8361 95.8595 58.5059 95.8655C59.1166 95.864 59.7155 96.0339 60.2344 96.3557C60.7385 96.647 61.1454 97.0804 61.4044 97.6018V92.7434H62.6641V103.663H61.4884L61.4317 102.011C61.171 102.535 60.7621 102.97 60.2559 103.264C59.731 103.591 59.1244 103.763 58.5059 103.761ZM58.6876 102.501C59.1662 102.505 59.6372 102.382 60.0528 102.145C60.3604 101.969 60.6301 101.733 60.8464 101.453C61.0627 101.172 61.2212 100.851 61.3129 100.509C61.4046 100.166 61.4277 99.8093 61.3807 99.458C61.3337 99.1067 61.2176 98.7684 61.0391 98.4622C60.802 98.0528 60.462 97.7124 60.0528 97.4749C59.6387 97.2332 59.167 97.1077 58.6876 97.1116C58.217 97.11 57.7548 97.2355 57.3497 97.4749C56.9405 97.7124 56.6005 98.0528 56.3634 98.4622C56.1259 98.8707 56.0003 99.3346 55.9992 99.8071C55.9982 100.28 56.1217 100.744 56.3574 101.154C56.5931 101.563 56.9327 101.904 57.3417 102.14C57.7508 102.377 58.215 102.501 58.6876 102.501Z" fill="black"/>
<path d="M67.9985 106.87C67.3596 106.871 66.7285 106.73 66.1509 106.456C65.5929 106.205 65.1033 105.823 64.7231 105.343L65.6743 104.587C65.9589 104.925 66.3188 105.191 66.7251 105.365C67.1659 105.56 67.6435 105.658 68.1255 105.651C68.6075 105.645 69.0824 105.536 69.5181 105.329C69.9543 105.112 70.3149 104.768 70.5532 104.342C70.8275 103.824 70.9602 103.242 70.938 102.656V102.039C70.6778 102.554 70.2742 102.982 69.7759 103.272C69.2546 103.595 68.6528 103.765 68.0396 103.761C67.3699 103.767 66.7123 103.583 66.1431 103.23C65.5653 102.867 65.0891 102.362 64.759 101.765C64.429 101.168 64.2559 100.496 64.2559 99.8138C64.2559 99.1313 64.429 98.4598 64.759 97.8624C65.0891 97.265 65.5653 96.7611 66.1431 96.3978C66.7122 96.0447 67.3698 95.8601 68.0396 95.8656C68.6589 95.8639 69.2659 96.0387 69.7896 96.3695C70.2981 96.6697 70.707 97.1129 70.9653 97.6439L71.022 95.9633H72.1978V102.473C72.2252 103.315 72.0398 104.151 71.6587 104.903C71.326 105.535 70.8081 106.05 70.1743 106.379C69.4995 106.717 68.7528 106.885 67.9985 106.87ZM68.2231 102.501C68.7011 102.505 69.1716 102.382 69.5864 102.145C69.9969 101.911 70.3379 101.573 70.5747 101.164C70.8127 100.754 70.938 100.288 70.938 99.8134C70.938 99.3389 70.8127 98.8728 70.5747 98.4623C70.3368 98.0528 69.9961 97.7125 69.5864 97.475C69.1731 97.2331 68.702 97.1075 68.2231 97.1117C67.7526 97.1101 67.2904 97.2357 66.8853 97.475C66.4757 97.712 66.1356 98.0525 65.8989 98.4623C65.7208 98.7686 65.605 99.1069 65.5582 99.4581C65.5114 99.8093 65.5346 100.166 65.6262 100.509C65.7179 100.851 65.8763 101.172 66.0924 101.453C66.3085 101.733 66.5779 101.969 66.8853 102.145C67.2918 102.38 67.7535 102.503 68.2231 102.501Z" fill="black"/>
<path d="M74.8986 95.1517C74.7912 95.1527 74.6847 95.1314 74.5859 95.0892C74.487 95.047 74.398 94.9849 74.3244 94.9066C74.2488 94.8327 74.1888 94.7442 74.1479 94.6468C74.107 94.5494 74.086 94.4449 74.0861 94.3392C74.0837 94.2301 74.1036 94.1217 74.1446 94.0206C74.1856 93.9195 74.2468 93.8279 74.3244 93.7513C74.399 93.6748 74.4884 93.614 74.5871 93.5731C74.6858 93.5321 74.7918 93.5118 74.8986 93.513C75.0061 93.5116 75.1127 93.5326 75.2116 93.5748C75.3105 93.617 75.3995 93.6795 75.4728 93.7581C75.5493 93.8342 75.6097 93.9247 75.6506 94.0245C75.6915 94.1243 75.7121 94.2313 75.7111 94.3392C75.7113 94.4449 75.6903 94.5494 75.6494 94.6468C75.6084 94.7442 75.5484 94.8327 75.4728 94.9066C75.3995 94.9852 75.3105 95.0474 75.2116 95.0897C75.1127 95.1319 75.0061 95.1531 74.8986 95.1517ZM74.2697 103.663V95.9632H75.5295V103.663H74.2697Z" fill="black"/>
<path d="M77.5879 103.663V95.9631H78.75L78.8184 97.3635C79.0429 96.9248 79.379 96.5529 79.793 96.2854C80.2365 95.9995 80.7556 95.8532 81.2832 95.8655C81.8603 95.8529 82.4296 96.0007 82.9277 96.2922C83.4221 96.6034 83.8104 97.0573 84.041 97.594C84.3317 98.277 84.4703 99.0151 84.4473 99.7571V103.663H83.1875V99.7571C83.2044 99.2487 83.1034 98.7434 82.8926 98.2805C82.726 97.917 82.4564 97.6104 82.1172 97.3987C81.7837 97.2044 81.4035 97.1051 81.0176 97.1116C80.6299 97.1056 80.2479 97.2048 79.9121 97.3987C79.5707 97.6052 79.2997 97.9103 79.1348 98.2737C78.9282 98.7401 78.83 99.2473 78.8477 99.7571V103.663H77.5879Z" fill="black"/>
<path d="M89.6138 106.87C88.9749 106.871 88.3437 106.73 87.7661 106.456C87.2081 106.205 86.7185 105.823 86.3384 105.343L87.2896 104.587C87.5742 104.925 87.9341 105.191 88.3403 105.365C88.7811 105.56 89.2586 105.658 89.7406 105.651C90.2226 105.645 90.6976 105.536 91.1333 105.329C91.5695 105.112 91.9302 104.768 92.1685 104.342C92.4428 103.824 92.5755 103.242 92.5532 102.656V102.039C92.2931 102.554 91.8894 102.982 91.3911 103.272C90.8699 103.595 90.2681 103.765 89.6548 103.761C88.9851 103.767 88.3275 103.583 87.7583 103.23C87.1805 102.867 86.7043 102.362 86.3743 101.765C86.0442 101.168 85.8711 100.496 85.8711 99.8138C85.8711 99.1313 86.0442 98.4598 86.3743 97.8624C86.7043 97.265 87.1805 96.7611 87.7583 96.3978C88.3274 96.0447 88.985 95.8601 89.6548 95.8656C90.2741 95.8639 90.8812 96.0387 91.4048 96.3695C91.9133 96.6697 92.3223 97.1129 92.5806 97.6439L92.6372 95.9633H93.813V102.473C93.8404 103.315 93.655 104.151 93.2739 104.903C92.9413 105.535 92.4233 106.05 91.7896 106.379C91.1148 106.717 90.3681 106.885 89.6138 106.87ZM89.8384 102.501C90.3164 102.505 90.7869 102.382 91.2017 102.145C91.6121 101.911 91.9531 101.573 92.1899 101.164C92.4279 100.754 92.5532 100.288 92.5532 99.8134C92.5532 99.3389 92.4279 98.8728 92.1899 98.4623C91.952 98.0528 91.6114 97.7125 91.2017 97.475C90.7883 97.2331 90.3173 97.1075 89.8384 97.1117C89.3678 97.1101 88.9056 97.2357 88.5005 97.475C88.0909 97.712 87.7508 98.0525 87.5142 98.4623C87.3361 98.7686 87.2203 99.1069 87.1735 99.4581C87.1267 99.8093 87.1498 100.166 87.2415 100.509C87.3331 100.851 87.4916 101.172 87.7076 101.453C87.9237 101.733 88.1931 101.969 88.5005 102.145C88.9071 102.38 89.3687 102.503 89.8384 102.501Z" fill="black"/>
<path d="M99.8477 103.663V93.4437H103.725C104.342 93.4325 104.952 93.5794 105.496 93.8705C105.996 94.1381 106.413 94.5377 106.701 95.0257C106.98 95.5164 107.127 96.0712 107.127 96.6356C107.127 97.2001 106.98 97.7548 106.701 98.2455C106.413 98.7335 105.996 99.1331 105.496 99.4007C104.952 99.6918 104.342 99.8387 103.725 99.8275H101.178V103.663H99.8477ZM103.697 98.5257C104.075 98.5333 104.449 98.4438 104.783 98.266C105.078 98.1077 105.325 97.8725 105.496 97.5853C105.668 97.2981 105.759 96.9698 105.759 96.6351C105.759 96.3005 105.668 95.9721 105.496 95.6849C105.325 95.3977 105.078 95.1625 104.783 95.0043C104.449 94.8267 104.075 94.7376 103.697 94.7455H101.178V98.5257H103.697Z" fill="black"/>
<path d="M108.682 103.663V95.9778L109.844 95.9631L109.928 97.2512C110.149 96.8342 110.489 96.493 110.906 96.2717C111.368 96.0305 111.883 95.9099 112.404 95.9211C112.592 95.9222 112.779 95.9362 112.965 95.9631L112.699 97.1809C112.605 97.1721 112.512 97.1672 112.42 97.1672C112.091 97.1506 111.762 97.203 111.455 97.3213C111.147 97.4395 110.868 97.6209 110.635 97.8537C110.12 98.4704 109.871 99.2657 109.941 100.066V103.663H108.682Z" fill="black"/>
<path d="M114.576 103.747C114.469 103.749 114.363 103.729 114.264 103.688C114.166 103.647 114.076 103.586 114.002 103.509C113.926 103.437 113.865 103.35 113.824 103.254C113.783 103.158 113.763 103.054 113.764 102.949C113.764 102.734 113.85 102.528 114.002 102.375C114.154 102.223 114.361 102.137 114.576 102.137C114.68 102.136 114.782 102.157 114.878 102.198C114.973 102.239 115.058 102.299 115.129 102.375C115.204 102.451 115.263 102.54 115.303 102.639C115.342 102.738 115.361 102.843 115.359 102.949C115.361 103.053 115.341 103.157 115.301 103.253C115.262 103.349 115.203 103.436 115.129 103.509C115.058 103.585 114.973 103.646 114.878 103.687C114.783 103.728 114.68 103.748 114.576 103.747Z" fill="black"/>
<path d="M3.17773 163.547V154.616H0V153.328H7.67188V154.616H4.50781V163.547H3.17773Z" fill="black"/>
<path d="M9.0293 163.547V155.862L10.1914 155.847L10.2754 157.135C10.4963 156.718 10.8371 156.377 11.2539 156.156C11.7157 155.915 12.2311 155.794 12.752 155.805C12.9395 155.806 13.1268 155.82 13.3125 155.847L13.0469 157.065C12.9531 157.056 12.8594 157.051 12.7676 157.051C12.4386 157.035 12.1097 157.087 11.8022 157.205C11.4948 157.324 11.2155 157.505 10.9824 157.738C10.4681 158.354 10.2188 159.15 10.2891 159.95V163.547H9.0293Z" fill="black"/>
<path d="M17.5688 163.645C16.8992 163.651 16.2416 163.467 15.6724 163.114C15.0946 162.751 14.6184 162.246 14.2883 161.649C13.9583 161.052 13.7852 160.38 13.7852 159.698C13.7852 159.015 13.9583 158.344 14.2883 157.746C14.6184 157.149 15.0946 156.645 15.6724 156.282C16.2415 155.929 16.8991 155.744 17.5688 155.75C18.1882 155.748 18.7952 155.923 19.3188 156.254C19.8274 156.554 20.2363 156.997 20.4946 157.528L20.5513 155.847H21.7271V163.547H20.5513L20.4946 161.895C20.2339 162.419 19.825 162.855 19.3188 163.148C18.7939 163.475 18.1873 163.647 17.5688 163.645ZM17.7524 162.385C18.2304 162.39 18.7009 162.267 19.1157 162.029C19.5262 161.795 19.8672 161.457 20.104 161.048C20.342 160.638 20.4673 160.172 20.4673 159.697C20.4673 159.223 20.342 158.757 20.104 158.346C19.8661 157.937 19.5254 157.597 19.1157 157.359C18.7024 157.117 18.2313 156.992 17.7524 156.996C17.2819 156.994 16.8197 157.12 16.4146 157.359C16.005 157.596 15.6649 157.937 15.4282 158.346C15.2501 158.653 15.1343 158.991 15.0875 159.342C15.0407 159.693 15.0639 160.05 15.1555 160.393C15.2472 160.735 15.4056 161.056 15.6217 161.337C15.8378 161.617 16.1072 161.853 16.4146 162.029C16.8211 162.264 17.2828 162.387 17.7524 162.385Z" fill="black"/>
<path d="M24.4279 155.036C24.3205 155.037 24.2139 155.015 24.1151 154.973C24.0162 154.931 23.9273 154.869 23.8537 154.791C23.7781 154.717 23.7181 154.628 23.6772 154.531C23.6363 154.433 23.6153 154.329 23.6154 154.223C23.613 154.114 23.6329 154.006 23.6739 153.905C23.7149 153.804 23.7761 153.712 23.8537 153.635C23.9283 153.559 24.0177 153.498 24.1164 153.457C24.2151 153.416 24.3211 153.396 24.4279 153.397C24.5354 153.396 24.642 153.417 24.7409 153.459C24.8398 153.501 24.9288 153.564 25.0021 153.642C25.0786 153.718 25.139 153.809 25.1799 153.909C25.2208 154.008 25.2414 154.115 25.2404 154.223C25.2406 154.329 25.2196 154.433 25.1787 154.531C25.1377 154.628 25.0777 154.716 25.0021 154.79C24.9288 154.869 24.8398 154.931 24.7409 154.974C24.642 155.016 24.5354 155.037 24.4279 155.036ZM23.799 163.547V155.847H25.0588V163.547H23.799Z" fill="black"/>
<path d="M27.1172 163.547V155.847H28.2793L28.3477 157.248C28.5722 156.809 28.9083 156.437 29.3223 156.169C29.7658 155.884 30.2849 155.737 30.8125 155.75C31.3896 155.737 31.9589 155.885 32.457 156.176C32.9514 156.487 33.3397 156.941 33.5703 157.478C33.861 158.161 33.9996 158.899 33.9766 159.641V163.547H32.7168V159.641C32.7337 159.133 32.6327 158.627 32.4219 158.165C32.2552 157.801 31.9857 157.494 31.6465 157.283C31.313 157.088 30.9327 156.989 30.5469 156.996C30.1592 156.99 29.7772 157.089 29.4414 157.283C29.0999 157.489 28.829 157.794 28.6641 158.158C28.4575 158.624 28.3593 159.131 28.377 159.641V163.547H27.1172Z" fill="black"/>
<path d="M36.51 155.036C36.4025 155.037 36.296 155.015 36.1972 154.973C36.0984 154.931 36.0093 154.869 35.9357 154.791C35.8602 154.717 35.8001 154.628 35.7592 154.531C35.7183 154.433 35.6973 154.329 35.6975 154.223C35.6951 154.114 35.715 154.006 35.7559 153.905C35.7969 153.804 35.8581 153.712 35.9357 153.635C36.0103 153.559 36.0997 153.498 36.1984 153.457C36.2971 153.416 36.4031 153.396 36.51 153.397C36.6175 153.396 36.7241 153.417 36.8229 153.459C36.9218 153.501 37.0108 153.564 37.0842 153.642C37.1606 153.718 37.221 153.809 37.2619 153.909C37.3028 154.008 37.3234 154.115 37.3225 154.223C37.3226 154.329 37.3016 154.433 37.2607 154.531C37.2198 154.628 37.1598 154.716 37.0842 154.79C37.0109 154.869 36.9218 154.931 36.8229 154.974C36.7241 155.016 36.6175 155.037 36.51 155.036ZM35.8811 163.547V155.847H37.1408V163.547H35.8811Z" fill="black"/>
<path d="M39.1992 163.547V155.847H40.3613L40.4297 157.248C40.6542 156.809 40.9904 156.437 41.4043 156.169C41.8478 155.884 42.367 155.737 42.8945 155.75C43.4716 155.737 44.0409 155.885 44.5391 156.176C45.0335 156.487 45.4217 156.941 45.6523 157.478C45.943 158.161 46.0817 158.899 46.0586 159.641V163.547H44.7988V159.641C44.8157 159.133 44.7147 158.627 44.5039 158.165C44.3373 157.801 44.0677 157.494 43.7285 157.283C43.3951 157.088 43.0148 156.989 42.6289 156.996C42.2412 156.99 41.8592 157.089 41.5234 157.283C41.182 157.489 40.911 157.794 40.7461 158.158C40.5395 158.624 40.4413 159.131 40.459 159.641V163.547H39.1992Z" fill="black"/>
<path d="M51.2251 166.754C50.5862 166.755 49.955 166.614 49.3774 166.34C48.8194 166.089 48.3299 165.707 47.9497 165.227L48.9009 164.471C49.1855 164.809 49.5454 165.075 49.9517 165.249C50.3924 165.444 50.8701 165.542 51.3521 165.536C51.834 165.529 52.3089 165.419 52.7446 165.213C53.1808 164.995 53.5415 164.652 53.7798 164.226C54.0541 163.708 54.1868 163.126 54.1646 162.54V161.923C53.9044 162.438 53.5008 162.866 53.0024 163.156C52.4812 163.479 51.8794 163.649 51.2661 163.645C50.5964 163.651 49.9388 163.467 49.3696 163.114C48.7918 162.751 48.3156 162.246 47.9856 161.649C47.6555 161.052 47.4824 160.38 47.4824 159.698C47.4824 159.015 47.6555 158.344 47.9856 157.746C48.3156 157.149 48.7918 156.645 49.3696 156.282C49.9388 155.929 50.5963 155.744 51.2661 155.75C51.8855 155.748 52.4925 155.923 53.0161 156.254C53.5247 156.554 53.9336 156.997 54.1919 157.528L54.2485 155.847H55.4243V162.357C55.4517 163.199 55.2663 164.035 54.8853 164.786C54.5526 165.419 54.0346 165.934 53.4009 166.263C52.7261 166.601 51.9794 166.769 51.2251 166.754ZM51.4497 162.385C51.9277 162.39 52.3982 162.267 52.813 162.029C53.2234 161.795 53.5645 161.457 53.8013 161.048C54.0392 160.638 54.1646 160.172 54.1646 159.697C54.1646 159.223 54.0392 158.757 53.8013 158.346C53.5633 157.937 53.2227 157.597 52.813 157.359C52.3997 157.117 51.9286 156.992 51.4497 156.996C50.9792 156.994 50.5169 157.12 50.1118 157.359C49.7022 157.596 49.3621 157.937 49.1255 158.346C48.9474 158.653 48.8316 158.991 48.7848 159.342C48.738 159.693 48.7611 160.05 48.8528 160.393C48.9444 160.735 49.1029 161.056 49.319 161.337C49.5351 161.617 49.8045 161.853 50.1118 162.029C50.5184 162.264 50.9801 162.387 51.4497 162.385Z" fill="black"/>
<path d="M66.2461 163.715C65.3159 163.724 64.4012 163.477 63.6016 163.001C62.8088 162.536 62.1501 161.872 61.6895 161.077C61.2263 160.277 60.9824 159.369 60.9824 158.444C60.9824 157.52 61.2263 156.612 61.6895 155.812C62.1489 155.017 62.8081 154.356 63.6016 153.894C64.4027 153.423 65.3168 153.179 66.2461 153.187C67.0566 153.182 67.8564 153.372 68.5781 153.741C69.2909 154.101 69.9147 154.615 70.4043 155.246L69.2285 155.959C68.8675 155.523 68.4165 155.169 67.9062 154.923C67.3892 154.672 66.8211 154.542 66.2461 154.545C65.5576 154.54 64.8805 154.721 64.2871 155.071C63.6989 155.411 63.2091 155.898 62.8652 156.484C62.5171 157.071 62.3354 157.741 62.3398 158.423C62.3352 158.938 62.4329 159.449 62.6274 159.925C62.8219 160.402 63.1093 160.836 63.4728 161.2C63.8363 161.565 64.2685 161.854 64.7446 162.05C65.2207 162.246 65.7312 162.346 66.2461 162.343C66.8763 162.356 67.4998 162.211 68.0605 161.923C68.5796 161.65 69.015 161.241 69.3203 160.741C69.6383 160.213 69.8183 159.613 69.8438 158.998H65.9238V157.751H71.2871C71.3256 157.978 71.3439 158.207 71.3418 158.437C71.3594 159.389 71.1385 160.33 70.6992 161.174C70.2871 161.954 69.6637 162.602 68.9004 163.043C68.0919 163.501 67.1751 163.733 66.2461 163.715Z" fill="black"/>
<path d="M73.0918 163.547V155.862L74.2539 155.847L74.3379 157.135C74.5595 156.718 74.901 156.377 75.3184 156.156C75.7801 155.914 76.2955 155.794 76.8164 155.805C77.004 155.806 77.1913 155.82 77.377 155.847L77.1094 157.065C77.0176 157.056 76.9238 157.051 76.8301 157.051C76.5011 157.035 76.1723 157.087 75.8649 157.206C75.5574 157.324 75.2781 157.505 75.0449 157.738C74.5314 158.355 74.2822 159.15 74.3516 159.95V163.547H73.0918Z" fill="black"/>
<path d="M81.6329 163.645C80.9631 163.651 80.3054 163.467 79.7364 163.114C79.1563 162.753 78.6784 162.249 78.3485 161.651C78.0185 161.053 77.8475 160.381 77.8516 159.698C77.8476 159.006 78.024 158.326 78.3634 157.723C78.689 157.132 79.162 156.636 79.7364 156.282C80.3053 155.928 80.9631 155.743 81.6329 155.749C82.2522 155.748 82.8593 155.922 83.3829 156.253C83.8914 156.553 84.3004 156.997 84.5587 157.528L84.6153 155.847H85.7911V163.547H84.6153L84.5587 161.895C84.2979 162.419 83.8891 162.854 83.3829 163.148C82.858 163.475 82.2514 163.647 81.6329 163.645ZM81.8145 162.385C82.2931 162.389 82.7642 162.266 83.1798 162.029C83.4874 161.853 83.7571 161.617 83.9733 161.337C84.1896 161.056 84.3482 160.735 84.4399 160.393C84.5316 160.05 84.5546 159.693 84.5076 159.342C84.4606 158.991 84.3445 158.652 84.1661 158.346C83.9289 157.937 83.5889 157.596 83.1798 157.359C82.7656 157.117 82.294 156.992 81.8145 156.996C81.344 156.994 80.8818 157.119 80.4766 157.359C80.0675 157.596 79.7275 157.937 79.4903 158.346C79.2528 158.755 79.1272 159.219 79.1262 159.691C79.1251 160.164 79.2486 160.628 79.4843 161.038C79.72 161.447 80.0596 161.788 80.4687 162.024C80.8778 162.261 81.342 162.385 81.8145 162.385Z" fill="black"/>
<path d="M87.8613 163.547V155.847H89.0234L89.0938 157.248C89.3181 156.809 89.6535 156.438 90.0664 156.169C90.5108 155.884 91.0305 155.737 91.5586 155.749C92.1357 155.737 92.7049 155.885 93.2031 156.176C93.697 156.488 94.0851 156.942 94.3164 157.478C94.6062 158.161 94.7448 158.899 94.7227 159.641V163.547H93.4609V159.641C93.4774 159.133 93.3772 158.628 93.168 158.165C93.0013 157.801 92.7309 157.494 92.3906 157.283C92.0573 157.088 91.6769 156.989 91.291 156.996C90.9033 156.99 90.5213 157.089 90.1855 157.283C89.8446 157.49 89.5737 157.795 89.4082 158.158C89.2016 158.624 89.1035 159.131 89.1211 159.641V163.547H87.8613Z" fill="black"/>
<path d="M99.3145 163.673C98.9759 163.686 98.6384 163.628 98.3236 163.502C98.0088 163.377 97.7236 163.188 97.4863 162.946C96.9714 162.334 96.7175 161.545 96.7794 160.748V156.996H95.7305V155.847H96.8086L96.9609 153.328H98.0391V155.847H99.9023V156.996H98.0391V160.719C98.0076 161.178 98.1421 161.633 98.418 162C98.5483 162.148 98.7103 162.264 98.892 162.341C99.0736 162.417 99.2701 162.451 99.4668 162.441C99.6732 162.442 99.878 162.405 100.07 162.33L100.393 163.477C100.05 163.613 99.6832 163.679 99.3145 163.673Z" fill="black"/>
<path d="M104.9 163.673C104.268 163.671 103.641 163.562 103.045 163.351C102.445 163.151 101.908 162.799 101.484 162.33L102.365 161.503C102.664 161.824 103.037 162.066 103.451 162.21C103.913 162.39 104.405 162.483 104.9 162.483C105.354 162.504 105.805 162.398 106.201 162.175C106.35 162.095 106.474 161.975 106.561 161.83C106.647 161.684 106.692 161.518 106.691 161.349C106.696 161.239 106.675 161.13 106.632 161.03C106.588 160.929 106.522 160.84 106.439 160.768C106.244 160.609 106.018 160.492 105.775 160.425C105.5 160.341 105.157 160.257 104.746 160.173C104.227 160.063 103.715 159.922 103.213 159.753C102.82 159.616 102.467 159.385 102.184 159.081C101.883 158.743 101.728 158.301 101.75 157.849C101.745 157.454 101.873 157.07 102.113 156.757C102.382 156.421 102.735 156.162 103.137 156.008C103.618 155.818 104.131 155.726 104.648 155.736C105.223 155.735 105.794 155.832 106.336 156.022C106.88 156.213 107.362 156.55 107.729 156.995L106.943 157.78C106.674 157.469 106.326 157.236 105.936 157.107C105.536 156.961 105.115 156.886 104.689 156.883C104.273 156.866 103.859 156.955 103.486 157.142C103.348 157.205 103.232 157.307 103.15 157.435C103.068 157.563 103.024 157.712 103.023 157.864C103.021 157.959 103.041 158.054 103.083 158.141C103.124 158.227 103.186 158.302 103.262 158.361C103.447 158.499 103.656 158.601 103.879 158.661C104.131 158.736 104.457 158.82 104.857 158.914C105.392 159.026 105.92 159.169 106.439 159.34C106.853 159.481 107.226 159.722 107.525 160.041C107.837 160.387 108.001 160.842 107.98 161.307C107.995 161.784 107.844 162.252 107.553 162.63C107.26 162.996 106.869 163.27 106.426 163.421C105.936 163.593 105.42 163.679 104.9 163.673Z" fill="black"/>
<path d="M3.66797 222.107C2.99333 222.11 2.32475 221.98 1.70117 221.722C1.05294 221.447 0.472432 221.033 0 220.511L0.839844 219.658C1.21384 220.028 1.64934 220.331 2.12695 220.553C2.61549 220.773 3.14611 220.883 3.68164 220.875C4.24544 220.91 4.80464 220.755 5.26953 220.434C5.46531 220.294 5.62343 220.107 5.72974 219.891C5.83605 219.675 5.88725 219.435 5.87891 219.195C5.8906 218.854 5.77343 218.522 5.55078 218.264C5.32197 218.011 5.03974 217.813 4.72461 217.683C4.39261 217.543 3.94336 217.384 3.37305 217.207C2.80899 217.034 2.25702 216.824 1.7207 216.578C1.2925 216.373 0.918471 216.071 0.628906 215.695C0.316806 215.27 0.159021 214.752 0.181641 214.225C0.174601 213.745 0.313543 213.274 0.580078 212.874C0.868733 212.459 1.26887 212.134 1.73438 211.936C2.29625 211.696 2.90292 211.579 3.51367 211.593C4.15051 211.597 4.77957 211.733 5.36133 211.993C5.97697 212.258 6.50891 212.686 6.90039 213.231L5.96289 213.973C5.68657 213.616 5.329 213.331 4.91992 213.14C4.49871 212.933 4.03746 212.821 3.56836 212.811C3.19634 212.805 2.82633 212.867 2.47656 212.994C2.19251 213.092 1.93928 213.264 1.74219 213.491C1.57264 213.692 1.48054 213.948 1.48242 214.211C1.47759 214.36 1.50232 214.509 1.5553 214.648C1.60827 214.787 1.68843 214.915 1.79102 215.023C2.00949 215.246 2.27137 215.423 2.56055 215.541C2.86914 215.672 3.29297 215.821 3.83594 215.99C4.42912 216.166 5.0093 216.383 5.57227 216.64C6.01559 216.854 6.40332 217.168 6.70508 217.557C7.04076 218.014 7.20902 218.573 7.18164 219.139C7.19466 219.7 7.03808 220.251 6.73242 220.721C6.4244 221.177 5.99289 221.537 5.48828 221.757C4.91504 222.008 4.29317 222.127 3.66797 222.107Z" fill="black"/>
<path d="M11.858 222.065C11.2853 222.077 10.7206 221.929 10.2271 221.638C9.73297 221.327 9.34481 220.873 9.11382 220.336C8.82304 219.653 8.68441 218.915 8.70757 218.173V214.267H9.96733V218.173C9.95047 218.682 10.0514 219.187 10.2623 219.65C10.4287 220.014 10.6991 220.322 11.0396 220.533C11.3754 220.72 11.7536 220.819 12.1382 220.819C12.5229 220.819 12.9011 220.72 13.2369 220.533C13.5769 220.321 13.8472 220.014 14.0142 219.65C14.2234 219.187 14.3236 218.681 14.3072 218.173V214.267H15.5669V221.967H14.4068L14.3365 220.567C14.1126 221.006 13.7771 221.377 13.3638 221.645C12.9149 221.932 12.3905 222.078 11.858 222.065Z" fill="black"/>
<path d="M17.6387 225.047V214.267H18.8008L18.8711 215.92C19.1234 215.394 19.5285 214.958 20.0332 214.667C20.5628 214.339 21.174 214.166 21.7969 214.17C22.4622 214.165 23.1151 214.35 23.6797 214.702C24.258 215.061 24.7347 215.562 25.0643 216.157C25.3939 216.753 25.5654 217.423 25.5625 218.103C25.5684 218.799 25.3927 219.484 25.0527 220.091C24.7263 220.682 24.2534 221.179 23.6797 221.534C23.115 221.885 22.4621 222.07 21.7969 222.065C21.1836 222.068 20.5819 221.899 20.0605 221.576C19.5604 221.282 19.1566 220.849 18.8984 220.33V225.047H17.6387ZM21.6016 220.819C22.0742 220.822 22.5388 220.697 22.9453 220.456C23.3515 220.216 23.6891 219.876 23.9258 219.468C24.1677 219.054 24.2932 218.583 24.2891 218.103C24.2924 217.63 24.1668 217.166 23.9258 216.759C23.6875 216.355 23.3501 216.017 22.9453 215.779C22.5388 215.538 22.0742 215.412 21.6016 215.416C21.1265 215.413 20.6596 215.538 20.25 215.779C19.8418 216.015 19.502 216.353 19.2637 216.759C19.0212 217.165 18.8948 217.63 18.8984 218.103C18.894 218.583 19.0203 219.055 19.2637 219.468C19.5003 219.878 19.8404 220.219 20.25 220.456C20.6596 220.696 21.1265 220.822 21.6016 220.819Z" fill="black"/>
<path d="M27.0762 225.047V214.267H28.2383L28.3066 215.92C28.5596 215.395 28.9645 214.958 29.4688 214.667C29.999 214.339 30.6109 214.166 31.2344 214.17C31.8997 214.165 32.5525 214.35 33.1172 214.702C33.6947 215.061 34.1709 215.563 34.5004 216.158C34.8299 216.753 35.0018 217.423 35 218.103C35.0062 218.799 34.8298 219.485 34.4883 220.091C34.1631 220.682 33.6908 221.179 33.1172 221.534C32.5524 221.885 31.8996 222.069 31.2344 222.065C30.6211 222.069 30.0192 221.899 29.498 221.576C28.997 221.283 28.5929 220.85 28.3359 220.33V225.047H27.0762ZM31.0371 220.819C31.5098 220.823 31.9744 220.697 32.3809 220.456C32.7879 220.217 33.1258 219.877 33.3613 219.468C33.6033 219.054 33.7288 218.583 33.7246 218.103C33.728 217.63 33.6024 217.166 33.3613 216.759C33.1242 216.354 32.7865 216.016 32.3809 215.779C31.9744 215.538 31.5098 215.412 31.0371 215.416C30.5627 215.413 30.0964 215.538 29.6875 215.779C29.2788 216.015 28.9382 216.352 28.6992 216.759C28.4582 217.166 28.3326 217.63 28.3359 218.103C28.3318 218.583 28.4573 219.054 28.6992 219.468C28.9366 219.878 29.2774 220.219 29.6875 220.456C30.0964 220.696 30.5627 220.822 31.0371 220.819Z" fill="black"/>
<path d="M36.5117 221.967V211.047H37.7715V221.967H36.5117Z" fill="black"/>
<path d="M43.4278 222.065C42.7024 222.073 41.9876 221.89 41.3555 221.534C40.7452 221.193 40.2375 220.696 39.8853 220.092C39.5332 219.489 39.3496 218.802 39.3536 218.103C39.3491 217.412 39.5306 216.733 39.879 216.136C40.2199 215.543 40.7092 215.049 41.2989 214.702C41.8972 214.353 42.5772 214.169 43.2696 214.169C43.962 214.169 44.642 214.353 45.2403 214.702C45.8252 215.048 46.3083 215.543 46.6407 216.136C46.9805 216.736 47.1569 217.414 47.1524 218.103C47.149 218.314 47.1345 218.524 47.1093 218.733H40.7109C40.7844 219.133 40.9555 219.508 41.2089 219.826C41.4668 220.153 41.797 220.417 42.1738 220.595C42.565 220.783 42.9939 220.879 43.4277 220.875C43.8762 220.882 44.3204 220.788 44.7285 220.602C45.1107 220.428 45.4466 220.167 45.7089 219.839L46.7324 220.483C46.3505 220.973 45.8587 221.366 45.2968 221.631C44.7154 221.918 44.0759 222.066 43.4278 222.065ZM45.8497 217.683C45.8324 217.269 45.7042 216.868 45.4786 216.521C45.249 216.166 44.9332 215.875 44.5606 215.674C44.161 215.46 43.7132 215.351 43.2598 215.359C42.8199 215.355 42.3862 215.463 42.0001 215.674C41.6275 215.875 41.3116 216.166 41.082 216.521C40.8556 216.869 40.7232 217.269 40.6973 217.683H45.8497Z" fill="black"/>
<path d="M48.748 221.967V214.267H49.9102L49.9785 215.583C50.151 215.153 50.4552 214.788 50.8477 214.54C51.2232 214.298 51.6606 214.169 52.1074 214.169C52.6468 214.151 53.1768 214.314 53.6133 214.631C53.5629 214.768 53.5461 214.914 53.5645 215.059C53.5828 215.203 53.6356 215.341 53.7185 215.46C53.8014 215.58 53.9119 215.678 54.0406 215.745C54.1694 215.813 54.3126 215.848 54.458 215.849C54.6035 215.85 54.7469 215.815 54.8762 215.748C55.0055 215.682 55.1167 215.585 55.2006 215.466C55.2844 215.347 55.3384 215.21 55.3579 215.066C55.3774 214.922 55.3618 214.775 55.3125 214.638C55.7216 214.323 56.2261 214.158 56.7422 214.169C57.1321 214.154 57.5204 214.228 57.8779 214.384C58.2354 214.541 58.5529 214.776 58.8066 215.073C59.3882 215.882 59.6637 216.872 59.584 217.866V221.967H58.3086V217.866C58.3635 217.207 58.1911 216.55 57.8203 216.003C57.6659 215.819 57.4728 215.67 57.2546 215.569C57.0365 215.467 56.7986 215.415 56.558 215.415C56.3173 215.416 56.0798 215.47 55.8622 215.573C55.6446 215.675 55.4522 215.825 55.2988 216.01C54.9197 216.551 54.7414 217.207 54.7949 217.866V221.967H53.5215V217.866C53.5758 217.207 53.4028 216.55 53.0312 216.003C52.8809 215.815 52.6889 215.664 52.4703 215.562C52.2518 215.46 52.0126 215.41 51.7715 215.415C51.4494 215.411 51.1346 215.512 50.875 215.703C50.5863 215.931 50.3683 216.237 50.2461 216.584C50.0737 217.057 49.9928 217.558 50.0078 218.061V221.967H48.748Z" fill="black"/>
<path d="M65.0704 222.065C64.345 222.073 63.6303 221.89 62.9981 221.534C62.3886 221.193 61.8814 220.695 61.5294 220.091C61.1773 219.488 60.9932 218.802 60.9962 218.103C60.9917 217.412 61.1732 216.733 61.5216 216.136C61.8632 215.543 62.3532 215.049 62.9434 214.702C63.5417 214.353 64.2217 214.169 64.9141 214.169C65.6066 214.169 66.2866 214.353 66.8848 214.702C67.4692 215.048 67.9516 215.543 68.2833 216.136C68.6239 216.735 68.8004 217.414 68.795 218.103C68.7923 218.314 68.7786 218.524 68.754 218.733H62.3555C62.4292 219.132 62.5995 219.507 62.8516 219.826C63.1102 220.153 63.4411 220.417 63.8184 220.595C64.209 220.783 64.6373 220.879 65.0705 220.875C65.5196 220.881 65.9644 220.788 66.3732 220.602C66.7555 220.428 67.0914 220.167 67.3537 219.839L68.3752 220.483C67.9942 220.974 67.5022 221.367 66.9397 221.631C66.3583 221.918 65.7186 222.066 65.0704 222.065ZM67.4923 217.683C67.4768 217.269 67.3485 216.867 67.1212 216.521C66.8923 216.166 66.5772 215.875 66.2052 215.674C65.8049 215.46 65.3565 215.351 64.9024 215.359C64.4625 215.355 64.0288 215.463 63.6427 215.674C63.2707 215.875 62.9555 216.166 62.7266 216.521C62.5003 216.869 62.3677 217.269 62.3419 217.683H67.4923Z" fill="black"/>
<path d="M70.3906 221.967V214.267H71.5527L71.623 215.667C71.8474 215.229 72.1828 214.857 72.5957 214.589C73.0401 214.304 73.5597 214.157 74.0879 214.169C74.665 214.157 75.2342 214.305 75.7324 214.596C76.2263 214.908 76.6144 215.362 76.8457 215.898C77.1355 216.581 77.2741 217.319 77.252 218.061V221.967H75.9902V218.061C76.0067 217.553 75.9065 217.048 75.6973 216.584C75.5305 216.22 75.2601 215.914 74.9199 215.703C74.5866 215.508 74.2062 215.409 73.8203 215.416C73.4326 215.41 73.0506 215.509 72.7148 215.703C72.3739 215.91 72.103 216.215 71.9375 216.578C71.7309 217.044 71.6327 217.551 71.6504 218.061V221.967H70.3906Z" fill="black"/>
<path d="M81.8438 222.093C81.5052 222.106 81.1677 222.048 80.8529 221.923C80.5381 221.797 80.2529 221.608 80.0156 221.366C79.5007 220.754 79.2467 219.965 79.3086 219.167V215.416H78.2598V214.267H79.3379L79.4902 211.748H80.5684V214.267H82.4316V215.416H80.5684V219.139C80.5369 219.598 80.6714 220.053 80.9473 220.42C81.0776 220.568 81.2396 220.684 81.4213 220.761C81.6029 220.837 81.7994 220.871 81.9961 220.861C82.2025 220.862 82.4073 220.825 82.5996 220.75L82.9219 221.897C82.5788 222.032 82.2125 222.099 81.8438 222.093Z" fill="black"/>
<path d="M87.3458 222.065C86.676 222.071 86.0183 221.887 85.4493 221.534C84.8692 221.173 84.3913 220.669 84.0614 220.071C83.7314 219.473 83.5604 218.801 83.5645 218.118C83.5605 217.426 83.7369 216.745 84.0762 216.143C84.4019 215.552 84.8749 215.056 85.4493 214.702C86.0182 214.348 86.6759 214.163 87.3458 214.169C87.9651 214.168 88.5722 214.342 89.0958 214.673C89.6043 214.973 90.0133 215.417 90.2716 215.948L90.3282 214.267H91.504V221.967H90.3282L90.2716 220.315C90.0108 220.839 89.602 221.274 89.0958 221.568C88.5708 221.895 87.9642 222.067 87.3458 222.065ZM87.5274 220.805C88.006 220.809 88.4771 220.686 88.8927 220.449C89.2003 220.273 89.47 220.038 89.6862 219.757C89.9025 219.476 90.0611 219.155 90.1528 218.813C90.2445 218.471 90.2675 218.113 90.2205 217.762C90.1735 217.411 90.0574 217.072 89.879 216.766C89.6418 216.357 89.3018 216.016 88.8927 215.779C88.4785 215.537 88.0069 215.412 87.5274 215.415C87.0569 215.414 86.5947 215.539 86.1895 215.779C85.7804 216.016 85.4404 216.357 85.2032 216.766C84.9657 217.175 84.8401 217.639 84.8391 218.111C84.838 218.584 84.9615 219.048 85.1972 219.458C85.4329 219.867 85.7725 220.207 86.1816 220.444C86.5907 220.681 87.0549 220.805 87.5274 220.805Z" fill="black"/>
<path d="M93.5762 221.967V214.282L94.7383 214.267L94.8223 215.555C95.0431 215.138 95.384 214.797 95.8008 214.576C96.2626 214.334 96.7779 214.214 97.2988 214.225C97.4864 214.226 97.6737 214.24 97.8594 214.267L97.5938 215.485C97.5 215.476 97.4063 215.471 97.3145 215.471C96.9854 215.455 96.6566 215.507 96.3491 215.625C96.0416 215.744 95.7624 215.925 95.5293 216.158C95.015 216.774 94.7657 217.57 94.8359 218.37V221.967H93.5762Z" fill="black"/>
<path d="M99.7773 225.118C99.5353 225.12 99.2937 225.096 99.0566 225.047C98.8247 224.996 98.5973 224.926 98.377 224.837L98.7695 223.704C98.9168 223.774 99.0723 223.825 99.2324 223.857C99.398 223.893 99.5668 223.912 99.7363 223.914C100.01 223.915 100.277 223.829 100.498 223.668C100.738 223.493 100.94 223.271 101.094 223.017C101.302 222.664 101.48 222.295 101.625 221.912C101.625 221.897 101.627 221.883 101.633 221.87C101.638 221.859 101.645 221.849 101.654 221.841L98.5449 214.267H99.9043L102.242 220.133L104.553 214.267H105.896L102.928 221.967C102.69 222.609 102.389 223.225 102.031 223.808C101.786 224.208 101.451 224.546 101.053 224.795C100.665 225.016 100.224 225.128 99.7773 225.118Z" fill="black"/>
<path d="M111.09 221.967V211.748H117.656V213.036H112.406V216.171H117.375V217.459H112.406V221.967H111.09Z" fill="black"/>
<path d="M122.247 222.065C121.674 222.076 121.109 221.929 120.616 221.638C120.122 221.327 119.734 220.873 119.504 220.336C119.214 219.653 119.075 218.915 119.098 218.173V214.267H120.358V218.173C120.341 218.681 120.442 219.187 120.651 219.65C120.818 220.014 121.088 220.321 121.428 220.533C121.764 220.72 122.143 220.819 122.528 220.819C122.913 220.819 123.291 220.72 123.627 220.533C123.967 220.321 124.237 220.014 124.403 219.65C124.614 219.187 124.715 218.682 124.698 218.173V214.267H125.958V221.967H124.795L124.725 220.567C124.502 221.006 124.166 221.378 123.752 221.645C123.304 221.932 122.779 222.079 122.247 222.065Z" fill="black"/>
<path d="M128.029 221.967V214.267H129.191L129.26 215.667C129.484 215.229 129.82 214.857 130.234 214.589C130.678 214.303 131.197 214.157 131.725 214.169C132.302 214.157 132.871 214.305 133.369 214.596C133.864 214.907 134.252 215.361 134.482 215.898C134.773 216.581 134.912 217.319 134.889 218.061V221.967H133.629V218.061C133.646 217.553 133.545 217.047 133.334 216.584C133.167 216.221 132.898 215.914 132.559 215.703C132.225 215.508 131.845 215.409 131.459 215.416C131.071 215.41 130.689 215.509 130.354 215.703C130.012 215.909 129.741 216.214 129.576 216.578C129.37 217.044 129.271 217.551 129.289 218.061V221.967H128.029Z" fill="black"/>
<path d="M140.098 222.065C139.428 222.071 138.77 221.887 138.201 221.534C137.621 221.173 137.143 220.67 136.813 220.072C136.483 219.473 136.312 218.801 136.316 218.118C136.312 217.426 136.489 216.746 136.828 216.143C137.154 215.552 137.627 215.056 138.201 214.702C138.77 214.348 139.428 214.163 140.098 214.169C140.708 214.168 141.307 214.338 141.826 214.66C142.33 214.951 142.737 215.384 142.996 215.906V211.047H144.256V221.967H143.08L143.024 220.315C142.763 220.839 142.354 221.274 141.848 221.568C141.323 221.895 140.716 222.067 140.098 222.065ZM140.279 220.805C140.758 220.809 141.229 220.686 141.645 220.449C141.952 220.273 142.222 220.038 142.438 219.757C142.654 219.476 142.813 219.155 142.905 218.813C142.996 218.471 143.019 218.113 142.972 217.762C142.925 217.411 142.809 217.072 142.631 216.766C142.394 216.357 142.054 216.016 141.645 215.779C141.23 215.537 140.759 215.412 140.279 215.416C139.809 215.414 139.347 215.539 138.941 215.779C138.532 216.016 138.192 216.357 137.955 216.766C137.718 217.175 137.592 217.639 137.591 218.111C137.59 218.584 137.713 219.048 137.949 219.458C138.185 219.867 138.524 220.208 138.934 220.444C139.343 220.681 139.807 220.805 140.279 220.805Z" fill="black"/>
<path d="M149.336 222.093C148.704 222.09 148.078 221.982 147.482 221.771C146.882 221.571 146.344 221.219 145.92 220.749L146.803 219.923C147.101 220.244 147.473 220.486 147.887 220.63C148.349 220.81 148.84 220.902 149.336 220.903C149.79 220.924 150.242 220.818 150.639 220.595C150.787 220.514 150.911 220.395 150.998 220.25C151.084 220.104 151.129 219.938 151.129 219.769C151.133 219.659 151.113 219.55 151.069 219.45C151.026 219.349 150.96 219.26 150.877 219.188C150.681 219.029 150.454 218.912 150.211 218.845C149.936 218.761 149.594 218.677 149.182 218.593C148.664 218.483 148.152 218.343 147.65 218.173C147.258 218.037 146.904 217.806 146.621 217.501C146.321 217.163 146.165 216.721 146.188 216.269C146.182 215.875 146.31 215.49 146.551 215.177C146.818 214.841 147.171 214.582 147.572 214.428C148.053 214.239 148.567 214.146 149.084 214.156C149.659 214.155 150.229 214.252 150.771 214.442C151.316 214.632 151.798 214.969 152.164 215.415L151.381 216.2C151.111 215.889 150.763 215.656 150.373 215.527C149.973 215.382 149.552 215.306 149.127 215.303C148.71 215.286 148.295 215.375 147.922 215.562C147.784 215.626 147.668 215.728 147.586 215.856C147.505 215.983 147.461 216.132 147.461 216.284C147.458 216.379 147.478 216.475 147.52 216.561C147.561 216.647 147.623 216.723 147.699 216.781C147.883 216.919 148.092 217.021 148.314 217.081C148.566 217.156 148.893 217.24 149.295 217.333C149.83 217.446 150.358 217.588 150.877 217.76C151.291 217.901 151.663 218.141 151.961 218.46C152.274 218.806 152.437 219.261 152.416 219.727C152.431 220.204 152.28 220.671 151.99 221.05C151.697 221.415 151.306 221.69 150.863 221.841C150.373 222.013 149.856 222.098 149.336 222.093Z" fill="black"/>
<path d="M205.487 69.8618V53.6472L0.749756 53.6472V69.8618L205.487 69.8618Z" fill="#F47D39"/>
<path d="M71.3822 63.4332H0.75V79.6479H71.3822V63.4332Z" fill="#569FD6"/>
<path d="M205.487 54.3975H0.75C0.551088 54.3975 0.360379 54.3184 0.219727 54.1777C0.0790743 54.0371 0 53.8464 0 53.6475C0 53.4485 0.0790743 53.2578 0.219727 53.1172C0.360379 52.9765 0.551088 52.8975 0.75 52.8975H205.487C205.686 52.8975 205.877 52.9765 206.018 53.1172C206.158 53.2578 206.237 53.4485 206.237 53.6475C206.237 53.8464 206.158 54.0371 206.018 54.1777C205.877 54.3184 205.686 54.3975 205.487 54.3975Z" fill="#2B2B2B"/>
<path d="M90.7188 128.225V112.071H0.749756V128.225H90.7188Z" fill="#F47D39"/>
<path d="M17.6513 121.824H0.75V137.979H17.6513V121.824Z" fill="#569FD6"/>
<path d="M205.487 112.728H0.75C0.551088 112.728 0.360379 112.649 0.219727 112.508C0.0790743 112.367 0 112.177 0 111.978C0 111.779 0.0790743 111.588 0.219727 111.448C0.360379 111.307 0.551088 111.228 0.75 111.228H205.487C205.686 111.228 205.877 111.307 206.018 111.448C206.158 111.588 206.237 111.779 206.237 111.978C206.237 112.177 206.158 112.367 206.018 112.508C205.877 112.649 205.686 112.728 205.487 112.728Z" fill="#2B2B2B"/>
<path d="M20.0869 186.855V170.641H0.75V186.855H20.0869Z" fill="#F47D39"/>
<path d="M15.2157 180.427H0.75V196.641H15.2157V180.427Z" fill="#569FD6"/>
<path d="M205.487 171.391H0.75C0.551088 171.391 0.360379 171.312 0.219727 171.171C0.0790743 171.031 0 170.84 0 170.641C0 170.442 0.0790743 170.251 0.219727 170.111C0.360379 169.97 0.551088 169.891 0.75 169.891H205.487C205.686 169.891 205.877 169.97 206.018 170.111C206.158 170.251 206.237 170.442 206.237 170.641C206.237 170.84 206.158 171.031 206.018 171.171C205.877 171.312 205.686 171.391 205.487 171.391Z" fill="#2B2B2B"/>
<path d="M13.7813 245.186L13.7812 228.972H0.750244L0.750244 245.186H13.7813Z" fill="#F47D39"/>
<path d="M10.3446 238.758H0.75V254.972H10.3446V238.758Z" fill="#569FD6"/>
<path d="M205.487 229.721H0.75C0.551088 229.721 0.360379 229.642 0.219727 229.502C0.0790743 229.361 0 229.17 0 228.971C0 228.773 0.0790743 228.582 0.219727 228.441C0.360379 228.3 0.551088 228.221 0.75 228.221H205.487C205.686 228.221 205.877 228.3 206.018 228.441C206.158 228.582 206.237 228.773 206.237 228.971C206.237 229.17 206.158 229.361 206.018 229.502C205.877 229.642 205.686 229.721 205.487 229.721Z" fill="#2B2B2B"/>
</g>
<defs>
<clipPath id="clip0_3003_2120">
<rect width="206.237" height="219.972" fill="white" transform="translate(0 35)"/>
</clipPath>
</defs>
</svg>
