<svg width="202" height="283" viewBox="0 0 202 283" fill="none" xmlns="http://www.w3.org/2000/svg">
<path d="M49.147 139.376H38.527V137.396L43.927 132.296C44.847 131.456 45.567 130.616 45.567 129.636C45.567 128.476 44.727 127.736 43.667 127.736C42.667 127.736 41.967 128.436 41.647 129.136L38.667 128.116C39.247 126.056 41.287 124.496 43.647 124.496C46.507 124.496 48.807 126.456 48.807 129.656C48.807 131.496 47.487 133.036 46.127 134.336L43.747 136.356H49.147V139.376ZM55.7629 139.376H51.8229L55.1229 134.736C52.6429 134.596 50.5229 132.536 50.5229 129.776C50.5229 126.756 52.9229 124.556 55.8829 124.556C58.8429 124.556 61.2429 126.756 61.2429 129.776C61.2429 130.916 60.8829 131.976 60.2629 132.796L55.7629 139.376ZM55.8829 131.736C57.0429 131.736 57.9429 130.876 57.9429 129.776C57.9429 128.676 57.0429 127.796 55.8829 127.796C54.7229 127.796 53.7829 128.676 53.7829 129.776C53.7829 130.876 54.7229 131.736 55.8829 131.736ZM65.6193 131.456C63.6593 131.456 62.2793 129.876 62.2793 127.496C62.2793 125.156 63.6593 123.616 65.6193 123.616C67.5793 123.616 68.9393 125.156 68.9393 127.496C68.9393 129.876 67.5793 131.456 65.6193 131.456ZM66.8993 139.376H64.6993L72.7793 123.756H74.9793L66.8993 139.376ZM65.5993 129.536C66.3593 129.536 67.0193 128.996 67.0193 127.496C67.0193 126.076 66.3593 125.536 65.5993 125.536C64.8993 125.536 64.1993 126.076 64.1993 127.496C64.1993 128.996 64.8993 129.536 65.5993 129.536ZM74.0793 139.576C72.1193 139.576 70.7393 137.996 70.7393 135.616C70.7393 133.276 72.1193 131.736 74.0793 131.736C76.0193 131.736 77.3793 133.276 77.3793 135.616C77.3793 137.996 76.0193 139.576 74.0793 139.576ZM74.0593 137.656C74.7993 137.656 75.4593 137.116 75.4593 135.616C75.4593 134.196 74.7993 133.656 74.0593 133.656C73.3393 133.656 72.6593 134.196 72.6593 135.616C72.6593 137.116 73.3393 137.656 74.0593 137.656ZM37.5255 156.376H36.0835V146.156H37.5255V150.566H42.5935V146.156H44.0355V156.376H42.5935V152.008H37.5255V156.376ZM49.7141 156.488C47.3761 156.488 45.6261 154.696 45.6261 152.512C45.6261 150.342 47.3761 148.578 49.5321 148.578C51.7721 148.578 53.4381 150.342 53.4381 152.512C53.4381 152.694 53.4101 152.96 53.3961 153.156H47.0961C47.3061 154.318 48.3841 155.2 49.7141 155.2C50.6661 155.2 51.4221 154.808 51.9121 154.206L53.0181 154.892C52.2901 155.858 51.0161 156.488 49.7141 156.488ZM47.0821 152.036H52.0241C51.9541 150.846 50.9601 149.852 49.5461 149.852C48.1881 149.852 47.1661 150.846 47.0821 152.036ZM58.2648 156.474C56.1928 156.474 54.5128 154.696 54.5128 152.526C54.5128 150.342 56.1928 148.564 58.2648 148.564C59.5248 148.564 60.6588 149.32 61.1348 150.3L61.2048 148.676H62.4648V156.376H61.2048L61.1348 154.766C60.6588 155.732 59.5248 156.474 58.2648 156.474ZM58.4888 155.116C59.9308 155.116 61.0928 153.954 61.0928 152.526C61.0928 151.084 59.9308 149.908 58.4888 149.908C57.0608 149.908 55.8988 151.084 55.8988 152.526C55.8988 153.954 57.0608 155.116 58.4888 155.116ZM65.8211 156.376H64.4631V145.456H65.8211V156.376ZM70.7664 156.502C69.3524 156.502 68.1764 155.648 68.1764 153.506V149.908H67.1404V148.676H68.2184L68.3864 146.156H69.5344V148.676H71.3824V149.908H69.5344V153.492C69.5344 154.598 70.0804 155.172 70.9484 155.172C71.1444 155.172 71.3544 155.144 71.5364 155.074L71.8864 156.292C71.5644 156.432 71.1724 156.502 70.7664 156.502ZM74.6941 156.376H73.3361V145.456H74.6941V150.006C75.1141 149.208 75.9401 148.564 77.0881 148.564C78.8801 148.564 80.2381 149.796 80.2381 152.456V156.376H78.8661V152.456C78.8661 150.706 77.9141 149.908 76.7801 149.908C75.6601 149.908 74.6941 150.692 74.6941 152.456V156.376Z" fill="black"/>
<path d="M46.3377 261.634H43.0977V250.054H41.0977V247.034H46.3377V261.634ZM53.1567 261.634H49.5367L54.8767 250.054H48.1367V247.034H58.7567V248.994L53.1567 261.634ZM63.1486 253.714C61.1886 253.714 59.8086 252.134 59.8086 249.754C59.8086 247.414 61.1886 245.874 63.1486 245.874C65.1086 245.874 66.4686 247.414 66.4686 249.754C66.4686 252.134 65.1086 253.714 63.1486 253.714ZM64.4286 261.634H62.2286L70.3086 246.014H72.5086L64.4286 261.634ZM63.1286 251.794C63.8886 251.794 64.5486 251.254 64.5486 249.754C64.5486 248.334 63.8886 247.794 63.1286 247.794C62.4286 247.794 61.7286 248.334 61.7286 249.754C61.7286 251.254 62.4286 251.794 63.1286 251.794ZM71.6086 261.834C69.6486 261.834 68.2686 260.254 68.2686 257.874C68.2686 255.534 69.6486 253.994 71.6086 253.994C73.5486 253.994 74.9086 255.534 74.9086 257.874C74.9086 260.254 73.5486 261.834 71.6086 261.834ZM71.5886 259.914C72.3286 259.914 72.9886 259.374 72.9886 257.874C72.9886 256.454 72.3286 255.914 71.5886 255.914C70.8686 255.914 70.1886 256.454 70.1886 257.874C70.1886 259.374 70.8686 259.914 71.5886 259.914ZM22.4057 278.634H15.9517V268.414H22.2657V269.744H17.3797V272.726H21.9857V274.056H17.3797V277.234H22.4057V278.634ZM25.4412 278.634H24.0832V270.934H25.3432L25.4132 272.292C25.8332 271.48 26.6592 270.822 27.8352 270.822C29.6272 270.822 30.9852 272.054 30.9852 274.714V278.634H29.6132V274.714C29.6132 272.964 28.6612 272.166 27.5272 272.166C26.4072 272.166 25.4412 272.95 25.4412 274.714V278.634ZM35.979 278.634H34.621L31.597 270.934H33.067L35.307 276.59L37.533 270.934H39.003L35.979 278.634ZM40.861 270.15C40.385 270.15 39.993 269.758 39.993 269.282C39.993 268.806 40.385 268.414 40.861 268.414C41.323 268.414 41.715 268.806 41.715 269.282C41.715 269.758 41.323 270.15 40.861 270.15ZM41.533 278.634H40.175V270.934H41.533V278.634ZM44.8963 278.634H43.5383V270.934H44.7983L44.8823 272.194C45.3303 271.368 46.1983 270.878 47.3323 270.892C47.5283 270.892 47.7243 270.906 47.9063 270.934L47.6263 272.25C47.5423 272.236 47.4443 272.222 47.3603 272.222C46.0583 272.222 44.8963 272.95 44.8963 275.078V278.634ZM52.2879 278.746C50.1039 278.746 48.3399 276.954 48.3399 274.77C48.3399 272.6 50.1039 270.836 52.2879 270.836C54.4579 270.836 56.2359 272.6 56.2359 274.77C56.2359 276.954 54.4579 278.746 52.2879 278.746ZM52.2879 277.346C53.7019 277.346 54.8499 276.198 54.8499 274.77C54.8499 273.37 53.7019 272.222 52.2879 272.222C50.8599 272.222 49.7259 273.37 49.7259 274.77C49.7259 276.198 50.8599 277.346 52.2879 277.346ZM59.1424 278.634H57.7844V270.934H59.0444L59.1144 272.292C59.5344 271.48 60.3604 270.822 61.5364 270.822C63.3284 270.822 64.6864 272.054 64.6864 274.714V278.634H63.3144V274.714C63.3144 272.964 62.3624 272.166 61.2284 272.166C60.1084 272.166 59.1424 272.95 59.1424 274.714V278.634ZM67.8787 278.634H66.5207V270.934H67.7807L67.8507 272.208C68.2427 271.312 69.1107 270.822 69.9507 270.822C71.1827 270.822 71.9807 271.536 72.3027 272.46C72.6247 271.55 73.4227 270.822 74.5427 270.822C76.1807 270.822 77.3987 271.872 77.3987 274.546V278.634H76.0267V274.546C76.0267 272.782 75.2427 272.166 74.3327 272.166C73.4787 272.166 72.6387 272.782 72.6387 274.546V278.634H71.2667V274.546C71.2667 272.782 70.4827 272.166 69.5727 272.166C68.6627 272.166 67.8787 272.95 67.8787 274.714V278.634ZM82.8752 278.746C80.5372 278.746 78.7872 276.954 78.7872 274.77C78.7872 272.6 80.5372 270.836 82.6932 270.836C84.9332 270.836 86.5992 272.6 86.5992 274.77C86.5992 274.952 86.5712 275.218 86.5572 275.414H80.2572C80.4672 276.576 81.5452 277.458 82.8752 277.458C83.8272 277.458 84.5832 277.066 85.0732 276.464L86.1792 277.15C85.4512 278.116 84.1772 278.746 82.8752 278.746ZM80.2432 274.294H85.1852C85.1152 273.104 84.1212 272.11 82.7072 272.11C81.3492 272.11 80.3272 273.104 80.2432 274.294ZM89.4939 278.634H88.1359V270.934H89.3959L89.4659 272.292C89.8859 271.48 90.7119 270.822 91.8879 270.822C93.6799 270.822 95.0379 272.054 95.0379 274.714V278.634H93.6659V274.714C93.6659 272.964 92.7139 272.166 91.5799 272.166C90.4599 272.166 89.4939 272.95 89.4939 274.714V278.634ZM99.6345 278.76C98.2205 278.76 97.0445 277.906 97.0445 275.764V272.166H96.0085V270.934H97.0865L97.2545 268.414H98.4025V270.934H100.251V272.166H98.4025V275.75C98.4025 276.856 98.9485 277.43 99.8165 277.43C100.013 277.43 100.223 277.402 100.405 277.332L100.755 278.55C100.433 278.69 100.041 278.76 99.6345 278.76Z" fill="black"/>
<path d="M151.094 139.517H147.854V127.937H145.854V124.917H151.094V139.517ZM158.536 139.517H154.596L157.896 134.877C155.416 134.737 153.296 132.677 153.296 129.917C153.296 126.897 155.696 124.697 158.656 124.697C161.616 124.697 164.016 126.897 164.016 129.917C164.016 131.057 163.656 132.117 163.036 132.937L158.536 139.517ZM158.656 131.877C159.816 131.877 160.716 131.017 160.716 129.917C160.716 128.817 159.816 127.937 158.656 127.937C157.496 127.937 156.556 128.817 156.556 129.917C156.556 131.017 157.496 131.877 158.656 131.877ZM168.393 131.597C166.433 131.597 165.053 130.017 165.053 127.637C165.053 125.297 166.433 123.757 168.393 123.757C170.353 123.757 171.713 125.297 171.713 127.637C171.713 130.017 170.353 131.597 168.393 131.597ZM169.673 139.517H167.473L175.553 123.897H177.753L169.673 139.517ZM168.373 129.677C169.133 129.677 169.793 129.137 169.793 127.637C169.793 126.217 169.133 125.677 168.373 125.677C167.673 125.677 166.973 126.217 166.973 127.637C166.973 129.137 167.673 129.677 168.373 129.677ZM176.853 139.717C174.893 139.717 173.513 138.137 173.513 135.757C173.513 133.417 174.893 131.877 176.853 131.877C178.793 131.877 180.153 133.417 180.153 135.757C180.153 138.137 178.793 139.717 176.853 139.717ZM176.833 137.797C177.573 137.797 178.233 137.257 178.233 135.757C178.233 134.337 177.573 133.797 176.833 133.797C176.113 133.797 175.433 134.337 175.433 135.757C175.433 137.257 176.113 137.797 176.833 137.797ZM146.328 156.517H139.874V146.297H146.188V147.627H141.302V150.609H145.908V151.939H141.302V155.117H146.328V156.517ZM149.363 156.517H148.005V148.817H149.265L149.335 150.175C149.755 149.363 150.581 148.705 151.757 148.705C153.549 148.705 154.907 149.937 154.907 152.597V156.517H153.535V152.597C153.535 150.847 152.583 150.049 151.449 150.049C150.329 150.049 149.363 150.833 149.363 152.597V156.517ZM160.367 156.629C158.029 156.629 156.279 154.837 156.279 152.653C156.279 150.483 158.029 148.719 160.185 148.719C162.425 148.719 164.091 150.483 164.091 152.653C164.091 152.835 164.063 153.101 164.049 153.297H157.749C157.959 154.459 159.037 155.341 160.367 155.341C161.319 155.341 162.075 154.949 162.565 154.347L163.671 155.033C162.943 155.999 161.669 156.629 160.367 156.629ZM157.735 152.177H162.677C162.607 150.987 161.613 149.993 160.199 149.993C158.841 149.993 157.819 150.987 157.735 152.177ZM166.986 156.517H165.628V148.817H166.888L166.972 150.077C167.42 149.251 168.288 148.761 169.422 148.775C169.618 148.775 169.814 148.789 169.996 148.817L169.716 150.133C169.632 150.119 169.534 150.105 169.45 150.105C168.148 150.105 166.986 150.833 166.986 152.961V156.517ZM174.168 159.737C172.866 159.737 171.606 159.149 170.878 158.197L171.914 157.399C172.446 158.029 173.328 158.421 174.238 158.421C175.722 158.421 177.01 157.567 177.01 155.537V154.949C176.548 155.887 175.428 156.615 174.182 156.615C172.11 156.615 170.43 154.837 170.43 152.667C170.43 150.483 172.11 148.705 174.182 148.705C175.442 148.705 176.576 149.461 177.052 150.441L177.122 148.817H178.382V155.313C178.382 158.295 176.59 159.737 174.168 159.737ZM174.406 155.257C175.848 155.257 177.01 154.095 177.01 152.667C177.01 151.225 175.848 150.049 174.406 150.049C172.978 150.049 171.816 151.225 171.816 152.667C171.816 154.095 172.978 155.257 174.406 155.257ZM180.968 159.681C180.408 159.681 179.988 159.583 179.554 159.401L179.96 158.183C180.198 158.281 180.59 158.379 180.912 158.379C181.78 158.379 182.34 157.553 182.788 156.363L179.708 148.817H181.178L183.418 154.515L185.644 148.817H187.1L184.16 156.517C183.32 158.729 182.438 159.681 180.968 159.681Z" fill="black"/>
<path d="M151.094 261.699H147.854V250.119H145.854V247.099H151.094V261.699ZM163.093 261.699H159.853V258.699H153.273V255.859L159.153 247.099H163.093V255.519H164.293V258.699H163.093V261.699ZM159.853 251.439L156.893 255.519H159.853V251.439ZM168.393 253.779C166.433 253.779 165.053 252.199 165.053 249.819C165.053 247.479 166.433 245.939 168.393 245.939C170.353 245.939 171.713 247.479 171.713 249.819C171.713 252.199 170.353 253.779 168.393 253.779ZM169.673 261.699H167.473L175.553 246.079H177.753L169.673 261.699ZM168.373 251.859C169.133 251.859 169.793 251.319 169.793 249.819C169.793 248.399 169.133 247.859 168.373 247.859C167.673 247.859 166.973 248.399 166.973 249.819C166.973 251.319 167.673 251.859 168.373 251.859ZM176.853 261.899C174.893 261.899 173.513 260.319 173.513 257.939C173.513 255.599 174.893 254.059 176.853 254.059C178.793 254.059 180.153 255.599 180.153 257.939C180.153 260.319 178.793 261.899 176.853 261.899ZM176.833 259.979C177.573 259.979 178.233 259.439 178.233 257.939C178.233 256.519 177.573 255.979 176.833 255.979C176.113 255.979 175.433 256.519 175.433 257.939C175.433 259.439 176.113 259.979 176.833 259.979ZM148.586 278.867C145.674 278.867 143.322 276.501 143.322 273.589C143.322 270.691 145.674 268.339 148.586 268.339C151.484 268.339 153.836 270.691 153.836 273.589C153.836 276.501 151.484 278.867 148.586 278.867ZM148.586 277.383C150.658 277.383 152.366 275.703 152.366 273.575C152.366 271.489 150.658 269.809 148.586 269.809C146.5 269.809 144.792 271.489 144.792 273.575C144.792 275.703 146.5 277.383 148.586 277.383ZM158.465 278.825C157.051 278.825 155.875 277.971 155.875 275.829V272.231H154.839V270.999H155.917L156.085 268.479H157.233V270.999H159.081V272.231H157.233V275.815C157.233 276.921 157.779 277.495 158.647 277.495C158.843 277.495 159.053 277.467 159.235 277.397L159.585 278.615C159.263 278.755 158.871 278.825 158.465 278.825ZM162.392 278.699H161.034V267.779H162.392V272.329C162.812 271.531 163.638 270.887 164.786 270.887C166.578 270.887 167.936 272.119 167.936 274.779V278.699H166.564V274.779C166.564 273.029 165.612 272.231 164.478 272.231C163.358 272.231 162.392 273.015 162.392 274.779V278.699ZM173.397 278.811C171.059 278.811 169.309 277.019 169.309 274.835C169.309 272.665 171.059 270.901 173.215 270.901C175.455 270.901 177.121 272.665 177.121 274.835C177.121 275.017 177.093 275.283 177.079 275.479H170.779C170.989 276.641 172.067 277.523 173.397 277.523C174.349 277.523 175.105 277.131 175.595 276.529L176.701 277.215C175.973 278.181 174.699 278.811 173.397 278.811ZM170.765 274.359H175.707C175.637 273.169 174.643 272.175 173.229 272.175C171.871 272.175 170.849 273.169 170.765 274.359ZM180.015 278.699H178.657V270.999H179.917L180.001 272.259C180.449 271.433 181.317 270.943 182.451 270.957C182.647 270.957 182.843 270.971 183.025 270.999L182.745 272.315C182.661 272.301 182.563 272.287 182.479 272.287C181.177 272.287 180.015 273.015 180.015 275.143V278.699Z" fill="black"/>
<path d="M200.591 78.2588C199.742 127.941 125.841 127.933 125 78.2571C125.848 28.5765 199.75 28.5844 200.591 78.2588Z" fill="#FFB455"/>
<path d="M164.232 73.9486H172.853L157.048 92.6263L161.359 78.2589H152.738L159.922 63.8914H169.979L164.232 73.9486Z" fill="white"/>
<path d="M57.817 237.634C76.4936 237.634 91.634 222.494 91.634 203.817C91.634 185.14 76.4936 170 57.817 170C39.1404 170 24 185.14 24 203.817C24 222.494 39.1404 237.634 57.817 237.634Z" fill="#7DC0F1"/>
<path d="M47.534 215.254L47.8206 214.539C50.4331 207.995 53.3941 200.578 64.5551 198.098L64.5219 197.795C64.3912 197.795 51.4931 197.931 47.1808 209.726C46.0083 208.451 45.282 206.83 45.1113 205.106C45.1119 202.505 47.7539 197.089 54.1183 195.816C55.9688 195.446 58.052 195.151 60.067 194.867C64.0713 194.301 67.9056 193.759 69.9095 192.661C69.981 192.624 70.0618 192.607 70.1423 192.615C70.2228 192.622 70.2995 192.652 70.3632 192.702C70.4269 192.752 70.4748 192.818 70.5012 192.895C70.5276 192.971 70.5313 193.054 70.512 193.132C69.732 196.35 68.6059 199.475 67.1534 202.45C64.6443 207.466 60.1145 213.445 52.784 213.445C52.2262 213.399 51.6782 213.271 51.1578 213.065L51.0203 213.01L49.7138 216.015L47.534 215.254Z" fill="white"/>
<path d="M162.849 237.699C178.23 237.699 190.699 225.23 190.699 209.849C190.699 194.469 178.23 182 162.849 182C147.469 182 135 194.469 135 209.849C135 225.23 147.469 237.699 162.849 237.699Z" fill="#4E8FBC"/>
<path d="M161.193 199.926H152.916V208.203H161.193V199.926Z" fill="white"/>
<path d="M170.134 202.574H164.506V208.203H170.134V202.574Z" fill="white"/>
<path d="M161.193 211.515H155.564V217.144H161.193V211.515Z" fill="white"/>
<path d="M172.783 211.515H164.506V219.792H172.783V211.515Z" fill="white"/>
<path d="M57.6878 115.376C89.5479 115.376 115.376 89.5479 115.376 57.6878C115.376 25.8277 89.5479 0 57.6878 0C25.8277 0 0 25.8277 0 57.6878C0 89.5479 25.8277 115.376 57.6878 115.376Z" fill="#F36D20"/>
<path fill-rule="evenodd" clip-rule="evenodd" d="M57.6877 43.4591C47.1377 32.8026 34.2422 37.953 34.2422 51.7479C34.2422 60.0058 43.6658 68.7393 50.5642 74.0262C53.6872 76.4198 55.2486 77.6166 57.6877 77.6166C60.1267 77.6166 61.688 76.4198 64.811 74.0262C71.7092 68.7393 81.133 60.0058 81.133 51.7482C81.133 37.9531 68.2377 32.8026 57.6877 43.4591ZM64.3863 59.2211H59.753V63.8544C59.753 64.4022 59.5354 64.9275 59.1481 65.3148C58.7608 65.7022 58.2354 65.9198 57.6876 65.9198C57.1398 65.9198 56.6144 65.7022 56.2271 65.3148C55.8397 64.9275 55.6222 64.4022 55.6222 63.8544V59.2211H50.9889C50.4411 59.2211 49.9158 59.0034 49.5285 58.6161C49.1411 58.2288 48.9236 57.7034 48.9236 57.1556C48.9236 56.6079 49.1411 56.0825 49.5285 55.6952C49.9158 55.3079 50.4411 55.0902 50.9889 55.0902H55.6222V50.4569C55.6234 49.9099 55.8415 49.3858 56.2287 48.9994C56.6159 48.613 57.1406 48.3961 57.6876 48.3961C58.2346 48.3961 58.7592 48.613 59.1465 48.9994C59.5337 49.3858 59.7518 49.9099 59.753 50.4569V55.0902H64.3863C64.934 55.0902 65.4594 55.3079 65.8467 55.6952C66.234 56.0825 66.4516 56.6079 66.4516 57.1556C66.4516 57.7034 66.234 58.2288 65.8467 58.6161C65.4594 59.0034 64.934 59.2211 64.3863 59.2211Z" fill="white"/>
</svg>
