<svg width="206" height="259" viewBox="0 0 206 259" fill="none" xmlns="http://www.w3.org/2000/svg">
<g clip-path="url(#clip0_3002_2113)">
<mask id="mask0_3002_2113" style="mask-type:luminance" maskUnits="userSpaceOnUse" x="0" y="0" width="206" height="53">
<path d="M205.943 0.00012207H0V52.5516H205.943V0.00012207Z" fill="white"/>
</mask>
<g mask="url(#mask0_3002_2113)">
<path d="M0 0.000152588L6.10352e-05 52.5517L108.149 52.5515V3.05176e-05L0 0.000152588Z" fill="#F36D20"/>
<path d="M185.963 0.000152588H153.519V52.5515H185.963V0.000152588Z" fill="#00476B"/>
<path d="M149.759 0.000152588H111.907V52.5515H149.759V0.000152588Z" fill="#69AADB"/>
<path d="M205.943 0.000152588H189.721V52.5515H205.943V0.000152588Z" fill="#969696"/>
</g>
</g>
<path d="M31.949 80.1259C30.6166 74.8872 27.921 71.1555 24.7549 70.6383V81.6801C27.228 81.6079 29.6666 81.0811 31.949 80.1259Z" fill="#F36D20"/>
<path d="M23.2451 81.6801V70.641C20.1391 71.1742 17.4347 74.9458 16.0811 80.1373C18.3547 81.0852 20.7829 81.6081 23.2451 81.6801Z" fill="#F36D20"/>
<path d="M23.2451 104.462V93.4232C20.7829 93.4952 18.3547 94.0181 16.0811 94.9659C17.4347 100.157 20.1392 103.929 23.2451 104.462Z" fill="#F36D20"/>
<path d="M15.1592 87.5516C15.1566 89.5433 15.3513 91.5304 15.7403 93.4838C18.1291 92.5195 20.6703 91.9877 23.2453 91.9127V83.1906C20.6703 83.1156 18.1291 82.5837 15.7403 81.6195C15.3513 83.5729 15.1566 85.5599 15.1592 87.5516Z" fill="#F36D20"/>
<path d="M38.1791 77.4828C36.9301 78.9277 35.4072 80.1108 33.6982 80.9635C34.5712 85.3123 34.5712 89.791 33.6982 94.1398C35.4074 94.9925 36.9303 96.1758 38.1788 97.6212C40.2705 94.6803 41.3944 91.161 41.3944 87.5521C41.3945 83.9432 40.2706 80.4238 38.1791 77.4828Z" fill="#F36D20"/>
<path d="M33.3418 79.4467C34.8399 78.6604 36.1628 77.5783 37.2306 76.266C34.9098 73.5408 31.8047 71.5982 28.3389 70.7032C30.5388 72.4729 32.3062 75.5655 33.3418 79.4467Z" fill="#F36D20"/>
<path d="M33.3409 95.6566C32.3053 99.5378 30.5378 102.63 28.3379 104.4C31.8037 103.505 34.9089 101.562 37.2297 98.8373C36.1619 97.525 34.839 96.4429 33.3409 95.6566Z" fill="#F36D20"/>
<path d="M14.3029 94.1398C13.4298 89.791 13.4298 85.312 14.3029 80.9633C12.5936 80.1106 11.0705 78.9273 9.82178 77.4818C7.73024 80.423 6.60645 83.9426 6.60645 87.5516C6.60645 91.1607 7.73024 94.68 9.82178 97.6212C11.0704 96.1757 12.5936 94.9924 14.3029 94.1398Z" fill="#F36D20"/>
<path d="M24.7549 93.4232V104.465C27.9211 103.948 30.6166 100.216 31.949 94.9774C29.6666 94.0222 27.228 93.4954 24.7549 93.4232Z" fill="#F36D20"/>
<path d="M14.6593 95.6566C13.1612 96.4429 11.8383 97.5249 10.7705 98.8373C13.091 101.563 16.1961 103.505 19.662 104.4C17.4624 102.63 15.6949 99.5378 14.6593 95.6566Z" fill="#F36D20"/>
<path d="M14.6593 79.4467C15.6949 75.5655 17.4623 72.4729 19.662 70.7032C16.1961 71.5979 13.091 73.5406 10.7705 76.266C11.8383 77.5783 13.1612 78.6604 14.6593 79.4467Z" fill="#F36D20"/>
<path d="M32.8413 87.5516C32.8454 85.5579 32.658 83.5683 32.2815 81.6105C29.8866 82.5807 27.3378 83.1158 24.7549 83.1906V91.9127C27.3378 91.9875 29.8866 92.5226 32.2815 93.4928C32.658 91.5349 32.8454 89.5454 32.8413 87.5516Z" fill="#F36D20"/>
<path d="M72.02 96.5516H61.4V94.5716L66.8 89.4716C67.72 88.6316 68.44 87.7916 68.44 86.8116C68.44 85.6516 67.6 84.9116 66.54 84.9116C65.54 84.9116 64.84 85.6116 64.52 86.3116L61.54 85.2916C62.12 83.2316 64.16 81.6716 66.52 81.6716C69.38 81.6716 71.68 83.6316 71.68 86.8316C71.68 88.6716 70.36 90.2116 69 91.5116L66.62 93.5316H72.02V96.5516ZM79.3759 96.8116C76.0159 96.8116 73.5959 94.0116 73.5959 89.2516C73.5959 84.5116 76.0159 81.7316 79.3759 81.7316C82.7359 81.7316 85.1559 84.5116 85.1559 89.2516C85.1559 94.0116 82.7359 96.8116 79.3759 96.8116ZM79.3759 93.5516C80.7359 93.5516 81.8559 92.3516 81.8559 89.2316C81.8559 86.1916 80.7359 84.9916 79.3759 84.9916C77.9959 84.9916 76.8959 86.1916 76.8959 89.2316C76.8959 92.3516 77.9959 93.5516 79.3759 93.5516ZM92.3205 96.5516H90.8785V86.3316H92.3205L98.0325 94.0176V86.3316H99.4885V96.5516H98.0325L92.3205 88.8516V96.5516ZM106.44 96.7196C103.528 96.7196 101.176 94.3536 101.176 91.4416C101.176 88.5436 103.528 86.1916 106.44 86.1916C108.134 86.1916 109.646 86.9896 110.612 88.2356L109.324 89.0196C108.652 88.1936 107.602 87.6616 106.44 87.6616C104.354 87.6616 102.646 89.3416 102.646 91.4276C102.646 93.5556 104.354 95.2356 106.44 95.2356C108.414 95.2356 109.772 93.9616 109.926 92.0576H106.104V90.7276H111.494C111.536 90.9516 111.55 91.1896 111.55 91.4416C111.55 94.5496 109.478 96.7196 106.44 96.7196ZM118.13 96.7196C115.218 96.7196 112.866 94.3536 112.866 91.4416C112.866 88.5436 115.218 86.1916 118.13 86.1916C121.028 86.1916 123.38 88.5436 123.38 91.4416C123.38 94.3536 121.028 96.7196 118.13 96.7196ZM118.13 95.2356C120.202 95.2356 121.91 93.5556 121.91 91.4276C121.91 89.3416 120.202 87.6616 118.13 87.6616C116.044 87.6616 114.336 89.3416 114.336 91.4276C114.336 93.5556 116.044 95.2356 118.13 95.2356Z" fill="black"/>
<mask id="mask1_3002_2113" style="mask-type:luminance" maskUnits="userSpaceOnUse" x="2" y="123" width="44" height="30">
<path d="M46 123.115H2V152.988H46V123.115Z" fill="white"/>
</mask>
<g mask="url(#mask1_3002_2113)">
<path d="M24.4924 139.454L44.7094 131.92C44.8215 131.878 44.9182 131.803 44.9865 131.705C45.0548 131.606 45.0913 131.49 45.0913 131.37C45.0913 131.25 45.0548 131.134 44.9865 131.035C44.9182 130.937 44.8215 130.862 44.7094 130.82L24.4924 123.286C23.8817 123.058 23.2096 123.058 22.599 123.286L2.38193 130.82C2.2698 130.862 2.17308 130.937 2.10482 131.035C2.03657 131.134 2 131.25 2 131.37C2 131.49 2.03657 131.606 2.10482 131.705C2.17308 131.803 2.2698 131.878 2.38193 131.92L22.599 139.454C23.2096 139.682 23.8817 139.682 24.4924 139.454ZM23.5456 141.441C23.0058 141.441 22.4705 141.345 21.9646 141.157L9.5654 136.536V148.387C9.5654 150.559 15.544 152.988 23.5456 152.988C31.5472 152.988 37.5258 150.559 37.5258 148.387V136.536L25.1267 141.157C24.6208 141.345 24.0853 141.441 23.5456 141.441ZM44.2724 142.277V134.036L42.9096 134.542V142.278C42.4179 142.396 41.9803 142.676 41.667 143.073C41.3538 143.47 41.1831 143.961 41.1825 144.467V149.631H45.9999V144.467C45.999 143.961 45.8282 143.47 45.5149 143.073C45.2016 142.676 44.7641 142.396 44.2724 142.277Z" fill="#00476B"/>
</g>
<path d="M66.9 138.752C63.94 138.752 61.56 136.552 61.56 133.532C61.56 132.392 61.9 131.332 62.52 130.512L67.04 123.932H70.98L67.66 128.572C70.14 128.712 72.28 130.772 72.28 133.532C72.28 136.552 69.86 138.752 66.9 138.752ZM66.9 135.512C68.08 135.512 69 134.632 69 133.532C69 132.432 68.08 131.572 66.9 131.572C65.76 131.572 64.84 132.432 64.84 133.532C64.84 134.632 65.76 135.512 66.9 135.512ZM78.4505 138.552H76.8545L80.5925 128.332H82.1605L85.8985 138.552H84.3305L83.3505 135.892H79.4165L78.4505 138.552ZM81.3765 130.278L79.8365 134.534H82.9305L81.3765 130.278ZM90.326 138.664C88.142 138.664 86.378 136.872 86.378 134.688C86.378 132.518 88.142 130.754 90.326 130.754C91.656 130.754 92.832 131.412 93.56 132.42L92.426 133.176C91.95 132.546 91.18 132.14 90.326 132.14C88.898 132.14 87.764 133.288 87.764 134.688C87.764 136.116 88.898 137.264 90.326 137.264C91.208 137.264 91.992 136.83 92.454 136.158L93.588 136.914C92.888 137.964 91.684 138.664 90.326 138.664ZM98.2921 138.65C96.2201 138.65 94.5401 136.872 94.5401 134.702C94.5401 132.518 96.2201 130.74 98.2921 130.74C99.5521 130.74 100.686 131.496 101.162 132.476L101.232 130.852H102.492V138.552H101.232L101.162 136.942C100.686 137.908 99.5521 138.65 98.2921 138.65ZM98.5161 137.292C99.9581 137.292 101.12 136.13 101.12 134.702C101.12 133.26 99.9581 132.084 98.5161 132.084C97.0881 132.084 95.9261 133.26 95.9261 134.702C95.9261 136.13 97.0881 137.292 98.5161 137.292ZM107.78 138.65C105.708 138.65 104.028 136.872 104.028 134.702C104.028 132.518 105.708 130.74 107.78 130.74C109.026 130.74 110.146 131.468 110.608 132.434V127.632H111.98V138.552H110.72L110.65 136.942C110.174 137.908 109.04 138.65 107.78 138.65ZM108.004 137.292C109.446 137.292 110.608 136.13 110.608 134.702C110.608 133.26 109.446 132.084 108.004 132.084C106.576 132.084 105.414 133.26 105.414 134.702C105.414 136.13 106.576 137.292 108.004 137.292ZM117.605 138.664C115.267 138.664 113.517 136.872 113.517 134.688C113.517 132.518 115.267 130.754 117.423 130.754C119.663 130.754 121.329 132.518 121.329 134.688C121.329 134.87 121.301 135.136 121.287 135.332H114.987C115.197 136.494 116.275 137.376 117.605 137.376C118.557 137.376 119.313 136.984 119.803 136.382L120.909 137.068C120.181 138.034 118.907 138.664 117.605 138.664ZM114.973 134.212H119.915C119.845 133.022 118.851 132.028 117.437 132.028C116.079 132.028 115.057 133.022 114.973 134.212ZM124.223 138.552H122.865V130.852H124.125L124.195 132.126C124.587 131.23 125.455 130.74 126.295 130.74C127.527 130.74 128.325 131.454 128.647 132.378C128.969 131.468 129.767 130.74 130.887 130.74C132.525 130.74 133.743 131.79 133.743 134.464V138.552H132.371V134.464C132.371 132.7 131.587 132.084 130.677 132.084C129.823 132.084 128.983 132.7 128.983 134.464V138.552H127.611V134.464C127.611 132.7 126.827 132.084 125.917 132.084C125.007 132.084 124.223 132.868 124.223 134.632V138.552ZM136.28 130.068C135.804 130.068 135.412 129.676 135.412 129.2C135.412 128.724 135.804 128.332 136.28 128.332C136.742 128.332 137.134 128.724 137.134 129.2C137.134 129.676 136.742 130.068 136.28 130.068ZM136.952 138.552H135.594V130.852H136.952V138.552ZM142.443 138.664C140.259 138.664 138.495 136.872 138.495 134.688C138.495 132.518 140.259 130.754 142.443 130.754C143.773 130.754 144.949 131.412 145.677 132.42L144.543 133.176C144.067 132.546 143.297 132.14 142.443 132.14C141.015 132.14 139.881 133.288 139.881 134.688C139.881 136.116 141.015 137.264 142.443 137.264C143.325 137.264 144.109 136.83 144.571 136.158L145.705 136.914C145.005 137.964 143.801 138.664 142.443 138.664ZM147.873 140.092H146.543L151.499 127.618H152.829L147.873 140.092ZM63.59 155.552H62.148V145.332H66.026C68.098 145.332 69.47 146.774 69.47 148.538C69.47 149.966 68.532 151.17 67.132 151.506L69.638 155.552H67.958L65.634 151.758H63.59V155.552ZM63.59 146.746V150.344H65.998C67.23 150.344 67.986 149.518 67.986 148.538C67.986 147.586 67.23 146.746 65.998 146.746H63.59ZM74.3293 155.664C71.9913 155.664 70.2413 153.872 70.2413 151.688C70.2413 149.518 71.9913 147.754 74.1473 147.754C76.3873 147.754 78.0533 149.518 78.0533 151.688C78.0533 151.87 78.0253 152.136 78.0113 152.332H71.7113C71.9213 153.494 72.9993 154.376 74.3293 154.376C75.2813 154.376 76.0373 153.984 76.5273 153.382L77.6333 154.068C76.9053 155.034 75.6313 155.664 74.3293 155.664ZM71.6973 151.212H76.6393C76.5693 150.022 75.5753 149.028 74.1613 149.028C72.8033 149.028 71.7813 150.022 71.6973 151.212ZM82.3546 155.692C81.2486 155.692 79.8206 155.328 78.9246 154.348L79.8626 153.452C80.3806 154.026 81.3886 154.404 82.3546 154.404C83.3626 154.404 84.0626 154.012 84.0626 153.34C84.0626 151.758 79.1906 152.724 79.1906 149.868C79.1906 148.608 80.3386 147.726 82.1026 147.726C83.0966 147.726 84.3566 147.992 85.1966 149L84.3566 149.84C83.8246 149.196 82.8586 148.958 82.1446 148.958C81.2206 148.958 80.5626 149.294 80.5626 149.882C80.5626 151.282 85.4346 150.414 85.4346 153.298C85.4346 154.95 83.9646 155.692 82.3546 155.692ZM90.4485 155.664C88.1105 155.664 86.3605 153.872 86.3605 151.688C86.3605 149.518 88.1105 147.754 90.2665 147.754C92.5065 147.754 94.1725 149.518 94.1725 151.688C94.1725 151.87 94.1445 152.136 94.1305 152.332H87.8305C88.0405 153.494 89.1185 154.376 90.4485 154.376C91.4005 154.376 92.1565 153.984 92.6465 153.382L93.7525 154.068C93.0245 155.034 91.7505 155.664 90.4485 155.664ZM87.8165 151.212H92.7585C92.6885 150.022 91.6945 149.028 90.2805 149.028C88.9225 149.028 87.9005 150.022 87.8165 151.212ZM98.9992 155.65C96.9272 155.65 95.2472 153.872 95.2472 151.702C95.2472 149.518 96.9272 147.74 98.9992 147.74C100.259 147.74 101.393 148.496 101.869 149.476L101.939 147.852H103.199V155.552H101.939L101.869 153.942C101.393 154.908 100.259 155.65 98.9992 155.65ZM99.2232 154.292C100.665 154.292 101.827 153.13 101.827 151.702C101.827 150.26 100.665 149.084 99.2232 149.084C97.7952 149.084 96.6332 150.26 96.6332 151.702C96.6332 153.13 97.7952 154.292 99.2232 154.292ZM106.555 155.552H105.197V147.852H106.457L106.541 149.112C106.989 148.286 107.857 147.796 108.991 147.81C109.187 147.81 109.383 147.824 109.565 147.852L109.285 149.168C109.201 149.154 109.103 149.14 109.019 149.14C107.717 149.14 106.555 149.868 106.555 151.996V155.552ZM113.947 155.664C111.763 155.664 109.999 153.872 109.999 151.688C109.999 149.518 111.763 147.754 113.947 147.754C115.277 147.754 116.453 148.412 117.181 149.42L116.047 150.176C115.571 149.546 114.801 149.14 113.947 149.14C112.519 149.14 111.385 150.288 111.385 151.688C111.385 153.116 112.519 154.264 113.947 154.264C114.829 154.264 115.613 153.83 116.075 153.158L117.209 153.914C116.509 154.964 115.305 155.664 113.947 155.664ZM120.036 155.552H118.678V144.632H120.036V149.182C120.456 148.384 121.282 147.74 122.43 147.74C124.222 147.74 125.58 148.972 125.58 151.632V155.552H124.208V151.632C124.208 149.882 123.256 149.084 122.122 149.084C121.002 149.084 120.036 149.868 120.036 151.632V155.552Z" fill="black"/>
<mask id="mask2_3002_2113" style="mask-type:luminance" maskUnits="userSpaceOnUse" x="4" y="173" width="40" height="31">
<path d="M43.6853 173.419H4.31445V203.685H43.6853V173.419Z" fill="white"/>
</mask>
<g mask="url(#mask2_3002_2113)">
<path d="M16.955 189.565C16.3395 188.417 16.017 187.135 16.0159 185.832C16.0148 184.53 16.3352 183.247 16.9487 182.098C17.5614 180.947 18.4472 179.965 19.5284 179.236C19.5391 179.099 19.5463 178.96 19.5463 178.82C19.5512 177.865 19.3032 176.927 18.8274 176.099C18.3516 175.272 17.6651 174.586 16.8378 174.11C16.0104 173.634 15.0718 173.386 14.1174 173.391C13.1631 173.396 12.2272 173.654 11.4049 174.138C10.5826 174.623 9.90336 175.316 9.43628 176.148C8.9692 176.981 8.73094 177.922 8.74585 178.876C8.76076 179.83 9.02827 180.764 9.52112 181.581C10.014 182.398 10.7146 183.07 11.5516 183.529C9.51883 183.907 7.68247 184.985 6.36072 186.575C5.03897 188.165 4.31508 190.168 4.31445 192.235V196.669H11.8881C12.5718 193.724 14.3935 191.17 16.955 189.565Z" fill="#569FD6"/>
<path d="M36.4479 183.529C37.2807 183.069 37.9771 182.397 38.4664 181.582C38.9557 180.766 39.2205 179.836 39.2339 178.885C39.2473 177.934 39.0088 176.996 38.5426 176.167C38.0764 175.338 37.3992 174.647 36.5796 174.164C35.76 173.681 34.8274 173.424 33.8762 173.418C32.9251 173.413 31.9894 173.658 31.1641 174.131C30.3388 174.604 29.6533 175.287 29.1771 176.11C28.701 176.934 28.4512 177.868 28.4531 178.82C28.4531 178.973 28.462 179.124 28.4745 179.274C29.5415 180.004 30.4145 180.983 31.0178 182.127C31.6212 183.27 31.9369 184.543 31.9374 185.836C31.9374 187.138 31.6143 188.419 30.9973 189.565C33.5593 191.17 35.3813 193.724 36.0651 196.669H43.6851V192.235C43.6844 190.168 42.9606 188.165 41.6388 186.575C40.3171 184.985 38.4807 183.907 36.4479 183.529Z" fill="#569FD6"/>
<path d="M33.8313 203.685V199.252C33.8307 197.184 33.1067 195.181 31.7849 193.591C30.4632 192.001 28.6269 190.924 26.5941 190.545C27.646 189.969 28.4763 189.059 28.954 187.959C29.4316 186.859 29.5295 185.631 29.2322 184.469C28.9349 183.307 28.2592 182.277 27.3119 181.542C26.3645 180.807 25.1994 180.407 24.0001 180.407C22.8008 180.407 21.6356 180.807 20.6882 181.542C19.7409 182.277 19.0652 183.307 18.7679 184.469C18.4706 185.631 18.5686 186.859 19.0463 187.959C19.5239 189.059 20.3542 189.969 21.4061 190.545C19.3733 190.924 17.537 192.001 16.2152 193.591C14.8935 195.181 14.1696 197.184 14.1689 199.252V203.685H33.8313Z" fill="#569FD6"/>
</g>
<path d="M66.02 197.552H62.4L67.74 185.972H61V182.952H71.62V184.912L66.02 197.552ZM78.59 197.552H77.148V187.332H81.026C83.098 187.332 84.47 188.774 84.47 190.538C84.47 192.316 83.098 193.758 81.026 193.758H78.59V197.552ZM78.59 188.746V192.344H80.998C82.23 192.344 82.986 191.518 82.986 190.538C82.986 189.586 82.23 188.746 80.998 188.746H78.59ZM88.9314 197.664C87.1394 197.664 85.7814 196.418 85.7814 193.758V189.852H87.1534V193.758C87.1534 195.522 88.1054 196.306 89.2394 196.306C90.3594 196.306 91.3254 195.522 91.3254 193.758V189.852H92.6834V197.552H91.4234L91.3534 196.18C90.9334 196.992 90.0934 197.664 88.9314 197.664ZM98.8717 197.65C97.6117 197.65 96.4777 196.908 96.0157 195.942L95.9457 197.552H94.6857V186.632H96.0437V191.434C96.5057 190.468 97.6257 189.74 98.8717 189.74C100.944 189.74 102.624 191.518 102.624 193.702C102.624 195.872 100.944 197.65 98.8717 197.65ZM98.6617 196.292C100.09 196.292 101.252 195.13 101.252 193.702C101.252 192.26 100.09 191.084 98.6617 191.084C97.2057 191.084 96.0437 192.26 96.0437 193.702C96.0437 195.13 97.2057 196.292 98.6617 196.292ZM105.436 197.552H104.078V186.632H105.436V197.552ZM108.128 189.068C107.652 189.068 107.26 188.676 107.26 188.2C107.26 187.724 107.652 187.332 108.128 187.332C108.59 187.332 108.982 187.724 108.982 188.2C108.982 188.676 108.59 189.068 108.128 189.068ZM108.8 197.552H107.442V189.852H108.8V197.552ZM114.291 197.664C112.107 197.664 110.343 195.872 110.343 193.688C110.343 191.518 112.107 189.754 114.291 189.754C115.621 189.754 116.797 190.412 117.525 191.42L116.391 192.176C115.915 191.546 115.145 191.14 114.291 191.14C112.863 191.14 111.729 192.288 111.729 193.688C111.729 195.116 112.863 196.264 114.291 196.264C115.173 196.264 115.957 195.83 116.419 195.158L117.553 195.914C116.853 196.964 115.649 197.664 114.291 197.664Z" fill="black"/>
<mask id="mask3_3002_2113" style="mask-type:luminance" maskUnits="userSpaceOnUse" x="11" y="223" width="26" height="31">
<path d="M36.7985 223.419H11.2021V253.685H36.7985V223.419Z" fill="white"/>
</mask>
<g mask="url(#mask3_3002_2113)">
<path d="M36.7983 253.685V247.914C36.7974 245.222 35.855 242.615 34.1343 240.545C32.4136 238.475 30.023 237.072 27.3767 236.579C28.7461 235.829 29.827 234.645 30.4489 233.213C31.0707 231.781 31.1983 230.182 30.8113 228.67C30.4243 227.157 29.5448 225.817 28.3115 224.859C27.0783 223.902 25.5615 223.382 24.0002 223.382C22.439 223.382 20.9221 223.902 19.6888 224.859C18.4556 225.817 17.5762 227.157 17.1892 228.67C16.8022 230.182 16.9298 231.781 17.5516 233.213C18.1735 234.645 19.2543 235.829 20.6238 236.579C17.9775 237.072 15.5869 238.475 13.8662 240.545C12.1455 242.615 11.2031 245.222 11.2021 247.914V253.685H36.7983Z" fill="#969696"/>
</g>
<path d="M66.7 247.832C64.22 247.832 62.16 246.572 61.32 244.632L64.2 243.312C64.56 244.012 65.56 244.592 66.62 244.592C67.88 244.592 68.7 243.892 68.7 242.932C68.7 241.812 67.7 241.252 66.32 241.252H65.5V238.252H66.38C67.26 238.252 68.16 237.872 68.16 236.992C68.16 236.252 67.46 235.792 66.56 235.792C65.88 235.792 65.28 236.072 64.98 236.472L61.98 235.332C62.68 233.752 64.6 232.632 66.6 232.632C69.12 232.632 71.42 233.912 71.42 236.752C71.42 237.992 70.74 238.992 69.74 239.652C71.04 240.372 71.94 241.572 71.94 243.192C71.94 246.032 69.7 247.832 66.7 247.832ZM79.1759 247.552H77.7339V237.332H81.6119C83.6839 237.332 85.0559 238.774 85.0559 240.538C85.0559 242.316 83.6839 243.758 81.6119 243.758H79.1759V247.552ZM79.1759 238.746V242.344H81.5839C82.8159 242.344 83.5719 241.518 83.5719 240.538C83.5719 239.586 82.8159 238.746 81.5839 238.746H79.1759ZM87.8933 247.552H86.5353V239.852H87.7953L87.8793 241.112C88.3273 240.286 89.1953 239.796 90.3293 239.81C90.5253 239.81 90.7213 239.824 90.9033 239.852L90.6233 241.168C90.5393 241.154 90.4413 241.14 90.3573 241.14C89.0553 241.14 87.8933 241.868 87.8933 243.996V247.552ZM92.9362 239.068C92.4602 239.068 92.0682 238.676 92.0682 238.2C92.0682 237.724 92.4602 237.332 92.9362 237.332C93.3982 237.332 93.7902 237.724 93.7902 238.2C93.7902 238.676 93.3982 239.068 92.9362 239.068ZM93.6082 247.552H92.2502V239.852H93.6082V247.552ZM99.1695 247.552H97.8115L94.7875 239.852H96.2575L98.4975 245.508L100.723 239.852H102.193L99.1695 247.552ZM106.259 247.65C104.187 247.65 102.507 245.872 102.507 243.702C102.507 241.518 104.187 239.74 106.259 239.74C107.519 239.74 108.653 240.496 109.129 241.476L109.199 239.852H110.459V247.552H109.199L109.129 245.942C108.653 246.908 107.519 247.65 106.259 247.65ZM106.483 246.292C107.925 246.292 109.087 245.13 109.087 243.702C109.087 242.26 107.925 241.084 106.483 241.084C105.055 241.084 103.893 242.26 103.893 243.702C103.893 245.13 105.055 246.292 106.483 246.292ZM115.397 247.678C113.983 247.678 112.807 246.824 112.807 244.682V241.084H111.771V239.852H112.849L113.017 237.332H114.165V239.852H116.013V241.084H114.165V244.668C114.165 245.774 114.711 246.348 115.579 246.348C115.775 246.348 115.985 246.32 116.167 246.25L116.517 247.468C116.195 247.608 115.803 247.678 115.397 247.678ZM121.197 247.664C118.859 247.664 117.109 245.872 117.109 243.688C117.109 241.518 118.859 239.754 121.015 239.754C123.255 239.754 124.921 241.518 124.921 243.688C124.921 243.87 124.893 244.136 124.879 244.332H118.579C118.789 245.494 119.867 246.376 121.197 246.376C122.149 246.376 122.905 245.984 123.395 245.382L124.501 246.068C123.773 247.034 122.499 247.664 121.197 247.664ZM118.565 243.212H123.507C123.437 242.022 122.443 241.028 121.029 241.028C119.671 241.028 118.649 242.022 118.565 243.212Z" fill="black"/>
<defs>
<clipPath id="clip0_3002_2113">
<rect width="205.943" height="52.5516" fill="white"/>
</clipPath>
</defs>
</svg>
