<svg width="186" height="241" viewBox="0 0 186 241" fill="none" xmlns="http://www.w3.org/2000/svg">
<path d="M56.086 11.4388H13.9144C11.9715 11.4388 10.3965 13.0138 10.3965 14.9567V43.8079C10.3965 45.7508 11.9715 47.3259 13.9144 47.3259H56.086C58.0289 47.3259 59.6039 45.7508 59.6039 43.8079V14.9567C59.6039 13.0138 58.0289 11.4388 56.086 11.4388Z" fill="#D6EDFF"/>
<path d="M56.086 48H13.9138C12.8025 47.9987 11.737 47.5567 10.9513 46.7708C10.1655 45.9849 9.72374 44.9195 9.72266 43.8082V14.9564C9.72374 13.8451 10.1655 12.7797 10.9513 11.9938C11.737 11.2079 12.8025 10.7659 13.9138 10.7646H56.086C57.1973 10.7659 58.2627 11.2079 59.0484 11.9938C59.8342 12.7797 60.2761 13.8451 60.2772 14.9564V43.8082C60.2761 44.9195 59.8342 45.9849 59.0484 46.7708C58.2627 47.5567 57.1973 47.9987 56.086 48ZM13.9138 12.1125C13.1599 12.1134 12.4372 12.4133 11.9041 12.9465C11.3711 13.4797 11.0713 14.2025 11.0706 14.9564V43.8082C11.0713 44.5621 11.3711 45.2849 11.9041 45.818C12.4372 46.3512 13.1599 46.6512 13.9138 46.6521H56.086C56.84 46.6512 57.5627 46.3512 58.0957 45.818C58.6288 45.2849 58.9286 44.5621 58.9293 43.8082V14.9564C58.9286 14.2025 58.6288 13.4797 58.0957 12.9465C57.5627 12.4133 56.84 12.1134 56.086 12.1125H13.9138Z" fill="black"/>
<path d="M56.086 7.14633H13.9144C11.9715 7.14633 10.3965 8.72137 10.3965 10.6643V39.5155C10.3965 41.4584 11.9715 43.0334 13.9144 43.0334H56.086C58.0289 43.0334 59.6039 41.4584 59.6039 39.5155V10.6643C59.6039 8.72137 58.0289 7.14633 56.086 7.14633Z" fill="#D6EDFF"/>
<path d="M56.086 43.7076H13.9138C12.8025 43.7063 11.737 43.2643 10.9513 42.4784C10.1655 41.6925 9.72374 40.6271 9.72266 39.5158V10.6646C9.72371 9.55325 10.1655 8.48772 10.9513 7.70174C11.737 6.91577 12.8025 6.47354 13.9138 6.47214H56.086C57.1974 6.47354 58.2628 6.91577 59.0486 7.70174C59.8343 8.48772 60.2761 9.55325 60.2772 10.6646V39.5157C60.2761 40.627 59.8342 41.6925 59.0484 42.4784C58.2627 43.2643 57.1973 43.7063 56.086 43.7076ZM13.9138 7.82013C13.1598 7.82118 12.437 8.12124 11.904 8.65451C11.3709 9.18778 11.0713 9.91072 11.0706 10.6647V39.5158C11.0713 40.2697 11.3711 40.9925 11.9041 41.5256C12.4372 42.0588 13.1599 42.3588 13.9138 42.3597H56.086C56.84 42.3588 57.5627 42.0588 58.0957 41.5256C58.6288 40.9925 58.9286 40.2697 58.9293 39.5158V10.6646C58.9286 9.91063 58.6288 9.1877 58.0957 8.65443C57.5627 8.12116 56.84 7.8211 56.086 7.82005L13.9138 7.82013Z" fill="black"/>
<path d="M59.6036 15.822H10.755C10.5763 15.822 10.4047 15.7511 10.2783 15.6247C10.1519 15.4983 10.0811 15.3268 10.0811 15.1481C10.0811 14.9693 10.1519 14.798 10.2783 14.6716C10.4047 14.5452 10.5763 14.4741 10.755 14.4741H59.6036C59.7824 14.4741 59.9537 14.5452 60.0801 14.6716C60.2065 14.798 60.2776 14.9693 60.2776 15.1481C60.2776 15.3268 60.2065 15.4983 60.0801 15.6247C59.9537 15.7511 59.7824 15.822 59.6036 15.822Z" fill="black"/>
<path d="M21.1287 4.39297C21.1287 3.44351 20.359 2.67383 19.4096 2.67383C18.4601 2.67383 17.6904 3.44351 17.6904 4.39297V9.90006C17.6904 10.8495 18.4601 11.6192 19.4096 11.6192C20.359 11.6192 21.1287 10.8495 21.1287 9.90006V4.39297Z" fill="#D6EDFF"/>
<path d="M19.4097 12.293C18.7752 12.2922 18.167 12.0398 17.7184 11.5912C17.2698 11.1425 17.0174 10.5344 17.0166 9.89993V4.39319C17.0166 3.75851 17.2688 3.14977 17.7175 2.70098C18.1663 2.25219 18.775 2.00012 19.4097 2.00012C20.0443 2.00012 20.653 2.25219 21.1018 2.70098C21.5506 3.14977 21.8027 3.75851 21.8027 4.39319V9.90001C21.8019 10.5344 21.5494 11.1426 21.1008 11.5912C20.6522 12.0398 20.0441 12.2922 19.4097 12.293ZM19.4097 3.34795C19.1325 3.34817 18.8668 3.45837 18.6709 3.65432C18.4749 3.85028 18.3647 4.11598 18.3645 4.39311V9.89993C18.3645 10.1771 18.4746 10.443 18.6706 10.639C18.8666 10.835 19.1325 10.9451 19.4097 10.9451C19.6869 10.9451 19.9526 10.835 20.1486 10.639C20.3446 10.443 20.4548 10.1771 20.4548 9.89993V4.39319C20.4546 4.11606 20.3444 3.85029 20.1485 3.65432C19.9525 3.45836 19.6868 3.34817 19.4097 3.34795Z" fill="black"/>
<path d="M52.3094 4.39297C52.3094 3.44351 51.5397 2.67383 50.5902 2.67383C49.6408 2.67383 48.8711 3.44351 48.8711 4.39297V9.90006C48.8711 10.8495 49.6408 11.6192 50.5902 11.6192C51.5397 11.6192 52.3094 10.8495 52.3094 9.90006V4.39297Z" fill="#D6EDFF"/>
<path d="M50.5903 12.293C49.9559 12.2922 49.3476 12.0398 48.899 11.5912C48.4504 11.1426 48.1981 10.5344 48.1973 9.89993V4.39319C48.1973 3.75851 48.4494 3.14977 48.8982 2.70098C49.347 2.25219 49.9557 2.00012 50.5903 2.00012C51.225 2.00012 51.8337 2.25219 52.2825 2.70098C52.7312 3.14977 52.9834 3.75851 52.9834 4.39319V9.90001C52.9826 10.5344 52.7301 11.1426 52.2815 11.5912C51.8329 12.0398 51.2248 12.2922 50.5903 12.293ZM50.5903 3.34795C50.3132 3.34817 50.0475 3.45837 49.8515 3.65432C49.6556 3.85028 49.5454 4.11598 49.5452 4.39311V9.89993C49.5452 10.1771 49.6552 10.443 49.8512 10.639C50.0472 10.835 50.3131 10.9451 50.5903 10.9451C50.8675 10.9451 51.1333 10.835 51.3293 10.639C51.5253 10.443 51.6355 10.1771 51.6355 9.89993V4.39319C51.6353 4.11606 51.5251 3.85029 51.3291 3.65432C51.1332 3.45836 50.8675 3.34817 50.5903 3.34795Z" fill="black"/>
<path d="M36.7185 4.39297C36.7185 3.44351 35.9489 2.67383 34.9994 2.67383C34.05 2.67383 33.2803 3.44351 33.2803 4.39297V9.90006C33.2803 10.8495 34.05 11.6192 34.9994 11.6192C35.9489 11.6192 36.7185 10.8495 36.7185 9.90006V4.39297Z" fill="#D6EDFF"/>
<path d="M34.9995 12.293C34.3651 12.2922 33.7568 12.0398 33.3082 11.5912C32.8596 11.1426 32.6073 10.5344 32.6064 9.89993V4.39319C32.6064 3.75851 32.8586 3.14977 33.3074 2.70098C33.7562 2.25219 34.3648 2.00012 34.9995 2.00012C35.6342 2.00012 36.2429 2.25219 36.6916 2.70098C37.1404 3.14977 37.3926 3.75851 37.3926 4.39319V9.90001C37.3918 10.5344 37.1393 11.1426 36.6907 11.5912C36.242 12.0398 35.6339 12.2922 34.9995 12.293ZM34.9995 3.34795C34.7224 3.34817 34.4567 3.45837 34.2607 3.65432C34.0648 3.85028 33.9546 4.11598 33.9544 4.39311V9.89993C33.9544 10.1771 34.0644 10.443 34.2604 10.639C34.4564 10.835 34.7223 10.9451 34.9995 10.9451C35.2767 10.9451 35.5425 10.835 35.7385 10.639C35.9345 10.443 36.0447 10.1771 36.0447 9.89993V4.39319C36.0445 4.11606 35.9343 3.85029 35.7383 3.65432C35.5423 3.45836 35.2766 3.34817 34.9995 3.34795Z" fill="black"/>
<path d="M35.958 20.9194L37.7745 24.794C37.8503 24.9558 37.9659 25.0957 38.1105 25.2008C38.255 25.3058 38.4239 25.3725 38.6013 25.3946L42.8474 25.9249C43.0469 25.9498 43.2352 26.0311 43.3902 26.1591C43.5452 26.2872 43.6605 26.4566 43.7226 26.6478C43.7847 26.839 43.791 27.0439 43.7409 27.2386C43.6907 27.4333 43.5861 27.6096 43.4394 27.747L40.316 30.6719C40.1855 30.794 40.088 30.9473 40.0328 31.1173C39.9776 31.2873 39.9663 31.4684 40 31.6439L40.8079 35.8462C40.8459 36.0436 40.8268 36.2478 40.753 36.4347C40.6791 36.6217 40.5535 36.7837 40.3908 36.9019C40.2282 37.02 40.0353 37.0894 39.8347 37.1019C39.634 37.1143 39.434 37.0694 39.258 36.9723L35.5111 34.9055C35.3546 34.8192 35.1787 34.7739 35 34.7739C34.8213 34.7739 34.6454 34.8192 34.4889 34.9055L30.742 36.9723C30.566 37.0694 30.366 37.1143 30.1653 37.1019C29.9647 37.0894 29.7718 37.02 29.6092 36.9019C29.4465 36.7837 29.3209 36.6217 29.247 36.4347C29.1732 36.2478 29.1541 36.0436 29.1921 35.8462L29.9998 31.6439C30.0335 31.4684 30.0223 31.2873 29.9671 31.1173C29.9118 30.9473 29.8145 30.794 29.684 30.6719L26.5604 27.747C26.4137 27.6096 26.3091 27.4333 26.259 27.2386C26.2088 27.0439 26.2153 26.839 26.2774 26.6478C26.3395 26.4566 26.4548 26.2871 26.6098 26.1591C26.7648 26.031 26.953 25.9498 27.1524 25.9249L31.3987 25.3946C31.5761 25.3725 31.745 25.3058 31.8895 25.2008C32.0341 25.0957 32.1497 24.9558 32.2255 24.794L34.042 20.9194C34.1274 20.7374 34.2628 20.5834 34.4325 20.4756C34.6022 20.3678 34.799 20.3105 35 20.3105C35.201 20.3105 35.3978 20.3678 35.5675 20.4756C35.7372 20.5834 35.8726 20.7374 35.958 20.9194Z" fill="#569FD6"/>
<path d="M96.48 35H90V11.84H86V5.8H96.48V35ZM113.158 35.52C106.438 35.52 101.598 29.92 101.598 20.4C101.598 10.92 106.438 5.36 113.158 5.36C119.878 5.36 124.718 10.92 124.718 20.4C124.718 29.92 119.878 35.52 113.158 35.52ZM113.158 29C115.878 29 118.118 26.6 118.118 20.36C118.118 14.28 115.878 11.88 113.158 11.88C110.398 11.88 108.198 14.28 108.198 20.36C108.198 26.6 110.398 29 113.158 29Z" fill="#569FD6"/>
<path d="M92.602 55H86.148V44.78H92.462V46.11H87.576V49.092H92.182V50.422H87.576V53.6H92.602V55ZM97.8355 55H96.4775L93.4535 47.3H94.9235L97.1635 52.956L99.3895 47.3H100.859L97.8355 55ZM105.261 55.112C102.923 55.112 101.173 53.32 101.173 51.136C101.173 48.966 102.923 47.202 105.079 47.202C107.319 47.202 108.985 48.966 108.985 51.136C108.985 51.318 108.957 51.584 108.943 51.78H102.643C102.853 52.942 103.931 53.824 105.261 53.824C106.213 53.824 106.969 53.432 107.459 52.83L108.565 53.516C107.837 54.482 106.563 55.112 105.261 55.112ZM102.629 50.66H107.571C107.501 49.47 106.507 48.476 105.093 48.476C103.735 48.476 102.713 49.47 102.629 50.66ZM111.88 55H110.522V47.3H111.782L111.852 48.658C112.272 47.846 113.098 47.188 114.274 47.188C116.066 47.188 117.424 48.42 117.424 51.08V55H116.052V51.08C116.052 49.33 115.1 48.532 113.966 48.532C112.846 48.532 111.88 49.316 111.88 51.08V55ZM122.02 55.126C120.606 55.126 119.43 54.272 119.43 52.13V48.532H118.394V47.3H119.472L119.64 44.78H120.788V47.3H122.636V48.532H120.788V52.116C120.788 53.222 121.334 53.796 122.202 53.796C122.398 53.796 122.608 53.768 122.79 53.698L123.14 54.916C122.818 55.056 122.426 55.126 122.02 55.126ZM127.628 55.14C126.522 55.14 125.094 54.776 124.198 53.796L125.136 52.9C125.654 53.474 126.662 53.852 127.628 53.852C128.636 53.852 129.336 53.46 129.336 52.788C129.336 51.206 124.464 52.172 124.464 49.316C124.464 48.056 125.612 47.174 127.376 47.174C128.37 47.174 129.63 47.44 130.47 48.448L129.63 49.288C129.098 48.644 128.132 48.406 127.418 48.406C126.494 48.406 125.836 48.742 125.836 49.33C125.836 50.73 130.708 49.862 130.708 52.746C130.708 54.398 129.238 55.14 127.628 55.14Z" fill="black"/>
<path d="M22.3205 105.419H6.22703C6.13321 105.419 6.04027 105.401 5.95357 105.365C5.86688 105.329 5.78814 105.276 5.7218 105.21C5.65546 105.144 5.60281 105.065 5.56693 104.978C5.53105 104.892 5.51264 104.799 5.5127 104.705V101.076C5.51287 99.4706 5.99817 97.9028 6.90492 96.578C7.81166 95.2533 9.09752 94.2334 10.594 93.6522C9.88972 92.9286 9.41431 92.0135 9.22738 91.0213C9.04046 90.029 9.15035 89.0037 9.54304 88.0735C9.93574 87.1433 10.5938 86.3494 11.4353 85.7913C12.2767 85.2332 13.2641 84.9355 14.2738 84.9355C15.2835 84.9355 16.2707 85.2332 17.1121 85.7913C17.9535 86.3494 18.6118 87.1433 19.0045 88.0735C19.3972 89.0037 19.5069 90.029 19.32 91.0213C19.1331 92.0135 18.6578 92.9286 17.9536 93.6522C19.4501 94.2333 20.736 95.2532 21.6428 96.5779C22.5496 97.9027 23.0348 99.4706 23.0349 101.076V104.705C23.0349 104.799 23.0165 104.892 22.9806 104.978C22.9447 105.065 22.8921 105.144 22.8258 105.21C22.7594 105.276 22.6807 105.329 22.594 105.365C22.5073 105.401 22.4143 105.419 22.3205 105.419ZM6.94137 103.99H21.6062V101.076C21.6062 99.5503 21.0724 98.0728 20.0971 96.8995C19.1219 95.7263 17.7668 94.9314 16.2668 94.6526C16.1221 94.6257 15.9893 94.5548 15.8864 94.4496C15.7836 94.3444 15.7156 94.21 15.692 94.0648C15.6683 93.9196 15.6901 93.7706 15.7542 93.6382C15.8184 93.5058 15.9219 93.3965 16.0505 93.3251C16.7724 92.9303 17.3422 92.3064 17.6702 91.5518C17.9982 90.7972 18.0658 89.9549 17.862 89.1577C17.6583 88.3606 17.1948 87.654 16.545 87.1494C15.8951 86.6447 15.0959 86.3708 14.2731 86.3708C13.4503 86.3708 12.6509 86.6447 12.001 87.1494C11.3512 87.654 10.8879 88.3606 10.6841 89.1577C10.4804 89.9549 10.5478 90.7972 10.8758 91.5518C11.2038 92.3064 11.7737 92.9303 12.4956 93.3251C12.6245 93.3962 12.7282 93.5054 12.7926 93.6378C12.857 93.7701 12.8791 93.9191 12.8556 94.0644C12.832 94.2098 12.7642 94.3442 12.6613 94.4495C12.5584 94.5548 12.4255 94.6258 12.2807 94.6526C10.7808 94.9315 9.42583 95.7264 8.45061 96.8996C7.47539 98.0729 6.94143 99.5503 6.94137 101.076V103.99Z" fill="black"/>
<path d="M43.0457 105.419H26.9536C26.8598 105.419 26.7668 105.401 26.6801 105.365C26.5934 105.329 26.5147 105.276 26.4484 105.21C26.382 105.144 26.3294 105.065 26.2935 104.978C26.2576 104.892 26.2392 104.799 26.2393 104.705V101.076C26.2391 99.4707 26.7241 97.903 27.6306 96.5782C28.5371 95.2534 29.8228 94.2334 31.3191 93.6522C30.6149 92.9286 30.1395 92.0135 29.9525 91.0213C29.7656 90.029 29.8755 89.0037 30.2682 88.0735C30.6609 87.1433 31.319 86.3494 32.1604 85.7913C33.0019 85.2332 33.9892 84.9355 34.9989 84.9355C36.0086 84.9355 36.9958 85.2332 37.8373 85.7913C38.6787 86.3494 39.337 87.1433 39.7297 88.0735C40.1224 89.0037 40.2321 90.029 40.0452 91.0213C39.8582 92.0135 39.383 92.9286 38.6787 93.6522C40.1751 94.2335 41.4609 95.2534 42.3676 96.5781C43.2744 97.9029 43.7598 99.4706 43.76 101.076V104.705C43.7601 104.799 43.7417 104.892 43.7058 104.978C43.6699 105.065 43.6173 105.144 43.5509 105.21C43.4846 105.276 43.4058 105.329 43.3191 105.365C43.2324 105.401 43.1395 105.419 43.0457 105.419ZM27.6679 103.99H42.3313V101.076C42.3314 99.5503 41.7975 98.0728 40.8223 96.8995C39.847 95.7263 38.4919 94.9314 36.992 94.6526C36.8472 94.6257 36.7142 94.5547 36.6113 94.4493C36.5084 94.344 36.4405 94.2095 36.417 94.0641C36.3935 93.9187 36.4155 93.7696 36.4799 93.6372C36.5444 93.5047 36.6482 93.3955 36.7771 93.3243C37.4988 92.9292 38.0683 92.3052 38.396 91.5506C38.7238 90.7959 38.791 89.9536 38.587 89.1566C38.383 88.3596 37.9195 87.6532 37.2696 87.1488C36.6197 86.6443 35.8203 86.3705 34.9975 86.3707C34.1748 86.3708 33.3756 86.6449 32.7258 87.1496C32.0761 87.6543 31.613 88.361 31.4093 89.1581C31.2056 89.9552 31.2731 90.7974 31.6011 91.5519C31.9291 92.3064 32.499 92.9303 33.2208 93.3251C33.3497 93.3962 33.4533 93.5054 33.5178 93.6378C33.5822 93.7701 33.6043 93.9191 33.5807 94.0644C33.5572 94.2097 33.4893 94.3442 33.3865 94.4495C33.2836 94.5548 33.1507 94.6258 33.0059 94.6526C31.5061 94.9314 30.1511 95.7264 29.1761 96.8997C28.2011 98.073 27.6676 99.5504 27.6679 101.076V103.99Z" fill="black"/>
<path d="M63.7713 105.419H47.6792C47.5854 105.419 47.4924 105.401 47.4057 105.365C47.319 105.329 47.2403 105.276 47.1739 105.21C47.1076 105.144 47.055 105.065 47.0191 104.978C46.9832 104.892 46.9648 104.799 46.9648 104.705V101.076C46.9647 99.4707 47.4497 97.903 48.3562 96.5782C49.2627 95.2534 50.5484 94.2334 52.0447 93.6521C51.3409 92.9285 50.866 92.0136 50.6794 91.0216C50.4927 90.0296 50.6026 89.0046 50.9954 88.0747C51.3881 87.1448 52.0464 86.3513 52.8876 85.7934C53.7288 85.2355 54.7158 84.938 55.7252 84.938C56.7346 84.938 57.7216 85.2355 58.5629 85.7934C59.4041 86.3513 60.0622 87.1448 60.4549 88.0747C60.8477 89.0046 60.9577 90.0296 60.7711 91.0216C60.5845 92.0136 60.1095 92.9285 59.4057 93.6521C60.902 94.2334 62.1878 95.2534 63.0943 96.5782C64.0008 97.903 64.4857 99.4707 64.4856 101.076V104.705C64.4857 104.799 64.4672 104.892 64.4314 104.978C64.3955 105.065 64.3428 105.144 64.2765 105.21C64.2102 105.276 64.1314 105.329 64.0447 105.365C63.958 105.401 63.8651 105.419 63.7713 105.419ZM48.3935 103.99H63.0569V101.076C63.0573 99.5504 62.5236 98.073 61.5486 96.8997C60.5736 95.7264 59.2188 94.9314 57.7189 94.6526C57.5742 94.6257 57.4413 94.5547 57.3384 94.4495C57.2355 94.3442 57.1676 94.2097 57.1441 94.0644C57.1206 93.9191 57.1425 93.7701 57.2069 93.6377C57.2713 93.5054 57.3752 93.3962 57.5041 93.325C58.2261 92.93 58.7959 92.3057 59.1239 91.5509C59.4519 90.796 59.5193 89.9535 59.3154 89.1561C59.1115 88.3588 58.6479 87.652 57.9978 87.1472C57.3477 86.6425 56.5482 86.3685 55.7252 86.3685C54.9022 86.3685 54.1025 86.6425 53.4525 87.1472C52.8024 87.652 52.339 88.3588 52.1351 89.1561C51.9312 89.9535 51.9984 90.796 52.3264 91.5509C52.6543 92.3057 53.2244 92.93 53.9464 93.325C54.0752 93.3962 54.1789 93.5054 54.2434 93.6377C54.3078 93.7701 54.3298 93.9191 54.3063 94.0644C54.2828 94.2097 54.2149 94.3442 54.112 94.4495C54.0091 94.5547 53.8762 94.6257 53.7315 94.6526C52.2317 94.9314 50.8767 95.7264 49.9017 96.8997C48.9267 98.073 48.3932 99.5504 48.3935 101.076V103.99Z" fill="black"/>
<path d="M32.6838 129.039H16.5903C16.4965 129.039 16.4035 129.021 16.3169 128.985C16.2302 128.949 16.1514 128.896 16.0851 128.83C16.0187 128.763 15.9661 128.685 15.9302 128.598C15.8943 128.511 15.8759 128.418 15.876 128.325V124.696C15.8761 123.09 16.3613 121.522 17.268 120.198C18.1748 118.873 19.4607 117.853 20.9572 117.272C20.253 116.548 19.7776 115.633 19.5907 114.641C19.4037 113.649 19.5136 112.623 19.9063 111.693C20.299 110.763 20.9571 109.969 21.7985 109.411C22.64 108.853 23.6274 108.555 24.6371 108.555C25.6468 108.555 26.634 108.853 27.4754 109.411C28.3168 109.969 28.9751 110.763 29.3678 111.693C29.7605 112.623 29.8702 113.649 29.6833 114.641C29.4963 115.633 29.0211 116.548 28.3169 117.272C29.8134 117.853 31.0993 118.873 32.0061 120.198C32.9128 121.522 33.3981 123.09 33.3981 124.696V128.325C33.3982 128.418 33.3798 128.511 33.3439 128.598C33.308 128.685 33.2554 128.763 33.189 128.83C33.1227 128.896 33.0439 128.949 32.9573 128.985C32.8706 129.021 32.7776 129.039 32.6838 129.039ZM17.3046 127.61H31.9695V124.696C31.9695 123.17 31.4356 121.693 30.4604 120.519C29.4852 119.346 28.13 118.551 26.6301 118.272C26.4854 118.245 26.3526 118.175 26.2497 118.069C26.1468 117.964 26.0789 117.83 26.0553 117.685C26.0316 117.539 26.0534 117.39 26.1175 117.258C26.1817 117.126 26.2852 117.016 26.4138 116.945C27.1361 116.55 27.7062 115.926 28.0345 115.171C28.3628 114.416 28.4305 113.573 28.2267 112.776C28.0229 111.978 27.5594 111.271 26.9093 110.767C26.2592 110.262 25.4595 109.988 24.6364 109.988C23.8132 109.988 23.0134 110.262 22.3632 110.767C21.7131 111.271 21.2498 111.978 21.046 112.776C20.8423 113.573 20.9098 114.416 21.238 115.171C21.5663 115.926 22.1366 116.55 22.8589 116.945C22.9878 117.016 23.0915 117.125 23.1559 117.258C23.2203 117.39 23.2424 117.539 23.2188 117.684C23.1953 117.83 23.1275 117.964 23.0246 118.069C22.9217 118.175 22.7888 118.246 22.644 118.272C21.1441 118.551 19.789 119.346 18.8137 120.519C17.8385 121.693 17.3046 123.17 17.3046 124.696V127.61Z" fill="black"/>
<path d="M53.4094 129.039H37.3159C37.2221 129.039 37.1291 129.021 37.0424 128.985C36.9558 128.949 36.877 128.896 36.8107 128.83C36.7443 128.763 36.6917 128.685 36.6558 128.598C36.6199 128.511 36.6015 128.418 36.6016 128.325V124.696C36.6016 123.09 37.0869 121.522 37.9936 120.198C38.9004 118.873 40.1863 117.853 41.6828 117.272C40.9786 116.548 40.5032 115.633 40.3162 114.641C40.1293 113.649 40.2392 112.623 40.6319 111.693C41.0246 110.763 41.6827 109.969 42.5241 109.411C43.3656 108.853 44.3529 108.555 45.3626 108.555C46.3723 108.555 47.3595 108.853 48.201 109.411C49.0424 109.969 49.7007 110.763 50.0934 111.693C50.4861 112.623 50.5958 113.649 50.4089 114.641C50.2219 115.633 49.7467 116.548 49.0424 117.272C50.539 117.853 51.8249 118.873 52.7317 120.198C53.6384 121.522 54.1236 123.09 54.1237 124.696V128.325C54.1238 128.418 54.1054 128.511 54.0695 128.598C54.0336 128.685 53.981 128.763 53.9146 128.83C53.8483 128.896 53.7695 128.949 53.6828 128.985C53.5961 129.021 53.5032 129.039 53.4094 129.039ZM38.0302 127.61H52.695V124.696C52.6951 123.17 52.1612 121.693 51.186 120.519C50.2107 119.346 48.8556 118.551 47.3557 118.272C47.2109 118.245 47.078 118.175 46.9751 118.069C46.8722 117.964 46.8044 117.829 46.7808 117.684C46.7573 117.539 46.7792 117.39 46.8436 117.257C46.9081 117.125 47.0119 117.016 47.1408 116.945C47.8635 116.55 48.4342 115.926 48.7627 115.17C49.0912 114.415 49.1588 113.572 48.9551 112.774C48.7513 111.976 48.2877 111.269 47.6373 110.764C46.9869 110.259 46.1869 109.984 45.3633 109.984C44.5398 109.984 43.7397 110.259 43.0894 110.764C42.439 111.269 41.9752 111.976 41.7714 112.774C41.5677 113.572 41.6354 114.415 41.964 115.17C42.2925 115.926 42.8632 116.55 43.5859 116.945C43.7145 117.016 43.818 117.126 43.8822 117.258C43.9463 117.39 43.9679 117.539 43.9443 117.685C43.9206 117.83 43.8528 117.964 43.75 118.069C43.6471 118.175 43.5143 118.245 43.3696 118.272C41.8697 118.551 40.5145 119.346 39.5393 120.519C38.5641 121.693 38.0302 123.17 38.0302 124.696V127.61Z" fill="black"/>
<path d="M97.16 117.4C92.48 117.4 88.52 114.76 87 110.76L93.24 108.48C93.8 109.92 95.48 110.92 97.28 110.92C99.6 110.92 101.52 109.16 101.52 106.8C101.52 104.44 99.64 102.68 97.36 102.68C96 102.68 94.68 103.32 93.92 104.32H87.44L88.6 87.8H106.92V93.84H94.68L94.4 98.04C95.4 97.32 97 96.76 98.4 96.76C104 96.76 108.08 100.96 108.08 106.96C108.08 113 103.16 117.4 97.16 117.4ZM122.361 117.52C115.641 117.52 110.801 111.92 110.801 102.4C110.801 92.92 115.641 87.36 122.361 87.36C129.081 87.36 133.921 92.92 133.921 102.4C133.921 111.92 129.081 117.52 122.361 117.52ZM122.361 111C125.081 111 127.321 108.6 127.321 102.36C127.321 96.28 125.081 93.88 122.361 93.88C119.601 93.88 117.401 96.28 117.401 102.36C117.401 108.6 119.601 111 122.361 111ZM147.422 118C141.102 118 136.622 114.08 136.622 108.52C136.622 105.44 138.262 102.92 140.742 101.44C139.022 100.12 137.902 98.08 137.902 95.68C137.902 90.8 142.222 87.16 147.502 87.16C152.742 87.16 157.062 90.8 157.062 95.68C157.062 98.08 155.942 100.12 154.182 101.44C156.742 102.96 158.382 105.44 158.382 108.52C158.382 114.08 153.822 118 147.422 118ZM147.462 98.48C149.262 98.48 150.662 97.28 150.662 95.76C150.662 94.24 149.262 93.08 147.462 93.08C145.702 93.08 144.342 94.24 144.342 95.76C144.342 97.28 145.702 98.48 147.462 98.48ZM147.462 111.72C149.902 111.72 151.742 110.08 151.742 108.08C151.742 106.12 149.822 104.52 147.462 104.52C145.142 104.52 143.222 106.12 143.222 108.08C143.222 110.08 145.062 111.72 147.462 111.72Z" fill="#569FD6"/>
<path d="M91.25 137H87.148V126.78H90.802C92.692 126.78 93.952 127.872 93.952 129.426C93.952 130.364 93.476 131.092 92.72 131.526C93.812 131.89 94.568 132.786 94.568 134.06C94.568 135.754 93.238 137 91.25 137ZM88.59 128.11V131.064L90.858 131.05C91.852 131.036 92.538 130.434 92.538 129.622C92.538 128.796 91.95 128.11 90.774 128.11H88.59ZM88.59 132.338V135.6H91.208C92.384 135.6 93.084 134.914 93.084 133.962C93.084 132.996 92.314 132.338 91.292 132.338H88.59ZM99.7531 137.112C97.4151 137.112 95.6651 135.32 95.6651 133.136C95.6651 130.966 97.4151 129.202 99.5711 129.202C101.811 129.202 103.477 130.966 103.477 133.136C103.477 133.318 103.449 133.584 103.435 133.78H97.1351C97.3451 134.942 98.4231 135.824 99.7531 135.824C100.705 135.824 101.461 135.432 101.951 134.83L103.057 135.516C102.329 136.482 101.055 137.112 99.7531 137.112ZM97.1211 132.66H102.063C101.993 131.47 100.999 130.476 99.5851 130.476C98.2271 130.476 97.2051 131.47 97.1211 132.66ZM106.372 137H105.014V129.3H106.274L106.344 130.658C106.764 129.846 107.59 129.188 108.766 129.188C110.558 129.188 111.916 130.42 111.916 133.08V137H110.544V133.08C110.544 131.33 109.592 130.532 108.458 130.532C107.338 130.532 106.372 131.316 106.372 133.08V137ZM117.376 137.112C115.038 137.112 113.288 135.32 113.288 133.136C113.288 130.966 115.038 129.202 117.194 129.202C119.434 129.202 121.1 130.966 121.1 133.136C121.1 133.318 121.072 133.584 121.058 133.78H114.758C114.968 134.942 116.046 135.824 117.376 135.824C118.328 135.824 119.084 135.432 119.574 134.83L120.68 135.516C119.952 136.482 118.678 137.112 117.376 137.112ZM114.744 132.66H119.686C119.616 131.47 118.622 130.476 117.208 130.476C115.85 130.476 114.828 131.47 114.744 132.66ZM124.289 130.532V137.014L122.931 136.986V130.532H121.951V129.3H122.931V129.006C122.931 126.682 124.149 125.87 125.619 125.87C125.941 125.87 126.249 125.94 126.515 126.01L126.095 127.242C125.969 127.214 125.773 127.186 125.647 127.186C124.877 127.186 124.289 127.62 124.289 129.006V129.3H128.167V137.014L126.795 137V130.532H124.289ZM127.467 128.516C126.991 128.516 126.613 128.124 126.613 127.648C126.613 127.172 126.991 126.78 127.467 126.78C127.929 126.78 128.321 127.172 128.321 127.648C128.321 128.124 127.929 128.516 127.467 128.516ZM133.642 137.112C131.458 137.112 129.694 135.32 129.694 133.136C129.694 130.966 131.458 129.202 133.642 129.202C134.972 129.202 136.148 129.86 136.876 130.868L135.742 131.624C135.266 130.994 134.496 130.588 133.642 130.588C132.214 130.588 131.08 131.736 131.08 133.136C131.08 134.564 132.214 135.712 133.642 135.712C134.524 135.712 135.308 135.278 135.77 134.606L136.904 135.362C136.204 136.412 135 137.112 133.642 137.112ZM139.114 128.516C138.638 128.516 138.246 128.124 138.246 127.648C138.246 127.172 138.638 126.78 139.114 126.78C139.576 126.78 139.968 127.172 139.968 127.648C139.968 128.124 139.576 128.516 139.114 128.516ZM139.786 137H138.428V129.3H139.786V137ZM145.081 137.098C143.009 137.098 141.329 135.32 141.329 133.15C141.329 130.966 143.009 129.188 145.081 129.188C146.341 129.188 147.475 129.944 147.951 130.924L148.021 129.3H149.281V137H148.021L147.951 135.39C147.475 136.356 146.341 137.098 145.081 137.098ZM145.305 135.74C146.747 135.74 147.909 134.578 147.909 133.15C147.909 131.708 146.747 130.532 145.305 130.532C143.877 130.532 142.715 131.708 142.715 133.15C142.715 134.578 143.877 135.74 145.305 135.74ZM152.637 137H151.279V129.3H152.539L152.623 130.56C153.071 129.734 153.939 129.244 155.073 129.258C155.269 129.258 155.465 129.272 155.647 129.3L155.367 130.616C155.283 130.602 155.185 130.588 155.101 130.588C153.799 130.588 152.637 131.316 152.637 133.444V137ZM157.68 128.516C157.204 128.516 156.812 128.124 156.812 127.648C156.812 127.172 157.204 126.78 157.68 126.78C158.142 126.78 158.534 127.172 158.534 127.648C158.534 128.124 158.142 128.516 157.68 128.516ZM158.352 137H156.994V129.3H158.352V137ZM163.984 137.112C161.646 137.112 159.896 135.32 159.896 133.136C159.896 130.966 161.646 129.202 163.802 129.202C166.042 129.202 167.708 130.966 167.708 133.136C167.708 133.318 167.68 133.584 167.666 133.78H161.366C161.576 134.942 162.654 135.824 163.984 135.824C164.936 135.824 165.692 135.432 166.182 134.83L167.288 135.516C166.56 136.482 165.286 137.112 163.984 137.112ZM161.352 132.66H166.294C166.224 131.47 165.23 130.476 163.816 130.476C162.458 130.476 161.436 131.47 161.352 132.66ZM172.009 137.14C170.903 137.14 169.475 136.776 168.579 135.796L169.517 134.9C170.035 135.474 171.043 135.852 172.009 135.852C173.017 135.852 173.717 135.46 173.717 134.788C173.717 133.206 168.845 134.172 168.845 131.316C168.845 130.056 169.993 129.174 171.757 129.174C172.751 129.174 174.011 129.44 174.851 130.448L174.011 131.288C173.479 130.644 172.513 130.406 171.799 130.406C170.875 130.406 170.217 130.742 170.217 131.33C170.217 132.73 175.089 131.862 175.089 134.746C175.089 136.398 173.619 137.14 172.009 137.14Z" fill="black"/>
<g clip-path="url(#clip0_1051_3146)">
<path d="M50.4812 206.601L45.6572 209.305L40.8374 206.601L36.0135 209.305L31.1895 206.601L26.3627 209.305L21.529 206.601L16.6953 209.305V164.695H50.4812V206.601Z" fill="#D6EDFF"/>
<path d="M16.6955 210C16.5111 210 16.3342 209.927 16.2038 209.796C16.0734 209.666 16.0001 209.489 16 209.305V164.695C15.9999 164.604 16.0179 164.514 16.0528 164.429C16.0877 164.345 16.139 164.268 16.2036 164.204C16.2682 164.139 16.3448 164.088 16.4293 164.053C16.5137 164.018 16.6041 164 16.6955 164H50.4815C50.5728 164 50.6632 164.018 50.7477 164.053C50.8321 164.088 50.9088 164.139 50.9734 164.204C51.038 164.268 51.0892 164.345 51.1241 164.429C51.159 164.514 51.177 164.604 51.177 164.695V206.6C51.1771 206.724 51.1441 206.845 51.0815 206.952C51.0189 207.058 50.9291 207.146 50.8211 207.206L45.9961 209.911C45.8921 209.969 45.7749 210 45.6558 210C45.5367 210 45.4194 209.969 45.3154 209.911L40.8382 207.397L36.3542 209.911C36.2504 209.969 36.1335 210 36.0146 210C35.8957 210 35.7787 209.969 35.675 209.911L31.1896 207.397L26.7028 209.911C26.5991 209.969 26.4822 210 26.3633 210C26.2444 210 26.1274 209.97 26.0236 209.912L21.53 207.397L17.0351 209.912C16.9313 209.97 16.8144 210 16.6955 210ZM21.53 205.904C21.6489 205.904 21.7658 205.935 21.8696 205.993L26.3631 208.507L30.85 205.993C30.9537 205.935 31.0707 205.905 31.1896 205.905C31.3085 205.905 31.4254 205.935 31.5292 205.993L36.0146 208.507L40.4987 205.993C40.6026 205.935 40.7198 205.905 40.8389 205.905C40.9581 205.905 41.0752 205.935 41.1792 205.993L45.6565 208.507L49.786 206.192V165.391H17.391V208.119L21.1903 205.993C21.2941 205.935 21.4111 205.904 21.53 205.904Z" fill="black"/>
<path d="M33.1891 191.607H22.5705C22.386 191.607 22.2091 191.533 22.0787 191.403C21.9482 191.273 21.875 191.096 21.875 190.911C21.875 190.727 21.9482 190.55 22.0787 190.419C22.2091 190.289 22.386 190.216 22.5705 190.216H33.1891C33.3735 190.216 33.5504 190.289 33.6808 190.419C33.8112 190.55 33.8846 190.727 33.8846 190.911C33.8846 191.096 33.8112 191.273 33.6808 191.403C33.5504 191.533 33.3735 191.607 33.1891 191.607Z" fill="black"/>
<path d="M44.6061 191.607H39.4279C39.2435 191.607 39.0665 191.533 38.9361 191.403C38.8057 191.273 38.7324 191.096 38.7324 190.911C38.7324 190.727 38.8057 190.55 38.9361 190.419C39.0665 190.289 39.2435 190.216 39.4279 190.216H44.6061C44.7906 190.216 44.9674 190.289 45.0979 190.419C45.2283 190.55 45.3016 190.727 45.3016 190.911C45.3016 191.096 45.2283 191.273 45.0979 191.403C44.9674 191.533 44.7906 191.607 44.6061 191.607Z" fill="black"/>
<path d="M33.1891 196.211H22.5705C22.386 196.211 22.2091 196.138 22.0787 196.007C21.9482 195.877 21.875 195.7 21.875 195.515C21.875 195.331 21.9482 195.154 22.0787 195.024C22.2091 194.893 22.386 194.82 22.5705 194.82H33.1891C33.3735 194.82 33.5504 194.893 33.6808 195.024C33.8112 195.154 33.8846 195.331 33.8846 195.515C33.8846 195.7 33.8112 195.877 33.6808 196.007C33.5504 196.138 33.3735 196.211 33.1891 196.211Z" fill="black"/>
<path d="M44.6061 196.211H39.4279C39.2435 196.211 39.0665 196.138 38.9361 196.007C38.8057 195.877 38.7324 195.7 38.7324 195.515C38.7324 195.331 38.8057 195.154 38.9361 195.024C39.0665 194.893 39.2435 194.82 39.4279 194.82H44.6061C44.7906 194.82 44.9674 194.893 45.0979 195.024C45.2283 195.154 45.3016 195.331 45.3016 195.515C45.3016 195.7 45.2283 195.877 45.0979 196.007C44.9674 196.138 44.7906 196.211 44.6061 196.211Z" fill="black"/>
<path d="M33.1891 200.815H22.5705C22.386 200.815 22.2091 200.742 22.0787 200.612C21.9482 200.481 21.875 200.304 21.875 200.12C21.875 199.935 21.9482 199.758 22.0787 199.628C22.2091 199.497 22.386 199.424 22.5705 199.424H33.1891C33.3735 199.424 33.5504 199.497 33.6808 199.628C33.8112 199.758 33.8846 199.935 33.8846 200.12C33.8846 200.304 33.8112 200.481 33.6808 200.612C33.5504 200.742 33.3735 200.815 33.1891 200.815Z" fill="black"/>
<path d="M44.6061 200.815H39.4279C39.2435 200.815 39.0665 200.742 38.9361 200.612C38.8057 200.481 38.7324 200.304 38.7324 200.12C38.7324 199.935 38.8057 199.758 38.9361 199.628C39.0665 199.497 39.2435 199.424 39.4279 199.424H44.6061C44.7906 199.424 44.9674 199.497 45.0979 199.628C45.2283 199.758 45.3016 199.935 45.3016 200.12C45.3016 200.304 45.2283 200.481 45.0979 200.612C44.9674 200.742 44.7906 200.815 44.6061 200.815Z" fill="black"/>
<path d="M55.9764 188.722C61.8918 188.722 66.6872 183.926 66.6872 178.011C66.6872 172.095 61.8918 167.3 55.9764 167.3C50.061 167.3 45.2656 172.095 45.2656 178.011C45.2656 183.926 50.061 188.722 55.9764 188.722Z" fill="#569FD6"/>
<path d="M54.7761 182.863L54.7761 182.863L55.3362 182.33L55.5373 182.479L55.5374 182.479L61.3091 174.666L61.4578 174.465L61.2565 174.316L60.1372 173.49L59.9361 173.342L59.7877 173.543L54.7065 180.42L52.109 177.514L51.9425 177.328L51.7561 177.495L50.7183 178.421L50.5316 178.588L50.6984 178.774L54.0713 182.547L54.0715 182.547C54.1603 182.646 54.2689 182.726 54.3902 182.78C54.5117 182.834 54.6432 182.862 54.7761 182.863Z" fill="#D6EDFF" stroke="#D6EDFF" stroke-width="0.5"/>
<path d="M26.1701 182.996C26.0788 182.996 25.9883 182.978 25.9039 182.943C25.8195 182.908 25.7428 182.857 25.6782 182.792C25.6136 182.728 25.5624 182.651 25.5274 182.567C25.4925 182.482 25.4746 182.392 25.4746 182.3V171.508C25.4746 171.323 25.5479 171.146 25.6783 171.016C25.8087 170.886 25.9857 170.812 26.1701 170.812C26.3546 170.812 26.5314 170.886 26.6618 171.016C26.7923 171.146 26.8656 171.323 26.8656 171.508V182.3C26.8657 182.392 26.8476 182.482 26.8127 182.567C26.7778 182.651 26.7266 182.728 26.662 182.792C26.5974 182.857 26.5207 182.908 26.4363 182.943C26.3519 182.978 26.2615 182.996 26.1701 182.996Z" fill="black"/>
<path d="M28.7076 177.6H26.1701C25.9856 177.6 25.8087 177.526 25.6783 177.396C25.5479 177.265 25.4746 177.089 25.4746 176.904C25.4746 176.72 25.5479 176.543 25.6783 176.412C25.8087 176.282 25.9856 176.209 26.1701 176.209H28.7076C28.892 176.209 29.0689 176.282 29.1993 176.412C29.3298 176.543 29.4031 176.72 29.4031 176.904C29.4031 177.089 29.3298 177.265 29.1993 177.396C29.0689 177.526 28.892 177.6 28.7076 177.6Z" fill="black"/>
<path d="M28.7076 177.6H26.1701C25.9856 177.6 25.8087 177.526 25.6783 177.396C25.5479 177.265 25.4746 177.089 25.4746 176.904C25.4746 176.72 25.5479 176.543 25.6783 176.412C25.8087 176.282 25.9856 176.209 26.1701 176.209H28.7076C28.892 176.209 29.0689 176.282 29.1993 176.412C29.3298 176.543 29.4031 176.72 29.4031 176.904C29.4031 177.089 29.3298 177.265 29.1993 177.396C29.0689 177.526 28.892 177.6 28.7076 177.6Z" fill="black"/>
<path d="M28.707 177.6C28.5827 177.6 28.4605 177.566 28.3535 177.503C28.2464 177.44 28.1583 177.349 28.0983 177.24C28.0382 177.131 28.0084 177.008 28.012 176.884C28.0156 176.759 28.0525 176.638 28.1188 176.533L31.5189 171.137C31.6175 170.982 31.7737 170.872 31.9532 170.831C32.1328 170.791 32.321 170.823 32.4767 170.921C32.6324 171.02 32.7428 171.176 32.7838 171.355C32.8248 171.534 32.7929 171.723 32.6952 171.879L29.2952 177.275C29.2327 177.374 29.1459 177.457 29.043 177.513C28.9401 177.57 28.8245 177.6 28.707 177.6Z" fill="black"/>
<path d="M32.1072 182.996C31.9896 182.996 31.8739 182.966 31.771 182.91C31.6681 182.853 31.5814 182.771 31.519 182.671L28.1189 177.275C28.0205 177.119 27.9882 176.93 28.0289 176.75C28.0697 176.571 28.1802 176.414 28.3362 176.316C28.4922 176.218 28.6809 176.185 28.8608 176.226C29.0406 176.267 29.1969 176.377 29.2953 176.533L32.6953 181.93C32.7616 182.035 32.7984 182.156 32.8021 182.28C32.8057 182.404 32.7759 182.527 32.7158 182.636C32.6557 182.745 32.5676 182.836 32.4606 182.899C32.3535 182.962 32.2315 182.996 32.1072 182.996Z" fill="black"/>
<path d="M35.0684 171.279H38.2242C38.9621 171.279 39.6697 171.572 40.1914 172.094C40.7131 172.616 41.0062 173.323 41.0062 174.061V179.519C41.0062 180.256 40.7131 180.964 40.1914 181.486C39.6697 182.007 38.9621 182.301 38.2242 182.301H35.0684V171.279Z" fill="#D6EDFF"/>
<path d="M38.2241 182.996H35.0685C34.9772 182.996 34.8867 182.978 34.8023 182.943C34.7179 182.908 34.6412 182.857 34.5766 182.792C34.512 182.728 34.4608 182.651 34.4259 182.567C34.3909 182.482 34.373 182.392 34.373 182.3V171.279C34.373 171.188 34.3909 171.097 34.4259 171.013C34.4608 170.928 34.512 170.852 34.5766 170.787C34.6412 170.722 34.7179 170.671 34.8023 170.636C34.8867 170.601 34.9772 170.583 35.0685 170.583H38.2241C39.1461 170.584 40.03 170.951 40.6819 171.603C41.3339 172.255 41.7006 173.139 41.7016 174.061V179.518C41.7006 180.44 41.3339 181.324 40.6819 181.976C40.03 182.628 39.1461 182.995 38.2241 182.996ZM35.764 181.605H38.2241C38.7773 181.604 39.3076 181.384 39.6988 180.993C40.09 180.602 40.31 180.071 40.3106 179.518V174.061C40.31 173.508 40.09 172.977 39.6988 172.586C39.3076 172.195 38.7773 171.975 38.2241 171.974H35.764V181.605Z" fill="black"/>
</g>
<path d="M96.48 199H90V175.84H86V169.8H96.48V199ZM122.118 199H100.878V195.04L111.678 184.84C113.518 183.16 114.958 181.48 114.958 179.52C114.958 177.2 113.278 175.72 111.158 175.72C109.158 175.72 107.758 177.12 107.118 178.52L101.158 176.48C102.318 172.36 106.398 169.24 111.118 169.24C116.838 169.24 121.438 173.16 121.438 179.56C121.438 183.24 118.798 186.32 116.078 188.92L111.318 192.96H122.118V199ZM135.35 199H127.47L134.07 189.72C129.11 189.44 124.87 185.32 124.87 179.8C124.87 173.76 129.67 169.36 135.59 169.36C141.51 169.36 146.31 173.76 146.31 179.8C146.31 182.08 145.59 184.2 144.35 185.84L135.35 199ZM135.59 183.72C137.91 183.72 139.71 182 139.71 179.8C139.71 177.6 137.91 175.84 135.59 175.84C133.27 175.84 131.39 177.6 131.39 179.8C131.39 182 133.27 183.72 135.59 183.72ZM156.823 199H149.903V169.8H156.823V180.72L164.783 169.8H172.503L163.503 182.08L173.183 199H165.183L159.223 188.52L156.823 191.4V199Z" fill="#569FD6"/>
<path d="M87.59 219H86.148V208.78H87.59V213.708L91.916 208.78H93.582L89.998 212.994L93.932 219H92.238L89.088 214.296L87.59 215.92V219ZM98.4715 219H95.3355V208.78H98.4715C101.65 208.78 103.848 211.034 103.848 213.876C103.848 216.746 101.734 219 98.4715 219ZM96.7775 210.194V217.572H98.4715C100.908 217.572 102.35 215.906 102.35 213.862C102.35 211.888 100.824 210.194 98.4715 210.194H96.7775ZM110.171 219H108.575L112.313 208.78H113.881L117.619 219H116.051L115.071 216.34H111.137L110.171 219ZM113.097 210.726L111.557 214.982H114.651L113.097 210.726ZM120.192 219H118.834V211.3H120.094L120.164 212.574C120.556 211.678 121.424 211.188 122.264 211.188C123.496 211.188 124.294 211.902 124.616 212.826C124.938 211.916 125.736 211.188 126.856 211.188C128.494 211.188 129.712 212.238 129.712 214.912V219H128.34V214.912C128.34 213.148 127.556 212.532 126.646 212.532C125.792 212.532 124.952 213.148 124.952 214.912V219H123.58V214.912C123.58 213.148 122.796 212.532 121.886 212.532C120.976 212.532 120.192 213.316 120.192 215.08V219ZM135.049 219.112C132.865 219.112 131.101 217.32 131.101 215.136C131.101 212.966 132.865 211.202 135.049 211.202C137.219 211.202 138.997 212.966 138.997 215.136C138.997 217.32 137.219 219.112 135.049 219.112ZM135.049 217.712C136.463 217.712 137.611 216.564 137.611 215.136C137.611 213.736 136.463 212.588 135.049 212.588C133.621 212.588 132.487 213.736 132.487 215.136C132.487 216.564 133.621 217.712 135.049 217.712ZM143.527 219.112C141.735 219.112 140.377 217.866 140.377 215.206V211.3H141.749V215.206C141.749 216.97 142.701 217.754 143.835 217.754C144.955 217.754 145.921 216.97 145.921 215.206V211.3H147.279V219H146.019L145.949 217.628C145.529 218.44 144.689 219.112 143.527 219.112ZM150.639 219H149.281V211.3H150.541L150.611 212.658C151.031 211.846 151.857 211.188 153.033 211.188C154.825 211.188 156.183 212.42 156.183 215.08V219H154.811V215.08C154.811 213.33 153.859 212.532 152.725 212.532C151.605 212.532 150.639 213.316 150.639 215.08V219ZM160.78 219.126C159.366 219.126 158.19 218.272 158.19 216.13V212.532H157.154V211.3H158.232L158.4 208.78H159.548V211.3H161.396V212.532H159.548V216.116C159.548 217.222 160.094 217.796 160.962 217.796C161.158 217.796 161.368 217.768 161.55 217.698L161.9 218.916C161.578 219.056 161.186 219.126 160.78 219.126ZM86.806 237H85.21L88.948 226.78H90.516L94.254 237H92.686L91.706 234.34H87.772L86.806 237ZM89.732 228.726L88.192 232.982H91.286L89.732 228.726ZM96.8269 240.08H95.4689V229.3H96.7289L96.7989 230.896C97.2609 229.944 98.3949 229.202 99.6549 229.202C101.727 229.202 103.407 230.966 103.407 233.136C103.407 235.32 101.727 237.112 99.6549 237.112C98.4089 237.112 97.2889 236.37 96.8269 235.418V240.08ZM99.4449 235.754C100.873 235.754 102.035 234.578 102.035 233.136C102.035 231.708 100.873 230.546 99.4449 230.546C97.9889 230.546 96.8269 231.708 96.8269 233.136C96.8269 234.578 97.9889 235.754 99.4449 235.754ZM106.22 240.08H104.862V229.3H106.122L106.192 230.896C106.654 229.944 107.788 229.202 109.048 229.202C111.12 229.202 112.8 230.966 112.8 233.136C112.8 235.32 111.12 237.112 109.048 237.112C107.802 237.112 106.682 236.37 106.22 235.418V240.08ZM108.838 235.754C110.266 235.754 111.428 234.578 111.428 233.136C111.428 231.708 110.266 230.546 108.838 230.546C107.382 230.546 106.22 231.708 106.22 233.136C106.22 234.578 107.382 235.754 108.838 235.754ZM115.708 237H114.35V229.3H115.61L115.694 230.56C116.142 229.734 117.01 229.244 118.144 229.258C118.34 229.258 118.536 229.272 118.718 229.3L118.438 230.616C118.354 230.602 118.256 230.588 118.172 230.588C116.87 230.588 115.708 231.316 115.708 233.444V237ZM123.099 237.112C120.915 237.112 119.151 235.32 119.151 233.136C119.151 230.966 120.915 229.202 123.099 229.202C125.269 229.202 127.047 230.966 127.047 233.136C127.047 235.32 125.269 237.112 123.099 237.112ZM123.099 235.712C124.513 235.712 125.661 234.564 125.661 233.136C125.661 231.736 124.513 230.588 123.099 230.588C121.671 230.588 120.537 231.736 120.537 233.136C120.537 234.564 121.671 235.712 123.099 235.712ZM131.755 237H130.397L127.373 229.3H128.843L131.083 234.956L133.309 229.3H134.779L131.755 237ZM139.181 237.112C136.843 237.112 135.093 235.32 135.093 233.136C135.093 230.966 136.843 229.202 138.999 229.202C141.239 229.202 142.905 230.966 142.905 233.136C142.905 233.318 142.877 233.584 142.863 233.78H136.563C136.773 234.942 137.851 235.824 139.181 235.824C140.133 235.824 140.889 235.432 141.379 234.83L142.485 235.516C141.757 236.482 140.483 237.112 139.181 237.112ZM136.549 232.66H141.491C141.421 231.47 140.427 230.476 139.013 230.476C137.655 230.476 136.633 231.47 136.549 232.66ZM147.732 237.098C145.66 237.098 143.98 235.32 143.98 233.15C143.98 230.966 145.66 229.188 147.732 229.188C148.978 229.188 150.098 229.916 150.56 230.882V226.08H151.932V237H150.672L150.602 235.39C150.126 236.356 148.992 237.098 147.732 237.098ZM147.956 235.74C149.398 235.74 150.56 234.578 150.56 233.15C150.56 231.708 149.398 230.532 147.956 230.532C146.528 230.532 145.366 231.708 145.366 233.15C145.366 234.578 146.528 235.74 147.956 235.74Z" fill="black"/>
<defs>
<clipPath id="clip0_1051_3146">
<rect width="70" height="46" fill="white" transform="translate(0 164)"/>
</clipPath>
</defs>
</svg>
