<svg width="172" height="116" viewBox="0 0 172 116" fill="none" xmlns="http://www.w3.org/2000/svg">
<path d="M73.3205 23.4192H57.227C57.1332 23.4192 57.0403 23.4008 56.9536 23.3649C56.8669 23.329 56.7881 23.2764 56.7218 23.2101C56.6555 23.1437 56.6028 23.065 56.5669 22.9783C56.5311 22.8916 56.5126 22.7987 56.5127 22.7048V19.0759C56.5129 17.4706 56.9982 15.9028 57.9049 14.578C58.8117 13.2533 60.0975 12.2334 61.594 11.6522C60.8897 10.9286 60.4143 10.0135 60.2274 9.02127C60.0405 8.02902 60.1503 7.00371 60.543 6.0735C60.9357 5.14329 61.5938 4.34944 62.4353 3.79132C63.2767 3.2332 64.2641 2.93555 65.2738 2.93555C66.2835 2.93555 67.2707 3.2332 68.1121 3.79132C68.9535 4.34944 69.6118 5.14329 70.0045 6.0735C70.3972 7.00371 70.5069 8.02902 70.32 9.02127C70.1331 10.0135 69.6578 10.9286 68.9536 11.6522C70.4501 12.2333 71.736 13.2532 72.6428 14.5779C73.5496 15.9027 74.0348 17.4706 74.0349 19.0759V22.7048C74.0349 22.7987 74.0165 22.8916 73.9806 22.9783C73.9447 23.065 73.8921 23.1437 73.8258 23.2101C73.7594 23.2764 73.6807 23.329 73.594 23.3649C73.5073 23.4008 73.4143 23.4192 73.3205 23.4192ZM57.9414 21.9905H72.6062V19.0759C72.6062 17.5503 72.0724 16.0728 71.0971 14.8995C70.1219 13.7263 68.7668 12.9314 67.2668 12.6526C67.1221 12.6257 66.9893 12.5548 66.8864 12.4496C66.7836 12.3444 66.7156 12.21 66.692 12.0648C66.6683 11.9196 66.6901 11.7706 66.7542 11.6382C66.8184 11.5058 66.9219 11.3965 67.0505 11.3251C67.7724 10.9303 68.3422 10.3064 68.6702 9.55179C68.9982 8.79722 69.0658 7.95488 68.862 7.15773C68.6583 6.36058 68.1948 5.654 67.545 5.14936C66.8951 4.64472 66.0959 4.37076 65.2731 4.37076C64.4503 4.37076 63.6509 4.64472 63.001 5.14936C62.3512 5.654 61.8879 6.36058 61.6841 7.15773C61.4804 7.95488 61.5478 8.79722 61.8758 9.55179C62.2038 10.3064 62.7737 10.9303 63.4956 11.3251C63.6245 11.3962 63.7282 11.5054 63.7926 11.6378C63.857 11.7701 63.8791 11.9191 63.8556 12.0644C63.832 12.2098 63.7642 12.3442 63.6613 12.4495C63.5584 12.5548 63.4255 12.6258 63.2807 12.6526C61.7808 12.9315 60.4258 13.7264 59.4506 14.8996C58.4754 16.0729 57.9414 17.5503 57.9414 19.0759V21.9905Z" fill="black"/>
<path d="M94.0457 23.4192H77.9536C77.8598 23.4192 77.7668 23.4007 77.6801 23.3648C77.5934 23.329 77.5147 23.2764 77.4484 23.2101C77.382 23.1437 77.3294 23.0649 77.2935 22.9782C77.2576 22.8915 77.2392 22.7987 77.2393 22.7048V19.0759C77.2391 17.4707 77.7241 15.903 78.6306 14.5782C79.5371 13.2534 80.8228 12.2334 82.3191 11.6522C81.6149 10.9286 81.1395 10.0135 80.9525 9.02127C80.7656 8.02902 80.8755 7.00371 81.2682 6.0735C81.6609 5.14329 82.319 4.34944 83.1604 3.79132C84.0019 3.2332 84.9892 2.93555 85.9989 2.93555C87.0086 2.93555 87.9958 3.2332 88.8373 3.79132C89.6787 4.34944 90.337 5.14329 90.7297 6.0735C91.1224 7.00371 91.2321 8.02902 91.0452 9.02127C90.8582 10.0135 90.383 10.9286 89.6787 11.6522C91.1751 12.2335 92.4609 13.2534 93.3676 14.5781C94.2744 15.9029 94.7598 17.4706 94.76 19.0759V22.7048C94.7601 22.7987 94.7417 22.8916 94.7058 22.9783C94.6699 23.065 94.6173 23.1437 94.5509 23.2101C94.4846 23.2764 94.4058 23.329 94.3191 23.3649C94.2324 23.4008 94.1395 23.4192 94.0457 23.4192ZM78.6679 21.9905H93.3313V19.0759C93.3314 17.5503 92.7975 16.0728 91.8223 14.8995C90.847 13.7263 89.4919 12.9314 87.992 12.6526C87.8472 12.6257 87.7142 12.5547 87.6113 12.4493C87.5084 12.344 87.4405 12.2095 87.417 12.0641C87.3935 11.9187 87.4155 11.7696 87.4799 11.6372C87.5444 11.5047 87.6482 11.3955 87.7771 11.3243C88.4988 10.9292 89.0683 10.3052 89.396 9.55057C89.7238 8.79593 89.791 7.95363 89.587 7.1566C89.383 6.35957 88.9195 5.65319 88.2696 5.14875C87.6197 4.64431 86.8203 4.37051 85.9975 4.37067C85.1748 4.37083 84.3756 4.64492 83.7258 5.14962C83.0761 5.65432 82.613 6.36097 82.4093 7.15808C82.2056 7.95519 82.2731 8.79737 82.6011 9.55187C82.9291 10.3064 83.499 10.9303 84.2208 11.3251C84.3497 11.3962 84.4533 11.5054 84.5178 11.6378C84.5822 11.7701 84.6043 11.9191 84.5807 12.0644C84.5572 12.2097 84.4893 12.3442 84.3865 12.4495C84.2836 12.5548 84.1507 12.6258 84.0059 12.6526C82.5061 12.9314 81.1511 13.7264 80.1761 14.8997C79.2011 16.073 78.6676 17.5504 78.6679 19.0759V21.9905Z" fill="black"/>
<path d="M114.771 23.4192H98.6792C98.5854 23.4192 98.4924 23.4008 98.4057 23.3649C98.319 23.329 98.2403 23.2764 98.1739 23.2101C98.1076 23.1437 98.055 23.065 98.0191 22.9783C97.9832 22.8916 97.9648 22.7986 97.9648 22.7048V19.0759C97.9647 17.4707 98.4497 15.903 99.3562 14.5782C100.263 13.2534 101.548 12.2334 103.045 11.6522C102.341 10.9286 101.866 10.0136 101.679 9.02162C101.493 8.0296 101.603 7.00459 101.995 6.07472C102.388 5.14484 103.046 4.3513 103.888 3.79341C104.729 3.23553 105.716 2.93799 106.725 2.93799C107.735 2.93799 108.722 3.23553 109.563 3.79341C110.404 4.3513 111.062 5.14484 111.455 6.07472C111.848 7.00459 111.958 8.0296 111.771 9.02162C111.584 10.0136 111.11 10.9286 110.406 11.6522C111.902 12.2334 113.188 13.2534 114.094 14.5782C115.001 15.903 115.486 17.4707 115.486 19.0759V22.7048C115.486 22.7986 115.467 22.8916 115.431 22.9783C115.395 23.065 115.343 23.1437 115.277 23.2101C115.21 23.2764 115.131 23.329 115.045 23.3649C114.958 23.4008 114.865 23.4192 114.771 23.4192ZM99.3935 21.9905H114.057V19.0759C114.057 17.5504 113.524 16.073 112.549 14.8997C111.574 13.7264 110.219 12.9314 108.719 12.6526C108.574 12.6258 108.441 12.5548 108.338 12.4495C108.236 12.3442 108.168 12.2097 108.144 12.0644C108.121 11.9191 108.142 11.7701 108.207 11.6378C108.271 11.5054 108.375 11.3962 108.504 11.3251C109.226 10.93 109.796 10.3058 110.124 9.55091C110.452 8.79607 110.519 7.95352 110.315 7.15616C110.111 6.3588 109.648 5.65202 108.998 5.14727C108.348 4.64252 107.548 4.36849 106.725 4.36849C105.902 4.36849 105.103 4.64252 104.452 5.14727C103.802 5.65202 103.339 6.3588 103.135 7.15616C102.931 7.95352 102.998 8.79607 103.326 9.55091C103.654 10.3058 104.224 10.93 104.946 11.3251C105.075 11.3962 105.179 11.5054 105.243 11.6378C105.308 11.7701 105.33 11.9191 105.306 12.0644C105.283 12.2097 105.215 12.3442 105.112 12.4495C105.009 12.5548 104.876 12.6258 104.732 12.6526C103.232 12.9314 101.877 13.7264 100.902 14.8997C99.9267 16.073 99.3932 17.5504 99.3935 19.0759V21.9905Z" fill="black"/>
<path d="M83.6838 47.0389H67.5903C67.4965 47.039 67.4035 47.0206 67.3169 46.9847C67.2302 46.9488 67.1514 46.8962 67.0851 46.8298C67.0187 46.7635 66.9661 46.6847 66.9302 46.598C66.8943 46.5113 66.8759 46.4184 66.876 46.3246V42.6958C66.8761 41.0904 67.3613 39.5225 68.268 38.1977C69.1748 36.8729 70.4607 35.8531 71.9572 35.272C71.253 34.5484 70.7776 33.6333 70.5907 32.641C70.4037 31.6488 70.5136 30.6235 70.9063 29.6932C71.299 28.763 71.9571 27.9693 72.7985 27.4112C73.64 26.853 74.6274 26.5553 75.6371 26.5553C76.6468 26.5553 77.634 26.853 78.4754 27.4112C79.3168 27.9693 79.9751 28.763 80.3678 29.6932C80.7605 30.6235 80.8702 31.6488 80.6833 32.641C80.4963 33.6333 80.0211 34.5484 79.3169 35.272C80.8134 35.8531 82.0993 36.8729 83.0061 38.1977C83.9128 39.5225 84.3981 41.0904 84.3981 42.6958V46.3246C84.3982 46.4184 84.3798 46.5113 84.3439 46.598C84.308 46.6847 84.2554 46.7635 84.189 46.8298C84.1227 46.8962 84.0439 46.9488 83.9573 46.9847C83.8706 47.0206 83.7776 47.039 83.6838 47.0389ZM68.3046 45.6102H82.9695V42.6958C82.9695 41.1701 82.4356 39.6925 81.4604 38.5193C80.4852 37.346 79.13 36.5511 77.6301 36.2723C77.4854 36.2455 77.3526 36.1745 77.2497 36.0693C77.1468 35.9642 77.0789 35.8297 77.0553 35.6845C77.0316 35.5393 77.0534 35.3904 77.1175 35.258C77.1817 35.1256 77.2852 35.0162 77.4138 34.9448C78.1361 34.55 78.7062 33.9259 79.0345 33.171C79.3628 32.4161 79.4305 31.5734 79.2267 30.7759C79.0229 29.9784 78.5594 29.2714 77.9093 28.7665C77.2592 28.2616 76.4595 27.9875 75.6364 27.9875C74.8132 27.9875 74.0134 28.2616 73.3632 28.7665C72.7131 29.2714 72.2498 29.9784 72.046 30.7759C71.8423 31.5734 71.9098 32.4161 72.238 33.171C72.5663 33.9259 73.1366 34.55 73.8589 34.9448C73.9878 35.0159 74.0915 35.1252 74.1559 35.2575C74.2203 35.3899 74.2424 35.5389 74.2188 35.6842C74.1953 35.8295 74.1275 35.964 74.0246 36.0693C73.9217 36.1745 73.7888 36.2455 73.644 36.2723C72.1441 36.5511 70.789 37.346 69.8137 38.5193C68.8385 39.6925 68.3046 41.1701 68.3046 42.6958V45.6102Z" fill="black"/>
<path d="M104.409 47.0389H88.3159C88.2221 47.039 88.1291 47.0206 88.0424 46.9847C87.9558 46.9488 87.877 46.8962 87.8107 46.8298C87.7443 46.7635 87.6917 46.6848 87.6558 46.5981C87.6199 46.5114 87.6015 46.4184 87.6016 46.3246V42.6958C87.6016 41.0904 88.0869 39.5225 88.9936 38.1977C89.9004 36.873 91.1863 35.8532 92.6828 35.272C91.9786 34.5485 91.5032 33.6333 91.3162 32.6411C91.1293 31.6488 91.2392 30.6235 91.6319 29.6933C92.0246 28.7631 92.6827 27.9693 93.5241 27.4112C94.3656 26.8531 95.3529 26.5554 96.3626 26.5554C97.3723 26.5554 98.3595 26.8531 99.201 27.4112C100.042 27.9693 100.701 28.7631 101.093 29.6933C101.486 30.6235 101.596 31.6488 101.409 32.6411C101.222 33.6333 100.747 34.5485 100.042 35.272C101.539 35.8532 102.825 36.873 103.732 38.1977C104.638 39.5225 105.124 41.0904 105.124 42.6958V46.3246C105.124 46.4184 105.105 46.5114 105.069 46.5981C105.034 46.6848 104.981 46.7635 104.915 46.8298C104.848 46.8962 104.77 46.9488 104.683 46.9847C104.596 47.0206 104.503 47.039 104.409 47.0389ZM89.0302 45.6103H103.695V42.6958C103.695 41.1702 103.161 39.6926 102.186 38.5193C101.211 37.3461 99.8556 36.5512 98.3557 36.2724C98.2109 36.2455 98.078 36.1746 97.9751 36.0693C97.8722 35.964 97.8044 35.8295 97.7808 35.6842C97.7573 35.5389 97.7792 35.3899 97.8436 35.2576C97.9081 35.1252 98.0119 35.016 98.1408 34.9449C98.8635 34.55 99.4342 33.9257 99.7627 33.1705C100.091 32.4154 100.159 31.5723 99.9551 30.7744C99.7513 29.9765 99.2877 29.2691 98.6373 28.7639C97.9869 28.2587 97.1869 27.9845 96.3633 27.9845C95.5398 27.9845 94.7397 28.2587 94.0894 28.7639C93.439 29.2691 92.9752 29.9765 92.7714 30.7744C92.5677 31.5723 92.6354 32.4154 92.964 33.1705C93.2925 33.9257 93.8632 34.55 94.5859 34.9449C94.7145 35.0163 94.818 35.1256 94.8822 35.258C94.9463 35.3904 94.9679 35.5394 94.9443 35.6846C94.9206 35.8298 94.8528 35.9642 94.75 36.0694C94.6471 36.1746 94.5143 36.2455 94.3696 36.2724C92.8697 36.5512 91.5145 37.3461 90.5393 38.5193C89.5641 39.6926 89.0302 41.1702 89.0302 42.6958V45.6103Z" fill="black"/>
<path d="M60.2269 91.4C55.5469 91.4 51.5869 88.76 50.0669 84.76L56.3069 82.48C56.8669 83.92 58.5469 84.92 60.3469 84.92C62.6669 84.92 64.5869 83.16 64.5869 80.8C64.5869 78.44 62.7069 76.68 60.4269 76.68C59.0669 76.68 57.7469 77.32 56.9869 78.32H50.5069L51.6669 61.8H69.9869V67.84H57.7469L57.4669 72.04C58.4669 71.32 60.0669 70.76 61.4669 70.76C67.0669 70.76 71.1469 74.96 71.1469 80.96C71.1469 87 66.2269 91.4 60.2269 91.4ZM85.4281 91.52C78.7081 91.52 73.8681 85.92 73.8681 76.4C73.8681 66.92 78.7081 61.36 85.4281 61.36C92.1481 61.36 96.9881 66.92 96.9881 76.4C96.9881 85.92 92.1481 91.52 85.4281 91.52ZM85.4281 85C88.1481 85 90.3881 82.6 90.3881 76.36C90.3881 70.28 88.1481 67.88 85.4281 67.88C82.6681 67.88 80.4681 70.28 80.4681 76.36C80.4681 82.6 82.6681 85 85.4281 85ZM110.488 92C104.168 92 99.6884 88.08 99.6884 82.52C99.6884 79.44 101.328 76.92 103.808 75.44C102.088 74.12 100.968 72.08 100.968 69.68C100.968 64.8 105.288 61.16 110.568 61.16C115.808 61.16 120.128 64.8 120.128 69.68C120.128 72.08 119.008 74.12 117.248 75.44C119.808 76.96 121.448 79.44 121.448 82.52C121.448 88.08 116.888 92 110.488 92ZM110.528 72.48C112.328 72.48 113.728 71.28 113.728 69.76C113.728 68.24 112.328 67.08 110.528 67.08C108.768 67.08 107.408 68.24 107.408 69.76C107.408 71.28 108.768 72.48 110.528 72.48ZM110.528 85.72C112.968 85.72 114.808 84.08 114.808 82.08C114.808 80.12 112.888 78.52 110.528 78.52C108.208 78.52 106.288 80.12 106.288 82.08C106.288 84.08 108.128 85.72 110.528 85.72Z" fill="#F36D20"/>
<path d="M46.3999 111H42.2979V100.78H45.9519C47.8419 100.78 49.1019 101.872 49.1019 103.426C49.1019 104.364 48.6259 105.092 47.8699 105.526C48.9619 105.89 49.7179 106.786 49.7179 108.06C49.7179 109.754 48.3879 111 46.3999 111ZM43.7399 102.11V105.064L46.0079 105.05C47.0019 105.036 47.6879 104.434 47.6879 103.622C47.6879 102.796 47.0999 102.11 45.9239 102.11H43.7399ZM43.7399 106.338V109.6H46.3579C47.5339 109.6 48.2339 108.914 48.2339 107.962C48.2339 106.996 47.4639 106.338 46.4419 106.338H43.7399ZM54.903 111.112C52.565 111.112 50.815 109.32 50.815 107.136C50.815 104.966 52.565 103.202 54.721 103.202C56.961 103.202 58.627 104.966 58.627 107.136C58.627 107.318 58.599 107.584 58.585 107.78H52.285C52.495 108.942 53.573 109.824 54.903 109.824C55.855 109.824 56.611 109.432 57.101 108.83L58.207 109.516C57.479 110.482 56.205 111.112 54.903 111.112ZM52.271 106.66H57.213C57.143 105.47 56.149 104.476 54.735 104.476C53.377 104.476 52.355 105.47 52.271 106.66ZM61.5217 111H60.1637V103.3H61.4237L61.4937 104.658C61.9137 103.846 62.7397 103.188 63.9157 103.188C65.7077 103.188 67.0657 104.42 67.0657 107.08V111H65.6937V107.08C65.6937 105.33 64.7417 104.532 63.6077 104.532C62.4877 104.532 61.5217 105.316 61.5217 107.08V111ZM72.5261 111.112C70.1881 111.112 68.4381 109.32 68.4381 107.136C68.4381 104.966 70.1881 103.202 72.3441 103.202C74.5841 103.202 76.2501 104.966 76.2501 107.136C76.2501 107.318 76.2221 107.584 76.2081 107.78H69.9081C70.1181 108.942 71.1961 109.824 72.5261 109.824C73.4781 109.824 74.2341 109.432 74.7241 108.83L75.8301 109.516C75.1021 110.482 73.8281 111.112 72.5261 111.112ZM69.8941 106.66H74.8361C74.7661 105.47 73.7721 104.476 72.3581 104.476C71.0001 104.476 69.9781 105.47 69.8941 106.66ZM79.4388 104.532V111.014L78.0808 110.986V104.532H77.1008V103.3H78.0808V103.006C78.0808 100.682 79.2988 99.87 80.7688 99.87C81.0908 99.87 81.3988 99.94 81.6648 100.01L81.2448 101.242C81.1188 101.214 80.9228 101.186 80.7968 101.186C80.0268 101.186 79.4388 101.62 79.4388 103.006V103.3H83.3168V111.014L81.9448 111V104.532H79.4388ZM82.6168 102.516C82.1408 102.516 81.7628 102.124 81.7628 101.648C81.7628 101.172 82.1408 100.78 82.6168 100.78C83.0788 100.78 83.4708 101.172 83.4708 101.648C83.4708 102.124 83.0788 102.516 82.6168 102.516ZM88.7923 111.112C86.6083 111.112 84.8443 109.32 84.8443 107.136C84.8443 104.966 86.6083 103.202 88.7923 103.202C90.1223 103.202 91.2983 103.86 92.0263 104.868L90.8923 105.624C90.4163 104.994 89.6463 104.588 88.7923 104.588C87.3643 104.588 86.2303 105.736 86.2303 107.136C86.2303 108.564 87.3643 109.712 88.7923 109.712C89.6743 109.712 90.4583 109.278 90.9203 108.606L92.0543 109.362C91.3543 110.412 90.1503 111.112 88.7923 111.112ZM94.2638 102.516C93.7878 102.516 93.3958 102.124 93.3958 101.648C93.3958 101.172 93.7878 100.78 94.2638 100.78C94.7258 100.78 95.1178 101.172 95.1178 101.648C95.1178 102.124 94.7258 102.516 94.2638 102.516ZM94.9358 111H93.5778V103.3H94.9358V111ZM100.231 111.098C98.1591 111.098 96.4791 109.32 96.4791 107.15C96.4791 104.966 98.1591 103.188 100.231 103.188C101.491 103.188 102.625 103.944 103.101 104.924L103.171 103.3H104.431V111H103.171L103.101 109.39C102.625 110.356 101.491 111.098 100.231 111.098ZM100.455 109.74C101.897 109.74 103.059 108.578 103.059 107.15C103.059 105.708 101.897 104.532 100.455 104.532C99.0271 104.532 97.8651 105.708 97.8651 107.15C97.8651 108.578 99.0271 109.74 100.455 109.74ZM107.787 111H106.429V103.3H107.689L107.773 104.56C108.221 103.734 109.089 103.244 110.223 103.258C110.419 103.258 110.615 103.272 110.797 103.3L110.517 104.616C110.433 104.602 110.335 104.588 110.251 104.588C108.949 104.588 107.787 105.316 107.787 107.444V111ZM112.83 102.516C112.354 102.516 111.962 102.124 111.962 101.648C111.962 101.172 112.354 100.78 112.83 100.78C113.292 100.78 113.684 101.172 113.684 101.648C113.684 102.124 113.292 102.516 112.83 102.516ZM113.502 111H112.144V103.3H113.502V111ZM119.133 111.112C116.795 111.112 115.045 109.32 115.045 107.136C115.045 104.966 116.795 103.202 118.951 103.202C121.191 103.202 122.857 104.966 122.857 107.136C122.857 107.318 122.829 107.584 122.815 107.78H116.515C116.725 108.942 117.803 109.824 119.133 109.824C120.085 109.824 120.841 109.432 121.331 108.83L122.437 109.516C121.709 110.482 120.435 111.112 119.133 111.112ZM116.501 106.66H121.443C121.373 105.47 120.379 104.476 118.965 104.476C117.607 104.476 116.585 105.47 116.501 106.66ZM127.159 111.14C126.053 111.14 124.625 110.776 123.729 109.796L124.667 108.9C125.185 109.474 126.193 109.852 127.159 109.852C128.167 109.852 128.867 109.46 128.867 108.788C128.867 107.206 123.995 108.172 123.995 105.316C123.995 104.056 125.143 103.174 126.907 103.174C127.901 103.174 129.161 103.44 130.001 104.448L129.161 105.288C128.629 104.644 127.663 104.406 126.949 104.406C126.025 104.406 125.367 104.742 125.367 105.33C125.367 106.73 130.239 105.862 130.239 108.746C130.239 110.398 128.769 111.14 127.159 111.14Z" fill="black"/>
</svg>
