<svg width="172" height="116" viewBox="0 0 172 116" fill="none" xmlns="http://www.w3.org/2000/svg">
<path d="M107.086 11.4388H64.9144C62.9715 11.4388 61.3965 13.0139 61.3965 14.9568V43.808C61.3965 45.7509 62.9715 47.3259 64.9144 47.3259H107.086C109.029 47.3259 110.604 45.7509 110.604 43.808V14.9568C110.604 13.0139 109.029 11.4388 107.086 11.4388Z" fill="white"/>
<path d="M107.086 48H64.9138C63.8025 47.9988 62.737 47.5567 61.9513 46.7708C61.1655 45.985 60.7237 44.9195 60.7227 43.8082V14.9565C60.7237 13.8452 61.1655 12.7797 61.9513 11.9938C62.737 11.208 63.8025 10.7659 64.9138 10.7646H107.086C108.197 10.7659 109.263 11.208 110.048 11.9938C110.834 12.7797 111.276 13.8452 111.277 14.9565V43.8082C111.276 44.9195 110.834 45.985 110.048 46.7708C109.263 47.5567 108.197 47.9988 107.086 48ZM64.9138 12.1126C64.1599 12.1135 63.4372 12.4134 62.9041 12.9465C62.3711 13.4797 62.0713 14.2026 62.0706 14.9565V43.8082C62.0713 44.5621 62.3711 45.2849 62.9041 45.8181C63.4372 46.3512 64.1599 46.6512 64.9138 46.6521H107.086C107.84 46.6512 108.563 46.3512 109.096 45.8181C109.629 45.2849 109.929 44.5621 109.929 43.8082V14.9565C109.929 14.2026 109.629 13.4797 109.096 12.9465C108.563 12.4134 107.84 12.1135 107.086 12.1126H64.9138Z" fill="black"/>
<path d="M107.086 7.14636H64.9144C62.9715 7.14636 61.3965 8.7214 61.3965 10.6643V39.5155C61.3965 41.4584 62.9715 43.0334 64.9144 43.0334H107.086C109.029 43.0334 110.604 41.4584 110.604 39.5155V10.6643C110.604 8.7214 109.029 7.14636 107.086 7.14636Z" fill="white"/>
<path d="M107.086 43.7076H64.9138C63.8025 43.7064 62.737 43.2643 61.9513 42.4784C61.1655 41.6926 60.7237 40.6271 60.7227 39.5158V10.6646C60.7237 9.55328 61.1655 8.48775 61.9513 7.70177C62.737 6.9158 63.8025 6.47357 64.9138 6.47217H107.086C108.197 6.47357 109.263 6.9158 110.049 7.70177C110.834 8.48775 111.276 9.55328 111.277 10.6646V39.5157C111.276 40.627 110.834 41.6926 110.048 42.4784C109.263 43.2643 108.197 43.7064 107.086 43.7076ZM64.9138 7.82016C64.1598 7.82121 63.437 8.12127 62.904 8.65454C62.3709 9.18781 62.0713 9.91075 62.0706 10.6647V39.5158C62.0713 40.2697 62.3711 40.9925 62.9041 41.5257C63.4372 42.0588 64.1599 42.3588 64.9138 42.3597H107.086C107.84 42.3588 108.563 42.0588 109.096 41.5257C109.629 40.9925 109.929 40.2697 109.929 39.5158V10.6646C109.929 9.91066 109.629 9.18773 109.096 8.65446C108.563 8.12119 107.84 7.82113 107.086 7.82008L64.9138 7.82016Z" fill="black"/>
<path d="M110.604 15.822H61.755C61.5763 15.822 61.4047 15.7511 61.2783 15.6247C61.1519 15.4983 61.0811 15.3268 61.0811 15.1481C61.0811 14.9693 61.1519 14.798 61.2783 14.6716C61.4047 14.5452 61.5763 14.4741 61.755 14.4741H110.604C110.782 14.4741 110.954 14.5452 111.08 14.6716C111.207 14.798 111.278 14.9693 111.278 15.1481C111.278 15.3268 111.207 15.4983 111.08 15.6247C110.954 15.7511 110.782 15.822 110.604 15.822Z" fill="black"/>
<path d="M72.1287 4.39297C72.1287 3.44351 71.359 2.67383 70.4096 2.67383C69.4601 2.67383 68.6904 3.44351 68.6904 4.39297V9.90006C68.6904 10.8495 69.4601 11.6192 70.4096 11.6192C71.359 11.6192 72.1287 10.8495 72.1287 9.90006V4.39297Z" fill="white"/>
<path d="M70.4097 12.293C69.7752 12.2922 69.167 12.0398 68.7184 11.5912C68.2698 11.1425 68.0174 10.5344 68.0166 9.89993V4.39319C68.0166 3.75851 68.2688 3.14977 68.7175 2.70098C69.1663 2.25219 69.775 2.00012 70.4097 2.00012C71.0443 2.00012 71.653 2.25219 72.1018 2.70098C72.5506 3.14977 72.8027 3.75851 72.8027 4.39319V9.90001C72.8019 10.5344 72.5494 11.1426 72.1008 11.5912C71.6522 12.0398 71.0441 12.2922 70.4097 12.293ZM70.4097 3.34795C70.1325 3.34817 69.8668 3.45837 69.6709 3.65432C69.4749 3.85028 69.3647 4.11598 69.3645 4.39311V9.89993C69.3645 10.1771 69.4746 10.443 69.6706 10.639C69.8666 10.835 70.1325 10.9451 70.4097 10.9451C70.6869 10.9451 70.9526 10.835 71.1486 10.639C71.3446 10.443 71.4548 10.1771 71.4548 9.89993V4.39319C71.4546 4.11606 71.3444 3.85029 71.1485 3.65432C70.9525 3.45836 70.6868 3.34817 70.4097 3.34795Z" fill="black"/>
<path d="M103.309 4.39297C103.309 3.44351 102.54 2.67383 101.59 2.67383C100.641 2.67383 99.8711 3.44351 99.8711 4.39297V9.90006C99.8711 10.8495 100.641 11.6192 101.59 11.6192C102.54 11.6192 103.309 10.8495 103.309 9.90006V4.39297Z" fill="white"/>
<path d="M101.59 12.293C100.956 12.2922 100.348 12.0398 99.899 11.5912C99.4504 11.1426 99.1981 10.5344 99.1973 9.89993V4.39319C99.1973 3.75851 99.4494 3.14977 99.8982 2.70098C100.347 2.25219 100.956 2.00012 101.59 2.00012C102.225 2.00012 102.834 2.25219 103.282 2.70098C103.731 3.14977 103.983 3.75851 103.983 4.39319V9.90001C103.983 10.5344 103.73 11.1426 103.281 11.5912C102.833 12.0398 102.225 12.2922 101.59 12.293ZM101.59 3.34795C101.313 3.34817 101.048 3.45837 100.852 3.65432C100.656 3.85028 100.545 4.11598 100.545 4.39311V9.89993C100.545 10.1771 100.655 10.443 100.851 10.639C101.047 10.835 101.313 10.9451 101.59 10.9451C101.868 10.9451 102.133 10.835 102.329 10.639C102.525 10.443 102.635 10.1771 102.635 9.89993V4.39319C102.635 4.11606 102.525 3.85029 102.329 3.65432C102.133 3.45836 101.867 3.34817 101.59 3.34795Z" fill="black"/>
<path d="M87.7185 4.39297C87.7185 3.44351 86.9489 2.67383 85.9994 2.67383C85.05 2.67383 84.2803 3.44351 84.2803 4.39297V9.90006C84.2803 10.8495 85.05 11.6192 85.9994 11.6192C86.9489 11.6192 87.7185 10.8495 87.7185 9.90006V4.39297Z" fill="white"/>
<path d="M85.9995 12.293C85.3651 12.2922 84.7568 12.0398 84.3082 11.5912C83.8596 11.1426 83.6073 10.5344 83.6064 9.89993V4.39319C83.6064 3.75851 83.8586 3.14977 84.3074 2.70098C84.7562 2.25219 85.3648 2.00012 85.9995 2.00012C86.6342 2.00012 87.2429 2.25219 87.6916 2.70098C88.1404 3.14977 88.3926 3.75851 88.3926 4.39319V9.90001C88.3918 10.5344 88.1393 11.1426 87.6907 11.5912C87.242 12.0398 86.6339 12.2922 85.9995 12.293ZM85.9995 3.34795C85.7224 3.34817 85.4567 3.45837 85.2607 3.65432C85.0648 3.85028 84.9546 4.11598 84.9544 4.39311V9.89993C84.9544 10.1771 85.0644 10.443 85.2604 10.639C85.4564 10.835 85.7223 10.9451 85.9995 10.9451C86.2767 10.9451 86.5425 10.835 86.7385 10.639C86.9345 10.443 87.0447 10.1771 87.0447 9.89993V4.39319C87.0445 4.11606 86.9343 3.85029 86.7383 3.65432C86.5423 3.45836 86.2766 3.34817 85.9995 3.34795Z" fill="black"/>
<path d="M86.957 20.9194L88.7735 24.794C88.8494 24.9558 88.9649 25.0958 89.1095 25.2008C89.2541 25.3059 89.423 25.3725 89.6003 25.3947L93.8464 25.925C94.0459 25.9499 94.2343 26.0312 94.3892 26.1592C94.5442 26.2872 94.6595 26.4567 94.7216 26.6479C94.7837 26.8391 94.79 27.044 94.7399 27.2387C94.6897 27.4333 94.5852 27.6097 94.4384 27.7471L91.315 30.672C91.1845 30.7941 91.087 30.9474 91.0318 31.1174C90.9766 31.2873 90.9653 31.4685 90.9991 31.644L91.807 35.8462C91.8449 36.0436 91.8259 36.2478 91.752 36.4348C91.6781 36.6218 91.5525 36.7838 91.3898 36.9019C91.2272 37.0201 91.0343 37.0894 90.8337 37.1019C90.6331 37.1144 90.433 37.0694 90.257 36.9723L86.5101 34.9056C86.3536 34.8192 86.1777 34.7739 85.999 34.7739C85.8203 34.7739 85.6445 34.8192 85.488 34.9056L81.7411 36.9723C81.565 37.0694 81.365 37.1144 81.1643 37.1019C80.9637 37.0894 80.7708 37.0201 80.6082 36.9019C80.4456 36.7838 80.3199 36.6218 80.2461 36.4348C80.1722 36.2478 80.1531 36.0436 80.1911 35.8462L80.9988 31.644C81.0326 31.4685 81.0213 31.2873 80.9661 31.1174C80.9108 30.9474 80.8135 30.7941 80.6831 30.672L77.5594 27.7471C77.4127 27.6097 77.3081 27.4333 77.258 27.2387C77.2079 27.044 77.2143 26.8391 77.2764 26.6479C77.3386 26.4567 77.4538 26.2871 77.6088 26.1591C77.7638 26.0311 77.952 25.9499 78.1515 25.925L82.3977 25.3947C82.5751 25.3725 82.744 25.3059 82.8886 25.2008C83.0331 25.0958 83.1487 24.9558 83.2246 24.794L85.0411 20.9194C85.1264 20.7374 85.2619 20.5835 85.4315 20.4757C85.6012 20.3678 85.798 20.3105 85.999 20.3105C86.2 20.3105 86.3969 20.3678 86.5665 20.4757C86.7362 20.5835 86.8716 20.7374 86.957 20.9194Z" fill="#FFC47A"/>
<path d="M81.2292 37.7809C80.9742 37.7797 80.7225 37.7225 80.4921 37.6132C80.2616 37.5039 80.0581 37.3452 79.8959 37.1484C79.7337 36.9516 79.6168 36.7215 79.5535 36.4744C79.4902 36.2274 79.4822 35.9694 79.5298 35.7188L80.3367 31.5172C80.3496 31.4537 80.346 31.388 80.3262 31.3263C80.3064 31.2646 80.271 31.2091 80.2235 31.165L77.0999 28.2389C76.8595 28.0142 76.6881 27.7256 76.6058 27.4069C76.5235 27.0883 76.5337 26.7529 76.6352 26.4399C76.7368 26.1269 76.9254 25.8493 77.179 25.6396C77.4327 25.43 77.7409 25.2969 78.0674 25.2561L82.3152 24.7263C82.3794 24.7183 82.4404 24.6942 82.4927 24.6561C82.545 24.618 82.5868 24.5671 82.614 24.5084L84.4305 20.6332C84.5704 20.3353 84.7922 20.0834 85.07 19.9069C85.3479 19.7304 85.6704 19.6367 85.9995 19.6367C86.3287 19.6367 86.651 19.7304 86.9289 19.9069C87.2067 20.0834 87.4286 20.3353 87.5686 20.6332L89.3851 24.5078C89.4123 24.5668 89.4542 24.6179 89.5067 24.6562C89.5592 24.6944 89.6207 24.7185 89.6852 24.7263L93.9304 25.2561C94.2571 25.2967 94.5653 25.4297 94.8192 25.6393C95.0731 25.8489 95.262 26.1266 95.3637 26.4397C95.4653 26.7528 95.4756 27.0884 95.3933 27.4072C95.311 27.726 95.1397 28.0147 94.8992 28.2395L91.7769 31.1637C91.7293 31.2075 91.6936 31.2628 91.6734 31.3242C91.6531 31.3855 91.6489 31.451 91.661 31.5145L92.4692 35.7195C92.5313 36.0425 92.5 36.3766 92.3791 36.6825C92.2582 36.9884 92.0525 37.2535 91.7864 37.4468C91.5203 37.6402 91.2046 37.7537 90.8763 37.7742C90.548 37.7946 90.2208 37.7212 89.9327 37.5624L86.1851 35.4957C86.1282 35.4646 86.0644 35.4483 85.9995 35.4483C85.9347 35.4483 85.8709 35.4646 85.8139 35.4957L82.0664 37.563C81.8102 37.7052 81.5222 37.7801 81.2292 37.7809ZM85.9995 20.9846C85.9263 20.9833 85.8542 21.0036 85.7924 21.0429C85.7306 21.0822 85.6818 21.1389 85.652 21.2058L83.8355 25.0804C83.7118 25.3455 83.5227 25.5749 83.2859 25.7469C83.0492 25.9189 82.7727 26.0279 82.4823 26.0636L78.2346 26.5935C78.1622 26.6025 78.0938 26.6321 78.0376 26.6786C77.9814 26.7252 77.9396 26.7869 77.9172 26.8563C77.8948 26.9258 77.8928 27.0002 77.9112 27.0708C77.9297 27.1414 77.9678 27.2053 78.0213 27.2549L81.1436 30.1804C81.3588 30.3797 81.5191 30.6309 81.6094 30.9098C81.6998 31.1888 81.7171 31.4863 81.6596 31.7738L80.854 35.9736C80.8403 36.0452 80.8472 36.1192 80.874 36.187C80.9007 36.2548 80.9463 36.3136 81.0053 36.3565C81.0642 36.3994 81.1341 36.4247 81.2068 36.4294C81.2796 36.4341 81.3522 36.4179 81.4161 36.3829L85.1637 34.315C85.4194 34.1732 85.7071 34.0988 85.9995 34.0988C86.292 34.0988 86.5796 34.1732 86.8354 34.315L90.583 36.3823C90.6468 36.4174 90.7192 36.4337 90.7919 36.4292C90.8646 36.4246 90.9345 36.3995 90.9935 36.3567C91.0524 36.3139 91.098 36.2552 91.1248 36.1875C91.1516 36.1197 91.1587 36.0458 91.145 35.9742L90.3381 31.7712C90.2814 31.4836 90.2993 31.1863 90.3901 30.9076C90.4809 30.6289 90.6415 30.3781 90.8567 30.1791L93.9777 27.2555C94.0313 27.2057 94.0696 27.1417 94.088 27.071C94.1064 27.0002 94.1043 26.9256 94.0817 26.856C94.0592 26.7864 94.0172 26.7247 93.9608 26.6782C93.9044 26.6317 93.8358 26.6022 93.7632 26.5934L89.5181 26.0636C89.2273 26.028 88.9504 25.9191 88.7135 25.7469C88.4765 25.5748 88.2872 25.3451 88.1636 25.0796L86.347 21.2057C86.3172 21.1388 86.2683 21.0822 86.2065 21.0429C86.1447 21.0036 86.0728 20.9833 85.9995 20.9846Z" fill="black"/>
<path d="M76.875 91H70.395V67.84H66.395V61.8H76.875V91ZM93.5531 91.52C86.8331 91.52 81.9931 85.92 81.9931 76.4C81.9931 66.92 86.8331 61.36 93.5531 61.36C100.273 61.36 105.113 66.92 105.113 76.4C105.113 85.92 100.273 91.52 93.5531 91.52ZM93.5531 85C96.2731 85 98.5131 82.6 98.5131 76.36C98.5131 70.28 96.2731 67.88 93.5531 67.88C90.7931 67.88 88.5931 70.28 88.5931 76.36C88.5931 82.6 90.7931 85 93.5531 85Z" fill="#F36D20"/>
<path d="M70.4423 111H63.9883V100.78H70.3023V102.11H65.4163V105.092H70.0223V106.422H65.4163V109.6H70.4423V111ZM75.6758 111H74.3178L71.2938 103.3H72.7638L75.0038 108.956L77.2298 103.3H78.6998L75.6758 111ZM83.1013 111.112C80.7633 111.112 79.0133 109.32 79.0133 107.136C79.0133 104.966 80.7633 103.202 82.9193 103.202C85.1593 103.202 86.8253 104.966 86.8253 107.136C86.8253 107.318 86.7973 107.584 86.7833 107.78H80.4833C80.6933 108.942 81.7713 109.824 83.1013 109.824C84.0533 109.824 84.8093 109.432 85.2993 108.83L86.4053 109.516C85.6773 110.482 84.4033 111.112 83.1013 111.112ZM80.4693 106.66H85.4113C85.3413 105.47 84.3473 104.476 82.9333 104.476C81.5753 104.476 80.5533 105.47 80.4693 106.66ZM89.72 111H88.362V103.3H89.622L89.692 104.658C90.112 103.846 90.938 103.188 92.114 103.188C93.906 103.188 95.264 104.42 95.264 107.08V111H93.892V107.08C93.892 105.33 92.94 104.532 91.806 104.532C90.686 104.532 89.72 105.316 89.72 107.08V111ZM99.8606 111.126C98.4466 111.126 97.2706 110.272 97.2706 108.13V104.532H96.2346V103.3H97.3126L97.4806 100.78H98.6286V103.3H100.477V104.532H98.6286V108.116C98.6286 109.222 99.1746 109.796 100.043 109.796C100.239 109.796 100.449 109.768 100.631 109.698L100.981 110.916C100.659 111.056 100.267 111.126 99.8606 111.126ZM105.468 111.14C104.362 111.14 102.934 110.776 102.038 109.796L102.976 108.9C103.494 109.474 104.502 109.852 105.468 109.852C106.476 109.852 107.176 109.46 107.176 108.788C107.176 107.206 102.304 108.172 102.304 105.316C102.304 104.056 103.452 103.174 105.216 103.174C106.21 103.174 107.47 103.44 108.31 104.448L107.47 105.288C106.938 104.644 105.972 104.406 105.258 104.406C104.334 104.406 103.676 104.742 103.676 105.33C103.676 106.73 108.548 105.862 108.548 108.746C108.548 110.398 107.078 111.14 105.468 111.14Z" fill="black"/>
</svg>
